<?xml version="1.0" encoding="utf-8"?>
<!-- Generator: Adobe Illustrator 16.0.0, SVG Export Plug-In . SVG Version: 6.00 Build 0)  -->
<!DOCTYPE svg PUBLIC "-//W3C//DTD SVG 1.1//EN" "http://www.w3.org/Graphics/SVG/1.1/DTD/svg11.dtd">
<svg version="1.1" id="Layer_1" xmlns="http://www.w3.org/2000/svg" xmlns:xlink="http://www.w3.org/1999/xlink" x="0px" y="0px"
	 width="165px" height="18px" viewBox="0 0 165 18" enable-background="new 0 0 165 18" xml:space="preserve">
<polygon fill="#fff" points="121.66,9.667 137.24,9.667 137.24,7.814 121.66,7.814 121.66,2.767 137.47,2.767 137.47,0.912 
	119.571,0.912 119.571,17.085 121.66,17.085 137.698,17.085 137.698,15.237 121.66,15.237 "/>
<polygon fill="#fff" points="101.022,17.085 115.794,17.085 115.794,15.237 101.022,15.237 101.022,0.912 98.938,0.912 
	98.938,17.085 "/>
<polygon fill="#fff" points="77.2,0.912 77.2,17.085 79.28,17.085 79.28,9.667 94.286,9.667 94.286,7.814 79.28,7.814 
	79.28,2.767 94.518,2.767 94.518,0.912 "/>
<path fill="#fff" d="M29.816,17.085h-2.427l9.564-16.169h1.735l9.558,16.169h-2.423l-2.483-4.377H32.303L29.816,17.085z
	 M33.353,10.851h8.939L37.86,3.047h-0.078L33.353,10.851z"/>
<polygon fill="#fff" points="21.89,12.761 21.89,17.085 23.978,17.085 23.978,0.912 21.89,0.912 21.89,10.37 21.832,10.37 
	6.311,0.912 4.298,0.912 4.298,17.085 6.382,17.085 6.382,3.32 6.439,3.32 "/>
<polygon fill="#fff" points="53.708,3.53 53.767,3.53 61.134,10.538 61.764,10.538 62.388,10.538 69.76,3.53 69.813,3.53 
	69.813,17.085 71.903,17.085 71.903,0.912 69.466,0.912 61.799,8.404 61.764,8.404 61.724,8.404 54.057,0.912 51.621,0.912 
	51.621,17.085 53.708,17.085 "/>
<path fill="#fff" d="M161.189,16.402c-5.099,1.168-9.449,1.347-12.724,0.699c-3.255-0.653-5.444-2.114-6.548-4.391
	c-1.096-2.269-1.108-5.339-0.006-7.591c1.097-2.246,3.303-3.679,6.611-4.284c3.314-0.604,7.751-0.377,12.318,1.205
	c-0.217,0.61-0.438,1.215-0.658,1.824c-0.586-0.212-1.185-0.399-1.783-0.575c-0.568-0.159-1.135-0.304-1.704-0.429
	c-0.656-0.144-1.318-0.263-1.98-0.352c-0.267-0.031-0.536-0.062-0.802-0.088c-0.266-0.022-0.529-0.041-0.791-0.054
	c-0.429-0.02-0.862-0.02-1.291-0.008c-0.537,0.012-1.068,0.055-1.596,0.118c-0.152,0.015-0.301,0.035-0.451,0.059
	c-0.149,0.021-0.306,0.041-0.456,0.069c-0.148,0.022-0.307,0.052-0.458,0.083c-0.314,0.059-0.619,0.131-0.933,0.217
	c-0.304,0.082-0.611,0.181-0.908,0.296c-0.142,0.055-0.29,0.118-0.438,0.182c-0.143,0.067-0.28,0.14-0.416,0.213
	c-0.275,0.153-0.535,0.32-0.786,0.506c-0.241,0.185-0.474,0.387-0.688,0.61c-0.215,0.212-0.403,0.454-0.573,0.707
	c-0.178,0.249-0.323,0.52-0.457,0.798c-0.124,0.281-0.232,0.57-0.319,0.868c-0.084,0.305-0.146,0.62-0.183,0.93
	c-0.045,0.321-0.058,0.642-0.047,0.964c0.002,0.324,0.03,0.641,0.077,0.96c0.042,0.314,0.108,0.621,0.194,0.924
	c0.088,0.29,0.191,0.576,0.321,0.85c0.122,0.269,0.261,0.53,0.422,0.773c0.161,0.244,0.343,0.475,0.54,0.683
	c0.193,0.218,0.407,0.419,0.64,0.595c0.228,0.192,0.465,0.354,0.721,0.512c0.261,0.15,0.536,0.29,0.81,0.407
	c0.282,0.121,0.569,0.234,0.869,0.321c0.298,0.098,0.601,0.169,0.904,0.237c0.31,0.064,0.615,0.132,0.922,0.172
	c0.16,0.026,0.307,0.046,0.458,0.067c0.147,0.026,0.298,0.045,0.447,0.061c0.329,0.04,0.662,0.071,0.998,0.094
	c0.557,0.046,1.124,0.058,1.684,0.052c0.543,0,1.087-0.027,1.633-0.07c0.26-0.02,0.526-0.045,0.79-0.073
	c0.518-0.06,1.042-0.13,1.565-0.208c0.663-0.094,1.324-0.212,1.983-0.344V9.021h2.086v7.381H161.189z"/>
</svg>
