<?xml version="1.0" encoding="utf-8"?>
<!-- Generator: Adobe Illustrator 16.0.0, SVG Export Plug-In . SVG Version: 6.00 Build 0)  -->
<!DOCTYPE svg PUBLIC "-//W3C//DTD SVG 1.1//EN" "http://www.w3.org/Graphics/SVG/1.1/DTD/svg11.dtd">
<svg version="1.1" id="Layer_1" xmlns="http://www.w3.org/2000/svg" xmlns:xlink="http://www.w3.org/1999/xlink" x="0px" y="0px"
	 width="327px" height="217px" viewBox="0 0 327 217" enable-background="new 0 0 327 217" xml:space="preserve">
<g>
	<g>
		<polygon fill="#282829" points="240.858,190.904 271.435,190.904 271.435,187.272 240.858,187.272 240.858,177.369 
			271.885,177.369 271.885,173.727 236.758,173.727 236.758,205.46 272.331,205.46 272.331,201.838 240.858,201.838 
			240.858,190.904 		"/>
		<polygon fill="#282829" points="200.362,173.727 196.272,173.727 196.272,205.46 229.349,205.46 229.349,201.838 200.362,201.838 
			200.362,173.727 		"/>
		<polygon fill="#282829" points="153.61,205.46 157.695,205.46 157.695,190.904 187.138,190.904 187.138,187.272 157.695,187.272 
			157.695,177.369 187.593,177.369 187.593,173.727 153.61,173.727 153.61,205.46 		"/>
		<path fill="#282829" d="M67.569,193.229l8.691-15.313h0.154l8.695,15.313H67.569L67.569,193.229z M74.635,173.734L55.868,205.46
			h4.76l4.879-8.589h21.659l4.875,8.589h4.754L78.04,173.734H74.635L74.635,173.734z"/>
		<polygon fill="#282829" points="45.077,192.29 44.96,192.29 14.501,173.727 10.547,173.727 10.547,205.46 14.639,205.46 
			14.639,178.453 14.754,178.453 45.077,196.979 45.077,205.46 49.168,205.46 49.168,173.727 45.077,173.727 45.077,192.29 		"/>
		<polygon fill="#282829" points="123.393,188.428 123.242,188.428 108.199,173.727 103.417,173.727 103.417,205.465 
			107.512,205.465 107.512,178.866 107.627,178.866 122.085,192.615 124.545,192.615 139.012,178.866 139.118,178.866 
			139.118,205.465 143.215,205.465 143.215,173.727 138.437,173.727 123.393,188.428 		"/>
		<path fill="#282829" d="M314.334,189.632v11.718c-1.293,0.263-2.588,0.493-3.896,0.679c-1.024,0.152-2.051,0.293-3.07,0.411
			c-0.517,0.052-1.042,0.103-1.551,0.14c-1.069,0.088-2.139,0.141-3.203,0.141c-1.1,0.013-2.21-0.01-3.307-0.103
			c-0.659-0.04-1.31-0.105-1.956-0.178c-0.293-0.033-0.592-0.075-0.877-0.123c-0.301-0.045-0.589-0.08-0.899-0.136
			c-0.604-0.077-1.204-0.205-1.809-0.338c-0.599-0.13-1.192-0.275-1.78-0.461c-0.584-0.175-1.152-0.394-1.706-0.631
			c-0.538-0.229-1.077-0.504-1.586-0.805c-0.501-0.3-0.967-0.618-1.417-0.996c-0.453-0.351-0.877-0.744-1.253-1.17
			c-0.386-0.408-0.741-0.861-1.062-1.343c-0.306-0.479-0.584-0.984-0.827-1.516c-0.25-0.538-0.453-1.097-0.626-1.665
			c-0.165-0.594-0.298-1.197-0.386-1.812c-0.09-0.629-0.143-1.25-0.147-1.886c-0.018-0.634,0.005-1.263,0.093-1.894
			c0.077-0.606,0.195-1.225,0.36-1.823c0.163-0.587,0.381-1.152,0.621-1.701c0.263-0.546,0.549-1.077,0.899-1.565
			c0.333-0.498,0.704-0.975,1.13-1.391c0.418-0.436,0.871-0.834,1.348-1.197c0.493-0.365,1.002-0.69,1.537-0.991
			c0.269-0.148,0.541-0.291,0.819-0.419c0.291-0.127,0.581-0.248,0.864-0.357c0.579-0.229,1.178-0.424,1.778-0.584
			c0.611-0.168,1.21-0.313,1.831-0.426c0.293-0.062,0.606-0.12,0.896-0.163c0.299-0.053,0.604-0.095,0.895-0.135
			c0.301-0.048,0.589-0.085,0.89-0.115c1.034-0.126,2.078-0.206,3.133-0.23c0.837-0.022,1.688-0.022,2.527,0.018
			c0.521,0.022,1.034,0.06,1.556,0.103c0.523,0.053,1.055,0.11,1.57,0.173c1.305,0.173,2.603,0.411,3.89,0.693
			c1.12,0.243,2.234,0.529,3.345,0.84c1.18,0.346,2.352,0.711,3.504,1.127c0.428-1.195,0.861-2.382,1.29-3.577
			c-8.965-3.104-17.669-3.554-24.179-2.367c-6.492,1.188-10.818,3.998-12.973,8.406c-2.161,4.419-2.139,10.447,0.008,14.898
			c2.169,4.464,6.468,7.332,12.854,8.611c6.402,1.272,14.911,0.927,24.87-1.348v-14.513H314.334L314.334,189.632z"/>
	</g>
	<g>
		<path fill="#282829" d="M135.194,105.735c0.567-0.059,1.386-0.188,2.401-0.348c6.362-1.005,21.253-3.359,27.415,3.85
			c2.94,3.441,4.223,8.128,3.424,12.535c-0.524,2.906-1.888,5.243-3.874,6.696c-5.031-3.388-4.794-9.87-2.786-15
			c-0.552-1.34-1.505-2.346-2.773-3.073l-0.674,1.723c-3.394,8.67-1.28,16.581,5.385,20.155l0.89,0.477l0.881-0.488
			c3.402-1.885,5.806-5.469,6.597-9.832c0.991-5.487-0.599-11.318-4.254-15.599c-7.502-8.783-23.831-6.204-30.809-5.101
			c-0.937,0.147-1.692,0.27-2.213,0.324c-21.179,2.248-35.854-6.411-40.03-23.299c2.72,1.147,5.795,1.718,8.919,2.031
			c4.623,7.448,10.845,12.539,16.332,13.217c5.007,0.611,7.918-2.265,8.604-5.396c0.762-3.48-1.063-8.068-6.871-9.919
			c-2.847-0.906-6.641-1.042-10.66-1.185c-1.692-0.061-3.447-0.123-5.19-0.248c-0.118-0.21-0.233-0.423-0.35-0.638
			c-3.242-6.021-9.527-21.47-1.914-40.44c1.726,3.648,4.064,6.574,6.461,9.16c-1.869,6.167-2.795,12.121,0.978,18.172
			c2.552,4.093,6.711,4.782,9.497,3.35c3.007-1.547,4.972-5.695,2.58-11.476c-1.475-3.562-4.333-6.441-7.361-9.49
			c-0.499-0.505-1.003-1.012-1.505-1.525c0.223-0.676,0.453-1.366,0.69-2.07c2.896-8.642,6.448-19.251,1.081-32.902
			c7.391,1.504,24.915,7.255,25.494,28.026c0.172,6.115-2.513,11.042-5.112,15.805c-3.411,6.252-6.696,12.615-3.261,21.123
			c3.327,8.24,12.562,9.869,15.172,10.168c0.295,0.034,0.515-0.274,0.383-0.541c-0.517-1.051-0.907-2.109-1.153-3.177l-2.155-0.559
			c-4.101-1.078-7.244-3.697-8.852-7.374c-2.951-6.745-0.138-11.899,3.116-17.867c2.703-4.954,5.765-10.566,5.567-17.683
			c-0.427-15.237-9.179-23.177-16.448-27.154c-7.752-4.243-15.317-4.928-15.635-4.954l-1.901-0.162
			c-0.586-0.049-1.004,0.556-0.749,1.086l0.824,1.72c6.666,13.9,3.137,24.263,0.075,33.408c0,0-0.001,0-0.002,0
			c-2.474-2.89-4.64-6.172-5.854-10.442l-0.771-2.716c-0.19-0.668-1.105-0.752-1.413-0.13l-1.255,2.531
			c-10.312,20.792-4.527,38.327-0.659,46.26c-3.126-0.508-5.996-1.406-8.15-3.078l-2.133-1.658c-0.54-0.419-1.316,0.032-1.219,0.709
			l0.385,2.675C93.425,96.721,110.593,108.34,135.194,105.735z M110.966,81.204c3.757,0.134,7.304,0.26,9.667,1.014
			c3.599,1.146,4.792,3.705,4.377,5.598c-0.318,1.445-1.692,2.848-4.534,2.514c-3.818-0.472-8.363-4.01-12.121-9.227
			C109.236,81.142,110.108,81.173,110.966,81.204z M113.075,48.405c0.033,0.032,0.063,0.065,0.095,0.096
			c2.883,2.904,5.371,5.412,6.566,8.298c1.492,3.605,0.647,5.997-0.85,6.767c-1.238,0.638-3.231,0.281-4.66-2.016
			C111.596,57.331,111.828,53.144,113.075,48.405z"/>
		<path fill="#282829" d="M235.559,73.686c-2.154,1.672-5.024,2.57-8.15,3.078c3.869-7.933,9.653-25.467-0.659-46.26l-1.255-2.531
			c-0.308-0.623-1.223-0.539-1.412,0.13l-0.771,2.716c-1.213,4.27-3.38,7.553-5.854,10.443l0,0
			c-3.063-9.146-6.592-19.508,0.073-33.409l0.824-1.72c0.255-0.53-0.163-1.136-0.749-1.086l-1.901,0.162
			c-0.318,0.026-7.883,0.711-15.634,4.954c-7.269,3.978-16.021,11.917-16.448,27.154c-0.197,7.116,2.864,12.729,5.565,17.683
			c3.255,5.968,6.068,11.122,3.117,17.867c-2.836,6.489-9.538,8.278-14.435,7.832c-5.106-0.462-9.111-3.12-9.838-6.847
			c-0.716-3.678,2.208-5.068,3.967-5.356c2.75-0.45,6.506-0.439,10.07-0.368l0.638,0.012c1.229,0.024,1.978-1.348,1.29-2.369
			l-0.356-0.528c-3.58-5.323-8.9-8.485-14.269-9.732c-1.928-0.448-5.784-1.661-7.074-3.562c-1.825-2.688-2.237-6.375-1.162-10.378
			l0.659-2.454c0.173-0.646-0.511-1.184-1.099-0.865l-2.23,1.211c-7.837,3.855-9.444,12.333-8.266,18.947
			c0.059,0.334,0.491,0.425,0.687,0.148c0.832-1.171,1.838-2.211,2.786-2.835c-0.014-0.071-1.546-7.232,3.621-11.69
			c-0.418,3.564-0.438,8.045,3.716,12.048c-7.002,2.397-10.87,9.162-10.346,18.117c0.627,10.689,8.898,16.485,16.895,22.09
			c9.283,6.505,18.054,12.649,15.997,26.133c-1.034,6.773-5.222,10.27-10.072,14.32c-2.979,2.486-6.289,5.249-9.028,9.044
			c-2.74-3.798-6.056-6.561-9.042-9.05c-4.857-4.047-9.048-7.543-10.083-14.313c-0.337-2.228-0.47-5.075-0.312-6.771l0.214-2.287
			c0.059-0.639-0.648-1.059-1.181-0.702l-1.909,1.28c-7.193,4.825-13.188,5.101-17.616,3.918c2.359-1.455,4.739-3.286,7.113-5.471
			l1.383-1.261c0.273-0.25,0.066-0.704-0.302-0.658c-1.312,0.165-3.37,0.34-4.569,0.017c-2.892,2.497-6.028,4.694-8.807,5.965
			l-2.05,0.937c-0.577,0.265-0.596,1.078-0.03,1.369l2.006,1.025c4.893,2.506,12.521,4.185,22.008-0.988
			c0.059,1.397,0.192,2.876,0.391,4.186c1.243,8.158,6.393,12.45,11.37,16.602c3.524,2.938,7.17,5.974,9.814,10.524l0.944,1.623
			c0.292,0.506,1.022,0.506,1.315,0l0.943-1.623c2.644-4.549,6.281-7.587,9.798-10.522c4.974-4.151,10.116-8.444,11.359-16.604
			c2.403-15.755-8.187-23.178-17.529-29.725c-7.611-5.334-14.802-10.373-15.322-19.274c-0.431-7.324,2.448-12.579,7.894-14.417
			c1.781-0.599,3.661-0.741,5.542-0.532l0.837,0.097c3.427,0.586,6.814,2.415,9.576,5.265c-3.388,0.025-6.062,0.293-8.18,0.719
			c-4.68,0.942-6.454,5.695-5.604,9.587c1.155,5.294,6.388,9.077,13.111,9.687c6.097,0.559,14.535-1.741,18.161-10.038
			c3.677-8.407,0.15-14.871-3.262-21.123c-2.599-4.764-5.283-9.69-5.113-15.805c0.579-20.771,18.104-26.522,25.494-28.026
			c-5.367,13.652-1.813,24.26,1.082,32.904c0.235,0.703,0.464,1.392,0.687,2.069c-0.498,0.512-1.002,1.019-1.503,1.524
			c-3.025,3.049-5.886,5.929-7.361,9.492c-2.392,5.779-0.427,9.928,2.58,11.475c2.785,1.432,6.945,0.744,9.498-3.35
			c3.771-6.051,2.845-12.004,0.979-18.17c2.395-2.588,4.733-5.513,6.459-9.162c7.612,18.97,1.328,34.419-1.913,40.44
			c-0.118,0.215-0.233,0.427-0.351,0.638c-1.743,0.125-3.497,0.187-5.19,0.248c-4.018,0.143-7.812,0.278-10.659,1.185
			c-5.808,1.851-7.632,6.439-6.871,9.919c0.686,3.128,3.631,6.006,8.604,5.396c5.488-0.678,11.71-5.769,16.334-13.217
			c3.123-0.313,6.191-0.882,8.914-2.029c-4.226,16.922-19.231,25.788-40.1,23.3l-2.106-0.251c-0.615-0.072-1.055,0.58-0.756,1.122
			l1.021,1.858c0.194,0.356,4.39,7.86,13.115,13.125c-5.954,2.121-11.135-0.957-12.924-2.235c-0.267-0.191-0.63,0.028-0.594,0.355
			c0.162,1.475,0.144,2.787-0.116,3.885l1.921,0.927c2.996,1.308,9.185,2.915,16.94-1.059l2.004-1.025
			c0.566-0.291,0.549-1.104-0.029-1.369l-2.05-0.937c-6.273-2.869-10.557-7.373-12.897-10.368
			c22.496,1.298,38.049-10.22,40.991-30.672l0.384-2.675c0.098-0.677-0.679-1.128-1.218-0.709L235.559,73.686z M214.656,61.55
			c-1.431,2.293-3.422,2.656-4.661,2.016c-1.498-0.77-2.343-3.161-0.85-6.765c1.192-2.888,3.682-5.396,6.565-8.3
			c0.032-0.031,0.062-0.064,0.095-0.095C217.053,53.144,217.286,57.332,214.656,61.55z M208.404,90.329
			c-2.841,0.345-4.215-1.068-4.533-2.514c-0.416-1.893,0.777-4.451,4.378-5.598c2.362-0.753,5.911-0.88,9.666-1.014
			c0.858-0.03,1.73-0.062,2.609-0.101C216.768,86.319,212.224,89.857,208.404,90.329z"/>
	</g>
</g>
</svg>
