<svg width="20" height="17" viewBox="0 0 20 17" fill="none" xmlns="http://www.w3.org/2000/svg">
<path d="M18.9065 6.90235H5.52439L9.73171 2.58786C9.93902 2.37567 10.0488 2.09276 10.0488 1.7932C10.0488 1.49364 9.93496 1.21072 9.73171 0.998532L9.07724 0.328683C8.86992 0.116495 8.59756 0 8.30488 0C8.01219 0 7.73577 0.116495 7.53252 0.324523L0.317073 7.70533C0.113821 7.91752 0 8.20044 0 8.5C0 8.79956 0.113821 9.08248 0.317073 9.29466L7.52845 16.6755C7.73577 16.8877 8.00813 17 8.30081 17C8.5935 17 8.86585 16.8835 9.07317 16.6755L9.72764 16.0056C9.93496 15.7934 10.0447 15.5147 10.0447 15.2151C10.0447 14.9156 9.93089 14.6493 9.72764 14.4371L5.47561 10.0976H18.8902C19.4919 10.0976 20 9.5651 20 8.94934V8.00073C20 7.38497 19.4797 6.89403 18.874 6.89403" fill="#E2E2E2"/>
</svg>
