<svg width="14" height="20" viewBox="0 0 14 20" fill="none" xmlns="http://www.w3.org/2000/svg">
<path d="M1.6439 19.033C1.66689 19.5716 2.08068 20 2.58643 20H11.4083C11.914 20 12.3336 19.5777 12.3508 19.033L12.983 4.86536H1.01172L1.6439 19.033ZM8.99448 8.39045C8.99448 8.16401 9.16689 7.98041 9.37953 7.98041H9.99448C10.2071 7.98041 10.3795 8.16401 10.3795 8.39045V16.481C10.3795 16.7075 10.2071 16.8911 9.99448 16.8911H9.37953C9.16689 16.8911 8.99448 16.7075 8.99448 16.481V8.39045ZM6.31057 8.39045C6.31057 8.16401 6.48298 7.98041 6.69563 7.98041H7.31057C7.52321 7.98041 7.69563 8.16401 7.69563 8.39045V16.481C7.69563 16.7075 7.52321 16.8911 7.31057 16.8911H6.69563C6.48298 16.8911 6.31057 16.7075 6.31057 16.481V8.39045ZM3.62091 8.39045C3.62091 8.16401 3.79333 7.98041 4.00597 7.98041H4.62091C4.83356 7.98041 5.00597 8.16401 5.00597 8.39045V16.481C5.00597 16.7075 4.83356 16.8911 4.62091 16.8911H4.00597C3.79333 16.8911 3.62091 16.7075 3.62091 16.481V8.39045Z" fill="#C4C4C4"/>
<path d="M13.4023 1.02815H9.33333V0.208078C9.33333 0.0917993 9.24713 0 9.13793 0H4.86207C4.75287 0 4.66667 0.0917993 4.66667 0.208078V1.02815H0.591954C0.264368 1.02815 0 1.31579 0 1.66463V3.64749H14V1.66463C14 1.31579 13.7299 1.02815 13.4023 1.02815Z" fill="#C4C4C4"/>
</svg>
