<svg width="57" height="60" viewBox="0 0 57 60" fill="none" xmlns="http://www.w3.org/2000/svg">
<g filter="url(#filter0_d)">
<path d="M51.2139 27.9291C50.1844 17.1417 44.0075 8.27526 35.7716 4.87646C35.4775 6.05865 35.0363 7.09307 34.3009 8.27526C41.2132 11.2307 46.5077 18.7672 47.3901 27.9291H8.71076C9.59318 18.7672 14.7406 11.2307 21.5058 8.27526C20.7705 7.24084 20.3293 6.20643 20.0351 5.17201C12.2404 8.86635 6.50471 17.585 5.62229 27.9291H4.73988C2.82797 27.9291 1.65141 29.4069 2.09262 31.3279L7.97541 51.7207C8.56369 53.6417 10.6227 55.1195 12.5346 55.1195H42.978C44.8899 55.1195 47.096 53.6417 47.5372 51.7207L53.8612 31.3279C54.4495 29.5546 53.2729 27.9291 51.2139 27.9291Z" fill="white"/>
<path d="M27.9769 11.6741C30.33 10.6397 32.0948 9.30973 33.2714 7.83199C34.1538 6.79758 34.595 5.61539 34.8892 4.4332C35.1833 3.10324 34.7421 1.77328 33.8597 0.886641C33.1243 0.295547 32.389 0 31.6536 0C29.7417 0 28.124 1.77328 28.124 1.77328C28.124 1.77328 26.5062 0 24.5943 0C23.8589 0 23.1236 0.295547 22.3882 0.886641C21.3587 1.77328 21.0646 3.25102 21.3587 4.72875C21.6529 5.76317 22.0941 6.79758 22.9765 7.83199C23.8589 9.4575 25.6238 10.7875 27.9769 11.6741Z" fill="white"/>
</g>
<defs>
<filter id="filter0_d" x="0" y="0" width="56.0126" height="59.1195" filterUnits="userSpaceOnUse" color-interpolation-filters="sRGB">
<feFlood flood-opacity="0" result="BackgroundImageFix"/>
<feColorMatrix in="SourceAlpha" type="matrix" values="0 0 0 0 0 0 0 0 0 0 0 0 0 0 0 0 0 0 127 0"/>
<feOffset dy="2"/>
<feGaussianBlur stdDeviation="1"/>
<feColorMatrix type="matrix" values="0 0 0 0 0 0 0 0 0 0 0 0 0 0 0 0 0 0 0.12 0"/>
<feBlend mode="normal" in2="BackgroundImageFix" result="effect1_dropShadow"/>
<feBlend mode="normal" in="SourceGraphic" in2="effect1_dropShadow" result="shape"/>
</filter>
</defs>
</svg>
