<svg width="51" height="34" viewBox="0 0 51 34" fill="none" xmlns="http://www.w3.org/2000/svg">
<g clip-path="url(#clip0)">
<g filter="url(#filter0_d)">
<path d="M50.3105 0H37.7923C35.9853 0 34.321 0.806186 33.2273 2.16151C32.1336 0.806186 30.4692 0 28.6623 0H25.0839C24.7035 0 24.3944 0.30378 24.3944 0.677663C24.3944 1.05155 24.7035 1.35533 25.0839 1.35533H28.6623C30.279 1.35533 31.7413 2.19656 32.5378 3.57526V24.8983C31.4916 23.9869 30.1245 23.4612 28.6623 23.4612H16.8455V1.36701H19.3895C19.7699 1.36701 20.079 1.06323 20.079 0.689347C20.079 0.315464 19.7699 0 19.3895 0H16.1441C15.7637 0 15.4546 0.30378 15.4546 0.677663V27.5622C15.4546 27.9361 15.7637 28.2399 16.1441 28.2399H50.2986C50.679 28.2399 50.9881 27.9361 50.9881 27.5622V0.677663C51 0.30378 50.6909 0 50.3105 0ZM37.7923 1.36701H49.6091V23.4729H37.7923C36.3301 23.4729 34.963 23.9986 33.9168 24.91V3.58694C34.7133 2.20825 36.1874 1.36701 37.7923 1.36701ZM16.8455 24.8399H28.6623C30.2077 24.8399 31.6224 25.611 32.4308 26.8845H16.8455V24.8399ZM34.0238 26.8845C34.8322 25.611 36.2469 24.8399 37.7923 24.8399H49.6091V26.8845H34.0238Z" fill="white"/>
<path d="M28.7811 18.8345C28.6028 18.8345 28.4245 18.9046 28.2937 19.0331C28.1629 19.1616 28.0916 19.3369 28.0916 19.5121C28.0916 19.6874 28.1629 19.8626 28.2937 19.9912C28.4245 20.1197 28.6028 20.1898 28.7811 20.1898C28.9594 20.1898 29.1378 20.1197 29.2685 19.9912C29.3993 19.8626 29.4706 19.6874 29.4706 19.5121C29.4706 19.3369 29.3993 19.1616 29.2685 19.0331C29.1496 18.9046 28.9713 18.8345 28.7811 18.8345Z" fill="white"/>
<path d="M19.9245 18.8345C19.5441 18.8345 19.235 19.1382 19.235 19.5121C19.235 19.886 19.5441 20.1898 19.9245 20.1898H26.1776C26.5581 20.1898 26.8672 19.886 26.8672 19.5121C26.8672 19.1382 26.5581 18.8345 26.1776 18.8345H19.9245Z" fill="white"/>
<path d="M28.7811 14.1025H19.9126C19.5321 14.1025 19.2231 14.4063 19.2231 14.7802C19.2231 15.1541 19.5321 15.4579 19.9126 15.4579H28.7811C29.1615 15.4579 29.4706 15.1541 29.4706 14.7802C29.4825 14.4063 29.1734 14.1025 28.7811 14.1025Z" fill="white"/>
<path d="M28.7811 9.37036H19.9126C19.5321 9.37036 19.2231 9.67414 19.2231 10.048C19.2231 10.4219 19.5321 10.7257 19.9126 10.7257H28.7811C29.1615 10.7257 29.4706 10.4219 29.4706 10.048C29.4825 9.67414 29.1734 9.37036 28.7811 9.37036Z" fill="white"/>
<path d="M28.7811 4.63843H19.9126C19.5321 4.63843 19.2231 4.94221 19.2231 5.31609C19.2231 5.68998 19.5321 5.99376 19.9126 5.99376H28.7811C29.1615 5.99376 29.4706 5.68998 29.4706 5.31609C29.4706 4.94221 29.1734 4.63843 28.7811 4.63843Z" fill="white"/>
<path d="M46.5538 18.8345C46.3755 18.8345 46.1972 18.9046 46.0664 19.0331C45.9356 19.1616 45.8643 19.3369 45.8643 19.5121C45.8643 19.6874 45.9356 19.8626 46.0664 19.9912C46.1972 20.1197 46.3755 20.1898 46.5538 20.1898C46.7322 20.1898 46.9105 20.1197 47.0412 19.9912C47.172 19.8626 47.2433 19.6874 47.2433 19.5121C47.2433 19.3369 47.172 19.1616 47.0412 19.0331C46.9224 18.9046 46.744 18.8345 46.5538 18.8345Z" fill="white"/>
<path d="M37.6972 20.2013H43.9504C44.3308 20.2013 44.6399 19.8975 44.6399 19.5236C44.6399 19.1497 44.3308 18.8459 43.9504 18.8459H37.6972C37.3168 18.8459 37.0077 19.1497 37.0077 19.5236C37.0077 19.8975 37.3049 20.2013 37.6972 20.2013Z" fill="white"/>
<path d="M37.6972 15.4693H46.5658C46.9462 15.4693 47.2553 15.1656 47.2553 14.7917C47.2553 14.4178 46.9462 14.114 46.5658 14.114H37.6972C37.3168 14.114 37.0077 14.4178 37.0077 14.7917C36.9958 15.1656 37.3049 15.4693 37.6972 15.4693Z" fill="white"/>
<path d="M37.6972 10.7374H46.5658C46.9462 10.7374 47.2553 10.4336 47.2553 10.0597C47.2553 9.68586 46.9462 9.38208 46.5658 9.38208H37.6972C37.3168 9.38208 37.0077 9.68586 37.0077 10.0597C36.9958 10.4336 37.3049 10.7374 37.6972 10.7374Z" fill="white"/>
<path d="M37.6972 6.00547H46.5658C46.9462 6.00547 47.2553 5.70169 47.2553 5.32781C47.2553 4.95393 46.9462 4.65015 46.5658 4.65015H37.6972C37.3168 4.65015 37.0077 4.95393 37.0077 5.32781C36.9958 5.70169 37.3049 6.00547 37.6972 6.00547Z" fill="white"/>
<path d="M22.2545 1.36701C22.4329 1.36701 22.6112 1.29691 22.742 1.16838C22.8727 1.03986 22.9441 0.864605 22.9441 0.689347C22.9441 0.514089 22.8727 0.338832 22.742 0.210309C22.6112 0.0817869 22.4448 0 22.2545 0C22.0643 0 21.8979 0.0701031 21.7671 0.198625C21.6364 0.327148 21.565 0.502406 21.565 0.677663C21.565 0.852921 21.6364 1.02818 21.7671 1.1567C21.8979 1.28522 22.0762 1.36701 22.2545 1.36701Z" fill="white"/>
<path d="M32.6329 33.9999H0.594406C0.273427 33.9999 0 33.7312 0 33.4157C0 33.0886 0.261538 32.8315 0.594406 32.8315H32.6329C32.9657 32.8315 33.2273 33.1003 33.2273 33.4157C33.2273 33.7312 32.9657 33.9999 32.6329 33.9999Z" fill="white"/>
<path d="M14.1944 28.1463H0.392308C0.178322 28.1463 0 27.971 0 27.7607V27.3635C0 27.1532 0.178322 26.9779 0.392308 26.9779H14.1825C14.3965 26.9779 14.5748 27.1532 14.5748 27.3635V27.7607C14.5867 27.971 14.4084 28.1463 14.1944 28.1463Z" fill="white"/>
<path d="M14.1944 22.2927H0.392308C0.178322 22.2927 0 22.1174 0 21.9071V21.5098C0 21.2995 0.178322 21.1243 0.392308 21.1243H14.1825C14.3965 21.1243 14.5748 21.2995 14.5748 21.5098V21.9071C14.5867 22.1174 14.4084 22.2927 14.1944 22.2927Z" fill="white"/>
</g>
</g>
<defs>
<filter id="filter0_d" x="-2" y="0" width="54.9885" height="37.9999" filterUnits="userSpaceOnUse" color-interpolation-filters="sRGB">
<feFlood flood-opacity="0" result="BackgroundImageFix"/>
<feColorMatrix in="SourceAlpha" type="matrix" values="0 0 0 0 0 0 0 0 0 0 0 0 0 0 0 0 0 0 127 0"/>
<feOffset dy="2"/>
<feGaussianBlur stdDeviation="1"/>
<feColorMatrix type="matrix" values="0 0 0 0 0 0 0 0 0 0 0 0 0 0 0 0 0 0 0.12 0"/>
<feBlend mode="normal" in2="BackgroundImageFix" result="effect1_dropShadow"/>
<feBlend mode="normal" in="SourceGraphic" in2="effect1_dropShadow" result="shape"/>
</filter>
<clipPath id="clip0">
<rect width="51" height="34" fill="white"/>
</clipPath>
</defs>
</svg>
