<svg width="38" height="44" viewBox="0 0 38 44" fill="none" xmlns="http://www.w3.org/2000/svg">
<g clip-path="url(#clip0)" filter="url(#filter0_d)">
<path d="M4.71286 39.3334C4.71286 39.7001 5.01901 40.0001 5.3932 40.0001H32.6068C32.981 40.0001 33.2871 39.7001 33.2871 39.3334V32.0001C33.2871 29.4251 31.1526 27.3334 28.5248 27.3334H23.082V23.5834C25.6078 22.1584 27.1641 19.5167 27.1641 16.6667V13.3334H27.8444V12.0001H25.8884C24.9445 12.0001 24.1281 11.3667 23.907 10.4667L22.3847 5.15008C22.2997 4.85841 22.036 4.66675 21.7299 4.66675C21.4237 4.66675 21.1601 4.86675 21.075 5.15008L19.6718 9.98342C19.3657 11.1667 18.2856 12.0001 17.0355 12.0001H10.1556V13.3334H10.8359V16.6667C10.8359 19.5251 12.3922 22.1584 14.918 23.5834V28.0001C14.918 28.1751 14.986 28.3501 15.1136 28.4751L18.5153 31.8084C18.7789 32.0667 19.2126 32.0667 19.4762 31.8084L22.6823 28.6667H28.5248C30.4042 28.6667 31.9265 30.1584 31.9265 32.0001V38.6667H6.07354V38.0001H4.71286V39.3334ZM12.1966 16.6667V13.3334H17.027C18.8894 13.3417 20.5223 12.1001 20.9815 10.3251L21.7214 7.78341L22.5888 10.8084C22.963 12.2584 24.2726 13.2917 25.8034 13.3251V16.6667C25.8034 20.3501 22.7589 23.3334 19 23.3334C15.2411 23.3334 12.1966 20.3501 12.1966 16.6667ZM19 30.3918L16.2786 27.7251V24.2001C18.039 24.8251 19.961 24.8251 21.7214 24.2001V27.7251L19 30.3918Z" fill="white"/>
<path d="M11.5163 35.3333H8.11456C6.98349 35.3333 6.07354 34.4416 6.07354 33.3333H4.71286C4.71286 35.1749 6.23512 36.6666 8.11456 36.6666H11.5163C14.1441 36.6666 16.2786 34.5749 16.2786 31.9999C16.2786 29.4249 14.1441 27.3333 11.5163 27.3333H9.47524V28.6666H11.5163C13.3957 28.6666 14.918 30.1583 14.918 31.9999C14.918 33.8416 13.3957 35.3333 11.5163 35.3333Z" fill="white"/>
<path d="M32.7511 23.5771C33.0998 23.1188 33.2869 22.5688 33.2869 22.0021C33.2869 20.5271 32.0708 19.3354 30.5656 19.3354V11.6354C30.6591 5.50209 25.8117 0.385425 19.5611 0.0187582C13.1829 -0.281242 7.75715 4.54376 7.451 10.7938C7.44249 10.9771 7.43399 11.1604 7.43399 11.3438V19.3438C5.92874 19.3438 4.71263 20.5354 4.71263 22.0104C4.71263 22.5771 4.89972 23.1271 5.2484 23.5854C2.75665 24.4021 1.41298 27.0521 2.2464 29.4938C2.89272 31.3938 4.71263 32.6688 6.75365 32.6771H10.8357V31.3438H6.75365C4.87421 31.3438 3.35195 29.8521 3.35195 28.0104C3.35195 26.1688 4.87421 24.6771 6.75365 24.6771H10.8357V23.3438H7.43399C6.68562 23.3438 6.07331 22.7438 6.07331 22.0104C6.07331 21.2771 6.68562 20.6771 7.43399 20.6771H8.11433C8.48852 20.6771 8.79467 20.3771 8.79467 20.0104V11.3354C8.79467 5.81042 13.3615 1.33542 18.9998 1.33542C19.1614 1.33542 19.3314 1.33542 19.493 1.34376C25.0208 1.67709 29.2984 6.21042 29.2049 11.6354V20.0021C29.2049 20.3688 29.511 20.6688 29.8852 20.6688H30.5656C31.3139 20.6688 31.9262 21.2688 31.9262 22.0021C31.9262 22.7354 31.3139 23.3354 30.5656 23.3354H27.1639V24.6688H31.2459C33.1253 24.6688 34.6476 26.1604 34.6476 28.0021C34.6476 28.8188 34.3414 29.6104 33.7802 30.2271L34.7922 31.1188C36.544 29.1938 36.374 26.2438 34.4095 24.5271C33.9247 24.1021 33.3635 23.7854 32.7511 23.5771Z" fill="white"/>
<path d="M15.5983 14.8333C14.9435 14.8333 14.4077 15.3583 14.4077 15.9999C14.4077 16.6416 14.9435 17.1666 15.5983 17.1666C16.2531 17.1666 16.7889 16.6416 16.7889 15.9999C16.7889 15.3583 16.2531 14.8333 15.5983 14.8333ZM15.4282 15.9999C15.4282 15.9083 15.5047 15.8333 15.5983 15.8333C15.6918 15.8333 15.7684 15.9083 15.7684 15.9999C15.7684 16.1833 15.4282 16.1833 15.4282 15.9999Z" fill="white"/>
<path d="M22.4017 17.1666C23.0565 17.1666 23.5923 16.6416 23.5923 15.9999C23.5923 15.3583 23.0565 14.8333 22.4017 14.8333C21.7469 14.8333 21.2111 15.3583 21.2111 15.9999C21.2111 16.6416 21.7469 17.1666 22.4017 17.1666ZM22.4017 15.8333C22.4952 15.8333 22.5718 15.9083 22.5718 15.9999C22.5718 16.1833 22.2316 16.1833 22.2316 15.9999C22.2316 15.9083 22.3082 15.8333 22.4017 15.8333Z" fill="white"/>
<path d="M21.5513 19.3334H20.5308C20.5308 20.1584 19.8419 20.8334 19 20.8334C18.1581 20.8334 17.4692 20.1584 17.4692 19.3334H16.4487C16.4487 20.7167 17.5883 21.8334 19 21.8334C20.4117 21.8334 21.5513 20.7167 21.5513 19.3334Z" fill="white"/>
</g>
<defs>
<filter id="filter0_d" x="0" y="0" width="38" height="44" filterUnits="userSpaceOnUse" color-interpolation-filters="sRGB">
<feFlood flood-opacity="0" result="BackgroundImageFix"/>
<feColorMatrix in="SourceAlpha" type="matrix" values="0 0 0 0 0 0 0 0 0 0 0 0 0 0 0 0 0 0 127 0"/>
<feOffset dy="2"/>
<feGaussianBlur stdDeviation="1"/>
<feColorMatrix type="matrix" values="0 0 0 0 0 0 0 0 0 0 0 0 0 0 0 0 0 0 0.12 0"/>
<feBlend mode="normal" in2="BackgroundImageFix" result="effect1_dropShadow"/>
<feBlend mode="normal" in="SourceGraphic" in2="effect1_dropShadow" result="shape"/>
</filter>
<clipPath id="clip0">
<rect width="34" height="40" fill="white" transform="translate(2)"/>
</clipPath>
</defs>
</svg>
