<svg width="44" height="44" viewBox="0 0 44 44" fill="none" xmlns="http://www.w3.org/2000/svg">
<g filter="url(#filter0_d)">
<path d="M41.2188 38.4364H37.7816V32.265C37.7816 31.8354 37.43 31.4838 37.0004 31.4838C36.5707 31.4838 36.2192 31.8354 36.2192 32.265V38.4364H26.845V23.5938C26.845 23.1642 26.4934 22.8126 26.0638 22.8126H17.9394C17.5098 22.8126 17.1582 23.1642 17.1582 23.5938V38.4364H7.78398V20.7815H8.08083C8.29175 20.7815 8.48704 20.6956 8.63547 20.555L22.0016 7.18888L35.3677 20.555C35.5161 20.7034 35.7114 20.7815 35.9224 20.7815H36.2192V26.6405C36.2192 27.0701 36.5707 27.4216 37.0004 27.4216C37.43 27.4216 37.7816 27.0701 37.7816 26.6405V20.7815H41.2188C41.5313 20.7815 41.8203 20.5941 41.9375 20.2972C42.0547 20.0082 41.9922 19.6723 41.7656 19.4457L22.5484 0.228497C22.2438 -0.0761658 21.7516 -0.0761658 21.4469 0.228497L14.1038 7.57166C13.7991 7.87633 13.7991 8.36847 14.1038 8.67314C14.4084 8.9778 14.9006 8.9778 15.2053 8.67314L22.0016 1.88462L39.3361 19.2192H36.2426L22.5562 5.53276C22.2516 5.2281 21.7594 5.2281 21.4548 5.53276L7.76054 19.2192H4.66704L10.8306 13.0556C11.1353 12.7509 11.1353 12.2588 10.8306 11.9541C10.5259 11.6495 10.0338 11.6495 9.72913 11.9541L2.22973 19.4535C2.00319 19.6801 1.94069 20.016 2.05787 20.305C2.18286 20.5941 2.4719 20.7815 2.78437 20.7815H6.2216V38.4364H2.78437C2.35472 38.4364 2.00319 38.7879 2.00319 39.2176C2.00319 39.6472 2.35472 39.9988 2.78437 39.9988H7.00279H17.9394H26.0638H37.0004H41.2188C41.6485 39.9988 42 39.6472 42 39.2176C42 38.7879 41.6485 38.4364 41.2188 38.4364ZM25.2826 38.4364H18.7206V24.375H25.2826V38.4364Z" fill="white"/>
<path d="M29.3448 22.8135C28.9151 22.8135 28.5636 23.165 28.5636 23.5947V31.4065C28.5636 31.8362 28.9151 32.1877 29.3448 32.1877H33.7194C34.1491 32.1877 34.5006 31.8362 34.5006 31.4065V23.5947C34.5006 23.165 34.1491 22.8135 33.7194 22.8135H29.3448ZM32.9383 30.6254H30.126V24.3759H32.9383V30.6254Z" fill="white"/>
<path d="M10.2837 22.8135C9.85407 22.8135 9.50253 23.165 9.50253 23.5947V31.4065C9.50253 31.8362 9.85407 32.1877 10.2837 32.1877H14.6584C15.088 32.1877 15.4396 31.8362 15.4396 31.4065V23.5947C15.4396 23.165 15.088 22.8135 14.6584 22.8135H10.2837ZM13.8772 30.6254H11.0649V24.3759H13.8772V30.6254Z" fill="white"/>
<path d="M18.4081 16.431C18.4081 18.4152 20.0174 20.0245 22.0016 20.0245C23.9858 20.0245 25.5951 18.4152 25.5951 16.431C25.5951 14.4468 23.9858 12.8375 22.0016 12.8375C20.0174 12.8375 18.4081 14.4546 18.4081 16.431ZM24.0327 16.431C24.0327 17.5481 23.1187 18.4621 22.0016 18.4621C20.8845 18.4621 19.9705 17.5481 19.9705 16.431C19.9705 15.3139 20.8845 14.3999 22.0016 14.3999C23.1187 14.3999 24.0327 15.3139 24.0327 16.431Z" fill="white"/>
<path d="M20.5173 32.1876C20.7204 32.1876 20.9235 32.1017 21.0719 31.9611C21.2204 31.8127 21.2985 31.6174 21.2985 31.4064C21.2985 31.1955 21.2126 31.0002 21.0719 30.8518C20.9235 30.7034 20.7282 30.6252 20.5173 30.6252C20.3142 30.6252 20.1111 30.7112 19.9627 30.8518C19.8142 31.0002 19.7361 31.1955 19.7361 31.4064C19.7361 31.6174 19.822 31.8127 19.9627 31.9611C20.1111 32.1017 20.3142 32.1876 20.5173 32.1876Z" fill="white"/>
<path d="M12.393 11.1737C12.5961 11.1737 12.7992 11.0878 12.9476 10.9472C13.0961 10.7987 13.1742 10.6034 13.1742 10.3925C13.1742 10.1816 13.0883 9.9863 12.9476 9.83787C12.7992 9.68945 12.6039 9.61133 12.393 9.61133C12.1821 9.61133 11.9868 9.69726 11.8384 9.83787C11.6899 9.9863 11.6118 10.1816 11.6118 10.3925C11.6118 10.6034 11.6977 10.7987 11.8384 10.9472C11.9868 11.0878 12.1899 11.1737 12.393 11.1737Z" fill="white"/>
<path d="M37.0004 28.4613C36.7973 28.4613 36.5942 28.5472 36.4458 28.6879C36.2974 28.8363 36.2192 29.0316 36.2192 29.2425C36.2192 29.4534 36.3052 29.6487 36.4458 29.7971C36.5942 29.9456 36.7895 30.0237 37.0004 30.0237C37.2113 30.0237 37.4066 29.9377 37.5551 29.7971C37.7035 29.6487 37.7816 29.4534 37.7816 29.2425C37.7816 29.0394 37.6957 28.8363 37.5551 28.6879C37.4066 28.5472 37.2035 28.4613 37.0004 28.4613Z" fill="white"/>
</g>
<defs>
<filter id="filter0_d" x="0" y="0" width="44" height="43.9988" filterUnits="userSpaceOnUse" color-interpolation-filters="sRGB">
<feFlood flood-opacity="0" result="BackgroundImageFix"/>
<feColorMatrix in="SourceAlpha" type="matrix" values="0 0 0 0 0 0 0 0 0 0 0 0 0 0 0 0 0 0 127 0"/>
<feOffset dy="2"/>
<feGaussianBlur stdDeviation="1"/>
<feColorMatrix type="matrix" values="0 0 0 0 0 0 0 0 0 0 0 0 0 0 0 0 0 0 0.12 0"/>
<feBlend mode="normal" in2="BackgroundImageFix" result="effect1_dropShadow"/>
<feBlend mode="normal" in="SourceGraphic" in2="effect1_dropShadow" result="shape"/>
</filter>
</defs>
</svg>
