<svg width="40" height="40" viewBox="0 0 40 40" fill="none" xmlns="http://www.w3.org/2000/svg">
<g clip-path="url(#clip0)" filter="url(#filter0_d)">
<path d="M12.8443 24.6165C12.6615 24.6165 12.4786 24.6938 12.345 24.8204C12.2114 24.954 12.141 25.1297 12.141 25.3196C12.141 25.5024 12.2184 25.6852 12.345 25.8188C12.4786 25.9524 12.6544 26.0227 12.8443 26.0227C13.0342 26.0227 13.21 25.9454 13.3436 25.8188C13.4772 25.6852 13.5476 25.5094 13.5476 25.3196C13.5476 25.1368 13.4702 24.954 13.3436 24.8204C13.21 24.6868 13.0271 24.6165 12.8443 24.6165Z" fill="white"/>
<path d="M31.741 20.5164C30.9814 19.757 29.9758 19.3351 28.8998 19.3351C27.8238 19.3351 26.8181 19.75 26.0586 20.5093L24.2864 22.2883L23.5761 22.9914L14.9963 14.4133L17.4788 11.9312C19.0471 10.3633 19.0471 7.81794 17.4788 6.24998L12.4012 1.17341C10.833 -0.394556 8.28717 -0.394556 6.71889 1.17341L5.37566 2.51638C0.87478 7.01638 0.87478 14.3429 5.37566 18.85L10.3196 23.7929C10.5939 24.0672 11.0369 24.0672 11.3112 23.7929C11.5855 23.5187 11.5855 23.0758 11.3112 22.8015L6.36726 17.8586C2.73139 14.2164 2.44306 8.47185 5.50225 4.49919L10.84 9.83591C10.9807 9.97654 11.1565 10.0398 11.3393 10.0398C11.5222 10.0398 11.698 9.96951 11.8386 9.83591C12.1129 9.56169 12.1129 9.11872 11.8386 8.84451L6.43759 3.44451L7.71049 2.17185C8.73022 1.15232 10.3829 1.15232 11.4026 2.17185L16.4802 7.24841C17.4999 8.26794 17.4999 9.92029 16.4802 10.9398L13.5054 13.9211C13.3718 14.0547 13.3014 14.2304 13.3014 14.4203C13.3014 14.6101 13.3788 14.7859 13.5054 14.9195L23.0768 24.489C23.351 24.7633 23.7941 24.7633 24.0684 24.489L24.7787 23.7789L33.4991 32.4976C31.7339 33.8547 29.582 34.5929 27.3174 34.5929C24.6099 34.5929 22.057 33.5383 20.1442 31.6258L15.1299 26.6125C14.8556 26.3383 14.4126 26.3383 14.1383 26.6125C13.864 26.8867 13.864 27.3297 14.1383 27.6039L19.1526 32.6172C21.3327 34.7968 24.2372 35.9992 27.3174 35.9992C30.4048 35.9992 33.3022 34.7968 35.4823 32.6172L36.8256 31.2742C37.5851 30.5148 38 29.5093 38 28.4336C38 27.3578 37.5851 26.3523 36.8256 25.5929L31.741 20.5164ZM35.8269 30.2828L34.554 31.5554L25.7773 22.7804L27.0502 21.5078C27.5425 21.0156 28.1965 20.7414 28.8998 20.7414C29.603 20.7414 30.25 21.0156 30.7494 21.5078L35.834 26.5914C36.3262 27.0836 36.6005 27.7375 36.6005 28.4406C36.5935 29.1367 36.3262 29.7906 35.8269 30.2828Z" fill="white"/>
<path d="M13.0482 11.7562C13.2311 11.7562 13.4139 11.6789 13.5476 11.5523C13.6812 11.4187 13.7515 11.2429 13.7515 11.0531C13.7515 10.8633 13.6742 10.6875 13.5476 10.5539C13.4139 10.4203 13.2381 10.35 13.0482 10.35C12.8584 10.35 12.6826 10.4273 12.5489 10.5539C12.4153 10.6875 12.345 10.8633 12.345 11.0531C12.345 11.2359 12.4223 11.4187 12.5489 11.5523C12.6826 11.6789 12.8654 11.7562 13.0482 11.7562Z" fill="white"/>
<path d="M29.385 2.81948C28.7029 2.77026 28.0488 3.00229 27.5495 3.46636C27.0572 3.92339 26.7759 4.57729 26.7759 5.24526C26.7759 5.63198 27.0924 5.94839 27.4792 5.94839C27.866 5.94839 28.1825 5.63198 28.1825 5.24526C28.1825 4.95698 28.302 4.68979 28.513 4.49292C28.724 4.29604 28.9982 4.19761 29.2936 4.2187C29.8 4.25386 30.2149 4.66167 30.25 5.17495C30.2852 5.68823 29.9476 6.14526 29.4483 6.25776C28.8998 6.3773 28.52 6.85542 28.52 7.41792V8.68355C28.52 9.07026 28.8365 9.38667 29.2233 9.38667C29.6101 9.38667 29.9265 9.07026 29.9265 8.68355V7.58667C31.0166 7.26323 31.7339 6.23667 31.6566 5.08354C31.5581 3.87417 30.5876 2.90386 29.385 2.81948Z" fill="white"/>
<path d="M29.2092 10.4835C29.0264 10.4835 28.8435 10.5609 28.7099 10.6874C28.5763 10.821 28.506 10.9968 28.506 11.1866C28.506 11.3695 28.5833 11.5523 28.7099 11.6859C28.8365 11.8195 29.0193 11.8898 29.2092 11.8898C29.3991 11.8898 29.5749 11.8124 29.7085 11.6859C29.8422 11.5593 29.9125 11.3765 29.9125 11.1866C29.9125 11.0038 29.8351 10.821 29.7085 10.6874C29.5749 10.5538 29.3991 10.4835 29.2092 10.4835Z" fill="white"/>
<path d="M34.4837 0H23.9348C21.9937 0 20.4184 1.575 20.4184 3.51562V11.5312C20.4184 13.4719 21.9937 15.0469 23.9348 15.0469H26.6001L28.6607 17.7258C28.7943 17.9016 28.9982 18 29.2163 18C29.4343 18 29.6382 17.8945 29.7718 17.7258L31.8113 15.0469H34.4767C36.4177 15.0469 37.993 13.4719 37.993 11.5312V3.51562C38 1.575 36.4247 0 34.4837 0ZM36.5935 11.5312C36.5935 12.6914 35.6441 13.6406 34.4837 13.6406H31.4737C31.2557 13.6406 31.0447 13.7461 30.9111 13.9148L29.2163 16.1367L27.5073 13.9078C27.3737 13.732 27.1698 13.6336 26.9517 13.6336H23.9348C22.7744 13.6336 21.825 12.6844 21.825 11.5242V3.51562C21.825 2.35547 22.7744 1.40625 23.9348 1.40625H34.4837C35.6441 1.40625 36.5935 2.35547 36.5935 3.51562V11.5312Z" fill="white"/>
</g>
<defs>
<filter id="filter0_d" x="0" y="0" width="40" height="40" filterUnits="userSpaceOnUse" color-interpolation-filters="sRGB">
<feFlood flood-opacity="0" result="BackgroundImageFix"/>
<feColorMatrix in="SourceAlpha" type="matrix" values="0 0 0 0 0 0 0 0 0 0 0 0 0 0 0 0 0 0 127 0"/>
<feOffset dy="2"/>
<feGaussianBlur stdDeviation="1"/>
<feColorMatrix type="matrix" values="0 0 0 0 0 0 0 0 0 0 0 0 0 0 0 0 0 0 0.12 0"/>
<feBlend mode="normal" in2="BackgroundImageFix" result="effect1_dropShadow"/>
<feBlend mode="normal" in="SourceGraphic" in2="effect1_dropShadow" result="shape"/>
</filter>
<clipPath id="clip0">
<rect width="36" height="36" fill="white" transform="translate(2)"/>
</clipPath>
</defs>
</svg>
