<svg width="20" height="20" viewBox="0 0 20 20" fill="none" xmlns="http://www.w3.org/2000/svg">
<path d="M19.4389 16.7854L14.8524 12.2C14.1693 13.2634 13.2666 14.1659 12.203 14.8488L16.7895 19.4342C17.5213 20.1659 18.707 20.1659 19.4389 19.4342C20.1708 18.7024 20.1708 17.5171 19.4389 16.7854Z" fill="#E2E2E2"/>
<path d="M14.989 7.49268C14.989 3.3561 11.6321 0 7.49451 0C3.35692 0 0 3.3561 0 7.49268C0 11.6293 3.35692 14.9854 7.49451 14.9854C11.6321 14.9854 14.989 11.6293 14.989 7.49268ZM7.49451 13.1122C4.39619 13.1122 1.87363 10.5902 1.87363 7.49268C1.87363 4.39512 4.39619 1.87317 7.49451 1.87317C10.5928 1.87317 13.1154 4.39512 13.1154 7.49268C13.1154 10.5902 10.5928 13.1122 7.49451 13.1122Z" fill="#E2E2E2"/>
<path d="M3.12271 7.49268H4.3718C4.3718 5.77073 5.77214 4.37073 7.49451 4.37073V3.12195C5.08416 3.12195 3.12271 5.08292 3.12271 7.49268Z" fill="#E2E2E2"/>
</svg>
