<svg width="18" height="24" viewBox="0 0 18 24" fill="none" xmlns="http://www.w3.org/2000/svg">
<g clip-path="url(#clip0_1_265)">
<path d="M15.0329 12.6912C15.0638 16.0367 17.9677 17.1497 18.0001 17.1638C17.9755 17.2425 17.536 18.75 16.4701 20.3082C15.549 21.6546 14.5927 22.9962 13.0859 23.0243C11.6059 23.0517 11.1298 22.1468 9.43742 22.1468C7.745 22.1468 7.21695 22.9969 5.81562 23.0517C4.36156 23.1066 3.25414 21.5956 2.32531 20.254C0.427575 17.509 -1.02367 12.4985 0.924685 9.11581C1.89218 7.43604 3.62187 6.37221 5.49922 6.34479C6.92726 6.31737 8.27445 7.30526 9.14773 7.30526C10.021 7.30526 11.6579 6.11698 13.3798 6.29206C14.1005 6.32229 16.1241 6.58315 17.4228 8.4851C17.318 8.54979 15.009 9.89417 15.0336 12.6912M12.252 4.47659C13.0241 3.54213 13.5437 2.24135 13.4016 0.946899C12.2886 0.991899 10.9435 1.6887 10.1455 2.62245C9.43039 3.44932 8.8039 4.77331 8.97265 6.04174C10.213 6.13737 11.48 5.41174 12.252 4.47659Z" fill="white"/>
</g>
<defs>
<clipPath id="clip0_1_265">
<rect width="18" height="22.1063" fill="white" transform="translate(0 0.946899)"/>
</clipPath>
</defs>
</svg>
