<svg width="18" height="18" viewBox="0 0 18 18" fill="none" xmlns="http://www.w3.org/2000/svg">
<g opacity="0.5" clip-path="url(#clip0_1_522)">
<path d="M12.75 1.5L15 1.5C15.3978 1.5 15.7794 1.65804 16.0607 1.93934C16.342 2.22064 16.5 2.60218 16.5 3L16.5 8.25C16.5 8.64782 16.342 9.02936 16.0607 9.31066C15.7794 9.59196 15.3978 9.75 15 9.75L12.75 9.75M7.5 11.25L7.5 14.25C7.5 14.8467 7.73705 15.419 8.15901 15.841C8.58097 16.2629 9.15326 16.5 9.75 16.5L12.75 9.75L12.75 1.5L4.29 1.5C3.92825 1.49591 3.57722 1.6227 3.30157 1.85699C3.02593 2.09129 2.84424 2.41732 2.79 2.775L1.755 9.525C1.72237 9.73998 1.73687 9.95949 1.7975 10.1683C1.85812 10.3771 1.96342 10.5703 2.10611 10.7344C2.24879 10.8984 2.42544 11.0296 2.62382 11.1186C2.8222 11.2076 3.03757 11.2525 3.255 11.25L7.5 11.25Z" stroke="white" stroke-width="1.67" stroke-linecap="round" stroke-linejoin="round"/>
</g>
<defs>
<clipPath id="clip0_1_522">
<rect width="18" height="18" fill="white" transform="translate(18 18) rotate(-180)"/>
</clipPath>
</defs>
</svg>
