<svg width="25" height="26" viewBox="0 0 25 26" fill="none" xmlns="http://www.w3.org/2000/svg">
<path d="M0 25.0202L1.79514 18.3514C0.347405 15.7535 -0.112556 12.722 0.499664 9.81322C1.11188 6.9044 2.75522 4.31336 5.12811 2.51555C7.501 0.717746 10.4443 -0.166233 13.4179 0.0258267C16.3914 0.217887 19.1958 1.4731 21.3165 3.56114C23.4371 5.64918 24.7317 8.42998 24.9627 11.3933C25.1937 14.3565 24.3457 17.3035 22.5741 19.6935C20.8026 22.0834 18.2264 23.7559 15.3183 24.4042C12.4103 25.0524 9.36537 24.6329 6.74238 23.2226L0 25.0202ZM7.06749 20.727L7.48447 20.9738C9.38436 22.097 11.6034 22.5618 13.7958 22.2958C15.9882 22.0298 18.0307 21.0478 19.6052 19.5029C21.1797 17.9581 22.1976 15.9371 22.5003 13.755C22.803 11.5728 22.3735 9.35211 21.2788 7.43885C20.1841 5.52559 18.4856 4.02727 16.448 3.1774C14.4104 2.32753 12.1482 2.17383 10.014 2.74027C7.87966 3.30671 5.99317 4.56146 4.64846 6.30898C3.30375 8.05651 2.57635 10.1986 2.57963 12.4016C2.57785 14.2282 3.08429 16.0194 4.0426 17.5759L4.3041 18.0059L3.30052 21.7281L7.06749 20.727Z" fill="white"/>
<path fill-rule="evenodd" clip-rule="evenodd" d="M17.1879 14.114C16.9435 13.9173 16.6573 13.7789 16.3511 13.7093C16.0449 13.6396 15.7268 13.6406 15.4211 13.7121C14.9617 13.9025 14.6648 14.6215 14.368 14.9811C14.3054 15.0672 14.2134 15.1277 14.1093 15.151C14.0052 15.1744 13.8962 15.1591 13.8026 15.1079C12.1208 14.4509 10.7111 13.246 9.80241 11.6889C9.72491 11.5918 9.68823 11.4684 9.70009 11.3448C9.71196 11.2212 9.77144 11.107 9.86601 11.0263C10.1971 10.6994 10.4402 10.2945 10.5728 9.84901C10.6022 9.35766 10.4894 8.86824 10.2477 8.43911C10.0608 7.83747 9.70521 7.30175 9.22287 6.89526C8.9741 6.78366 8.69826 6.74624 8.42864 6.78752C8.15902 6.82879 7.90713 6.94701 7.70336 7.1279C7.34961 7.43232 7.06883 7.81202 6.88169 8.23903C6.69455 8.66604 6.60582 9.12948 6.62204 9.59522C6.62313 9.85677 6.65636 10.1172 6.72098 10.3707C6.88509 10.9797 7.13747 11.5615 7.47014 12.0978C7.71015 12.5086 7.97202 12.9063 8.25463 13.2892C9.17308 14.5468 10.3276 15.6146 11.6541 16.4333C12.3197 16.8493 13.0312 17.1875 13.7743 17.4413C14.5463 17.7904 15.3987 17.9244 16.2409 17.8291C16.7207 17.7566 17.1754 17.5676 17.5648 17.2788C17.9543 16.9899 18.2666 16.61 18.4742 16.1724C18.5962 15.9081 18.6333 15.6126 18.5802 15.3265C18.453 14.7414 17.6685 14.3959 17.1879 14.114Z" fill="white"/>
</svg>
