<svg width="25" height="24" viewBox="0 0 25 24" fill="none" xmlns="http://www.w3.org/2000/svg">
<path fill-rule="evenodd" clip-rule="evenodd" d="M1.71862 10.5348C8.42949 7.39872 12.9045 5.33123 15.1435 4.33232C21.5365 1.48023 22.8649 0.984796 23.7307 0.968436C23.9212 0.964838 24.347 1.01546 24.6228 1.25551C24.8557 1.4582 24.9197 1.73201 24.9504 1.92418C24.9811 2.11635 25.0192 2.55413 24.9889 2.8962C24.6424 6.80048 23.1434 16.2752 22.3808 20.648C22.0581 22.4984 21.4227 23.1188 20.8076 23.1795C19.4707 23.3114 18.4556 22.2319 17.1608 21.3215C15.1348 19.897 13.9901 19.0102 12.0235 17.6201C9.75066 16.0136 11.224 15.1307 12.5193 13.6877C12.8583 13.3101 18.7484 7.56364 18.8624 7.04235C18.8767 6.97716 18.8899 6.73414 18.7553 6.60581C18.6207 6.47749 18.422 6.52137 18.2787 6.55627C18.0754 6.60574 14.8388 8.90037 8.56858 13.4402C7.64986 14.1168 6.8177 14.4465 6.07212 14.4293C5.25018 14.4102 3.6691 13.9308 2.49372 13.521C1.05207 13.0183 -0.0937162 12.7526 0.00605648 11.8989C0.0580243 11.4543 0.628878 10.9996 1.71862 10.5348Z" fill="white"/>
</svg>
