<svg width="81" height="80" viewBox="0 0 81 80" fill="none" xmlns="http://www.w3.org/2000/svg">
<g clip-path="url(#clip0_102_1643)">
<rect width="80.4796" height="80" fill="white"/>
<path d="M40.2722 34.1661C44.5722 34.1661 48.0579 30.6803 48.0579 26.3804C48.0579 22.0805 44.5722 18.5947 40.2722 18.5947C35.9723 18.5947 32.4866 22.0805 32.4866 26.3804C32.4866 30.6803 35.9723 34.1661 40.2722 34.1661Z" stroke="black" stroke-linecap="round" stroke-linejoin="round"/>
<path fill-rule="evenodd" clip-rule="evenodd" d="M65.0846 33.1459L44.1339 39.6283C41.6228 40.4034 38.9363 40.4034 36.4251 39.6283L15.4684 33.152C13.8958 32.6663 12.8374 34.7306 14.1326 35.7324L26.905 45.5419C27.6033 46.1777 28.149 46.9628 28.5016 47.8389C28.8541 48.7149 29.0043 49.6593 28.941 50.6015L26.5266 77.8645C26.3546 79.8195 28.9289 80.6817 29.9671 79.0161L37.5504 63.6086C37.799 63.0954 38.1871 62.6625 38.6703 62.3597C39.1535 62.0568 39.7123 61.8961 40.2825 61.8961C40.8528 61.8961 41.4116 62.0568 41.8948 62.3597C42.378 62.6625 42.7661 63.0954 43.0147 63.6086L50.598 79.0161C51.6362 80.6817 54.2105 79.8256 54.0385 77.8645L51.6221 50.5995C51.5588 49.6573 51.709 48.7129 52.0615 47.8369C52.4141 46.9608 52.9598 46.1756 53.6581 45.5399L66.4304 35.7304C67.7257 34.7306 66.6571 32.6602 65.0846 33.1459Z" stroke="black" stroke-linecap="round" stroke-linejoin="round"/>
<path d="M77.9597 7.59437C78.6123 4.03561 76.7411 0.710608 73.7804 0.167753C70.8197 -0.375101 67.8906 2.06975 67.2381 5.62852C66.5856 9.18729 68.4568 12.5123 71.4175 13.0552C74.3781 13.598 77.3072 11.1531 77.9597 7.59437Z" stroke="black" stroke-linecap="round" stroke-linejoin="round"/>
<path d="M61.1151 34.1666L61.696 25.0836C61.7289 24.1821 61.5769 23.2834 61.2494 22.4429C60.9219 21.6023 60.4258 20.8377 59.7916 20.1961L47.2984 7.55928C46.2461 6.25796 47.683 4.43246 49.1948 5.14688L76.7533 18.1905C77.5784 18.5808 78.2899 19.1757 78.8204 19.9185C79.3508 20.6613 79.6824 21.5275 79.7838 22.4346C79.8852 23.3417 79.753 24.2596 79.3997 25.1012C79.0464 25.9429 78.4837 26.6801 77.7652 27.2431L72.9323 31.0317C71.0603 32.4989 72.394 35.4841 74.7335 35.0793L79.9651 34.1646L80.3699 59.6041C80.3962 61.2697 78.085 61.717 77.488 60.1627L70.4875 41.932L62.2688 57.9203C61.5786 59.2641 59.5427 58.7015 59.6378 57.1937L60.9978 39.8799" stroke="black" stroke-linecap="round" stroke-linejoin="round"/>
<path d="M9.03528 13.0891C11.996 12.5462 13.8671 9.22121 13.2146 5.66244C12.5621 2.10367 9.63301 -0.341207 6.67232 0.201647C3.71163 0.744502 1.84049 4.06952 2.49301 7.62829C3.14552 11.1871 6.07459 13.6319 9.03528 13.0891Z" stroke="black" stroke-linecap="round" stroke-linejoin="round"/>
<path d="M19.3643 34.1666L18.7855 25.0836C18.7526 24.1821 18.9046 23.2834 19.2321 22.4429C19.5596 21.6023 20.0557 20.8377 20.6899 20.1961L33.183 7.55928C34.2354 6.25796 32.7985 4.43246 31.2867 5.14688L3.72614 18.1905C2.90107 18.5808 2.18955 19.1757 1.65913 19.9185C1.12871 20.6613 0.797035 21.5275 0.695636 22.4346C0.594238 23.3417 0.726469 24.2596 1.07977 25.1012C1.43308 25.9429 1.99572 26.6801 2.71423 27.2431L7.54916 31.0317C9.41918 32.4989 8.0875 35.4841 5.74592 35.0793L0.516352 34.1646L0.111586 59.6041C0.0832528 61.2697 2.39447 61.717 2.99352 60.1627L9.99194 41.932L18.2107 57.9203C18.9029 59.2641 20.9388 58.7015 20.8417 57.1937L19.7468 40.0316" stroke="black" stroke-linecap="round" stroke-linejoin="round"/>
</g>
<defs>
<clipPath id="clip0_102_1643">
<rect width="80.4796" height="80" fill="white"/>
</clipPath>
</defs>
</svg>
