<svg width="104" height="80" viewBox="0 0 104 80" fill="none" xmlns="http://www.w3.org/2000/svg">
<g clip-path="url(#clip0_102_1613)">
<rect width="103.824" height="80" fill="white"/>
<path d="M80.6553 58.9718C87.3977 58.9718 92.8634 53.5061 92.8634 46.7637C92.8634 40.0214 87.3977 34.5557 80.6553 34.5557C73.913 34.5557 68.4473 40.0214 68.4473 46.7637C68.4473 53.5061 73.913 58.9718 80.6553 58.9718Z" stroke="#010101" stroke-linecap="round" stroke-linejoin="round"/>
<path d="M80.6549 61.8294C88.9757 61.8294 95.721 55.0841 95.721 46.7633C95.721 38.4426 88.9757 31.6973 80.6549 31.6973C72.3342 31.6973 65.5889 38.4426 65.5889 46.7633C65.5889 55.0841 72.3342 61.8294 80.6549 61.8294Z" stroke="#010101" stroke-linecap="round" stroke-linejoin="round"/>
<path d="M95.3755 43.542H98.1427V50.2308H95.2588" stroke="#010101" stroke-linecap="round" stroke-linejoin="round"/>
<path d="M80.6553 40.0469V46.887L86.6826 50.7049" stroke="#010101" stroke-linecap="round" stroke-linejoin="round"/>
<path d="M68.4473 46.7637H70.8859" stroke="#010101" stroke-linecap="round" stroke-linejoin="round"/>
<path d="M90.4248 46.7637H92.8634" stroke="#010101" stroke-linecap="round" stroke-linejoin="round"/>
<path d="M80.6553 34.5557V36.9943" stroke="#010101" stroke-linecap="round" stroke-linejoin="round"/>
<path d="M80.655 56.5352V58.9737" stroke="#010101" stroke-linecap="round" stroke-linejoin="round"/>
<path d="M86.5479 40.7578C87.8503 42.0893 88.7781 43.7412 89.2372 45.5464" stroke="#010101" stroke-linecap="round" stroke-linejoin="round"/>
<path d="M83.0996 38.3857C83.8589 38.6984 84.5741 39.109 85.2269 39.6072" stroke="#010101" stroke-linecap="round" stroke-linejoin="round"/>
<path d="M69.4521 36.691L71.828 28.3916H89.497L91.8556 36.691" stroke="#010101" stroke-linecap="round" stroke-linejoin="round"/>
<path d="M73.3025 28.3923V22.2461H87.7049V28.3923" stroke="#010101" stroke-linecap="round" stroke-linejoin="round"/>
<path d="M69.4521 56.833L71.828 65.1324H89.497L91.8578 56.833" stroke="#010101" stroke-linecap="round" stroke-linejoin="round"/>
<path d="M73.3025 65.1328V71.279H87.7049V65.1328" stroke="#010101" stroke-linecap="round" stroke-linejoin="round"/>
<path d="M62.0108 43.2422H4.51367V72.488" stroke="#010101" stroke-linecap="round" stroke-linejoin="round"/>
<path d="M39.102 22.0038C45.1483 22.0038 50.0497 17.1024 50.0497 11.0561C50.0497 5.00986 45.1483 0.108398 39.102 0.108398C33.0558 0.108398 28.1543 5.00986 28.1543 11.0561C28.1543 17.1024 33.0558 22.0038 39.102 22.0038Z" stroke="#010101" stroke-linecap="round" stroke-linejoin="round"/>
<path d="M20.5157 40.111C20.5157 40.111 18.7862 26.1821 32.125 25.1357L38.6257 31.87" stroke="#010101" stroke-linecap="round" stroke-linejoin="round"/>
<path d="M56.734 40.111C56.734 40.111 58.4765 26.1821 45.127 25.1357L38.6262 31.87" stroke="#010101" stroke-linecap="round" stroke-linejoin="round"/>
<path d="M103.716 74.7705H0.108398V79.892H103.716V74.7705Z" stroke="#010101" stroke-linecap="round" stroke-linejoin="round"/>
</g>
<defs>
<clipPath id="clip0_102_1613">
<rect width="103.824" height="80" fill="white"/>
</clipPath>
</defs>
</svg>
