<svg width="67" height="97" viewBox="0 0 67 97" fill="none" xmlns="http://www.w3.org/2000/svg">
<g clip-path="url(#clip0_102_1633)">
<rect width="67" height="97" fill="white"/>
<path d="M11.344 36.3519V15.1988C11.3463 13.5848 11.989 12.0377 13.1311 10.8972C14.2732 9.75677 15.8212 9.11621 17.4352 9.11621H49.9559C51.5714 9.11621 53.1207 9.75796 54.263 10.9003C55.4053 12.0426 56.0471 13.5919 56.0471 15.2074V36.6817" stroke="black" stroke-linecap="round" stroke-linejoin="round"/>
<path d="M56.0471 59.9648V82.8121C56.0471 84.4276 55.4053 85.9769 54.263 87.1192C53.1207 88.2616 51.5714 88.9033 49.9559 88.9033H17.4352C15.8197 88.9033 14.2704 88.2616 13.128 87.1192C11.9857 85.9769 11.344 84.4276 11.344 82.8121V61.6892" stroke="black" stroke-linecap="round" stroke-linejoin="round"/>
<path d="M11.1309 18.3691H55.8318" stroke="black" stroke-linecap="round" stroke-linejoin="round"/>
<path d="M11.1309 78.6865H55.8318" stroke="black" stroke-linecap="round" stroke-linejoin="round"/>
<path d="M28.0264 83.6934H40.7411" stroke="black" stroke-linecap="round" stroke-linejoin="round"/>
<path d="M34.3852 15.5175C35.428 15.5175 36.2733 14.6721 36.2733 13.6293C36.2733 12.5866 35.428 11.7412 34.3852 11.7412C33.3424 11.7412 32.4971 12.5866 32.4971 13.6293C32.4971 14.6721 33.3424 15.5175 34.3852 15.5175Z" stroke="black" stroke-linecap="round" stroke-linejoin="round"/>
<path fill-rule="evenodd" clip-rule="evenodd" d="M33.5989 27.6338L37.3105 39.0574H49.3247L39.606 46.1185L43.3176 57.5443L33.5989 50.4832L23.8802 57.5443L27.5918 46.1185L17.873 39.0574H29.8873L33.5989 27.6338Z" stroke="black" stroke-linecap="round" stroke-linejoin="round"/>
<path fill-rule="evenodd" clip-rule="evenodd" d="M12.6476 38.251L15.6091 47.3619H25.1899L17.439 52.9939L20.3984 62.1048L12.6476 56.4749L4.89673 62.1048L7.85826 52.9939L0.107422 47.3619H9.6882L12.6476 38.251Z" stroke="black" stroke-linecap="round" stroke-linejoin="round"/>
<path fill-rule="evenodd" clip-rule="evenodd" d="M54.6419 38.251L57.6013 47.3619H67.1821L59.4312 52.9939L62.3927 62.1048L54.6419 56.4749L46.8911 62.1048L49.8504 52.9939L42.0996 47.3619H51.6804L54.6419 38.251Z" stroke="black" stroke-linecap="round" stroke-linejoin="round"/>
</g>
<defs>
<clipPath id="clip0_102_1633">
<rect width="67" height="97" fill="white"/>
</clipPath>
</defs>
</svg>
