<svg width="69" height="89" viewBox="0 0 69 89" fill="none" xmlns="http://www.w3.org/2000/svg">
<g clip-path="url(#clip0_102_1650)">
<rect width="69" height="89" fill="white"/>
<path d="M48.8909 75.1485C56.4247 75.1485 62.532 69.0411 62.532 61.5073C62.532 53.9736 56.4247 47.8662 48.8909 47.8662C41.3571 47.8662 35.2498 53.9736 35.2498 61.5073C35.2498 69.0411 41.3571 75.1485 48.8909 75.1485Z" stroke="black" stroke-linecap="round" stroke-linejoin="round"/>
<path d="M48.8914 78.3423C58.1895 78.3423 65.7271 70.8047 65.7271 61.5066C65.7271 52.2085 58.1895 44.6709 48.8914 44.6709C39.5933 44.6709 32.0557 52.2085 32.0557 61.5066C32.0557 70.8047 39.5933 78.3423 48.8914 78.3423Z" stroke="black" stroke-linecap="round" stroke-linejoin="round"/>
<path d="M65.3391 57.9072H68.4343V65.3838H65.2119" stroke="black" stroke-linecap="round" stroke-linejoin="round"/>
<path d="M48.8906 54.001V61.6445L55.6277 65.9106" stroke="black" stroke-linecap="round" stroke-linejoin="round"/>
<path d="M35.2498 61.5068H37.9752" stroke="black" stroke-linecap="round" stroke-linejoin="round"/>
<path d="M59.8086 61.5068H62.534" stroke="black" stroke-linecap="round" stroke-linejoin="round"/>
<path d="M48.8906 47.8662V50.5917" stroke="black" stroke-linecap="round" stroke-linejoin="round"/>
<path d="M48.8906 72.4248V75.1503" stroke="black" stroke-linecap="round" stroke-linejoin="round"/>
<path d="M55.4785 54.7959C56.936 56.2828 57.9749 58.1281 58.4902 60.1454" stroke="black" stroke-linecap="round" stroke-linejoin="round"/>
<path d="M51.626 52.1455C52.4774 52.4938 53.2794 52.9523 54.0115 53.5092" stroke="black" stroke-linecap="round" stroke-linejoin="round"/>
<path d="M36.373 50.2512L39.0269 40.9775H58.771L61.409 50.2512" stroke="black" stroke-linecap="round" stroke-linejoin="round"/>
<path d="M40.677 40.9777V34.1094H56.7692V40.9777" stroke="black" stroke-linecap="round" stroke-linejoin="round"/>
<path d="M36.373 72.7607L39.0289 82.0324H58.771L61.409 72.7607" stroke="black" stroke-linecap="round" stroke-linejoin="round"/>
<path d="M40.677 82.0322V88.9005H56.7692V82.0322" stroke="black" stroke-linecap="round" stroke-linejoin="round"/>
<path d="M50.2447 28.686L49.8153 20.9072H38.6511" stroke="black" stroke-linecap="round" stroke-linejoin="round"/>
<path d="M11.0886 21.7959H2.54252L0.0993652 74.4779H29.2582" stroke="black" stroke-linecap="round" stroke-linejoin="round"/>
<path d="M14.0547 28.251H19.114" stroke="black" stroke-linecap="round" stroke-linejoin="round"/>
<path d="M34.6377 28.251H39.697" stroke="black" stroke-linecap="round" stroke-linejoin="round"/>
<path d="M16.583 21.623H31.4984" stroke="black" stroke-linecap="round" stroke-linejoin="round"/>
<path d="M16.3604 28.2513V19.1744C16.3604 16.5024 17.4218 13.9398 19.3112 12.0504C21.2006 10.1611 23.7631 9.09961 26.4351 9.09961V9.09961C27.7585 9.09909 29.069 9.35929 30.2918 9.86537C31.5146 10.3714 32.6257 11.1135 33.5617 12.049C34.4976 12.9846 35.2401 14.0954 35.7466 15.318C36.2532 16.5406 36.5139 17.851 36.5139 19.1744V28.2513" stroke="black" stroke-linecap="round" stroke-linejoin="round"/>
</g>
<defs>
<clipPath id="clip0_102_1650">
<rect width="69" height="89" fill="white"/>
</clipPath>
</defs>
</svg>
