<svg width="324" height="51" viewBox="0 0 324 51" fill="none" xmlns="http://www.w3.org/2000/svg">
<g clip-path="url(#clip0_332_2846)">
<path d="M225.867 16.3413H235.709V11.4205H225.867V5.80222H239.289V0.891113H216.577L220.448 5.56975V26.8803H240.702V21.9595H225.867V16.3413Z" fill="white"/>
<path d="M138.243 16.3413H148.094V11.4205H138.243V5.80222H151.665V0.891113H128.954L132.834 5.56975V26.8803H153.088V21.9595H138.243V16.3413Z" fill="white"/>
<path d="M83.5014 16.3413H93.3428V11.4205H83.5014V5.80222H96.9232V0.891113H74.2117L78.0921 5.56975V26.8803H98.3457V21.9595H83.5014V16.3413Z" fill="white"/>
<path d="M0 0.891113L3.87074 5.56975V26.8803H9.22203V0.891113H0Z" fill="white"/>
<path d="M35.0303 17.6393L20.9601 0.891113H13.9541L17.8248 5.56975V26.8803H23.1761V11.9823L35.5722 26.8803H40.4396V0.891113H35.0303V17.6393Z" fill="white"/>
<path d="M177.377 17.6393L163.316 0.891113H156.31L160.181 5.56975V26.8803H165.532V11.9823L177.918 26.8803H182.786V0.891113H177.377V17.6393Z" fill="white"/>
<path d="M265 17.6393L250.94 0.891113H243.934L247.805 5.56975V26.8803H253.156V11.9823L265.542 26.8803H270.41V0.891113H265V17.6393Z" fill="white"/>
<path d="M308.517 7.9626C308.517 6.28682 309.92 4.91133 313.578 4.91133C316.177 4.95983 318.718 5.6842 320.952 7.0133L322.887 2.32499C320.08 0.717422 316.889 -0.0961825 313.656 -0.0288502C306.088 -0.0288502 302.44 3.73924 302.44 8.26289C302.44 18.1626 317.923 14.7336 317.923 19.7222C317.923 21.3592 316.433 22.5797 312.785 22.5797C309.646 22.5567 306.588 21.588 304.008 19.7996L301.869 24.4298C304.221 26.2606 308.478 27.5102 312.698 27.5102C320.304 27.5102 323.99 23.7033 323.99 19.2572C323.99 9.51246 308.517 12.9028 308.517 7.9626Z" fill="white"/>
<path d="M57.9545 0.881348H47.8132V26.8705H57.9545C66.4508 26.8705 72.2763 21.7463 72.2763 13.8808C72.2763 6.01523 66.4508 0.881348 57.9545 0.881348ZM58.3997 21.94H53.1645V5.82152H58.361C63.5187 5.82152 66.896 8.90184 66.896 13.8808C66.896 18.8597 63.5574 21.94 58.361 21.94H58.3997Z" fill="white"/>
<path d="M200.311 0.881348H190.16V26.8705H200.311C208.807 26.8705 214.632 21.7463 214.632 13.8808C214.632 6.01523 208.807 0.881348 200.311 0.881348ZM200.756 21.94H195.521V5.82152H200.756C205.914 5.82152 209.291 8.90184 209.291 13.8808C209.291 18.8597 205.914 21.94 200.756 21.94Z" fill="white"/>
<path d="M275.655 5.80222H284.364V26.8803H289.705V5.80222H298.414V0.891113H275.655V5.80222Z" fill="white"/>
<path d="M115 0.881348H104.355V26.8705H109.774V19.7121H115C121.938 19.7121 126.273 16.1087 126.273 10.3161C126.273 4.5235 121.938 0.881348 115 0.881348ZM115.338 14.8107H109.774V5.78277H115.338C119.015 5.78277 120.864 7.45855 120.864 10.3161C120.864 13.1736 119.015 14.8107 115.338 14.8107Z" fill="white"/>
<path d="M52.1872 48.4332C52.1872 49.7021 51.3066 50.7676 49.2842 50.7676H44.3877V42.5146H49.1777C51.1131 42.5146 52.0034 43.4349 52.0034 44.6166C51.5561 44.716 51.1586 44.9709 50.8815 45.3361C50.6044 45.7013 50.4656 46.1531 50.49 46.6111C50.5144 47.069 50.7003 47.5035 51.0146 47.8371C51.3289 48.1708 51.7513 48.382 52.2066 48.4332H52.1872ZM46.4682 43.9579V45.8953H48.5874C49.5551 45.8953 49.7874 45.4303 49.7874 44.9266C49.7874 44.4229 49.4777 43.9579 48.5874 43.9579H46.4682ZM50.0003 48.2588C50.0003 47.6485 49.5745 47.232 48.7326 47.232H46.4682V49.3243H48.6842C49.6519 49.3243 50.0003 48.8594 50.0003 48.2588Z" fill="white"/>
<path d="M58.2352 47.8616L54.916 42.5146H57.2191L59.0674 45.7015C59.169 45.8675 59.2471 46.0468 59.2996 46.2343C59.3479 46.0454 59.4263 45.8654 59.5319 45.7015L61.3995 42.5146H63.6639L60.3351 47.8616V50.7676H58.2158L58.2352 47.8616Z" fill="white"/>
<path d="M73.844 50.7676V42.5146H75.9439V50.7676H73.844Z" fill="white"/>
<path d="M80.6178 42.5143H82.9112L86.2691 47.222C86.4817 47.5277 86.6663 47.8519 86.8207 48.1907C86.8207 47.842 86.8207 47.4836 86.8207 47.0961V42.4756H88.7561V50.7286H86.5691L83.1048 45.9724C82.8887 45.6673 82.7008 45.343 82.5435 45.0038C82.5435 45.3719 82.5435 45.7303 82.5435 46.1274V50.748H80.6082L80.6178 42.5143Z" fill="white"/>
<path d="M100.271 49.2468V50.7676H93.4395V42.5146H100.213V44.0354H95.5587V45.8275H99.9713V47.2901H95.5103V49.2275L100.271 49.2468Z" fill="white"/>
<path d="M104.655 50.7676V42.5146H106.745V50.7676H104.655Z" fill="white"/>
<path d="M110.79 46.7089C110.79 44.1032 112.619 42.3306 115.445 42.3306C117.786 42.3306 119.364 43.493 119.722 45.3528L117.564 45.7402C117.501 45.2261 117.24 44.7567 116.837 44.4313C116.435 44.1059 115.921 43.95 115.406 43.9967C113.896 43.9967 112.977 45.0331 112.977 46.6895C112.944 47.0306 112.984 47.3749 113.094 47.6992C113.205 48.0236 113.383 48.3205 113.618 48.5701C113.853 48.8197 114.138 49.0161 114.455 49.1462C114.771 49.2762 115.112 49.337 115.454 49.3243C115.96 49.3652 116.462 49.2146 116.861 48.9025C117.261 48.5903 117.529 48.1393 117.612 47.6388L119.751 48.1038C119.238 49.9055 117.719 51.0098 115.406 51.0098C112.493 51.0001 110.79 49.2952 110.79 46.7089Z" fill="white"/>
<path d="M131.905 50.7676H129.786V47.358H125.847V50.7676H123.738V42.5146H125.847V45.8081H129.786V42.5146H131.905V50.7676Z" fill="white"/>
<path d="M143.45 49.2468V50.7676H136.618V42.5146H143.391V44.0354H138.679V45.8275H143.13V47.2901H138.679V49.2275L143.45 49.2468Z" fill="white"/>
<path d="M147.833 42.5143H150.127L153.484 47.222C153.697 47.5277 153.882 47.8519 154.036 48.1907C154.036 47.842 154.036 47.4836 154.036 47.0961V42.4756H155.971V50.7286H153.784L150.32 45.9724C150.104 45.6673 149.916 45.343 149.759 45.0038C149.759 45.3719 149.759 45.7303 149.759 46.1274V50.748H147.823L147.833 42.5143Z" fill="white"/>
<path d="M172.886 48.9562H169.18L168.503 50.7676H166.306L169.78 42.5146H172.296L175.76 50.7676H173.573L172.886 48.9562ZM172.345 47.5226L171.58 45.4497C171.358 44.9726 171.189 44.4723 171.077 43.9579C170.969 44.4735 170.8 44.9743 170.574 45.4497L169.79 47.5226H172.345Z" fill="white"/>
<path d="M181.083 42.5146V47.358C181.083 47.8718 181.287 48.3645 181.65 48.7278C182.013 49.0912 182.505 49.2953 183.018 49.2953C183.531 49.2953 184.024 49.0912 184.387 48.7278C184.75 48.3645 184.954 47.8718 184.954 47.358V42.5146H187.063V47.5517C187.063 49.6246 185.592 51.0001 183.018 51.0001C180.444 51.0001 178.954 49.6246 178.954 47.5323V42.5146H181.083Z" fill="white"/>
<path d="M190.982 46.7089C190.982 44.1032 192.811 42.3306 195.637 42.3306C197.979 42.3306 199.556 43.493 199.924 45.3528L197.756 45.7402C197.693 45.2261 197.432 44.7567 197.03 44.4313C196.627 44.1059 196.113 43.95 195.598 43.9967C194.088 43.9967 193.179 45.0331 193.179 46.6895C193.138 47.0327 193.172 47.3806 193.278 47.7095C193.384 48.0384 193.56 48.3405 193.793 48.5952C194.027 48.8499 194.312 49.0512 194.63 49.1854C194.948 49.3196 195.292 49.3835 195.637 49.3727C196.142 49.4136 196.644 49.2631 197.044 48.9509C197.443 48.6388 197.711 48.1878 197.795 47.6873L199.933 48.1522C199.42 49.9539 197.901 51.0582 195.588 51.0582C192.685 51.0001 190.982 49.2952 190.982 46.7089Z" fill="white"/>
<path d="M210.723 44.1807H207.887V50.7676H205.778V44.1807H202.943V42.5146H210.684L210.723 44.1807Z" fill="white"/>
<path d="M214.555 50.7676V42.5146H216.655V50.7676H214.555Z" fill="white"/>
<path d="M220.69 46.6412C220.69 43.9871 222.529 42.2822 225.364 42.2822C228.199 42.2822 230.038 43.9871 230.038 46.6412C230.038 49.2953 228.209 51.0002 225.364 51.0002C222.519 51.0002 220.69 49.2953 220.69 46.6412ZM227.851 46.6412C227.804 46.1596 227.618 45.702 227.317 45.3239C227.015 44.9458 226.61 44.6635 226.152 44.5112C225.693 44.3589 225.2 44.3433 224.732 44.4661C224.265 44.589 223.843 44.845 223.518 45.2033C223.193 45.5615 222.979 46.0064 222.901 46.4841C222.824 46.9617 222.887 47.4515 223.083 47.8941C223.278 48.3366 223.598 48.7128 224.003 48.977C224.408 49.2413 224.88 49.3821 225.364 49.3825C225.715 49.3922 226.064 49.3258 226.387 49.1879C226.71 49.05 227 48.8438 227.236 48.5835C227.472 48.3231 227.649 48.0148 227.756 47.6796C227.862 47.3444 227.894 46.9902 227.851 46.6412Z" fill="white"/>
<path d="M234.083 42.5143H236.415L239.763 47.222C239.979 47.5276 240.166 47.8517 240.324 48.1907C240.324 47.842 240.324 47.4836 240.324 47.0961V42.4756H242.26V50.7286H240.082L236.608 45.9724C236.399 45.665 236.214 45.341 236.057 45.0038C236.057 45.3719 236.057 45.7303 236.057 46.1274V50.748H234.121L234.083 42.5143Z" fill="white"/>
<path d="M253.775 49.2468V50.7676H246.943V42.5146H253.717V44.0354H249.063V45.8275H253.514V47.2901H249.063V49.2275L253.775 49.2468Z" fill="white"/>
<path d="M264.991 49.2468V50.7676H258.159V42.5146H264.932V44.0354H260.278V45.8275H264.739V47.2901H260.278V49.2275L264.991 49.2468Z" fill="white"/>
<path d="M273.187 47.6775H271.493V50.7481H269.394V42.4951H273.855C276.167 42.4951 277.019 43.6575 277.019 45.0621C277.034 45.5879 276.872 46.1035 276.56 46.5267C276.248 46.9498 275.803 47.256 275.296 47.3965L277.232 50.7481H274.9L273.187 47.6775ZM271.493 46.2826H273.429C274.396 46.2826 274.842 45.7595 274.842 45.0911C274.842 44.4227 274.464 43.9481 273.429 43.9481H271.493V46.2826Z" fill="white"/>
<path d="M280.174 49.0045L281.722 47.9196C282.014 48.4014 282.431 48.7953 282.928 49.0596C283.426 49.3239 283.985 49.4487 284.548 49.421C285.631 49.421 286.289 49.1207 286.289 48.4523C286.289 47.784 285.931 47.6677 285.022 47.4837L283.328 47.2415C281.644 46.9606 280.754 46.1954 280.754 44.7521C280.754 43.3088 282.148 42.2432 284.47 42.2432C285.203 42.1848 285.939 42.307 286.614 42.5991C287.289 42.8912 287.882 43.3444 288.341 43.919L286.967 45.062C286.682 44.6296 286.287 44.2813 285.822 44.0531C285.358 43.8249 284.841 43.7251 284.325 43.764C283.357 43.764 282.748 44.0837 282.748 44.6261C282.748 45.1686 283.086 45.3914 284.035 45.5463L285.68 45.7982C287.489 46.0791 288.341 46.7669 288.341 48.2296C288.341 49.9053 286.928 50.9612 284.47 50.9612C282.39 50.9999 280.861 50.225 280.174 49.0045Z" fill="white"/>
</g>
<defs>
<clipPath id="clip0_332_2846">
<rect width="324" height="51" fill="white"/>
</clipPath>
</defs>
</svg>
