<?xml version="1.0" encoding="utf-8"?>
<!-- Generator: Adobe Illustrator 26.3.1, SVG Export Plug-In . SVG Version: 6.00 Build 0)  -->
<svg version="1.1" id="Слой_1" xmlns="http://www.w3.org/2000/svg" xmlns:xlink="http://www.w3.org/1999/xlink" x="0px" y="0px"
	 viewBox="0 0 674.15 109.76" style="enable-background:new 0 0 674.15 109.76;" xml:space="preserve">
<style type="text/css">
	.st0{fill:#FFFFFF;}
</style>
<path class="st0" d="M123.77,3.42c8.27,0,15.17,2.59,20.72,7.76c5.54,5.17,8.31,11.55,8.31,19.13c0,7.58-2.77,13.96-8.31,19.13
	c-5.54,5.17-12.45,7.76-20.72,7.76H99.82V3.42H123.77z M123.77,47.06c5.23,0,9.48-1.55,12.75-4.65c3.27-3.1,4.91-7.13,4.91-12.1
	c0-4.97-1.64-9-4.91-12.1c-3.27-3.1-7.52-4.65-12.75-4.65h-12.06v33.5H123.77z"/>
<path class="st0" d="M241.32,3.42c6.07,0,11.19,1.74,15.34,5.23c4.15,3.48,6.22,7.76,6.22,12.83c0,5.07-2.08,9.35-6.22,12.83
	c-4.15,3.48-9.26,5.23-15.34,5.23h-11.1v17.67h-12.45V3.42H241.32z M241.32,29.62c2.65,0,4.84-0.78,6.59-2.34
	c1.74-1.56,2.62-3.5,2.62-5.8c0-2.36-0.87-4.3-2.62-5.84c-1.74-1.54-3.94-2.31-6.59-2.31h-11.1v16.29H241.32z"/>
<path class="st0" d="M419.16,3.42c8.27,0,15.17,2.59,20.72,7.76c5.54,5.17,8.31,11.55,8.31,19.13c0,7.58-2.77,13.96-8.31,19.13
	c-5.54,5.17-12.45,7.76-20.72,7.76h-23.95V3.42H419.16z M419.16,47.06c5.22,0,9.48-1.55,12.75-4.65c3.27-3.1,4.91-7.13,4.91-12.1
	c0-4.97-1.64-9-4.91-12.1c-3.27-3.1-7.52-4.65-12.75-4.65H407.1v33.5H419.16z"/>
<path class="st0" d="M617.62,3.42v10.14h-16.28v43.64h-11.89V13.56h-16.19V3.42H617.62z"/>
<path class="st0" d="M649.54,58.28c-5.97,0-11-1.19-15.08-3.57c-4.08-2.38-6.95-5.62-8.61-9.72l10.17-5.3
	c2.35,5.48,6.98,8.22,13.87,8.22c3.33,0,5.77-0.54,7.32-1.61c1.55-1.08,2.33-2.43,2.33-4.07c0-1.89-0.95-3.37-2.84-4.42
	c-1.89-1.05-5.28-2.19-10.17-3.42c-2.7-0.72-4.98-1.43-6.85-2.15c-1.87-0.72-3.73-1.68-5.6-2.88c-1.87-1.2-3.29-2.73-4.26-4.57
	c-0.98-1.84-1.46-4-1.46-6.45c0-4.87,1.94-8.75,5.81-11.64c3.88-2.89,8.54-4.34,14-4.34c4.88,0,9.17,1.06,12.88,3.19
	c3.7,2.13,6.59,5.08,8.66,8.88l-9.99,5.15c-2.41-4.61-6.26-6.92-11.54-6.92c-2.47,0-4.41,0.5-5.81,1.5s-2.11,2.29-2.11,3.88
	c0,1.69,0.79,3.06,2.37,4.11c1.58,1.05,4.61,2.19,9.09,3.42c1.84,0.51,3.23,0.91,4.18,1.19c0.95,0.28,2.24,0.72,3.88,1.31
	c1.64,0.59,2.9,1.14,3.79,1.65c0.89,0.51,1.91,1.2,3.06,2.07c1.15,0.87,2.02,1.77,2.63,2.69c0.6,0.92,1.12,2.04,1.55,3.34
	c0.43,1.31,0.65,2.73,0.65,4.26c0,4.97-2.02,8.91-6.07,11.83S656.03,58.28,649.54,58.28z"/>
<g>
	<path class="st0" d="M93.35,89.25h9.99v0.03c3.68,0,6.42,1.89,6.42,4.97c0,1.48-0.74,2.69-1.92,3.57v0.27
		c1.37,0.91,2.28,2.25,2.28,3.87c0,3.16-2.77,5.13-6.45,5.13H93.35V89.25z M98.02,93.31v2.74h5.32c1.04,0,1.73-0.52,1.73-1.4
		c0-0.85-0.69-1.34-1.73-1.34H98.02z M98.02,100.11v2.91h5.65c1.04,0,1.73-0.55,1.73-1.48c0-0.91-0.69-1.43-1.73-1.43H98.02z"/>
	<path class="st0" d="M123.32,102.31l-7.27-12.04v-1.02h4.83l4.61,8.34h0.33l4.61-8.34h4.69v1.02l-7.13,12.04v4.77h-4.66V102.31z"/>
	<path class="st0" d="M153.12,89.25h4.66v17.83h-4.66V89.25z"/>
	<path class="st0" d="M171.86,95.04h-0.3v12.04h-4.66V89.25h6.61l7.44,12.04h0.3V89.25h4.66v17.83h-6.58L171.86,95.04z"/>
	<path class="st0" d="M194.94,89.25h14.68v4.06H199.6v2.47h9.52v4.06h-9.52v3.18h10.07v4.06h-14.73V89.25z"/>
	<path class="st0" d="M218.51,89.25h4.66v17.83h-4.66V89.25z"/>
	<path class="st0" d="M250.64,100.06v1.15c-1.04,3.46-4.8,6.2-9.6,6.2c-5.68,0-9.85-3.65-9.85-9.36c0-5.71,4.17-9.33,9.85-9.33
		c4.55,0,8.37,2.3,9.6,6.2v1.15h-4.83c-0.69-1.92-2.41-3.02-4.77-3.02c-3.07,0-5.1,1.87-5.1,4.99c0,3.16,2.03,5.02,5.1,5.02
		c2.36,0,4.12-1.1,4.8-3.02H250.64z"/>
	<path class="st0" d="M271.06,100.09h-7.74v7h-4.66V89.25h4.66v6.5h7.74v-6.5h4.66v17.83h-4.66V100.09z"/>
	<path class="st0" d="M284.75,89.25h14.68v4.06h-10.01v2.47h9.52v4.06h-9.52v3.18h10.07v4.06h-14.73V89.25z"/>
	<path class="st0" d="M313.21,95.04h-0.3v12.04h-4.66V89.25h6.61l7.44,12.04h0.3V89.25h4.66v17.83h-6.58L313.21,95.04z"/>
	<path class="st0" d="M346.5,102.69l9.88-9.05v-0.33h-9v-4.06h15.12v4.39l-9.88,9.05v0.33h10.21v4.06H346.5V102.69z"/>
	<path class="st0" d="M370.48,98.69v-9.44h4.66v9.82c0,2.61,1.29,3.9,3.95,4c2.66-0.11,3.95-1.4,3.95-4v-9.82h4.66v9.44
		c0,5.84-3.16,8.72-8.62,8.72C373.63,107.41,370.48,104.53,370.48,98.69z"/>
	<path class="st0" d="M396.38,89.25h10.15c3.68,0,6.39,2.14,6.39,5.57c0,2.5-1.45,4.36-3.65,5.16v0.16l4.36,5.93v1.01h-5.13
		l-4.28-6.17h-3.18v6.17h-4.66V89.25z M401.05,93.59v2.99h5.49c1.04,0,1.73-0.55,1.73-1.51c0-0.93-0.69-1.48-1.73-1.48H401.05z"/>
	<path class="st0" d="M421.6,89.25h4.66v17.83h-4.66V89.25z"/>
	<path class="st0" d="M453.73,100.06v1.15c-1.04,3.46-4.8,6.2-9.6,6.2c-5.68,0-9.85-3.65-9.85-9.36c0-5.71,4.17-9.33,9.85-9.33
		c4.55,0,8.37,2.3,9.6,6.2v1.15h-4.83c-0.69-1.92-2.41-3.02-4.77-3.02c-3.07,0-5.1,1.87-5.1,4.99c0,3.16,2.03,5.02,5.1,5.02
		c2.36,0,4.12-1.1,4.8-3.02H453.73z"/>
	<path class="st0" d="M474.15,100.09h-7.74v7h-4.66V89.25h4.66v6.5h7.74v-6.5h4.66v17.83h-4.66V100.09z"/>
	<path class="st0" d="M504.17,89.25h5.54l7.3,16.82v1.01h-4.83l-1.18-2.91h-8.12l-1.18,2.91h-4.69v-1.01L504.17,89.25z
		 M504.53,100.11h4.83l-2.22-5.49h-0.41L504.53,100.11z"/>
	<path class="st0" d="M538.69,105.03c-1.62,1.54-3.84,2.39-6.34,2.39c-5.46,0-9.47-3.65-9.47-9.36c0-5.71,4.31-9.33,10.15-9.33
		c4.53,0.03,8.34,2.33,9.58,6.2v1.15h-4.83c-0.69-1.92-2.41-3.02-4.77-3.02c-3.24,0.03-5.38,1.89-5.38,4.99
		c0,3.16,2.11,5.02,5.3,5.02c1.81,0,3.29-0.6,4.22-1.73h-2.88v-3.81h8.81v9.55h-4.39V105.03z"/>
</g>
<polygon class="st0" points="15.76,3.42 10.15,3.42 3.21,3.42 3.21,5 10.15,12.9 10.15,57.21 22.03,57.21 22.03,3.42 "/>
<polygon class="st0" points="72.43,3.42 72.43,36.23 46.58,3.42 43.11,3.42 37.54,3.42 30.57,3.42 30.57,5 37.54,12.95 37.54,57.21 
	49.43,57.21 49.43,24.32 75.27,57.21 84.31,57.21 84.31,3.42 "/>
<polygon class="st0" points="175.88,47.06 175.88,35 194.45,35 194.45,25.01 175.88,25.01 175.88,13.56 202.28,13.56 202.28,3.42 
	169.52,3.42 163.99,3.42 156.98,3.42 156.98,5 163.99,12.99 163.99,57.21 205.54,57.21 205.54,47.06 "/>
<polygon class="st0" points="289.22,47.06 289.22,35 307.79,35 307.79,25.01 289.22,25.01 289.22,13.56 315.62,13.56 315.62,3.42 
	282.74,3.42 277.33,3.42 270.2,3.42 270.2,5 277.33,13.12 277.33,57.21 318.88,57.21 318.88,47.06 "/>
<polygon class="st0" points="368.27,3.42 368.27,36.23 342.42,3.42 338.97,3.42 333.38,3.42 326.43,3.42 326.43,5 333.38,12.93 
	333.38,57.21 345.27,57.21 345.27,24.32 371.11,57.21 380.16,57.21 380.16,3.42 "/>
<polygon class="st0" points="469.61,47.06 469.61,35 489.88,35 489.88,25.01 469.61,25.01 469.61,13.56 497.14,13.56 497.14,3.42 
	463.3,3.42 457.72,3.42 450.76,3.42 450.76,5 457.72,12.94 457.72,57.21 499.77,57.21 499.77,47.06 "/>
<polygon class="st0" points="548.79,3.42 548.79,36.23 522.95,3.42 519.41,3.42 513.9,3.42 506.87,3.42 506.87,5 513.9,13.02 
	513.9,57.21 525.79,57.21 525.79,24.32 551.63,57.21 560.68,57.21 560.68,3.42 "/>
</svg>
