<svg width="29" height="28" viewBox="0 0 29 28" fill="none" xmlns="http://www.w3.org/2000/svg">
<path fill-rule="evenodd" clip-rule="evenodd" d="M20 23.9629C20 21.7719 21.7777 20 23.9629 20C26.1553 20 27.9257 21.7777 27.9257 23.9629C27.9185 26.1538 26.1466 27.9257 23.9629 27.9257C21.7719 27.9257 20 26.1466 20 23.9629ZM22.0677 23.9628C22.0677 25.0097 22.9159 25.8566 23.9628 25.8566C25.0097 25.8566 25.858 25.0097 25.858 23.9628C25.858 22.9217 25.0097 22.0735 23.9628 22.0677C22.9159 22.0677 22.0677 22.9145 22.0677 23.9628Z" fill="#6B2F33"/>
<path fill-rule="evenodd" clip-rule="evenodd" d="M9 23.9629C9 21.7719 10.7792 20 12.9629 20C15.148 20 16.9257 21.7777 16.9257 23.9629C16.9185 26.1538 15.148 27.9257 12.9629 27.9257C10.7719 27.9257 9 26.1466 9 23.9629ZM11.0691 23.9628C11.0691 25.0097 11.9159 25.8566 12.9629 25.8566C14.0112 25.8566 14.858 25.0097 14.858 23.9628C14.858 22.9217 14.0112 22.0735 12.9629 22.0677C11.9159 22.0677 11.0691 22.9145 11.0691 23.9628Z" fill="#6B2F33"/>
<path fill-rule="evenodd" clip-rule="evenodd" d="M24.4861 16.7576H11.7421L9.7933 8.2737H26.4349L24.4861 16.7576ZM9.2307 6.16105L7.54 0.29725C7.48925 0.1218 7.3283 0 7.14415 0H0.41035C0.18415 0 0 0.18415 0 0.4118V1.6907C0 1.9169 0.18125 2.10105 0.40745 2.1025C1.2934 2.10685 4.8285 2.10975 5.62165 2.1112C5.81015 2.11265 5.9682 2.24025 6.0146 2.4215L10.1021 18.56C10.1486 18.7427 10.3124 18.8703 10.4994 18.8703H25.7447C25.9361 18.8703 26.1014 18.7398 26.145 18.5542L28.9826 6.6671C29.0449 6.409 28.8492 6.16105 28.5824 6.16105H9.2307Z" fill="#6B2F33"/>
</svg>
