<svg width="22" height="28" viewBox="0 0 22 28" fill="none" xmlns="http://www.w3.org/2000/svg">
<path fill-rule="evenodd" clip-rule="evenodd" d="M2.30707 25.7314C2.70471 19.3215 6.33482 14.2749 10.7584 14.2749C15.1819 14.2749 18.812 19.3215 19.2097 25.7314H2.30707ZM5.91885 7.10812C5.91885 4.44188 8.09215 2.26859 10.7584 2.26859C13.4246 2.26859 15.5979 4.44188 15.5979 7.10812C15.5979 9.77435 13.4246 11.9495 10.7584 11.9495C8.09215 11.9495 5.91885 9.77435 5.91885 7.10812ZM17.8867 7.10812C17.8867 3.19398 14.6908 0 10.7767 0C6.8644 0 3.65026 3.17565 3.65026 7.10812C3.65026 9.5856 4.91649 11.7589 6.84424 13.0453C2.83665 15.2003 0 20.5895 0 26.8657C0 27.4906 0.511257 28 1.13429 28H20.3825C21.0055 28 21.5168 27.4906 21.5168 26.8657C21.5168 20.5895 18.6801 15.2003 14.6908 13.0453C16.6186 11.7791 17.8867 9.5856 17.8867 7.10812Z" fill="#6B2F33"/>
</svg>
