<svg width="104" height="90" viewBox="0 0 104 90" fill="none" xmlns="http://www.w3.org/2000/svg">
<path fill-rule="evenodd" clip-rule="evenodd" d="M58.1632 18.9298C59.9955 20.2043 61.3318 21.8411 62.1361 23.8403C62.9464 25.8583 63.3455 28.0574 63.3455 30.4627C63.3455 32.7368 62.9887 35.0296 62.257 37.3099C61.5253 39.5903 60.2434 41.5145 58.3991 43.0576C56.5487 44.607 54.1481 45.3817 51.1851 45.3817C49.9213 45.3817 48.6212 45.2193 47.2727 44.9006V17.4054C48.6817 17.1493 49.9031 17.0181 50.9916 17.0181C53.9183 17.0181 56.3189 17.6553 58.1632 18.9298Z" fill="#6B2F33"/>
<path fill-rule="evenodd" clip-rule="evenodd" d="M0 89.8182H104V0H0V89.8182ZM76.0019 38.7576C74.6823 40.9725 73.1697 42.7221 71.4518 43.9816C69.4537 45.4768 67.244 46.5873 64.8039 47.3132C62.3639 48.0453 59.1085 48.4114 55.0065 48.4114C53.1764 48.4114 50.7987 48.219 47.8607 47.8592V67.1667C47.8607 69.5056 48.2341 71.2738 48.9811 72.4774C49.7343 73.6811 50.6991 74.4566 51.8755 74.8164C53.052 75.1763 54.4151 75.35 55.9588 75.35V76.6094H26.6847V75.35C28.6579 75.35 30.4132 74.9219 31.9569 74.0967C33.5068 73.2406 34.2787 71.2862 34.2787 68.2214V22.7632C34.2787 19.7169 33.6749 17.5765 32.4362 16.3295C31.2037 15.0762 29.2803 14.462 26.6847 14.462V13.2149H59.1209C63.6026 13.2149 67.2689 14.0959 70.1197 15.8641C72.9706 17.6137 74.9935 19.81 76.1887 22.4282C77.3775 25.0339 77.9751 27.7266 77.9751 30.5185C77.9751 33.7819 77.3215 36.5241 76.0019 38.7576Z" fill="#6B2F33"/>
</svg>
