<svg width="360" height="64" viewBox="0 0 360 64" fill="none" xmlns="http://www.w3.org/2000/svg">
<path fill-rule="evenodd" clip-rule="evenodd" d="M358.421 54.5125C358.614 54.8377 358.733 55.1024 358.765 55.2915C358.804 55.4806 358.757 55.6357 358.622 55.7491C358.492 55.8626 358.266 55.9306 357.962 55.9685C357.657 56.0063 357.254 56.029 356.744 56.029C356.269 56.029 355.897 56.0138 355.629 55.9912C355.364 55.9685 355.146 55.9306 354.988 55.8701C354.834 55.8096 354.715 55.7416 354.632 55.6584C354.553 55.5752 354.478 55.4693 354.426 55.3369L347.984 43.8894L341.475 55.3369C341.408 55.4693 341.325 55.5827 341.234 55.6735C341.139 55.7567 341.02 55.8323 340.866 55.8853C340.704 55.9306 340.491 55.9685 340.226 55.9912C339.957 56.0138 339.601 56.029 339.158 56.029C338.66 56.029 338.272 56.0063 337.991 55.9685C337.71 55.9306 337.509 55.8626 337.402 55.7491C337.287 55.6357 337.248 55.4806 337.287 55.2915C337.327 55.1024 337.442 54.8377 337.631 54.5125L345.529 41.2875L337.991 28.5088C337.817 28.1835 337.699 27.9188 337.647 27.7184C337.592 27.5179 337.623 27.3629 337.746 27.2494C337.869 27.136 338.074 27.0679 338.371 27.0376C338.667 27.0074 339.083 26.9923 339.601 26.9923C340.052 26.9923 340.415 27.0074 340.696 27.0301C340.981 27.0528 341.202 27.0906 341.368 27.136C341.531 27.1889 341.653 27.2646 341.72 27.3629C341.796 27.4536 341.883 27.5709 341.973 27.6806L348.182 38.4398L354.355 27.6806C354.43 27.5709 354.502 27.4536 354.577 27.3629C354.652 27.2646 354.759 27.1889 354.905 27.136C355.039 27.0906 355.241 27.0528 355.49 27.0301C355.743 27.0074 356.087 26.9923 356.522 26.9923C356.977 26.9923 357.361 27.015 357.653 27.0528C357.938 27.0906 358.148 27.1587 358.278 27.2646C358.405 27.3629 358.452 27.5179 358.421 27.7184C358.389 27.9188 358.282 28.1835 358.108 28.5088L350.602 41.1967L358.421 54.5125ZM319.998 47.2892C319.998 46.4005 319.871 45.6101 319.595 44.9369C319.33 44.2524 318.922 43.67 318.385 43.1897C317.835 42.7057 317.155 42.3351 316.324 42.0779C315.498 41.8169 314.272 41.6884 312.646 41.6884H308.985V52.7577H312.911C314.644 52.7577 315.933 52.5762 316.795 52.2283C317.649 51.8728 318.309 51.4227 318.764 50.8782C319.215 50.3411 319.535 49.7474 319.725 49.1007C319.907 48.4578 319.998 47.8527 319.998 47.2892ZM323.984 46.9299C323.984 48.125 323.794 49.2368 323.411 50.2768C323.027 51.3244 322.434 52.2585 321.611 53.0943C320.793 53.9187 319.701 54.5957 318.337 55.11C316.973 55.6357 315.086 55.8928 312.666 55.8928H306.636C306.458 55.8928 306.276 55.8701 306.098 55.8172C305.916 55.7642 305.766 55.6735 305.627 55.5525C305.497 55.4239 305.382 55.2613 305.283 55.057C305.184 54.8604 305.137 54.6184 305.137 54.3385V27.6806C305.137 27.5822 305.168 27.4839 305.24 27.3931C305.307 27.3024 305.422 27.2343 305.572 27.1738C305.734 27.1133 305.932 27.0679 306.177 27.0376C306.418 27.0074 306.719 26.9923 307.063 26.9923C307.434 26.9923 307.743 27.0074 307.984 27.0376C308.237 27.0679 308.435 27.1133 308.577 27.1738C308.731 27.2343 308.83 27.3024 308.894 27.3931C308.953 27.4839 308.985 27.5822 308.985 27.6806V38.557H312.983C315.059 38.557 316.712 38.7272 317.954 39.0789C319.199 39.4268 320.259 39.9487 321.145 40.6597C322.023 41.3556 322.715 42.2367 323.217 43.2918C323.723 44.3432 323.984 45.5572 323.984 46.9299ZM332.312 55.3369C332.312 55.4541 332.289 55.56 332.229 55.6357C332.17 55.7189 332.063 55.7869 331.917 55.8474C331.767 55.908 331.569 55.9533 331.312 55.9836C331.055 56.0138 330.75 56.029 330.391 56.029C330.027 56.029 329.718 56.0138 329.477 55.9836C329.24 55.9533 329.042 55.908 328.888 55.8474C328.73 55.7869 328.623 55.7189 328.56 55.6357C328.5 55.56 328.477 55.4541 328.477 55.3369V27.6806C328.477 27.5822 328.508 27.4839 328.575 27.3931C328.639 27.3024 328.753 27.2343 328.912 27.1738C329.062 27.1133 329.267 27.0679 329.513 27.0376C329.758 27.0074 330.054 26.9923 330.391 26.9923C330.75 26.9923 331.055 27.0074 331.312 27.0376C331.569 27.0679 331.767 27.1133 331.917 27.1738C332.063 27.2343 332.17 27.3024 332.229 27.3931C332.289 27.4839 332.312 27.5822 332.312 27.6806V55.3369ZM295.262 47.8641C295.262 47.0094 295.12 46.2492 294.839 45.6025C294.566 44.9521 294.171 44.3961 293.633 43.9574C293.107 43.5112 292.443 43.1746 291.652 42.9401C290.849 42.7132 289.848 42.5998 288.634 42.5998H284.035V52.735H289.619C290.505 52.735 291.268 52.6291 291.925 52.4249C292.581 52.2207 293.158 51.9106 293.657 51.4984C294.159 51.0975 294.55 50.5907 294.831 49.9819C295.112 49.373 295.262 48.6696 295.262 47.8641ZM293.51 34.7752C293.51 34.0794 293.411 33.4478 293.222 32.8881C293.028 32.3246 292.727 31.8481 292.308 31.451C291.885 31.0577 291.347 30.7552 290.675 30.5509C290.003 30.3467 289.117 30.2408 288.01 30.2408H284.035V39.5554H288.417C289.413 39.5554 290.224 39.4268 290.833 39.1621C291.446 38.905 291.948 38.557 292.352 38.1259C292.755 37.6834 293.044 37.1729 293.238 36.5905C293.419 35.9967 293.51 35.3992 293.51 34.7752ZM299.304 47.6447C299.304 48.5486 299.189 49.3806 298.96 50.1483C298.722 50.9084 298.402 51.5967 297.983 52.2056C297.564 52.8107 297.058 53.3439 296.472 53.8053C295.883 54.2629 295.219 54.6486 294.487 54.9587C293.748 55.2726 292.953 55.5071 292.114 55.6584C291.276 55.8172 290.307 55.8928 289.224 55.8928H281.663C281.322 55.8928 280.998 55.7794 280.694 55.5525C280.389 55.318 280.235 54.9133 280.235 54.3385V28.6865C280.235 28.1079 280.389 27.707 280.694 27.4688C280.998 27.2419 281.322 27.1284 281.663 27.1284H288.239C289.963 27.1284 291.383 27.2872 292.482 27.6163C293.589 27.9415 294.511 28.418 295.242 29.0382C295.982 29.6622 296.544 30.4299 296.907 31.3338C297.279 32.2338 297.473 33.2587 297.473 34.397C297.473 35.0815 297.386 35.732 297.22 36.356C297.058 36.9762 296.816 37.5548 296.496 38.0767C296.172 38.6024 295.776 39.0714 295.29 39.4874C294.807 39.9034 294.25 40.2399 293.625 40.5122C294.412 40.6597 295.152 40.9282 295.84 41.3253C296.528 41.7111 297.121 42.214 297.639 42.8191C298.149 43.4242 298.556 44.139 298.853 44.9596C299.15 45.7689 299.304 46.6652 299.304 47.6447ZM270.103 41.4463C270.103 39.8164 269.961 38.2961 269.672 36.9006C269.38 35.4975 268.901 34.2836 268.221 33.2512C267.545 32.2187 266.635 31.417 265.504 30.8384C264.369 30.2635 262.969 29.9723 261.3 29.9723C259.632 29.9723 258.236 30.2862 257.097 30.9064C255.966 31.5304 255.048 32.3586 254.344 33.3949C253.633 34.4349 253.122 35.6488 252.818 37.0292C252.513 38.4209 252.359 39.8769 252.359 41.4009C252.359 43.0838 252.506 44.6457 252.786 46.0677C253.071 47.4934 253.55 48.715 254.214 49.7474C254.882 50.7798 255.784 51.574 256.907 52.1451C258.038 52.7199 259.446 53.0035 261.15 53.0035C262.827 53.0035 264.247 52.6934 265.393 52.0694C266.544 51.4454 267.466 50.6059 268.166 49.5507C268.862 48.4881 269.364 47.259 269.664 45.8673C269.961 44.4756 270.103 43.0007 270.103 41.4463ZM274.157 41.1778C274.157 43.5036 273.884 45.6025 273.326 47.4707C272.777 49.3352 271.95 50.9235 270.863 52.2358C269.763 53.5481 268.387 54.5578 266.734 55.2613C265.077 55.9609 263.147 56.3164 260.941 56.3164C258.766 56.3164 256.891 55.9912 255.305 55.3445C253.708 54.7016 252.407 53.7675 251.367 52.5421C250.331 51.3093 249.559 49.7776 249.057 47.9548C248.543 46.1358 248.294 44.0331 248.294 41.6657C248.294 39.3966 248.567 37.3431 249.117 35.49C249.674 33.6293 250.497 32.0599 251.604 30.7627C252.703 29.4656 254.083 28.4634 255.74 27.76C257.389 27.0603 259.319 26.7011 261.522 26.7011C263.657 26.7011 265.512 27.0225 267.09 27.6616C268.672 28.297 269.981 29.2311 271.037 30.4526C272.089 31.6741 272.868 33.1831 273.386 34.9908C273.896 36.7871 274.157 38.852 274.157 41.1778ZM245.791 62.8967C245.791 63.0102 245.767 63.1085 245.716 63.1842C245.66 63.2598 245.577 63.3203 245.455 63.3581C245.34 63.4035 245.174 63.4413 244.968 63.4716C244.755 63.5018 244.47 63.5169 244.114 63.5169C243.817 63.5169 243.564 63.5018 243.355 63.4716C243.141 63.4413 242.975 63.4035 242.837 63.3581C242.71 63.3203 242.619 63.2598 242.564 63.1842C242.508 63.1085 242.485 63.0102 242.485 62.8967V55.8928H222.751C222.332 55.8928 221.996 55.7642 221.751 55.5071C221.506 55.2461 221.383 54.8528 221.383 54.3385V27.6806C221.383 27.5822 221.415 27.4839 221.478 27.3931C221.53 27.3024 221.636 27.2343 221.787 27.1738C221.933 27.1133 222.142 27.0679 222.392 27.0376C222.645 27.0074 222.949 26.9923 223.309 26.9923C223.681 26.9923 223.985 27.0074 224.23 27.0376C224.484 27.0679 224.681 27.1133 224.824 27.1738C224.978 27.2343 225.077 27.3024 225.14 27.3931C225.199 27.4839 225.231 27.5822 225.231 27.6806V52.5989H238.194V27.6806C238.194 27.5822 238.222 27.4839 238.285 27.3931C238.344 27.3024 238.451 27.2343 238.605 27.1738C238.763 27.1133 238.961 27.0679 239.206 27.0376C239.459 27.0074 239.764 26.9923 240.136 26.9923C240.496 26.9923 240.792 27.0074 241.045 27.0376C241.29 27.0679 241.488 27.1133 241.634 27.1738C241.785 27.2343 241.884 27.3024 241.947 27.3931C242.006 27.4839 242.038 27.5822 242.038 27.6806V52.5989H244.968C245.265 52.5989 245.478 52.6934 245.597 52.856C245.731 53.0338 245.791 53.3061 245.791 53.6918V62.8967ZM213.696 55.318C213.696 55.4314 213.664 55.5336 213.612 55.6281C213.549 55.7189 213.442 55.7869 213.296 55.8399C213.146 55.8928 212.948 55.9306 212.703 55.9685C212.458 56.0063 212.153 56.029 211.797 56.029C211.414 56.029 211.101 56.0063 210.856 55.9685C210.619 55.9306 210.429 55.8928 210.275 55.8399C210.132 55.7869 210.026 55.7189 209.962 55.6281C209.903 55.5336 209.871 55.4314 209.871 55.318V42.5544H196.711V55.318C196.711 55.4314 196.679 55.5336 196.62 55.6281C196.56 55.7189 196.462 55.7869 196.307 55.8399C196.161 55.8928 195.963 55.9306 195.71 55.9685C195.469 56.0063 195.164 56.029 194.789 56.029C194.429 56.029 194.124 56.0063 193.871 55.9685C193.622 55.9306 193.417 55.8928 193.27 55.8399C193.12 55.7869 193.013 55.7189 192.958 55.6281C192.898 55.5336 192.867 55.4314 192.867 55.318V27.707C192.867 27.5898 192.898 27.4839 192.958 27.3931C193.013 27.3024 193.12 27.2343 193.27 27.1814C193.417 27.1284 193.622 27.0906 193.871 27.0528C194.124 27.015 194.429 26.9923 194.789 26.9923C195.164 26.9923 195.469 27.015 195.71 27.0528C195.963 27.0906 196.161 27.1284 196.307 27.1814C196.462 27.2343 196.56 27.3024 196.62 27.3931C196.679 27.4839 196.711 27.5898 196.711 27.707V39.2226H209.871V27.707C209.871 27.5898 209.903 27.4839 209.962 27.3931C210.026 27.3024 210.132 27.2343 210.275 27.1814C210.429 27.1284 210.619 27.0906 210.856 27.0528C211.101 27.015 211.414 26.9923 211.797 26.9923C212.153 26.9923 212.458 27.015 212.703 27.0528C212.948 27.0906 213.146 27.1284 213.296 27.1814C213.442 27.2343 213.549 27.3024 213.612 27.3931C213.664 27.4839 213.696 27.5898 213.696 27.707V55.318ZM186.603 54.3158C186.603 54.5805 186.587 54.815 186.555 55.0117C186.536 55.2197 186.48 55.3861 186.405 55.5146C186.326 55.6508 186.243 55.7416 186.144 55.8021C186.053 55.8626 185.938 55.8928 185.824 55.8928H171.939C171.595 55.8928 171.275 55.7794 170.97 55.5525C170.666 55.318 170.512 54.9133 170.512 54.3385V28.6865C170.512 28.1079 170.666 27.707 170.97 27.4688C171.275 27.2419 171.595 27.1284 171.939 27.1284H185.666C185.788 27.1284 185.895 27.1587 185.994 27.2192C186.085 27.2797 186.168 27.3704 186.223 27.5066C186.283 27.6352 186.334 27.8054 186.373 28.0096C186.405 28.2062 186.429 28.4558 186.429 28.7508C186.429 29.0155 186.405 29.2538 186.373 29.4504C186.334 29.6547 186.283 29.8135 186.223 29.9421C186.168 30.0669 186.085 30.1576 185.994 30.2144C185.895 30.2749 185.788 30.3089 185.666 30.3089H174.36V39.3285H184.056C184.175 39.3285 184.282 39.3663 184.38 39.4344C184.475 39.4949 184.558 39.5932 184.63 39.7067C184.697 39.8315 184.744 39.9903 184.772 40.2021C184.804 40.4063 184.819 40.6484 184.819 40.9282C184.819 41.1967 184.804 41.4312 184.772 41.6203C184.744 41.8169 184.697 41.9682 184.63 42.0892C184.558 42.2027 184.475 42.2935 184.38 42.3426C184.282 42.3956 184.175 42.4258 184.056 42.4258H174.36V52.7123H185.824C185.938 52.7123 186.053 52.7464 186.144 52.8031C186.243 52.8636 186.326 52.9581 186.405 53.0792C186.48 53.2077 186.536 53.3666 186.555 53.5708C186.587 53.7675 186.603 54.0171 186.603 54.3158ZM158.063 30.3997H149.481C149.165 33.1377 148.861 35.5278 148.556 37.5775C148.252 39.6159 147.955 41.4009 147.662 42.9099C147.366 44.4226 147.077 45.7046 146.78 46.7409C146.48 47.7884 146.175 48.6771 145.871 49.4146C145.566 50.1483 145.254 50.7647 144.934 51.2715C144.613 51.7707 144.285 52.2358 143.941 52.6443H158.063V30.3997ZM165.66 62.8967C165.66 63.0102 165.636 63.1085 165.6 63.1842C165.553 63.2598 165.47 63.3203 165.339 63.3581C165.213 63.4035 165.043 63.4413 164.837 63.4716C164.631 63.5018 164.351 63.5169 163.991 63.5169C163.694 63.5169 163.433 63.5018 163.227 63.4716C163.022 63.4413 162.852 63.4035 162.721 63.3581C162.603 63.3203 162.508 63.2598 162.456 63.1842C162.405 63.1085 162.381 63.0102 162.381 62.8967V55.8928H140.607V62.8967C140.607 63.0102 140.584 63.1085 140.532 63.1842C140.477 63.2598 140.386 63.3203 140.263 63.3581C140.133 63.4035 139.963 63.4413 139.761 63.4716C139.552 63.5018 139.287 63.5169 138.974 63.5169C138.63 63.5169 138.357 63.5018 138.152 63.4716C137.942 63.4413 137.776 63.4035 137.645 63.3581C137.515 63.3203 137.432 63.2598 137.38 63.1842C137.325 63.1085 137.305 63.0102 137.305 62.8967V53.7637C137.274 53.3741 137.333 53.0943 137.479 52.909C137.63 52.735 137.859 52.6443 138.175 52.6443H139.852C140.263 52.1148 140.651 51.5664 141.011 51.0143C141.371 50.4584 141.711 49.8003 142.039 49.0478C142.371 48.2914 142.687 47.3724 143 46.287C143.316 45.2092 143.621 43.8742 143.925 42.2821C144.23 40.6862 144.542 38.7802 144.855 36.5754C145.167 34.3668 145.499 31.7422 145.839 28.7054C145.93 28.176 146.084 27.7713 146.298 27.5179C146.512 27.257 146.824 27.1284 147.219 27.1284H160.566C160.969 27.1284 161.298 27.257 161.543 27.5179C161.784 27.7713 161.907 28.1684 161.907 28.6865V52.6443H164.789C165.106 52.6443 165.327 52.735 165.462 52.9279C165.6 53.1094 165.66 53.3968 165.66 53.7826V62.8967ZM131.686 47.8905C130.994 49.6112 130.345 51.0143 129.74 52.0997C129.147 53.1926 128.538 54.0397 127.913 54.6486C127.284 55.2537 126.608 55.6735 125.881 55.8928C125.149 56.1122 124.311 56.2256 123.358 56.2256C123.029 56.2256 122.693 56.2067 122.357 56.1576C122.021 56.1122 121.709 56.0517 121.412 55.9685C121.115 55.8928 120.846 55.7945 120.617 55.6962C120.38 55.5903 120.214 55.4957 120.115 55.4163C120.008 55.3331 119.933 55.2461 119.878 55.1478C119.826 55.0495 119.779 54.9285 119.739 54.7848C119.711 54.6335 119.68 54.452 119.664 54.2213C119.648 54.0057 119.64 53.7372 119.64 53.4271C119.64 52.8636 119.704 52.4552 119.81 52.2056C119.925 51.9484 120.091 51.8236 120.313 51.8236C120.435 51.8236 120.574 51.8728 120.724 51.956C120.886 52.0467 121.076 52.1526 121.297 52.2661C121.519 52.3871 121.792 52.493 122.112 52.5762C122.432 52.6669 122.808 52.7123 123.243 52.7123C123.619 52.7123 123.959 52.6745 124.279 52.5913C124.603 52.5081 124.908 52.3341 125.196 52.0694C125.485 51.8047 125.794 51.4303 126.102 50.9462C126.414 50.4659 126.759 49.8079 127.134 48.9797L116.825 28.4407C116.698 28.1457 116.611 27.9037 116.591 27.707C116.568 27.5179 116.619 27.3629 116.75 27.2646C116.872 27.1587 117.078 27.0906 117.362 27.0528C117.651 27.015 118.015 26.9923 118.482 26.9923C118.917 26.9923 119.261 27.0074 119.522 27.0376C119.779 27.0679 119.992 27.1208 120.158 27.1814C120.32 27.2494 120.447 27.3402 120.55 27.4461C120.649 27.5633 120.732 27.707 120.811 27.8886L125.968 38.3755C126.553 39.5516 127.095 40.6786 127.613 41.764C128.127 42.8569 128.629 43.9423 129.115 45.0201H129.187C129.59 43.8969 130.001 42.7737 130.428 41.6581C130.848 40.5349 131.33 39.3058 131.872 37.9784L135.917 27.707C135.961 27.5747 136.024 27.4612 136.107 27.3704C136.19 27.2797 136.305 27.2116 136.463 27.1511C136.617 27.0906 136.839 27.0528 137.112 27.0301C137.388 27.0074 137.736 26.9923 138.175 26.9923C138.622 26.9923 138.974 27.015 139.251 27.0603C139.516 27.1057 139.706 27.1738 139.828 27.2646C139.943 27.3478 140.002 27.4688 140.002 27.6163C140.002 27.7675 139.959 27.9415 139.876 28.1533L131.686 47.8905ZM110.28 35.8606C110.28 34.6958 110.058 33.7163 109.615 32.9335C109.184 32.1431 108.631 31.5607 107.982 31.1712C107.338 30.7854 106.673 30.5434 105.977 30.4451C105.285 30.3392 104.613 30.2862 103.957 30.2862H100.401V41.8169H103.866C105.024 41.8169 105.993 41.6732 106.756 41.3783C107.527 41.0795 108.168 40.6711 108.694 40.1416C109.212 39.6159 109.608 38.9882 109.876 38.2507C110.145 37.5246 110.28 36.7266 110.28 35.8606ZM114.325 35.5505C114.325 36.9914 114.088 38.2885 113.606 39.442C113.131 40.5954 112.447 41.5825 111.561 42.3993C110.675 43.2124 109.588 43.844 108.299 44.2902C107.017 44.7289 105.475 44.9596 103.68 44.9596H100.401V55.318C100.401 55.4314 100.362 55.5336 100.303 55.6281C100.231 55.7189 100.125 55.7869 99.9901 55.8399C99.8438 55.8928 99.654 55.9306 99.4009 55.9685C99.1557 56.0063 98.8512 56.029 98.4755 56.029C98.1038 56.029 97.7993 56.0063 97.5462 55.9685C97.301 55.9306 97.1033 55.8928 96.9609 55.8399C96.8067 55.7869 96.6999 55.7189 96.6485 55.6281C96.5852 55.5336 96.5536 55.4314 96.5536 55.318V28.7735C96.5536 28.1835 96.7078 27.76 97.0202 27.5066C97.3326 27.257 97.6846 27.1284 98.0721 27.1284H104.269C104.894 27.1284 105.487 27.1511 106.06 27.204C106.642 27.257 107.322 27.3704 108.101 27.5368C108.884 27.7108 109.679 28.0285 110.493 28.4936C111.304 28.9626 111.988 29.5336 112.562 30.2144C113.123 30.8989 113.562 31.6893 113.867 32.5856C114.171 33.4818 114.325 34.4727 114.325 35.5505Z" fill="#6B2F33"/>
<path fill-rule="evenodd" clip-rule="evenodd" d="M355.687 15.3277C355.687 15.3882 355.671 15.4449 355.635 15.4903C355.6 15.5432 355.54 15.5848 355.445 15.6113C355.359 15.6416 355.24 15.668 355.094 15.6869C354.943 15.7058 354.753 15.7172 354.524 15.7172C354.303 15.7172 354.113 15.7058 353.966 15.6869C353.816 15.668 353.698 15.6416 353.611 15.6113C353.524 15.5848 353.46 15.5432 353.425 15.4903C353.385 15.4449 353.369 15.3882 353.369 15.3277V5.58195H353.354L349.862 15.3163C349.834 15.3957 349.798 15.4638 349.739 15.5168C349.684 15.5697 349.609 15.6113 349.514 15.6378C349.419 15.6718 349.292 15.6907 349.146 15.6983C349 15.7096 348.818 15.7172 348.608 15.7172C348.395 15.7172 348.217 15.7058 348.07 15.6907C347.916 15.6756 347.793 15.6529 347.699 15.6189C347.604 15.5848 347.528 15.5432 347.469 15.4903C347.418 15.4449 347.378 15.3844 347.358 15.3163L343.989 5.58195H343.973V15.3277C343.973 15.3882 343.954 15.4449 343.918 15.4903C343.886 15.5432 343.823 15.5848 343.728 15.6113C343.637 15.6416 343.519 15.668 343.376 15.6869C343.23 15.7058 343.04 15.7172 342.807 15.7172C342.585 15.7172 342.399 15.7058 342.253 15.6869C342.103 15.668 341.98 15.6416 341.893 15.6113C341.802 15.5848 341.743 15.5432 341.707 15.4903C341.672 15.4449 341.656 15.3882 341.656 15.3277V4.6554C341.656 4.34151 341.739 4.09948 341.905 3.93308C342.075 3.7629 342.297 3.68348 342.577 3.68348H344.179C344.464 3.68348 344.709 3.70617 344.911 3.75155C345.12 3.80072 345.298 3.87635 345.44 3.98224C345.591 4.09191 345.713 4.23184 345.816 4.40959C345.915 4.58733 346.002 4.79911 346.077 5.06006L348.679 12.1963H348.719L351.416 5.07897C351.495 4.8218 351.586 4.60246 351.681 4.42093C351.78 4.24697 351.89 4.09948 352.017 3.98981C352.143 3.87635 352.294 3.80072 352.464 3.75155C352.642 3.70617 352.843 3.68348 353.073 3.68348H354.718C354.888 3.68348 355.034 3.70617 355.153 3.74777C355.271 3.78937 355.37 3.85366 355.445 3.94064C355.529 4.02006 355.584 4.12217 355.623 4.24319C355.667 4.36042 355.687 4.50035 355.687 4.6554V15.3277ZM331.022 9.66251C331.022 9.03095 330.975 8.4599 330.876 7.94557C330.777 7.43125 330.603 6.985 330.366 6.62194C330.128 6.25511 329.812 5.97147 329.413 5.77104C329.017 5.5706 328.519 5.46849 327.922 5.46849C327.325 5.46849 326.818 5.58195 326.415 5.80507C326.016 6.03198 325.687 6.33453 325.438 6.70892C325.193 7.08332 325.019 7.52579 324.912 8.02877C324.813 8.53175 324.762 9.06499 324.762 9.6247C324.762 10.2789 324.813 10.8689 324.912 11.387C325.007 11.9089 325.177 12.3552 325.411 12.722C325.644 13.0926 325.964 13.38 326.36 13.5729C326.759 13.7658 327.257 13.8641 327.858 13.8641C328.46 13.8641 328.962 13.7506 329.365 13.5313C329.769 13.3082 330.097 13.0056 330.342 12.6237C330.591 12.2417 330.765 11.7955 330.868 11.2887C330.975 10.7781 331.022 10.2336 331.022 9.66251ZM333.589 9.53393C333.589 10.5248 333.466 11.4135 333.217 12.1963C332.968 12.9792 332.604 13.6448 332.11 14.1931C331.619 14.7377 331.014 15.1537 330.294 15.4411C329.567 15.7285 328.736 15.8722 327.783 15.8722C326.846 15.8722 326.031 15.7512 325.332 15.5092C324.632 15.2634 324.054 14.8928 323.588 14.3898C323.121 13.8906 322.773 13.2552 322.54 12.4837C322.31 11.7123 322.192 10.8008 322.192 9.74571C322.192 8.77757 322.314 7.90398 322.567 7.1287C322.812 6.35722 323.184 5.69918 323.671 5.1546C324.161 4.6138 324.77 4.19402 325.49 3.90282C326.209 3.61162 327.052 3.4717 328.005 3.4717C328.922 3.4717 329.725 3.58893 330.421 3.83097C331.117 4.07301 331.702 4.44362 332.169 4.93904C332.64 5.44202 332.992 6.07358 333.229 6.83751C333.474 7.59765 333.589 8.49394 333.589 9.53393ZM311.506 5.64624H308.695C308.584 6.58412 308.473 7.40478 308.363 8.12332C308.256 8.8343 308.145 9.4583 308.038 9.99531C307.928 10.5323 307.821 10.9937 307.71 11.3832C307.595 11.7728 307.485 12.1093 307.37 12.393C307.251 12.6766 307.137 12.9224 307.01 13.1229C306.887 13.3271 306.761 13.5124 306.63 13.6788H311.506V5.64624ZM315.421 18.4817C315.421 18.546 315.406 18.5989 315.374 18.6367C315.346 18.6821 315.287 18.7162 315.208 18.7464C315.125 18.7729 315.018 18.7956 314.88 18.8107C314.745 18.8221 314.567 18.8334 314.35 18.8334C314.14 18.8334 313.966 18.8221 313.836 18.8107C313.701 18.7956 313.594 18.7729 313.507 18.7464C313.424 18.7162 313.365 18.6821 313.333 18.6367C313.298 18.5989 313.282 18.546 313.282 18.4817V15.6567H305.27V18.4817C305.27 18.546 305.254 18.5989 305.219 18.6367C305.183 18.6821 305.128 18.7162 305.041 18.7464C304.958 18.7729 304.847 18.7956 304.712 18.8107C304.574 18.8221 304.4 18.8334 304.19 18.8334C303.981 18.8334 303.807 18.8221 303.668 18.8107C303.534 18.7956 303.423 18.7729 303.34 18.7464C303.257 18.7162 303.198 18.6821 303.166 18.6367C303.135 18.5989 303.119 18.546 303.119 18.4817V14.178C303.107 14.0002 303.143 13.8717 303.218 13.796C303.293 13.7166 303.411 13.6788 303.57 13.6788H304.127C304.273 13.4708 304.416 13.2514 304.55 13.0321C304.685 12.809 304.811 12.5443 304.934 12.2379C305.06 11.9354 305.179 11.5723 305.302 11.1488C305.424 10.7252 305.543 10.2071 305.662 9.59822C305.78 8.98557 305.899 8.26325 306.021 7.42747C306.14 6.58791 306.263 5.60842 306.397 4.48144C306.433 4.20159 306.504 3.99737 306.611 3.87257C306.713 3.74777 306.876 3.68348 307.093 3.68348H313.246C313.46 3.68348 313.634 3.74777 313.757 3.87257C313.879 3.99737 313.938 4.19024 313.938 4.45119V13.6788H314.967C315.133 13.6788 315.247 13.7242 315.319 13.8149C315.386 13.9019 315.421 14.0229 315.421 14.1856V18.4817ZM289.962 0.468944C289.962 0.813088 289.899 1.13832 289.78 1.44843C289.665 1.75854 289.472 2.03461 289.211 2.26908C288.946 2.50734 288.602 2.69643 288.171 2.84014C287.736 2.98006 287.21 3.0557 286.581 3.0557C285.972 3.0557 285.458 2.98763 285.031 2.85905C284.6 2.73046 284.252 2.55272 283.979 2.32581C283.71 2.0989 283.512 1.83418 283.389 1.51272C283.267 1.19505 283.204 0.850906 283.204 0.468944C283.204 0.378181 283.223 0.302545 283.255 0.245817C283.291 0.185309 283.35 0.136145 283.429 0.102109C283.508 0.0642907 283.619 0.0378181 283.757 0.0226908C283.896 0.0037818 284.074 0 284.287 0C284.481 0 284.647 0.00756361 284.778 0.0264726C284.904 0.0453817 285.003 0.0718543 285.078 0.109672C285.141 0.14749 285.189 0.192872 285.22 0.257163C285.248 0.31389 285.26 0.381962 285.26 0.46138C285.26 0.608871 285.292 0.748798 285.351 0.877379C285.41 1.00596 285.493 1.11941 285.608 1.21396C285.723 1.31229 285.865 1.38792 286.031 1.45221C286.201 1.51272 286.387 1.54676 286.589 1.54676C286.79 1.54676 286.968 1.5165 287.13 1.456C287.293 1.39927 287.431 1.31985 287.546 1.22531C287.66 1.13076 287.747 1.01731 287.807 0.884943C287.862 0.752579 287.894 0.601307 287.894 0.446253C287.894 0.366835 287.906 0.306326 287.929 0.249599C287.957 0.18909 288.004 0.14749 288.076 0.109672C288.147 0.0718543 288.242 0.0453817 288.364 0.0264726C288.483 0.00756361 288.637 0 288.823 0C289.048 0 289.234 0.0037818 289.381 0.0226908C289.523 0.0378181 289.638 0.0642907 289.729 0.102109C289.812 0.136145 289.875 0.185309 289.907 0.245817C289.942 0.302545 289.962 0.378181 289.962 0.468944ZM291.382 15.3428C291.382 15.4071 291.362 15.46 291.322 15.5092C291.283 15.5508 291.216 15.5924 291.121 15.6226C291.03 15.6529 290.903 15.6756 290.745 15.6907C290.587 15.7058 290.393 15.7172 290.152 15.7172C289.918 15.7172 289.721 15.7058 289.563 15.6907C289.404 15.6756 289.282 15.6529 289.191 15.6226C289.104 15.5924 289.041 15.5508 289.001 15.5092C288.965 15.46 288.942 15.4071 288.942 15.3428V9.03095C288.942 8.7927 288.946 8.55445 288.954 8.32376C288.957 8.09307 288.969 7.88885 288.981 7.70732H288.965C288.918 7.79808 288.855 7.89263 288.787 8.00987C288.716 8.12332 288.645 8.24434 288.57 8.37292C288.491 8.49772 288.412 8.6263 288.321 8.75866C288.238 8.89103 288.151 9.01961 288.06 9.14063L283.872 15.3541C283.824 15.4222 283.773 15.4789 283.718 15.5319C283.67 15.581 283.599 15.6189 283.516 15.6453C283.433 15.6718 283.33 15.6907 283.212 15.6983C283.085 15.7096 282.931 15.7172 282.737 15.7172C282.496 15.7172 282.302 15.7058 282.152 15.6907C282.005 15.6756 281.887 15.6529 281.804 15.6226C281.721 15.5924 281.665 15.5508 281.634 15.5016C281.602 15.4525 281.586 15.3957 281.586 15.3277V3.99737C281.586 3.93686 281.606 3.88391 281.646 3.83475C281.689 3.78937 281.752 3.74777 281.851 3.7213C281.946 3.69104 282.069 3.66835 282.227 3.65322C282.385 3.63432 282.579 3.62675 282.812 3.62675C283.057 3.62675 283.255 3.63432 283.409 3.65322C283.563 3.66835 283.686 3.69104 283.781 3.7213C283.872 3.74777 283.935 3.78937 283.975 3.83475C284.014 3.88391 284.034 3.93686 284.034 3.99737V10.3432C284.034 10.5437 284.03 10.7517 284.022 10.9786C284.018 11.1979 284.006 11.4135 283.995 11.6253H284.014C284.121 11.44 284.256 11.2168 284.414 10.9597C284.576 10.6987 284.742 10.4491 284.916 10.1957L289.104 3.98981C289.147 3.92551 289.195 3.87257 289.242 3.82341C289.294 3.78181 289.361 3.74399 289.444 3.70995C289.527 3.6797 289.63 3.65701 289.752 3.64566C289.875 3.63053 290.037 3.62675 290.231 3.62675C290.464 3.62675 290.654 3.63432 290.8 3.65322C290.947 3.66835 291.061 3.69104 291.152 3.7213C291.235 3.74777 291.299 3.78937 291.33 3.83475C291.366 3.88391 291.382 3.94064 291.382 4.00871V15.3428ZM272.97 15.3432C272.97 15.4075 272.95 15.4604 272.907 15.5096C272.867 15.5512 272.8 15.5928 272.709 15.6192C272.618 15.6533 272.492 15.676 272.329 15.6911C272.175 15.7062 271.977 15.7138 271.74 15.7138C271.507 15.7138 271.309 15.7062 271.151 15.6911C270.993 15.676 270.87 15.6533 270.779 15.6192C270.688 15.5928 270.625 15.5512 270.585 15.5096C270.55 15.4604 270.53 15.4075 270.53 15.3432V9.03133C270.53 8.7893 270.534 8.55482 270.538 8.32413C270.546 8.09344 270.554 7.88544 270.57 7.7077H270.55C270.502 7.79468 270.443 7.89301 270.376 8.01024C270.305 8.1237 270.233 8.24093 270.154 8.36952C270.075 8.4981 269.996 8.62668 269.909 8.75904C269.822 8.8914 269.735 9.0162 269.648 9.141L265.46 15.3545C265.409 15.4226 265.361 15.4793 265.306 15.5285C265.255 15.5814 265.187 15.6155 265.104 15.6457C265.021 15.6722 264.919 15.6911 264.796 15.6987C264.673 15.71 264.519 15.7138 264.325 15.7138C264.084 15.7138 263.89 15.7062 263.744 15.6911C263.59 15.676 263.475 15.6533 263.392 15.6192C263.309 15.5928 263.254 15.5512 263.222 15.502C263.186 15.4528 263.171 15.3923 263.171 15.328V3.99775C263.171 3.93346 263.19 3.88051 263.234 3.83135C263.273 3.78597 263.341 3.74815 263.44 3.71789C263.534 3.68764 263.657 3.66495 263.815 3.64982C263.969 3.63469 264.167 3.62335 264.4 3.62335C264.642 3.62335 264.839 3.63469 264.998 3.64982C265.152 3.66495 265.274 3.68764 265.365 3.71789C265.46 3.74815 265.524 3.78597 265.563 3.83135C265.599 3.88051 265.618 3.93346 265.618 3.99775V10.3436C265.618 10.5441 265.618 10.7521 265.611 10.9752C265.603 11.1983 265.595 11.4139 265.583 11.6219H265.599C265.705 11.4366 265.84 11.2172 266.002 10.9563C266.164 10.6991 266.33 10.4457 266.504 10.1961L270.688 3.9864C270.732 3.92589 270.779 3.86917 270.827 3.82378C270.878 3.7784 270.945 3.74058 271.028 3.71033C271.115 3.67629 271.214 3.65738 271.341 3.64226C271.463 3.63091 271.622 3.62335 271.815 3.62335C272.053 3.62335 272.242 3.63469 272.389 3.64982C272.535 3.66495 272.646 3.68764 272.737 3.71789C272.824 3.74815 272.883 3.78597 272.919 3.83135C272.954 3.88051 272.97 3.93724 272.97 4.00531V15.3432ZM255.352 15.3318C255.352 15.4037 255.333 15.4604 255.293 15.5096C255.254 15.5512 255.19 15.5928 255.095 15.6192C255 15.6533 254.87 15.676 254.712 15.6911C254.55 15.7062 254.336 15.7138 254.083 15.7138C253.818 15.7138 253.605 15.7062 253.438 15.6911C253.276 15.676 253.142 15.6533 253.043 15.6155C252.944 15.5852 252.869 15.536 252.822 15.4793C252.77 15.4188 252.735 15.3469 252.711 15.26L251.742 12.5938C251.604 12.2043 251.461 11.879 251.311 11.6181C251.161 11.3534 251.002 11.1454 250.821 10.979C250.639 10.8163 250.433 10.7029 250.208 10.631C249.974 10.563 249.717 10.5327 249.432 10.5327H248.887V15.328C248.887 15.3923 248.867 15.4491 248.831 15.4982C248.792 15.5436 248.729 15.5852 248.634 15.6155C248.539 15.6533 248.416 15.676 248.258 15.6911C248.104 15.7062 247.906 15.7138 247.669 15.7138C247.431 15.7138 247.234 15.7062 247.076 15.6911C246.917 15.676 246.791 15.6533 246.7 15.6155C246.605 15.5852 246.542 15.5436 246.498 15.4982C246.459 15.4491 246.439 15.3923 246.439 15.328V4.00531C246.439 3.93724 246.459 3.88051 246.498 3.83135C246.542 3.78597 246.605 3.74815 246.7 3.71789C246.791 3.68764 246.917 3.66495 247.076 3.64982C247.234 3.63469 247.431 3.62335 247.669 3.62335C247.906 3.62335 248.104 3.63469 248.258 3.64982C248.416 3.66495 248.539 3.68764 248.634 3.71789C248.729 3.74815 248.792 3.78597 248.831 3.83135C248.867 3.88051 248.887 3.93724 248.887 4.00531V8.50188H249.432C249.713 8.50188 249.954 8.46784 250.168 8.39221C250.378 8.32035 250.571 8.20312 250.741 8.0405C250.911 7.88166 251.066 7.66988 251.208 7.4165C251.343 7.15934 251.481 6.84167 251.611 6.46727L252.418 4.08095C252.45 3.99397 252.485 3.91833 252.533 3.8616C252.576 3.80488 252.648 3.75571 252.742 3.72168C252.837 3.68764 252.964 3.66495 253.122 3.64982C253.28 3.63469 253.494 3.62335 253.759 3.62335C254 3.62335 254.202 3.63469 254.36 3.64982C254.522 3.66495 254.645 3.68386 254.732 3.71411C254.823 3.74058 254.882 3.7784 254.913 3.82378C254.945 3.86917 254.961 3.92967 254.961 3.99775C254.961 4.07717 254.945 4.17549 254.917 4.28895C254.89 4.40618 254.842 4.56124 254.775 4.75411L253.964 6.88327C253.814 7.28035 253.668 7.61694 253.518 7.89301C253.367 8.17286 253.213 8.40733 253.051 8.60021C252.885 8.79686 252.711 8.9557 252.529 9.07671C252.343 9.20151 252.141 9.29984 251.92 9.38304V9.39438C252.165 9.49649 252.39 9.61373 252.592 9.74987C252.798 9.88224 252.984 10.0486 253.162 10.2529C253.332 10.4571 253.506 10.7105 253.668 11.0017C253.826 11.2966 253.992 11.6635 254.158 12.0946L255.143 14.5755C255.246 14.8288 255.305 15.0028 255.325 15.1011C255.341 15.1957 255.352 15.2751 255.352 15.3318ZM238.672 13.8456C238.672 14.0006 238.668 14.1292 238.656 14.2389C238.648 14.3448 238.633 14.4393 238.617 14.5149C238.597 14.5944 238.573 14.6624 238.542 14.7154C238.51 14.7721 238.463 14.8326 238.391 14.9045C238.324 14.9763 238.194 15.0633 237.996 15.1805C237.802 15.2902 237.561 15.3961 237.28 15.4982C236.995 15.6003 236.675 15.6835 236.311 15.7516C235.947 15.8197 235.56 15.8537 235.137 15.8537C234.31 15.8537 233.567 15.7251 232.902 15.4717C232.242 15.2184 231.673 14.844 231.214 14.341C230.743 13.8342 230.387 13.2102 230.142 12.4539C229.893 11.7051 229.766 10.8277 229.766 9.82551C229.766 8.8082 229.905 7.90435 230.178 7.11396C230.451 6.32734 230.83 5.66174 231.325 5.12473C231.811 4.58771 232.4 4.17927 233.084 3.9032C233.772 3.62335 234.524 3.48342 235.35 3.48342C235.686 3.48342 236.007 3.51368 236.319 3.5704C236.628 3.62335 236.916 3.6952 237.177 3.78597C237.442 3.87673 237.68 3.98262 237.889 4.09607C238.099 4.21709 238.249 4.31542 238.332 4.39862C238.415 4.47804 238.474 4.54989 238.502 4.60662C238.534 4.66335 238.557 4.7352 238.577 4.8184C238.597 4.90916 238.613 5.00749 238.621 5.12473C238.629 5.24196 238.633 5.38567 238.633 5.56342C238.633 5.74494 238.629 5.90378 238.617 6.03236C238.605 6.16094 238.581 6.26683 238.55 6.35003C238.518 6.42567 238.482 6.48618 238.439 6.52021C238.395 6.55803 238.348 6.58072 238.289 6.58072C238.198 6.58072 238.079 6.52399 237.937 6.4181C237.794 6.31221 237.608 6.18741 237.383 6.05127C237.154 5.9189 236.885 5.80167 236.576 5.692C236.26 5.58611 235.884 5.53316 235.449 5.53316C234.975 5.53316 234.548 5.63149 234.176 5.82436C233.796 6.02101 233.48 6.29709 233.215 6.65636C232.95 7.01941 232.752 7.45432 232.614 7.96486C232.479 8.48297 232.408 9.05402 232.408 9.69693C232.408 10.4003 232.479 11.0092 232.626 11.5273C232.772 12.0416 232.982 12.4652 233.254 12.8018C233.523 13.1308 233.848 13.3804 234.227 13.5468C234.611 13.7056 235.042 13.7888 235.516 13.7888C235.951 13.7888 236.327 13.7397 236.643 13.6376C236.96 13.5355 237.233 13.422 237.458 13.2972C237.683 13.1762 237.869 13.0627 238.016 12.9644C238.162 12.8661 238.277 12.8169 238.356 12.8169C238.415 12.8169 238.466 12.8283 238.502 12.8547C238.542 12.8774 238.573 12.9304 238.597 13.0022C238.625 13.0779 238.64 13.18 238.652 13.3123C238.664 13.4447 238.672 13.6187 238.672 13.8456ZM220.141 11.8942C220.141 11.5916 220.098 11.3231 220.015 11.0886C219.928 10.8542 219.793 10.6499 219.611 10.4835C219.433 10.3171 219.2 10.1886 218.919 10.1016C218.634 10.007 218.219 9.96544 217.658 9.96544H216.246V13.7699H217.705C218.286 13.7699 218.721 13.7132 219.01 13.5998C219.299 13.4825 219.524 13.335 219.686 13.1573C219.844 12.972 219.963 12.7715 220.034 12.5484C220.105 12.3253 220.141 12.1097 220.141 11.8942ZM222.652 11.6862C222.652 12.2572 222.565 12.7753 222.399 13.2518C222.229 13.7283 221.952 14.1406 221.569 14.496C221.189 14.8553 220.691 15.1352 220.078 15.3432C219.461 15.5549 218.623 15.6571 217.555 15.6571H214.549C214.443 15.6571 214.348 15.6457 214.257 15.6155C214.17 15.589 214.091 15.5436 214.019 15.4793C213.952 15.4112 213.901 15.3318 213.857 15.2373C213.818 15.1389 213.798 15.0293 213.798 14.8931V3.99775C213.798 3.93346 213.818 3.88051 213.857 3.83135C213.901 3.78597 213.964 3.74815 214.063 3.71789C214.158 3.68764 214.288 3.66495 214.443 3.64982C214.605 3.63469 214.798 3.62335 215.028 3.62335C215.265 3.62335 215.463 3.63469 215.621 3.64982C215.775 3.66495 215.902 3.68764 215.993 3.71789C216.088 3.74815 216.151 3.78597 216.19 3.83135C216.226 3.88051 216.246 3.93346 216.246 3.99775V8.07832H217.93C218.84 8.07832 219.564 8.15773 220.105 8.31279C220.643 8.47162 221.102 8.70231 221.478 9.01242C221.853 9.32253 222.142 9.70071 222.344 10.1507C222.549 10.6008 222.652 11.1151 222.652 11.6862ZM205.157 15.3432C205.157 15.4075 205.141 15.4604 205.102 15.5096C205.062 15.5512 204.999 15.5928 204.904 15.6192C204.813 15.6533 204.687 15.676 204.532 15.6911C204.37 15.7062 204.177 15.7138 203.939 15.7138C203.698 15.7138 203.496 15.7062 203.342 15.6911C203.188 15.676 203.065 15.6533 202.97 15.6192C202.879 15.5928 202.812 15.5512 202.777 15.5096C202.741 15.4604 202.721 15.4075 202.721 15.3432V5.68065H200.131C199.961 7.09505 199.783 8.32792 199.601 9.38304C199.423 10.4382 199.229 11.342 199.028 12.0946C198.822 12.8472 198.601 13.4674 198.351 13.9477C198.106 14.428 197.829 14.8099 197.517 15.0898C197.201 15.3734 196.849 15.5625 196.457 15.6684C196.062 15.7743 195.615 15.8272 195.109 15.8272C195.018 15.8272 194.939 15.8159 194.867 15.7894C194.8 15.7629 194.749 15.7176 194.705 15.6495C194.666 15.5852 194.638 15.4831 194.618 15.3621C194.599 15.2373 194.587 15.0822 194.587 14.8931C194.587 14.6246 194.595 14.4091 194.606 14.2464C194.622 14.0838 194.642 13.9552 194.674 13.8683C194.701 13.7775 194.745 13.717 194.796 13.6867C194.844 13.6565 194.903 13.6414 194.97 13.6414C195.164 13.6414 195.346 13.6035 195.524 13.5241C195.702 13.4485 195.872 13.2934 196.034 13.0665C196.2 12.8358 196.354 12.5182 196.509 12.1059C196.663 11.6899 196.813 11.1454 196.955 10.4684C197.102 9.79526 197.248 8.97082 197.394 7.9989C197.541 7.02697 197.687 5.86974 197.837 4.53476C197.873 4.21709 197.948 3.99775 198.059 3.86917C198.17 3.74437 198.336 3.68008 198.553 3.68008H204.461C204.683 3.68008 204.857 3.74437 204.975 3.86917C205.094 3.99775 205.157 4.19062 205.157 4.44778V15.3432ZM187.852 14.7078C187.852 14.8856 187.848 15.0331 187.832 15.1541C187.816 15.2751 187.793 15.3734 187.761 15.4491C187.729 15.5209 187.69 15.5739 187.642 15.6079C187.599 15.6419 187.544 15.6571 187.492 15.6571H181.446C181.24 15.6571 181.07 15.6003 180.928 15.4793C180.785 15.3583 180.718 15.1654 180.718 14.8931V4.44778C180.718 4.17927 180.785 3.98262 180.928 3.8616C181.07 3.74058 181.24 3.68008 181.446 3.68008H187.453C187.512 3.68008 187.559 3.6952 187.603 3.72924C187.646 3.75571 187.682 3.81244 187.714 3.89186C187.745 3.96371 187.769 4.06582 187.785 4.18684C187.801 4.30786 187.809 4.45913 187.809 4.64444C187.809 4.81462 187.801 4.96211 187.785 5.08313C187.769 5.20414 187.745 5.30247 187.714 5.37432C187.682 5.44996 187.646 5.50291 187.603 5.53694C187.559 5.57098 187.512 5.58611 187.453 5.58611H183.158V8.51322H186.792C186.848 8.51322 186.899 8.53213 186.946 8.56239C186.99 8.59642 187.03 8.64937 187.061 8.72122C187.093 8.79308 187.117 8.88762 187.132 9.00864C187.148 9.12966 187.152 9.27337 187.152 9.44733C187.152 9.62508 187.148 9.77635 187.132 9.89358C187.117 10.007 187.093 10.1054 187.061 10.1734C187.03 10.2491 186.99 10.2982 186.946 10.3247C186.899 10.3587 186.848 10.3739 186.792 10.3739H183.158V13.751H187.492C187.544 13.751 187.599 13.7699 187.642 13.804C187.69 13.8342 187.729 13.891 187.761 13.9666C187.793 14.0384 187.816 14.1368 187.832 14.2578C187.848 14.3788 187.852 14.5301 187.852 14.7078ZM173.287 4.67847C173.287 4.86 173.28 5.01127 173.264 5.13985C173.248 5.26465 173.224 5.36676 173.193 5.4424C173.161 5.52182 173.121 5.57854 173.078 5.61636C173.03 5.65418 172.979 5.67309 172.924 5.67309H169.91V15.328C169.91 15.3848 169.89 15.4415 169.851 15.4907C169.807 15.5436 169.74 15.5852 169.649 15.6117C169.554 15.6419 169.428 15.6684 169.27 15.6873C169.115 15.7062 168.918 15.7138 168.68 15.7138C168.443 15.7138 168.249 15.7062 168.091 15.6873C167.933 15.6684 167.806 15.6419 167.715 15.6117C167.617 15.5852 167.553 15.5436 167.514 15.4907C167.474 15.4415 167.454 15.3848 167.454 15.328V5.67309H164.437C164.378 5.67309 164.322 5.65418 164.283 5.61636C164.235 5.57854 164.2 5.52182 164.168 5.4424C164.141 5.36676 164.113 5.26465 164.097 5.13985C164.085 5.01127 164.077 4.86 164.077 4.67847C164.077 4.49695 164.085 4.33811 164.097 4.20953C164.113 4.08095 164.141 3.97506 164.168 3.89942C164.2 3.82 164.235 3.76706 164.283 3.72924C164.322 3.6952 164.378 3.68008 164.437 3.68008H172.924C172.979 3.68008 173.03 3.6952 173.078 3.72924C173.121 3.76706 173.161 3.82 173.193 3.89942C173.224 3.97506 173.248 4.08095 173.264 4.20953C173.28 4.33811 173.287 4.49695 173.287 4.67847ZM153.356 5.96807H153.349L151.648 11.0584H155.061L153.356 5.96807ZM158.885 14.7532C158.96 14.9725 159.008 15.1503 159.027 15.2789C159.043 15.4112 159.019 15.5096 158.948 15.5701C158.885 15.6381 158.762 15.676 158.588 15.6911C158.414 15.7062 158.173 15.7138 157.873 15.7138C157.556 15.7138 157.307 15.71 157.129 15.6987C156.955 15.6911 156.821 15.6722 156.73 15.6457C156.635 15.6155 156.568 15.5814 156.532 15.5285C156.492 15.4793 156.461 15.415 156.437 15.3318L155.63 12.9304H151.106L150.343 15.2713C150.319 15.3545 150.288 15.4264 150.244 15.4869C150.209 15.5474 150.141 15.5928 150.05 15.6268C149.963 15.6571 149.833 15.6835 149.671 15.6987C149.505 15.71 149.291 15.7138 149.022 15.7138C148.738 15.7138 148.516 15.7062 148.354 15.6873C148.192 15.6684 148.081 15.6268 148.018 15.5512C147.955 15.4793 147.935 15.381 147.955 15.2486C147.974 15.1238 148.018 14.9499 148.093 14.7343L151.806 4.10742C151.842 4.00153 151.885 3.91833 151.937 3.85404C151.984 3.78597 152.063 3.7368 152.174 3.70277C152.281 3.67251 152.431 3.64982 152.625 3.63848C152.815 3.63091 153.072 3.62335 153.384 3.62335C153.752 3.62335 154.045 3.63091 154.262 3.63848C154.476 3.64982 154.65 3.67251 154.768 3.70277C154.891 3.7368 154.978 3.78597 155.029 3.85782C155.081 3.92589 155.124 4.01666 155.164 4.13767L158.885 14.7532ZM137.38 5.64283H134.568C134.458 6.58072 134.347 7.40515 134.24 8.11992C134.133 8.8309 134.023 9.45868 133.916 9.99191C133.801 10.5327 133.694 10.9941 133.584 11.3798C133.469 11.7731 133.358 12.1097 133.244 12.3934C133.129 12.677 133.01 12.919 132.884 13.1232C132.761 13.3275 132.635 13.5128 132.504 13.6792H137.38V5.64283ZM141.295 18.4821C141.295 18.5426 141.279 18.5993 141.252 18.6371C141.22 18.6825 141.161 18.7165 141.082 18.7468C140.998 18.7733 140.892 18.796 140.753 18.8111C140.619 18.8224 140.445 18.8338 140.223 18.8338C140.014 18.8338 139.844 18.8224 139.709 18.8111C139.575 18.796 139.468 18.7733 139.385 18.7468C139.302 18.7165 139.243 18.6825 139.207 18.6371C139.175 18.5993 139.152 18.5426 139.152 18.4821V15.6571H131.148V18.4821C131.148 18.5426 131.132 18.5993 131.096 18.6371C131.061 18.6825 131.005 18.7165 130.914 18.7468C130.835 18.7733 130.725 18.796 130.586 18.8111C130.452 18.8224 130.278 18.8338 130.068 18.8338C129.855 18.8338 129.681 18.8224 129.546 18.8111C129.408 18.796 129.297 18.7733 129.214 18.7468C129.131 18.7165 129.075 18.6825 129.044 18.6371C129.012 18.5993 128.996 18.5426 128.996 18.4821V14.1784C128.985 14.0006 129.02 13.872 129.095 13.7964C129.17 13.7132 129.289 13.6792 129.443 13.6792H130.005C130.151 13.4712 130.293 13.2518 130.424 13.0325C130.558 12.8094 130.685 12.5446 130.808 12.2345C130.934 11.9358 131.057 11.5689 131.179 11.1454C131.298 10.7256 131.421 10.2075 131.535 9.5986C131.654 8.98595 131.772 8.26362 131.895 7.42406C132.018 6.58828 132.14 5.60501 132.271 4.47804C132.306 4.19818 132.381 3.99775 132.484 3.86917C132.591 3.74437 132.753 3.68008 132.967 3.68008H139.12C139.338 3.68008 139.508 3.74437 139.63 3.86917C139.753 3.99775 139.816 4.19062 139.816 4.44778V13.6792H140.84C141.006 13.6792 141.121 13.7208 141.192 13.8115C141.259 13.9023 141.295 14.0233 141.295 14.1859V18.4821ZM122.226 12.1891C122.226 12.7942 122.108 13.3237 121.882 13.7851C121.649 14.2427 121.325 14.6284 120.897 14.9423C120.474 15.2562 119.964 15.4831 119.375 15.6381C118.782 15.7932 118.125 15.8726 117.406 15.8726C117.01 15.8726 116.642 15.8461 116.314 15.7894C115.982 15.7327 115.693 15.6608 115.444 15.5814C115.203 15.4982 115.005 15.415 114.855 15.3318C114.709 15.2562 114.602 15.1881 114.542 15.1352C114.479 15.086 114.428 15.0293 114.4 14.9725C114.368 14.9196 114.345 14.8402 114.325 14.7343C114.305 14.636 114.293 14.5074 114.285 14.3523C114.274 14.2011 114.27 14.012 114.27 13.7775C114.27 13.5203 114.293 13.3464 114.341 13.2556C114.384 13.1648 114.455 13.1232 114.55 13.1232C114.626 13.1232 114.728 13.1573 114.867 13.2405C115.001 13.3161 115.175 13.4031 115.385 13.5014C115.598 13.6035 115.851 13.6905 116.148 13.7699C116.445 13.8494 116.801 13.891 117.204 13.891C117.536 13.891 117.841 13.8494 118.113 13.7699C118.386 13.6905 118.616 13.5771 118.805 13.4296C118.995 13.2821 119.142 13.1043 119.248 12.8963C119.351 12.6883 119.407 12.4576 119.407 12.2043C119.407 11.9282 119.359 11.6786 119.26 11.4555C119.165 11.2361 119.015 11.047 118.809 10.892C118.604 10.7369 118.347 10.6197 118.034 10.5327C117.722 10.4533 117.342 10.4117 116.903 10.4117H115.626C115.535 10.4117 115.46 10.3966 115.405 10.3739C115.349 10.3474 115.302 10.302 115.27 10.2339C115.235 10.1659 115.215 10.0713 115.207 9.95409C115.195 9.83307 115.191 9.67046 115.191 9.4738C115.191 9.29606 115.199 9.14857 115.211 9.03889C115.223 8.92166 115.246 8.8309 115.282 8.76282C115.314 8.69475 115.357 8.64937 115.412 8.61911C115.46 8.59264 115.523 8.57751 115.602 8.57751H116.895C117.271 8.57751 117.603 8.5397 117.9 8.46784C118.189 8.39221 118.434 8.28253 118.628 8.13883C118.825 7.99512 118.976 7.81737 119.074 7.61315C119.177 7.40137 119.229 7.1669 119.229 6.90596C119.229 6.67905 119.193 6.47483 119.122 6.28952C119.051 6.108 118.94 5.94916 118.79 5.82436C118.643 5.69578 118.454 5.60123 118.224 5.5256C117.995 5.45752 117.722 5.42349 117.406 5.42349C117.034 5.42349 116.698 5.45752 116.401 5.54072C116.105 5.62014 115.844 5.71091 115.622 5.80167C115.405 5.89243 115.219 5.9832 115.064 6.06261C114.914 6.1496 114.803 6.18741 114.724 6.18741C114.685 6.18741 114.645 6.17607 114.614 6.1496C114.582 6.1269 114.554 6.08152 114.531 6.02101C114.507 5.95294 114.487 5.86596 114.479 5.75629C114.471 5.64283 114.463 5.49534 114.463 5.32138C114.463 5.19658 114.467 5.07934 114.475 4.97723C114.479 4.87134 114.491 4.7768 114.511 4.68982C114.531 4.60284 114.554 4.5272 114.586 4.46669C114.618 4.39862 114.665 4.33433 114.732 4.27382C114.796 4.21331 114.93 4.13389 115.132 4.03178C115.333 3.93346 115.579 3.84269 115.871 3.75949C116.16 3.67629 116.492 3.60822 116.856 3.55149C117.22 3.49477 117.607 3.47208 118.019 3.47208C118.663 3.47208 119.229 3.53637 119.707 3.67251C120.186 3.80866 120.589 4.00153 120.913 4.25869C121.234 4.51585 121.475 4.82974 121.637 5.20414C121.799 5.57854 121.882 6.0021 121.882 6.48618C121.882 6.86814 121.827 7.21606 121.72 7.53374C121.617 7.84763 121.467 8.1237 121.269 8.36195C121.075 8.60777 120.842 8.8082 120.573 8.97082C120.304 9.13722 120.004 9.25446 119.675 9.32631V9.34522C120.055 9.3906 120.399 9.48893 120.712 9.65533C121.028 9.81795 121.297 10.0297 121.518 10.2793C121.74 10.5327 121.914 10.8201 122.04 11.1454C122.163 11.4706 122.226 11.8147 122.226 12.1891ZM106.372 15.3432C106.372 15.4075 106.353 15.4604 106.313 15.5096C106.273 15.5512 106.206 15.5928 106.115 15.6192C106.02 15.6533 105.894 15.676 105.736 15.6911C105.581 15.7062 105.384 15.7138 105.146 15.7138C104.909 15.7138 104.715 15.7062 104.557 15.6911C104.395 15.676 104.272 15.6533 104.182 15.6192C104.095 15.5928 104.031 15.5512 103.992 15.5096C103.956 15.4604 103.936 15.4075 103.936 15.3432V9.03133C103.936 8.7893 103.94 8.55482 103.944 8.32413C103.952 8.09344 103.96 7.88544 103.972 7.7077H103.956C103.909 7.79468 103.845 7.89301 103.782 8.01024C103.711 8.1237 103.636 8.24093 103.561 8.36952C103.482 8.4981 103.402 8.62668 103.312 8.75904C103.228 8.8914 103.141 9.0162 103.051 9.141L98.8666 15.3545C98.8152 15.4226 98.7677 15.4793 98.7124 15.5285C98.661 15.5814 98.5898 15.6155 98.5107 15.6457C98.4277 15.6722 98.3209 15.6911 98.1983 15.6987C98.0797 15.71 97.9254 15.7138 97.7317 15.7138C97.4904 15.7138 97.2966 15.7062 97.1464 15.6911C96.9961 15.676 96.8775 15.6533 96.7984 15.6192C96.7153 15.5928 96.656 15.5512 96.6244 15.502C96.5927 15.4528 96.5769 15.3923 96.5769 15.328V3.99775C96.5769 3.93346 96.5967 3.88051 96.6402 3.83135C96.6797 3.78597 96.747 3.74815 96.8458 3.71789C96.9407 3.68764 97.0633 3.66495 97.2176 3.64982C97.3757 3.63469 97.5735 3.62335 97.8068 3.62335C98.048 3.62335 98.2457 3.63469 98.4 3.64982C98.5582 3.66495 98.6807 3.68764 98.7717 3.71789C98.8666 3.74815 98.9299 3.78597 98.9694 3.83135C99.005 3.88051 99.0248 3.93346 99.0248 3.99775V10.3436C99.0248 10.5441 99.0208 10.7521 99.0169 10.9752C99.009 11.1983 99.0011 11.4139 98.9892 11.6219H99.005C99.1118 11.4366 99.2462 11.2172 99.4084 10.9563C99.5705 10.6991 99.7327 10.4457 99.9067 10.1961L104.095 3.9864C104.138 3.92589 104.185 3.86917 104.233 3.82378C104.284 3.7784 104.352 3.74058 104.435 3.71033C104.522 3.67629 104.62 3.65738 104.747 3.64226C104.87 3.63091 105.028 3.62335 105.222 3.62335C105.459 3.62335 105.649 3.63469 105.795 3.64982C105.937 3.66495 106.052 3.68764 106.143 3.71789C106.226 3.74815 106.289 3.78597 106.321 3.83135C106.357 3.88051 106.372 3.93724 106.372 4.00531V15.3432Z" fill="black"/>
<path fill-rule="evenodd" clip-rule="evenodd" d="M37.6924 13.1923C38.9217 13.948 39.818 14.9188 40.3571 16.1047C40.9012 17.3018 41.1691 18.6055 41.1691 20.0325C41.1691 21.3807 40.9296 22.7409 40.4383 24.0937C39.948 25.4456 39.0882 26.5871 37.8508 27.5022C36.6093 28.4211 34.9994 28.881 33.0118 28.881C32.1632 28.881 31.2912 28.7846 30.3867 28.5954V12.2883C31.3318 12.1362 32.151 12.0583 32.8819 12.0583C34.8451 12.0583 36.455 12.4366 37.6924 13.1923Z" fill="#662E32"/>
<mask id="mask0" mask-type="alpha" maskUnits="userSpaceOnUse" x="0" y="1" width="66" height="55">
<path fill-rule="evenodd" clip-rule="evenodd" d="M0 55.9843H65.6746V1.77778H0V55.9843Z" fill="white"/>
</mask>
<g mask="url(#mask0)">
<path fill-rule="evenodd" clip-rule="evenodd" d="M0 55.9843H65.6746V1.77778H0V55.9843ZM47.9937 25.1724C47.1605 26.5095 46.2054 27.5655 45.1205 28.3216C43.8595 29.224 42.4637 29.8977 40.9223 30.3324C39.3819 30.7775 37.3261 30.9986 34.7362 30.9986C33.5804 30.9986 32.0784 30.8787 30.2233 30.6613V42.3174C30.2233 43.7294 30.4593 44.7929 30.9305 45.5228C31.4066 46.2453 32.0155 46.7175 32.7591 46.9302C33.5017 47.1513 34.3624 47.2563 35.3372 47.2563V48.0124H16.8507V47.2563C18.097 47.2563 19.2055 46.9977 20.1803 46.4964C21.159 45.9791 21.6469 44.8004 21.6469 42.9508V15.5159C21.6469 13.6812 21.2653 12.3891 20.4833 11.633C19.7042 10.8806 18.4904 10.5095 16.8507 10.5095V9.75715H37.334C40.1639 9.75715 42.4794 10.2856 44.2795 11.3519C46.0795 12.4116 47.3573 13.7337 48.1117 15.3135C48.8632 16.8904 49.24 18.5152 49.24 20.1999C49.24 22.1657 48.8278 23.8241 47.9937 25.1724Z" fill="#6B2F33"/>
</g>
</svg>
