<?xml version="1.0" encoding="utf-8"?>
<svg width="264px" height="50px" viewbox="0 0 264 50" version="1.1" xmlns:xlink="http://www.w3.org/1999/xlink" xmlns="http://www.w3.org/2000/svg">
  <defs>
    <path d="M0 0L22.6498 0L22.6498 24.6724L0 24.6724L0 0Z" transform="translate(0 0.025789473)" id="path_1" />
    <path d="M0 50L264 50L264 0L0 0L0 50Z" id="path_2" />
    <clipPath id="mask_1">
      <use xlink:href="#path_1" />
    </clipPath>
    <clipPath id="mask_2">
      <use xlink:href="#path_2" />
    </clipPath>
  </defs>
  <g id="Group-50">
    <g id="Group-3">
      <path d="M0 0L22.6498 0L22.6498 24.6724L0 24.6724L0 0Z" transform="translate(0 0.025789473)" id="Clip-2" fill="none" fill-rule="evenodd" stroke="none" />
      <g clip-path="url(#mask_1)">
        <path d="M0 12.3033C0 4.96711 4.50481 0 11.9798 0C18.1138 0 21.788 3.28947 22.6499 8.42171L20.0304 8.68421C19.2957 4.67105 16.3888 2.20329 11.852 2.20329C6.10203 2.20329 2.62008 6.18421 2.62008 12.2697C2.62008 18.1914 6.07008 22.4349 11.9159 22.4349C16.2291 22.4349 19.1679 20.1651 20.1582 16.2836L22.6499 16.6783C21.4041 21.448 17.8902 24.6724 11.852 24.6724C4.15278 24.6724 0 19.4092 0 12.3033" transform="translate(-6.388889E-05 0.025789473)" id="Fill-1" fill="#000" fill-rule="evenodd" stroke="none" />
      </g>
    </g>
    <path d="M21 23L18.3587 23L18.3587 12.3098L2.60833 12.3098L2.60833 23L0 23L0 0L2.60833 0L2.60833 10.1389L18.3587 10.1389L18.3587 0L21 0L21 23Z" transform="translate(28 0)" id="Fill-4" fill="#000" fill-rule="evenodd" stroke="none" />
    <path d="M2.65763 11.0789L11.0624 11.0789C15.0495 11.0789 16.478 9.03817 16.478 6.60873C16.478 4.14689 15.0827 2.1703 11.0963 2.1703L2.65763 2.1703L2.65763 11.0789ZM10.5315 13.2498L2.65763 13.2498L2.65763 23L0 23L0 0L11.3946 0C17.4414 0 19.202 3.30404 19.202 6.60873C19.202 9.3297 17.6407 12.2126 13.4217 12.9259L20 23L16.9098 23L10.5315 13.2498Z" transform="translate(56 0)" id="Fill-6" fill="#000" fill-rule="evenodd" stroke="none" />
    <path d="M22.2518 12C22.2518 5.95232 18.3778 2.14389 12.4841 2.14389C6.62283 2.14389 2.7482 5.95232 2.7482 12C2.7482 17.9843 6.62283 21.8555 12.4841 21.8555C18.3778 21.8555 22.2518 18.0477 22.2518 12M0 12C0 4.60775 5.06662 0 12.4841 0C19.9009 0 25 4.60775 25 12C25 19.3602 19.9009 24 12.4841 24C5.06662 24 0 19.2956 0 12" transform="translate(79 0)" id="Fill-8" fill="#000" fill-rule="evenodd" stroke="none" />
    <path d="M0 0L3.22867 0L17.1064 17.7842C17.772 18.7235 18.2379 19.4038 18.604 20.2142L18.6705 20.2142C18.6372 19.4038 18.604 18.594 18.604 17.4926L18.604 0L21 0L21 23L17.9384 23L3.89424 5.02084C3.22867 4.1145 2.76211 3.43361 2.39671 2.6238L2.32949 2.6238C2.36277 3.40122 2.39671 4.24342 2.39671 5.31238L2.39671 23L0 23L0 0Z" transform="translate(108 0)" id="Fill-10" fill="#000" fill-rule="evenodd" stroke="none" />
    <path d="M22.2518 12C22.2518 5.95232 18.3778 2.14389 12.4841 2.14389C6.62283 2.14389 2.74886 5.95232 2.74886 12C2.74886 17.9843 6.62283 21.8555 12.4841 21.8555C18.3778 21.8555 22.2518 18.0477 22.2518 12M0 12C0 4.60775 5.06662 0 12.4841 0C19.9009 0 25 4.60775 25 12C25 19.3602 19.9009 24 12.4841 24C5.06662 24 0 19.2956 0 12" transform="translate(134 0)" id="Fill-12" fill="#000" fill-rule="evenodd" stroke="none" />
    <path d="M4.41904 3.43361L4.41904 9.71841L17.4517 9.71841L17.4517 13.1196L4.41904 13.1196L4.41904 23L0 23L0 0L18 0L18 3.43361L4.41904 3.43361Z" transform="translate(163 0)" id="Fill-14" fill="#000" fill-rule="evenodd" stroke="none" />
    <path d="M4.47206 0L4.47206 13.8745C4.47206 17.6223 6.82266 20.2851 11.0003 20.2851C15.1454 20.2851 17.5279 17.6223 17.5279 13.8745L17.5279 0L22 0L22 14.1697C22 19.9886 18.0175 24 11.0003 24C3.98249 24 0 19.9886 0 14.1369L0 0L4.47206 0Z" transform="translate(185 0)" id="Fill-16" fill="#000" fill-rule="evenodd" stroke="none" />
    <path d="M0 0L5.09991 0L16.3777 15.2251C17.0315 16.1645 17.5545 17.0398 17.9141 17.9137L17.9794 17.9137C17.9467 17.0067 17.9467 16.068 17.9467 14.9336L17.9467 0L22 0L22 23L17.1622 23L5.62291 7.6129C5.00119 6.67351 4.44615 5.79826 4.11928 4.98845L4.02056 4.98845C4.05325 5.8637 4.05325 6.80243 4.05325 7.93682L4.05325 23L0 23L0 0Z" transform="translate(213 0)" id="Fill-18" fill="#000" fill-rule="evenodd" stroke="none" />
    <path d="M10.3777 19.6312C15.4205 19.6312 18.3482 16.1969 18.3482 11.3056C18.3482 6.41437 15.2904 3.36882 10.2801 3.36882L4.45661 3.36882L4.45661 19.6312L10.3777 19.6312ZM0 0L10.638 0C18.088 0 23 4.27646 23 11.2733C23 18.3031 17.9904 23 10.6061 23L0 23L0 0Z" transform="translate(241 0)" id="Fill-20" fill="#000" fill-rule="evenodd" stroke="none" />
    <path d="M6.93562 6.46469C6.93562 5.53953 6.38357 4.81652 4.80754 4.81652L1.07717 4.81652L1.07717 8.15025L4.71396 8.15025C6.39704 8.15025 6.93562 7.40252 6.93562 6.46469L6.93562 6.46469ZM1.07717 0.849116L1.07717 3.9674L4.60624 3.9674C6.39704 3.9674 6.69326 3.10561 6.69326 2.39527C6.69326 1.66021 6.28932 0.849116 4.57932 0.849116L1.07717 0.849116ZM8 6.52806C8 7.80807 7.19145 9 4.76715 9L0 9L0 0L4.61971 0C7.02987 0 7.74417 1.24199 7.74417 2.34457C7.74417 3.25706 7.21838 4.10681 6.03349 4.3476C7.35303 4.5377 8 5.36211 8 6.52806L8 6.52806Z" transform="translate(2 39)" id="Fill-22" fill="#000" fill-rule="evenodd" stroke="none" />
    <path d="M3.94972 5.51419L0 0L1.23242 0L4.13524 4.08146C4.30752 4.32226 4.41353 4.49968 4.47979 4.66444L4.50629 4.66444C4.5593 4.49968 4.67857 4.32226 4.85084 4.08146L7.76691 0L9 0L5.00987 5.51419L5.00987 9L3.94972 9L3.94972 5.51419Z" transform="translate(10 39)" id="Fill-24" fill="#000" fill-rule="evenodd" stroke="none" />
    <path d="M0 50L264 50L264 0L0 0L0 50Z" id="Clip-27" fill="none" fill-rule="evenodd" stroke="none" />
    <g clip-path="url(#mask_2)">
      <path d="M0 9L1 9L1 0L0 0L0 9Z" transform="translate(25 39)" id="Fill-26" fill="#000" fill-rule="evenodd" stroke="none" />
      <path d="M0 0L1.38319 0L7.3309 6.95895C7.6161 7.32711 7.81573 7.59262 7.97259 7.90946L8.00111 7.90946C7.98685 7.59262 7.97259 7.27579 7.97259 6.84489L7.97259 0L9 0L9 9L7.6874 9L1.66838 1.96501C1.38319 1.60952 1.18355 1.34338 1.0267 1.02654L0.998178 1.02654C1.01244 1.33134 1.0267 1.66021 1.0267 2.07843L1.0267 9L0 9L0 0Z" transform="translate(29 39)" id="Fill-28" fill="#000" fill-rule="evenodd" stroke="none" />
      <path d="M7 8.15025L7 9L0 9L0 0L6.90895 0L6.90895 0.849116L1.02824 0.849116L1.02824 3.96677L6.68782 3.96677L6.68782 4.80384L1.02824 4.80384L1.02824 8.15025L7 8.15025Z" transform="translate(41 39)" id="Fill-29" fill="#000" fill-rule="evenodd" stroke="none" />
      <path d="M0 9L1 9L1 0L0 0L0 9Z" transform="translate(50 39)" id="Fill-30" fill="#000" fill-rule="evenodd" stroke="none" />
      <path d="M0 4.488C0 1.81176 1.78947 0 4.75985 0C7.19721 0 8.65734 1.20044 9 3.07219L7.95868 3.16818C7.66742 1.70377 6.51188 0.803893 4.70909 0.803893C2.42466 0.803893 1.04068 2.2557 1.04068 4.476C1.04068 6.63632 2.41197 8.18471 4.73447 8.18471C6.44842 8.18471 7.61602 7.35622 8.01008 5.94041L9 6.08439C8.50504 7.82476 7.10837 9 4.70909 9C1.6505 9 0 7.08026 0 4.488" transform="translate(53 39)" id="Fill-31" fill="#000" fill-rule="evenodd" stroke="none" />
      <path d="M9 9L7.86748 9L7.86748 4.81652L1.11766 4.81652L1.11766 9L0 9L0 0L1.11766 0L1.11766 3.9674L7.86748 3.9674L7.86748 0L9 0L9 9Z" transform="translate(64 39)" id="Fill-32" fill="#000" fill-rule="evenodd" stroke="none" />
      <path d="M7 8.15025L7 9L0 9L0 0L6.90894 0L6.90894 0.849116L1.02769 0.849116L1.02769 3.96677L6.68779 3.96677L6.68779 4.80384L1.02769 4.80384L1.02769 8.15025L7 8.15025Z" transform="translate(76 39)" id="Fill-33" fill="#000" fill-rule="evenodd" stroke="none" />
      <path d="M0 0L1.38319 0L7.3309 6.95895C7.61681 7.32711 7.81573 7.59262 7.9733 7.90946L8.00182 7.90946C7.98756 7.59262 7.9733 7.27579 7.9733 6.84489L7.9733 0L9 0L9 9L7.68811 9L1.6691 1.96501C1.38319 1.60952 1.18427 1.34338 1.0267 1.02654L0.998178 1.02654C1.01244 1.33134 1.0267 1.66021 1.0267 2.07843L1.0267 9L0 9L0 0Z" transform="translate(84 39)" id="Fill-34" fill="#000" fill-rule="evenodd" stroke="none" />
      <path d="M6.50463 0.849116L0.236008 0.849116L0.236008 0L7.76334 0L7.76334 0.874463L1.23248 8.15025L8 8.15025L8 9L0 9L0 8.1249L6.50463 0.849116Z" transform="translate(100 39)" id="Fill-35" fill="#000" fill-rule="evenodd" stroke="none" />
      <path d="M1.1219 0L1.1219 5.30151C1.1219 6.96617 2.34243 8.14949 4.50035 8.14949C6.65757 8.14949 7.87881 6.96617 7.87881 5.30151L7.87881 0L9 0L9 5.35082C9 7.49558 7.39628 9 4.50035 9C1.59024 9 0 7.49558 0 5.35082L0 0L1.1219 0Z" transform="translate(109 39)" id="Fill-36" fill="#000" fill-rule="evenodd" stroke="none" />
      <path d="M1.06295 4.33556L4.42518 4.33556C6.02026 4.33556 6.5916 3.53651 6.5916 2.586C6.5916 1.62283 6.03289 0.849116 4.43847 0.849116L1.06295 0.849116L1.06295 4.33556ZM4.21259 5.18468L1.06295 5.18468L1.06295 9L0 9L0 0L4.55805 0C6.97691 0 7.68112 1.29268 7.68112 2.586C7.68112 3.65057 7.05597 4.7785 5.36854 5.05795L8 9L6.76432 9L4.21259 5.18468Z" transform="translate(120 39)" id="Fill-37" fill="#000" fill-rule="evenodd" stroke="none" />
      <path d="M0 9L1 9L1 0L0 0L0 9Z" transform="translate(130 39)" id="Fill-38" fill="#000" fill-rule="evenodd" stroke="none" />
      <path d="M0 4.488C0 1.81176 1.78947 0 4.75985 0C7.19721 0 8.65734 1.20044 9 3.07219L7.95932 3.16818C7.66678 1.70377 6.51188 0.803893 4.70972 0.803893C2.42403 0.803893 1.04132 2.2557 1.04132 4.476C1.04132 6.63632 2.41197 8.18471 4.73511 8.18471C6.44842 8.18471 7.61602 7.35622 8.00945 5.94041L9 6.08439C8.50441 7.82476 7.10837 9 4.70972 9C1.6505 9 0 7.08026 0 4.488" transform="translate(133 39)" id="Fill-39" fill="#000" fill-rule="evenodd" stroke="none" />
      <path d="M9 9L7.86819 9L7.86819 4.81652L1.11837 4.81652L1.11837 9L0 9L0 0L1.11837 0L1.11837 3.9674L7.86819 3.9674L7.86819 0L9 0L9 9Z" transform="translate(144 39)" id="Fill-40" fill="#000" fill-rule="evenodd" stroke="none" />
      <path d="M0 2.52832C0.905233 2.28704 1.07591 1.94779 1.07591 1.41564L1.07591 1.39145L0.0377181 1.39145L0.0377181 0L2 0L2 1.27051C2 2.20177 1.5851 2.68615 0.377181 3L0 2.52832Z" transform="translate(155 47)" id="Fill-41" fill="#000" fill-rule="evenodd" stroke="none" />
      <path d="M7 8.15025L7 9L0 9L0 0L6.9083 0L6.9083 0.849116L1.02824 0.849116L1.02824 3.96677L6.68782 3.96677L6.68782 4.80384L1.02824 4.80384L1.02824 8.15025L7 8.15025Z" transform="translate(164 39)" id="Fill-42" fill="#000" fill-rule="evenodd" stroke="none" />
      <path d="M0 6.14397L1.1725 6.012C1.4409 7.32034 2.58586 8.20756 4.8461 8.20756C6.655 8.20756 7.84233 7.71626 7.84233 6.57648C7.84233 5.5075 7.06467 5.12418 5.49592 4.93161L3.29218 4.68026C1.51224 4.45231 0.466175 3.78044 0.466175 2.40012C0.466175 0.911818 1.96359 0 4.47881 0C6.96578 0 8.56208 0.815837 8.90182 2.55609L7.75687 2.74805C7.47434 1.43971 6.45723 0.767846 4.46468 0.767846C2.68474 0.767846 1.62526 1.33233 1.62526 2.32813C1.62526 3.21596 2.24682 3.65987 3.74423 3.85243L5.92042 4.11578C7.87059 4.36773 9 4.9802 9 6.4805C9 8.0042 7.57393 9 4.81785 9C1.87883 9 0.32491 7.90762 0 6.14397" transform="translate(172 39)" id="Fill-43" fill="#000" fill-rule="evenodd" stroke="none" />
      <path d="M9 0.849116L5.05737 0.849116L5.05737 9L3.92835 9L3.92835 0.849116L0 0.849116L0 0L9 0L9 0.849116Z" transform="translate(180 39)" id="Fill-44" fill="#000" fill-rule="evenodd" stroke="none" />
      <path d="M0 2L2 2L2 0L0 0L0 2Z" transform="translate(189 46)" id="Fill-45" fill="#000" fill-rule="evenodd" stroke="none" />
      <path d="M2.1397 1.68362C1.84906 2.17556 1.12827 2.52575 0.360395 2.52575L0 2.52575L0 1.64478L0.220887 1.64478C1.22127 1.64478 2.01182 1.01043 2.25596 0L3 0L3 9L2.1397 9L2.1397 1.68362Z" transform="translate(196 39)" id="Fill-46" fill="#000" fill-rule="evenodd" stroke="none" />
      <path d="M6.85074 2.9136C6.5566 1.66632 5.64545 0.777618 3.83857 0.777618C2.12974 0.777618 1.05121 1.55585 1.05121 2.81485C1.05121 4.13557 2.12974 4.8274 3.78254 4.8274C5.37932 4.8274 6.58461 4.04978 6.85074 2.9136M8 4.32072C8 7.12323 6.68266 9 3.88059 9C1.83559 9 0.476232 8.13598 0.154075 6.6295L1.20459 6.43201C1.49873 7.60523 2.33984 8.22238 3.8946 8.22238C5.99632 8.22238 6.96279 6.75355 6.96279 4.33368L6.96279 4.0862C6.45855 5.01255 5.26727 5.61736 3.65648 5.61736C1.48542 5.61736 0 4.65398 0 2.8272C0 1.16026 1.49873 0 3.83857 0C6.54259 0 8 1.46883 8 4.32072" transform="translate(202 39)" id="Fill-47" fill="#000" fill-rule="evenodd" stroke="none" />
      <path d="M1.96497 8.83106C1.96497 5.89233 3.43496 3.18534 5.81621 0.880969L0 0.880969L0 0L7 0L7 0.764456C4.59338 2.92707 3.08372 5.64571 3.07071 8.75403L3.07071 9L1.96497 9L1.96497 8.83106Z" transform="translate(210 39)" id="Fill-48" fill="#000" fill-rule="evenodd" stroke="none" />
      <path d="M0 6.30858L1.04391 6.19749C1.19908 7.4318 2.21548 8.22238 4.09169 8.22238C5.92559 8.22238 6.94199 7.5682 6.94199 6.40732C6.94199 5.24707 5.91218 4.70335 4.17634 4.70335L3.30171 4.70335L3.30171 3.93808L4.1058 3.93808C5.62934 3.93808 6.60272 3.40794 6.60272 2.34581C6.60272 1.35836 5.68648 0.777618 3.96473 0.777618C2.15905 0.777618 1.21319 1.59226 1.15676 2.85188L0.169282 2.67908C0.22571 1.0862 1.56657 0 4.02116 0C6.42003 0 7.66144 0.901049 7.66144 2.2841C7.66144 3.40794 6.71557 4.0862 5.51649 4.24666C6.99841 4.40773 8 5.08661 8 6.3956C8 7.92615 6.67396 9 4.06348 9C1.62229 9 0.155175 7.92615 0 6.30858" transform="translate(217 39)" id="Fill-49" fill="#000" fill-rule="evenodd" stroke="none" />
    </g>
  </g>
</svg>