<?xml version="1.0" encoding="utf-8"?>
<svg width="300px" height="55px" viewbox="0 0 300 55" version="1.1" xmlns:xlink="http://www.w3.org/1999/xlink" xmlns="http://www.w3.org/2000/svg">
  <defs>
    <path d="M0 0L26.3256 0L26.3256 27.848L0 27.848L0 0Z" transform="translate(0 0.0106188115)" id="path_1" />
    <path d="M0 54.1975L299.851 54.1975L299.851 0L0 0L0 54.1975Z" transform="translate(0 0.010375977)" id="path_2" />
    <clipPath id="mask_1">
      <use xlink:href="#path_1" />
    </clipPath>
    <clipPath id="mask_2">
      <use xlink:href="#path_2" />
    </clipPath>
  </defs>
  <g id="Group-50">
    <g id="Group-3">
      <path d="M0 0L26.3256 0L26.3256 27.848L0 27.848L0 0Z" transform="translate(0 0.0106188115)" id="Clip-2" fill="none" fill-rule="evenodd" stroke="none" />
      <g clip-path="url(#mask_1)">
        <path d="M0 13.8869C0 5.60644 5.23589 0 13.924 0C21.0535 0 25.324 3.71287 26.3257 9.50569L23.2812 9.80198C22.4272 5.27228 19.0485 2.48688 13.7755 2.48688C7.09233 2.48688 3.0453 6.9802 3.0453 13.849C3.0453 20.5329 7.0552 25.3225 13.8498 25.3225C18.8629 25.3225 22.2787 22.7606 23.4297 18.3795L26.3257 18.825C24.8777 24.2087 20.7936 27.848 13.7755 27.848C4.82673 27.848 0 21.9074 0 13.8869" transform="translate(-0.00014851485 0.0106188115)" id="Fill-1" fill="#1D1D1B" fill-rule="evenodd" stroke="none" />
      </g>
    </g>
    <path d="M23.6153 26.3629L20.6451 26.3629L20.6451 14.1097L2.93317 14.1097L2.93317 26.3629L0 26.3629L0 0L2.93317 0L2.93317 11.6213L20.6451 11.6213L20.6451 0L23.6153 0L23.6153 26.3629Z" transform="translate(32.26471 0.75305176)" id="Fill-4" fill="#1D1D1B" fill-rule="evenodd" stroke="none" />
    <path d="M2.9703 12.6988L12.3639 12.6988C16.82 12.6988 18.4166 10.3597 18.4166 7.575C18.4166 4.75322 16.8572 2.48762 12.4017 2.48762L2.9703 2.48762L2.9703 12.6988ZM11.7705 15.1871L2.9703 15.1871L2.9703 26.3629L0 26.3629L0 0L12.7351 0C19.4933 0 21.4611 3.78713 21.4611 7.575C21.4611 10.6938 19.7161 13.9983 15.0007 14.8158L22.353 26.3629L18.8993 26.3629L11.7705 15.1871Z" transform="translate(64.15784 0.75268555)" id="Fill-6" fill="#1D1D1B" fill-rule="evenodd" stroke="none" />
    <path d="M24.952 13.924C24.952 6.90668 20.6079 2.48762 13.999 2.48762C7.42649 2.48762 3.08168 6.90668 3.08168 13.924C3.08168 20.8678 7.42649 25.3597 13.999 25.3597C20.6079 25.3597 24.952 20.9413 24.952 13.924M0 13.924C0 5.34653 5.68144 0 13.999 0C22.3158 0 28.0337 5.34653 28.0337 13.924C28.0337 22.4644 22.3158 27.848 13.999 27.848C5.68144 27.848 0 22.3894 0 13.924" transform="translate(89.219025 0.010498047)" id="Fill-8" fill="#1D1D1B" fill-rule="evenodd" stroke="none" />
    <path d="M0 0L3.60223 0L19.0856 20.3844C19.8282 21.4611 20.348 22.2408 20.7564 23.1698L20.8307 23.1698C20.7936 22.2408 20.7564 21.3126 20.7564 20.0502L20.7564 0L23.4297 0L23.4297 26.3629L20.0139 26.3629L4.3448 5.75495C3.60223 4.71609 3.08168 3.93564 2.67401 3.00743L2.59901 3.00743C2.63614 3.89851 2.67401 4.86386 2.67401 6.08911L2.67401 26.3629L0 26.3629L0 0Z" transform="translate(122.96912 0.75305176)" id="Fill-10" fill="#1D1D1B" fill-rule="evenodd" stroke="none" />
    <path d="M24.9527 13.924C24.9527 6.90668 20.6079 2.48762 13.999 2.48762C7.42649 2.48762 3.08168 6.90668 3.08168 13.924C3.08168 20.8678 7.42649 25.3597 13.999 25.3597C20.6079 25.3597 24.9527 20.9413 24.9527 13.924M0 13.924C0 5.34653 5.68144 0 13.999 0C22.3166 0 28.0344 5.34653 28.0344 13.924C28.0344 22.4644 22.3166 27.848 13.999 27.848C5.68144 27.848 0 22.3894 0 13.924" transform="translate(152.15222 0.010498047)" id="Fill-12" fill="#1D1D1B" fill-rule="evenodd" stroke="none" />
    <path d="M5.08738 3.93564L5.08738 11.1394L20.0881 11.1394L20.0881 15.0379L5.08738 15.0379L5.08738 26.3629L0 26.3629L0 0L20.7193 0L20.7193 3.93564L5.08738 3.93564Z" transform="translate(185.27145 0.7529297)" id="Fill-14" fill="#1D1D1B" fill-rule="evenodd" stroke="none" />
    <path d="M5.08738 0L5.08738 15.6698C5.08738 19.9025 7.76139 22.9099 12.5139 22.9099C17.2292 22.9099 19.9396 19.9025 19.9396 15.6698L19.9396 0L25.027 0L25.027 16.0032C25.027 22.575 20.4965 27.1054 12.5139 27.1054C4.53045 27.1054 0 22.575 0 15.9661L0 0L5.08738 0Z" transform="translate(210.22092 0.75305176)" id="Fill-16" fill="#1D1D1B" fill-rule="evenodd" stroke="none" />
    <path d="M0 0L5.79282 0L18.603 17.4512C19.3455 18.528 19.9396 19.5312 20.348 20.5329L20.4223 20.5329C20.3851 19.4933 20.3851 18.4173 20.3851 17.1171L20.3851 0L24.9891 0L24.9891 26.3629L19.4941 26.3629L6.38688 8.72599C5.68069 7.64926 5.05025 6.64604 4.67896 5.71782L4.56683 5.71782C4.60396 6.72104 4.60396 7.79703 4.60396 9.09728L4.60396 26.3629L0 26.3629L0 0Z" transform="translate(241.55731 0.75305176)" id="Fill-18" fill="#1D1D1B" fill-rule="evenodd" stroke="none" />
    <path d="M11.8448 22.5015C17.6005 22.5015 20.9421 18.5651 20.9421 12.9587C20.9421 7.35223 17.452 3.86139 11.7334 3.86139L5.08663 3.86139L5.08663 22.5015L11.8448 22.5015ZM0 0L12.1418 0C20.6451 0 26.2515 4.90173 26.2515 12.9215C26.2515 20.9792 20.5337 26.3629 12.1054 26.3629L0 26.3629L0 0Z" transform="translate(273.59912 0.7529297)" id="Fill-20" fill="#1D1D1B" fill-rule="evenodd" stroke="none" />
    <path d="M7.65 7.57574C7.65 6.49158 7.04109 5.64431 5.30272 5.64431L1.18812 5.64431L1.18812 9.55173L5.1995 9.55173C7.05594 9.55173 7.65 8.67475 7.65 7.57574L7.65 7.57574ZM1.18812 0.995049L1.18812 4.64926L5.08069 4.64926C7.05594 4.64926 7.38267 3.63936 7.38267 2.80767C7.38267 1.94554 6.93713 0.995049 5.05099 0.995049L1.18812 0.995049ZM8.82401 7.65C8.82401 9.15074 7.93218 10.5468 5.25817 10.5468L0 10.5468L0 0L5.09554 0C7.75396 0 8.54183 1.45545 8.54183 2.74827C8.54183 3.81757 7.96188 4.81262 6.65495 5.0948C8.1104 5.31757 8.82401 6.28366 8.82401 7.65L8.82401 7.65Z" transform="translate(26.978912 41.685425)" id="Fill-22" fill="#1D1D1B" fill-rule="evenodd" stroke="none" />
    <path d="M4.42649 6.46188L0 0L1.38119 0L4.63441 4.78292C4.82748 5.06584 4.94629 5.27302 5.02054 5.46683L5.05025 5.46683C5.10965 5.27302 5.24332 5.06584 5.43639 4.78292L8.70446 0L10.0864 0L5.6146 6.46188L5.6146 10.5468L4.42649 10.5468L4.42649 6.46188Z" transform="translate(36.231445 41.685425)" id="Fill-24" fill="#1D1D1B" fill-rule="evenodd" stroke="none" />
    <path d="M0 54.1975L299.851 54.1975L299.851 0L0 0L0 54.1975Z" transform="translate(0 0.010375977)" id="Clip-27" fill="none" fill-rule="evenodd" stroke="none" />
    <g clip-path="url(#mask_2)">
      <path d="M0 10.5468L1.17327 10.5468L1.17327 0L0 0L0 10.5468Z" transform="translate(52.98416 41.68518)" id="Fill-26" fill="#1D1D1B" fill-rule="evenodd" stroke="none" />
      <path d="M0 0L1.44059 0L7.63515 8.15495C7.93292 8.58639 8.1401 8.89752 8.30421 9.26955L8.33391 9.26955C8.31906 8.89752 8.30421 8.52624 8.30421 8.02129L8.30421 0L9.37352 0L9.37352 10.5468L8.00718 10.5468L1.73837 2.30272C1.44059 1.88688 1.23342 1.575 1.06931 1.20371L1.0396 1.20371C1.05446 1.56015 1.06931 1.94629 1.06931 2.43639L1.06931 10.5468L0 10.5468L0 0Z" transform="translate(57.483704 41.685303)" id="Fill-28" fill="#1D1D1B" fill-rule="evenodd" stroke="none" />
      <path d="M7.99158 9.55173L7.99158 10.5468L0 10.5468L0 0L7.88762 0L7.88762 0.995792L1.17327 0.995792L1.17327 4.64926L7.63515 4.64926L7.63515 5.6302L1.17327 5.6302L1.17327 9.55173L7.99158 9.55173Z" transform="translate(70.18231 41.68518)" id="Fill-29" fill="#1D1D1B" fill-rule="evenodd" stroke="none" />
      <path d="M0 10.5468L1.17401 10.5468L1.17401 0L0 0L0 10.5468Z" transform="translate(80.93466 41.68518)" id="Fill-30" fill="#1D1D1B" fill-rule="evenodd" stroke="none" />
      <path d="M0 5.5552C0 2.24257 2.09406 0 5.57005 0C8.42228 0 10.1309 1.48515 10.5319 3.80272L9.31337 3.92153C8.97252 2.10891 7.6203 0.995049 5.51064 0.995049C2.83738 0.995049 1.21782 2.79208 1.21782 5.54035C1.21782 8.21436 2.82253 10.1302 5.54035 10.1302C7.54604 10.1302 8.91238 9.10544 9.37352 7.35223L10.5319 7.53119C9.95272 9.68465 8.31832 11.1401 5.51064 11.1401C1.93144 11.1401 0 8.76386 0 5.5552" transform="translate(84.40967 41.38867)" id="Fill-31" fill="#1D1D1B" fill-rule="evenodd" stroke="none" />
      <path d="M9.44777 10.5468L8.25891 10.5468L8.25891 5.64431L1.17327 5.64431L1.17327 10.5468L0 10.5468L0 0L1.17327 0L1.17327 4.64926L8.25891 4.64926L8.25891 0L9.44777 0L9.44777 10.5468Z" transform="translate(97.31525 41.685425)" id="Fill-32" fill="#1D1D1B" fill-rule="evenodd" stroke="none" />
      <path d="M7.99158 9.55173L7.99158 10.5468L0 10.5468L0 0L7.88762 0L7.88762 0.995792L1.17327 0.995792L1.17327 4.64926L7.63515 4.64926L7.63515 5.6302L1.17327 5.6302L1.17327 9.55173L7.99158 9.55173Z" transform="translate(110.08774 41.68518)" id="Fill-33" fill="#1D1D1B" fill-rule="evenodd" stroke="none" />
      <path d="M0 0L1.44059 0L7.63515 8.15495C7.93292 8.58639 8.1401 8.89752 8.30421 9.26955L8.33391 9.26955C8.31906 8.89752 8.30421 8.52624 8.30421 8.02129L8.30421 0L9.37352 0L9.37352 10.5468L8.00718 10.5468L1.73837 2.30272C1.44059 1.88688 1.23342 1.575 1.06931 1.20371L1.0396 1.20371C1.05446 1.56015 1.06931 1.94629 1.06931 2.43639L1.06931 10.5468L0 10.5468L0 0Z" transform="translate(120.83972 41.685303)" id="Fill-34" fill="#1D1D1B" fill-rule="evenodd" stroke="none" />
      <path d="M7.36782 0.99505L0.267327 0.99505L0.267327 0L8.79356 0L8.79356 1.02475L1.39604 9.55099L9.06163 9.55099L9.06163 10.5468L0 10.5468L0 9.52129L7.36782 0.99505Z" transform="translate(137.51776 41.685547)" id="Fill-35" fill="#1D1D1B" fill-rule="evenodd" stroke="none" />
      <path d="M1.17401 0L1.17401 6.38762C1.17401 8.39332 2.45124 9.81906 4.70941 9.81906C6.96683 9.81906 8.2448 8.39332 8.2448 6.38762L8.2448 0L9.41807 0L9.41807 6.44703C9.41807 9.03193 7.73985 10.8438 4.70941 10.8438C1.66411 10.8438 0 9.03193 0 6.44703L0 0L1.17401 0Z" transform="translate(148.21094 41.685303)" id="Fill-36" fill="#1D1D1B" fill-rule="evenodd" stroke="none" />
      <path d="M1.18886 5.07995L4.94703 5.07995C6.72995 5.07995 7.36856 4.14431 7.36856 3.03045C7.36856 1.90099 6.74406 0.995049 4.96188 0.995049L1.18886 0.995049L1.18886 5.07995ZM4.70941 6.075L1.18886 6.075L1.18886 10.5468L0 10.5468L0 0L5.09554 0C7.79926 0 8.58639 1.51485 8.58639 3.03045C8.58639 4.27797 7.88762 5.59975 6.00148 5.92723L8.94282 10.5468L7.56163 10.5468L4.70941 6.075Z" transform="translate(160.62653 41.685547)" id="Fill-37" fill="#1D1D1B" fill-rule="evenodd" stroke="none" />
      <path d="M0 10.5468L1.17401 10.5468L1.17401 0L0 0L0 10.5468Z" transform="translate(171.98837 41.68518)" id="Fill-38" fill="#1D1D1B" fill-rule="evenodd" stroke="none" />
      <path d="M0 5.5552C0 2.24257 2.09406 0 5.57005 0C8.42228 0 10.1309 1.48515 10.5319 3.80272L9.31411 3.92153C8.97178 2.10891 7.6203 0.995049 5.51139 0.995049C2.83663 0.995049 1.21856 2.79208 1.21856 5.54035C1.21856 8.21436 2.82253 10.1302 5.54035 10.1302C7.54604 10.1302 8.91238 9.10544 9.37277 7.35223L10.5319 7.53119C9.95198 9.68465 8.31832 11.1401 5.51139 11.1401C1.93144 11.1401 0 8.76386 0 5.5552" transform="translate(175.46307 41.38867)" id="Fill-39" fill="#1D1D1B" fill-rule="evenodd" stroke="none" />
      <path d="M9.44777 10.5468L8.25965 10.5468L8.25965 5.64431L1.17401 5.64431L1.17401 10.5468L0 10.5468L0 0L1.17401 0L1.17401 4.64926L8.25965 4.64926L8.25965 0L9.44777 0L9.44777 10.5468Z" transform="translate(188.36874 41.685425)" id="Fill-40" fill="#1D1D1B" fill-rule="evenodd" stroke="none" />
      <path d="M0 3.1047C0.712871 2.80767 0.847277 2.39183 0.847277 1.73837L0.847277 1.70866L0.029703 1.70866L0.029703 0L1.575 0L1.575 1.55941C1.575 2.70371 1.24827 3.29777 0.29703 3.68391L0 3.1047Z" transform="translate(200.68091 50.523804)" id="Fill-41" fill="#1D1D1B" fill-rule="evenodd" stroke="none" />
      <path d="M7.99233 9.55173L7.99233 10.5468L0 10.5468L0 0L7.88762 0L7.88762 0.995792L1.17401 0.995792L1.17401 4.64926L7.63589 4.64926L7.63589 5.6302L1.17401 5.6302L1.17401 9.55173L7.99233 9.55173Z" transform="translate(210.11154 41.68518)" id="Fill-42" fill="#1D1D1B" fill-rule="evenodd" stroke="none" />
      <path d="M0 7.60545L1.23267 7.44208C1.51485 9.06089 2.71856 10.1599 5.0948 10.1599C6.99654 10.1599 8.2448 9.55173 8.2448 8.1401C8.2448 6.81757 7.42723 6.34233 5.77797 6.1047L3.46114 5.79356C1.58985 5.51064 0.490099 4.67896 0.490099 2.97104C0.490099 1.12871 2.06436 0 4.70866 0C7.32327 0 9.00149 1.0099 9.35866 3.16411L8.15495 3.40173C7.85792 1.78218 6.78861 0.950495 4.69381 0.950495C2.82253 0.950495 1.70866 1.64851 1.70866 2.88193C1.70866 3.98094 2.36213 4.53045 3.93639 4.76807L6.22426 5.0948C8.27451 5.40668 9.46188 6.16485 9.46188 8.02129C9.46188 9.90817 7.96262 11.1408 5.0651 11.1408C1.97525 11.1408 0.341584 9.78861 0 7.60545" transform="translate(219.49835 41.388428)" id="Fill-43" fill="#1D1D1B" fill-rule="evenodd" stroke="none" />
      <path d="M9.35866 0.99505L5.25891 0.99505L5.25891 10.5468L4.0849 10.5468L4.0849 0.99505L0 0.99505L0 0L9.35866 0L9.35866 0.99505Z" transform="translate(229.35892 41.685547)" id="Fill-44" fill="#1D1D1B" fill-rule="evenodd" stroke="none" />
      <path d="M0 1.64926L1.53045 1.64926L1.53045 0L0 0L0 1.64926Z" transform="translate(238.77551 50.58264)" id="Fill-45" fill="#1D1D1B" fill-rule="evenodd" stroke="none" />
      <path d="M2.73342 1.93144C2.36213 2.49579 1.44134 2.89678 0.460396 2.89678L0 2.89678L0 1.88688L0.282178 1.88688C1.56015 1.88688 2.57005 1.15842 2.88193 0L3.83243 0L3.83243 10.324L2.73342 10.324L2.73342 1.93144Z" transform="translate(247.01764 41.90796)" id="Fill-46" fill="#1D1D1B" fill-rule="evenodd" stroke="none" />
      <path d="M7.26386 3.50569C6.95198 2.00495 5.98589 0.935644 4.07005 0.935644C2.25817 0.935644 1.1146 1.87129 1.1146 3.38688C1.1146 4.97599 2.25817 5.80842 4.01064 5.80842C5.70371 5.80842 6.98168 4.87203 7.26386 3.50569M8.48243 5.19876C8.48243 8.57079 7.08564 10.829 4.1146 10.829C1.94629 10.829 0.504951 9.78936 0.163366 7.97673L1.27723 7.73911C1.58911 9.15074 2.48094 9.89332 4.12946 9.89332C6.35792 9.89332 7.38267 8.12525 7.38267 5.21361L7.38267 4.91658C6.84802 6.03045 5.5849 6.75891 3.87698 6.75891C1.575 6.75891 0 5.59975 0 3.40173C0 1.39604 1.58911 0 4.07005 0C6.93713 0 8.48243 1.76733 8.48243 5.19876" transform="translate(253.55249 41.685425)" id="Fill-47" fill="#1D1D1B" fill-rule="evenodd" stroke="none" />
      <path d="M2.24332 10.1309C2.24332 6.75891 3.92153 3.65421 6.6401 1.01064L0 1.01064L0 0L7.99158 0L7.99158 0.87698C5.24406 3.35718 3.52054 6.47673 3.50569 10.0418L3.50569 10.324L2.24332 10.324L2.24332 10.1309Z" transform="translate(262.8494 41.90796)" id="Fill-48" fill="#1D1D1B" fill-rule="evenodd" stroke="none" />
      <path d="M0 7.59059L1.09901 7.45693C1.26238 8.94208 2.33243 9.89332 4.30767 9.89332C6.23837 9.89332 7.30842 9.10619 7.30842 7.70941C7.30842 6.31337 6.22426 5.65916 4.39678 5.65916L3.47599 5.65916L3.47599 4.73837L4.32253 4.73837C5.92649 4.73837 6.95124 4.09975 6.95124 2.82252C6.95124 1.63441 5.98663 0.935644 4.17401 0.935644C2.27302 0.935644 1.27723 1.91584 1.21782 3.43144L0.178218 3.22351C0.237624 1.30693 1.64926 0 4.23342 0C6.75891 0 8.06584 1.08416 8.06584 2.74827C8.06584 4.09975 7.07005 4.91658 5.80767 5.10965C7.36782 5.30272 8.42228 6.1203 8.42228 7.69455C8.42228 9.53688 7.02624 10.829 4.27797 10.829C1.70792 10.829 0.163366 9.53688 0 7.59059" transform="translate(271.46405 41.685425)" id="Fill-49" fill="#1D1D1B" fill-rule="evenodd" stroke="none" />
    </g>
  </g>
</svg>