<?xml version="1.0" encoding="utf-8"?>
<svg width="207px" height="76px" viewBox="0 0 207 76" version="1.1" xmlns:xlink="http://www.w3.org/1999/xlink" xmlns="http://www.w3.org/2000/svg">
  <desc>Created with Lunacy</desc>
  <g id="Chroofond-white">
    <g id="BY-INEICHEN-AUCTIONEERS" fill="#FFFFFF" transform="translate(4.724319 36)">
      <path d="M52.8878 13.7222Q54.108 15.0962 56.1861 15.0962Q57.8883 15.0962 58.9923 14.2451Q60.0963 13.394 60.3766 11.8628L58.8521 11.8628Q58.6197 12.7583 57.919 13.2573Q57.2184 13.7563 56.193 13.7563Q54.8326 13.7563 54.0328 12.7412Q53.233 11.7261 53.233 9.99658Q53.233 8.2876 54.0362 7.26563Q54.8395 6.24365 56.1861 6.24365Q57.191 6.24365 57.919 6.81445Q58.6471 7.38525 58.8521 8.33545L60.3697 8.33545Q60.1783 6.79736 59.023 5.85059Q57.8678 4.90381 56.1861 4.90381Q54.1148 4.90381 52.8912 6.28125Q51.6676 7.65869 51.6676 9.99658Q51.6676 12.3481 52.8878 13.7222ZM118.432 13.7222Q119.653 15.0962 121.731 15.0962Q123.433 15.0962 124.537 14.2451Q125.641 13.394 125.921 11.8628L124.397 11.8628Q124.164 12.7583 123.464 13.2573Q122.763 13.7563 121.737 13.7563Q120.377 13.7563 119.577 12.7412Q118.778 11.7261 118.778 9.99658Q118.778 8.2876 119.581 7.26563Q120.384 6.24365 121.731 6.24365Q122.736 6.24365 123.464 6.81445Q124.192 7.38525 124.397 8.33545L125.914 8.33545Q125.723 6.79736 124.568 5.85059Q123.412 4.90381 121.731 4.90381Q119.659 4.90381 118.436 6.28125Q117.212 7.65869 117.212 9.99658Q117.212 12.3481 118.432 13.7222ZM146.354 4.90381Q148.48 4.90381 149.728 6.27783Q150.976 7.65186 150.976 10.0034Q150.976 12.355 149.731 13.7256Q148.487 15.0962 146.354 15.0962Q144.222 15.0962 142.978 13.7256Q141.733 12.355 141.733 10.0034Q141.733 7.65186 142.978 6.27783Q144.222 4.90381 146.354 4.90381ZM192.963 12.1841L191.452 12.1841Q191.521 13.5171 192.543 14.3066Q193.565 15.0962 195.212 15.0962Q196.969 15.0962 197.994 14.2861Q199.02 13.4761 199.02 12.0952Q199.02 11.0083 198.347 10.3623Q197.673 9.71631 196.156 9.36084L195.069 9.09424Q194.112 8.85498 193.695 8.52344Q193.278 8.19189 193.278 7.67236Q193.278 7.01611 193.835 6.60596Q194.392 6.1958 195.281 6.1958Q196.176 6.1958 196.74 6.61963Q197.304 7.04346 197.372 7.7749L198.863 7.7749Q198.828 6.49658 197.844 5.7002Q196.86 4.90381 195.301 4.90381Q193.715 4.90381 192.714 5.70361Q191.712 6.50342 191.712 7.7749Q191.712 8.80713 192.358 9.45654Q193.004 10.106 194.365 10.4341L195.643 10.7417Q196.6 10.9741 197.031 11.3398Q197.461 11.7056 197.461 12.2798Q197.461 12.9429 196.856 13.3735Q196.251 13.8042 195.322 13.8042Q194.344 13.8042 193.695 13.3599Q193.045 12.9155 192.963 12.1841ZM4.86719 14.9321L0.90918 14.9321L0.90918 5.06787L4.84668 5.06787Q6.15918 5.06787 6.95215 5.74121Q7.74512 6.41455 7.74512 7.52881Q7.74512 8.31494 7.23584 8.93359Q6.72656 9.55225 5.98828 9.67529L5.98828 9.72998Q7 9.84619 7.61523 10.5059Q8.23047 11.1655 8.23047 12.1431Q8.23047 13.4487 7.33496 14.1904Q6.43945 14.9321 4.86719 14.9321ZM14.8889 14.9321L13.3577 14.9321L13.3577 10.8921L9.88503 5.06787L11.594 5.06787L14.1096 9.42236L14.1575 9.42236L16.6731 5.06787L18.3684 5.06787L14.8889 10.8921L14.8889 14.9321ZM23.3589 14.9321L24.8902 14.9321L24.8902 5.06787L23.3589 5.06787L23.3589 14.9321ZM29.2654 14.9321L27.7752 14.9321L27.7752 5.06787L29.1629 5.06787L34.2762 12.3413L34.3309 12.3413L34.3309 5.06787L35.8211 5.06787L35.8211 14.9321L34.4402 14.9321L29.327 7.66553L29.2654 7.66553L29.2654 14.9321ZM44.9678 14.9321L44.9678 13.606L40.2374 13.606L40.2374 10.5435L44.7149 10.5435L44.7149 9.27197L40.2374 9.27197L40.2374 6.38721L44.9678 6.38721L44.9678 5.06787L38.7061 5.06787L38.7061 14.9321L44.9678 14.9321ZM49.138 14.9321L47.6068 14.9321L47.6068 5.06787L49.138 5.06787L49.138 14.9321ZM70.952 14.9321L69.4208 14.9321L69.4208 10.564L64.3553 10.564L64.3553 14.9321L62.8241 14.9321L62.8241 5.06787L64.3553 5.06787L64.3553 9.23779L69.4208 9.23779L69.4208 5.06787L70.952 5.06787L70.952 14.9321ZM80.0919 14.9321L80.0919 13.606L75.3615 13.606L75.3615 10.5435L79.839 10.5435L79.839 9.27197L75.3615 9.27197L75.3615 6.38721L80.0919 6.38721L80.0919 5.06787L73.8302 5.06787L73.8302 14.9321L80.0919 14.9321ZM84.2211 14.9321L82.7309 14.9321L82.7309 5.06787L84.1186 5.06787L89.2318 12.3413L89.2865 12.3413L89.2865 5.06787L90.7768 5.06787L90.7768 14.9321L89.3959 14.9321L84.2826 7.66553L84.2211 7.66553L84.2211 14.9321ZM102.022 12.2661L102.924 14.9321L104.545 14.9321L100.983 5.06787L99.3288 5.06787L95.7673 14.9321L97.36 14.9321L98.2624 12.2661L102.022 12.2661ZM108.229 5.06787L108.229 11.3364Q108.229 12.4165 108.882 13.0762Q109.535 13.7358 110.69 13.7358Q111.846 13.7358 112.502 13.0762Q113.158 12.4165 113.158 11.3364L113.158 5.06787L114.683 5.06787L114.683 11.4663Q114.683 13.0864 113.602 14.0913Q112.522 15.0962 110.69 15.0962Q108.858 15.0962 107.778 14.0913Q106.698 13.0864 106.698 11.4663L106.698 5.06787L108.229 5.06787ZM132.347 14.9321L130.816 14.9321L130.816 6.38721L127.794 6.38721L127.794 5.06787L135.362 5.06787L135.362 6.38721L132.347 6.38721L132.347 14.9321ZM137.673 14.9321L139.204 14.9321L139.204 5.06787L137.673 5.06787L137.673 14.9321ZM153.498 14.9321L154.989 14.9321L154.989 7.66553L155.05 7.66553L160.163 14.9321L161.544 14.9321L161.544 5.06787L160.054 5.06787L160.054 12.3413L159.999 12.3413L154.886 5.06787L153.498 5.06787L153.498 14.9321ZM170.691 13.606L170.691 14.9321L164.429 14.9321L164.429 5.06787L170.691 5.06787L170.691 6.38721L165.96 6.38721L165.96 9.27197L170.438 9.27197L170.438 10.5435L165.96 10.5435L165.96 13.606L170.691 13.606ZM179.592 14.9321L179.592 13.606L174.861 13.606L174.861 10.5435L179.339 10.5435L179.339 9.27197L174.861 9.27197L174.861 6.38721L179.592 6.38721L179.592 5.06787L173.33 5.06787L173.33 14.9321L179.592 14.9321ZM183.762 11.1382L183.762 14.9321L182.231 14.9321L182.231 5.06787L186.052 5.06787Q187.569 5.06787 188.458 5.88477Q189.347 6.70166 189.347 8.08252Q189.347 9.0874 188.837 9.84277Q188.328 10.5981 187.433 10.8989L189.641 14.9321L187.877 14.9321L185.867 11.1382L183.762 11.1382ZM146.354 6.25049Q144.946 6.25049 144.123 7.26221Q143.299 8.27393 143.299 10.0034Q143.299 11.7261 144.123 12.7378Q144.946 13.7495 146.354 13.7495Q147.756 13.7495 148.58 12.7378Q149.403 11.7261 149.403 10.0034Q149.403 8.27393 148.58 7.26221Q147.756 6.25049 146.354 6.25049ZM2.44043 6.31885L2.44043 9.26514L4.15625 9.26514Q5.14746 9.26514 5.68066 8.86865Q6.21387 8.47217 6.21387 7.74072Q6.21387 7.05713 5.7627 6.68799Q5.31152 6.31885 4.47754 6.31885L2.44043 6.31885ZM183.762 6.35303L183.762 9.90088L185.908 9.90088Q186.797 9.90088 187.282 9.43604Q187.768 8.97119 187.768 8.12354Q187.768 7.29639 187.262 6.82471Q186.756 6.35303 185.867 6.35303L183.762 6.35303ZM98.652 11.0356L100.122 6.7085L100.163 6.7085L101.632 11.0356L98.652 11.0356ZM2.44043 13.6812L4.55273 13.6812Q5.58496 13.6812 6.125 13.2642Q6.66504 12.8472 6.66504 12.0474Q6.66504 10.4341 4.46387 10.4341L2.44043 10.4341L2.44043 13.6812Z" />
    </g>
    <g id="EST.-1973" fill="#FFFFFF" transform="translate(76.24911 56)">
      <path d="M8.56663 11.9307L7.7639 11.9307Q7.82835 13.0205 8.68382 13.6914Q9.53929 14.3623 10.8635 14.3623Q12.2639 14.3623 13.0959 13.6914Q13.928 13.0205 13.928 11.9072Q13.928 11.0283 13.3596 10.501Q12.7912 9.97363 11.5139 9.65137L10.5998 9.41699Q9.66233 9.17676 9.24632 8.83398Q8.8303 8.49121 8.8303 7.94629Q8.8303 7.24902 9.40745 6.80664Q9.9846 6.36426 10.8694 6.36426Q11.7717 6.36426 12.3518 6.80078Q12.9319 7.23731 12.9905 7.95215L13.7932 7.95215Q13.758 6.94434 12.9407 6.29102Q12.1233 5.6377 10.8928 5.6377Q9.6389 5.6377 8.81858 6.29688Q7.99827 6.95605 7.99827 7.97559Q7.99827 8.80762 8.54026 9.3291Q9.08225 9.85059 10.26 10.1494L11.3088 10.4189Q12.2522 10.6592 12.6799 11.0313Q13.1076 11.4033 13.1076 11.9951Q13.1076 12.71 12.4953 13.1729Q11.883 13.6357 10.9338 13.6357Q9.94358 13.6357 9.28733 13.1641Q8.63108 12.6924 8.56663 11.9307ZM36.8039 13.7734Q37.548 14.3623 38.6144 14.3623Q40.1203 14.3623 40.9699 13.1553Q41.8195 11.9482 41.8195 9.82129Q41.8195 8.22754 41.2511 7.2373Q40.8644 6.46973 40.1935 6.05371Q39.5226 5.6377 38.6671 5.6377Q37.3956 5.6377 36.5636 6.45801Q35.7316 7.27832 35.7316 8.53223Q35.7316 9.72168 36.5314 10.5156Q37.3312 11.3096 38.5382 11.3096Q39.4054 11.3096 40.0968 10.8584Q40.7882 10.4072 41.0285 9.69238L41.0402 9.69238Q41.0402 9.72754 41.0431 9.79492Q41.046 9.8623 41.046 9.88574Q41.0167 11.6729 40.3839 12.666Q39.7511 13.6592 38.6203 13.6592Q37.8996 13.6592 37.3781 13.2607Q36.8566 12.8623 36.6984 12.2178L35.8839 12.2178Q36.0597 13.1846 36.8039 13.7734ZM52.9938 9.52246L52.9938 10.2021L54.0133 10.2021Q55.0328 10.2021 55.6188 10.665Q56.2047 11.1279 56.2047 11.9365Q56.2047 12.6865 55.607 13.1729Q55.0094 13.6592 54.0895 13.6592Q53.1813 13.6592 52.5924 13.2051Q52.0035 12.751 51.9566 12.0361L51.1832 12.0361Q51.2242 13.0615 52.027 13.7119Q52.8297 14.3623 54.0953 14.3623Q54.9098 14.3623 55.5777 14.0518Q56.2457 13.7412 56.6324 13.1787Q57.0191 12.6162 57.0191 11.9131Q57.0191 11.0166 56.442 10.457Q55.8648 9.89746 54.8922 9.83887L54.8922 9.81543Q55.7066 9.66895 56.1813 9.12988Q56.6559 8.59082 56.6559 7.7998Q56.6559 6.86231 55.9117 6.25Q55.1676 5.6377 54.0484 5.6377Q52.9059 5.6377 52.1705 6.26465Q51.4352 6.8916 51.359 7.91113L52.1324 7.91113Q52.1969 7.20801 52.7125 6.77441Q53.2281 6.34082 54.0133 6.34082Q54.857 6.34082 55.3522 6.77148Q55.8473 7.20215 55.8473 7.89941Q55.8473 8.6084 55.3258 9.06543Q54.8043 9.52246 53.9781 9.52246L52.9938 9.52246ZM5.89453 14.2275L5.89453 13.501L1.58789 13.501L1.58789 10.2549L5.67773 10.2549L5.67773 9.54004L1.58789 9.54004L1.58789 6.49902L5.89453 6.49902L5.89453 5.77246L0.791016 5.77246L0.791016 14.2275L5.89453 14.2275ZM19.0376 14.2275L18.2348 14.2275L18.2348 6.49902L15.4458 6.49902L15.4458 5.77246L21.8325 5.77246L21.8325 6.49902L19.0376 6.49902L19.0376 14.2275ZM32.1571 14.2275L32.1571 6.63379L32.1337 6.63379Q32.0517 6.68652 31.0263 7.39844Q30.0009 8.11035 29.8661 8.19238L29.8661 7.33691Q29.9716 7.27246 30.9911 6.56348Q32.0107 5.85449 32.1454 5.77246L32.9306 5.77246L32.9306 14.2275L32.1571 14.2275ZM44.515 14.2275L48.4349 6.51074L48.4349 6.4873L43.7299 6.4873L43.7299 5.77246L49.2377 5.77246L49.2377 6.52246L45.3646 14.2275L44.515 14.2275ZM40.1994 10.0029Q39.5753 10.6006 38.6671 10.6006Q37.7472 10.6006 37.1437 10Q36.5402 9.39941 36.5402 8.50879Q36.5402 7.60059 37.1554 6.97949Q37.7706 6.3584 38.673 6.3584Q39.5812 6.3584 40.2023 6.99414Q40.8234 7.62988 40.8234 8.5498Q40.8234 9.40527 40.1994 10.0029ZM24.4577 14.2803Q24.6862 14.2803 24.8444 14.1221Q25.0026 13.9639 25.0026 13.7354Q25.0026 13.501 24.8444 13.3428Q24.6862 13.1846 24.4577 13.1846Q24.2292 13.1846 24.0681 13.3428Q23.9069 13.501 23.9069 13.7354Q23.9069 13.9639 24.0681 14.1221Q24.2292 14.2803 24.4577 14.2803Z" />
    </g>
    <g id="CHRONOFUND">
      <g id="CHRONO" fill="#FFFFFF">
        <path d="M3.80127 25.9761Q6.41602 28.9204 10.8691 28.9204Q14.5166 28.9204 16.8823 27.0967Q19.248 25.2729 19.8486 21.9917L16.582 21.9917Q16.084 23.9106 14.5825 24.98Q13.0811 26.0493 10.8838 26.0493Q7.96875 26.0493 6.25488 23.874Q4.54102 21.6987 4.54102 17.9927Q4.54102 14.3306 6.26221 12.1406Q7.9834 9.95068 10.8691 9.95068Q13.0225 9.95068 14.5825 11.1738Q16.1426 12.397 16.582 14.4331L19.834 14.4331Q19.4238 11.1372 16.9482 9.1084Q14.4727 7.07959 10.8691 7.07959Q6.43066 7.07959 3.80859 10.0313Q1.18652 12.9829 1.18652 17.9927Q1.18652 23.0317 3.80127 25.9761ZM78.8892 10.0239Q76.2158 7.07959 71.6602 7.07959Q67.0898 7.07959 64.4238 10.0239Q61.7578 12.9683 61.7578 18.0073Q61.7578 23.0464 64.4238 25.9834Q67.0898 28.9204 71.6602 28.9204Q76.2305 28.9204 78.8965 25.9834Q81.5625 23.0464 81.5625 18.0073Q81.5625 12.9683 78.8892 10.0239ZM122.19 10.0239Q119.517 7.07959 114.961 7.07959Q110.391 7.07959 107.725 10.0239Q105.059 12.9683 105.059 18.0073Q105.059 23.0464 107.725 25.9834Q110.391 28.9204 114.961 28.9204Q119.531 28.9204 122.197 25.9834Q124.863 23.0464 124.863 18.0073Q124.863 12.9683 122.19 10.0239ZM36.9434 28.5688L40.2246 28.5688L40.2246 7.43115L36.9434 7.43115L36.9434 16.3667L26.0889 16.3667L26.0889 7.43115L22.8076 7.43115L22.8076 28.5688L26.0889 28.5688L26.0889 19.2085L36.9434 19.2085L36.9434 28.5688ZM47.3877 20.439L47.3877 28.5688L44.1064 28.5688L44.1064 7.43115L52.2949 7.43115Q55.5469 7.43115 57.4512 9.18164Q59.3555 10.9321 59.3555 13.8911Q59.3555 16.0444 58.2642 17.6631Q57.1729 19.2817 55.2539 19.9263L59.9854 28.5688L56.2061 28.5688L51.8994 20.439L47.3877 20.439ZM87.876 28.5688L84.6826 28.5688L84.6826 7.43115L87.6563 7.43115L98.6133 23.0171L98.7305 23.0171L98.7305 7.43115L101.924 7.43115L101.924 28.5688L98.9648 28.5688L88.0078 12.9976L87.876 12.9976L87.876 28.5688ZM66.8774 12.1333Q68.6426 9.96533 71.6602 9.96533Q74.6631 9.96533 76.4282 12.1333Q78.1934 14.3013 78.1934 18.0073Q78.1934 21.6987 76.4282 23.8667Q74.6631 26.0347 71.6602 26.0347Q68.6426 26.0347 66.8774 23.8667Q65.1123 21.6987 65.1123 18.0073Q65.1123 14.3013 66.8774 12.1333ZM110.178 12.1333Q111.943 9.96533 114.961 9.96533Q117.964 9.96533 119.729 12.1333Q121.494 14.3013 121.494 18.0073Q121.494 21.6987 119.729 23.8667Q117.964 26.0347 114.961 26.0347Q111.943 26.0347 110.178 23.8667Q108.413 21.6987 108.413 18.0073Q108.413 14.3013 110.178 12.1333ZM47.3877 10.1851L47.3877 17.7876L51.9873 17.7876Q53.8916 17.7876 54.9316 16.7915Q55.9717 15.7954 55.9717 13.979Q55.9717 12.2065 54.8877 11.1958Q53.8037 10.1851 51.8994 10.1851L47.3877 10.1851Z" />
      </g>
      <g id="FUND" fill="#FFFFFF">
        <path d="M127.793 28.5688L132.217 28.5688L132.217 20.2485L140.815 20.2485L140.815 16.7476L132.217 16.7476L132.217 11.0786L141.636 11.0786L141.636 7.43115L127.793 7.43115L127.793 28.5688ZM148.667 20.6587L148.667 7.43115L144.243 7.43115L144.243 21.0981Q144.243 24.6138 146.653 26.7744Q149.063 28.9351 153.105 28.9351Q157.134 28.9351 159.543 26.7744Q161.953 24.6138 161.953 21.0981L161.953 7.43115L157.529 7.43115L157.529 20.6587Q157.529 22.7241 156.365 23.9326Q155.2 25.1411 153.105 25.1411Q150.996 25.1411 149.832 23.9326Q148.667 22.7241 148.667 20.6587ZM169.702 28.5688L165.469 28.5688L165.469 7.43115L169.16 7.43115L179.033 21.2007L179.15 21.2007L179.15 7.43115L183.384 7.43115L183.384 28.5688L179.722 28.5688L169.834 14.7261L169.702 14.7261L169.702 28.5688ZM194.971 7.43115L186.899 7.43115L186.899 28.5688L194.971 28.5688Q199.731 28.5688 202.39 25.7563Q205.049 22.9438 205.049 17.9194Q205.049 12.9097 202.397 10.1704Q199.746 7.43115 194.971 7.43115ZM191.323 24.9067L191.323 11.0786L194.443 11.0786Q197.373 11.0786 198.955 12.8511Q200.537 14.6235 200.537 17.9341Q200.537 21.3472 198.977 23.127Q197.417 24.9067 194.443 24.9067L191.323 24.9067Z" />
      </g>
    </g>
  </g>
</svg>