<?xml version="1.0" encoding="utf-8"?>
<svg width="218px" height="54px" viewbox="0 0 218 54" version="1.1" xmlns:xlink="http://www.w3.org/1999/xlink" xmlns="http://www.w3.org/2000/svg">
  <defs>
    <path d="M0 0L19.6955 0L19.6955 20.1934L0 20.1934L0 0Z" transform="translate(0 0.2962077)" id="path_1" />
    <path d="M0 0L20.8629 0L20.8629 20.1933L0 20.1933L0 0Z" transform="translate(0.08201053 0.29615384)" id="path_2" />
    <path d="M0 0L20.328 0L20.328 20.1933L0 20.1933L0 0Z" transform="translate(0.48348463 0.29615384)" id="path_3" />
    <path d="M0 53L218 53L218 0L0 0L0 53Z" transform="translate(0 1)" id="path_4" />
    <clipPath id="mask_1">
      <use xlink:href="#path_1" />
    </clipPath>
    <clipPath id="mask_2">
      <use xlink:href="#path_2" />
    </clipPath>
    <clipPath id="mask_3">
      <use xlink:href="#path_3" />
    </clipPath>
    <clipPath id="mask_4">
      <use xlink:href="#path_4" />
    </clipPath>
  </defs>
  <g id="Group-51">
    <g id="Group-3">
      <path d="M0 0L19.6955 0L19.6955 20.1934L0 20.1934L0 0Z" transform="translate(0 0.2962077)" id="Clip-2" fill="none" fill-rule="evenodd" stroke="none" />
      <g clip-path="url(#mask_1)">
        <path d="M0 10.0698C0 4.06538 3.91722 0 10.4172 0C15.7511 0 18.9461 2.69231 19.6956 6.89285L17.4178 7.10769C16.7789 3.82308 14.2511 1.80331 10.3061 1.80331C5.30611 1.80331 2.27833 5.06154 2.27833 10.0423C2.27833 14.889 5.27833 18.3621 10.3617 18.3621C14.1122 18.3621 16.6678 16.5044 17.5289 13.3275L19.6956 13.6505C18.6122 17.5544 15.5567 20.1934 10.3061 20.1934C3.61111 20.1934 0 15.8857 0 10.0698" transform="translate(-5.5555556E-05 0.2962077)" id="Fill-1" fill="#FEFEFE" fill-rule="evenodd" stroke="none" />
      </g>
    </g>
    <path d="M17 20L14.8618 20L14.8618 10.7042L2.1115 10.7042L2.1115 20L0 20L0 0L2.1115 0L2.1115 8.81641L14.8618 8.81641L14.8618 0L17 0L17 20Z" transform="translate(23 1)" id="Fill-4" fill="#FEFEFE" fill-rule="evenodd" stroke="none" />
    <path d="M2.1261 9.63382L8.84991 9.63382C12.0396 9.63382 13.1824 7.85928 13.1824 5.74672C13.1824 3.60599 12.0662 1.88722 8.87702 1.88722L2.1261 1.88722L2.1261 9.63382ZM8.42522 11.5216L2.1261 11.5216L2.1261 20L0 20L0 0L9.11567 0C13.9531 0 15.3616 2.87308 15.3616 5.74672C15.3616 8.11278 14.1126 10.6197 10.7374 11.2399L16 20L13.5279 20L8.42522 11.5216Z" transform="translate(47 1)" id="Fill-6" fill="#FEFEFE" fill-rule="evenodd" stroke="none" />
    <g id="Group-10" transform="translate(64 0)">
      <path d="M0 0L20.8629 0L20.8629 20.1933L0 20.1933L0 0Z" transform="translate(0.08201053 0.29615384)" id="Clip-9" fill="none" fill-rule="evenodd" stroke="none" />
      <g clip-path="url(#mask_2)">
        <path d="M18.5695 10.0967C18.5695 5.00823 15.3366 1.80385 10.4182 1.80385C5.52687 1.80385 2.29342 5.00823 2.29342 10.0967C2.29342 15.1318 5.52687 18.389 10.4182 18.389C15.3366 18.389 18.5695 15.1852 18.5695 10.0967M0 10.0967C0 3.87692 4.22818 0 10.4182 0C16.6077 0 20.8629 3.87692 20.8629 10.0967C20.8629 16.2895 16.6077 20.1934 10.4182 20.1934C4.22818 20.1934 0 16.2352 0 10.0967" transform="translate(0.08201053 0.2961)" id="Fill-8" fill="#FEFEFE" fill-rule="evenodd" stroke="none" />
      </g>
    </g>
    <path d="M0 0L2.61369 0L13.8481 15.4645C14.3869 16.2813 14.764 16.8729 15.0603 17.5776L15.1142 17.5776C15.0873 16.8729 15.0603 16.1687 15.0603 15.211L15.0603 0L17 0L17 20L14.5216 20L3.15248 4.36595C2.61369 3.57783 2.23599 2.98575 1.94019 2.28156L1.88578 2.28156C1.91272 2.95758 1.94019 3.68993 1.94019 4.61946L1.94019 20L0 20L0 0Z" transform="translate(90 1)" id="Fill-11" fill="#FEFEFE" fill-rule="evenodd" stroke="none" />
    <g id="Group-15" transform="translate(110 0)">
      <path d="M0 0L20.328 0L20.328 20.1933L0 20.1933L0 0Z" transform="translate(0.48348463 0.29615384)" id="Clip-14" fill="none" fill-rule="evenodd" stroke="none" />
      <g clip-path="url(#mask_3)">
        <path d="M18.0934 10.0967C18.0934 5.00823 14.9434 1.80385 10.1511 1.80385C5.38515 1.80385 2.23515 5.00823 2.23515 10.0967C2.23515 15.1318 5.38515 18.389 10.1511 18.389C14.9434 18.389 18.0934 15.1852 18.0934 10.0967M0 10.0967C0 3.87692 4.11977 0 10.1511 0C16.1818 0 20.328 3.87692 20.328 10.0967C20.328 16.2895 16.1818 20.1934 10.1511 20.1934C4.11977 20.1934 0 16.2352 0 10.0967" transform="translate(0.48348463 0.2961)" id="Fill-13" fill="#FEFEFE" fill-rule="evenodd" stroke="none" />
      </g>
    </g>
    <path d="M3.68253 2.98575L3.68253 8.45079L14.543 8.45079L14.543 11.4084L3.68253 11.4084L3.68253 20L0 20L0 0L15 0L15 2.98575L3.68253 2.98575Z" transform="translate(134 1)" id="Fill-16" fill="#FEFEFE" fill-rule="evenodd" stroke="none" />
    <path d="M3.65896 0L3.65896 11.5621C3.65896 14.6852 5.58217 16.9043 9.00027 16.9043C12.3917 16.9043 14.341 14.6852 14.341 11.5621L14.341 0L18 0L18 11.8081C18 16.6572 14.7416 20 9.00027 20C3.2584 20 0 16.6572 0 11.7807L0 0L3.65896 0Z" transform="translate(153 1)" id="Fill-18" fill="#FEFEFE" fill-rule="evenodd" stroke="none" />
    <path d="M0 0L4.17265 0L13.4 13.2393C13.9349 14.0561 14.3628 14.8172 14.657 15.5772L14.7104 15.5772C14.6837 14.7885 14.6837 13.9722 14.6837 12.9857L14.6837 0L18 0L18 20L14.0418 20L4.60056 6.61991C4.09188 5.80305 3.63776 5.04197 3.37032 4.33778L3.28955 4.33778C3.3163 5.09887 3.3163 5.91516 3.3163 6.90158L3.3163 20L0 20L0 0Z" transform="translate(176 1)" id="Fill-20" fill="#FEFEFE" fill-rule="evenodd" stroke="none" />
    <path d="M9.0241 17.0706C13.4091 17.0706 15.955 14.0843 15.955 9.831C15.955 5.57771 13.296 2.92941 8.93924 2.92941L3.87531 2.92941L3.87531 17.0706L9.0241 17.0706ZM0 0L9.2504 0C15.7287 0 20 3.71866 20 9.80283C20 15.9157 15.6438 20 9.22268 20L0 20L0 0Z" transform="translate(198 1)" id="Fill-22" fill="#FEFEFE" fill-rule="evenodd" stroke="none" />
    <path d="M6.06867 5.74695C6.06867 4.92403 5.58622 4.28135 4.20719 4.28135L0.943112 4.28135L0.943112 7.24523L4.12472 7.24523C5.59741 7.24523 6.06867 6.58058 6.06867 5.74695L6.06867 5.74695ZM0.943112 0.75477L0.943112 3.52714L4.03046 3.52714C5.59741 3.52714 5.85719 2.76111 5.85719 2.12969C5.85719 1.47631 5.50316 0.75477 4.0069 0.75477L0.943112 0.75477ZM7 5.80328C7 6.94051 6.29311 8 4.17125 8L0 8L0 0L4.04225 0C6.15173 0 6.77615 1.10456 6.77615 2.08463C6.77615 2.89573 6.31667 3.65106 5.27931 3.86454C6.4339 4.03408 7 4.76688 7 5.80328L7 5.80328Z" transform="translate(53 30)" id="Fill-24" fill="#FEFEFE" fill-rule="evenodd" stroke="none" />
    <path d="M3.072 4.90206L0 0L0.958551 0L3.2163 3.62797C3.35029 3.84257 3.43275 3.99972 3.48428 4.14617L3.5049 4.14617C3.54612 3.99972 3.6394 3.84257 3.77288 3.62797L6.04145 0L7 0L3.89708 4.90206L3.89708 8L3.072 8L3.072 4.90206Z" transform="translate(60 30)" id="Fill-26" fill="#FEFEFE" fill-rule="evenodd" stroke="none" />
    <path d="M0 53L218 53L218 0L0 0L0 53Z" transform="translate(0 1)" id="Clip-29" fill="none" fill-rule="evenodd" stroke="none" />
    <g clip-path="url(#mask_4)">
      <path d="M0 8L1 8L1 0L0 0L0 8Z" transform="translate(71 30)" id="Fill-28" fill="#FEFEFE" fill-rule="evenodd" stroke="none" />
      <path d="M0 0L1.07581 0L5.70181 6.18574C5.92419 6.51299 6.0789 6.749 6.20146 7.03063L6.22364 7.03063C6.21199 6.749 6.20146 6.46737 6.20146 6.08491L6.20146 0L7 0L7 8L5.97909 8L1.29819 1.74724C1.07581 1.43125 0.920542 1.19468 0.798542 0.913047L0.776361 0.913047C0.787452 1.18398 0.798542 1.47631 0.798542 1.84806L0.798542 8L0 8L0 0Z" transform="translate(75 30)" id="Fill-30" fill="#FEFEFE" fill-rule="evenodd" stroke="none" />
      <path d="M6 7.24523L6 8L0 8L0 0L5.92195 0L5.92195 0.75477L0.880877 0.75477L0.880877 3.52658L5.73239 3.52658L5.73239 4.27065L0.880877 4.27065L0.880877 7.24523L6 7.24523Z" transform="translate(84 30)" id="Fill-31" fill="#FEFEFE" fill-rule="evenodd" stroke="none" />
      <path d="M0 8L1 8L1 0L0 0L0 8Z" transform="translate(92 30)" id="Fill-32" fill="#FEFEFE" fill-rule="evenodd" stroke="none" />
      <path d="M0 3.9896C0 1.61088 1.59052 0 4.23125 0C6.39763 0 7.69487 1.06752 8 2.73065L7.07445 2.81597C6.815 1.5149 5.78849 0.715057 4.18613 0.715057C2.1551 0.715057 0.92555 2.00547 0.92555 3.97894C0.92555 5.89855 2.14382 7.27534 4.20869 7.27534C5.73153 7.27534 6.76988 6.53896 7.11957 5.28001L8 5.40799C7.5595 6.95488 6.3181 8 4.18613 8C1.46701 8 0 6.29314 0 3.9896" transform="translate(94 30)" id="Fill-33" fill="#FEFEFE" fill-rule="evenodd" stroke="none" />
      <path d="M7 8L6.11915 8L6.11915 4.28135L0.869292 4.28135L0.869292 8L0 8L0 0L0.869292 0L0.869292 3.52714L6.11915 3.52714L6.11915 0L7 0L7 8Z" transform="translate(103 30)" id="Fill-34" fill="#FEFEFE" fill-rule="evenodd" stroke="none" />
      <path d="M6 7.24523L6 8L0 8L0 0L5.92195 0L5.92195 0.75477L0.880877 0.75477L0.880877 3.52658L5.73239 3.52658L5.73239 4.27065L0.880877 4.27065L0.880877 7.24523L6 7.24523Z" transform="translate(112 30)" id="Fill-35" fill="#FEFEFE" fill-rule="evenodd" stroke="none" />
      <path d="M0 0L1.07581 0L5.70181 6.18574C5.92419 6.51299 6.0789 6.749 6.20146 7.03063L6.22364 7.03063C6.21199 6.749 6.20146 6.46737 6.20146 6.08491L6.20146 0L7 0L7 8L5.97909 8L1.29819 1.74724C1.07581 1.43125 0.920542 1.19468 0.798542 0.913047L0.776361 0.913047C0.787452 1.18398 0.798542 1.47631 0.798542 1.84806L0.798542 8L0 8L0 0Z" transform="translate(120 30)" id="Fill-36" fill="#FEFEFE" fill-rule="evenodd" stroke="none" />
      <path d="M5.69202 0.75477L0.20595 0.75477L0.20595 0L6.79348 0L6.79348 0.777864L1.07851 7.24523L7 7.24523L7 8L0 8L0 7.22214L5.69202 0.75477Z" transform="translate(133 30)" id="Fill-37" fill="#FEFEFE" fill-rule="evenodd" stroke="none" />
      <path d="M0.872033 0L0.872033 4.71213C0.872033 6.19173 1.82189 7.24349 3.50028 7.24349C5.17811 7.24349 6.12741 6.19173 6.12741 4.71213L6.12741 0L7 0L7 4.75596C7 6.66228 5.75266 8 3.50028 8C1.2363 8 0 6.66228 0 4.75596L0 0L0.872033 0Z" transform="translate(141 30)" id="Fill-38" fill="#FEFEFE" fill-rule="evenodd" stroke="none" />
      <path d="M0.930078 3.85383L3.87261 3.85383C5.26773 3.85383 5.76765 3.14412 5.76765 2.29923C5.76765 1.44251 5.27877 0.75477 3.88366 0.75477L0.930078 0.75477L0.930078 3.85383ZM3.68602 4.6086L0.930078 4.6086L0.930078 8L0 8L0 0L3.98887 0C6.1048 0 6.72098 1.14962 6.72098 2.29923C6.72098 3.24551 6.17456 4.24755 4.69748 4.49651L7 8L5.91878 8L3.68602 4.6086Z" transform="translate(149 30)" id="Fill-39" fill="#FEFEFE" fill-rule="evenodd" stroke="none" />
      <path d="M0 8L1 8L1 0L0 0L0 8Z" transform="translate(158 30)" id="Fill-40" fill="#FEFEFE" fill-rule="evenodd" stroke="none" />
      <path d="M0 3.9896C0 1.61088 1.59064 0 4.23098 0C6.39752 0 7.69541 1.06752 8 2.73065L7.07438 2.81597C6.81492 1.5149 5.78834 0.715057 4.18586 0.715057C2.15469 0.715057 0.925051 2.00547 0.925051 3.97894C0.925051 5.89855 2.14398 7.27534 4.20842 7.27534C5.73193 7.27534 6.76979 6.53896 7.11951 5.28001L8 5.40799C7.55947 6.95488 6.31855 8 4.18586 8C1.46711 8 0 6.29314 0 3.9896" transform="translate(161 30)" id="Fill-41" fill="#FEFEFE" fill-rule="evenodd" stroke="none" />
      <path d="M7 8L6.11922 8L6.11922 4.28135L0.869774 4.28135L0.869774 8L0 8L0 0L0.869774 0L0.869774 3.52714L6.11922 3.52714L6.11922 0L7 0L7 8Z" transform="translate(170 30)" id="Fill-42" fill="#FEFEFE" fill-rule="evenodd" stroke="none" />
      <path d="M6 7.24467L6 8L0 8L0 0L5.9214 0L5.9214 0.75477L0.881353 0.75477L0.881353 3.52602L5.73242 3.52602L5.73242 4.27008L0.881353 4.27008L0.881353 7.24467L6 7.24467Z" transform="translate(89 46)" id="Fill-43" fill="#FEFEFE" fill-rule="evenodd" stroke="none" />
      <path d="M0 5.46131L0.911945 5.344C1.1207 6.50697 2.01122 7.29561 3.76919 7.29561C5.17611 7.29561 6.09959 6.85889 6.09959 5.84576C6.09959 4.89555 5.49474 4.55482 4.2746 4.38366L2.56059 4.16023C1.17619 3.95761 0.36258 3.36039 0.36258 2.13344C0.36258 0.810505 1.52723 0 3.48352 0C5.41783 0 6.65939 0.725188 6.92364 2.27208L6.03312 2.44271C5.81337 1.27974 5.02229 0.68253 3.47253 0.68253C2.08813 0.68253 1.26409 1.1843 1.26409 2.06945C1.26409 2.85863 1.74753 3.25322 2.91218 3.42438L4.60477 3.65847C6.12157 3.88242 7 4.42685 7 5.76045C7 7.11484 5.89083 8 3.74721 8C1.46131 8 0.252708 7.02899 0 5.46131" transform="translate(96 46)" id="Fill-44" fill="#FEFEFE" fill-rule="evenodd" stroke="none" />
      <path d="M7 0.75477L3.93351 0.75477L3.93351 8L3.05538 8L3.05538 0.75477L0 0.75477L0 0L7 0L7 0.75477Z" transform="translate(103 46)" id="Fill-45" fill="#FEFEFE" fill-rule="evenodd" stroke="none" />
      <path d="M0 1L1 1L1 0L0 0L0 1Z" transform="translate(110 53)" id="Fill-46" fill="#FEFEFE" fill-rule="evenodd" stroke="none" />
      <path d="M1.42647 1.49655C1.23271 1.93383 0.75218 2.24511 0.240264 2.24511L0 2.24511L0 1.46203L0.147258 1.46203C0.814183 1.46203 1.34121 0.898159 1.50397 0L2 0L2 8L1.42647 8L1.42647 1.49655Z" transform="translate(117 46)" id="Fill-47" fill="#FEFEFE" fill-rule="evenodd" stroke="none" />
      <path d="M5.13805 2.58986C4.91745 1.48118 4.23409 0.691216 2.87893 0.691216C1.5973 0.691216 0.788409 1.38298 0.788409 2.50209C0.788409 3.67606 1.5973 4.29102 2.83691 4.29102C4.03449 4.29102 4.93846 3.59981 5.13805 2.58986M6 3.84064C6 6.33176 5.01199 8 2.91044 8C1.3767 8 0.357174 7.23198 0.115556 5.89289L0.90344 5.71734C1.12405 6.7602 1.75488 7.30878 2.92095 7.30878C4.49724 7.30878 5.2221 6.00315 5.2221 3.85216L5.2221 3.63217C4.84391 4.4556 3.95045 4.99321 2.74236 4.99321C1.11407 4.99321 0 4.13687 0 2.51306C0 1.03134 1.12405 0 2.87893 0C4.90694 0 6 1.30563 6 3.84064" transform="translate(121 46)" id="Fill-48" fill="#FEFEFE" fill-rule="evenodd" stroke="none" />
      <path d="M1.68426 7.84983C1.68426 5.23763 2.94425 2.83142 4.98532 0.783084L0 0.783084L0 0L6 0L6 0.679517C3.93719 2.60184 2.64319 5.01841 2.63204 7.78136L2.63204 8L1.68426 8L1.68426 7.84983Z" transform="translate(127 46)" id="Fill-49" fill="#FEFEFE" fill-rule="evenodd" stroke="none" />
      <path d="M0 5.60763L0.782931 5.50888C0.899312 6.60605 1.66161 7.30878 3.06877 7.30878C4.44419 7.30878 5.20649 6.72729 5.20649 5.6954C5.20649 4.66406 4.43414 4.18076 3.13225 4.18076L2.47628 4.18076L2.47628 3.50051L3.07935 3.50051C4.22201 3.50051 4.95204 3.02928 4.95204 2.08517C4.95204 1.20743 4.26486 0.691216 2.97355 0.691216C1.61929 0.691216 0.909892 1.41535 0.867572 2.53501L0.126962 2.3814C0.169282 0.965508 1.17493 0 3.01587 0C4.81502 0 5.74608 0.800933 5.74608 2.03031C5.74608 3.02928 5.03668 3.63217 4.13737 3.77481C5.24881 3.91799 6 4.52143 6 5.68498C6 7.04546 5.00547 8 3.04761 8C1.21672 8 0.116382 7.04546 0 5.60763" transform="translate(134 46)" id="Fill-50" fill="#FEFEFE" fill-rule="evenodd" stroke="none" />
    </g>
  </g>
</svg>