<?xml version="1.0" encoding="utf-8"?>
<!-- Generator: Adobe Illustrator 25.2.1, SVG Export Plug-In . SVG Version: 6.00 Build 0)  -->
<svg width="317" height="58.74" version="1.1" id="Слой_1" xmlns="http://www.w3.org/2000/svg" xmlns:xlink="http://www.w3.org/1999/xlink" x="0px" y="0px"
	 viewBox="0 0 317 58.74" style="enable-background:new 0 0 317 58.74;" xml:space="preserve">
<style type="text/css">
	.st0{fill:#FFFFFF;}
</style>
<g id="CHRONOFUND">
	<g id="CHRONO">
		<path class="st0" d="M29.24,22.34c-1.59,5.63-5.91,9.4-13.36,9.4c-9.56,0-14.69-6.25-14.69-14.61C1.19,8.51,6.74,2.6,16.03,2.6
			c7.58,0,12.08,3.89,13.25,9.98l-3.96,0.39c-0.93-4.43-4.23-7.15-9.48-7.15c-6.68,0-10.68,4.47-10.68,11.27
			c0,6.6,4.04,11.38,10.8,11.38c4.97,0,8.31-2.49,9.52-6.8L29.24,22.34z M125.66,17.17c0,8.86-5.98,14.57-14.96,14.57
			c-8.94,0-14.92-5.79-14.92-14.57c0-8.9,5.98-14.57,14.92-14.57C119.68,2.6,125.66,8.27,125.66,17.17z M191.94,17.17
			c0,8.86-5.98,14.57-14.96,14.57c-8.94,0-14.92-5.79-14.92-14.57c0-8.9,5.98-14.57,14.92-14.57
			C185.96,2.6,191.94,8.27,191.94,17.17z M56.51,3.38h3.85v27.58h-3.85V18.45H38.87v12.51h-3.81V3.38h3.81v11.89h17.64V3.38z
			 M88.06,30.96h4.43l-7.54-11.85c4.86-1.01,6.57-4.55,6.57-7.65c0-3.89-2.06-8.08-9.4-8.08H68.63v27.58h3.81V19.62h8.35
			L88.06,30.96z M131.3,30.96h3.46V10.68c0-1.4-0.04-2.41-0.08-3.38h0.08c0.39,1.01,0.97,1.9,1.75,3.03L152,30.96h4.39V3.38h-3.42
			v20.01c0,1.44,0,2.45,0.04,3.5h-0.08c-0.39-1.05-0.93-1.98-1.75-3.15L135.92,3.38h-4.62V30.96z M99.79,17.17
			c0,6.84,4.23,11.38,10.92,11.38c6.72,0,10.96-4.47,10.96-11.38c0-6.95-4.23-11.38-10.96-11.38
			C104.02,5.79,99.79,10.21,99.79,17.17z M166.07,17.17c0,6.84,4.24,11.38,10.92,11.38c6.72,0,10.95-4.47,10.95-11.38
			c0-6.95-4.23-11.38-10.95-11.38C170.3,5.79,166.07,10.21,166.07,17.17z M72.44,6.56h9.13c4.51,0,5.94,2.29,5.94,4.9
			s-1.44,5.01-5.98,5.01h-9.09V6.56z"/>
	</g>
	<g id="FUND">
		<path class="st0" d="M218.79,3.38V7.5h-16.36v7.54h15.69v4.08h-15.69v11.85h-5.32V3.38H218.79z M223.22,20.08V3.38h5.32v16.39
			c0,4.43,2.8,7.58,7.77,7.58c4.93,0,7.77-3.15,7.77-7.58V3.38h5.32v16.74c0,6.88-4.74,11.62-13.09,11.62
			C227.95,31.74,223.22,27,223.22,20.08z M256,30.96h4.82V12.9c0-1.36,0-2.49-0.04-3.54h0.12c0.39,0.97,1.05,2.02,1.79,3.15
			l13.71,18.45h5.75V3.38h-4.82v17.91c0,1.36,0,2.49,0.04,3.57h-0.08c-0.43-1.05-1.05-2.1-1.82-3.22l-13.4-18.26H256V30.96z
			 M302.2,30.96h-12.67V3.38h12.7c8.9,0,14.76,5.13,14.76,13.52C317,25.33,311.02,30.96,302.2,30.96z M294.86,7.42v19.5h7.07
			c6.02,0,9.52-4.12,9.52-9.98s-3.65-9.52-9.63-9.52H294.86z"/>
	</g>
</g>
<g id="BY-INEICHEN-ZURICH_x2C_-EST.-1973" transform="translate(2 34)">
	<path class="st0" d="M81.06,17.79C80.52,19.71,79.04,21,76.49,21c-3.27,0-5.02-2.14-5.02-5c0-2.95,1.9-4.97,5.08-4.97
		c2.59,0,4.13,1.33,4.53,3.42l-1.36,0.13c-0.32-1.52-1.45-2.45-3.24-2.45c-2.29,0-3.66,1.53-3.66,3.85c0,2.26,1.38,3.89,3.69,3.89
		c1.7,0,2.84-0.85,3.26-2.33L81.06,17.79z M186.47,17.79c-0.54,1.93-2.02,3.22-4.57,3.22c-3.27,0-5.02-2.14-5.02-5
		c0-2.95,1.9-4.97,5.08-4.97c2.59,0,4.13,1.33,4.53,3.42l-1.36,0.13c-0.32-1.52-1.45-2.45-3.24-2.45c-2.29,0-3.66,1.53-3.66,3.85
		c0,2.26,1.38,3.89,3.69,3.89c1.7,0,2.84-0.85,3.26-2.33L186.47,17.79z M237.1,18.16c0,1.65-1.3,2.84-4,2.84
		c-2.78,0-4.27-1.2-4.64-3.12l1.33-0.23c0.32,1.34,1.34,2.27,3.34,2.27c1.56,0,2.63-0.47,2.63-1.65c0-1.06-0.7-1.46-2.07-1.66
		l-2.07-0.28c-1.69-0.25-2.7-1-2.7-2.59c0-1.66,1.44-2.71,3.87-2.71c2.33,0,3.85,0.89,4.27,2.76l-1.3,0.32
		c-0.33-1.33-1.24-2.03-3-2.03c-1.54,0-2.49,0.57-2.49,1.56c0,0.93,0.53,1.37,1.87,1.57l2.02,0.29
		C236.01,15.78,237.1,16.48,237.1,18.16z M7.79,15.86c1.1-0.28,1.63-1.14,1.63-2.07c0-1.16-0.73-2.49-3.14-2.49H1.65v9.44h4.81
		c2.38,0,3.23-1.26,3.23-2.61C9.69,16.92,9.04,16.07,7.79,15.86z M17.35,20.74h1.32v-3.6l3.97-5.83h-1.53l-2.83,4.23
		c-0.13,0.21-0.21,0.37-0.25,0.52H18c-0.04-0.15-0.12-0.31-0.25-0.52l-2.8-4.23h-1.53l3.93,5.83V20.74z M32.64,11.3v9.44h-1.3V11.3
		H32.64z M38.41,20.74h1.18V13.8c0-0.48-0.01-0.82-0.03-1.16h0.03c0.13,0.35,0.33,0.65,0.6,1.04l5.3,7.06H47V11.3h-1.17v6.84
		c0,0.49,0,0.84,0.01,1.2h-0.03c-0.13-0.36-0.32-0.68-0.6-1.08l-5.22-6.96h-1.58V20.74z M54.07,16.44v3.2H60v1.09h-7.23V11.3h7.14
		v1.09h-5.83v2.96h5.61v1.09H54.07z M66.6,20.74V11.3h-1.3v9.44H66.6z M94.63,11.3h-1.32v4.07h-6.03V11.3h-1.3v9.44h1.3v-4.28h6.03
		v4.28h1.32V11.3z M101.69,16.44v3.2h5.93v1.09h-7.23V11.3h7.14v1.09h-5.83v2.96h5.61v1.09H101.69z M112.92,20.74h1.18V13.8
		c0-0.48-0.01-0.82-0.03-1.16h0.03c0.13,0.35,0.33,0.65,0.6,1.04l5.3,7.06h1.5V11.3h-1.17v6.84c0,0.49,0,0.84,0.01,1.2h-0.03
		c-0.13-0.36-0.32-0.68-0.6-1.08l-5.22-6.96h-1.58V20.74z M130.8,20.74v-1.13l6.41-7.22h-6.17V11.3h7.75v1.12l-6.42,7.23h6.66v1.09
		H130.8z M143.44,11.3V17c0,2.34,1.54,4,4.33,4c2.78,0,4.33-1.66,4.33-4v-5.7h-1.32v5.64c0,1.69-1.09,2.94-3.02,2.94
		s-3.03-1.25-3.03-2.94V11.3H143.44z M165.75,20.74h-1.52l-2.49-3.88h-2.86v3.88h-1.3V11.3h4.61c2.51,0,3.22,1.44,3.22,2.76
		c0,1.06-0.59,2.27-2.25,2.62L165.75,20.74z M172.01,20.74V11.3h-1.3v9.44H172.01z M200.04,11.3h-1.32v4.07h-6.03V11.3h-1.3v9.44
		h1.3v-4.28h6.03v4.28h1.32V11.3z M218.21,19.65v-3.2h5.61v-1.09h-5.61v-2.96h5.84V11.3h-7.14v9.44h7.23v-1.09H218.21z M249.29,11.3
		h-8.51v1.09h3.6v8.35h1.3v-8.35h3.6V11.3z M272.77,14.36c0-1.79,1.46-3.06,3.71-3.06c2.63,0,4.03,1.65,4.03,4.67
		c0,2.95-1.28,5.02-3.97,5.02c-1.99,0-3.34-0.94-3.64-2.57l1.24-0.28c0.28,1.22,1.04,1.82,2.41,1.82c1.89,0,2.75-1.53,2.75-3.96
		V15.9c-0.5,0.89-1.55,1.46-3,1.46C274.19,17.36,272.77,16.34,272.77,14.36z M303.09,18.16c0,1.63-1.24,2.83-3.79,2.83
		c-2.35,0-3.78-1.16-3.93-2.92l1.22-0.15c0.16,1.26,1.06,2.05,2.74,2.05c1.66,0,2.51-0.66,2.51-1.79c0-1.25-1-1.7-2.51-1.7h-0.78
		v-1.01h0.74c1.42,0,2.23-0.54,2.23-1.59c0-0.96-0.77-1.54-2.33-1.54c-1.62,0-2.43,0.84-2.5,2.13l-1.17-0.24
		c0.08-1.71,1.36-2.91,3.72-2.91c2.35,0,3.51,1,3.51,2.47c0,1.17-0.84,1.91-1.97,2.11C302.16,16.07,303.09,16.75,303.09,18.16z
		 M266.32,20.74h1.22V11.5h-1.05c-0.31,1.01-1.16,1.63-2.31,1.63h-0.28v1.1h0.47c0.85,0,1.65-0.31,1.95-0.73V20.74z M286.31,20.74
		h1.41v-0.27c0-3.04,1.49-5.79,3.96-8.01V11.5h-7.24v1.1h5.75c-2.42,2.38-3.88,5.1-3.88,7.97V20.74z M274.01,14.34
		c0,1.3,0.94,1.99,2.42,1.99c1.44,0,2.5-0.8,2.75-1.9c-0.27-1.2-1.06-2.11-2.7-2.11C274.96,12.32,274.01,13.1,274.01,14.34z
		 M6.21,12.39c1.54,0,1.91,0.77,1.91,1.48c0,0.69-0.27,1.52-1.91,1.52H2.95v-2.99H6.21z M162.02,12.39h-3.12v3.39H162
		c1.56,0,2.05-0.82,2.05-1.71C164.05,13.18,163.56,12.39,162.02,12.39z M6.37,19.65H2.95v-3.18h3.5c1.41,0,1.94,0.66,1.94,1.57
		C8.39,18.94,7.86,19.65,6.37,19.65z M207.14,20.58c0,1.12-0.35,1.67-1.33,2.03l-0.31-0.62c0.69-0.25,0.85-0.61,0.85-1.21v-0.04
		h-0.9V19.1h1.69V20.58z M253.42,19.17h1.69v1.57h-1.69V19.17z"/>
</g>
</svg>
