<svg id="Layer_1" data-name="Layer 1" xmlns="http://www.w3.org/2000/svg" viewBox="0 0 437.29 137.34"><defs><style>.cls-1{fill:#1a1a33;}.cls-2{fill:#1f1f1f;}</style></defs><path class="cls-1" d="M16.12,110.6V89.45h8.44c3.75,0,6.21,2.09,6.21,5.28A4.69,4.69,0,0,1,27,99.33v.12a5.08,5.08,0,0,1,4.8,5.17c0,3.72-2.71,6-7.21,6ZM19.4,98.45h3.68c2.84,0,4.41-1.17,4.41-3.27s-1.35-3-3.72-3H19.4Zm4.53,9.47c3,0,4.53-1.22,4.53-3.51S26.85,101,23.74,101H19.4v7Z" transform="translate(-8.34 -16.53)"/><path class="cls-1" d="M42.63,110.6v-8.66L35.19,89.45h3.66l5.4,9.34h.1l5.39-9.34h3.63l-7.45,12.49v8.66Z" transform="translate(-8.34 -16.53)"/><path class="cls-1" d="M66.37,110.6V89.45h3.28V110.6Z" transform="translate(-8.34 -16.53)"/><path class="cls-1" d="M75.8,110.6V89.45h3l11,15.59h.12V89.45h3.19V110.6h-3L79.13,95H79V110.6Z" transform="translate(-8.34 -16.53)"/><path class="cls-1" d="M112.67,110.6H99.25V89.45h13.42v2.83H102.53v6.19h9.6v2.72h-9.6v6.57h10.14Z" transform="translate(-8.34 -16.53)"/><path class="cls-1" d="M118.33,110.6V89.45h3.28V110.6Z" transform="translate(-8.34 -16.53)"/><path class="cls-1" d="M127,100c0-6.7,3.78-10.92,9.68-10.92,4.79,0,8.41,3,9,7.36h-3.25A5.63,5.63,0,0,0,136.69,92c-3.84,0-6.33,3.15-6.33,8s2.46,8.06,6.35,8.06c2.94,0,5-1.51,5.7-4.06h3.26c-.8,4.37-4.11,6.93-9,6.93C130.76,111,127,106.76,127,100Z" transform="translate(-8.34 -16.53)"/><path class="cls-1" d="M165.07,110.6v-9.36H154.21v9.36h-3.28V89.45h3.28v8.94h10.86V89.45h3.28V110.6Z" transform="translate(-8.34 -16.53)"/><path class="cls-1" d="M188,110.6H174.53V89.45H188v2.83H177.82v6.19h9.59v2.72h-9.59v6.57H188Z" transform="translate(-8.34 -16.53)"/><path class="cls-1" d="M193.62,110.6V89.45h3l11,15.59h.11V89.45h3.2V110.6h-3L197,95h-.13V110.6Z" transform="translate(-8.34 -16.53)"/><path class="cls-1" d="M237.27,104.88h-8.06l-1.93,5.72h-3.42l7.64-21.15H235l7.64,21.15H239.2Zm-7.22-2.63h6.38L233.28,93h-.08Z" transform="translate(-8.34 -16.53)"/><path class="cls-1" d="M250.4,102.89c0,3,1.91,5.15,5.28,5.15s5.29-2.13,5.29-5.15V89.45h3.27v13.72c0,4.56-3.26,7.78-8.56,7.78s-8.56-3.22-8.56-7.78V89.45h3.28Z" transform="translate(-8.34 -16.53)"/><path class="cls-1" d="M269.64,100c0-6.7,3.78-10.92,9.68-10.92,4.8,0,8.42,3,9,7.36H285A5.63,5.63,0,0,0,279.32,92c-3.84,0-6.33,3.15-6.33,8s2.47,8.06,6.35,8.06c2.94,0,5-1.51,5.7-4.06h3.27c-.81,4.37-4.12,6.93-9,6.93C273.39,111,269.64,106.76,269.64,100Z" transform="translate(-8.34 -16.53)"/><path class="cls-1" d="M297.91,110.6V92.28h-6.48V89.45h16.22v2.83h-6.46V110.6Z" transform="translate(-8.34 -16.53)"/><path class="cls-1" d="M312.61,110.6V89.45h3.29V110.6Z" transform="translate(-8.34 -16.53)"/><path class="cls-1" d="M341.1,100c0,6.73-3.82,10.92-9.91,10.92s-9.9-4.19-9.9-10.92,3.81-10.93,9.9-10.93S341.1,93.31,341.1,100Zm-16.46,0c0,4.93,2.54,8,6.55,8s6.54-3.1,6.54-8-2.52-8-6.54-8S324.64,95.1,324.64,100Z" transform="translate(-8.34 -16.53)"/><path class="cls-1" d="M346.52,110.6V89.45h3l11,15.59h.12V89.45h3.19V110.6h-3L349.84,95h-.13V110.6Z" transform="translate(-8.34 -16.53)"/><path class="cls-1" d="M383.38,110.6H370V89.45h13.42v2.83H373.24v6.19h9.6v2.72h-9.6v6.57h10.14Z" transform="translate(-8.34 -16.53)"/><path class="cls-1" d="M402.47,110.6H389.05V89.45h13.42v2.83H392.33v6.19h9.6v2.72h-9.6v6.57h10.14Z" transform="translate(-8.34 -16.53)"/><path class="cls-1" d="M411.42,110.6h-3.29V89.45h8.19c4.36,0,7.07,2.53,7.07,6.47a6.07,6.07,0,0,1-4.11,6L424,110.6h-3.78l-4.31-8.13h-4.51Zm0-10.79H416c2.53,0,4-1.39,4-3.8s-1.54-3.8-4.07-3.8h-4.51Z" transform="translate(-8.34 -16.53)"/><path class="cls-1" d="M431.09,104.8c.29,2.09,2.28,3.35,5.1,3.35s4.6-1.37,4.6-3.27c0-1.64-1.12-2.66-3.94-3.28l-2.3-.48c-4.24-.89-6.16-2.86-6.16-5.91,0-3.62,3.18-6.11,7.68-6.11s7.55,2.54,7.65,6.23h-3.18c-.21-2.12-2-3.43-4.51-3.43s-4.3,1.2-4.3,3.14c0,1.54,1.09,2.56,3.83,3.15l2.31.48c4.43.94,6.24,2.71,6.24,5.79,0,4-3.13,6.49-8.05,6.49s-8-2.39-8.17-6.15Z" transform="translate(-8.34 -16.53)"/><path class="cls-1" d="M184.22,153.59H173.27V135.46h10.95V137H175v6.51h8.77v1.54H175v7h9.24Z" transform="translate(-8.34 -16.53)"/><path class="cls-1" d="M189.65,148.75c.22,2.17,2.24,3.57,5.08,3.57s4.67-1.45,4.67-3.51c0-1.71-1.13-2.74-3.92-3.38l-2-.44c-3.61-.8-5.11-2.35-5.11-4.85,0-2.92,2.63-5,6.19-5s6.13,2.1,6.23,5H199.1c-.18-2.07-2-3.45-4.55-3.45s-4.4,1.28-4.4,3.34c0,1.64,1.12,2.69,3.81,3.29l2,.45c3.74.84,5.23,2.26,5.23,4.78,0,3.21-2.59,5.28-6.52,5.28s-6.52-2.05-6.71-5.12Z" transform="translate(-8.34 -16.53)"/><path class="cls-1" d="M210.26,153.59V137h-6v-1.56H218V137h-6v16.57Z" transform="translate(-8.34 -16.53)"/><path class="cls-1" d="M220.31,152.53a1.18,1.18,0,1,1,1.18,1.17A1.18,1.18,0,0,1,220.31,152.53Z" transform="translate(-8.34 -16.53)"/><path class="cls-1" d="M238.26,137.29h0l-4.87,3.27v-1.75l4.89-3.35h1.68v18.13h-1.65Z" transform="translate(-8.34 -16.53)"/><path class="cls-1" d="M246.21,149.4h1.73a4,4,0,0,0,4.17,3c3,0,5.23-2.6,5.21-8.51h0a5.52,5.52,0,0,1-5.34,3.47,5.84,5.84,0,0,1-6-6,6.05,6.05,0,0,1,6.29-6.2c3,0,6.76,2,6.76,9,0,6.07-2.55,9.73-6.87,9.73C249,153.87,246.69,152.08,246.21,149.4Zm10.63-8a4.6,4.6,0,0,0-4.61-4.7,4.54,4.54,0,0,0-4.58,4.61,4.41,4.41,0,0,0,4.56,4.49A4.48,4.48,0,0,0,256.84,141.41Z" transform="translate(-8.34 -16.53)"/><path class="cls-1" d="M272.49,137v0H262.4v-1.53h11.81v1.61l-8.3,16.52h-1.82Z" transform="translate(-8.34 -16.53)"/><path class="cls-1" d="M285.26,149.49h-9.2v-1.57c2-3.32,4.35-6.87,8.35-12.49h2.52V148h2.7v1.52h-2.7v4.1h-1.67ZM277.79,148h7.47v-11h0c-3.34,4.62-5.63,8-7.44,11Z" transform="translate(-8.34 -16.53)"/><path class="cls-2" d="M8.34,39.94c0-14.36,8.11-23.41,20.77-23.41,10.27,0,18,6.32,19.23,15.78h-7a12.05,12.05,0,0,0-12.25-9.62c-8.23,0-13.58,6.76-13.58,17.25s5.28,17.28,13.61,17.28c6.32,0,10.81-3.23,12.22-8.7h7c-1.73,9.36-8.83,14.86-19.26,14.86C16.38,63.38,8.34,54.4,8.34,39.94Z" transform="translate(-8.34 -16.53)"/><path class="cls-2" d="M85,62.63V42.55H61.75V62.63h-7V17.29h7V36.45H85V17.29h7V62.63Z" transform="translate(-8.34 -16.53)"/><path class="cls-2" d="M107.44,62.63h-7V17.29H118c9.33,0,15.14,5.4,15.14,13.85,0,6.13-3.27,11.1-8.8,13l10.15,18.54h-8.1l-9.24-17.44h-9.68Zm0-23.13h9.87c5.43,0,8.54-3,8.54-8.17s-3.3-8.14-8.73-8.14h-9.68Z" transform="translate(-8.34 -16.53)"/><path class="cls-2" d="M180.75,40c0,14.43-8.2,23.41-21.24,23.41s-21.24-9-21.24-23.41,8.16-23.44,21.24-23.44S180.75,25.55,180.75,40Zm-35.29,0c0,10.56,5.44,17.22,14,17.22s14-6.66,14-17.22-5.4-17.25-14-17.25S145.46,29.38,145.46,40Z" transform="translate(-8.34 -16.53)"/><path class="cls-2" d="M187.44,62.63V17.29h6.38l23.5,33.43h.25V17.29h6.85V62.63h-6.34l-23.51-33.4h-.28v33.4Z" transform="translate(-8.34 -16.53)"/><path class="cls-2" d="M273.63,40c0,14.43-8.2,23.41-21.24,23.41s-21.24-9-21.24-23.41,8.17-23.44,21.24-23.44S273.63,25.55,273.63,40Zm-35.29,0c0,10.56,5.44,17.22,14,17.22s14-6.66,14-17.22-5.4-17.25-14-17.25S238.34,29.38,238.34,40Z" transform="translate(-8.34 -16.53)"/><path class="cls-2" d="M279.91,62.63V17.29H309.6v7.82H289.4V37.27h18.45v7.51H289.4V62.63Z" transform="translate(-8.34 -16.53)"/><path class="cls-2" d="M324.69,45.66c0,5.81,3.42,9.62,9.52,9.62s9.49-3.81,9.49-9.62V17.29h9.49V46.6c0,10-7.39,16.78-19,16.78s-19-6.79-19-16.78V17.29h9.49Z" transform="translate(-8.34 -16.53)"/><path class="cls-2" d="M360.73,62.63V17.29h7.92l21.17,29.53h.25V17.29h9.08V62.63H391.3L370.09,32.94h-.28V62.63Z" transform="translate(-8.34 -16.53)"/><path class="cls-2" d="M424,17.29c13.6,0,21.62,8.1,21.62,22.49s-8,22.85-21.62,22.85H406.7V17.29Zm-7.83,37.48h6.7c8.48,0,13.07-5.15,13.07-15,0-9.49-4.71-14.71-13.07-14.71h-6.7Z" transform="translate(-8.34 -16.53)"/></svg>