<?xml version="1.0" encoding="utf-8"?>
<svg width="178px" height="53px" viewbox="0 0 178 53" version="1.1" xmlns:xlink="http://www.w3.org/1999/xlink" xmlns="http://www.w3.org/2000/svg">
  <defs>
    <path d="M0 0L13.8789 0L13.8789 14.2882L0 14.2882L0 0Z" transform="translate(0.49573913 0.36130634)" id="path_1" />
    <path d="M0 0L13.4689 0L13.4689 14.2665L0 14.2665L0 0Z" transform="translate(0.063198365 0.4408655)" id="path_2" />
    <path d="M0 0L14.3691 0L14.3691 14.5894L0 14.5894L0 0Z" transform="translate(0.24155554 0.3207825)" id="path_3" />
    <path d="M0 0L2.91632 0L2.91632 3.9552L0 3.9552L0 0Z" transform="translate(0.39408 0.14564)" id="path_4" />
    <path d="M0 0L2.96076 0L2.96076 3.8884L0 3.8884L0 0Z" transform="translate(0 0.14564)" id="path_5" />
    <path d="M0 52.494L65.7104 52.494L65.7104 0L0 0L0 52.494Z" transform="translate(0 0.306)" id="path_6" />
    <clipPath id="mask_1">
      <use xlink:href="#path_1" />
    </clipPath>
    <clipPath id="mask_2">
      <use xlink:href="#path_2" />
    </clipPath>
    <clipPath id="mask_3">
      <use xlink:href="#path_3" />
    </clipPath>
    <clipPath id="mask_4">
      <use xlink:href="#path_4" />
    </clipPath>
    <clipPath id="mask_5">
      <use xlink:href="#path_5" />
    </clipPath>
    <clipPath id="mask_6">
      <use xlink:href="#path_6" />
    </clipPath>
  </defs>
  <g id="Group-36" transform="translate(71 6.906006)">
    <path d="M1.5 3C2.32684 3 3 2.32684 3 1.49947C3 0.672632 2.32684 0 1.5 0C0.672632 0 0 0.672632 0 1.49947C0 2.32684 0.672632 3 1.5 3" transform="translate(30 19)" id="Fill-1" fill="#C5A459" fill-rule="evenodd" stroke="none" />
    <path d="M1.5 3C2.32684 3 3 2.32684 3 1.49947C3 0.672632 2.32684 0 1.5 0C0.672632 0 0 0.672632 0 1.49947C0 2.32684 0.672632 3 1.5 3" transform="translate(35 19)" id="Fill-3" fill="#C5A459" fill-rule="evenodd" stroke="none" />
    <path d="M8.52995 6.62405L4.98013 6.62405L4.98013 2.72111L8.52995 2.72111C9.60217 2.72111 10.4715 3.59405 10.4715 4.67258C10.4715 5.75007 9.60217 6.62405 8.52995 6.62405M11.1612 10.2228L10.5213 8.98513C12.1965 8.27863 13.3736 6.61518 13.3736 4.67467C13.3736 2.09236 11.292 0 8.72405 0L4.98013 0L3.5192 0L2.07748 0L0 0L2.07748 2.52178L2.07748 14L4.98013 14L4.98013 12.9559L4.98013 9.34933L7.49199 9.34933L8.74377 11.8727C9.39042 13.1761 10.5675 14 12.0165 14L14 14L14 11.3206L13.0264 11.3206C11.9786 11.3206 11.4274 10.7362 11.1612 10.2228" transform="translate(42 23)" id="Fill-5" fill="#C5A459" fill-rule="evenodd" stroke="none" />
    <path d="M0 0L2.10065 2.52169L2.10065 14L5 14L5 0L2.10065 0L0 0Z" transform="translate(39 0)" id="Fill-7" fill="#C5A459" fill-rule="evenodd" stroke="none" />
    <path d="M0 0L2.10065 2.52169L2.10065 14L5 14L5 0L2.10065 0L0 0Z" id="Fill-9" fill="#C5A459" fill-rule="evenodd" stroke="none" />
    <path d="M11.1398 9.02601L3.70373 0L2.04831 0L0 0L2.04831 2.52169L2.04831 14L4.8747 14L4.8747 5.97578L11.4258 14L14 14L14 0L11.1398 0L11.1398 9.02601Z" transform="translate(7 0)" id="Fill-11" fill="#C5A459" fill-rule="evenodd" stroke="none" />
    <path d="M0 0L2.10065 2.52178L2.10065 14L5 14L5 0L2.10065 0L0 0Z" transform="translate(58 23)" id="Fill-13" fill="#C5A459" fill-rule="evenodd" stroke="none" />
    <g id="Group-17" transform="translate(92 0)">
      <path d="M0 0L13.8789 0L13.8789 14.2882L0 14.2882L0 0Z" transform="translate(0.49573913 0.36130634)" id="Clip-16" fill="none" fill-rule="evenodd" stroke="none" />
      <g clip-path="url(#mask_1)">
        <path d="M11.0437 9.21185L3.67126 0L2.03063 0L0 0L2.03063 2.57361L2.03063 14.2882L4.83263 14.2882L4.83263 6.09881L11.3272 14.2882L13.8792 14.2882L13.8792 0L11.0437 0L11.0437 9.21185Z" transform="translate(0.49573913 0.36130634)" id="Fill-15" fill="#C5A459" fill-rule="evenodd" stroke="none" />
      </g>
    </g>
    <path d="M9.18444 5.67628L2.81657 5.67628L2.81707 0L0 0L0 14L2.81556 14L2.81606 8.32372L3.39015 8.32372L9.18444 8.32372L9.18444 14L12 14L12 0L9.18444 0L9.18444 5.67628Z" transform="translate(63 0)" id="Fill-18" fill="#C5A459" fill-rule="evenodd" stroke="none" />
    <g id="Group-22" transform="translate(66 23)">
      <path d="M0 0L13.4689 0L13.4689 14.2665L0 14.2665L0 0Z" transform="translate(0.063198365 0.4408655)" id="Clip-21" fill="none" fill-rule="evenodd" stroke="none" />
      <g clip-path="url(#mask_2)">
        <path d="M9.62101 10.9402C8.98798 11.2547 8.28066 11.4139 7.51736 11.4139C6.8995 11.4139 6.30571 11.3069 5.7522 11.0949C5.19555 10.8809 4.69489 10.5832 4.26589 10.2079C3.84213 9.8382 3.50207 9.38836 3.25409 8.87259C3.00768 8.3624 2.88996 7.73201 2.88996 7.13307C2.88996 6.53412 3.00768 5.90424 3.25409 5.39354C3.50207 4.87777 3.84213 4.42843 4.26589 4.05872C4.69489 3.68343 5.19555 3.38573 5.7522 3.17172C6.30571 2.95973 6.8995 2.85272 7.51736 2.85272C8.28066 2.85272 8.98798 3.01146 9.62101 3.32589C10.219 3.62257 10.7285 4.03336 11.1539 4.52936L13.4689 2.73455L13.2 2.44598C12.4932 1.68881 11.642 1.08581 10.67 0.653716C9.69425 0.220103 8.62752 0 7.5001 0C6.44697 0 5.45243 0.189674 4.54369 0.562936C3.63966 0.935185 2.83974 1.45451 2.1659 2.10619C1.49364 2.75839 0.957916 3.53686 0.573912 4.42133C0.20665 5.26371 0 6.17557 0 7.13307C0 8.09056 0.20665 9.00343 0.573912 9.84581C0.957916 10.7293 1.49364 11.5077 2.1659 12.1604C2.83974 12.8121 3.63966 13.3315 4.54369 13.7032C5.45243 14.0775 6.44697 14.2666 7.5001 14.2666C8.62752 14.2666 9.69425 14.0465 10.67 13.6129C11.642 13.1803 12.4932 12.5778 13.2 11.8201L13.4689 11.5316L11.1539 9.73728C10.7285 10.2328 10.219 10.6436 9.62101 10.9402" transform="translate(0.063198365 0.4408655)" id="Fill-20" fill="#C5A459" fill-rule="evenodd" stroke="none" />
      </g>
    </g>
    <path d="M9.28607 11.5026C8.67559 11.8332 7.99239 12.0006 7.25566 12.0006C6.65931 12.0006 6.08619 11.8881 5.55195 11.6652C5.01468 11.4402 4.53195 11.1267 4.11738 10.7326C3.70888 10.3434 3.38015 9.87096 3.1408 9.32868C2.90348 8.79226 2.78936 8.12947 2.78936 7.49973C2.78936 6.87 2.90348 6.20721 3.1408 5.67079C3.38015 5.12851 3.70888 4.65607 4.11738 4.26736C4.53195 3.87277 5.01468 3.55977 5.55195 3.33476C6.08619 3.11187 6.65931 2.99936 7.25566 2.99936C7.99239 2.99936 8.67559 3.16626 9.28607 3.49685C9.86324 3.80879 10.3551 4.24016 10.7656 4.76165L13 2.87512L12.7405 2.57172C12.0588 1.77562 11.2372 1.14162 10.2985 0.68732C9.35677 0.230884 8.32768 0 7.239 0C6.22253 0 5.26261 0.198891 4.38551 0.591874C3.51295 0.982724 2.74139 1.52874 2.09101 2.21393C1.44164 2.90018 0.924568 3.71867 0.553933 4.64808C0.199961 5.53375 0 6.49301 0 7.49973C0 8.50645 0.199961 9.46625 0.553933 10.3514C0.924568 11.2808 1.44164 12.0993 2.09101 12.7855C2.74139 13.4702 3.51295 14.0162 4.38551 14.4076C5.26261 14.8006 6.22253 15 7.239 15C8.32768 15 9.35677 14.768 10.2985 14.3127C11.2372 13.8578 12.0588 13.2244 12.7405 12.4277L13 12.1243L10.7656 10.2373C10.3551 10.7588 9.86324 11.1907 9.28607 11.5026" transform="translate(47 0)" id="Fill-23" fill="#C5A459" fill-rule="evenodd" stroke="none" />
    <path d="M9.18494 0L9.18494 5.67597L2.81707 5.67597L2.81758 0L0 0L0 14L2.81606 14L2.81657 8.32351L3.39015 8.32351L9.18494 8.32351L9.18494 14L12 14L12 0L9.18494 0Z" transform="translate(82 23)" id="Fill-25" fill="#C5A459" fill-rule="evenodd" stroke="none" />
    <path d="M5.00353 11.0645L5.00353 8.60704L5.00353 8.32372L10.309 8.32372L10.309 5.67628L5.00353 5.67628L5.00353 5.5808L5.00353 2.93545L5.00353 2.64744L5.10729 2.64744L12.2356 2.64744L12.2356 0L3.54095 0L2.08776 0L0 0L2.08776 2.52169L2.08776 14L3.54095 14L5.24495 14L13 14L13 11.3526L5.00353 11.3526L5.00353 11.0645Z" transform="translate(24 0)" id="Fill-27" fill="#C5A459" fill-rule="evenodd" stroke="none" />
    <path d="M5.00321 11.0645L5.00321 8.60704L5.00321 8.32372L10.3089 8.32372L10.3089 5.67628L5.00321 5.67628L5.00321 5.5808L5.00321 2.93545L5.00321 2.64744L5.10698 2.64744L12.2356 2.64744L12.2356 0L3.54109 0L2.08732 0L0 0L2.08732 2.52169L2.08732 14L3.54109 14L5.24464 14L13 14L13 11.3526L5.00321 11.3526L5.00321 11.0645Z" transform="translate(78 0)" id="Fill-29" fill="#C5A459" fill-rule="evenodd" stroke="none" />
    <g id="Group-33" transform="translate(26 23)">
      <path d="M0 0L14.3691 0L14.3691 14.5894L0 14.5894L0 0Z" transform="translate(0.24155554 0.3207825)" id="Clip-32" fill="none" fill-rule="evenodd" stroke="none" />
      <g clip-path="url(#mask_3)">
        <path d="M11.5336 8.45515C11.5336 10.3929 9.90971 11.5943 8.1996 11.5943L8.1996 11.5943C6.48949 11.5943 4.8656 10.3929 4.8656 8.45515L4.8656 0L2.03012 0L0 0L2.03012 2.57361L2.03012 8.6181C2.03012 11.5448 4.41525 14.5896 8.1996 14.5896L8.1996 14.5896C11.9845 14.5896 14.3691 11.5448 14.3691 8.6181L14.3691 0L11.5336 0L11.5336 8.45515Z" transform="translate(0.24155554 0.3207825)" id="Fill-31" fill="#C5A459" fill-rule="evenodd" stroke="none" />
      </g>
    </g>
    <path d="M10.956 0L1.14994 0L1.14994 2.64753L8.6753 2.64753L0 11.8393L1.75391 13.9421L1.80779 14L12.9166 14L12.9166 11.353L4.63187 11.353L13 2.48578L10.956 0Z" transform="translate(11 23)" id="Fill-34" fill="#C5A459" fill-rule="evenodd" stroke="none" />
  </g>
  <g id="Group-23">
    <path d="M0.8556 0.8664L0.178 1.0332L0 0.3332L1.1168 0L1.7 0L1.7 3.916L0.8556 3.916L0.8556 0.8664Z" transform="translate(53.25293 24.517914)" id="Fill-1" fill="#FEFEFE" fill-rule="evenodd" stroke="none" />
    <g id="Group-22">
      <path d="M2.194 1.3276C2.194 0.9836 1.9384 0.7332 1.5112 0.7332C1.0884 0.7332 0.85 0.9776 0.85 1.3336C0.85 1.6776 1.1052 1.9164 1.5276 1.9164C1.9496 1.9164 2.194 1.672 2.194 1.3276M0.0888 3.5604L0.5388 2.9108C0.822 3.1384 1.0608 3.244 1.3884 3.244C1.8668 3.244 2.1216 2.8832 2.1776 2.3608C1.9884 2.5216 1.7276 2.6272 1.3884 2.6272C0.5444 2.6272 0 2.1608 0 1.3612C0 0.5776 0.6056 0 1.4832 0C2.0052 0 2.3108 0.128 2.6052 0.422C2.8832 0.7 3.0664 1.122 3.0664 1.9C3.0664 3.1604 2.4716 4.0216 1.3668 4.0216C0.8 4.0216 0.4168 3.8332 0.0888 3.5604" transform="translate(55.77588 24.47896)" id="Fill-2" fill="#FEFEFE" fill-rule="evenodd" stroke="none" />
      <path d="M1.8272 0.7392L0 0.7392L0 0L2.7992 0L2.7992 0.6444L1.0548 3.8884L0.0884 3.8884L1.8272 0.7392Z" transform="translate(59.52156 24.54552)" id="Fill-4" fill="#FEFEFE" fill-rule="evenodd" stroke="none" />
      <g id="Group-8" transform="translate(62.4 24.4)">
        <path d="M0 0L2.91632 0L2.91632 3.9552L0 3.9552L0 0Z" transform="translate(0.39408 0.14564)" id="Clip-7" fill="none" fill-rule="evenodd" stroke="none" />
        <g clip-path="url(#mask_4)">
          <path d="M0 3.2828L0.5888 2.722C0.8556 3.022 1.1332 3.1888 1.5276 3.1888C1.8496 3.1888 2.0776 3.0052 2.0776 2.7056C2.0776 2.3884 1.7944 2.2104 1.3164 2.2104L0.9608 2.2104L0.8276 1.6664L1.7556 0.7332L0.228 0.7332L0.228 0L2.8556 0L2.8556 0.644L1.872 1.5832C2.3996 1.672 2.9164 1.9496 2.9164 2.6832C2.9164 3.4164 2.3828 3.9552 1.5164 3.9552C0.8164 3.9552 0.3336 3.6772 0 3.2828" transform="translate(0.39408 0.14564)" id="Fill-6" fill="#FEFEFE" fill-rule="evenodd" stroke="none" />
        </g>
      </g>
      <g id="Group-11" transform="translate(0 24.4)">
        <path d="M0 0L2.96076 0L2.96076 3.8884L0 3.8884L0 0Z" transform="translate(0 0.14564)" id="Clip-10" fill="none" fill-rule="evenodd" stroke="none" />
        <g clip-path="url(#mask_5)">
          <path d="M0 0L2.9332 0L2.9332 0.7612L0.85 0.7612L0.85 1.5496L2.6832 1.5496L2.6832 2.3108L0.85 2.3108L0.85 3.1272L2.9608 3.1272L2.9608 3.8884L0 3.8884L0 0Z" transform="translate(-4E-05 0.14564)" id="Fill-9" fill="#FEFEFE" fill-rule="evenodd" stroke="none" />
        </g>
      </g>
      <path d="M0 3.3772L0.5056 2.7716C0.8552 3.0604 1.222 3.244 1.6668 3.244C2.0164 3.244 2.2272 3.1048 2.2272 2.8664C2.2272 2.6496 2.094 2.5384 1.4444 2.3716C0.6608 2.1716 0.1556 1.9548 0.1556 1.172C0.1556 0.4668 0.722 0 1.5164 0C2.0828 0 2.566 0.1776 2.9604 0.494L2.5164 1.1384C2.172 0.8996 1.8332 0.7552 1.5052 0.7552C1.1776 0.7552 1.0052 0.9052 1.0052 1.1052C1.0052 1.3608 1.172 1.444 1.844 1.6164C2.6328 1.8216 3.0776 2.1048 3.0776 2.7936C3.0776 3.566 2.4884 3.9996 1.65 3.9996C1.0608 3.9996 0.4664 3.794 0 3.3772" transform="translate(3.4568 24.49032)" id="Fill-12" fill="#FEFEFE" fill-rule="evenodd" stroke="none" />
      <path d="M1.1832 0.7888L0 0.7888L0 0L3.222 0L3.222 0.7888L2.0384 0.7888L2.0384 3.8884L1.1832 3.8884L1.1832 0.7888Z" transform="translate(7.00172 24.54552)" id="Fill-14" fill="#FEFEFE" fill-rule="evenodd" stroke="none" />
      <path d="M0 52.494L65.7104 52.494L65.7104 0L0 0L0 52.494Z" transform="translate(0 0.306)" id="Clip-17" fill="none" fill-rule="evenodd" stroke="none" />
      <g clip-path="url(#mask_6)">
        <path d="M0 0.8888L0.9 0.8888L0.9 0L0 0L0 0.8888Z" transform="translate(10.758 27.5452)" id="Fill-16" fill="#FEFEFE" fill-rule="evenodd" stroke="none" />
        <path d="M0 2.9652L22.686 2.9652L22.686 0L0 0L0 2.9652Z" transform="translate(21.1092 0.3056)" id="Fill-18" fill="#C6A55B" fill-rule="evenodd" stroke="none" />
        <path d="M20.0348 3.1892L10.2924 9.9976L5.1788 6.4272L10.134 2.9648L20.0348 2.9648L20.0348 3.1892ZM20.0348 26.3044L10.2916 33.1228L5.1772 29.5512L20.0348 19.1576L20.0348 26.3044ZM20.0348 32.1228L20.0348 33.8016L14.4948 33.8016L20.0348 29.9248L20.0348 32.1228ZM23.0004 0L9.2004 0L0 6.4284L10.2932 13.6148L20.0348 6.8076L20.0348 15.5388L0.0012 29.554L10.3296 36.7664L23.0004 36.7664L23.0004 0Z" transform="translate(6.24252 8.16972)" id="Fill-19" fill="#C6A55B" fill-rule="evenodd" stroke="none" />
        <path d="M0 2.9648L22.686 2.9648L22.686 0L0 0L0 2.9648Z" transform="translate(21.1092 49.8352)" id="Fill-20" fill="#C6A55B" fill-rule="evenodd" stroke="none" />
        <path d="M12.944 33.8016L2.722 33.8016L12.7852 26.7684L17.8988 30.3396L12.944 33.8016ZM2.9656 10.5176L12.7916 3.6432L17.9 7.21L2.9656 17.6612L2.9656 10.5176ZM2.9656 6.8076L2.9656 2.9648L8.5876 2.9648L2.9656 6.8984L2.9656 6.8076ZM12.7844 23.1516L2.9656 30.0132L2.9656 21.2812L23.076 7.2072L12.7544 0L0 0L0 36.7664L13.8776 36.7664L23.0776 30.3396L12.7844 23.1516Z" transform="translate(35.6622 8.16984)" id="Fill-21" fill="#C6A55B" fill-rule="evenodd" stroke="none" />
      </g>
    </g>
  </g>
</svg>