<?xml version="1.0" encoding="utf-8"?>
<!-- Generator: Adobe Illustrator 24.1.0, SVG Export Plug-In . SVG Version: 6.00 Build 0)  -->
<svg version="1.1" id="Layer_1" xmlns="http://www.w3.org/2000/svg" xmlns:xlink="http://www.w3.org/1999/xlink" x="0px" y="0px"
	 viewBox="0 0 453.54 170.08" style="enable-background:new 0 0 453.54 170.08;" xml:space="preserve">
<style type="text/css">
	.st0{fill:#24236A;}
	.st1{fill:#C6A55A;}
</style>
<circle class="st0" cx="223.81" cy="84.47" r="3.87"/>
<circle class="st0" cx="235.57" cy="84.47" r="3.87"/>
<path class="st0" d="M280.27,119.25l-1.68-3.22c4.38-1.84,7.47-6.17,7.47-11.22c0-6.72-5.45-12.17-12.17-12.17h-9.8h-3.82h-3.77
	h-5.44l5.44,6.57v29.88h7.6v-2.72v-9.39h6.58l3.28,6.57c1.69,3.39,4.77,5.54,8.57,5.54h5.19v-6.98h-2.55
	C282.4,122.11,280.96,120.59,280.27,119.25z M273.38,109.88h-9.29V99.72h9.29c2.81,0,5.08,2.27,5.08,5.08
	C278.46,107.6,276.18,109.88,273.38,109.88z"/>
<polygon class="st0" points="270.97,34.52 276.41,41.08 276.41,70.96 283.91,70.96 283.91,34.52 276.41,34.52 "/>
<polygon class="st0" points="169.42,34.52 174.86,41.08 174.86,70.96 182.36,70.96 182.36,34.52 174.86,34.52 "/>
<polygon class="st0" points="218.2,58.02 198.46,34.52 194.06,34.52 188.62,34.52 194.06,41.08 194.06,70.96 201.57,70.96 
	201.57,50.07 218.96,70.96 225.8,70.96 225.8,34.52 218.2,34.52 "/>
<polygon class="st0" points="291.74,92.63 297.18,99.2 297.18,129.08 304.69,129.08 304.69,92.63 297.18,92.63 "/>
<polygon class="st0" points="439.41,58.02 419.66,34.52 415.27,34.52 409.83,34.52 415.27,41.08 415.27,70.96 422.78,70.96 
	422.78,50.07 440.17,70.96 447.01,70.96 447.01,34.52 439.41,34.52 "/>
<polygon class="st0" points="358.23,49.29 341.05,49.29 341.05,34.52 333.45,34.52 333.45,70.96 341.05,70.96 341.05,56.19 
	342.6,56.19 358.23,56.19 358.23,70.96 365.82,70.96 365.82,34.52 358.23,34.52 "/>
<path class="st0" d="M336.89,120.94c-1.64,0.84-3.48,1.27-5.46,1.27c-1.6,0-3.15-0.29-4.58-0.85c-1.45-0.57-2.74-1.37-3.86-2.38
	c-1.1-0.99-1.98-2.19-2.63-3.58c-0.64-1.37-0.95-3.06-0.95-4.66c0-1.6,0.31-3.29,0.95-4.66c0.64-1.38,1.53-2.59,2.63-3.58
	c1.11-1,2.41-1.8,3.86-2.38c1.44-0.57,2.98-0.85,4.58-0.85c1.98,0,3.82,0.43,5.46,1.27c1.55,0.79,2.88,1.89,3.98,3.22l6.01-4.81
	l-0.7-0.77c-1.83-2.03-4.04-3.64-6.57-4.8c-2.53-1.16-5.3-1.75-8.23-1.75c-2.73,0-5.32,0.51-7.68,1.51c-2.35,1-4.42,2.39-6.17,4.13
	c-1.75,1.75-3.14,3.83-4.13,6.2c-0.95,2.26-1.49,4.7-1.49,7.27c0,2.56,0.54,5.01,1.49,7.26c1,2.37,2.39,4.45,4.13,6.2
	c1.75,1.75,3.83,3.14,6.17,4.13c2.36,1,4.94,1.51,7.68,1.51c2.93,0,5.7-0.59,8.23-1.75c2.52-1.16,4.73-2.77,6.57-4.8l0.7-0.77
	l-6.01-4.81C339.77,119.05,338.45,120.15,336.89,120.94z"/>
<path class="st0" d="M316.66,62.83c-1.64,0.84-3.48,1.27-5.46,1.27c-1.6,0-3.15-0.29-4.58-0.85c-1.45-0.57-2.74-1.37-3.86-2.38
	c-1.1-0.99-1.98-2.19-2.63-3.58c-0.64-1.37-0.95-3.06-0.95-4.66c0-1.6,0.31-3.29,0.95-4.66c0.64-1.38,1.53-2.59,2.63-3.58
	c1.11-1,2.41-1.8,3.86-2.38c1.44-0.57,2.98-0.85,4.58-0.85c1.98,0,3.82,0.43,5.46,1.27c1.55,0.79,2.88,1.89,3.98,3.22l6.01-4.81
	l-0.7-0.77c-1.83-2.03-4.04-3.64-6.57-4.8c-2.53-1.16-5.3-1.75-8.23-1.75c-2.73,0-5.32,0.51-7.68,1.51c-2.35,1-4.42,2.39-6.17,4.13
	c-1.75,1.75-3.14,3.83-4.13,6.2c-0.95,2.26-1.49,4.7-1.49,7.27c0,2.56,0.54,5.01,1.49,7.26c1,2.37,2.39,4.45,4.13,6.2
	c1.75,1.75,3.83,3.14,6.17,4.13c2.36,1,4.94,1.51,7.68,1.51c2.93,0,5.7-0.59,8.23-1.75c2.52-1.16,4.73-2.77,6.57-4.8l0.7-0.77
	l-6.01-4.81C319.53,60.93,318.21,62.03,316.66,62.83z"/>
<polygon class="st0" points="377.77,92.63 377.77,107.41 360.59,107.41 360.59,92.63 352.99,92.63 352.99,129.08 360.59,129.08 
	360.59,114.3 362.13,114.3 377.77,114.3 377.77,129.08 385.36,129.08 385.36,92.63 "/>
<polygon class="st0" points="245.39,63.32 245.39,56.92 245.39,56.19 259.21,56.19 259.21,49.29 245.39,49.29 245.39,49.05 
	245.39,42.16 245.39,41.41 245.66,41.41 264.23,41.41 264.23,34.52 241.58,34.52 241.58,34.52 237.79,34.52 232.35,34.52 
	237.79,41.08 237.79,70.96 241.58,70.96 241.58,70.97 246.02,70.97 266.22,70.97 266.22,64.07 245.39,64.07 "/>
<polygon class="st0" points="385.14,63.32 385.14,56.92 385.14,56.19 398.96,56.19 398.96,49.29 385.14,49.29 385.14,49.05 
	385.14,42.16 385.14,41.41 385.41,41.41 403.98,41.41 403.98,34.52 381.33,34.52 381.33,34.52 377.54,34.52 372.1,34.52 
	377.54,41.08 377.54,70.96 381.33,70.96 381.33,70.97 385.77,70.97 405.97,70.97 405.97,64.07 385.14,64.07 "/>
<path class="st0" d="M238.69,114.2c0,4.94-4.35,8.01-8.93,8.01c0,0,0,0,0,0s0,0,0,0c-4.58,0-8.93-3.07-8.93-8.01V92.63h-7.59h-5.44
	l5.44,6.57v15.42c0,7.47,6.39,15.23,16.52,15.23c0,0,0,0,0,0s0,0,0,0c10.14,0,16.52-7.77,16.52-15.23V92.63h-7.59V114.2z"/>
<polygon class="st0" points="198.25,92.63 172.53,92.63 172.53,99.53 192.27,99.53 169.52,123.46 174.12,128.93 174.26,129.08 
	203.39,129.08 203.39,122.19 181.66,122.19 203.61,99.1 "/>
<path class="st1" d="M122.03,78.94l-1.39,0.34l-0.36-1.43l2.29-0.68h1.19v8.02h-1.73V78.94z"/>
<path class="st1" d="M125.62,84.37l0.92-1.33c0.58,0.47,1.07,0.68,1.74,0.68c0.98,0,1.5-0.74,1.62-1.81
	c-0.39,0.33-0.92,0.55-1.62,0.55c-1.73,0-2.84-0.96-2.84-2.59c0-1.6,1.24-2.79,3.04-2.79c1.07,0,1.69,0.26,2.3,0.86
	c0.57,0.57,0.94,1.43,0.94,3.03c0,2.58-1.22,4.35-3.48,4.35C127.08,85.32,126.29,84.93,125.62,84.37z M129.93,79.8
	c0-0.71-0.52-1.22-1.4-1.22c-0.86,0-1.35,0.5-1.35,1.23c0,0.71,0.52,1.19,1.39,1.19C129.43,81.01,129.93,80.51,129.93,79.8z"/>
<path class="st1" d="M136.85,78.73h-3.74v-1.51h5.73v1.32l-3.57,6.64h-1.98L136.85,78.73z"/>
<path class="st1" d="M139.81,83.94l1.21-1.15c0.55,0.61,1.11,0.96,1.92,0.96c0.66,0,1.13-0.38,1.13-0.99c0-0.65-0.58-1.01-1.56-1.01
	h-0.73l-0.27-1.11l1.9-1.91h-3.13v-1.5h5.38v1.32l-2.01,1.92c1.08,0.18,2.14,0.75,2.14,2.25s-1.09,2.6-2.87,2.6
	C141.48,85.32,140.5,84.75,139.81,83.94z"/>
<path class="st1" d="M11.23,77.22h6.01v1.56h-4.27v1.61h3.75v1.56h-3.75v1.67h4.32v1.56h-6.06V77.22z"/>
<path class="st1" d="M18.31,84.02l1.03-1.24c0.72,0.59,1.47,0.97,2.38,0.97c0.72,0,1.15-0.28,1.15-0.77c0-0.44-0.27-0.67-1.6-1.01
	c-1.6-0.41-2.64-0.85-2.64-2.46c0-1.44,1.16-2.4,2.79-2.4c1.16,0,2.15,0.36,2.96,1.01l-0.91,1.32c-0.71-0.49-1.4-0.78-2.07-0.78
	c-0.67,0-1.02,0.31-1.02,0.72c0,0.52,0.34,0.69,1.72,1.05c1.62,0.42,2.53,1,2.53,2.41c0,1.58-1.21,2.47-2.92,2.47
	C20.48,85.3,19.26,84.88,18.31,84.02z"/>
<path class="st1" d="M27.99,78.83h-2.42v-1.61h6.6v1.61h-2.42v6.35h-1.75V78.83z"/>
<path class="st1" d="M33.26,83.36h1.84v1.82h-1.84V83.36z"/>
<rect x="54.46" y="27.58" class="st0" width="46.45" height="6.07"/>
<path class="st0" d="M71.11,43.69H42.85L24.01,56.85l21.08,14.72l19.95-13.94v17.88l-41.02,28.7l21.15,14.77h25.95V43.69z
	 M65.04,109.46v3.44H53.69l11.34-7.94V109.46z M65.04,97.55l-19.95,13.96l-10.47-7.31l30.42-21.28V97.55z M65.04,50.22L45.09,64.16
	l-10.47-7.31l10.15-7.09h20.27V50.22z"/>
<rect x="54.46" y="129" class="st0" width="46.45" height="6.07"/>
<path class="st0" d="M110.43,91.09l-20.11,14.05V87.26l41.18-28.82l-21.14-14.76H84.25v75.29h28.42l18.84-13.16L110.43,91.09z
	 M90.33,57.63v-7.87h11.51l-11.51,8.05V57.63z M90.33,65.22l20.12-14.08l10.46,7.3l-30.58,21.4V65.22z M110.76,112.9H89.83
	l20.61-14.4l10.47,7.31L110.76,112.9z"/>
</svg>
