<?xml version="1.0" encoding="utf-8"?>
<svg width="141px" height="42px" viewBox="0 0 141 42" version="1.1" xmlns:xlink="http://www.w3.org/1999/xlink" xmlns="http://www.w3.org/2000/svg">
  <defs>
    <path d="M0 0L11.0901 0L11.0901 11.3069L0 11.3069L0 0Z" id="path_1" />
    <path d="M0 0L10.7625 0L10.7625 11.2897L0 11.2897L0 0Z" transform="matrix(1 0 0 1 -1.1355361E-14 0)" id="path_2" />
    <path d="M0 0L11.4818 0L11.4818 11.5452L0 11.5452L0 0Z" transform="matrix(1 0 0 1 2.2710722E-14 0)" id="path_3" />
    <path d="M0 0L2.35221 0L2.35221 3.16452L0 3.16452L0 0Z" id="path_4" />
    <path d="M0 0L2.38806 0L2.38806 3.11108L0 3.11108L0 0Z" id="path_5" />
    <path d="M0 42L53 42L53 0L0 0L0 42Z" id="path_6" />
    <clipPath id="mask_1">
      <use xlink:href="#path_1" />
    </clipPath>
    <clipPath id="mask_2">
      <use xlink:href="#path_2" />
    </clipPath>
    <clipPath id="mask_3">
      <use xlink:href="#path_3" />
    </clipPath>
    <clipPath id="mask_4">
      <use xlink:href="#path_4" />
    </clipPath>
    <clipPath id="mask_5">
      <use xlink:href="#path_5" />
    </clipPath>
    <clipPath id="mask_6">
      <use xlink:href="#path_6" />
    </clipPath>
  </defs>
  <g id="Group-36" transform="translate(56 5)">
    <path d="M1.19859 2.37403C1.85929 2.37403 2.39719 1.84133 2.39719 1.1866C2.39719 0.532283 1.85929 0 1.19859 0C0.537475 0 0 0.532283 0 1.1866C0 1.84133 0.537475 2.37403 1.19859 2.37403" transform="translate(23.971874 15.035527)" id="Fill-1" fill="#DFB15B" fill-rule="evenodd" stroke="none" />
    <path d="M1.19859 2.37403C1.85929 2.37403 2.39719 1.84133 2.39719 1.1866C2.39719 0.532283 1.85929 0 1.19859 0C0.537475 0 0 0.532283 0 1.1866C0 1.84133 0.537475 2.37403 1.19859 2.37403" transform="translate(27.967188 15.035527)" id="Fill-3" fill="#DFB15B" fill-rule="evenodd" stroke="none" />
    <path d="M6.81597 5.2419L3.97944 5.2419L3.97944 2.15333L6.81597 2.15333C7.67273 2.15333 8.36735 2.84413 8.36735 3.69762C8.36735 4.55028 7.67273 5.2419 6.81597 5.2419M8.91848 8.08975L8.40716 7.11032C9.7458 6.55124 10.6863 5.23488 10.6863 3.69927C10.6863 1.65577 9.02298 0 6.97106 0L3.97944 0L2.81206 0L1.66003 0L0 0L1.66003 1.9956L1.66003 11.0788L3.97944 11.0788L3.97944 10.2526L3.97944 7.39854L5.98657 7.39854L6.98682 9.39537C7.50353 10.4268 8.44407 11.0788 9.6019 11.0788L11.1869 11.0788L11.1869 8.95851L10.4089 8.95851C9.57163 8.95851 9.13122 8.49605 8.91848 8.08975" transform="translate(33.560623 18.200901)" id="Fill-5" fill="#DFB15B" fill-rule="evenodd" stroke="none" />
    <path d="M0 0L1.67855 1.99552L1.67855 11.0788L3.99531 11.0788L3.99531 0L1.67855 0L0 0Z" transform="translate(31.163437 0)" id="Fill-7" fill="#DFB15B" fill-rule="evenodd" stroke="none" />
    <path d="M0 0L1.67855 1.99552L1.67855 11.0788L3.99531 11.0788L3.99531 0L1.67855 0L0 0Z" id="Fill-9" fill="#DFB15B" fill-rule="evenodd" stroke="none" />
    <path d="M8.90143 7.14268L2.95951 0L1.63672 0L0 0L1.63672 1.99552L1.63672 11.0788L3.89519 11.0788L3.89519 4.72889L9.12993 11.0788L11.1869 11.0788L11.1869 0L8.90143 0L8.90143 7.14268Z" transform="translate(5.593437 0)" id="Fill-11" fill="#DFB15B" fill-rule="evenodd" stroke="none" />
    <path d="M0 0L1.67855 1.9956L1.67855 11.0788L3.99531 11.0788L3.99531 0L1.67855 0L0 0Z" transform="translate(46.345623 18.200901)" id="Fill-13" fill="#DFB15B" fill-rule="evenodd" stroke="none" />
    <g id="Group-17" transform="translate(73.909874 0.28591743)">
      <path d="M0 0L11.0901 0L11.0901 11.3069L0 11.3069L0 0Z" id="Clip-16" fill="none" fill-rule="evenodd" stroke="none" />
      <g clip-path="url(#mask_1)">
        <path d="M8.8246 7.28974L2.93357 0L1.6226 0L0 0L1.6226 2.03661L1.6226 11.3069L3.86158 11.3069L3.86158 4.82625L9.05114 11.3069L11.0903 11.3069L11.0903 0L8.8246 0L8.8246 7.28974Z" id="Fill-15" fill="#DFB15B" fill-rule="evenodd" stroke="none" />
      </g>
    </g>
    <path d="M7.33894 4.49189L2.25061 4.49189L2.25102 0L0 0L0 11.0788L2.24981 11.0788L2.25021 6.58692L2.70895 6.58692L7.33894 6.58692L7.33894 11.0788L9.58875 11.0788L9.58875 0L7.33894 0L7.33894 4.49189Z" transform="translate(50.340935 0)" id="Fill-18" fill="#DFB15B" fill-rule="evenodd" stroke="none" />
    <g id="Group-22" transform="translate(52.788624 18.549778)">
      <path d="M0 0L10.7625 0L10.7625 11.2897L0 11.2897L0 0Z" transform="matrix(1 0 0 1 -1.1355361E-14 0)" id="Clip-21" fill="none" fill-rule="evenodd" stroke="none" />
      <g clip-path="url(#mask_2)">
        <path d="M7.68779 8.65749C7.18196 8.90631 6.61676 9.03233 6.00684 9.03233C5.51313 9.03233 5.03866 8.94765 4.59637 8.77989C4.15157 8.61053 3.75151 8.37495 3.40871 8.07797C3.0701 7.7854 2.79837 7.42942 2.60022 7.02127C2.40332 6.61753 2.30926 6.11868 2.30926 5.6447C2.30926 5.17073 2.40332 4.67228 2.60022 4.26814C2.79837 3.85999 3.0701 3.50441 3.40871 3.21184C3.75151 2.91486 4.15157 2.67928 4.59637 2.50992C5.03866 2.34216 5.51313 2.25748 6.00684 2.25748C6.61676 2.25748 7.18196 2.3831 7.68779 2.63192C8.16561 2.8667 8.57278 3.19178 8.91265 3.58428L10.7625 2.16397L10.5476 1.93561C9.98284 1.33643 9.30268 0.859247 8.52596 0.517314C7.74631 0.174177 6.89393 0 5.99305 0C5.15153 0 4.35683 0.150097 3.63069 0.445476C2.90832 0.740052 2.26913 1.15101 1.73069 1.66672C1.19351 2.18283 0.765434 2.79887 0.458592 3.49879C0.165126 4.1654 0 4.88699 0 5.6447C0 6.40242 0.165126 7.12481 0.458592 7.79142C0.765434 8.49053 1.19351 9.10658 1.73069 9.62309C2.26913 10.1388 2.90832 10.5498 3.63069 10.8439C4.35683 11.1401 5.15153 11.2898 5.99305 11.2898C6.89393 11.2898 7.74631 11.1156 8.52596 10.7725C9.30268 10.4302 9.98284 9.95338 10.5476 9.3538L10.7625 9.12544L8.91265 7.70553C8.57278 8.09763 8.16561 8.42271 7.68779 8.65749" transform="matrix(1 0 0 1 -1.1355361E-14 0)" id="Fill-20" fill="#DFB15B" fill-rule="evenodd" stroke="none" />
      </g>
    </g>
    <path d="M7.42015 9.10252C6.93234 9.36413 6.38642 9.49663 5.79773 9.49663C5.32121 9.49663 4.86325 9.4076 4.43636 9.23122C4.00704 9.05315 3.62131 8.80504 3.29005 8.49321C2.96362 8.18518 2.70095 7.81132 2.5097 7.38219C2.32006 6.9577 2.22887 6.4332 2.22887 5.93487C2.22887 5.43653 2.32006 4.91203 2.5097 4.48754C2.70095 4.05841 2.96362 3.68455 3.29005 3.37694C3.62131 3.06469 4.00704 2.817 4.43636 2.63894C4.86325 2.46256 5.32121 2.37352 5.79773 2.37352C6.38642 2.37352 6.93234 2.5056 7.42015 2.76721C7.88134 3.01406 8.27434 3.35542 8.60238 3.7681L10.3878 2.27521L10.1804 2.03511C9.63571 1.40513 8.97923 0.903416 8.22915 0.543906C7.47664 0.182709 6.65433 0 5.78441 0C4.97219 0 4.20516 0.157391 3.5043 0.468375C2.80707 0.777672 2.19054 1.20976 1.67085 1.75198C1.15196 2.29504 0.738788 2.94275 0.442627 3.67822C0.159781 4.3791 0 5.13821 0 5.93487C0 6.73153 0.159781 7.49105 0.442627 8.19151C0.738788 8.92698 1.15196 9.57469 1.67085 10.1178C2.19054 10.6596 2.80707 11.0916 3.5043 11.4014C4.20516 11.7123 4.97219 11.8702 5.78441 11.8702C6.65433 11.8702 7.47664 11.6866 8.22915 11.3262C8.97923 10.9663 9.63571 10.465 10.1804 9.83462L10.3878 9.59452L8.60238 8.10121C8.27434 8.51388 7.88134 8.85567 7.42015 9.10252" transform="translate(37.55594 0)" id="Fill-23" fill="#DFB15B" fill-rule="evenodd" stroke="none" />
    <path d="M7.33934 0L7.33934 4.49164L2.25102 4.49164L2.25142 0L0 0L0 11.0788L2.25021 11.0788L2.25061 6.58675L2.70895 6.58675L7.33934 6.58675L7.33934 11.0788L9.58875 11.0788L9.58875 0L7.33934 0Z" transform="translate(65.523125 18.200901)" id="Fill-25" fill="#DFB15B" fill-rule="evenodd" stroke="none" />
    <path d="M3.99813 8.75586L3.99813 6.81112L3.99813 6.58692L8.2375 6.58692L8.2375 4.49189L3.99813 4.49189L3.99813 4.41633L3.99813 2.32295L3.99813 2.09503L4.08105 2.09503L9.77701 2.09503L9.77701 0L2.82944 0L1.66825 0L0 0L1.66825 1.99552L1.66825 11.0788L2.82944 11.0788L4.19104 11.0788L10.3878 11.0788L10.3878 8.98378L3.99813 8.98378L3.99813 8.75586Z" transform="translate(19.1775 0)" id="Fill-27" fill="#DFB15B" fill-rule="evenodd" stroke="none" />
    <path d="M3.99788 8.75586L3.99788 6.81112L3.99788 6.58692L8.23742 6.58692L8.23742 4.49189L3.99788 4.49189L3.99788 4.41633L3.99788 2.32295L3.99788 2.09503L4.08079 2.09503L9.77699 2.09503L9.77699 0L2.82956 0L1.6679 0L0 0L1.6679 1.99552L1.6679 11.0788L2.82956 11.0788L4.19079 11.0788L10.3878 11.0788L10.3878 8.98378L3.99788 8.98378L3.99788 8.75586Z" transform="translate(62.326874 0)" id="Fill-29" fill="#DFB15B" fill-rule="evenodd" stroke="none" />
    <g id="Group-33" transform="translate(20.968643 18.45475)">
      <path d="M0 0L11.4818 0L11.4818 11.5452L0 11.5452L0 0Z" transform="matrix(1 0 0 1 2.2710722E-14 0)" id="Clip-32" fill="none" fill-rule="evenodd" stroke="none" />
      <g clip-path="url(#mask_3)">
        <path d="M9.21607 6.69093C9.21607 8.22439 7.91848 9.17506 6.55199 9.17506L6.55199 9.17506C5.18551 9.17506 3.88792 8.22439 3.88792 6.69093L3.88792 0L1.62219 0L0 0L1.62219 2.03661L1.62219 6.81988C1.62219 9.13587 3.52806 11.5454 6.55199 11.5454L6.55199 11.5454C9.57633 11.5454 11.4818 9.13587 11.4818 6.81988L11.4818 0L9.21607 0L9.21607 6.69093Z" transform="matrix(1 0 0 1 2.2710722E-14 0)" id="Fill-31" fill="#DFB15B" fill-rule="evenodd" stroke="none" />
      </g>
    </g>
    <path d="M8.75454 0L0.918873 0L0.918873 2.09511L6.93211 2.09511L0 9.36895L1.40149 11.033L1.44453 11.0788L10.3212 11.0788L10.3212 8.98411L3.70115 8.98411L10.3878 1.96711L8.75454 0Z" transform="translate(8.789687 18.200901)" id="Fill-34" fill="#DFB15B" fill-rule="evenodd" stroke="none" />
  </g>
  <g id="Group-23">
    <path d="M0.690101 0.693199L0.143569 0.826654L0 0.26659L0.900777 0L1.37117 0L1.37117 3.13316L0.690101 3.13316L0.690101 0.693199Z" transform="translate(42.95221 19.37175)" id="Fill-1" fill="#FEFEFE" fill-rule="evenodd" stroke="none" />
    <g id="Group-22">
      <path d="M1.76961 1.0622C1.76961 0.78697 1.56345 0.586627 1.21889 0.586627C0.87787 0.586627 0.685584 0.782169 0.685584 1.067C0.685584 1.34223 0.891421 1.5333 1.23212 1.5333C1.57249 1.5333 1.76961 1.33775 1.76961 1.0622M0.0716234 2.84865L0.43458 2.32891C0.663 2.51101 0.855609 2.5955 1.11984 2.5955C1.5057 2.5955 1.71122 2.30682 1.75639 1.88886C1.60378 2.01751 1.39343 2.102 1.11984 2.102C0.439096 2.102 0 1.72884 0 1.08908C0 0.462133 0.488458 0 1.1963 0C1.61733 0 1.86382 0.102412 2.10127 0.337639C2.3255 0.560064 2.47326 0.897703 2.47326 1.52017C2.47326 2.52861 1.99352 3.21765 1.10242 3.21765C0.645256 3.21765 0.336178 3.06691 0.0716234 2.84865" transform="translate(44.98712 19.340578)" id="Fill-2" fill="#FEFEFE" fill-rule="evenodd" stroke="none" />
      <path d="M1.47376 0.591428L0 0.591428L0 0L2.25775 0L2.25775 0.515579L0.850769 3.11108L0.0713007 3.11108L1.47376 0.591428Z" transform="translate(48.00827 19.393833)" id="Fill-4" fill="#FEFEFE" fill-rule="evenodd" stroke="none" />
      <g id="Group-8" transform="translate(50.647785 19.393929)">
        <path d="M0 0L2.35221 0L2.35221 3.16452L0 3.16452L0 0Z" id="Clip-7" fill="none" fill-rule="evenodd" stroke="none" />
        <g clip-path="url(#mask_4)">
          <path d="M0 2.62654L0.474908 2.17785C0.690101 2.41788 0.914005 2.55133 1.23212 2.55133C1.49183 2.55133 1.67573 2.40443 1.67573 2.16473C1.67573 1.91094 1.44731 1.76852 1.06177 1.76852L0.774952 1.76852L0.667517 1.33327L1.41601 0.586627L0.183898 0.586627L0.183898 0L2.30324 0L2.30324 0.515259L1.5099 1.2667C1.93544 1.33775 2.35228 1.55986 2.35228 2.14681C2.35228 2.73343 1.92189 3.16452 1.22308 3.16452C0.658483 3.16452 0.269072 2.9421 0 2.62654" id="Fill-6" fill="#FEFEFE" fill-rule="evenodd" stroke="none" />
        </g>
      </g>
      <g id="Group-11" transform="translate(0 19.393929)">
        <path d="M0 0L2.38806 0L2.38806 3.11108L0 3.11108L0 0Z" id="Clip-10" fill="none" fill-rule="evenodd" stroke="none" />
        <g clip-path="url(#mask_5)">
          <path d="M0 0L2.36583 0L2.36583 0.60903L0.685584 0.60903L0.685584 1.23982L2.16419 1.23982L2.16419 1.84885L0.685584 1.84885L0.685584 2.50205L2.38809 2.50205L2.38809 3.11108L0 3.11108L0 0Z" transform="translate(-3.226278E-05 0)" id="Fill-9" fill="#FEFEFE" fill-rule="evenodd" stroke="none" />
        </g>
      </g>
      <path d="M0 2.70207L0.407802 2.21753C0.689778 2.4486 0.985628 2.5955 1.34439 2.5955C1.62637 2.5955 1.79639 2.48412 1.79639 2.29338C1.79639 2.11992 1.68896 2.03095 1.16501 1.8975C0.532981 1.73748 0.125502 1.56402 0.125502 0.937707C0.125502 0.373483 0.582343 0 1.22308 0C1.67992 0 2.06966 0.142096 2.38777 0.395245L2.02965 0.910824C1.75187 0.719762 1.4786 0.604229 1.21405 0.604229C0.949816 0.604229 0.810764 0.724243 0.810764 0.884261C0.810764 1.08876 0.945299 1.15533 1.48731 1.29327C2.12354 1.45745 2.4823 1.68403 2.4823 2.23514C2.4823 2.85313 2.00707 3.20005 1.33084 3.20005C0.855609 3.20005 0.376184 3.03555 0 2.70207" transform="translate(2.788149 19.349667)" id="Fill-12" fill="#FFFFFF" fill-rule="evenodd" stroke="none" />
      <path d="M0.954333 0.631112L0 0.631112L0 0L2.59877 0L2.59877 0.631112L1.64411 0.631112L1.64411 3.11108L0.954333 3.11108L0.954333 0.631112Z" transform="translate(5.647373 19.393833)" id="Fill-14" fill="#FFFFFF" fill-rule="evenodd" stroke="none" />
      <path d="M0 42L53 42L53 0L0 0L0 42Z" id="Clip-17" fill="none" fill-rule="evenodd" stroke="none" />
      <g clip-path="url(#mask_6)">
        <path d="M0 0.711121L0.725913 0.711121L0.725913 0L0 0L0 0.711121Z" transform="translate(8.6770735 21.79385)" id="Fill-16" fill="#FFFFFF" fill-rule="evenodd" stroke="none" />
        <path d="M0 2.37243L18.2978 2.37243L18.2978 0L0 0L0 2.37243Z" transform="translate(17.026035 -0.00032003658)" id="Fill-18" fill="#FFFFFF" fill-rule="evenodd" stroke="none" />
        <path d="M16.1595 2.55165L8.30153 7.99899L4.17706 5.14235L8.17377 2.37211L16.1595 2.37211L16.1595 2.55165ZM16.1595 21.0459L8.30089 26.5013L4.17577 23.6437L16.1595 15.3278L16.1595 21.0459ZM16.1595 25.7012L16.1595 27.0444L11.6911 27.0444L16.1595 23.9426L16.1595 25.7012ZM18.5514 0L7.42076 0L0 5.14331L8.30218 10.8931L16.1595 5.4467L16.1595 12.4325L0.000967883 23.6459L8.33154 29.4165L18.5514 29.4165L18.5514 0Z" transform="translate(5.0350256 6.291695)" id="Fill-19" fill="#FFFFFF" fill-rule="evenodd" stroke="none" />
        <path d="M0 2.37211L18.2978 2.37211L18.2978 0L0 0L0 2.37211Z" transform="translate(17.026035 39.627888)" id="Fill-20" fill="#FFFFFF" fill-rule="evenodd" stroke="none" />
        <path d="M10.4402 27.0444L2.19548 27.0444L10.3122 21.4172L14.4366 24.2745L10.4402 27.0444ZM2.39196 8.41504L10.3173 2.91489L14.4376 5.76866L2.39196 14.1306L2.39196 8.41504ZM2.39196 5.4467L2.39196 2.37211L6.9265 2.37211L2.39196 5.51935L2.39196 5.4467ZM10.3115 18.5234L2.39196 24.0133L2.39196 17.0269L18.6124 5.76642L10.2873 0L0 0L0 29.4165L11.1932 29.4165L18.6137 24.2745L10.3115 18.5234Z" transform="translate(28.76404 6.291791)" id="Fill-21" fill="#FFFFFF" fill-rule="evenodd" stroke="none" />
      </g>
    </g>
  </g>
</svg>