<svg id="Layer_1" data-name="Layer 1" xmlns="http://www.w3.org/2000/svg" viewBox="0 0 435.78 107.49"><defs><style>.cls-1{fill:#c6a55a;}.cls-2{fill:#fff;}</style></defs><circle class="cls-1" cx="212.58" cy="56.89" r="3.87"/><circle class="cls-1" cx="224.34" cy="56.89" r="3.87"/><path class="cls-1" d="M280.27,119.25,278.59,116a12.17,12.17,0,0,0-4.7-23.4H251.05l5.44,6.57v29.88h7.6V117h6.57l3.28,6.57a9.42,9.42,0,0,0,8.56,5.54h5.2v-7h-2.55A5.18,5.18,0,0,1,280.27,119.25Zm-6.89-9.37h-9.29V99.72h9.29a5.08,5.08,0,0,1,0,10.16Z" transform="translate(-11.23 -27.58)"/><polygon class="cls-1" points="259.74 6.93 265.18 13.5 265.18 43.38 272.68 43.38 272.68 6.93 265.18 6.93 259.74 6.93"/><polygon class="cls-1" points="158.19 6.93 163.63 13.5 163.63 43.38 171.13 43.38 171.13 6.93 163.63 6.93 158.19 6.93"/><polygon class="cls-1" points="206.97 30.43 187.23 6.93 182.83 6.93 177.39 6.93 182.83 13.5 182.83 43.38 190.34 43.38 190.34 22.49 207.73 43.38 214.57 43.38 214.57 6.93 206.97 6.93 206.97 30.43"/><polygon class="cls-1" points="280.51 65.05 285.95 71.61 285.95 101.5 293.46 101.5 293.46 65.05 285.95 65.05 280.51 65.05"/><polygon class="cls-1" points="428.18 30.43 408.43 6.93 404.04 6.93 398.6 6.93 404.04 13.5 404.04 43.38 411.55 43.38 411.55 22.49 428.94 43.38 435.78 43.38 435.78 6.93 428.18 6.93 428.18 30.43"/><polygon class="cls-1" points="347 21.71 329.82 21.71 329.82 6.93 322.22 6.93 322.22 43.38 329.82 43.38 329.82 28.6 331.37 28.6 347 28.6 347 43.38 354.59 43.38 354.59 6.93 347 6.93 347 21.71"/><path class="cls-1" d="M336.89,120.94a11.87,11.87,0,0,1-5.46,1.27,12.58,12.58,0,0,1-4.58-.85A13,13,0,0,1,323,119a11.08,11.08,0,0,1-2.63-3.58,12,12,0,0,1,0-9.31,11.08,11.08,0,0,1,2.63-3.58,12.81,12.81,0,0,1,3.86-2.38,12.58,12.58,0,0,1,4.58-.85,11.74,11.74,0,0,1,5.46,1.27,12.45,12.45,0,0,1,4,3.22l6-4.81-.7-.77a20.2,20.2,0,0,0-6.57-4.8,20.26,20.26,0,0,0-15.91-.24,19.09,19.09,0,0,0-10.31,10.33,18.46,18.46,0,0,0,0,14.53,19.09,19.09,0,0,0,10.31,10.33,20.26,20.26,0,0,0,15.91-.24,20.2,20.2,0,0,0,6.57-4.8l.7-.77-6-4.81A12.6,12.6,0,0,1,336.89,120.94Z" transform="translate(-11.23 -27.58)"/><path class="cls-1" d="M316.66,62.83a11.9,11.9,0,0,1-5.47,1.26,12.38,12.38,0,0,1-4.58-.85,12.74,12.74,0,0,1-3.86-2.38,11.15,11.15,0,0,1-2.63-3.57,12,12,0,0,1,0-9.32,11.19,11.19,0,0,1,2.63-3.58A12.91,12.91,0,0,1,306.61,42a12.38,12.38,0,0,1,4.58-.86,11.91,11.91,0,0,1,5.47,1.27,12.81,12.81,0,0,1,4,3.22l6-4.8-.7-.78a20.2,20.2,0,0,0-6.57-4.8,19.44,19.44,0,0,0-26.22,10.09,18.46,18.46,0,0,0,0,14.53,19.21,19.21,0,0,0,4.14,6.2A20,20,0,0,0,319.38,70a20.06,20.06,0,0,0,6.57-4.8l.7-.77-6-4.81A12.84,12.84,0,0,1,316.66,62.83Z" transform="translate(-11.23 -27.58)"/><polygon class="cls-1" points="366.54 65.05 366.54 79.83 349.36 79.83 349.36 65.05 341.76 65.05 341.76 101.5 349.36 101.5 349.36 86.72 350.9 86.72 366.54 86.72 366.54 101.5 374.13 101.5 374.13 65.05 366.54 65.05"/><polygon class="cls-1" points="234.16 35.74 234.16 29.34 234.16 28.6 247.98 28.6 247.98 21.71 234.16 21.71 234.16 21.46 234.16 14.57 234.16 13.82 234.43 13.82 253 13.82 253 6.93 230.35 6.93 230.35 6.93 226.56 6.93 221.12 6.93 226.56 13.5 226.56 43.38 230.35 43.38 230.35 43.38 234.79 43.38 254.99 43.38 254.99 36.49 234.16 36.49 234.16 35.74"/><polygon class="cls-1" points="373.91 35.74 373.91 29.34 373.91 28.6 387.73 28.6 387.73 21.71 373.91 21.71 373.91 21.46 373.91 14.57 373.91 13.82 374.18 13.82 392.75 13.82 392.75 6.93 370.1 6.93 370.1 6.93 366.31 6.93 360.87 6.93 366.31 13.5 366.31 43.38 370.1 43.38 370.1 43.38 374.54 43.38 394.74 43.38 394.74 36.49 373.91 36.49 373.91 35.74"/><path class="cls-1" d="M238.69,114.2c0,5-4.35,8-8.93,8h0c-4.58,0-8.93-3.06-8.93-8V92.63h-13l5.44,6.57v15.42c0,7.46,6.38,15.23,16.52,15.23h0c10.14,0,16.53-7.77,16.53-15.23v-22h-7.6Z" transform="translate(-11.23 -27.58)"/><polygon class="cls-1" points="187.02 65.05 161.3 65.05 161.3 71.94 181.04 71.94 158.29 95.87 162.89 101.35 163.03 101.5 192.16 101.5 192.16 94.61 170.43 94.61 192.38 71.52 187.02 65.05"/><path class="cls-2" d="M122,78.94l-1.39.34-.36-1.43,2.28-.69h1.2v8H122Z" transform="translate(-11.23 -27.58)"/><path class="cls-2" d="M125.62,84.37l.92-1.33a2.59,2.59,0,0,0,1.74.69c1,0,1.51-.74,1.62-1.81a2.43,2.43,0,0,1-1.62.54,2.52,2.52,0,0,1-2.84-2.59,2.81,2.81,0,0,1,3-2.79,2.91,2.91,0,0,1,2.3.87,4,4,0,0,1,.94,3c0,2.59-1.22,4.35-3.48,4.35A3.84,3.84,0,0,1,125.62,84.37Zm4.31-4.57a1.24,1.24,0,0,0-1.39-1.22,1.21,1.21,0,0,0-1.36,1.23,1.22,1.22,0,0,0,1.39,1.2A1.21,1.21,0,0,0,129.93,79.8Z" transform="translate(-11.23 -27.58)"/><path class="cls-2" d="M136.85,78.73h-3.74V77.22h5.73v1.32l-3.57,6.64h-2Z" transform="translate(-11.23 -27.58)"/><path class="cls-2" d="M139.81,83.94,141,82.79a2.4,2.4,0,0,0,1.92,1,1,1,0,0,0,1.13-1c0-.65-.58-1-1.56-1h-.73l-.27-1.12,1.9-1.91h-3.13v-1.5h5.38v1.32l-2,1.92a2.2,2.2,0,0,1,2.13,2.25,2.59,2.59,0,0,1-2.86,2.61A3.87,3.87,0,0,1,139.81,83.94Z" transform="translate(-11.23 -27.58)"/><path class="cls-2" d="M11.23,77.22h6v1.56H13v1.61h3.75V82H13v1.67h4.32v1.56H11.23Z" transform="translate(-11.23 -27.58)"/><path class="cls-2" d="M18.31,84l1-1.24a3.68,3.68,0,0,0,2.38,1c.72,0,1.15-.29,1.15-.77s-.27-.68-1.6-1c-1.61-.41-2.64-.85-2.64-2.45a2.48,2.48,0,0,1,2.78-2.4,4.61,4.61,0,0,1,3,1l-.91,1.32a3.73,3.73,0,0,0-2.07-.79c-.67,0-1,.31-1,.72s.34.69,1.71,1c1.62.42,2.53,1,2.53,2.41,0,1.58-1.21,2.47-2.92,2.47A5,5,0,0,1,18.31,84Z" transform="translate(-11.23 -27.58)"/><path class="cls-2" d="M28,78.83H25.57V77.22h6.6v1.61H29.74v6.35H28Z" transform="translate(-11.23 -27.58)"/><path class="cls-2" d="M33.26,83.36H35.1v1.82H33.26Z" transform="translate(-11.23 -27.58)"/><rect class="cls-1" x="43.23" width="46.45" height="6.07"/><path class="cls-1" d="M71.11,43.69H42.85L24,56.85,45.09,71.57,65,57.63V75.51L24,104.2,45.16,119h26ZM65,109.46v3.44H53.69L65,105Zm0-11.91-20,14L34.61,104.2,65,82.92Zm0-47.33-20,13.94L34.62,56.85l10.14-7.09H65Z" transform="translate(-11.23 -27.58)"/><rect class="cls-1" x="43.23" y="101.42" width="46.45" height="6.07"/><path class="cls-1" d="M110.43,91.09l-20.1,14.06V87.26l41.18-28.81L110.37,43.69H84.25V119h28.42l18.84-13.16ZM90.33,57.63V49.76h11.51L90.33,57.81Zm0,7.59,20.12-14.07,10.46,7.3L90.33,79.85Zm20.43,47.68H89.83l20.6-14.4,10.48,7.31Z" transform="translate(-11.23 -27.58)"/></svg>