<svg xmlns="http://www.w3.org/2000/svg" width="80" height="29" viewBox="0 0 80 29"><defs><clipPath id="s9nba"><path d="M69.38.29h10.728v10.518H69.38z"/></clipPath><clipPath id="s9nbb"><path d="M49.44 17.22h10.092v11.027H49.44z"/></clipPath><clipPath id="s9nbc"><path d="M19.39 17.51h11.107v10.74H19.39z"/></clipPath></defs><g><g><g><path fill="#c5a459" d="M24.017 16.264c.616 0 1.117-.501 1.117-1.117a1.118 1.118 0 0 0-2.234 0c0 .616.501 1.117 1.117 1.117"/></g><g><path fill="#c5a459" d="M27.407 16.264c.616 0 1.117-.501 1.117-1.117a1.118 1.118 0 0 0-2.234 0c0 .616.501 1.117 1.117 1.117"/></g><g><path fill="#c5a459" d="M40.31 25.19c.201.386.618.825 1.41.825h.735v2.013h-1.499c-1.094 0-1.983-.62-2.472-1.598l-.945-1.896h-1.897v3.494h-2.193v-8.623L31.88 17.51h6.59a3.512 3.512 0 0 1 1.357 6.75l.483.93m-1.987-2.688c.81 0 1.466-.66 1.466-1.475a1.47 1.47 0 0 0-1.466-1.475h-2.681v2.95h2.68"/></g><g><path fill="#c5a459" d="M29.3.29l1.57 1.895v8.623h2.165V.29h-2.166z"/></g><g><path fill="#c5a459" d="M0 .29l1.57 1.895v8.623h2.165V.29H1.569z"/></g><g><path fill="#c5a459" d="M14.076 7.071L8.378.29H5.54l1.57 1.895v8.623h2.165V4.78l5.02 6.028h1.973V.29h-2.192z"/></g><g><path fill="#c5a459" d="M43.62 17.51l1.57 1.895v8.623h2.165V17.51h-2.166z"/></g><g><g/><g clip-path="url(#s9nba)"><path fill="#c5a459" d="M77.916 7.071L72.218.29H69.38l1.57 1.895v8.623h2.165V4.78l5.02 6.028h1.973V.29h-2.192z"/></g></g><g><path fill="#c5a459" d="M54.48 4.555h-4.958V.29H47.33v10.518h2.192V6.544h4.957v4.264h2.192V.29h-2.192z"/></g><g><g/><g clip-path="url(#s9nbb)"><path fill="#c5a459" d="M56.649 25.676a3.42 3.42 0 0 1-1.576.366c-.463 0-.908-.082-1.323-.246a3.676 3.676 0 0 1-1.114-.686 3.193 3.193 0 0 1-.758-1.032c-.184-.394-.273-.882-.273-1.345 0-.462.089-.95.273-1.344a3.19 3.19 0 0 1 .758-1.032c.322-.29.697-.52 1.114-.685.415-.164.86-.247 1.323-.247a3.42 3.42 0 0 1 1.576.366c.448.23.83.547 1.148.93l1.735-1.387-.201-.223a5.8 5.8 0 0 0-1.896-1.386 5.657 5.657 0 0 0-2.375-.505c-.79 0-1.535.147-2.215.435a5.615 5.615 0 0 0-1.782 1.193 5.572 5.572 0 0 0-1.193 1.79 5.362 5.362 0 0 0-.43 2.095c0 .74.155 1.446.43 2.097.288.683.69 1.285 1.193 1.79a5.607 5.607 0 0 0 1.782 1.192 5.63 5.63 0 0 0 2.215.435c.844 0 1.644-.17 2.375-.505a5.801 5.801 0 0 0 1.896-1.386l.201-.223-1.735-1.387c-.318.383-.7.7-1.148.93"/></g></g><g><path fill="#c5a459" d="M42.489 8.456a3.419 3.419 0 0 1-1.576.366c-.463 0-.908-.082-1.323-.246a3.69 3.69 0 0 1-1.114-.686 3.203 3.203 0 0 1-.758-1.032c-.184-.394-.273-.882-.273-1.345 0-.462.089-.95.273-1.344.186-.399.441-.746.758-1.032.322-.29.697-.52 1.114-.685.415-.164.86-.247 1.323-.247.572 0 1.102.123 1.576.366.448.23.83.546 1.148.93l1.735-1.387-.201-.223A5.792 5.792 0 0 0 43.275.505 5.65 5.65 0 0 0 40.9 0c-.79 0-1.535.146-2.215.435a5.606 5.606 0 0 0-1.782 1.193 5.575 5.575 0 0 0-1.193 1.79 5.371 5.371 0 0 0-.43 2.095c0 .74.155 1.446.43 2.097.288.683.69 1.285 1.193 1.79a5.619 5.619 0 0 0 1.782 1.192c.68.289 1.426.435 2.215.435.845 0 1.644-.17 2.375-.505a5.793 5.793 0 0 0 1.896-1.386l.201-.223-1.735-1.387c-.318.383-.7.7-1.148.93"/></g><g><path fill="#c5a459" d="M68.44 17.51v4.264h-4.957V17.51H61.29v10.518h2.192v-4.265h4.957v4.265h2.192V17.51z"/></g><g><path fill="#c5a459" d="M21.922 8.603V6.544h3.988v-1.99h-3.988V2.28h5.437V.29H18.16l1.57 1.895v8.623h8.203V8.82h-6.011z"/></g><g><path fill="#c5a459" d="M62.251 8.603V6.544h3.989v-1.99H62.25V2.28H67.69V.29H58.49l1.57 1.895v8.623h8.203V8.82h-6.012z"/></g><g><g/><g clip-path="url(#s9nbc)"><path fill="#c5a459" d="M28.305 23.734c0 1.427-1.255 2.311-2.577 2.311s-2.577-.884-2.577-2.31V17.51H19.39l1.57 1.895v4.45c0 2.154 1.843 4.395 4.768 4.395s4.769-2.241 4.769-4.396V17.51h-2.192z"/></g></g><g><path fill="#c5a459" d="M16.641 17.51h-7.42v1.989h5.694L8.35 26.404l1.327 1.58.041.044h8.407v-1.989h-6.27l6.333-6.662z"/></g></g></g></svg>
