<svg xmlns="http://www.w3.org/2000/svg" width="137" height="81" viewBox="0 0 137 81"><defs><clipPath id="umvsa"><path d="M128.22 57.01h8.578v9.66h-8.578z"/></clipPath><clipPath id="umvsb"><path d="M0 80.402h136.8V0H0z"/></clipPath></defs><g><g><g><path fill="#242369" d="M93.986 55.872c.566 0 1.026-.46 1.026-1.026 0-.566-.46-1.026-1.026-1.026a1.027 1.027 0 0 0 0 2.052"/></g><g><path fill="#242369" d="M97.106 55.872a1.027 1.027 0 0 0 0-2.052 1.027 1.027 0 0 0 0 2.052"/></g><g><path fill="#242369" d="M108.952 64.063c.185.355.567.758 1.294.758h.675v1.849h-1.376c-1.004 0-1.821-.569-2.27-1.469l-.868-1.74h-1.742v3.209h-2.014v-7.92l-1.441-1.74h6.052a3.225 3.225 0 0 1 1.246 6.2l.444.853m-1.825-2.482a1.347 1.347 0 0 0 0-2.694h-2.462v2.694h2.462"/></g><g><path fill="#242369" d="M26.91 57.01l1.441 1.74v7.92h1.99v-9.66h-1.99z"/></g><g><path fill="#242369" d="M0 57.01l1.441 1.74v7.92h1.99v-9.66H1.44z"/></g><g><path fill="#242369" d="M12.929 63.237L7.696 57.01H5.09l1.441 1.74v7.92h1.99v-5.537l4.61 5.536h1.81V57.01H12.93z"/></g><g><path fill="#242369" d="M111.99 57.01l1.441 1.74v7.92h1.99v-9.66h-1.99z"/></g><g><path fill="#242369" d="M71.549 63.237l-5.233-6.227H63.71l1.441 1.74v7.92h1.99v-5.537l4.61 5.536h1.81V57.01H71.55z"/></g><g><path fill="#242369" d="M50.036 60.926h-4.553V57.01H43.47v9.66h2.013v-3.917h4.553v3.916h2.012V57.01h-2.012z"/></g><g><path fill="#242369" d="M123.96 64.506a3.14 3.14 0 0 1-1.447.336c-.425 0-.834-.076-1.215-.226a3.382 3.382 0 0 1-1.022-.63 2.937 2.937 0 0 1-.697-.948c-.17-.362-.25-.81-.25-1.235 0-.425.08-.872.25-1.234.17-.367.405-.685.697-.948.295-.266.64-.478 1.022-.63.381-.15.79-.226 1.215-.226a3.14 3.14 0 0 1 1.447.336c.412.21.763.502 1.055.854l1.593-1.274-.185-.205a5.329 5.329 0 0 0-1.74-1.272 5.197 5.197 0 0 0-2.182-.464c-.724 0-1.41.134-2.034.4a5.154 5.154 0 0 0-1.636 1.095 5.12 5.12 0 0 0-1.096 1.643 4.933 4.933 0 0 0-.395 1.925c0 .68.143 1.328.395 1.926a5.12 5.12 0 0 0 1.096 1.643c.463.463 1.014.831 1.636 1.095.625.266 1.31.4 2.034.4.776 0 1.51-.156 2.182-.464a5.329 5.329 0 0 0 1.74-1.272l.185-.205-1.593-1.274a3.36 3.36 0 0 1-1.055.854"/></g><g><path fill="#242369" d="M39.02 64.506a3.14 3.14 0 0 1-1.447.336 3.29 3.29 0 0 1-1.215-.226 3.388 3.388 0 0 1-1.023-.63 2.941 2.941 0 0 1-.696-.948c-.169-.362-.25-.81-.25-1.235 0-.425.081-.872.25-1.234.17-.367.405-.685.696-.948.296-.266.64-.478 1.023-.63.381-.15.79-.226 1.215-.226a3.14 3.14 0 0 1 1.447.336c.412.21.763.502 1.055.854l1.593-1.274-.185-.205a5.319 5.319 0 0 0-1.74-1.272 5.194 5.194 0 0 0-2.182-.464c-.725 0-1.41.134-2.034.4a5.154 5.154 0 0 0-1.636 1.095 5.126 5.126 0 0 0-1.096 1.643 4.933 4.933 0 0 0-.395 1.925c0 .68.143 1.328.395 1.926.265.627.633 1.18 1.096 1.643.463.463 1.014.831 1.636 1.095.625.266 1.31.4 2.034.4.776 0 1.51-.156 2.181-.464a5.319 5.319 0 0 0 1.741-1.272l.185-.205-1.593-1.274a3.354 3.354 0 0 1-1.055.854"/></g><g><g/><g clip-path="url(#umvsa)"><path fill="#242369" d="M134.786 57.01v3.916h-4.553V57.01h-2.013v9.66h2.013v-3.917h4.553v3.917h2.012v-9.66z"/></g></g><g><path fill="#242369" d="M20.135 64.644v-1.891h3.663v-1.827h-3.663v-2.089H25.128V57.01H16.68l1.441 1.74v7.92h7.535v-1.827h-5.521z"/></g><g><path fill="#242369" d="M57.165 64.644v-1.891h3.663v-1.827h-3.663v-2.089H62.158V57.01H53.71l1.441 1.74v7.92h7.535v-1.827h-5.521z"/></g><g><path fill="#242369" d="M97.927 62.726c0 1.31-1.153 2.122-2.366 2.122-1.214 0-2.367-.812-2.367-2.122V57.01H89.74l1.441 1.74v4.086c0 1.979 1.693 4.037 4.38 4.037 2.686 0 4.379-2.058 4.379-4.037V57.01h-2.013z"/></g><g><path fill="#242369" d="M87.214 57.01h-6.815v1.827h5.23L79.6 65.179l1.219 1.45.037.04h7.72v-1.826H82.82l5.816-6.118z"/></g><g><path fill="#c5a459" d="M87.86 22.57l-.61.15-.16-.63 1.005-.3h.525v3.525h-.76z"/></g><g><path fill="#c5a459" d="M89.44 24.965l.405-.585c.255.205.47.3.765.3.43 0 .66-.325.71-.795-.17.145-.405.24-.71.24-.76 0-1.25-.42-1.25-1.14 0-.705.545-1.225 1.335-1.225.47 0 .745.115 1.01.38.25.25.415.63.415 1.33 0 1.135-.536 1.91-1.53 1.91-.51 0-.855-.17-1.15-.415m1.885-2.01c0-.31-.229-.535-.61-.535-.377 0-.59.22-.59.54 0 .31.228.525.605.525.376 0 .595-.22.595-.53"/></g><g><path fill="#c5a459" d="M94.374 22.485H92.73v-.665h2.52v.58l-1.57 2.92h-.87z"/></g><g><path fill="#c5a459" d="M95.67 24.775l.53-.505c.24.27.49.42.845.42.29 0 .495-.165.495-.435 0-.285-.255-.445-.685-.445h-.32l-.12-.49.835-.84h-1.375v-.66h2.365v.58l-.885.845c.475.08.94.33.94.99 0 .66-.48 1.145-1.26 1.145-.63 0-1.065-.25-1.365-.605"/></g><g><path fill="#c5a459" d="M39.16 21.82h2.64v.685h-1.875v.71h1.65v.685h-1.65v.734h1.9v.686H39.16z"/></g><g><path fill="#c5a459" d="M42.27 24.81l.455-.545c.315.26.645.425 1.045.425.315 0 .504-.125.504-.34 0-.195-.12-.295-.704-.445-.705-.18-1.16-.375-1.16-1.08 0-.635.51-1.055 1.225-1.055.51 0 .944.16 1.3.445l-.4.58c-.31-.215-.615-.345-.91-.345-.295 0-.45.135-.45.315 0 .23.15.305.755.46.71.185 1.11.44 1.11 1.06 0 .694-.53 1.085-1.285 1.085-.53 0-1.065-.185-1.485-.56"/></g><g><path fill="#c5a459" d="M46.525 22.53H45.46v-.71h2.9v.71h-1.065v2.79h-.77z"/></g><g/><g clip-path="url(#umvsb)"><path fill="#c5a459" d="M48.84 25.32h.81v-.8h-.81z"/></g><g clip-path="url(#umvsb)"><path fill="#242369" d="M58.16 2.669h20.417V0H58.16z"/></g><g clip-path="url(#umvsb)"><path fill="#242369" d="M65.48 40.17H54.077l-9.296-6.491 18.03-12.614v-7.859l-8.767 6.127-9.264-6.467 8.28-5.786h12.42zm-2.679-6.158l-4.976 3.49h4.976zm.01-9.69L49.44 33.676l4.603 3.215 8.77-6.137zm0-14.574h-8.91l-4.46 3.116 4.602 3.214 8.768-6.128z"/></g><g clip-path="url(#umvsb)"><path fill="#242369" d="M58.16 47.248h20.417V44.58H58.16z"/></g><g clip-path="url(#umvsb)"><path fill="#242369" d="M92.02 34.386l-8.28 5.784H71.25V7.08h11.479l9.29 6.486-18.1 12.667v7.86l8.837-6.177zM73.919 13.289l5.06-3.54h-5.06zm0 9.686L87.36 13.57l-4.598-3.21-8.843 6.187zm13.44 11.41l-4.602-3.213-9.057 6.33h9.2z"/></g><g clip-path="url(#umvsb)"><path fill="#c5a459" d="M40.52 77.27h-1.17v-.78h3.184v.78h-1.17v3.063h-.844z"/></g><g clip-path="url(#umvsb)"><path fill="#c5a459" d="M44.01 76.49h.845v1.52h1.56v-1.52h.845v3.843h-.846V78.79h-1.56v1.543h-.844z"/></g><g clip-path="url(#umvsb)"><path fill="#c5a459" d="M49.01 76.49h2.898v.752H49.85v.78h1.811v.752H49.85v.807h2.086v.752H49.01z"/></g><g clip-path="url(#umvsb)"><path fill="#c5a459" d="M58.697 76.47h.78l1.647 3.87h-.884l-.351-.861h-1.625l-.351.861h-.863zm.89 2.252l-.51-1.236-.511 1.236z"/></g><g clip-path="url(#umvsb)"><path fill="#c5a459" d="M62.48 78.686V76.49h.846v2.174c0 .625.312.95.828.95s.83-.313.83-.922V76.49h.845v2.168c0 1.165-.653 1.735-1.686 1.735-1.032 0-1.663-.577-1.663-1.707"/></g><g clip-path="url(#umvsb)"><path fill="#c5a459" d="M67.35 78.417c0-1.092.824-1.987 2.004-1.987.725 0 1.13.275 1.487.626l-.504.582c-.297-.269-.55-.428-.989-.428-.647 0-1.114.538-1.114 1.207 0 .66.455 1.208 1.114 1.208.44 0 .709-.175 1.01-.45l.538.577c-.395.422-.834.653-1.575.653-1.131 0-1.971-.873-1.971-1.988"/></g><g clip-path="url(#umvsb)"><path fill="#c5a459" d="M73.289 77.27H72.12v-.78h3.185v.78h-1.17v3.063h-.846z"/></g><g clip-path="url(#umvsb)"><path fill="#c5a459" d="M76.82 80.333h.845V76.49h-.845z"/></g><g clip-path="url(#umvsb)"><path fill="#c5a459" d="M79.28 78.417c0-1.092.862-1.987 2.047-1.987 1.187 0 2.038.884 2.038 1.987 0 1.093-.863 1.988-2.048 1.988-1.186 0-2.037-.884-2.037-1.988m3.198 0c0-.66-.482-1.21-1.161-1.21-.68 0-1.151.54-1.151 1.21 0 .66.482 1.21 1.161 1.21.68 0 1.151-.539 1.151-1.21"/></g><g clip-path="url(#umvsb)"><path fill="#c5a459" d="M84.95 76.49h.78l1.8 2.366V76.49h.834v3.843h-.718l-1.862-2.443v2.443h-.834z"/></g><g clip-path="url(#umvsb)"><path fill="#c5a459" d="M90.11 76.49h2.899v.752h-2.06v.78h1.812v.752H90.95v.807h2.086v.752H90.11z"/></g><g clip-path="url(#umvsb)"><path fill="#c5a459" d="M94.62 76.49h2.898v.752H95.46v.78h1.811v.752H95.46v.807h2.086v.752H94.62z"/></g><g clip-path="url(#umvsb)"><path fill="#c5a459" d="M99.12 76.49h1.757c.489 0 .868.137 1.12.39.214.214.33.516.33.89 0 .62-.335 1.01-.824 1.19l.938 1.373h-.988l-.834-1.23h-.653v1.23h-.846zm1.702 1.871c.412 0 .648-.22.648-.556 0-.362-.252-.55-.665-.55h-.84v1.106z"/></g></g></g></svg>
