<?xml version="1.0" encoding="utf-8"?>
<!-- Generator: Adobe Illustrator 26.0.2, SVG Export Plug-In . SVG Version: 6.00 Build 0)  -->
<svg version="1.1" id="Слой_1" xmlns="http://www.w3.org/2000/svg" xmlns:xlink="http://www.w3.org/1999/xlink" x="0px" y="0px"
	 viewBox="0 0 400 60" style="enable-background:new 0 0 400 60;" xml:space="preserve">
<style type="text/css">
	.st0{fill:#FFFFFF;}
</style>
<g>
	<polygon class="st0" points="272.4,20.7 283.9,20.7 283.9,14.9 272.4,14.9 272.4,8.3 288.1,8.3 288.1,2.6 261.5,2.6 266.1,8.1 
		266.1,33 289.8,33 289.8,27.2 272.4,27.2 	"/>
	<polygon class="st0" points="169.9,20.7 181.4,20.7 181.4,14.9 169.9,14.9 169.9,8.3 185.6,8.3 185.6,2.6 159,2.6 163.5,8.1 
		163.5,33 187.2,33 187.2,27.2 169.9,27.2 	"/>
	<polygon class="st0" points="105.8,20.7 117.3,20.7 117.3,14.9 105.8,14.9 105.8,8.3 121.5,8.3 121.5,2.6 95,2.6 99.5,8.1 99.5,33 
		123.2,33 123.2,27.2 105.8,27.2 	"/>
	<polygon class="st0" points="8.1,2.6 12.7,8.1 12.7,33 18.9,33 18.9,2.6 	"/>
	<polygon class="st0" points="49.1,22.2 32.7,2.6 24.5,2.6 29,8.1 29,33 35.2,33 35.2,15.6 49.7,33 55.4,33 55.4,2.6 49.1,2.6 	"/>
	<polygon class="st0" points="215.7,22.2 199.2,2.6 191,2.6 195.6,8.1 195.6,33 201.8,33 201.8,15.6 216.3,33 222,33 222,2.6 
		215.7,2.6 	"/>
	<polygon class="st0" points="318.2,22.2 301.7,2.6 293.5,2.6 298.1,8.1 298.1,33 304.3,33 304.3,15.6 318.8,33 324.5,33 324.5,2.6 
		318.2,2.6 	"/>
	<path class="st0" d="M369.1,10.9c0-2,1.6-3.6,5.9-3.6c2.8,0,5.7,0.8,8.6,2.4l2.2-5.5c-2.9-1.8-6.9-2.8-10.8-2.8
		c-8.9,0-13.1,4.4-13.1,9.7c0,11.6,18.1,7.6,18.1,13.4c0,1.9-1.7,3.3-6,3.3c-3.7,0-7.7-1.3-10.3-3.2l-2.4,5.4
		c2.8,2.1,7.7,3.6,12.7,3.6c8.9,0,13.2-4.4,13.2-9.7C387.2,12.7,369.1,16.6,369.1,10.9z"/>
	<path class="st0" d="M75.9,2.6H64.1V33h11.9c9.9,0,16.8-6,16.8-15.2C92.7,8.6,85.9,2.6,75.9,2.6z M76.5,27.2h-6.1V8.4h6.1
		c6,0,10,3.6,10,9.4S82.5,27.2,76.5,27.2z"/>
	<path class="st0" d="M242.5,2.6h-11.9V33h11.9c9.9,0,16.8-6,16.8-15.2C259.3,8.6,252.4,2.6,242.5,2.6z M243,27.2h-6.1V8.4h6.1
		c6,0,10,3.6,10,9.4S249.1,27.2,243,27.2z"/>
	<polygon class="st0" points="330.6,8.3 340.8,8.3 340.8,33 347.1,33 347.1,8.3 357.3,8.3 357.3,2.6 330.6,2.6 	"/>
	<path class="st0" d="M392.4,30.1"/>
	<path class="st0" d="M142.7,2.6h-12.5V33h6.3v-8.4h6.1c8.1,0,13.2-4.2,13.2-11C155.9,6.8,150.8,2.6,142.7,2.6z M143.1,18.9h-6.5
		V8.5V8.3h6.5c4.3,0,6.5,1.9,6.5,5.3C149.5,16.9,147.4,18.9,143.1,18.9z"/>
</g>
<g>
	<path class="st0" d="M12.3,57.8v-8.8h2.3v8.8H12.3z"/>
	<path class="st0" d="M17.6,48.9H20l3.6,5c0.2,0.4,0.5,0.7,0.6,1.1h0c0-0.4,0-0.8,0-1.2v-4.9h2.1v8.8H24l-3.7-5.1
		c-0.2-0.4-0.5-0.7-0.6-1.1h0c0,0.4,0,0.8,0,1.2v5h-2.1V48.9z"/>
	<path class="st0" d="M40.4,55.8h-4l-0.7,1.9h-2.4l3.7-8.8h2.7l3.7,8.8h-2.4L40.4,55.8z M39.8,54.3L39,52c-0.3-0.6-0.4-1-0.5-1.6h0
		c-0.1,0.6-0.3,1-0.5,1.6L37,54.3H39.8z"/>
	<path class="st0" d="M44.6,55.9l1.7-1.2c0.6,1,1.6,1.6,3,1.6c1.2,0,1.9-0.3,1.9-1c0-0.6-0.4-0.8-1.4-1L48,54
		c-1.8-0.3-2.8-1.1-2.8-2.7c0-1.7,1.5-2.7,4-2.7c1.9,0,3.4,0.6,4.2,1.8l-1.5,1.2c-0.5-0.9-1.5-1.4-2.8-1.4c-1.1,0-1.7,0.3-1.7,0.9
		c0,0.6,0.4,0.8,1.4,1l1.8,0.3c1.9,0.3,2.9,1,2.9,2.6c0,1.8-1.5,2.9-4.2,2.9C47,58,45.3,57.2,44.6,55.9z"/>
	<path class="st0" d="M54.8,55.9l1.7-1.2c0.6,1,1.6,1.6,3,1.6c1.2,0,1.9-0.3,1.9-1c0-0.6-0.4-0.8-1.4-1L58.2,54
		c-1.8-0.3-2.8-1.1-2.8-2.7c0-1.7,1.5-2.7,4-2.7c1.9,0,3.4,0.6,4.2,1.8l-1.5,1.2c-0.5-0.9-1.5-1.4-2.8-1.4c-1.1,0-1.7,0.3-1.7,0.9
		c0,0.6,0.4,0.8,1.4,1l1.8,0.3c1.9,0.3,2.9,1,2.9,2.6c0,1.8-1.5,2.9-4.2,2.9C57.2,58,55.5,57.2,54.8,55.9z"/>
	<path class="st0" d="M65.3,53.3c0-2.9,2-4.7,5-4.7c3.1,0,5,1.8,5,4.7c0,2.9-2,4.7-5,4.7C67.2,58,65.3,56.2,65.3,53.3z M72.9,53.3
		c0-1.8-1-2.9-2.7-2.9c-1.6,0-2.6,1.1-2.6,2.9c0,1.8,1,2.9,2.6,2.9C71.9,56.3,72.9,55.1,72.9,53.3z"/>
	<path class="st0" d="M77.2,53.3c0-2.8,2-4.7,5-4.7c2.5,0,4.2,1.2,4.6,3.2l-2.3,0.4c-0.2-1.2-1-1.9-2.3-1.9c-1.6,0-2.6,1.1-2.6,2.9
		c0,1.7,1,2.9,2.6,2.9c1.2,0,2.1-0.6,2.3-1.8l2.3,0.5c-0.5,1.9-2.2,3.1-4.7,3.1C79,58,77.2,56.2,77.2,53.3z"/>
	<path class="st0" d="M89.1,57.8v-8.8h2.3v8.8H89.1z"/>
	<path class="st0" d="M100.6,55.8h-4l-0.7,1.9h-2.4l3.7-8.8h2.7l3.7,8.8h-2.4L100.6,55.8z M100,54.3L99.1,52c-0.3-0.6-0.4-1-0.5-1.6
		h0c-0.1,0.6-0.3,1-0.5,1.6l-0.8,2.2H100z"/>
	<path class="st0" d="M111.8,50.7h-3v7.1h-2.3v-7.1h-3v-1.8h8.3L111.8,50.7L111.8,50.7z"/>
	<path class="st0" d="M113.9,57.8v-8.8h2.3v8.8H113.9z"/>
	<path class="st0" d="M118.5,53.3c0-2.9,2-4.7,5-4.7c3.1,0,5,1.8,5,4.7c0,2.9-2,4.7-5,4.7C120.5,58,118.5,56.2,118.5,53.3z
		 M126.2,53.3c0-1.8-1-2.9-2.7-2.9c-1.6,0-2.6,1.1-2.6,2.9c0,1.8,1,2.9,2.6,2.9S126.2,55.1,126.2,53.3z"/>
	<path class="st0" d="M130.8,48.9h2.5l3.6,5c0.2,0.4,0.5,0.7,0.6,1.1h0c0-0.4,0-0.8,0-1.2v-4.9h2.1v8.8h-2.3l-3.7-5.1
		c-0.2-0.4-0.5-0.7-0.6-1.1h0c0,0.4,0,0.8,0,1.2v5h-2.1L130.8,48.9L130.8,48.9z"/>
	<path class="st0" d="M146.7,48.9h2.3l1.4,5.7c0.1,0.3,0.1,0.5,0.1,0.8h0c0-0.2,0.1-0.5,0.2-0.8l1.6-5.7h2.3l1.6,5.7
		c0.1,0.3,0.1,0.5,0.2,0.8h0c0-0.2,0.1-0.5,0.1-0.8l1.4-5.7h2.3l-2.5,8.8h-2.6l-1.6-5.9c-0.1-0.2-0.1-0.5-0.1-0.7h-0.1
		c0,0.2,0,0.5-0.1,0.7l-1.6,5.9h-2.6L146.7,48.9z"/>
	<path class="st0" d="M162.5,57.8v-8.8h2.3v8.8H162.5z"/>
	<path class="st0" d="M175.2,50.7h-3v7.1h-2.3v-7.1h-3v-1.8h8.3L175.2,50.7L175.2,50.7z"/>
	<path class="st0" d="M186,57.8h-2.3v-3.6h-4.2v3.6h-2.3v-8.8h2.3v3.5h4.2v-3.5h2.3V57.8z"/>
	<path class="st0" d="M193.9,57.8v-8.8h2.3v8.8H193.9z"/>
	<path class="st0" d="M199.2,48.9h2.5l3.6,5c0.2,0.4,0.5,0.7,0.6,1.1h0c0-0.4,0-0.8,0-1.2v-4.9h2.1v8.8h-2.3l-3.7-5.1
		c-0.2-0.4-0.5-0.7-0.6-1.1h0c0,0.4,0,0.8,0,1.2v5h-2.1L199.2,48.9L199.2,48.9z"/>
	<path class="st0" d="M218.3,56.1v1.6h-7.3v-8.8h7.2v1.6h-5v1.9h4.8V54h-4.8v2.1C213.2,56.1,218.3,56.1,218.3,56.1z"/>
	<path class="st0" d="M221,57.8v-8.8h2.3v8.8H221z"/>
	<path class="st0" d="M225.5,53.3c0-2.8,2-4.7,5-4.7c2.5,0,4.2,1.2,4.6,3.2l-2.3,0.4c-0.2-1.2-1-1.9-2.3-1.9c-1.6,0-2.6,1.1-2.6,2.9
		c0,1.7,1,2.9,2.6,2.9c1.2,0,2.1-0.6,2.3-1.8l2.3,0.5c-0.5,1.9-2.2,3.1-4.7,3.1C227.4,58,225.5,56.2,225.5,53.3z"/>
	<path class="st0" d="M246.2,57.8h-2.3v-3.6h-4.2v3.6h-2.3v-8.8h2.3v3.5h4.2v-3.5h2.3V57.8z"/>
	<path class="st0" d="M256.5,56.1v1.6h-7.3v-8.8h7.2v1.6h-5v1.9h4.8V54h-4.8v2.1C251.4,56.1,256.5,56.1,256.5,56.1z"/>
	<path class="st0" d="M259.2,48.9h2.5l3.6,5c0.2,0.4,0.5,0.7,0.6,1.1h0c0-0.4,0-0.8,0-1.2v-4.9h2.1v8.8h-2.3l-3.7-5.1
		c-0.2-0.4-0.5-0.7-0.6-1.1h0c0,0.4,0,0.8,0,1.2v5h-2.1L259.2,48.9L259.2,48.9z"/>
	<path class="st0" d="M282,55.8h-4l-0.7,1.9H275l3.7-8.8h2.7l3.7,8.8h-2.4L282,55.8z M281.5,54.3l-0.8-2.2c-0.3-0.6-0.4-1-0.5-1.6h0
		c-0.1,0.6-0.3,1-0.5,1.6l-0.8,2.2H281.5z"/>
	<path class="st0" d="M288.8,48.9v5.2c0,1.2,0.7,2.1,2.1,2.1c1.3,0,2.1-0.8,2.1-2.1v-5.2h2.3v5.4c0,2.2-1.6,3.7-4.3,3.7
		c-2.8,0-4.4-1.5-4.4-3.7v-5.4H288.8z"/>
	<path class="st0" d="M297.4,53.3c0-2.8,2-4.7,5-4.7c2.5,0,4.2,1.2,4.6,3.2l-2.3,0.4c-0.2-1.2-1-1.9-2.3-1.9c-1.6,0-2.6,1.1-2.6,2.9
		c0,1.7,1,2.9,2.6,2.9c1.2,0,2.1-0.6,2.3-1.8l2.3,0.5c-0.5,1.9-2.2,3.1-4.7,3.1C299.2,58,297.4,56.2,297.4,53.3z"/>
	<path class="st0" d="M316.6,50.7h-3v7.1h-2.3v-7.1h-3v-1.8h8.3L316.6,50.7L316.6,50.7z"/>
	<path class="st0" d="M318.7,57.8v-8.8h2.3v8.8H318.7z"/>
	<path class="st0" d="M323.2,53.3c0-2.9,2-4.7,5-4.7c3.1,0,5,1.8,5,4.7c0,2.9-2,4.7-5,4.7C325.2,58,323.2,56.2,323.2,53.3z
		 M330.9,53.3c0-1.8-1-2.9-2.7-2.9c-1.6,0-2.6,1.1-2.6,2.9c0,1.8,1,2.9,2.6,2.9S330.9,55.1,330.9,53.3z"/>
	<path class="st0" d="M335.6,48.9h2.5l3.6,5c0.2,0.4,0.5,0.7,0.6,1.1h0c0-0.4,0-0.8,0-1.2v-4.9h2.1v8.8H342l-3.7-5.1
		c-0.2-0.4-0.5-0.7-0.6-1.1h0c0,0.4,0,0.8,0,1.2v5h-2.1L335.6,48.9L335.6,48.9z"/>
	<path class="st0" d="M354.7,56.1v1.6h-7.3v-8.8h7.2v1.6h-5v1.9h4.8V54h-4.8v2.1C349.6,56.1,354.7,56.1,354.7,56.1z"/>
	<path class="st0" d="M364.7,56.1v1.6h-7.3v-8.8h7.2v1.6h-5v1.9h4.8V54h-4.8v2.1C359.6,56.1,364.7,56.1,364.7,56.1z"/>
	<path class="st0" d="M371.4,54.5h-1.8v3.3h-2.3v-8.8h4.8c2.5,0,3.4,1.2,3.4,2.8c0,1-0.5,2.1-1.8,2.5l2.1,3.6h-2.5L371.4,54.5z
		 M369.6,53h2c1.1,0,1.5-0.6,1.5-1.3c0-0.7-0.4-1.2-1.5-1.2h-2V53z"/>
	<path class="st0" d="M376.9,55.9l1.7-1.2c0.6,1,1.6,1.6,3,1.6c1.2,0,1.9-0.3,1.9-1c0-0.6-0.4-0.8-1.4-1l-1.8-0.3
		c-1.8-0.3-2.8-1.1-2.8-2.7c0-1.7,1.5-2.7,4-2.7c1.9,0,3.4,0.6,4.2,1.8l-1.5,1.2c-0.5-0.9-1.5-1.4-2.8-1.4c-1.1,0-1.7,0.3-1.7,0.9
		c0,0.6,0.4,0.8,1.4,1l1.8,0.3c1.9,0.3,2.9,1,2.9,2.6c0,1.8-1.5,2.9-4.2,2.9C379.3,58,377.7,57.2,376.9,55.9z"/>
</g>
</svg>
