<?xml version="1.0" encoding="UTF-8"?>
<!DOCTYPE svg PUBLIC "-//W3C//DTD SVG 1.1//EN" "http://www.w3.org/Graphics/SVG/1.1/DTD/svg11.dtd">
<!-- Creator: CorelDRAW X7 -->
<svg xmlns="http://www.w3.org/2000/svg" xml:space="preserve" width="257" height="52" version="1.1" style="shape-rendering:geometricPrecision; text-rendering:geometricPrecision; image-rendering:optimizeQuality; fill-rule:evenodd; clip-rule:evenodd"
viewBox="0 0 4516 951"
 xmlns:xlink="http://www.w3.org/1999/xlink">
 <defs>
  <style type="text/css">
   <![CDATA[
    .fil0 {fill:white}
   ]]>
  </style>
 </defs>
 <g id="Слой_x0020_1">
  <metadata id="CorelCorpID_0Corel-Layer"/>
  <g id="_539104664">
   <g>
    <polygon class="fil0" points="0,611 0,571 13,557 27,544 95,544 108,557 122,557 135,571 163,571 176,584 230,584 244,597 257,597 270,611 270,638 257,651 244,651 230,638 176,638 163,625 163,652 135,652 122,639 108,652 68,652 54,652 41,639 28,639 "/>
    <polygon class="fil0" points="299,597 285,611 285,624 299,637 299,651 285,651 272,664 272,677 285,691 313,691 326,677 340,691 353,691 366,691 366,704 380,704 393,717 393,745 406,745 420,758 420,772 420,785 406,785 420,798 433,812 446,798 460,785 460,772 446,758 460,745 473,745 486,732 500,718 500,705 513,692 500,678 500,665 513,651 526,638 526,625 513,611 500,611 486,598 459,598 445,585 432,598 419,598 405,598 419,585 405,571 392,585 379,585 365,598 352,598 352,584 339,571 325,584 312,584 325,597 312,611 "/>
   </g>
   <g>
    <polygon class="fil0" points="367,421 354,408 340,395 340,381 327,368 355,340 368,340 355,327 341,327 328,340 314,327 314,314 301,300 301,287 301,259 314,246 301,246 314,233 301,233 288,246 274,233 274,165 261,152 261,108 261,95 274,82 288,68 301,68 314,68 328,82 341,95 341,136 341,149 355,163 355,217 327,217 340,230 354,230 367,244 367,284 380,298 380,311 367,324 380,324 380,338 394,351 394,392 394,405 380,419 367,419 "/>
    <polygon class="fil0" points="312,530 325,516 339,516 352,530 380,530 366,516 366,489 380,475 393,462 406,449 420,462 420,449 433,435 446,422 460,435 460,449 446,462 446,449 433,462 446,475 460,462 473,449 473,462 460,475 473,475 486,475 500,475 500,489 513,475 526,462 526,475 540,475 553,462 566,449 580,449 593,462 580,475 593,475 606,475 620,462 633,475 646,462 646,449 660,449 673,435 687,435 687,422 700,409 713,395 727,395 740,409 727,409 727,422 740,422 740,450 740,463 727,476 740,490 753,503 753,531 740,517 727,504 727,490 713,477 713,490 713,504 700,517 687,517 687,531 687,544 687,557 700,544 713,544 727,557 727,571 727,584 727,584 713,571 713,584 713,597 713,611 700,624 700,611 700,597 700,584 687,597 679,597 666,584 652,584 652,597 639,611 626,597 612,611 585,611 571,597 571,611 531,611 517,597 504,597 504,584 490,571 477,557 464,557 450,571 437,571 424,557 424,544 396,544 396,557 383,571 370,584 370,571 370,557 356,544 343,544 329,544 "/>
    <polygon class="fil0" points="353,461 366,461 366,475 "/>
    <polygon class="fil0" points="747,530 747,543 760,543 "/>
    <polygon class="fil0" points="489,462 489,449 502,449 516,435 529,449 516,449 502,449 502,449 "/>
    <polygon class="fil0" points="571,421 557,435 571,435 "/>
    <polygon class="fil0" points="625,435 625,448 638,435 "/>
   </g>
   <g>
    <polygon class="fil0" points="760,557 747,571 747,584 733,597 761,597 747,611 734,624 734,637 721,637 707,651 679,651 666,651 652,637 639,637 639,624 626,611 626,624 612,624 599,637 599,651 586,664 571,664 571,677 571,691 584,704 584,717 597,731 611,731 624,744 637,744 651,731 651,744 664,731 677,731 691,744 691,757 704,771 717,757 731,757 731,744 744,757 757,757 757,771 771,757 784,744 797,731 797,717 797,704 797,692 784,679 784,666 797,652 787,652 774,652 774,639 787,639 801,626 814,612 814,599 801,599 814,586 814,572 801,586 801,572 787,584 774,571 "/>
    <polygon class="fil0" points="815,720 828,733 815,733 "/>
    <polygon class="fil0" points="760,774 773,774 760,787 "/>
    <polygon class="fil0" points="597,68 597,123 597,136 611,149 611,163 638,163 651,176 611,176 611,176 597,189 597,230 597,244 611,257 611,284 638,284 651,298 611,298 611,311 651,311 638,324 611,324 611,365 611,379 624,392 637,405 651,405 664,392 664,379 664,367 677,354 677,326 664,313 664,299 664,286 677,273 677,205 677,192 664,179 651,165 664,152 677,138 677,84 664,71 664,58 651,44 637,31 624,31 611,44 597,58 "/>
   </g>
   <g>
    <polygon class="fil0" points="421,13 408,27 408,54 421,68 421,122 421,149 435,163 461,163 475,176 488,176 475,189 461,189 448,189 435,203 435,230 435,244 448,257 448,284 461,298 475,298 488,311 475,311 461,324 461,338 461,351 475,365 475,378 488,391 501,391 515,378 528,365 528,351 528,324 528,310 515,297 501,297 501,284 515,284 528,284 528,216 515,203 515,148 501,135 501,68 488,54 488,27 475,13 461,13 448,0 435,0 "/>
    <polygon class="fil0" points="516,720 503,733 503,747 516,760 503,760 490,773 490,787 476,800 490,813 490,827 476,827 463,840 476,840 490,853 503,853 503,840 516,853 516,867 516,880 530,893 530,907 543,920 556,933 571,951 571,938 584,924 584,911 584,898 584,884 597,871 597,858 611,844 624,831 624,817 637,817 624,804 624,791 596,791 583,777 571,777 557,777 557,764 544,751 531,751 544,737 531,724 516,724 "/>
    <polygon class="fil0" points="679,747 666,747 652,760 652,773 639,773 626,773 612,760 612,787 626,787 639,787 652,787 639,801 652,814 666,814 666,801 679,787 666,774 679,761 "/>
   </g>
   <g>
    <g>
     <path class="fil0" d="M815 95l-13 -13 -15 0 -13 13 -13 13 0 55 0 13 -14 13 0 14 0 13 0 13 0 28 -13 13 0 14 -13 13 0 13 0 28 0 13 13 14 0 13 13 0 14 0 13 -13 0 -14 0 -13 13 -14 0 -27 -13 -13 -13 0 13 -14 13 0 14 -13 13 -13 0 -41 -13 -14 0 -13 13 0 0 -13 -27 0 14 -14 13 0 13 -13 0 -13 0 -15 -12 -13zm-55 706l-13 -14 -14 -13 -13 13 -13 14 -14 13 0 13 -13 -13 -13 13 0 14 -14 -14 0 28 -13 13 -14 -13 -13 13 13 0 14 14 0 13 0 13 13 14 14 0 13 -14 13 0 14 -13 13 0 13 -13 14 -14 0 -13 13 -13 0 -14 0 -13 -13 13 0 -13 13 -14z"/>
    </g>
   </g>
   <g>
    <g>
     <path class="fil0" d="M959 353l173 0 0 439 122 0 0 -439 172 0 0 -110 -466 0 0 110 -1 0zm784 329l-74 0 -106 -439 -125 0 134 549 270 0 133 -549 -125 0 -107 439zm897 -128c-7,-9 -13,-18 -21,-25 -7,-7 -16,-13 -23,-18 -19,-12 -40,-21 -64,-26l0 -7c12,-4 23,-11 32,-19 9,-8 16,-17 24,-29 6,-12 10,-28 10,-46 0,-18 -4,-35 -12,-52 -8,-17 -20,-32 -36,-45 -15,-13 -34,-24 -56,-33 -22,-8 -46,-12 -72,-12l-255 0 0 549 294 0c32,0 59,-4 84,-14 25,-8 46,-20 63,-35 16,-15 30,-32 39,-52 9,-20 13,-42 13,-64 0,-15 -1,-29 -6,-41 -3,-11 -8,-21 -14,-31zm-352 -201l134 0c15,0 28,4 37,13 9,9 13,20 13,34 0,13 -4,25 -13,33 -9,9 -22,13 -37,13l-134 0 0 -93zm228 311c-13,12 -32,18 -55,18l-173 0 0 -125 173 0c23,0 42,6 55,19 13,11 19,26 19,45 0,16 -7,30 -19,43zm648 -119c7,-9 12,-19 17,-29 5,-11 9,-24 12,-37 4,-14 5,-29 5,-44 0,-28 -5,-53 -15,-76 -10,-24 -24,-45 -42,-61 -19,-18 -41,-31 -67,-40 -26,-10 -55,-14 -88,-14l-270 0 0 548 122 0 0 -164 137 0c15,28 30,56 45,83 15,26 30,54 45,82l129 0 -102 -188c19,-9 37,-21 53,-36 6,-8 12,-15 19,-24zm-113 -51c-15,16 -38,23 -66,23l-149 0 0 -164 149 0c28,0 51,7 66,23 16,16 25,35 25,59 0,23 -8,43 -25,59zm217 298l122 0 0 -549 -122 0 0 549zm611 -150c-9,13 -21,24 -33,33 -13,9 -28,17 -45,22 -16,6 -35,9 -55,9 -22,0 -44,-5 -65,-14 -21,-10 -39,-24 -55,-41 -16,-16 -28,-36 -38,-59 -9,-22 -14,-47 -14,-74 0,-27 5,-52 14,-74 9,-23 21,-43 38,-59 16,-17 34,-30 55,-40 21,-10 43,-15 65,-15 19,0 36,3 50,8 15,5 28,12 40,20 11,8 21,18 30,29 8,11 15,23 21,33l122 -15c-7,-24 -17,-47 -33,-69 -15,-22 -32,-42 -54,-58 -21,-17 -46,-31 -76,-41 -29,-11 -61,-16 -96,-16 -40,0 -78,8 -114,24 -36,16 -67,38 -95,65 -27,28 -48,59 -65,95 -16,36 -24,75 -24,115 0,40 8,78 24,114 16,36 38,68 65,95 28,28 58,48 95,65 36,16 74,24 114,24 37,0 71,-6 102,-16 31,-11 58,-26 81,-45 23,-18 43,-39 59,-62 13,-20 22,-40 30,-60l-125 -15c-6,5 -11,14 -18,22zm612 -82c-16,-21 -35,-39 -58,-52 -24,-13 -49,-24 -77,-33 -27,-8 -53,-15 -77,-22 -23,-7 -43,-15 -58,-24 -16,-9 -23,-22 -23,-38 0,-16 7,-30 22,-43 15,-13 36,-19 64,-19 30,0 53,6 70,21 16,14 29,31 36,53l122 -16c-6,-23 -15,-46 -27,-66 -12,-20 -27,-38 -46,-53 -20,-15 -41,-28 -67,-36 -26,-8 -54,-13 -87,-13 -32,0 -62,5 -87,14 -26,9 -49,21 -67,37 -19,15 -33,34 -43,53 -10,20 -15,40 -15,60 0,32 8,59 24,79 15,20 35,37 58,50 23,14 49,24 77,32 27,7 52,16 76,23 24,8 44,17 59,27 16,10 23,23 23,40 0,20 -8,37 -24,50 -16,13 -42,20 -78,20 -35,0 -63,-8 -83,-26 -20,-17 -34,-38 -42,-64l-121 16c6,26 16,51 30,73 13,23 30,42 50,59 20,16 45,29 72,38 28,9 59,13 94,13 36,0 67,-5 96,-15 28,-10 52,-23 71,-39 19,-16 35,-35 45,-55 11,-21 16,-42 16,-63 -1,-32 -9,-60 -25,-81z"/>
    </g>
   </g>
  </g>
 </g>
</svg>
