<?xml version="1.0" encoding="UTF-8"?>
<!DOCTYPE svg PUBLIC "-//W3C//DTD SVG 1.1//EN" "http://www.w3.org/Graphics/SVG/1.1/DTD/svg11.dtd">
<!-- Creator: CorelDRAW X7 -->
<svg xmlns="http://www.w3.org/2000/svg" xml:space="preserve" width="35" height="35" version="1.1" style="shape-rendering:geometricPrecision; text-rendering:geometricPrecision; image-rendering:optimizeQuality; fill-rule:evenodd; clip-rule:evenodd"
viewBox="0 0 2663 2663"
 xmlns:xlink="http://www.w3.org/1999/xlink">
 <defs>
  <style type="text/css">
   <![CDATA[
    .fil0 {fill:#FEFEFE}
   ]]>
  </style>
 </defs>
 <g id="Содержимое_x0020_PowerClip">
  <metadata id="CorelCorpID_0Corel-Layer"/>
  <g id="_1104800640">
   <path class="fil0" d="M101 1359c0,-79 -1,-115 11,-196 12,-89 30,-157 58,-240l43 -107c24,-52 61,-119 94,-167 56,-84 116,-153 190,-223l60 -51c41,-33 109,-82 156,-108 110,-60 189,-96 321,-129 238,-60 474,-49 704,32l109 43c135,63 255,148 354,247l71 78c50,61 82,104 124,175 10,17 17,32 27,49 10,17 16,33 25,52 64,133 115,328 115,485 0,139 -4,201 -37,335 -37,147 -87,247 -163,370l-134 171c-112,111 -169,159 -297,233 -95,55 -225,102 -330,126 -273,62 -535,29 -773,-77 -35,-16 -69,-33 -101,-52 -66,-38 -120,-74 -180,-124l-118 -110 -69 -83c-47,-57 -119,-172 -145,-236 -38,-92 -53,-118 -80,-225 -19,-76 -35,-175 -35,-268zm1155 -1359l111 0c189,0 392,53 552,133 37,19 97,50 129,72 47,32 96,62 138,101 5,6 6,5 12,10l51 49c8,7 13,10 21,17 14,15 25,28 39,43l75 86c34,42 69,95 97,141l69 133c30,70 52,131 73,207 34,129 39,196 40,296l0 109c0,213 -91,480 -211,661 -21,31 -42,64 -65,92l-72 86c-45,46 -94,95 -145,135 -35,28 -76,59 -113,83 -51,32 -97,57 -152,84l-113 48c-121,42 -256,77 -395,77l-109 0c-100,-1 -170,-6 -299,-40 -100,-27 -142,-48 -230,-86 -36,-15 -72,-34 -106,-54 -56,-33 -174,-117 -226,-168 -39,-39 -81,-81 -116,-123 -116,-137 -197,-289 -253,-459 -17,-54 -37,-135 -46,-191 -8,-53 -11,-99 -12,-145l0 -131c0,-81 19,-201 40,-274 25,-85 46,-149 84,-229l41 -79c5,-10 7,-15 13,-25 65,-106 114,-175 205,-266l61 -58c8,-8 12,-11 20,-18l88 -69c114,-78 173,-111 307,-164 82,-32 156,-50 245,-67 58,-12 104,-16 152,-17z"/>
   <path class="fil0" d="M736 815c0,31 48,68 66,89 7,7 8,11 15,18l409 410c-10,14 -350,351 -399,400l-35 38c-7,6 -12,11 -18,17 -23,24 -40,43 -35,72 7,44 62,100 119,45 7,-6 10,-7 16,-13 6,-6 11,-11 17,-17 11,-11 21,-18 32,-29l94 -94c12,-12 21,-18 33,-30 26,-26 268,-272 282,-281 14,10 223,225 250,250l127 123c21,22 40,43 63,62 23,18 47,52 76,52 43,0 79,-39 79,-79 0,-21 -35,-58 -51,-74 -22,-22 -40,-42 -61,-64 -30,-29 -363,-366 -377,-376 14,-21 223,-218 250,-252 18,-23 98,-100 124,-126 19,-19 90,-92 106,-114 27,-38 -13,-103 -62,-103 -37,0 -50,16 -86,53l-64 61c-29,29 -360,363 -374,373 -14,-9 -284,-282 -315,-314 -20,-19 -43,-46 -64,-63 -28,-24 -38,-37 -64,-62 -6,-6 -9,-7 -16,-13 -6,-6 -10,-11 -16,-17 -57,-54 -121,9 -121,58z"/>
  </g>
 </g>
</svg>
