<?xml version="1.0" encoding="UTF-8"?>
<!DOCTYPE svg PUBLIC "-//W3C//DTD SVG 1.1//EN" "http://www.w3.org/Graphics/SVG/1.1/DTD/svg11.dtd">
<!-- Creator: CorelDRAW X7 -->
<svg xmlns="http://www.w3.org/2000/svg" xml:space="preserve" width="133" height="108" version="1.1" style="shape-rendering:geometricPrecision; text-rendering:geometricPrecision; image-rendering:optimizeQuality; fill-rule:evenodd; clip-rule:evenodd"
viewBox="0 0 4249 3169"
 xmlns:xlink="http://www.w3.org/1999/xlink">
 <defs>
  <style type="text/css">
   <![CDATA[
    .str0 {stroke:white;stroke-width:9.04257}
    .fil1 {fill:none}
    .fil0 {fill:white}
   ]]>
  </style>
 </defs>
 <g id="Слой_x0020_1">
  <metadata id="CorelCorpID_0Corel-Layer"/>
  <g id="_539737672">
   <g>
    <path class="fil0" d="M1813 21c-1,2 -1,4 -1,8l9 270c0,4 1,7 3,9l561 572c2,3 5,1 7,-3 0,-4 0,-9 -1,-13 1,-2 1,-3 1,-7l-10 -270c0,-4 0,-8 -2,-9l-562 -573c-2,-3 -5,-1 -6,4 -2,4 -1,9 1,12l0 0 0 0z"/>
    <path class="fil0" d="M1859 1421c-1,2 -1,5 -1,7l9 271c0,3 1,7 3,9l561 572c3,3 6,1 7,-4 1,-3 1,-9 -1,-11 1,-2 1,-5 1,-8l-9 -270c0,-3 -1,-7 -3,-9l-562 -572c-2,-2 -5,-1 -6,3 -2,4 -1,9 1,12l0 0 0 0z"/>
    <path class="fil0" d="M1007 1465c2,0 5,0 7,0l271 -11c3,0 7,-2 8,-3l567 -567c3,-3 1,-5 -4,-6 -3,-1 -9,-1 -12,1 -2,-1 -4,-1 -8,-1l-269 11c-4,0 -7,0 -9,2l-567 567c-3,3 -1,6 4,7 4,2 10,1 12,0l0 0 0 0z"/>
    <path class="fil0" d="M2404 1407c2,1 5,1 7,1l270 -12c3,0 7,-1 9,-3l567 -567c2,-3 1,-5 -4,-6 -3,-1 -9,-1 -12,1 -1,-1 -4,-1 -7,-1l-269 12c-4,0 -7,1 -9,2l-567 567c-2,2 -1,6 3,7 4,0 9,0 12,-1l0 0 0 0z"/>
    <path class="fil0" d="M1112 571c1,2 3,4 5,6l197 185c2,3 6,5 8,5l801 7c4,0 4,-3 2,-7 -2,-4 -6,-8 -9,-9 -1,-1 -2,-3 -4,-5l-197 -185c-3,-2 -5,-4 -8,-4l-801 -7c-4,0 -5,2 -2,7 1,3 5,5 8,7l0 0 0 0z"/>
    <path class="fil0" d="M2122 1550c-2,-1 -4,-3 -4,-5l-4 -3c-4,-2 -6,-6 -9,-11 -3,-4 -5,-10 -5,-15 0,-4 1,-8 3,-12 3,-4 6,-7 10,-10 5,-2 9,-3 14,-3l801 7c4,0 9,1 13,4 4,1 7,3 10,7l197 185 5 6 3 2c4,3 7,7 9,10 3,6 4,11 4,16 0,3 -1,8 -3,11 -1,4 -5,8 -10,10 -3,3 -8,4 -13,4l-801 -7c-5,0 -10,-1 -15,-4 -3,-2 -6,-4 -10,-6l-195 -186 0 0zm51 -14l174 164 749 7 -175 -164 -748 -7 0 0z"/>
    <path class="fil0" d="M1562 2162c2,-1 4,-2 6,-5l183 -199c3,-3 4,-5 4,-8l1 -802c0,-4 -4,-4 -7,-2 -4,2 -8,7 -8,9 -2,1 -4,2 -6,5l-183 199c-2,2 -3,5 -3,8l-1 802c0,3 3,4 7,2 3,-2 6,-6 7,-9l0 0 0 0z"/>
    <path class="fil0" d="M2509 1131c2,-1 4,-2 5,-5l183 -199c3,-2 5,-6 5,-8l0 -802c0,-3 -3,-4 -8,-1 -3,1 -7,6 -8,9 -2,0 -3,2 -5,4l-183 199c-3,3 -4,5 -4,8l0 802c0,4 2,5 7,2 4,-2 6,-6 8,-9l0 0 0 0z"/>
   </g>
   <path class="fil0" d="M295 3004c12,-45 28,-93 46,-144l98 -273 148 0 0 571 -105 0 0 -289c0,-43 2,-92 5,-149l-3 0c-5,17 -11,35 -17,55 -7,20 -14,39 -21,59l-119 323 -68 0 -118 -323c-7,-20 -14,-39 -21,-59 -6,-20 -12,-38 -17,-55l-4 0c4,53 6,103 6,148l0 290 -105 0 0 -571 146 0 99 272c16,45 32,94 46,146l4 0 0 -1zm419 154l0 -571 105 0 0 260 2 0 216 -260 130 0 -238 283 257 288 -134 0 -231 -258 -2 0 0 258 -105 0 0 0zm967 -400c0,40 -11,74 -34,102 -21,28 -56,48 -102,61l0 2 172 235 -127 0 -155 -222 -72 0 0 222 -105 0 0 -571 173 0c29,0 55,1 81,4 24,4 46,8 63,15 34,12 60,31 78,57 19,25 28,56 28,95l0 0zm-267 91c24,0 44,-1 61,-4 16,-2 30,-5 41,-10 21,-8 36,-19 44,-32 8,-14 11,-30 11,-48 0,-16 -3,-29 -10,-41 -6,-12 -17,-21 -32,-28 -10,-4 -23,-8 -37,-10 -16,-2 -34,-4 -56,-4l-74 0 0 176 52 0 0 1zm367 49l189 0 0 92 -188 0 0 -92 -1 0zm593 106c13,-45 28,-93 46,-144l99 -273 147 0 0 571 -105 0 0 -289c0,-43 2,-92 6,-149l-4 0c-4,17 -11,35 -17,55 -6,20 -13,39 -21,59l-118 323 -68 0 -118 -323c-8,-20 -14,-39 -21,-59 -7,-20 -13,-38 -17,-55l-4 0c4,53 5,103 5,148l0 290 -104 0 0 -571 146 0 99 272c16,45 31,94 46,146l3 0 0 -1zm621 83c19,0 40,-2 61,-6 22,-3 43,-10 65,-17l0 80c-12,6 -33,11 -60,17 -28,5 -56,7 -84,7 -29,0 -57,-4 -84,-12 -26,-7 -49,-20 -68,-36 -20,-17 -36,-39 -47,-65 -12,-27 -18,-59 -18,-98 0,-38 6,-70 17,-98 11,-28 25,-52 43,-70 18,-18 39,-32 62,-41 24,-10 48,-14 74,-14 26,0 50,4 72,12 22,8 42,21 57,37 16,17 29,39 38,66 9,27 14,59 14,95 0,14 -1,26 -1,36l-272 0c2,19 6,35 13,50 7,13 16,24 28,33 12,8 25,15 41,18 14,4 31,6 49,6l0 0zm-40 -275c-13,0 -25,2 -35,7 -10,4 -18,11 -26,19 -7,8 -12,18 -17,28 -4,11 -7,23 -9,34l163 0c0,-12 -2,-23 -5,-34 -3,-11 -8,-20 -14,-28 -7,-8 -15,-15 -24,-19 -10,-5 -21,-7 -33,-7l0 0zm445 275c10,0 19,0 28,-3 9,-3 17,-6 25,-10 8,-5 15,-9 21,-15 6,-5 12,-9 15,-15l0 -196c-12,-10 -25,-18 -40,-25 -14,-6 -30,-9 -47,-9 -10,0 -21,1 -33,6 -12,4 -22,12 -32,22 -9,10 -17,24 -23,42 -7,18 -10,42 -10,70 0,41 8,74 24,97 16,25 41,36 72,36l0 0zm-200 -128c0,-36 4,-69 15,-97 10,-28 24,-52 41,-71 17,-19 37,-34 59,-43 22,-10 45,-15 69,-15 11,0 22,1 32,3 10,2 19,4 28,8 9,4 17,7 24,12 9,4 15,9 22,13l1 0c0,-5 -1,-13 -1,-24 0,-11 0,-22 0,-35l0 -171 101 0 0 495c0,27 0,51 1,71 1,20 1,37 2,52l-91 0 -5 -44 -2 0c-6,7 -13,14 -21,21 -8,6 -17,12 -28,18 -10,4 -22,9 -34,11 -12,3 -25,5 -40,5 -22,0 -44,-4 -65,-12 -20,-8 -39,-20 -55,-37 -16,-17 -30,-39 -40,-65 -9,-27 -13,-59 -13,-95l0 0zm503 -215l101 0 0 414 -101 0 0 -414 0 0zm-3 -205l107 0 0 109 -107 0 0 -109 0 0zm453 575l-2 0c-5,6 -13,11 -21,18 -8,6 -17,12 -27,18 -10,5 -22,10 -34,13 -13,4 -26,6 -41,6 -20,0 -38,-3 -55,-9 -17,-7 -32,-16 -44,-26 -13,-12 -22,-26 -29,-42 -8,-16 -11,-34 -11,-55 0,-23 4,-43 12,-60 8,-18 19,-32 34,-45 14,-13 32,-22 52,-28 20,-6 43,-10 67,-10 18,0 35,1 50,4 15,2 28,5 40,8l0 -17c0,-10 -2,-19 -5,-28 -3,-9 -8,-18 -15,-24 -7,-7 -17,-13 -28,-16 -12,-4 -26,-7 -43,-7 -20,0 -40,2 -61,7 -21,4 -43,12 -67,21l0 -80c21,-9 42,-16 66,-21 23,-4 48,-7 73,-8 30,0 57,4 80,11 22,7 41,17 57,31 15,12 27,28 34,46 7,18 11,37 11,58l0 156c0,27 0,51 1,71 1,19 1,37 2,52l-92 0 -4 -44 0 0zm-9 -133c-10,-3 -21,-5 -34,-7 -12,-1 -25,-2 -38,-2 -24,0 -44,4 -58,14 -15,10 -22,26 -22,45 0,9 2,18 4,25 4,7 8,13 14,17 5,5 12,8 19,10 7,2 15,4 23,4 10,0 20,-1 29,-5 9,-3 18,-6 26,-10 8,-4 14,-9 20,-13 7,-6 12,-10 16,-16l0 -62 1 0z"/>
   <path class="fil0" d="M295 3004c12,-45 28,-93 46,-144l98 -273 148 0 0 571 -105 0 0 -289c0,-43 2,-92 5,-149l-3 0c-5,17 -11,35 -17,55 -7,20 -14,39 -21,59l-119 323 -68 0 -118 -323c-7,-20 -14,-39 -21,-59 -6,-20 -12,-38 -17,-55l-4 0c4,53 6,103 6,148l0 290 -105 0 0 -571 146 0 99 272c16,45 32,94 46,146l4 0 0 -1zm419 154l0 -571 105 0 0 260 2 0 216 -260 130 0 -238 283 257 288 -134 0 -231 -258 -2 0 0 258 -105 0 0 0zm967 -400c0,40 -11,74 -34,102 -21,28 -56,48 -102,61l0 2 172 235 -127 0 -155 -222 -72 0 0 222 -105 0 0 -571 173 0c29,0 55,1 81,4 24,4 46,8 63,15 34,12 60,31 78,57 19,25 28,56 28,95l0 0zm-267 91c24,0 44,-1 61,-4 16,-2 30,-5 41,-10 21,-8 36,-19 44,-32 8,-14 11,-30 11,-48 0,-16 -3,-29 -10,-41 -6,-12 -17,-21 -32,-28 -10,-4 -23,-8 -37,-10 -16,-2 -34,-4 -56,-4l-74 0 0 176 52 0 0 1zm367 49l189 0 0 92 -188 0 0 -92 -1 0zm593 106c13,-45 28,-93 46,-144l99 -273 147 0 0 571 -105 0 0 -289c0,-43 2,-92 6,-149l-4 0c-4,17 -11,35 -17,55 -6,20 -13,39 -21,59l-118 323 -68 0 -118 -323c-8,-20 -14,-39 -21,-59 -7,-20 -13,-38 -17,-55l-4 0c4,53 5,103 5,148l0 290 -104 0 0 -571 146 0 99 272c16,45 31,94 46,146l3 0 0 -1zm621 83c19,0 40,-2 61,-6 22,-3 43,-10 65,-17l0 80c-12,6 -33,11 -60,17 -28,5 -56,7 -84,7 -29,0 -57,-4 -84,-12 -26,-7 -49,-20 -68,-36 -20,-17 -36,-39 -47,-65 -12,-27 -18,-59 -18,-98 0,-38 6,-70 17,-98 11,-28 25,-52 43,-70 18,-18 39,-32 62,-41 24,-10 48,-14 74,-14 26,0 50,4 72,12 22,8 42,21 57,37 16,17 29,39 38,66 9,27 14,59 14,95 0,14 -1,26 -1,36l-272 0c2,19 6,35 13,50 7,13 16,24 28,33 12,8 25,15 41,18 14,4 31,6 49,6l0 0zm-40 -275c-13,0 -25,2 -35,7 -10,4 -18,11 -26,19 -7,8 -12,18 -17,28 -4,11 -7,23 -9,34l163 0c0,-12 -2,-23 -5,-34 -3,-11 -8,-20 -14,-28 -7,-8 -15,-15 -24,-19 -10,-5 -21,-7 -33,-7l0 0zm445 275c10,0 19,0 28,-3 9,-3 17,-6 25,-10 8,-5 15,-9 21,-15 6,-5 12,-9 15,-15l0 -196c-12,-10 -25,-18 -40,-25 -14,-6 -30,-9 -47,-9 -10,0 -21,1 -33,6 -12,4 -22,12 -32,22 -9,10 -17,24 -23,42 -7,18 -10,42 -10,70 0,41 8,74 24,97 16,25 41,36 72,36l0 0zm-200 -128c0,-36 4,-69 15,-97 10,-28 24,-52 41,-71 17,-19 37,-34 59,-43 22,-10 45,-15 69,-15 11,0 22,1 32,3 10,2 19,4 28,8 9,4 17,7 24,12 9,4 15,9 22,13l1 0c0,-5 -1,-13 -1,-24 0,-11 0,-22 0,-35l0 -171 101 0 0 495c0,27 0,51 1,71 1,20 1,37 2,52l-91 0 -5 -44 -2 0c-6,7 -13,14 -21,21 -8,6 -17,12 -28,18 -10,4 -22,9 -34,11 -12,3 -25,5 -40,5 -22,0 -44,-4 -65,-12 -20,-8 -39,-20 -55,-37 -16,-17 -30,-39 -40,-65 -9,-27 -13,-59 -13,-95l0 0zm503 -215l101 0 0 414 -101 0 0 -414 0 0zm-3 -205l107 0 0 109 -107 0 0 -109 0 0zm453 575l-2 0c-5,6 -13,11 -21,18 -8,6 -17,12 -27,18 -10,5 -22,10 -34,13 -13,4 -26,6 -41,6 -20,0 -38,-3 -55,-9 -17,-7 -32,-16 -44,-26 -13,-12 -22,-26 -29,-42 -8,-16 -11,-34 -11,-55 0,-23 4,-43 12,-60 8,-18 19,-32 34,-45 14,-13 32,-22 52,-28 20,-6 43,-10 67,-10 18,0 35,1 50,4 15,2 28,5 40,8l0 -17c0,-10 -2,-19 -5,-28 -3,-9 -8,-18 -15,-24 -7,-7 -17,-13 -28,-16 -12,-4 -26,-7 -43,-7 -20,0 -40,2 -61,7 -21,4 -43,12 -67,21l0 -80c21,-9 42,-16 66,-21 23,-4 48,-7 73,-8 30,0 57,4 80,11 22,7 41,17 57,31 15,12 27,28 34,46 7,18 11,37 11,58l0 156c0,27 0,51 1,71 1,19 1,37 2,52l-92 0 -4 -44 0 0zm-9 -133c-10,-3 -21,-5 -34,-7 -12,-1 -25,-2 -38,-2 -24,0 -44,4 -58,14 -15,10 -22,26 -22,45 0,9 2,18 4,25 4,7 8,13 14,17 5,5 12,8 19,10 7,2 15,4 23,4 10,0 20,-1 29,-5 9,-3 18,-6 26,-10 8,-4 14,-9 20,-13 7,-6 12,-10 16,-16l0 -62 1 0z"/>
   <path class="fil1 str0" d="M2935 1513l0 0 -817 0c-1,0 -1,0 -1,1l209 210c2,2 749,1 820,1 0,0 0,0 0,-1l-208 -210c-1,0 -2,-1 -3,-1"/>
   <path class="fil0" d="M2684 1409l-296 0c-1,0 -1,-1 0,-1l577 -577c1,-1 2,-2 2,-2l296 0c1,0 1,1 0,2l-577 577c0,0 -2,1 -2,1z"/>
   <path class="fil0" d="M2713 936l-208 208c-1,1 -1,0 -1,0l0 -816c0,-1 1,-3 1,-4l208 -208c1,-1 1,0 1,0l0 816c0,2 -1,3 -1,4z"/>
   <path class="fil0" d="M2399 580l0 296c0,1 -1,1 -2,0l-577 -577c-1,-1 -2,-2 -2,-3l0 -295c0,-1 1,-1 2,0l577 577c1,0 2,1 2,2z"/>
   <path class="fil0" d="M1925 550l209 209c1,1 0,1 -1,1l-816 0c-1,0 -2,-1 -3,-1l-209 -209c-1,0 0,0 1,0l815 0c2,0 4,0 4,0z"/>
   <path class="fil0" d="M1570 864l295 0c1,0 1,1 0,2l-577 577c0,1 -1,2 -2,2l-296 0c-1,0 -1,-1 0,-2l577 -577c0,-1 2,-2 3,-2z"/>
   <path class="fil0" d="M1540 1338l209 -209c1,-1 1,0 1,1l0 816c0,0 -1,2 -1,3l-209 209c-1,1 -1,0 -1,-1l0 -815c0,-1 0,-3 1,-4z"/>
   <path class="fil0" d="M1854 1694l0 -295c0,-1 0,-1 1,0l577 576c1,1 2,2 2,3l0 296c0,1 -1,1 -2,0l-577 -577c-1,-1 -1,-2 -1,-3z"/>
   <path class="fil0" d="M295 3004c12,-45 28,-93 46,-144l98 -273 148 0 0 571 -105 0 0 -289c0,-43 2,-92 5,-149l-3 0c-5,17 -11,35 -17,55 -7,20 -14,39 -21,59l-119 323 -68 0 -118 -323c-7,-20 -14,-39 -21,-59 -6,-20 -12,-38 -17,-55l-4 0c4,53 6,103 6,148l0 290 -105 0 0 -571 146 0 99 272c16,45 32,94 46,146l4 0 0 -1zm419 154l0 -571 105 0 0 260 2 0 216 -260 130 0 -238 283 257 288 -134 0 -231 -258 -2 0 0 258 -105 0 0 0zm967 -400c0,40 -11,74 -34,102 -21,28 -56,48 -102,61l0 2 172 235 -127 0 -155 -222 -72 0 0 222 -105 0 0 -571 173 0c29,0 55,1 81,4 24,4 46,8 63,15 34,12 60,31 78,57 19,25 28,56 28,95l0 0zm-267 91c24,0 44,-1 61,-4 16,-2 30,-5 41,-10 21,-8 36,-19 44,-32 8,-14 11,-30 11,-48 0,-16 -3,-29 -10,-41 -6,-12 -17,-21 -32,-28 -10,-4 -23,-8 -37,-10 -16,-2 -34,-4 -56,-4l-74 0 0 176 52 0 0 1zm367 49l189 0 0 92 -188 0 0 -92 -1 0zm593 106c13,-45 28,-93 46,-144l99 -273 147 0 0 571 -105 0 0 -289c0,-43 2,-92 6,-149l-4 0c-4,17 -11,35 -17,55 -6,20 -13,39 -21,59l-118 323 -68 0 -118 -323c-8,-20 -14,-39 -21,-59 -7,-20 -13,-38 -17,-55l-4 0c4,53 5,103 5,148l0 290 -104 0 0 -571 146 0 99 272c16,45 31,94 46,146l3 0 0 -1zm621 83c19,0 40,-2 61,-6 22,-3 43,-10 65,-17l0 80c-12,6 -33,11 -60,17 -28,5 -56,7 -84,7 -29,0 -57,-4 -84,-12 -26,-7 -49,-20 -68,-36 -20,-17 -36,-39 -47,-65 -12,-27 -18,-59 -18,-98 0,-38 6,-70 17,-98 11,-28 25,-52 43,-70 18,-18 39,-32 62,-41 24,-10 48,-14 74,-14 26,0 50,4 72,12 22,8 42,21 57,37 16,17 29,39 38,66 9,27 14,59 14,95 0,14 -1,26 -1,36l-272 0c2,19 6,35 13,50 7,13 16,24 28,33 12,8 25,15 41,18 14,4 31,6 49,6l0 0zm-40 -275c-13,0 -25,2 -35,7 -10,4 -18,11 -26,19 -7,8 -12,18 -17,28 -4,11 -7,23 -9,34l163 0c0,-12 -2,-23 -5,-34 -3,-11 -8,-20 -14,-28 -7,-8 -15,-15 -24,-19 -10,-5 -21,-7 -33,-7l0 0zm445 275c10,0 19,0 28,-3 9,-3 17,-6 25,-10 8,-5 15,-9 21,-15 6,-5 12,-9 15,-15l0 -196c-12,-10 -25,-18 -40,-25 -14,-6 -30,-9 -47,-9 -10,0 -21,1 -33,6 -12,4 -22,12 -32,22 -9,10 -17,24 -23,42 -7,18 -10,42 -10,70 0,41 8,74 24,97 16,25 41,36 72,36l0 0zm-200 -128c0,-36 4,-69 15,-97 10,-28 24,-52 41,-71 17,-19 37,-34 59,-43 22,-10 45,-15 69,-15 11,0 22,1 32,3 10,2 19,4 28,8 9,4 17,7 24,12 9,4 15,9 22,13l1 0c0,-5 -1,-13 -1,-24 0,-11 0,-22 0,-35l0 -171 101 0 0 495c0,27 0,51 1,71 1,20 1,37 2,52l-91 0 -5 -44 -2 0c-6,7 -13,14 -21,21 -8,6 -17,12 -28,18 -10,4 -22,9 -34,11 -12,3 -25,5 -40,5 -22,0 -44,-4 -65,-12 -20,-8 -39,-20 -55,-37 -16,-17 -30,-39 -40,-65 -9,-27 -13,-59 -13,-95l0 0zm503 -215l101 0 0 414 -101 0 0 -414 0 0zm-3 -205l107 0 0 109 -107 0 0 -109 0 0zm453 575l-2 0c-5,6 -13,11 -21,18 -8,6 -17,12 -27,18 -10,5 -22,10 -34,13 -13,4 -26,6 -41,6 -20,0 -38,-3 -55,-9 -17,-7 -32,-16 -44,-26 -13,-12 -22,-26 -29,-42 -8,-16 -11,-34 -11,-55 0,-23 4,-43 12,-60 8,-18 19,-32 34,-45 14,-13 32,-22 52,-28 20,-6 43,-10 67,-10 18,0 35,1 50,4 15,2 28,5 40,8l0 -17c0,-10 -2,-19 -5,-28 -3,-9 -8,-18 -15,-24 -7,-7 -17,-13 -28,-16 -12,-4 -26,-7 -43,-7 -20,0 -40,2 -61,7 -21,4 -43,12 -67,21l0 -80c21,-9 42,-16 66,-21 23,-4 48,-7 73,-8 30,0 57,4 80,11 22,7 41,17 57,31 15,12 27,28 34,46 7,18 11,37 11,58l0 156c0,27 0,51 1,71 1,19 1,37 2,52l-92 0 -4 -44 0 0zm-9 -133c-10,-3 -21,-5 -34,-7 -12,-1 -25,-2 -38,-2 -24,0 -44,4 -58,14 -15,10 -22,26 -22,45 0,9 2,18 4,25 4,7 8,13 14,17 5,5 12,8 19,10 7,2 15,4 23,4 10,0 20,-1 29,-5 9,-3 18,-6 26,-10 8,-4 14,-9 20,-13 7,-6 12,-10 16,-16l0 -62 1 0z"/>
  </g>
 </g>
</svg>
