<?xml version="1.0" encoding="UTF-8"?>
<!DOCTYPE svg PUBLIC "-//W3C//DTD SVG 1.1//EN" "http://www.w3.org/Graphics/SVG/1.1/DTD/svg11.dtd">
<!-- Creator: CorelDRAW X7 -->
<svg xmlns="http://www.w3.org/2000/svg" xml:space="preserve" width="103" height="84" version="1.1" style="shape-rendering:geometricPrecision; text-rendering:geometricPrecision; image-rendering:optimizeQuality; fill-rule:evenodd; clip-rule:evenodd"
viewBox="0 0 2842 2279"
 xmlns:xlink="http://www.w3.org/1999/xlink">
 <defs>
  <style type="text/css">
   <![CDATA[
    .fil0 {fill:white}
   ]]>
  </style>
 </defs>
 <g id="Слой_x0020_1">
  <metadata id="CorelCorpID_0Corel-Layer"/>
  <g id="_538741752">
   <path class="fil0" d="M2451 802c5,14 7,25 6,35 0,9 -2,19 -2,20 -30,66 -55,122 -80,176 -10,24 -20,47 -31,69 -10,23 -21,44 -29,63 -9,19 -17,36 -24,50 -6,14 -10,23 -13,29 -2,4 -6,2 -8,0l51 -441 -165 -2c1,10 1,18 1,26 1,8 0,17 -1,27 -1,7 -6,20 -13,39 -7,18 -16,40 -26,64 -10,24 -21,49 -32,76 -13,28 -24,54 -35,79 -11,24 -21,47 -31,66 -9,20 -16,34 -20,44 -6,12 -12,25 -18,39 -5,13 -12,28 -18,41 -7,14 -14,27 -22,41 -7,14 -16,25 -27,36l75 1 142 -325 -29 325 172 1 144 -318 -33 318 158 1 68 -578 -160 -2z"/>
   <path class="fil0" d="M1949 1217c2,-3 4,-5 6,-9 4,-4 8,-9 12,-15 4,-5 7,-10 11,-15l-159 -1 83 -291c1,-9 6,-16 17,-21 10,-4 17,-7 21,-7l135 1c5,-9 12,-18 18,-28 7,-11 13,-21 18,-30l-337 0 -166 578 154 -1c2,-8 3,-16 6,-24 2,-8 5,-16 7,-25 4,-13 8,-27 12,-41 4,-14 7,-27 11,-38 2,-6 4,-10 8,-12 3,-4 6,-6 9,-8 4,-2 14,-5 15,-5 2,-1 10,-1 23,-1l38 0c9,0 17,0 25,0 8,0 18,1 27,1 1,-2 3,-5 6,-8z"/>
   <path class="fil0" d="M2083 1493c-8,-13 -22,-21 -43,-24 -27,5 -55,16 -83,33 -30,17 -55,36 -76,57l0 18c25,12 38,29 38,52 0,9 -2,20 -5,31 -2,12 -5,23 -8,36l-89 312c-22,28 -48,53 -77,77 -28,24 -79,42 -99,39 -27,-3 -47,-18 -60,-37 -13,-19 -19,-42 -19,-66 0,-9 1,-16 1,-21 0,-3 6,-21 17,-56 11,-34 23,-74 36,-118 13,-45 27,-88 41,-131 13,-42 25,-72 34,-91 4,-11 8,-24 12,-36 4,-12 5,-24 5,-36 0,-16 -4,-30 -12,-43 -8,-13 -26,-26 -41,-25 -28,2 -56,16 -85,33 -28,17 -54,36 -75,58l0 17c14,6 24,14 28,22 5,8 8,18 8,30 0,9 -2,21 -6,34 -4,13 -7,26 -12,39l-116 361c-2,5 -2,11 -3,16 0,2 0,4 -1,6 -45,-2 -86,-17 -102,-44 -15,-28 -24,-60 -24,-95 0,-30 5,-65 14,-103l255 -849c23,-58 53,-109 91,-152 37,-42 83,-78 141,-100 29,-12 60,-26 85,-56 24,-30 37,-65 37,-103 0,-38 -10,-68 -31,-94 -20,-24 -46,-45 -78,-59 -32,-15 -67,-26 -105,-31 -38,-6 -74,-8 -107,-8l-609 0c-91,2 -179,12 -266,30 -87,19 -169,47 -246,84 -77,37 -147,86 -211,145 -64,59 -117,130 -160,212 -29,51 -48,101 -60,150 -12,49 -17,101 -17,156 0,38 -1,76 6,115 3,15 23,26 40,26 11,0 24,-5 32,-13 8,-9 13,-21 13,-35 0,-123 27,-224 82,-306 55,-81 126,-147 214,-196 88,-50 187,-85 299,-106 112,-21 226,-33 341,-35 -68,35 -128,80 -180,131 -52,53 -99,110 -141,172 -41,62 -77,127 -107,195 -30,68 -56,137 -77,206 -30,78 -56,162 -77,251 -21,90 -48,176 -78,259 -32,84 -72,160 -121,228 -50,68 -121,113 -205,153 -14,7 -22,28 -21,37 2,11 17,35 37,34 59,-3 117,-12 173,-32 56,-20 110,-46 158,-81 49,-35 92,-75 130,-124 37,-47 64,-100 82,-157 33,-76 63,-153 88,-230 24,-77 49,-155 72,-234 23,-79 46,-158 69,-238 23,-79 49,-159 77,-239 29,-62 64,-123 108,-183 43,-59 92,-108 147,-147 101,0 186,0 254,2 68,2 127,5 189,15 18,3 34,11 45,19 12,8 16,17 16,26 -2,17 -17,27 -41,39 -97,48 -182,113 -261,190 -78,77 -129,172 -154,286l-109 390c0,0 -124,400 -127,415 -2,10 -6,32 -7,44 -1,11 -1,23 -1,36 0,51 13,96 39,132 25,38 68,62 126,62 36,-1 119,-42 159,-72 39,-28 83,-64 108,-88 4,30 13,57 30,82 21,31 48,53 82,54 35,0 105,-24 153,-53 48,-28 93,-61 132,-97l-6 21c-3,15 -5,29 -5,44 0,24 6,45 20,61 13,16 32,25 58,27 24,-2 45,-10 65,-23 20,-14 40,-27 61,-41l0 -19c-17,-3 -28,-7 -32,-15 -6,-7 -9,-17 -9,-29 0,-10 1,-20 3,-31 2,-11 4,-21 6,-30 6,-34 15,-72 28,-114 12,-42 25,-84 38,-126 13,-43 25,-82 36,-119 11,-37 19,-68 25,-92 2,-12 5,-25 9,-38 4,-13 5,-25 5,-37 -2,-15 -6,-29 -13,-42z"/>
   <path class="fil0" d="M1890 1225l-38 0c-14,0 -21,0 -23,0 -1,1 -12,4 -15,6 -4,1 -7,4 -10,7 -3,4 -5,8 -7,12 -4,11 -8,24 -12,39 -4,14 -7,28 -11,41 -2,8 -5,16 -7,25 -2,8 -4,16 -6,24l-154 1 165 -579 338 1c-6,9 -12,18 -19,29 -6,11 -13,20 -17,28l-136 0c-4,0 -11,2 -21,7 -10,5 -15,12 -17,20l-82 291 159 1c-3,5 -7,10 -11,15 -4,6 -8,11 -11,15 -2,3 -4,6 -7,9 -2,3 -5,6 -7,9 -10,-1 -18,-1 -27,-1 -8,0 -16,0 -24,0z"/>
   <path class="fil0" d="M2543 1380l-158 -1 33 -318 -144 318 -172 -1 29 -325 -141 327 -74 -2c9,-11 18,-23 26,-36 8,-13 15,-26 22,-41 7,-13 13,-27 19,-41 6,-14 11,-27 17,-39 5,-9 12,-24 21,-43 9,-20 19,-42 30,-67 11,-25 23,-51 35,-78 12,-27 23,-53 33,-77 10,-25 18,-46 25,-64 7,-18 12,-31 13,-39 2,-9 2,-18 2,-26 -1,-8 -1,-17 -2,-26l166 1 -51 441c1,3 5,5 8,0 2,-5 6,-15 13,-29 6,-13 13,-30 23,-49 9,-19 18,-40 29,-64 10,-22 21,-45 31,-68 25,-55 51,-110 80,-176 0,-2 2,-11 3,-21 0,-9 -2,-21 -6,-35l160 1 -70 578z"/>
   <path class="fil0" d="M2510 331c-213,-213 -497,-331 -799,-331 -288,0 -563,109 -773,307l-52 48 90 0 55 -56c192,-157 430,-243 680,-243 593,0 1074,481 1074,1074 0,486 -328,913 -796,1038l0 -16 -51 16 0 66 61 -11 3 0c494,-132 840,-581 840,-1093 0,-302 -118,-586 -332,-799z"/>
  </g>
 </g>
</svg>
