<?xml version="1.0" encoding="UTF-8"?>
<!DOCTYPE svg PUBLIC "-//W3C//DTD SVG 1.1//EN" "http://www.w3.org/Graphics/SVG/1.1/DTD/svg11.dtd">
<!-- Creator: CorelDRAW X7 -->
<svg xmlns="http://www.w3.org/2000/svg" xml:space="preserve" width="253" height="47" version="1.1" style="shape-rendering:geometricPrecision; text-rendering:geometricPrecision; image-rendering:optimizeQuality; fill-rule:evenodd; clip-rule:evenodd"
viewBox="0 0 5605 1239"
 xmlns:xlink="http://www.w3.org/1999/xlink">
 <defs>
  <style type="text/css">
   <![CDATA[
    .fil0 {fill:white}
   ]]>
  </style>
 </defs>
 <g id="Слой_x0020_1">
  <metadata id="CorelCorpID_0Corel-Layer"/>
  <g id="_539737024">
   <g>
    <path class="fil0" d="M3989 823c0,24 0,47 0,72 0,9 -3,12 -12,13 -2,0 -4,0 -6,0 -11,0 -24,0 -35,0 -10,0 -13,-3 -13,-13 0,-47 0,-96 1,-143 0,-8 -2,-14 -5,-19 -1,-2 -6,-3 -8,-1 -3,2 -5,5 -7,7 -33,43 -66,86 -100,128 -8,11 -17,22 -26,33 -4,6 -9,8 -15,8 -20,0 -39,0 -60,1 -3,0 -5,-2 -6,-5 0,-2 0,-4 1,-5 27,-28 48,-60 73,-91 26,-32 52,-65 76,-98 5,-5 10,-10 14,-15 6,-7 5,-12 -1,-20 -41,-46 -83,-92 -125,-138 -9,-10 -17,-21 -29,-30 -1,-1 -2,-2 -2,-3 -1,-2 -2,-4 -2,-6 0,-3 3,-4 6,-4 20,0 38,1 58,0 7,0 11,4 15,8 9,8 17,17 24,25 30,37 64,71 95,107 4,5 8,10 12,16 1,2 6,2 8,1 3,0 4,-3 4,-7 0,-43 0,-87 -1,-131 0,-3 -1,-7 0,-10 0,-5 4,-9 9,-9 15,0 30,0 45,0 9,0 12,5 12,13 0,45 0,89 -1,133 0,3 -1,5 1,9 1,2 3,3 5,2 2,-1 4,-3 6,-6 33,-37 67,-74 100,-112 9,-10 19,-22 29,-32 5,-5 10,-8 19,-8 18,0 37,0 55,0 2,0 4,1 5,2 2,2 0,5 -1,7 -4,5 -9,10 -13,15 -42,46 -86,93 -128,140 -5,6 -11,11 -16,17 -6,7 -7,11 -1,17 15,20 31,41 48,62 13,17 28,34 42,51 17,21 32,43 50,63 8,10 14,23 25,31 2,2 0,8 -4,8 -1,0 -1,0 -2,0 -19,0 -38,0 -57,-1 -9,0 -15,-3 -20,-11 -34,-44 -69,-88 -102,-132 -7,-10 -17,-20 -23,-30 -2,-3 -5,-5 -8,-4 -5,0 -6,5 -7,8 -1,5 -1,9 -1,15 -2,25 -2,48 -1,72 -1,0 -1,0 0,0z"/>
    <path class="fil0" d="M2564 959c0,-12 0,-23 0,-33 0,-23 0,-45 0,-68 0,-8 0,-9 8,-11 19,-6 33,-15 43,-31 5,-8 10,-15 13,-23 10,-27 14,-56 15,-84 1,-38 0,-76 1,-114 0,-26 0,-52 0,-78 0,-6 0,-10 0,-15 0,-6 3,-8 9,-9 6,0 10,0 15,0 71,0 142,0 213,0 25,0 24,2 24,24 0,103 0,206 0,309 0,6 0,12 0,17 8,5 17,3 24,4 6,0 12,0 18,1 4,0 6,3 6,7 0,3 0,5 0,8 0,28 0,55 0,83 0,4 -1,8 -1,12 -18,2 -36,1 -53,1 -5,0 -7,-3 -7,-8 0,-10 0,-20 0,-29 0,-12 -3,-14 -15,-15 -3,0 -7,0 -10,0 -72,0 -143,0 -216,0 -6,0 -12,0 -18,1 -6,1 -9,6 -9,12 0,9 0,19 0,29 0,8 -3,10 -10,10 -16,0 -32,0 -50,0zm277 -257c0,0 0,0 0,0 0,-45 0,-90 0,-135 0,-9 -1,-11 -10,-11 -37,0 -75,0 -113,0 -9,0 -10,2 -10,11 0,31 0,63 0,94 -1,38 3,76 -8,113 -1,19 -9,35 -20,51 -4,5 -8,10 -12,16 -2,2 0,7 2,7 2,0 4,0 6,0 50,0 98,0 148,0 3,0 7,0 10,0 4,0 6,-2 7,-7 0,-4 0,-8 0,-12 0,-42 0,-85 0,-127z"/>
    <path class="fil0" d="M3309 710c0,-66 0,-133 0,-199 0,-3 0,-5 0,-8 1,-4 3,-8 8,-8 17,0 33,0 50,0 3,0 5,2 5,5 1,5 1,9 1,15 0,78 0,157 0,236 0,4 0,8 1,12 1,3 3,4 6,3 3,-2 7,-4 10,-7 70,-75 141,-150 211,-224 14,-15 30,-29 43,-46 1,-2 4,-3 8,-4 3,-1 5,1 6,3 1,1 0,3 0,4 0,134 0,268 0,402 0,10 -2,13 -12,13 -15,1 -29,1 -45,0 -5,0 -9,-4 -9,-9 0,-2 0,-4 0,-6 0,-75 0,-151 0,-226 0,-7 0,-15 0,-23 0,-4 -5,-7 -10,-4 -2,1 -4,2 -5,3 -33,35 -66,72 -100,107 -39,41 -78,82 -117,123 -15,16 -28,31 -43,46 -2,2 -4,4 -7,2 -1,-1 -2,-3 -2,-5 0,-3 0,-6 0,-9 0,-6 0,-12 0,-18 1,-59 1,-118 1,-178 0,0 0,0 0,0z"/>
    <path class="fil0" d="M5289 694c0,65 0,130 0,195 0,18 0,19 -20,18 -11,0 -23,0 -35,0 -7,0 -9,-3 -9,-10 0,-11 0,-22 0,-33 0,-70 0,-139 0,-209 0,-5 0,-10 -1,-15 0,-1 -1,-2 -2,-3 -1,-1 -2,-1 -3,0 -14,14 -27,27 -40,41 -26,27 -51,54 -77,81 -30,32 -59,63 -89,95 -20,20 -41,40 -58,63 -1,1 -3,2 -5,3 -3,1 -9,-2 -7,-5 4,-15 2,-30 2,-45 0,-112 0,-226 0,-338 0,-8 -1,-16 0,-25 0,-8 4,-12 12,-12 12,0 25,0 37,0 13,0 17,3 17,17 0,77 0,154 0,230 0,8 -3,16 3,22 10,1 13,-8 18,-13 25,-26 50,-52 74,-78 39,-40 76,-81 114,-121 20,-22 41,-44 62,-65 1,-1 4,-2 5,-2 1,1 3,3 3,5 0,6 0,12 0,18 -1,61 -1,123 -1,186 0,0 0,0 0,0z"/>
    <path class="fil0" d="M2548 704c3,21 -1,41 -8,62 -14,42 -37,78 -72,106 -23,18 -48,28 -73,38 -1,0 -1,1 -2,1 -21,4 -43,9 -63,9 -21,0 -42,-2 -61,-9 -53,-16 -97,-46 -126,-94 -12,-21 -17,-36 -25,-60 -9,-28 -5,-57 -6,-86 0,-2 0,-4 1,-6 7,-21 11,-41 22,-61 17,-33 40,-61 72,-80 43,-28 92,-39 142,-35 51,4 97,22 134,59 23,21 42,47 51,77 8,11 7,25 12,36 2,4 2,9 2,14 1,10 0,19 0,29zm-216 -155c-21,-3 -39,1 -58,9 -11,4 -23,9 -33,16 -37,27 -55,65 -63,109 -5,25 0,51 9,76 7,18 16,35 29,50 24,27 55,42 89,47 26,4 53,3 78,-6 34,-13 61,-32 79,-65 7,-14 12,-27 16,-42 3,-13 6,-26 6,-40 0,-14 -3,-28 -6,-42 -4,-16 -9,-30 -17,-43 -13,-22 -30,-40 -52,-51 -24,-12 -49,-23 -77,-18z"/>
    <path class="fil0" d="M2994 702c0,-64 0,-129 0,-193 0,-11 3,-15 14,-15 37,0 73,-1 110,5 29,5 71,35 82,68 7,23 9,44 5,66 -2,15 -9,28 -20,39 -2,2 -4,4 -5,6 -3,5 -2,9 3,11 8,2 13,6 18,9 28,19 42,44 44,78 1,21 -2,41 -9,58 -9,23 -25,41 -46,54 -21,12 -44,17 -68,18 -38,0 -75,1 -111,1 -2,0 -4,0 -6,0 -7,-2 -10,-4 -10,-12 0,-34 0,-68 0,-102 0,-31 0,-61 -1,-91 1,0 0,0 0,0zm65 84c0,0 0,0 0,0 0,15 0,30 0,45 0,3 0,7 1,10 1,5 4,8 8,8 25,2 56,0 78,-9 19,-6 30,-20 34,-39 3,-15 2,-31 -7,-45 -8,-13 -19,-22 -33,-25 -22,-4 -42,-8 -65,-7 -13,1 -16,4 -16,16 0,16 0,30 0,46zm0 -172c0,0 1,0 0,0 0,7 0,15 0,22 0,7 -1,15 -1,23 0,9 4,14 14,15 4,0 8,1 12,0 15,-3 30,-4 42,-14 6,-5 12,-11 14,-19 2,-11 10,-20 7,-33 -1,-5 -4,-10 -5,-15 -5,-23 -21,-32 -42,-35 -10,-2 -21,-1 -31,-1 -8,0 -11,3 -11,11 1,15 1,30 1,46z"/>
    <path class="fil0" d="M4860 702c0,64 0,127 0,191 0,12 -2,14 -13,14 -14,0 -26,0 -40,0 -9,0 -11,-3 -11,-12 0,-13 0,-28 0,-41 0,-40 0,-81 0,-121 0,-3 0,-5 0,-8 0,-5 -3,-8 -9,-9 -3,-1 -7,-1 -11,-1 -47,0 -93,0 -141,0 -2,0 -4,0 -6,0 -10,1 -13,3 -13,13 0,16 0,33 0,49 0,38 0,75 0,111 0,4 0,8 0,12 0,4 -3,7 -7,7 -17,0 -34,0 -51,0 -4,0 -6,-3 -6,-7 0,-3 0,-5 0,-8 0,-127 0,-253 0,-380 0,-3 0,-5 0,-8 0,-5 4,-9 9,-9 15,0 31,0 47,0 6,0 8,4 8,8 0,5 0,12 0,17 0,40 0,80 0,120 0,12 2,15 13,16 2,0 4,0 6,0 47,0 93,0 139,0 5,0 9,0 13,-1 7,-1 8,-4 8,-12 0,-35 0,-70 0,-104 0,-11 0,-21 0,-33 0,-8 3,-11 11,-11 14,0 26,0 40,0 11,0 14,3 14,15 0,61 0,122 0,183 0,3 0,6 0,9 0,0 0,0 0,0z"/>
    <path class="fil0" d="M1456 701c0,-62 0,-123 0,-184 0,-5 0,-9 0,-13 0,-5 3,-8 10,-8 4,0 8,0 12,0 89,0 176,0 265,0 1,0 3,0 4,0 17,0 19,2 19,20 0,124 0,250 0,375 0,3 0,7 0,10 -1,6 -5,12 -13,12 -13,0 -28,0 -41,0 -9,0 -14,-8 -13,-17 0,-6 1,-12 1,-19 0,-99 0,-198 0,-296 0,-3 0,-5 0,-7 0,-13 -3,-16 -18,-16 -47,0 -96,0 -143,0 -2,0 -4,0 -6,0 -9,1 -12,4 -12,11 3,104 0,209 1,314 0,6 0,12 0,18 -1,6 -5,10 -10,10 -15,0 -30,0 -45,0 -7,0 -11,-4 -11,-10 0,-4 0,-8 0,-12 0,-63 0,-126 0,-188z"/>
    <path class="fil0" d="M4477 654c5,9 3,20 3,30 0,33 4,28 -29,28 -34,0 -68,0 -102,0 -5,0 -9,0 -13,0 -14,0 -16,3 -16,17 0,33 0,67 0,100 0,3 0,5 0,8 1,6 4,10 11,10 5,0 9,0 14,0 40,0 79,0 117,0 5,0 9,0 14,0 8,1 11,3 11,10 0,13 0,26 0,39 0,5 -3,9 -8,10 -5,1 -9,1 -13,1 -64,0 -127,0 -191,0 -3,0 -7,0 -10,0 -8,-1 -11,-5 -11,-13 0,-128 0,-256 0,-384 0,-2 0,-4 0,-6 0,-5 4,-9 9,-9 3,0 7,0 10,0 64,0 129,0 193,0 3,0 7,0 10,0 6,1 11,5 11,11 0,14 0,26 0,39 0,8 -5,11 -13,12 -5,0 -9,0 -14,0 -39,0 -79,0 -119,0 -5,0 -9,0 -14,0 -4,0 -6,3 -6,6 0,2 0,4 0,6 0,24 0,48 0,72 0,10 2,11 10,12 5,0 9,0 14,0 38,0 76,0 113,0 6,-1 13,-2 19,1z"/>
    <path class="fil0" d="M5601 556c-7,0 -14,0 -21,0 -38,0 -77,0 -115,0 -5,0 -9,0 -14,0 -9,0 -10,1 -10,10 0,23 0,45 0,68 0,4 0,8 0,13 0,3 2,5 5,5 5,0 11,0 16,0 41,0 84,0 125,0 10,0 13,3 14,12 0,11 0,22 0,33 0,13 -2,15 -15,15 -40,0 -81,0 -121,0 -7,0 -14,0 -21,0 -3,6 -3,10 -3,14 0,35 0,70 0,104 0,3 0,7 1,10 0,4 2,7 6,7 5,0 11,0 16,0 41,0 83,0 123,0 20,0 19,2 17,18 0,11 0,22 0,33 0,4 -2,6 -6,7 -4,1 -8,1 -12,1 -66,0 -131,0 -197,0 -3,0 -5,0 -8,0 -4,-1 -6,-3 -6,-7 0,-4 0,-8 0,-12 0,-124 0,-248 0,-371 0,-1 0,-1 0,-3 0,-20 0,-20 20,-20 63,0 126,0 189,0 20,0 20,0 20,22 0,8 0,16 0,24 0,6 0,12 -3,17z"/>
    <path class="fil0" d="M1846 701c0,-62 0,-123 0,-184 0,-4 0,-8 0,-11 1,-7 4,-11 11,-12 1,0 4,0 5,0 37,0 74,-2 110,3 12,2 25,4 36,8 32,13 55,33 67,66 10,27 11,54 5,81 -4,16 -11,31 -24,44 -17,20 -40,32 -64,41 -4,2 -9,2 -14,2 -17,1 -35,4 -53,4 -9,0 -12,4 -12,13 0,15 0,31 0,47 0,31 0,62 0,92 0,10 -5,18 -17,16 -11,-1 -21,0 -31,0 -15,0 -20,-5 -20,-19 0,-60 0,-121 0,-181 1,-4 1,-7 1,-10 0,0 0,0 0,0zm68 -83c0,0 0,0 0,0 0,13 0,25 0,39 0,30 0,25 27,27 16,1 33,-5 47,-11 29,-12 39,-41 33,-67 -3,-14 -9,-29 -22,-37 -11,-5 -21,-11 -32,-11 -14,-1 -27,-1 -42,-1 -8,0 -11,2 -11,11 -1,16 0,33 0,50z"/>
   </g>
   <g>
    <path class="fil0" d="M869 45c-20,-15 -43,-27 -65,-34 -24,-7 -49,-11 -75,-11 -136,1 -272,0 -409,0 -28,0 -55,0 -82,7 -22,5 -42,14 -60,24 -55,34 -94,81 -122,140 -8,17 -13,34 -20,52 -8,23 -16,47 -17,73 0,3 -1,6 -1,9 -8,40 -8,87 -3,129 4,34 12,67 21,100 12,38 27,74 47,109 7,14 14,27 22,41 0,0 -1,1 -1,1 0,1 1,1 2,2 10,9 19,19 26,31 -1,4 0,7 4,8 7,2 14,1 19,4 9,6 20,6 31,6 22,0 225,15 242,19 13,2 25,2 36,1 10,0 15,-7 21,-13 1,-1 2,-5 2,-6 -3,-11 -7,-22 -11,-34 -1,-2 -24,-127 -24,-130 0,-39 0,-79 0,-118 0,-2 19,-117 20,-120 0,-3 -1,-6 0,-9 8,-23 15,-46 24,-68 19,-42 42,-84 70,-120 28,-35 60,-66 100,-86 16,-9 31,-15 49,-14 19,0 37,1 56,1 17,0 34,6 49,14 27,12 55,22 85,28 -7,-17 -23,-24 -36,-36z"/>
    <path class="fil0" d="M891 1056c24,-8 47,-21 64,-37 19,-17 36,-35 50,-58 71,-117 144,-233 216,-350 15,-23 29,-47 38,-74 8,-21 12,-42 12,-64 0,-65 -21,-124 -57,-178 -10,-16 -23,-30 -34,-44 -15,-20 -32,-40 -54,-54 -3,-2 -5,-4 -7,-6 -31,-29 -70,-54 -109,-71 -32,-15 -64,-26 -98,-34 -39,-11 -78,-17 -120,-19 -15,-1 -31,-2 -46,-3 0,0 -1,-1 -1,-1 -1,0 -2,0 -3,0 -14,4 -27,6 -41,6 -4,-2 -7,-3 -10,-1 -5,4 -8,11 -13,13 -10,6 -16,14 -22,23 -11,18 -131,185 -144,198 -8,9 -15,20 -21,31 -4,7 -1,17 -1,24 0,2 3,4 5,5 12,3 24,6 36,8 2,0 122,48 124,50 34,21 68,42 102,64 2,1 91,78 93,80 3,1 6,2 8,5 16,20 31,37 46,58 26,39 49,79 66,124 15,42 24,86 21,132 -1,17 -4,34 -13,48 -10,16 -21,32 -31,48 -9,14 -24,25 -37,35 -26,16 -49,35 -69,56 18,1 34,-9 50,-14z"/>
    <path class="fil0" d="M7 543c-7,25 -9,50 -6,75 4,24 10,49 20,73 57,125 111,250 167,376 11,26 23,51 40,73 14,18 29,33 47,46 53,37 114,53 179,53 19,0 37,-1 56,-3 26,-2 50,-4 74,-13 3,-1 6,-2 9,-3 40,-9 84,-28 121,-50 30,-17 57,-38 83,-61 31,-26 58,-55 83,-87 9,-13 20,-25 29,-36 0,0 1,0 1,0 0,-1 1,-2 1,-2 4,-14 10,-26 17,-38 5,-2 7,-4 7,-8 -1,-6 -5,-13 -5,-19 3,-12 -2,-21 -6,-31 -8,-20 -78,-213 -81,-231 -3,-13 -8,-23 -14,-34 -4,-8 -12,-11 -19,-15 -2,-1 -5,0 -7,1 -10,9 -19,17 -27,25 -2,2 -108,73 -111,74 -37,17 -73,32 -110,49 -2,1 -115,30 -118,31 -4,1 -6,4 -9,4 -24,1 -48,5 -73,5 -47,0 -94,-4 -139,-15 -44,-12 -86,-29 -121,-57 -13,-10 -26,-23 -33,-39 -7,-18 -14,-35 -21,-52 -8,-16 -9,-34 -9,-50 1,-30 -1,-60 -8,-90 -12,15 -12,33 -17,49z"/>
   </g>
  </g>
 </g>
</svg>
