<?xml version="1.0" encoding="UTF-8"?>
<!DOCTYPE svg PUBLIC "-//W3C//DTD SVG 1.1//EN" "http://www.w3.org/Graphics/SVG/1.1/DTD/svg11.dtd">
<!-- Creator: CorelDRAW X7 -->
<svg xmlns="http://www.w3.org/2000/svg" xml:space="preserve" width="279" height="36" version="1.1" style="shape-rendering:geometricPrecision; text-rendering:geometricPrecision; image-rendering:optimizeQuality; fill-rule:evenodd; clip-rule:evenodd"
viewBox="0 0 2398 305"
 xmlns:xlink="http://www.w3.org/1999/xlink">
 <defs>
  <style type="text/css">
   <![CDATA[
    .fil0 {fill:#FDFEFF}
   ]]>
  </style>
 </defs>
 <g id="Слой_x0020_1">
  <metadata id="CorelCorpID_0Corel-Layer"/>
  <g id="_538741056">
   <g>
    <path class="fil0" d="M299 55l-70 0 0 -55 70 0 0 55 0 0zm0 244l-70 0 0 -221 70 0 0 221 0 0z"/>
    <path class="fil0" d="M403 0l0 107c18,-27 47,-30 59,-30 25,0 46,11 58,24 24,25 28,63 28,90 0,34 -6,69 -32,92 -24,20 -50,21 -60,21 -33,0 -46,-14 -56,-26 -1,4 -3,18 -3,21l-64 0 0 -299 70 0zm37 132c-34,0 -39,34 -39,60 0,12 0,61 38,61 38,0 38,-45 38,-61 0,-16 -1,-60 -37,-60z"/>
    <g>
     <path class="fil0" d="M904 305c-56,0 -109,-39 -109,-112 0,-73 48,-116 107,-116 61,0 110,45 111,116 0,71 -50,112 -109,112l0 0zm0 -171c-25,0 -39,21 -39,54 0,12 0,59 39,59 28,0 39,-25 39,-54 0,-12 0,-59 -39,-59z"/>
    </g>
    <polygon class="fil0" points="1236,82 1159,299 1084,299 1006,82 1077,82 1122,214 1166,82 "/>
    <g>
     <path class="fil0" d="M1339 305c-57,0 -109,-39 -109,-112 0,-73 47,-116 106,-116 62,0 111,45 111,116 1,71 -50,112 -108,112l0 0zm-1 -171c-25,0 -38,21 -38,54 0,12 0,59 39,59 28,0 38,-25 39,-54 0,-12 0,-59 -40,-59z"/>
    </g>
    <path class="fil0" d="M1490 228c17,14 42,27 70,27 6,0 14,-1 20,-4 8,-4 9,-9 9,-14 0,-7 -4,-11 -9,-14 -5,-2 -10,-3 -39,-6 -26,-5 -76,-13 -76,-66 0,-49 43,-74 88,-74 35,0 69,11 95,33l-35 38c-17,-16 -44,-22 -57,-22 -23,0 -24,14 -24,16 0,9 9,12 18,13 7,2 39,6 46,7 14,3 64,11 64,66 0,54 -51,76 -100,76 -30,0 -66,-6 -107,-39l37 -37z"/>
    <path class="fil0" d="M37 224c16,14 42,27 70,27 6,0 14,-1 20,-4 7,-4 9,-9 9,-14 0,-7 -4,-11 -9,-13 -6,-3 -10,-3 -39,-7 -27,-4 -76,-12 -76,-65 0,-49 43,-75 88,-75 35,0 69,12 95,33l-35 38c-17,-16 -44,-22 -57,-22 -23,0 -24,15 -24,16 0,9 9,12 18,14 7,1 39,5 46,6 14,3 63,12 63,67 0,53 -50,76 -99,76 -30,0 -67,-6 -107,-40l37 -37z"/>
    <path class="fil0" d="M1769 228c1,10 2,23 21,23 5,0 9,-1 12,-2l0 51c-13,2 -23,3 -39,3 -63,0 -63,-26 -64,-62l0 -123 -27 0 0 -38 27 0 0 -80 70 0 0 80 33 0 0 38 -33 0 0 110z"/>
    <rect class="fil0" x="1940" y="228" width="65.3894" height="69.8382"/>
    <path class="fil0" d="M2174 146c-5,-1 -12,-3 -25,-3 -25,0 -40,10 -48,18l0 137 -63 0 0 -210 58 0 0 28c6,-9 20,-32 56,-32 9,0 15,2 22,4l0 58z"/>
    <path class="fil0" d="M2398 88l0 210 -65 0 -2 -24c-12,14 -23,28 -59,28 -12,0 -29,-3 -41,-8 -28,-15 -29,-42 -30,-60l0 -146 68 0 0 120c0,10 1,22 7,30 4,5 12,9 22,9 5,0 10,-2 12,-2 20,-8 20,-27 20,-48l0 -109 68 0 0 0z"/>
    <path class="fil0" d="M575 297l0 -211 65 0 1 24c12,-14 23,-28 59,-28 12,0 30,3 42,9 28,14 28,41 29,59l0 146 -68 0 0 -119c0,-10 0,-22 -6,-30 -5,-6 -13,-10 -22,-10 -6,0 -11,2 -13,3 -20,8 -20,26 -20,48l0 108 -67 0 0 1z"/>
    <path class="fil0" d="M1903 55l-70 0 0 -55 70 0 0 55zm0 244l-70 0 0 -221 70 0 0 221z"/>
   </g>
  </g>
 </g>
</svg>
