<?xml version="1.0" encoding="UTF-8"?>
<!DOCTYPE svg PUBLIC "-//W3C//DTD SVG 1.1//EN" "http://www.w3.org/Graphics/SVG/1.1/DTD/svg11.dtd">
<!-- Creator: CorelDRAW X7 -->
<svg xmlns="http://www.w3.org/2000/svg" xml:space="preserve" width="243" height="63" version="1.1" style="shape-rendering:geometricPrecision; text-rendering:geometricPrecision; image-rendering:optimizeQuality; fill-rule:evenodd; clip-rule:evenodd"
viewBox="0 0 6346 1616"
 xmlns:xlink="http://www.w3.org/1999/xlink">
 <defs>
  <style type="text/css">
   <![CDATA[
    .fil0 {fill:#FEFEFE}
   ]]>
  </style>
 </defs>
 <g id="Слой_x0020_1">
  <metadata id="CorelCorpID_0Corel-Layer"/>
  <g id="_534305400">
   <path class="fil0" d="M555 717c-47,-14 -95,-9 -138,11l235 64c-27,-41 -61,-64 -97,-75z"/>
   <path class="fil0" d="M987 851c22,22 47,36 72,45l0 0c7,2 15,3 22,6 39,7 78,1 114,-16l-232 -62c8,9 15,18 24,27z"/>
   <path class="fil0" d="M935 772l1 -6 2 6c7,18 17,36 26,50l232 63c10,-5 21,-11 30,-18 43,-29 76,-74 93,-130 1,-2 1,-4 2,-7 2,-18 3,-35 3,-53 -124,-6 -259,-27 -400,-63 -12,45 -28,109 -47,185l46 12 12 -39z"/>
   <path class="fil0" d="M1321 538c-4,-11 -7,-20 -11,-30 -23,-54 -66,-92 -117,-107l0 0c-28,-9 -56,-9 -81,-4 -31,7 -58,21 -79,39l-5 4 1 -4c-41,30 -66,66 -89,129 136,34 269,54 388,60 -1,-30 -4,-59 -7,-87z"/>
   <path class="fil0" d="M1030 87l-60 224c34,-20 70,-32 104,-39l0 -1 0 -2 1 0c30,-8 59,-10 86,-9 24,1 47,5 68,11 -3,-5 -6,-9 -8,-13 -68,-100 -149,-150 -191,-171z"/>
   <path class="fil0" d="M808 0c-446,0 -808,362 -808,808 0,366 243,675 577,774 -45,-25 -171,-103 -253,-262 -71,-35 -111,-86 -140,-147 -30,-65 -37,-125 -34,-189 -11,0 -21,1 -32,3 -33,2 -64,7 -93,13 -1,-4 -3,-8 -3,-12 -2,-13 -5,-26 -8,-39 31,-6 64,-11 99,-14 13,-2 28,-3 42,-3 2,-20 6,-41 9,-64 13,-74 49,-135 94,-184l-237 -64 13 -49 260 69c27,-94 60,-173 96,-242 -38,-22 -73,-46 -105,-70 -29,-21 -55,-42 -77,-63 8,-10 18,-19 27,-29 2,-2 6,-6 8,-8 22,20 45,40 72,60 31,23 64,45 100,66 46,-75 95,-134 147,-179 206,-182 433,-154 456,-147l0 0c19,5 147,59 244,200 15,21 29,46 42,72 22,12 41,25 56,40 31,29 52,63 70,100l0 0c23,50 34,100 35,150 0,11 0,24 0,36 28,-1 56,-3 82,-6 15,-2 30,-3 45,-6 3,17 7,33 10,50 -16,2 -33,5 -49,7 -30,4 -61,6 -93,7 -2,21 -6,44 -10,68 -10,54 -31,101 -59,143 -11,14 -22,28 -33,41l236 64 -13 49 -257 -69c-27,95 -61,177 -100,245 53,32 102,65 144,100 13,10 26,21 38,31 130,-142 209,-334 209,-542 1,-446 -360,-808 -807,-808z"/>
   <path class="fil0" d="M359 606c73,-39 150,-41 229,-16 50,15 95,41 136,88l-21 73 47 13c20,-73 37,-137 50,-185 -137,-43 -261,-96 -366,-154 -26,52 -52,113 -75,181z"/>
   <path class="fil0" d="M598 214c-47,42 -95,97 -137,166 101,57 221,108 354,149 24,-71 53,-123 88,-160l79 -295c-64,-4 -228,2 -384,140z"/>
   <path class="fil0" d="M678 842c-7,-18 -16,-36 -26,-50l-235 -64c-48,22 -89,64 -113,118 -4,31 -6,59 -7,87 120,7 254,29 392,65 16,-62 34,-125 49,-184l-48 -13 -12 41z"/>
   <path class="fil0" d="M1198 1263c-203,320 -497,334 -577,332 61,14 122,21 187,21 219,0 417,-87 564,-229 -11,-9 -23,-19 -35,-29 -41,-32 -87,-64 -139,-95z"/>
   <path class="fil0" d="M1024 1027l0 0c-24,-7 -48,-18 -72,-33 -22,-15 -45,-33 -65,-57l-1 -1 0 -1 21 -75 -44 -12c-16,59 -32,123 -50,187 136,44 259,98 365,157 30,-53 57,-116 80,-187 -35,21 -72,31 -108,35 -39,6 -82,0 -126,-13z"/>
   <path class="fil0" d="M795 1102c-18,59 -44,106 -77,142l-80 299c86,0 338,-26 516,-307 -102,-57 -222,-109 -352,-153 0,2 0,3 -1,3 -1,3 -5,15 -6,16z"/>
   <path class="fil0" d="M311 1124c25,46 64,76 110,91 65,20 124,-5 163,-36 43,-29 68,-66 91,-131 -135,-35 -264,-57 -380,-63 2,50 7,96 16,139z"/>
   <path class="fil0" d="M538 1342c7,-26 15,-53 23,-81l-23 81z"/>
   <path class="fil0" d="M601 1324c-21,9 -42,15 -63,18 -51,13 -97,12 -140,3 66,104 149,160 190,184l62 -229c-16,9 -32,17 -50,24 0,2 0,2 1,0z"/>
   <path class="fil0" d="M2354 606c-26,27 -68,53 -120,53 -80,0 -143,-56 -143,-164 0,-90 83,-168 180,-168 38,0 80,16 110,55l14 -110c-38,-22 -76,-30 -115,-30 -69,0 -131,18 -185,64 -56,47 -101,112 -101,189 0,72 5,130 55,184 36,39 84,68 168,68 37,0 79,-7 122,-29l15 -112 0 0zm261 -195c-59,0 -103,20 -133,44 -34,27 -67,72 -67,123 0,51 9,93 38,121 18,19 54,44 120,44 61,0 103,-20 133,-44 34,-28 67,-70 67,-121 0,-68 -22,-107 -38,-123 -29,-30 -69,-44 -120,-44l0 0zm-31 255c-52,0 -77,-40 -77,-88 0,-50 47,-89 99,-89 51,0 77,40 77,89 -1,49 -49,88 -99,88l0 0zm276 -245l-37 313 160 0c22,0 48,-4 72,-20 28,-18 42,-42 42,-70 0,-20 1,-40 -17,-59 -10,-11 -23,-18 -38,-20 29,-12 51,-38 51,-64 0,-26 -7,-47 -23,-61 -23,-19 -51,-19 -72,-19l-138 0 0 0zm73 124l7 -55 39 0c7,0 20,0 26,5 4,5 7,12 7,23 0,9 -7,17 -14,21 -8,3 -16,6 -24,6l-41 0 0 0zm-15 119l7 -63 44 0c18,0 25,5 30,7 8,8 8,16 8,23 0,11 -6,20 -14,25 -11,7 -24,8 -33,8l-42 0 0 0zm326 30c29,47 73,50 94,50 92,0 177,-71 177,-166 0,-95 -41,-167 -133,-167 -44,0 -81,18 -109,51l5 -40 -89 0 -59 481 88 0 26 -209 0 0zm103 -205c50,0 76,38 76,89 0,51 -47,88 -98,88 -51,0 -76,-40 -76,-88 1,-51 47,-89 98,-89l0 0zm454 144c-17,26 -45,42 -78,42 -34,0 -51,-17 -59,-30 -8,-14 -12,-34 -8,-53l234 0 1 -7c3,-34 7,-83 -23,-123 -30,-44 -79,-51 -115,-51 -47,0 -88,12 -125,44 -31,28 -62,67 -62,123 0,41 -1,84 34,121 32,35 72,44 115,44 72,0 132,-34 166,-98l-80 -12 0 0zm-136 -97c12,-41 49,-62 80,-62 34,0 65,20 68,62l-148 0 0 0zm242 198l89 0 47 -170 59 176 26 0 103 -176 5 170 88 0 -17 -322 -65 0 -109 189 -63 -189 -65 0 -98 322 0 0zm706 -101c-17,26 -45,42 -78,42 -35,0 -51,-17 -59,-30 -9,-14 -12,-34 -9,-53l234 0 1 -7c4,-34 8,-83 -22,-123 -31,-44 -79,-51 -116,-51 -46,0 -87,12 -124,44 -32,28 -62,67 -62,123 0,41 -2,84 34,121 32,35 72,44 114,44 72,0 133,-34 167,-98l-80 -12 0 0zm-136 -97c12,-41 48,-62 80,-62 33,0 65,20 67,62l-147 0 0 0zm274 198l89 0 15 -128 123 0 -16 128 89 0 38 -313 -89 0 -14 111 -123 0 14 -111 -88 0 -38 313 0 0zm383 0l88 0 16 -128 123 0 -16 128 89 0 38 -313 -89 0 -14 111 -123 0 14 -111 -88 0 -38 313 0 0zm422 -313l-38 313 160 0c22,0 48,-3 74,-24 22,-18 42,-42 42,-79 0,-23 1,-46 -15,-67 -21,-28 -59,-32 -81,-32l-68 0 14 -111 -88 0 0 0zm57 243l7 -63 44 0c18,0 25,5 30,7 8,8 8,16 8,23 0,11 -6,20 -14,25 -11,7 -24,8 -33,8l-42 0 0 0zm239 -243l-38 313 89 0 38 -313 -89 0 0 0zm173 0l-38 313 88 0 168 -193 -23 193 88 0 38 -313 -89 0 -167 192 23 -192 -88 0 0 0zm241 -156c-11,29 -38,46 -67,46 -30,0 -53,-20 -54,-46l-61 27c14,60 72,74 108,74 38,0 100,-14 128,-74l-54 -27z"/>
   <path class="fil0" d="M2027 1293c29,47 73,50 94,50 92,0 177,-71 177,-166 0,-95 -41,-167 -133,-167 -44,0 -81,18 -109,51l5 -40 -89 0 -59 481 88 0 26 -209 0 0zm103 -205c50,0 76,38 76,89 0,51 -47,88 -98,88 -51,0 -76,-40 -76,-88 1,-51 47,-89 98,-89l0 0zm189 413l100 0 310 -481 -99 0 -109 177 -75 -177 -103 0 116 265 -140 216 0 0zm689 -473c-25,-12 -49,-19 -83,-19 -40,0 -81,11 -118,40 -41,33 -69,81 -69,128 0,51 9,92 35,120 25,26 66,46 115,46 26,0 55,-6 84,-20l10 -86c-29,25 -60,27 -72,27 -53,0 -80,-36 -80,-88 0,-46 40,-89 99,-89 31,0 51,11 69,27l10 -86 0 0zm301 0c-24,-12 -49,-19 -82,-19 -40,0 -82,11 -118,40 -42,33 -70,81 -70,128 0,51 9,92 35,120 25,26 66,46 115,46 26,0 55,-6 84,-20l10 -86c-29,25 -60,27 -72,27 -53,0 -80,-36 -80,-88 0,-46 40,-89 99,-89 31,0 51,11 69,27l10 -86 0 0zm68 -8l-38 313 89 0 14 -116 14 -13 92 129 112 0 -127 -174 159 -139 -110 0 -131 121 14 -121 -88 0 0 0zm361 0l-37 313 88 0 168 -193 -24 193 89 0 38 -313 -89 0 -168 192 24 -192 -89 0 0 0zm404 0l-37 313 88 0 168 -193 -24 193 89 0 38 -313 -89 0 -168 192 24 -192 -89 0 0 0zm241 -157c-10,29 -37,46 -66,46 -30,0 -53,-20 -54,-46l-62 27c15,60 73,74 109,74 38,0 99,-14 128,-74l-55 -27z"/>
  </g>
 </g>
</svg>
