<?xml version="1.0" encoding="UTF-8"?>
<!DOCTYPE svg PUBLIC "-//W3C//DTD SVG 1.1//EN" "http://www.w3.org/Graphics/SVG/1.1/DTD/svg11.dtd">
<!-- Creator: CorelDRAW X7 -->
<svg xmlns="http://www.w3.org/2000/svg" xml:space="preserve" width="62.3513mm" height="62.3021mm" version="1.1" style="shape-rendering:geometricPrecision; text-rendering:geometricPrecision; image-rendering:optimizeQuality; fill-rule:evenodd; clip-rule:evenodd"
viewBox="0 0 1482 1481"
 xmlns:xlink="http://www.w3.org/1999/xlink">
 <defs>
  <style type="text/css">
   <![CDATA[
    .fil0 {fill:#2365AF}
   ]]>
  </style>
 </defs>
 <g id="Содержимое_x0020_PowerClip">
  <metadata id="CorelCorpID_0Corel-Layer"/>
  <path class="fil0" d="M842 1414c21,-22 42,-38 63,-62 43,-48 73,-82 109,-139l45 -77c35,9 159,57 175,74 -6,8 -12,13 -19,20l-39 35c-32,27 -72,54 -110,75 -54,28 -163,72 -224,74zm-594 -204c16,-17 141,-66 175,-74l46 79c31,49 71,96 109,139l31 31c9,10 20,17 31,29 -27,0 -95,-20 -120,-29 -70,-25 -136,-59 -194,-104 -30,-24 -36,-29 -60,-52 -7,-6 -12,-12 -18,-19zm517 -117c86,1 153,13 234,27 -15,43 -99,152 -134,188l-48 48c-13,11 -37,34 -52,43l0 -306zm-281 27c90,-16 124,-24 222,-27l-1 296c-6,-3 -12,-9 -18,-14 -15,-12 -47,-45 -62,-60 -16,-16 -28,-28 -43,-48 -27,-34 -86,-110 -98,-147zm281 -337l328 0c-2,53 -11,105 -23,154 -7,26 -33,113 -45,128 -17,-2 -43,-9 -61,-12 -66,-12 -132,-18 -199,-20l0 -250zm-59 0l0 251c-44,0 -89,4 -131,10 -41,5 -79,15 -118,21 -13,-17 -38,-102 -45,-129 -12,-48 -20,-101 -22,-153l316 0zm378 298c17,-46 33,-84 46,-137 12,-50 20,-106 22,-161l270 0c-4,75 -24,153 -49,215 -14,32 -28,61 -45,89 -8,14 -43,69 -53,77 -14,-6 -30,-17 -44,-24 -56,-29 -91,-37 -147,-59zm-686 0c-12,6 -36,12 -51,17 -66,25 -80,36 -139,66 -10,-10 -20,-25 -29,-38 -67,-93 -112,-225 -118,-343l269 1c5,108 31,208 68,297zm368 -619c46,-1 93,-4 139,-10 31,-4 119,-22 126,-23 6,22 17,44 24,67 24,73 37,149 40,228l-330 0 1 -262zm-377 262c0,-55 8,-109 19,-160 15,-67 27,-83 43,-135 18,2 42,9 61,13 63,11 129,19 194,20l0 262 -317 0zm700 -311c23,-11 86,-27 150,-62 14,-7 31,-18 44,-24 75,101 136,231 140,397l-269 -1c-4,-17 -4,-65 -7,-87 -3,-27 -8,-53 -14,-79 -5,-27 -12,-50 -20,-75l-24 -69zm-1029 311c2,-80 17,-158 44,-226 19,-48 61,-132 96,-171 14,7 29,17 45,25 15,8 32,17 47,23l101 38c-3,18 -18,50 -24,70 -24,81 -39,153 -38,241l-271 0zm705 -639c9,4 28,23 37,30 58,52 109,109 153,175 12,17 43,65 48,83 -15,8 -91,18 -114,21l-124 10 0 -319zm-286 289c5,-17 36,-66 47,-82 38,-55 66,-91 113,-138 6,-6 10,-10 16,-16 12,-10 37,-36 51,-43l0 308c-113,-3 -131,-14 -227,-29zm585 -16c-7,-8 -16,-30 -23,-43 -14,-23 -35,-58 -50,-79l-57 -72c-19,-25 -70,-72 -95,-97 29,0 97,20 124,30 90,31 152,69 222,126l31 28c3,3 5,6 8,10 9,7 14,10 19,19 -10,11 -67,36 -85,44 -29,13 -63,25 -94,34zm-824 -78c3,-7 13,-14 20,-20 52,-53 84,-76 153,-116 48,-29 180,-79 231,-77 0,0 -70,67 -81,81 -5,6 -10,11 -15,17 -36,45 -48,57 -83,111 -8,13 -16,27 -24,40 -7,13 -15,31 -23,42 -31,-9 -64,-21 -93,-34 -19,-8 -75,-33 -85,-44zm460 -279c-172,11 -335,78 -456,191 -51,48 -89,89 -127,150 -82,129 -125,277 -116,439 22,395 359,723 783,699 394,-22 721,-358 697,-780 -8,-149 -63,-296 -149,-407 -32,-41 -63,-75 -99,-107 -143,-126 -336,-197 -533,-185z"/>
 </g>
</svg>
