<svg width="42" height="35" viewBox="0 0 42 35" fill="none" xmlns="http://www.w3.org/2000/svg">
<path d="M0.182704 33.0836C0.182704 33.0836 1.17998 32.1624 1.28958 31.7962C1.41013 31.4299 1.56355 23.3172 1.65123 20.7424C1.7389 18.1677 1.65123 2.13084 1.65123 2.13084C1.65123 2.13084 1.33341 1.36507 2.60467 1.12091C3.87593 0.876753 15.4269 0 19.7447 0C19.7447 0 39.9095 0.233061 40.5452 1.64252V13.1402V30.309C40.5452 30.309 40.6219 32.3178 41.8603 33.0836C41.8603 33.0836 42.4192 33.6829 41.3014 33.8826C40.1945 34.0824 31.1751 35.2588 19.6242 34.948C19.6242 34.9591 -2.20639 35.0479 0.182704 33.0836Z" fill="#C4C4C4"/>
</svg>
