<svg width="21" height="60" viewBox="0 0 21 60" fill="none" xmlns="http://www.w3.org/2000/svg">
<path d="M0.276013 30.5077C0.276013 27.484 0.276013 27.5066 3.38116 27.3712C4.1172 27.3486 4.85323 27.1455 5.58927 27.0102C3.97919 26.2881 3.95619 26.2881 3.97919 24.5957C4.02519 22.2038 4.1402 19.7894 4.1632 17.3975C4.2552 12.2076 4.34721 7.04024 4.39321 1.85032C4.39321 0.992854 4.69222 0.609252 5.54326 0.518992C6.92333 0.383603 8.28039 0.180519 9.63746 0C10.2585 0 10.8565 0 11.4775 0C12.2596 0.112824 13.0646 0.225649 13.8467 0.315908C16.8828 0.699511 16.5838 0.406168 16.6528 3.11395C16.8138 10.1768 16.8598 17.2396 16.9288 24.3024C16.9288 25.3629 17.4578 26.7168 15.4567 26.8973C16.6298 27.1907 17.6878 27.3261 18.7689 27.3712C20.471 27.4389 20.839 27.8225 20.862 29.4697C20.885 35.2915 20.908 41.1132 20.954 46.9575C20.954 47.4765 21 47.9278 21 49.2817C21 51.4705 20.954 52.4859 20.954 54.6521C20.908 55.3516 20.931 55.8255 20.908 56.2317C20.77 58.1948 20.517 58.5333 18.5849 59.0974C17.9639 59.2779 17.3198 59.3908 16.6988 59.4584C15.0427 59.6615 13.3866 59.8195 11.7306 60C10.9715 60 10.1895 60 9.43045 60C8.3494 59.8872 7.24534 59.8195 6.16429 59.6841C4.00219 59.4133 1.72508 59.3907 0 57.7435" fill="#C4C4C4"/>
</svg>
