<svg width="32" height="50" viewBox="0 0 32 50" fill="none" xmlns="http://www.w3.org/2000/svg">
<path d="M26.5985 13.6274C26.3901 11.1439 25.3002 8.02361 23.6974 5.41275C21.5336 1.9263 18.905 0 16.2603 0C13.6317 0 10.987 1.9263 8.83922 5.41275C7.22037 8.02361 6.13045 11.1439 5.92208 13.6274C2.62027 16.6363 0.520569 21.062 0.520569 25.9971V48.0461C0.520569 49.0969 1.38609 49.9565 2.44396 49.9565C3.50182 49.9565 4.36735 49.0969 4.36735 48.0461V25.9971C4.36735 23.7684 4.92833 21.6669 5.89003 19.8361V30.5343C5.89003 35.6446 10.5382 39.7997 16.2603 39.7997C21.9824 39.7997 26.6306 35.6446 26.6306 30.5343V19.8361C27.5923 21.651 28.1532 23.7524 28.1532 25.9971V48.0461C28.1532 49.0969 29.0188 49.9565 30.0766 49.9565C31.1345 49.9565 32 49.0969 32 48.0461V25.9971C32 21.062 29.9163 16.6363 26.5985 13.6274ZM22.4953 29.3881C22.4953 30.4388 21.6298 31.2984 20.5719 31.2984C19.514 31.2984 18.6485 30.4388 18.6485 29.3881V14.5508C18.6485 13.5 19.514 12.6404 20.5719 12.6404C21.6298 12.6404 22.4953 13.5 22.4953 14.5508V29.3881Z" fill="#C4C4C4"/>
</svg>
