<?xml version="1.0" encoding="utf-8"?>
<svg width="96px" height="35px" viewBox="0 0 96 35" version="1.1" xmlns:xlink="http://www.w3.org/1999/xlink" xmlns="http://www.w3.org/2000/svg">
  <desc>Created with Lunacy</desc>
  <g id="logo_color">
    <path d="M0 0.398667L93.404 0.398667L93.404 0L0 0L0 0.398667Z" transform="translate(1.374023 20.87627)" id="Fill-1" fill="#6B2F33" stroke="none" />
    <path d="M6.308 0C4.86667 0.0946667 3.30667 0.117333 2.09067 0.117333L0 0.117333L0 0.306667C0 0.732 0.98 0.354667 0.98 1.3L0.98 6.99333C0.98 7.808 0.0826667 7.47733 0.0826667 7.92667L0.0826667 8.08L3.484 8.08L3.484 7.92667C3.484 7.46667 2.468 7.832 2.468 7.01733L2.468 0.52L4.312 0.52C5.38667 0.52 5.62267 0.790667 6.20133 2.07867C6.32 2.32667 6.41333 2.35067 6.544 2.32667L6.65067 2.304L6.39067 0.0706667L6.308 0Z" transform="translate(1.500977 26.47667)" id="Fill-2" fill="#6B2F33" stroke="none" />
    <path d="M4.596 0L7.336 6.76933C7.79733 7.90267 8.364 7.43067 8.364 7.91467L8.364 8.04533L5.17467 8.04533L5.17467 7.892C5.17467 7.50133 5.89467 7.70267 5.89467 7.20667C5.89467 7.136 5.89467 7.00533 5.824 6.84L5.304 5.564L2.13867 5.564L1.76 6.592C1.70133 6.75733 1.66533 6.89867 1.66533 7.01733C1.66533 7.75067 2.576 7.49067 2.576 7.88L2.576 8.04533L0 8.04533L0 7.88C0 7.46667 0.814667 7.82 1.276 6.63867L3.86267 0.048C4.052 0.024 4.40667 0.012 4.596 0ZM3.69733 1.524L2.292 5.18667L5.13867 5.18667L4.52533 3.66267C4.34667 3.23733 3.96933 2.22133 3.74533 1.524L3.69733 1.524Z" transform="translate(13.7041 26.5116)" id="Fill-4" fill="#6B2F33" fill-rule="evenodd" stroke="none" />
    <path d="M1.996 0.165333C1.996 0.637333 3.18933 0.284 3.16533 1.11067C3.04667 4.45333 2.69333 6.72133 1.724 7.51333C1.59467 7.02933 1.24 6.68667 0.778667 6.68667C0.366667 6.68667 0 6.94667 0 7.39467C0 7.892 0.484 8.16267 0.921333 8.16267C2.31467 8.16267 2.89467 6.88667 3.22533 5.292C3.484 4.052 3.62667 2.292 3.65067 0.413333L6.20133 0.413333L6.20133 6.864C6.20133 7.65467 5.316 7.348 5.316 7.796L5.316 7.95067L8.70667 7.95067L8.70667 7.796C8.70667 7.312 7.69067 7.70267 7.69067 6.88667L7.69067 1.064C7.69067 0.248 8.72933 0.614667 8.72933 0.153333L8.72933 0L1.996 0L1.996 0.165333Z" transform="translate(28.70703 26.60654)" id="Fill-6" fill="#6B2F33" stroke="none" />
    <path d="M6.78133 5.43467C6.03733 6.95867 5.64667 7.66667 4.324 7.66667L3.36667 7.66667C2.61067 7.66667 2.43333 7.372 2.43333 6.89867L2.43333 4.1L3.53333 4.1C4.856 4.1 4.324 5.50533 4.82 5.50533L4.98533 5.50533L4.98533 2.36267L4.844 2.36267C4.36 2.36267 4.86667 3.69733 3.47333 3.69733L2.43333 3.69733L2.43333 0.52L3.88667 0.52C5.29333 0.52 5.41067 0.662667 6.072 2.09067C6.15467 2.25733 6.22533 2.36267 6.40267 2.32667L6.52133 2.304L6.26133 0.0706667L6.17867 0C4.82 0.0826667 3.46133 0.106667 2.28 0.106667L0 0.106667L0 0.296C0 0.733333 0.969333 0.342667 0.969333 1.288L0.969333 6.89867C0.969333 7.868 0 7.46667 0 7.89067L0 8.068L2.97733 8.068C4.66667 8.068 5.63467 8.092 6.49867 8.116L6.592 8.03333L7.22933 5.23333L7.1 5.19867C6.89867 5.13867 6.84 5.328 6.78133 5.43467" transform="translate(44.81934 26.48813)" id="Fill-8" fill="#6B2F33" stroke="none" />
    <path d="M0 0L3.43733 0C5.34 0 6.68667 0.744 6.68667 2.32667C6.68667 4.04 5.16267 4.71333 3.568 4.71333C3.22533 4.71333 2.776 4.68933 2.40933 4.64267L2.40933 6.89867C2.40933 7.71333 3.42533 7.348 3.42533 7.808L3.42533 7.96133L0.024 7.96133L0.024 7.808C0.024 7.36 0.921333 7.70267 0.921333 6.876L0.921333 1.18133C0.921333 0.224 0 0.614667 0 0.189333L0 0ZM2.42133 4.24C2.62267 4.288 2.87067 4.312 3.06 4.312C4.18133 4.312 5.08 3.62667 5.08 2.33867C5.08 0.921333 4.076 0.401333 3.09467 0.401333L2.42133 0.401333L2.42133 4.24Z" transform="translate(59.20801 26.5948)" id="Fill-10" fill="#6B2F33" fill-rule="evenodd" stroke="none" />
    <path d="M6.78133 5.43467C6.03733 6.95867 5.64667 7.66667 4.324 7.66667L3.36667 7.66667C2.61067 7.66667 2.43333 7.372 2.43333 6.89867L2.43333 4.1L3.532 4.1C4.856 4.1 4.324 5.50533 4.82 5.50533L4.98533 5.50533L4.98533 2.36267L4.844 2.36267C4.36 2.36267 4.86667 3.69733 3.47333 3.69733L2.43333 3.69733L2.43333 0.52L3.88667 0.52C5.29333 0.52 5.41067 0.662667 6.072 2.09067C6.15467 2.25733 6.22533 2.36267 6.40267 2.32667L6.52133 2.304L6.26133 0.0706667L6.17867 0C4.82 0.0826667 3.46133 0.106667 2.28 0.106667L0 0.106667L0 0.296C0 0.733333 0.969333 0.342667 0.969333 1.288L0.969333 6.89867C0.969333 7.868 0 7.46667 0 7.89067L0 8.068L2.97733 8.068C4.66667 8.068 5.63467 8.092 6.49733 8.116L6.592 8.03333L7.22933 5.23333L7.1 5.19867C6.89867 5.13867 6.84 5.328 6.78133 5.43467" transform="translate(73.04102 26.48813)" id="Fill-12" fill="#6B2F33" stroke="none" />
    <path d="M3.43733 4.16933C2.06667 4.04 1.20533 3.224 1.20533 2.17333C1.20533 0.802667 2.268 0 4.11067 0L7.68933 0L7.68933 0.153333C7.68933 0.614667 6.76933 0.26 6.76933 1.09867L6.76933 6.864C6.76933 7.69067 7.68933 7.348 7.68933 7.796L7.68933 7.94933L4.276 7.94933L4.276 7.796C4.276 7.336 5.292 7.70133 5.292 6.88667L5.292 4.288L4.85467 4.288C4.42933 4.288 4.13467 4.40667 3.68533 5.16267C3.48533 5.49333 2.85867 6.66267 2.63333 6.99333C2.17333 7.796 1.59467 8.104 0.909333 8.104C0.625333 8.104 0.306667 8.056 0 7.98533L0 7.64267C0.412 7.572 0.732 7.41867 1.05067 6.89867C2.13733 5.16267 2.37333 4.42933 3.44933 4.21733C3.44933 4.20533 3.44933 4.16933 3.43733 4.16933ZM5.292 3.89867L5.292 0.401333L4.65333 0.401333C3.72133 0.401333 2.752 0.874667 2.752 2.12667C2.752 3.236 3.52 3.89867 4.60667 3.89867L5.292 3.89867Z" transform="translate(86.93457 26.6068)" id="Fill-14" fill="#6B2F33" fill-rule="evenodd" stroke="none" />
    <path d="M5.104 0.857333L5.632 0.857333L5.632 12.9813C5.632 15.3347 3.36667 14.652 3.36667 15.2027L3.36667 15.3133L10.8027 15.3133L10.8027 15.2027C10.8027 14.652 8.448 15.3347 8.448 13.0027L8.448 0.857333L9.02 0.857333C11.7707 0.857333 12.5627 1.76 13.6187 4.708L13.6853 4.884C13.7733 5.104 13.8613 5.21467 14.0147 5.21467C14.0587 5.21467 14.0813 5.21467 14.1253 5.192C13.9493 3.476 13.7507 1.73733 13.5533 0C11.8587 0.44 10.0987 0.484 7.06267 0.484C3.93733 0.484 2.244 0.394667 0.572 0.0213333C0.396 1.76 0.197333 3.476 0 5.192C0.0213333 5.21467 0.044 5.21467 0.0653333 5.21467C0.241333 5.21467 0.352 5.148 0.44 4.884C1.42933 1.91333 2.30933 0.857333 5.104 0.857333" id="Fill-16" fill="#6B2F33" stroke="none" />
    <path d="M5.13867 10.0813C5.36267 10.128 5.556 10.168 5.556 10.3387L5.556 10.484L0 10.484L0 10.3387C0 10.1813 0.177333 10.144 0.402667 10.096C0.830667 10.004 1.47733 9.86667 1.47733 8.84533L1.47733 1.54667C1.47733 0.618667 0.886667 0.506667 0.454667 0.425333C0.218667 0.38 0.0146667 0.342667 0.0146667 0.161333L0.0146667 0L5.30267 0C8.12267 0 9.80667 1.16 9.80667 3.10133C9.80667 5.49333 7.472 6.34267 5.472 6.34267C5.17467 6.34267 4.608 6.32933 4.07867 6.244C4.07867 6.66933 4.08267 7.09467 4.08667 7.52C4.08933 7.96667 4.09333 8.41333 4.09333 8.86C4.09333 9.868 4.69733 9.992 5.13867 10.0813ZM7.02 3.132C7.02 1.488 6.076 0.384 4.672 0.384L4.07867 0.384L4.07867 5.87733C4.18667 5.90133 4.30533 5.912 4.42533 5.912C6.05067 5.912 7.02 4.87333 7.02 3.132Z" transform="translate(15.03027 4.77533)" id="Fill-18" fill="#6B2F33" fill-rule="evenodd" stroke="none" />
    <path d="M5.43467 10.324C5.43467 10.16 5.252 10.1213 5.04133 10.076C4.616 9.984 4.03333 9.86 4.03333 8.84533L4.03333 8.58667C4.49867 8 5.28667 6.70267 6.05067 5.448C6.76667 4.268 7.50667 3.05067 7.976 2.42667L7.976 8.84533C7.976 9.848 7.41333 9.97867 7.004 10.072C6.79867 10.12 6.62133 10.16 6.62133 10.324L6.62133 10.4693L12.0707 10.4693L12.0707 10.324C12.0707 10.14 11.88 10.1027 11.6573 10.0587C11.2333 9.976 10.592 9.85067 10.592 8.66133L10.592 1.47067C10.592 0.6 11.192 0.485333 11.6293 0.4C11.8667 0.356 12.0707 0.316 12.0707 0.146667L12.0707 0L6.62133 0L6.62133 0.146667C6.62133 0.314667 6.81067 0.358667 7.02933 0.409333C7.428 0.5 7.976 0.626667 7.976 1.48533L7.976 1.74667L4.03333 7.88L4.03333 1.47067C4.03333 0.622667 4.59867 0.498667 5.01067 0.409333C5.23867 0.358667 5.43467 0.316 5.43467 0.146667L5.43467 0L0 0L0 0.146667C0 0.314667 0.197333 0.358667 0.425333 0.409333C0.844 0.501333 1.41733 0.626667 1.41733 1.48533L1.41733 8.66133C1.41733 9.84267 0.796 9.97867 0.385333 10.068C0.178667 10.1133 0 10.1533 0 10.324L0 10.4693L5.43467 10.4693L5.43467 10.324Z" transform="translate(25.2998 4.789993)" id="Fill-20" fill="#6B2F33" stroke="none" />
    <path d="M8.99867 6.732C12.3653 7.06133 13.7733 8.976 13.7733 10.7147C13.7733 12.5627 12.4533 14.828 8.052 14.828L0 14.828L0 14.696C0 14.539 0.216656 14.4987 0.515327 14.4432C1.17787 14.3201 2.244 14.122 2.244 12.408L2.244 2.19867C2.244 0.715696 1.25337 0.546634 0.594805 0.434242C0.26691 0.378283 0.0213333 0.336373 0.0213333 0.153333L0.0213333 0L7.76667 0C11.7493 0 12.9813 1.80267 12.9813 3.45333C12.9813 5.19067 11.3093 6.35733 9.02133 6.66533L8.99867 6.732ZM5.06 0.394667L6.6 0.394667C8.82267 0.394667 10.032 1.584 10.032 3.36533C10.032 5.82933 8.184 6.57733 6.75467 6.57733L5.06 6.57733L5.06 0.394667ZM5.06 12.188C5.06 13.552 5.28 14.4987 6.93067 14.4987L7.23867 14.4987C9.26267 14.4987 10.7587 13.2013 10.7587 10.7573C10.7587 7.76533 8.36 6.92933 6.84133 6.92933L5.06 6.92933L5.06 12.188Z" transform="translate(45.69531 0.4844055)" id="Fill-22" fill="#6B2F33" fill-rule="evenodd" stroke="none" />
    <path d="M9.23067 11.2627L9.28533 11.2773L10.1893 6.91067L10.2027 6.84667L10.1373 6.84667C10.1227 6.84667 10.0973 6.84133 10.0773 6.83867C10.056 6.83333 10.0373 6.83067 10.0307 6.83067C9.85867 6.83067 9.78667 6.98 9.71867 7.15733C8.69867 9.64667 7.68133 10.572 5.96533 10.572L5.31867 10.572C4.46 10.572 4.09333 10.224 4.09333 9.40933L4.09333 5.66L5.41067 5.66C6.45067 5.66 6.608 6.448 6.724 7.02533C6.79467 7.38 6.85067 7.66133 7.08933 7.66133L7.23467 7.66133L7.23467 3.39733L7.104 3.39733C6.892 3.39733 6.824 3.648 6.74 3.96533C6.592 4.51733 6.38933 5.276 5.31867 5.276L4.09333 5.276L4.09333 0.841333L5.51867 0.841333C7.40533 0.841333 8.03733 1.54933 8.87333 3.54933C8.94533 3.70933 9.02 3.87467 9.168 3.87467C9.19067 3.87467 9.276 3.85733 9.31467 3.83733L9.348 3.82133L9.344 3.784C9.296 3.356 9.24933 2.92933 9.20267 2.50133C9.11733 1.708 9.028 0.888 8.928 0.072L8.91867 0L8.85333 0.0306667C8.036 0.401333 6.09467 0.457333 5.01067 0.457333L0.0146667 0.457333L0.0146667 0.617333C0.0146667 0.798667 0.221333 0.838667 0.461333 0.882667C0.897333 0.962667 1.49333 1.072 1.49333 1.988L1.49333 9.27067C1.49333 10.328 0.836 10.4587 0.401333 10.544C0.177333 10.588 0 10.6227 0 10.78L0 10.9413L6.22667 10.9413C7.48267 10.9413 8.43733 11.0427 9.23067 11.2627" transform="translate(60.6377 4.318405)" id="Fill-24" fill="#6B2F33" stroke="none" />
    <path d="M5.496 10.5547C5.496 10.3893 5.30667 10.3507 5.088 10.3067C4.64933 10.216 4.04933 10.0933 4.04933 9.092L4.04933 5.31067L4.53467 5.31067C5.052 5.31067 5.396 5.44133 5.616 5.72133C5.98533 6.208 6.19733 6.85867 6.44267 7.612C6.61333 8.136 6.79067 8.676 7.04267 9.23733C7.51067 10.292 8.08533 10.9467 9.492 10.9467C10.276 10.9467 10.9 10.7707 11.2027 10.6667L11.2467 10.652L11.1813 10.2893L11.1267 10.3027C11.0067 10.332 10.9027 10.348 10.816 10.348C10.1293 10.348 9.77733 9.46133 9.04933 7.45733C8.39467 5.63467 7.53733 5.004 5.66933 4.98933C6.64267 4.496 7.10667 3.19067 7.48 2.13867C7.58 1.85867 7.676 1.59067 7.77067 1.36667C8.01067 2.10533 8.73867 2.30933 9.15333 2.30933C9.85067 2.30933 10.3773 1.82267 10.3773 1.17733C10.3773 0.609333 9.82933 0 9.01467 0C7.94933 0 7.572 0.757333 7.30267 1.46667L7.16267 1.82267C6.56533 3.632 6.02 4.912 4.44133 4.912L4.04933 4.912L4.04933 1.716C4.04933 0.858667 4.64667 0.738667 5.084 0.650667C5.332 0.601333 5.52667 0.562667 5.52667 0.392L5.52667 0.230667L0 0.230667L0 0.392C0 0.561333 0.2 0.601333 0.429333 0.646667C0.852 0.730667 1.432 0.846667 1.432 1.716L1.432 8.92133C1.432 10.0747 0.802667 10.2133 0.386667 10.304C0.18 10.3493 0 10.3893 0 10.5547L0 10.7L5.496 10.7L5.496 10.5547Z" transform="translate(71.64648 4.559341)" id="Fill-26" fill="#6B2F33" stroke="none" />
    <path d="M10.1107 8.91867C10.4613 9.83867 10.968 10.004 11.2707 10.1027C11.4333 10.1547 11.5627 10.196 11.5627 10.3373L11.5627 10.484L6.528 10.484L6.528 10.3373C6.528 10.1853 6.70533 10.1413 6.91067 10.0907C7.21333 10.0147 7.59067 9.92133 7.59067 9.47467C7.59067 9.32667 7.504 9.07467 7.36267 8.67733L6.82267 7.23467L3.04667 7.23467L2.58133 8.524C2.51467 8.68933 2.416 9.048 2.416 9.21333C2.416 9.872 2.972 9.98533 3.42 10.0773C3.68533 10.1307 3.89467 10.1733 3.89467 10.3373L3.89467 10.484L0 10.484L0 10.3373C0 10.172 0.178667 10.132 0.405333 10.0827C0.868 9.98133 1.64133 9.812 2.112 8.564C2.528 7.448 2.95867 6.32 3.37467 5.22933C3.792 4.14 4.22133 3.01333 4.63733 1.89733C4.728 1.65467 4.77333 1.45867 4.77333 1.3C4.77333 0.669333 4.23733 0.549333 3.80667 0.454667C3.53733 0.394667 3.32533 0.348 3.32533 0.176L3.32533 0L6.75733 0L6.77067 0.0346667L10.1107 8.91867ZM6.68933 6.86667L4.94267 2.12267L4.92533 2.12267L3.17733 6.86667L6.68933 6.86667Z" transform="translate(83.53516 4.776001)" id="Fill-28" fill="#6B2F33" fill-rule="evenodd" stroke="none" />
  </g>
</svg>