<?xml version="1.0" encoding="utf-8"?>
<svg width="25px" height="25px" viewBox="0 0 25 25" version="1.1" xmlns:xlink="http://www.w3.org/1999/xlink" xmlns="http://www.w3.org/2000/svg">
  <desc>Created with Lunacy</desc>
  <path d="M19.436 9.40315C19.436 11.4004 18.7925 13.2522 17.6951 14.7751L24.9018 21.7483C25.0295 21.8718 25.0357 22.087 24.9024 22.216L22.9599 24.0955C22.8227 24.2283 22.6102 24.2243 22.4765 24.095L15.2697 17.1217L15.2691 17.1223C13.6954 18.1838 11.7818 18.8063 9.71801 18.8063C4.3509 18.8063 0 14.5964 0 9.40315C0 4.20993 4.3509 0 9.71801 0C15.0851 0 19.436 4.20993 19.436 9.40315ZM17.1494 9.40315C17.1494 13.3744 13.8223 16.5938 9.71801 16.5938C5.61375 16.5938 2.28659 13.3744 2.28659 9.40315C2.28659 5.43186 5.61375 2.21251 9.71801 2.21251C13.8223 2.21251 17.1494 5.43186 17.1494 9.40315Z" id="лупа" fill="#DADADA" fill-rule="evenodd" stroke="none" />
</svg>