<svg width="92" height="36" viewBox="0 0 92 36" fill="none" xmlns="http://www.w3.org/2000/svg">
<g clip-path="url(#clip0)">
<path d="M14.6571 24.5616V23.1902C16.9307 22.8563 16.9307 22.4506 16.4249 20.8635C16.0643 19.754 15.4884 18.0899 14.9225 16.6055H7.91144C7.51581 17.756 7.01002 19.1736 6.64945 20.3088C5.88825 22.6355 6.75461 22.9334 9.60411 23.1902V24.5616H0.705078V23.1902C2.97365 22.8974 3.54956 22.5636 4.7765 19.4561L12.2883 0.333861L14.0211 0C16.3247 6.43573 18.7786 13.0204 21.1223 19.1993C22.4594 22.6355 22.7799 22.8974 25.1286 23.1902V24.5616H14.6571ZM11.4871 6.88259C10.4404 9.54316 9.42883 12.0188 8.52741 14.7205H14.2614L11.4871 6.88259Z" fill="white"/>
<path d="M52.3029 1.89018C49.4935 2.18294 49.2381 2.4038 49.2381 5.48555V19.6513C49.2381 22.7331 49.5285 22.9437 52.3029 23.2005V24.5719H41.1604V23.2005C44.0098 22.8307 44.2252 22.7228 44.2252 19.6513V12.6866H34.4898V19.6411C34.4898 22.7228 34.8153 22.8975 37.5196 23.1902V24.5616H26.4121V23.1902C29.0813 22.8975 29.4769 22.7125 29.4769 19.6411V5.47528C29.4769 2.39353 29.1514 2.11103 26.4121 1.8799V0.518799H37.5196V1.89018C34.7803 2.14699 34.4898 2.4038 34.4898 5.48555V10.7759H44.2252V5.48555C44.2252 2.4038 43.8646 2.19322 41.1604 1.89018V0.518799H52.3029V1.89018Z" fill="white"/>
<path d="M77.7922 18.1978C77.2428 20.2219 76.5739 22.2099 75.7891 24.1507C73.6137 24.7234 71.3834 25.0489 69.1386 25.1214C59.4633 25.1214 55.457 18.7165 55.457 12.8355C55.457 5.17735 61.156 -0.00512695 69.8096 -0.00512695C72.9446 -0.00512695 75.724 0.775581 76.6254 0.883443C76.8057 2.62463 77.0561 5.35712 77.3115 6.98531L75.8692 7.24726C75.108 4.36069 74.0263 2.99444 72.1183 2.21373C71.1092 1.85474 70.0463 1.68087 68.9783 1.70011C63.7501 1.70011 61.1159 6.17378 61.1159 11.9726C61.1159 18.7422 64.5063 23.3289 69.4491 23.3289C72.4538 23.3289 74.497 21.7007 76.4601 17.6328L77.7922 18.1978Z" fill="white"/>
<path d="M80.8574 24.5616V23.1902C83.5967 22.9334 83.9222 22.7126 83.9222 19.5948V5.51124C83.9222 2.42949 83.5617 2.11104 80.8574 1.91586V0.518799H92.015V1.89018C89.3107 2.14699 88.9502 2.4038 88.9502 5.48556V19.5794C88.9502 22.6612 89.2757 22.8718 92.015 23.1748V24.5462L80.8574 24.5616Z" fill="white"/>
<path d="M23.8075 30.196C24.6838 30.1195 25.5553 30.3917 26.2413 30.9562C26.4944 31.1981 26.6937 31.493 26.8259 31.8209C26.9581 32.1488 27.02 32.502 27.0075 32.8566C27.0212 33.2966 26.9314 33.7335 26.7458 34.1305C26.5601 34.5274 26.284 34.8727 25.9408 35.1371C25.2394 35.6488 24.3921 35.9071 23.532 35.8716H21.1934V35.548C21.8394 35.4966 21.9145 35.4144 21.9145 34.6902V31.3722C21.9145 30.6377 21.8244 30.571 21.1934 30.5196V30.196H23.8075ZM23.1014 34.6286C23.1014 35.2501 23.2516 35.4607 23.8726 35.4607C25.0244 35.4607 25.6854 34.6389 25.6854 32.9901C25.7349 32.2893 25.5157 31.5964 25.0745 31.0589C24.8912 30.8844 24.6746 30.751 24.4384 30.6669C24.2022 30.5829 23.9515 30.5502 23.7023 30.5709C23.5264 30.5493 23.3487 30.5931 23.2015 30.6942C23.1264 30.7713 23.1114 30.9202 23.1114 31.1719L23.1014 34.6286Z" fill="white"/>
<path d="M32.4221 34.3667C32.382 34.603 32.1416 35.6046 32.0665 35.8511H27.6445V35.5326C28.4208 35.4556 28.4708 35.4145 28.4708 34.68V31.3466C28.4708 30.6018 28.3707 30.5505 27.7898 30.4991V30.1755H30.5591C31.4505 30.1755 31.751 30.1755 31.8712 30.1755C31.8712 30.3348 31.9213 31.0487 31.9563 31.5931L31.6208 31.6342C31.5552 31.3406 31.4307 31.0642 31.2552 30.8227C31.105 30.6481 30.9898 30.5967 30.5591 30.5967H30.0032C29.6827 30.5967 29.6477 30.5967 29.6477 30.91V32.7334H30.479C30.9798 32.7334 31.0449 32.605 31.1701 31.9835H31.5006V33.9301H31.1701C31.0349 33.283 30.9648 33.1802 30.474 33.1802H29.6477V34.68C29.6477 35.2861 29.6477 35.4659 30.1935 35.4762H30.7945C31.2953 35.4762 31.4004 35.4145 31.5857 35.1782C31.7907 34.9119 31.9592 34.6182 32.0865 34.3051L32.4221 34.3667Z" fill="white"/>
<path d="M35.3407 30.1961C35.8738 30.1643 36.4049 30.2871 36.8731 30.5505C37.087 30.689 37.2613 30.8832 37.3783 31.1132C37.4953 31.3433 37.5508 31.601 37.5392 31.8602C37.5392 33.1289 36.4925 33.663 35.5811 33.6682C35.496 33.6741 35.4107 33.6741 35.3257 33.6682L34.8249 33.5346V34.7262C34.8249 35.4556 34.885 35.4915 35.6261 35.5634V35.887H32.9219V35.5634C33.5629 35.4813 33.648 35.4556 33.648 34.7262V31.3877C33.648 30.6532 33.5629 30.5762 32.9219 30.5351V30.2115L35.3407 30.1961ZM34.8399 33.1546C34.9827 33.215 35.1361 33.2448 35.2906 33.2419C35.6812 33.2419 36.3222 33.0056 36.3222 31.8551C36.3222 30.874 35.8214 30.5505 35.2505 30.5505C35.1325 30.5422 35.0149 30.5728 34.915 30.6378C34.8558 30.7147 34.8288 30.8126 34.8399 30.91V33.1546Z" fill="white"/>
<path d="M44.0691 30.5196C43.5233 30.571 43.378 30.7353 43.343 31.0332C43.3102 31.4226 43.2968 31.8135 43.3029 32.2043V33.3497C43.3664 34.089 43.1494 34.8249 42.697 35.4042C42.4817 35.6079 42.2293 35.7659 41.9543 35.869C41.6792 35.9721 41.387 36.0184 41.0944 36.0051C40.5588 36.0279 40.0308 35.869 39.5921 35.5531C39.0913 35.1679 38.8609 34.6337 38.8609 33.6579V31.4493C38.8609 30.6429 38.7858 30.5864 38.1348 30.5247V30.2012H40.7689V30.5247C40.1279 30.5864 40.0528 30.6429 40.0528 31.4493V33.7709C40.0528 34.7467 40.5185 35.3939 41.43 35.3939C42.4315 35.3939 42.8873 34.6286 42.8873 33.3394V32.2454C42.8873 31.6444 42.8622 31.3311 42.8422 31.0692C42.8121 30.6634 42.5718 30.5556 41.9758 30.5556V30.232H44.0891L44.0691 30.5196Z" fill="white"/>
<path d="M44.4961 35.8716V35.548C45.1421 35.4864 45.2172 35.435 45.2172 34.7005V31.3723C45.2172 30.6378 45.1321 30.571 44.4961 30.5196V30.196H47.1252V30.5196C46.4842 30.5813 46.3991 30.6378 46.3991 31.3723V34.7005C46.3991 35.4247 46.4792 35.4761 47.1252 35.548V35.8716H44.4961Z" fill="white"/>
<path d="M50.9906 31.6342C50.8203 31.0743 50.5799 30.4374 49.7987 30.4374C49.6893 30.4322 49.58 30.4506 49.478 30.4915C49.376 30.5324 49.2835 30.5948 49.2065 30.6747C49.1295 30.7546 49.0698 30.8502 49.0312 30.9554C48.9926 31.0605 48.976 31.1728 48.9824 31.2849C48.9824 31.7677 49.2929 32.0553 50.0441 32.4406C50.9555 32.9028 51.5464 33.3548 51.5464 34.2177C51.5464 35.2449 50.7151 36 49.4982 36C49.0102 35.983 48.5275 35.8912 48.066 35.7278C48.0159 35.5274 47.8706 34.6183 47.8105 34.2126L48.1461 34.1304C48.3163 34.68 48.7921 35.6353 49.6234 35.6353C49.7384 35.6436 49.8537 35.6258 49.9612 35.5833C50.0687 35.5408 50.1658 35.4745 50.2456 35.3893C50.3254 35.304 50.3859 35.2018 50.4229 35.0899C50.4599 34.978 50.4725 34.8591 50.4597 34.7416C50.4597 34.228 50.1542 33.9403 49.4581 33.5449C48.5718 33.0569 47.9958 32.6203 47.9958 31.7112C47.9958 30.8021 48.6919 30.0728 49.9689 30.0728C50.3785 30.0841 50.786 30.1356 51.1859 30.2268C51.2209 30.5504 51.281 31.0075 51.3461 31.5571L50.9906 31.6342Z" fill="white"/>
<path d="M54.6152 35.8716V35.548C55.4916 35.5018 55.5517 35.4093 55.5517 34.7776V31.6188C55.5517 31.1719 55.3965 31.136 55.0509 31.1052L54.7955 31.0589V30.7713C55.4381 30.6948 56.071 30.5484 56.6835 30.3347V34.7879C56.6835 35.435 56.7336 35.5121 57.6049 35.5583V35.8819L54.6152 35.8716Z" fill="white"/>
<path d="M61.0114 33.4833L60.5858 33.7145C60.4331 33.8051 60.2612 33.8562 60.085 33.8634C59.8682 33.8756 59.6514 33.8415 59.4482 33.7632C59.2449 33.685 59.0598 33.5643 58.9044 33.4088C58.7491 33.2533 58.6269 33.0664 58.5456 32.86C58.4644 32.6536 58.4258 32.4321 58.4324 32.2095C58.4388 31.9525 58.495 31.6994 58.5978 31.4649C58.7006 31.2305 58.8479 31.0194 59.0311 30.8439C59.2143 30.6684 59.4298 30.5321 59.6649 30.443C59.9 30.3538 60.15 30.3135 60.4005 30.3245C61.5823 30.3245 62.2834 31.3518 62.2834 32.5434C62.2731 33.2461 62.0523 33.9286 61.651 34.4982C61.2496 35.0679 60.6872 35.4972 60.0399 35.7279C59.6377 35.8745 59.2185 35.966 58.7929 36.0001L58.7328 35.6662C60.0749 35.317 60.7761 34.5619 61.0064 33.4833H61.0114ZM60.2202 30.6943C59.7594 30.6943 59.5641 31.1104 59.5641 31.8551C59.5641 32.5999 59.9648 33.2419 60.5958 33.2419C60.7588 33.2398 60.9195 33.2012 61.0665 33.1289C61.0935 32.9195 61.1069 32.7084 61.1066 32.4972C61.1066 31.6548 60.8762 30.6841 60.2202 30.6943Z" fill="white"/>
<path d="M64.7983 30.3245C65.7448 30.3245 66.3758 30.8997 66.3758 31.6805C66.3767 31.8068 66.3518 31.932 66.3026 32.0479C66.2534 32.1638 66.1811 32.2678 66.0903 32.3533C65.8946 32.5236 65.6889 32.6814 65.4744 32.8258C66.0753 33.1597 66.6112 33.5655 66.6112 34.3256C66.6112 35.4351 65.5345 35.9949 64.6981 35.9949C63.5563 35.9949 62.8402 35.3991 62.8402 34.5208C62.8361 34.368 62.867 34.2164 62.9305 34.0781C62.994 33.9398 63.0883 33.8188 63.2058 33.7247C63.376 33.5911 63.7366 33.3754 63.982 33.2111C63.7211 33.0926 63.4969 32.9031 63.3335 32.6631C63.1702 32.4232 63.0741 32.142 63.0555 31.85C63.0555 31.0179 63.7717 30.3091 64.8083 30.3091L64.7983 30.3245ZM64.8083 35.5943C65.2841 35.5943 65.5745 35.2861 65.5645 34.7211C65.5545 34.1561 65.1639 33.812 64.3125 33.3651C64.1638 33.4879 64.0455 33.6449 63.9672 33.8234C63.8889 34.0019 63.8528 34.1969 63.8618 34.3924C63.8618 35.2245 64.3326 35.6097 64.8083 35.6097V35.5943ZM64.6881 30.6943C64.5954 30.6942 64.5037 30.7144 64.4192 30.7536C64.3347 30.7928 64.2594 30.8501 64.1982 30.9216C64.137 30.9931 64.0915 31.0771 64.0645 31.1682C64.0376 31.2592 64.03 31.355 64.0421 31.4493C64.0421 32.0297 64.4678 32.3174 65.1488 32.6307C65.2657 32.5107 65.3547 32.3653 65.4093 32.2053C65.464 32.0452 65.4828 31.8747 65.4643 31.7061C65.4643 30.9357 65.0287 30.6789 64.6881 30.6789" fill="white"/>
<path d="M70.5767 30.4324L70.6268 30.5197L70.3564 31.3826H68.2381C68.1579 31.7575 68.0478 32.3328 67.9626 32.6923C68.3258 32.5482 68.7067 32.4566 69.0944 32.4201C70.1961 32.4201 70.772 33.1392 70.772 33.8891C70.7649 34.1938 70.6832 34.4918 70.5345 34.7556C70.3857 35.0195 70.1746 35.2408 69.9207 35.3991C69.4473 35.7477 68.8853 35.9476 68.3032 35.9744C67.9808 35.9775 67.6655 35.8769 67.4017 35.6868C67.2265 35.5481 67.1914 35.4608 67.1914 35.3375C67.2018 35.2463 67.2302 35.1582 67.275 35.0787C67.3198 34.9993 67.38 34.93 67.4518 34.8752C67.5038 34.839 67.5672 34.8242 67.6294 34.8338C67.6915 34.8433 67.7479 34.8764 67.7873 34.9266C68.0777 35.2446 68.4752 35.4375 68.8991 35.4659C69.4299 35.4659 69.6753 34.9882 69.6753 34.3616C69.6864 34.1869 69.661 34.0117 69.6007 33.8479C69.5404 33.6841 69.4466 33.5355 69.3256 33.4119C69.2047 33.2883 69.0594 33.1928 68.8994 33.1315C68.7395 33.0703 68.5686 33.0449 68.3983 33.057C68.0974 33.063 67.7989 33.1132 67.5119 33.2059L67.4719 33.1546C67.6421 32.3585 67.8474 31.2439 67.9726 30.4324H70.5767Z" fill="white"/>
<path d="M0 33.355H18.5943" stroke="white" stroke-width="2" stroke-miterlimit="10"/>
<path d="M73.4004 33.355H91.9997" stroke="white" stroke-width="2" stroke-miterlimit="10"/>
</g>
<defs>
<clipPath id="clip0">
<rect width="92" height="36" fill="white"/>
</clipPath>
</defs>
</svg>
