<svg width="92" height="36" viewBox="0 0 92 36" fill="none" xmlns="http://www.w3.org/2000/svg">
<g clip-path="url(#clip0)">
<path d="M14.658 24.5616V23.1902C16.9316 22.8563 16.9316 22.4506 16.4258 20.8635C16.0653 19.754 15.4894 18.0899 14.9235 16.6055H7.91241C7.51679 17.756 7.01099 19.1736 6.65042 20.3088C5.88923 22.6355 6.75559 22.9334 9.60508 23.1902V24.5616H0.706055V23.1902C2.97463 22.8974 3.55054 22.5636 4.77747 19.4561L12.2893 0.333861L14.022 0C16.3257 6.43573 18.7795 13.0204 21.1232 19.1993C22.4603 22.6355 22.7808 22.8974 25.1296 23.1902V24.5616H14.658ZM11.488 6.88259C10.4414 9.54316 9.42981 12.0188 8.52838 14.7205H14.2624L11.488 6.88259Z" fill="black"/>
<path d="M52.3024 1.89091C49.493 2.18368 49.2376 2.40454 49.2376 5.48629V19.6521C49.2376 22.7338 49.5281 22.9444 52.3024 23.2012V24.5726H41.1599V23.2012C44.0094 22.8314 44.2247 22.7236 44.2247 19.6521V12.6873H34.4894V19.6418C34.4894 22.7236 34.8149 22.8982 37.5191 23.191V24.5623H26.4116V23.191C29.0808 22.8982 29.4764 22.7133 29.4764 19.6418V5.47601C29.4764 2.39426 29.1509 2.11177 26.4116 1.88064V0.519531H37.5191V1.89091C34.7798 2.14772 34.4894 2.40454 34.4894 5.48629V10.7766H44.2247V5.48629C44.2247 2.40454 43.8641 2.19395 41.1599 1.89091V0.519531H52.3024V1.89091Z" fill="black"/>
<path d="M77.7925 18.1975C77.2431 20.2216 76.5741 22.2096 75.7893 24.1504C73.6139 24.7231 71.3837 25.0487 69.1388 25.1212C59.4636 25.1212 55.4573 18.7163 55.4573 12.8353C55.4573 5.17711 61.1563 -0.00537109 69.8099 -0.00537109C72.9448 -0.00537109 75.7242 0.775337 76.6256 0.883198C76.8059 2.62439 77.0563 5.35688 77.3117 6.98507L75.8694 7.24702C75.1082 4.36044 74.0265 2.9942 72.1185 2.21349C71.1094 1.85449 70.0465 1.68063 68.9786 1.69986C63.7503 1.69986 61.1162 6.17354 61.1162 11.9724C61.1162 18.7419 64.5065 23.3286 69.4493 23.3286C72.4541 23.3286 74.4973 21.7004 76.4604 17.6325L77.7925 18.1975Z" fill="black"/>
<path d="M80.8569 24.5623V23.191C83.5963 22.9341 83.9218 22.7133 83.9218 19.5956V5.51197C83.9218 2.43022 83.5612 2.11177 80.8569 1.91659V0.519531H92.0145V1.89091C89.3103 2.14772 88.9497 2.40454 88.9497 5.48629V19.5802C88.9497 22.6619 89.2752 22.8725 92.0145 23.1755V24.5469L80.8569 24.5623Z" fill="black"/>
<path d="M23.8075 30.1958C24.6838 30.1193 25.5553 30.3915 26.2413 30.9559C26.4944 31.1979 26.6937 31.4928 26.8259 31.8207C26.9581 32.1486 27.02 32.5018 27.0075 32.8563C27.0212 33.2964 26.9314 33.7333 26.7458 34.1302C26.5601 34.5272 26.284 34.8724 25.9408 35.1368C25.2394 35.6485 24.3921 35.9068 23.532 35.8713H21.1934V35.5477C21.8394 35.4964 21.9145 35.4142 21.9145 34.69V31.372C21.9145 30.6375 21.8244 30.5707 21.1934 30.5193V30.1958H23.8075ZM23.1014 34.6283C23.1014 35.2498 23.2516 35.4604 23.8726 35.4604C25.0244 35.4604 25.6854 34.6386 25.6854 32.9899C25.7349 32.2891 25.5157 31.5962 25.0745 31.0586C24.8912 30.8842 24.6746 30.7507 24.4384 30.6667C24.2022 30.5827 23.9515 30.55 23.7023 30.5707C23.5264 30.5491 23.3487 30.5928 23.2015 30.694C23.1264 30.771 23.1114 30.92 23.1114 31.1716L23.1014 34.6283Z" fill="black"/>
<path d="M32.4216 34.3665C32.3815 34.6027 32.1411 35.6043 32.066 35.8509H27.644V35.5324C28.4203 35.4554 28.4703 35.4143 28.4703 34.6798V31.3464C28.4703 30.6016 28.3702 30.5502 27.7893 30.4989V30.1753H30.5586C31.45 30.1753 31.7505 30.1753 31.8707 30.1753C31.8707 30.3345 31.9208 31.0485 31.9558 31.5929L31.6203 31.634C31.5547 31.3404 31.4302 31.064 31.2547 30.8225C31.1045 30.6478 30.9893 30.5965 30.5586 30.5965H30.0028C29.6822 30.5965 29.6472 30.5965 29.6472 30.9098V32.7332H30.4785C30.9793 32.7332 31.0444 32.6047 31.1696 31.9832H31.5001V33.9299H31.1696C31.0344 33.2827 30.9643 33.18 30.4735 33.18H29.6472V34.6798C29.6472 35.2859 29.6472 35.4656 30.1931 35.4759H30.794C31.2948 35.4759 31.4 35.4143 31.5852 35.178C31.7902 34.9117 31.9587 34.6179 32.086 34.3048L32.4216 34.3665Z" fill="black"/>
<path d="M35.3407 30.1958C35.8738 30.1641 36.4049 30.2869 36.8731 30.5502C37.087 30.6888 37.2613 30.8829 37.3783 31.113C37.4953 31.343 37.5508 31.6008 37.5392 31.86C37.5392 33.1286 36.4925 33.6628 35.5811 33.6679C35.496 33.6738 35.4107 33.6738 35.3257 33.6679L34.8249 33.5344V34.726C34.8249 35.4553 34.885 35.4913 35.6261 35.5632V35.8868H32.9219V35.5632C33.5629 35.481 33.648 35.4553 33.648 34.726V31.3874C33.648 30.653 33.5629 30.5759 32.9219 30.5348V30.2112L35.3407 30.1958ZM34.8399 33.1543C34.9827 33.2148 35.1361 33.2445 35.2906 33.2416C35.6812 33.2416 36.3222 33.0053 36.3222 31.8548C36.3222 30.8738 35.8214 30.5502 35.2505 30.5502C35.1325 30.542 35.0149 30.5725 34.915 30.6375C34.8558 30.7145 34.8288 30.8124 34.8399 30.9098V33.1543Z" fill="black"/>
<path d="M44.0694 30.5196C43.5235 30.571 43.3783 30.7353 43.3432 31.0332C43.3104 31.4226 43.2971 31.8135 43.3032 32.2043V33.3497C43.3667 34.089 43.1496 34.8249 42.6972 35.4042C42.482 35.6079 42.2296 35.7658 41.9545 35.869C41.6795 35.9721 41.3872 36.0184 41.0947 36.0051C40.5591 36.0279 40.0311 35.869 39.5923 35.5531C39.0915 35.1679 38.8612 34.6337 38.8612 33.6579V31.4493C38.8612 30.6429 38.786 30.5864 38.135 30.5247V30.2012H40.7692V30.5247C40.1281 30.5864 40.053 30.6429 40.053 31.4493V33.7709C40.053 34.7467 40.5188 35.3939 41.4302 35.3939C42.4318 35.3939 42.8875 34.6286 42.8875 33.3394V32.2454C42.8875 31.6444 42.8625 31.3311 42.8424 31.0692C42.8124 30.6634 42.572 30.5556 41.9761 30.5556V30.232H44.0894L44.0694 30.5196Z" fill="black"/>
<path d="M44.4954 35.8713V35.5478C45.1414 35.4861 45.2165 35.4348 45.2165 34.7003V31.372C45.2165 30.6375 45.1314 30.5707 44.4954 30.5194V30.1958H47.1245V30.5194C46.4835 30.581 46.3984 30.6375 46.3984 31.372V34.7003C46.3984 35.4245 46.4785 35.4759 47.1245 35.5478V35.8713H44.4954Z" fill="black"/>
<path d="M50.9901 31.6342C50.8198 31.0743 50.5794 30.4374 49.7982 30.4374C49.6888 30.4322 49.5795 30.4506 49.4775 30.4915C49.3755 30.5324 49.283 30.5948 49.206 30.6747C49.129 30.7546 49.0693 30.8502 49.0307 30.9554C48.9921 31.0605 48.9755 31.1728 48.9819 31.2849C48.9819 31.7677 49.2924 32.0553 50.0436 32.4406C50.955 32.9028 51.546 33.3548 51.546 34.2177C51.546 35.2449 50.7146 36 49.4977 36C49.0097 35.983 48.527 35.8912 48.0655 35.7278C48.0154 35.5274 47.8702 34.6183 47.8101 34.2126L48.1456 34.1304C48.3159 34.68 48.7916 35.6353 49.6229 35.6353C49.7379 35.6436 49.8532 35.6258 49.9607 35.5833C50.0682 35.5408 50.1653 35.4745 50.2451 35.3893C50.3249 35.304 50.3854 35.2018 50.4224 35.0899C50.4594 34.978 50.472 34.8591 50.4592 34.7416C50.4592 34.228 50.1538 33.9403 49.4577 33.5449C48.5713 33.0569 47.9954 32.6203 47.9954 31.7112C47.9954 30.8021 48.6914 30.0728 49.9685 30.0728C50.378 30.0841 50.7855 30.1356 51.1854 30.2268C51.2204 30.5504 51.2805 31.0075 51.3456 31.5571L50.9901 31.6342Z" fill="black"/>
<path d="M54.6157 35.8714V35.5478C55.4921 35.5015 55.5522 35.4091 55.5522 34.7773V31.6185C55.5522 31.1717 55.397 31.1357 55.0514 31.1049L54.796 31.0587V30.7711C55.4386 30.6945 56.0715 30.5482 56.684 30.3345V34.7876C56.684 35.4348 56.7341 35.5118 57.6054 35.5581V35.8816L54.6157 35.8714Z" fill="black"/>
<path d="M61.0117 33.4833L60.586 33.7145C60.4333 33.8051 60.2615 33.8562 60.0852 33.8634C59.8685 33.8756 59.6516 33.8415 59.4484 33.7632C59.2452 33.685 59.06 33.5643 58.9047 33.4088C58.7493 33.2533 58.6271 33.0664 58.5459 32.86C58.4646 32.6536 58.426 32.4321 58.4326 32.2095C58.439 31.9525 58.4953 31.6994 58.5981 31.4649C58.7009 31.2305 58.8482 31.0194 59.0314 30.8439C59.2146 30.6684 59.43 30.5321 59.6651 30.443C59.9002 30.3538 60.1503 30.3135 60.4007 30.3245C61.5826 30.3245 62.2837 31.3518 62.2837 32.5434C62.2733 33.2461 62.0525 33.9286 61.6512 34.4982C61.2499 35.0679 60.6874 35.4972 60.0401 35.7279C59.638 35.8745 59.2187 35.966 58.7932 36.0001L58.7331 35.6662C60.0752 35.317 60.7763 34.5619 61.0067 33.4833H61.0117ZM60.2204 30.6943C59.7597 30.6943 59.5644 31.1104 59.5644 31.8551C59.5644 32.5999 59.965 33.2419 60.596 33.2419C60.7591 33.2398 60.9197 33.2012 61.0668 33.1289C61.0938 32.9195 61.1072 32.7084 61.1068 32.4971C61.1068 31.6548 60.8764 30.6841 60.2204 30.6943Z" fill="black"/>
<path d="M64.7976 30.3245C65.744 30.3245 66.375 30.8997 66.375 31.6805C66.376 31.8068 66.351 31.932 66.3019 32.0479C66.2527 32.1638 66.1804 32.2678 66.0896 32.3533C65.8939 32.5236 65.6882 32.6814 65.4736 32.8258C66.0746 33.1597 66.6104 33.5655 66.6104 34.3256C66.6104 35.4351 65.5337 35.9949 64.6974 35.9949C63.5556 35.9949 62.8395 35.3991 62.8395 34.5208C62.8354 34.368 62.8663 34.2164 62.9298 34.0781C62.9933 33.9398 63.0876 33.8188 63.205 33.7247C63.3753 33.5911 63.7359 33.3754 63.9813 33.2111C63.7204 33.0926 63.4961 32.9031 63.3328 32.6631C63.1695 32.4232 63.0734 32.142 63.0548 31.85C63.0548 31.0179 63.7709 30.3091 64.8076 30.3091L64.7976 30.3245ZM64.8076 35.5943C65.2833 35.5943 65.5738 35.2861 65.5638 34.7211C65.5537 34.1561 65.1631 33.812 64.3118 33.3651C64.1631 33.4879 64.0448 33.6449 63.9665 33.8234C63.8881 34.0019 63.852 34.1969 63.8611 34.3924C63.8611 35.2245 64.3318 35.6097 64.8076 35.6097V35.5943ZM64.6874 30.6943C64.5946 30.6942 64.503 30.7144 64.4185 30.7536C64.334 30.7928 64.2586 30.8501 64.1975 30.9216C64.1363 30.9931 64.0907 31.0771 64.0638 31.1682C64.0369 31.2592 64.0292 31.355 64.0414 31.4493C64.0414 32.0297 64.467 32.3174 65.1481 32.6307C65.265 32.5107 65.354 32.3653 65.4086 32.2053C65.4632 32.0452 65.482 31.8747 65.4636 31.7061C65.4636 30.9357 65.0279 30.6789 64.6874 30.6789" fill="black"/>
<path d="M70.5763 30.4321L70.6263 30.5195L70.3559 31.3823H68.2376C68.1574 31.7573 68.0473 32.3325 67.9621 32.6921C68.3253 32.548 68.7062 32.4564 69.0939 32.4199C70.1957 32.4199 70.7716 33.1389 70.7716 33.8888C70.7644 34.1935 70.6827 34.4915 70.534 34.7554C70.3852 35.0193 70.1742 35.2406 69.9202 35.3989C69.4468 35.7475 68.8848 35.9473 68.3027 35.9742C67.9803 35.9773 67.665 35.8767 67.4013 35.6865C67.226 35.5478 67.1909 35.4605 67.1909 35.3373C67.2013 35.2461 67.2297 35.158 67.2745 35.0785C67.3193 34.999 67.3795 34.9297 67.4513 34.875C67.5033 34.8388 67.5667 34.824 67.6289 34.8335C67.691 34.843 67.7474 34.8762 67.7869 34.9264C68.0772 35.2444 68.4747 35.4372 68.8986 35.4657C69.4294 35.4657 69.6748 34.988 69.6748 34.3614C69.686 34.1866 69.6605 34.0115 69.6002 33.8477C69.5399 33.6839 69.4461 33.5352 69.3252 33.4117C69.2042 33.2881 69.0589 33.1925 68.8989 33.1313C68.739 33.0701 68.5681 33.0447 68.3978 33.0568C68.0969 33.0628 67.7985 33.1129 67.5114 33.2057L67.4714 33.1544C67.6416 32.3582 67.847 31.2437 67.9722 30.4321H70.5763Z" fill="black"/>
<path d="M0 33.355H18.5943" stroke="white" stroke-width="2" stroke-miterlimit="10"/>
<path d="M73.4006 33.355H91.9999" stroke="white" stroke-width="2" stroke-miterlimit="10"/>
</g>
<defs>
<clipPath id="clip0">
<rect width="92" height="36" fill="white"/>
</clipPath>
</defs>
</svg>
