<svg width="42" height="68" viewBox="0 0 42 68" fill="none" xmlns="http://www.w3.org/2000/svg">
<path d="M10.4706 66.7275C10.5681 67.0687 10.8931 67.3125 11.2506 67.3125H30.7506C31.1081 67.3125 31.4331 67.085 31.5306 66.7275L38.0631 44.985C40.1106 41.8162 41.3294 38.0462 41.3294 33.9837C41.3294 29.9375 40.1269 26.1512 38.0631 22.9825L31.5306 1.2725C31.4331 0.93125 31.1081 0.6875 30.7506 0.6875H11.2506C10.8931 0.6875 10.5681 0.93125 10.4706 1.2725L3.93812 23.015C1.89063 26.1838 0.671875 29.9538 0.671875 34.0163C0.671875 38.0625 1.87438 41.8325 3.93812 45.0175L10.4706 66.7275ZM30.1494 65.6875H11.8519L6.65187 48.365C10.3244 52.0375 15.3944 54.3125 21.0006 54.3125C26.5906 54.3125 31.6769 52.0375 35.3494 48.365L30.1494 65.6875ZM11.8519 2.3125H30.1494L35.3494 19.635C31.6769 15.9625 26.5906 13.6875 21.0006 13.6875C15.4106 13.6875 10.3406 15.9625 6.65187 19.635L11.8519 2.3125ZM21.0006 15.3125C31.3031 15.3125 39.6881 23.6975 39.6881 34C39.6881 44.3025 31.3031 52.6875 21.0006 52.6875C10.6981 52.6875 2.31313 44.3025 2.31313 34C2.31313 23.6975 10.6981 15.3125 21.0006 15.3125Z" fill="white"/>
</svg>
