<svg width="56" height="56" viewBox="0 0 56 56" fill="none" xmlns="http://www.w3.org/2000/svg">
<path d="M16 1H40.5M33.5 44V46.5H46.5L54.5 41L46 35L33.5 44ZM33.5 44V30.5M33.5 30.5L54 16L46 9.5M33.5 30.5V19M46 9.5H33.5V19M46 9.5L33.5 19" stroke="white" stroke-width="1.7"/>
<path d="M22.9316 12.0127L22.9316 9.5127L9.93164 9.51269L1.93164 15.0127L10.4316 21.0127L22.9316 12.0127ZM22.9316 12.0127L22.9316 25.5127M22.9316 25.5127L2.43164 40.0127L10.4316 46.5127M22.9316 25.5127L22.9316 37.0127M10.4316 46.5127L22.9316 46.5127L22.9316 37.0127M10.4316 46.5127L22.9316 37.0127" stroke="white" stroke-width="1.7"/>
<path d="M15.752 55.1294H40.5957" stroke="white" stroke-width="1.7"/>
</svg>
