<svg width="64" height="52" viewBox="0 0 64 52" fill="none" xmlns="http://www.w3.org/2000/svg">
<path d="M12.158 0.413675L0.317976 16.6937C0.122394 16.9638 0.142522 17.3691 0.363856 17.6187L31.4439 51.6585C31.7206 51.9723 32.2771 51.9723 32.5539 51.6585L63.6339 17.6187C63.8552 17.3691 63.8753 16.9638 63.6797 16.6937L51.8397 0.413675C51.7017 0.226529 51.4711 0.111245 51.2385 0.113095H12.7585C12.5061 0.067215 12.2386 0.268635 12.158 0.413675ZM13.8461 1.59309H30.4267L19.188 15.3293L13.8461 1.59309ZM33.5486 1.59309H50.1523L44.8105 15.3525L33.5486 1.59309ZM31.9992 2.00934L43.7698 16.3931H20.2517L31.9992 2.00934ZM12.5511 2.37934L18.0086 16.3931H2.35298L12.5511 2.37934ZM51.4473 2.37934L61.6455 16.3931H45.9898L51.4473 2.37934ZM2.60731 17.8731H18.5636L30.3805 48.2824L2.60731 17.8731ZM20.1592 17.8731H43.8392L31.9992 48.3749L20.1592 17.8731ZM45.4348 17.8731H61.3911L33.618 48.2824L45.4348 17.8731Z" fill="white"/>
</svg>
