<svg width="45" height="47" viewBox="0 0 45 47" fill="none" xmlns="http://www.w3.org/2000/svg">
<path d="M4.89026 36.7782V45.7031C4.89026 45.9062 4.97092 46.1009 5.11451 46.2445C5.25809 46.3881 5.45283 46.4688 5.65589 46.4688H39.3434C39.5464 46.4688 39.7412 46.3881 39.8848 46.2445C40.0283 46.1009 40.109 45.9062 40.109 45.7031V36.7782L42.8557 33.2462C43.6923 32.1695 44.2926 30.9285 44.6174 29.6042C44.9423 28.2799 44.9844 26.902 44.741 25.5603C44.5326 24.4137 44.037 23.3385 43.3006 22.4352C42.5642 21.532 41.611 20.8299 40.5299 20.3947C39.4488 19.9595 38.2751 19.8052 37.1182 19.9463C35.9614 20.0875 34.8591 20.5193 33.9143 21.2017L32.7012 22.0779C30.9322 19.428 28.2039 17.5681 25.0908 16.8899C24.925 15.7376 24.8289 14.5764 24.8031 13.4126C25.2015 13.2703 25.5529 13.0208 25.8184 12.6914C26.084 12.362 26.2533 11.9657 26.3078 11.5461C26.3622 11.1266 26.2997 10.7001 26.127 10.3139C25.9544 9.92766 25.6784 9.59663 25.3295 9.35738C25.4966 8.95249 25.5751 8.51647 25.5594 8.07872C25.5438 7.64096 25.4345 7.21165 25.2388 6.81973C25.0432 6.42781 24.7658 6.08239 24.4254 5.80677C24.0849 5.53114 23.6893 5.33172 23.2653 5.22195V3.59375H24.0309C24.2339 3.59375 24.4287 3.51309 24.5723 3.3695C24.7158 3.22592 24.7965 3.03118 24.7965 2.82812C24.7965 2.62507 24.7158 2.43033 24.5723 2.28675C24.4287 2.14316 24.2339 2.0625 24.0309 2.0625H23.2653V1.29688C23.2653 1.09382 23.1846 0.899079 23.041 0.755496C22.8974 0.611914 22.7027 0.53125 22.4996 0.53125C22.2966 0.53125 22.1018 0.611914 21.9583 0.755496C21.8147 0.899079 21.734 1.09382 21.734 1.29688V2.0625H20.9684C20.7653 2.0625 20.5706 2.14316 20.427 2.28675C20.2834 2.43033 20.2028 2.62507 20.2028 2.82812C20.2028 3.03118 20.2834 3.22592 20.427 3.3695C20.5706 3.51309 20.7653 3.59375 20.9684 3.59375H21.734V5.22195C21.3098 5.3314 20.914 5.53061 20.5734 5.80613C20.2328 6.08164 19.9553 6.42705 19.7596 6.81901C19.5639 7.21097 19.4546 7.64036 19.4391 8.07818C19.4235 8.51601 19.5022 8.95206 19.6696 9.3569C19.3205 9.59607 19.0444 9.92707 18.8716 10.3133C18.6988 10.6996 18.6362 11.1261 18.6906 11.5457C18.745 11.9653 18.9143 12.3618 19.1798 12.6912C19.4454 13.0207 19.7968 13.2703 20.1953 13.4126C20.1696 14.5756 20.0737 15.7359 19.9082 16.8873C16.7927 17.5614 14.0627 19.4236 12.2981 22.0782L11.0845 21.2017C10.1397 20.5192 9.03739 20.0873 7.88049 19.9461C6.72359 19.805 5.54979 19.9592 4.46862 20.3944C3.38746 20.8297 2.43419 21.5317 1.69777 22.4351C0.961356 23.3384 0.465805 24.4136 0.257367 25.5603C0.0140075 26.902 0.0561259 28.2799 0.380977 29.6042C0.705828 30.9285 1.30612 32.1695 2.14272 33.2462L4.89026 36.7782ZM10.2496 28.8594C10.5525 28.8594 10.8485 28.9492 11.1004 29.1174C11.3522 29.2857 11.5484 29.5248 11.6643 29.8046C11.7802 30.0844 11.8105 30.3923 11.7515 30.6894C11.6924 30.9864 11.5465 31.2592 11.3324 31.4734C11.1182 31.6875 10.8454 31.8334 10.5484 31.8925C10.2513 31.9515 9.94345 31.9212 9.66365 31.8053C9.38385 31.6894 9.1447 31.4932 8.97645 31.2413C8.80819 30.9895 8.71839 30.6935 8.71839 30.3906C8.71887 29.9847 8.88035 29.5955 9.16741 29.3084C9.45447 29.0213 9.84367 28.8599 10.2496 28.8594ZM13.3121 30.3906C13.3112 29.7079 13.0826 29.045 12.6624 28.5069C12.2423 27.9688 11.6546 27.5862 10.9925 27.4197C11.1178 27.0899 11.27 26.7709 11.4476 26.4659C11.9342 25.6265 12.6352 24.9315 13.4787 24.4519C13.577 24.4228 13.6685 24.3741 13.7477 24.3089C14.1193 24.1241 14.5104 23.9813 14.9137 23.8833C15.8777 23.6465 16.8879 23.6763 17.8362 23.9694C17.845 23.9725 17.854 23.9747 17.863 23.9775C18.3262 24.1235 18.7683 24.3297 19.178 24.5906C19.9217 25.0612 20.5413 25.7036 20.9848 26.4638C21.4282 27.2239 21.6824 28.0796 21.726 28.9585C21.0695 29.1297 20.4885 29.514 20.0741 30.0511C19.6596 30.5882 19.4353 31.2477 19.4362 31.9261C19.4371 32.6045 19.6633 33.2634 20.0792 33.7993C20.495 34.3353 21.0771 34.718 21.734 34.8874V35.75H12.997L11.5576 33.159C12.082 32.9109 12.5253 32.519 12.8358 32.0289C13.1464 31.5389 13.3116 30.9708 13.3121 30.3906ZM18.6715 21.9688C18.6712 21.4366 18.7818 20.9102 18.9963 20.4232C19.2108 19.9362 19.5245 19.4993 19.9173 19.1403C20.3102 18.7813 20.7736 18.5082 21.2779 18.3384C21.7822 18.1685 22.3164 18.1057 22.8464 18.1539C23.3763 18.2021 23.8904 18.3603 24.3559 18.6183C24.8213 18.8763 25.2278 19.2286 25.5494 19.6525C25.871 20.0765 26.1008 20.5628 26.2239 21.0806C26.347 21.5983 26.3608 22.136 26.2645 22.6593C25.8226 22.83 25.3988 23.0441 24.9992 23.2986C23.9356 23.9728 23.0724 24.9201 22.4996 26.0416C21.9268 24.9202 21.0636 23.9731 20.0001 23.299C19.6009 23.0448 19.1775 22.8308 18.736 22.6602C18.6938 22.4321 18.6722 22.2007 18.6715 21.9688ZM33.5517 26.4659C33.7292 26.7709 33.8814 27.0899 34.0068 27.4197C33.3941 27.5729 32.8438 27.9117 32.4313 28.3898C32.0187 28.868 31.7641 29.4619 31.7022 30.0904C31.6404 30.7189 31.7744 31.3511 32.0859 31.9005C32.3974 32.4498 32.8711 32.8894 33.4421 33.159L32.0023 35.75H23.2653V34.8874C23.9222 34.718 24.5042 34.3353 24.9201 33.7993C25.336 33.2634 25.5622 32.6045 25.5631 31.9261C25.564 31.2477 25.3396 30.5882 24.9252 30.0511C24.5108 29.514 23.9298 29.1297 23.2733 28.9585C23.3353 27.772 23.7785 26.6371 24.5372 25.7227C25.2958 24.8083 26.3293 24.1631 27.484 23.883C28.6386 23.603 29.8529 23.7031 30.9461 24.1685C32.0393 24.6338 32.9532 25.4396 33.5518 26.4659H33.5517ZM34.7496 31.9219C34.4468 31.9219 34.1507 31.8321 33.8989 31.6638C33.6471 31.4956 33.4508 31.2564 33.3349 30.9766C33.219 30.6968 33.1887 30.3889 33.2478 30.0919C33.3069 29.7949 33.4527 29.522 33.6669 29.3079C33.881 29.0937 34.1539 28.9479 34.4509 28.8888C34.7479 28.8297 35.0558 28.86 35.3356 28.9759C35.6154 29.0918 35.8546 29.2881 36.0228 29.5399C36.1911 29.7917 36.2809 30.0878 36.2809 30.3906C36.2804 30.7966 36.1189 31.1858 35.8319 31.4729C35.5448 31.7599 35.1556 31.9214 34.7496 31.9219ZM22.4996 30.3906C22.8025 30.3906 23.0985 30.4804 23.3504 30.6487C23.6022 30.8169 23.7984 31.0561 23.9143 31.3359C24.0302 31.6157 24.0605 31.9236 24.0015 32.2206C23.9424 32.5176 23.7965 32.7905 23.5824 33.0046C23.3682 33.2188 23.0954 33.3646 22.7984 33.4237C22.5013 33.4828 22.1935 33.4525 21.9137 33.3366C21.6339 33.2207 21.3947 33.0244 21.2264 32.7726C21.0582 32.5208 20.9684 32.2247 20.9684 31.9219C20.9689 31.5159 21.1304 31.1267 21.4174 30.8396C21.7045 30.5526 22.0937 30.3911 22.4996 30.3906ZM38.5778 37.2812V38.0469H6.42151V37.2812H38.5778ZM38.5778 42.6406H6.42151V39.5781H38.5778V42.6406ZM6.42151 44.9375V44.1719H38.5778V44.9375H6.42151ZM34.8117 22.4431C35.5468 21.9121 36.4044 21.5761 37.3045 21.4663C38.2046 21.3565 39.1178 21.4765 39.9589 21.8151C40.8001 22.1537 41.5417 22.6999 42.1147 23.4028C42.6876 24.1056 43.0732 24.9421 43.2353 25.8342C43.4402 26.964 43.4046 28.1242 43.131 29.2394C42.8574 30.3545 42.3519 31.3994 41.6474 32.3061L38.969 35.75H33.7543L34.9575 33.5842C34.9839 33.5364 35.0085 33.4878 35.0341 33.4394C35.7409 33.3732 36.4028 33.0634 36.9065 32.563C37.4102 32.0626 37.7244 31.4028 37.7954 30.6964C37.8663 29.99 37.6896 29.2808 37.2955 28.6903C36.9014 28.0998 36.3144 27.6645 35.6348 27.459C35.4536 26.8422 35.1984 26.2497 34.8748 25.6944C34.4209 24.9138 33.8211 24.2278 33.1081 23.6736L34.8117 22.4431ZM31.2248 22.6328C30.9701 22.539 30.7102 22.4597 30.4465 22.3952C29.5976 22.1882 28.7175 22.141 27.8513 22.2559C27.8563 22.1602 27.8589 22.0645 27.859 21.9688C27.8601 20.9795 27.5856 20.0095 27.0664 19.1674C28.7252 19.9492 30.1567 21.1421 31.2248 22.6328ZM20.2028 11.25C20.203 11.047 20.2837 10.8524 20.4273 10.7089C20.5708 10.5653 20.7654 10.4846 20.9684 10.4844H24.0309C24.2339 10.4844 24.4287 10.565 24.5723 10.7086C24.7158 10.8522 24.7965 11.0469 24.7965 11.25C24.7965 11.4531 24.7158 11.6478 24.5723 11.7914C24.4287 11.935 24.2339 12.0156 24.0309 12.0156H20.9684C20.7654 12.0154 20.5708 11.9347 20.4273 11.7911C20.2837 11.6476 20.203 11.453 20.2028 11.25ZM22.4996 6.65625C22.9056 6.65673 23.2948 6.81821 23.5819 7.10527C23.8689 7.39234 24.0304 7.78154 24.0309 8.1875C24.0313 8.45645 23.9602 8.72068 23.8249 8.95312H21.174C21.0387 8.72069 20.9677 8.45643 20.9684 8.1875C20.9689 7.78154 21.1304 7.39234 21.4174 7.10527C21.7045 6.81821 22.0937 6.65673 22.4996 6.65625ZM21.7244 13.5469H23.2748C23.3016 14.5858 23.3814 15.6226 23.5141 16.6533C23.1783 16.6253 22.8402 16.6094 22.4996 16.6094C22.159 16.6094 21.8211 16.6252 21.4852 16.6529C21.6179 15.6223 21.6977 14.5856 21.7244 13.5469ZM17.9384 19.1588C17.4157 20.0028 17.1393 20.976 17.1403 21.9688C17.1403 22.0645 17.1436 22.1602 17.1487 22.2559C16.2822 22.1411 15.4019 22.1884 14.5527 22.3956C14.2892 22.46 14.0295 22.5393 13.7749 22.633C14.8421 21.1373 16.2758 19.941 17.9384 19.1588ZM1.76393 25.8342C1.92612 24.9421 2.31168 24.1056 2.88463 23.4028C3.45758 22.6999 4.19924 22.1537 5.04039 21.8151C5.88155 21.4765 6.79478 21.3565 7.69486 21.4663C8.59495 21.5761 9.45255 21.9121 10.1876 22.4431L11.6445 23.4952C11.6595 23.598 11.6951 23.6967 11.7493 23.7854C11.0983 24.3197 10.5483 24.9663 10.1252 25.6945C9.80165 26.2498 9.54647 26.8423 9.36524 27.459C8.68569 27.6644 8.09864 28.0996 7.70449 28.6901C7.31034 29.2806 7.13358 29.9897 7.20445 30.6961C7.27531 31.4025 7.5894 32.0623 8.09299 32.5627C8.59657 33.0631 9.25838 33.373 9.96521 33.4394C9.99085 33.4879 10.016 33.5366 10.0425 33.5842L11.2449 35.75H6.03028L3.35183 32.3061C2.64735 31.3994 2.14183 30.3545 1.86823 29.2394C1.59463 28.1242 1.55909 26.964 1.76393 25.8342Z" fill="white"/>
</svg>
