<svg width="191" height="70" viewBox="0 0 191 70" fill="none" xmlns="http://www.w3.org/2000/svg">
<path d="M69.8701 0.680664L73.6183 5.19439V25.702H78.778V0.680664H73.6183H69.8701Z" fill="white"/>
<path d="M0 0.680664L3.73887 5.19439V25.702H8.90785V0.680664H3.73887H0Z" fill="white"/>
<path d="M33.5656 16.8144L19.9841 0.680664H16.9557H13.2168L16.9557 5.19439V25.702H22.1153V11.3681L34.089 25.702H38.7906V0.680664H33.5656V16.8144Z" fill="white"/>
<path d="M185.775 16.8144L172.193 0.680664H169.165H165.426L169.165 5.19439V25.702H174.334V11.3681L186.298 25.702H191V0.680664H185.775V16.8144Z" fill="white"/>
<path d="M129.916 10.8272H118.092L118.102 0.680664H112.867V25.702H118.092V15.5648H119.158H129.916V25.702H135.141V0.680664H129.916V10.8272Z" fill="white"/>
<path d="M101.314 20.1249C100.155 20.7072 98.8731 21.0046 97.5753 20.9922C96.4974 20.9984 95.4282 20.799 94.4253 20.4047C93.4488 20.0253 92.5494 19.4723 91.7707 18.7726C91.0049 18.087 90.3878 17.2523 89.9574 16.3199C89.5254 15.3085 89.3028 14.2205 89.3028 13.1212C89.3028 12.0218 89.5254 10.9338 89.9574 9.92239C90.3878 8.98999 91.0049 8.1553 91.7707 7.46968C92.5494 6.76999 93.4488 6.21703 94.4253 5.83766C95.4282 5.44336 96.4974 5.24393 97.5753 5.25012C98.8731 5.23776 100.155 5.53512 101.314 6.11742C102.366 6.66452 103.297 7.41601 104.053 8.32765L108.194 5.03562L107.708 4.50406C106.445 3.10679 104.909 1.98312 103.193 1.2027C101.474 0.43906 99.6185 0.0304924 97.7374 0.00164249C95.8563 -0.0272074 93.9888 0.324265 92.2474 1.03484C90.6602 1.70233 89.2163 2.66796 87.9945 3.87922C86.7925 5.10219 85.8402 6.54647 85.1903 8.13181C84.5119 9.70813 84.1621 11.4057 84.1621 13.1212C84.1621 14.8366 84.5119 16.5342 85.1903 18.1105C85.9104 19.7541 86.9504 21.2388 88.25 22.4783C89.5497 23.7178 91.083 24.6876 92.7611 25.3313C94.4393 25.975 96.2288 26.2798 98.026 26.2282C99.8232 26.1765 101.592 25.7693 103.23 25.0303C104.944 24.2499 106.48 23.1298 107.745 21.7383L108.231 21.2067L104.09 17.9053C103.326 18.8265 102.382 19.5819 101.314 20.1249Z" fill="white"/>
<path d="M52.2696 20.4608V16.0684V15.5648H61.785V10.8272H52.2696V10.6593V5.93113V5.41821H52.4565H65.2435V0.680664H49.6524H47.0445H43.3057L47.0445 5.19439V25.702H49.6524V25.7113H52.7089H66.6081V20.9738H52.2696V20.4608Z" fill="white"/>
<path d="M148.433 20.4608V16.0684V15.5648H157.939V10.8272H148.433V10.6593V5.93113V5.41821H148.62H161.397V0.680664H145.815H143.208H139.469L143.208 5.19439V25.702H145.815V25.7113H148.863H162.771V20.9738H148.433V20.4608Z" fill="white"/>
<path d="M10.8337 46.7882H4.87015L3.76719 49.6978H0.224609L5.83291 36.4551H9.88959L15.4979 49.6978H11.9647L10.8337 46.7882ZM9.95501 44.494L8.6838 41.1553C8.3243 40.3932 8.05455 39.592 7.87994 38.7679H7.82386C7.64925 39.592 7.3795 40.3932 7.02 41.1553L5.74879 44.494H9.95501Z" fill="white"/>
<path d="M23.274 36.4553V44.289C23.3178 45.0893 23.6673 45.8424 24.2506 46.3934C24.8339 46.9445 25.6067 47.2516 26.41 47.2516C27.2133 47.2516 27.9861 46.9445 28.5694 46.3934C29.1527 45.8424 29.5022 45.0893 29.546 44.289V36.4553H32.9483V44.5315C32.9483 47.8701 30.5742 50.071 26.4053 50.071C22.2365 50.071 19.8623 47.8701 19.8623 44.4755V36.418L23.274 36.4553Z" fill="white"/>
<path d="M38.4541 43.1128C38.4541 38.9161 41.4078 36.0811 45.9318 36.0811C49.6707 36.0811 52.2505 37.9462 52.83 40.9305L49.3529 41.546C49.2474 40.722 48.8266 39.9707 48.1785 39.4492C47.5304 38.9277 46.7052 38.6766 45.8758 38.7483C43.4455 38.7483 41.9593 40.4083 41.9593 43.0755C41.9593 45.7427 43.4642 47.384 45.9318 47.384C46.745 47.4468 47.5524 47.2043 48.1956 46.7039C48.8389 46.2036 49.2716 45.4816 49.409 44.6795L52.8487 45.4256C52.0262 48.3166 49.5772 50.0885 45.8571 50.0885C41.2022 50.0699 38.4541 47.3281 38.4541 43.1128Z" fill="white"/>
<path d="M69.4965 39.1223H64.935V49.6978H61.542V39.1223H56.9619V36.4551H69.4965V39.1223Z" fill="white"/>
<path d="M74.9082 49.6978V36.4551H78.2919V49.6978H74.9082Z" fill="white"/>
<path d="M84.0312 43.0755C84.0312 38.8042 87.0037 36.0811 91.5744 36.0811C96.1452 36.0811 99.1082 38.8042 99.1082 43.0755C99.1082 47.3467 96.1545 50.0699 91.5744 50.0699C86.9943 50.0699 84.0312 47.3281 84.0312 43.0755ZM95.575 43.0755C95.575 40.371 94.0421 38.6736 91.5744 38.6736C89.1068 38.6736 87.5832 40.371 87.5832 43.0755C87.5832 45.78 89.1161 47.4773 91.5744 47.4773C94.0327 47.4773 95.575 45.78 95.575 43.0755Z" fill="white"/>
<path d="M104.856 36.4551H108.595L113.998 44.009C114.362 44.5182 114.675 45.0617 114.933 45.6317H114.989C114.989 45.0722 114.989 44.494 114.989 43.8598V36.4551H118.092V49.6978H114.577L108.969 42.0693C108.613 41.5683 108.3 41.0379 108.034 40.4839H107.978C107.978 41.0621 107.978 41.6403 107.978 42.2744V49.7351H104.875L104.856 36.4551Z" fill="white"/>
<path d="M135.824 47.2545V49.6978H124.804V36.4551H135.693V38.8985H128.215V41.7708H135.385V44.1209H128.187V47.2545H135.824Z" fill="white"/>
<path d="M153.144 47.2545V49.6978H142.114V36.4551H153.004V38.8985H145.526V41.7708H152.714V44.1209H145.526V47.2545H153.144Z" fill="white"/>
<path d="M165.538 44.7738H162.808V49.6978H159.425V36.4551H166.603C170.342 36.4551 171.716 38.3203 171.716 40.5771C171.735 41.4223 171.469 42.2493 170.96 42.9256C170.452 43.6019 169.731 44.0885 168.912 44.3075L172.09 49.6792H168.351L165.538 44.7738ZM162.808 42.5356H165.874C167.519 42.5356 168.164 41.6962 168.164 40.6144C168.164 39.5326 167.547 38.7493 165.874 38.7493H162.808V42.5356Z" fill="white"/>
<path d="M176.063 46.8618L178.55 45.1272C179.023 45.9005 179.696 46.5322 180.499 46.9557C181.302 47.3791 182.204 47.5786 183.111 47.5332C184.85 47.5332 185.915 47.0483 185.915 46.0038C185.915 44.9593 185.336 44.7355 183.868 44.493L181.139 44.1013C178.428 43.6537 176.989 42.4227 176.989 40.1098C176.989 37.6105 179.232 36.0811 182.971 36.0811C185.775 36.0811 188.009 36.9577 189.262 38.7669L187.056 40.6321C186.585 39.9466 185.944 39.3953 185.195 39.0322C184.446 38.6692 183.615 38.5071 182.784 38.5617C181.176 38.5617 180.242 39.0653 180.242 39.942C180.242 40.8186 180.784 41.173 182.317 41.4155L184.981 41.8258C187.897 42.2734 189.262 43.3739 189.262 45.724C189.262 48.4099 186.981 50.1072 182.952 50.1072C179.634 50.0699 177.166 48.8202 176.063 46.8618Z" fill="white"/>
<path d="M59.7188 67.9572V69.7291H51.7363V60.1328H59.6721V61.9327H54.2414V64.0124H59.4384V65.663H54.2414V67.9292L59.7188 67.9572Z" fill="white"/>
<path d="M63.1396 67.6784L64.9437 66.4194C65.2865 66.9806 65.7749 67.4389 66.3574 67.7459C66.9399 68.0529 67.5947 68.1971 68.2525 68.1633C69.5144 68.1633 70.2902 67.8089 70.2902 67.0535C70.2902 66.2981 69.8696 66.121 68.8134 65.9624L66.8318 65.6733C64.8689 65.3469 63.822 64.4609 63.822 62.7823C63.822 61.1036 65.4484 59.8633 68.1591 59.8633C70.1874 59.8633 71.8045 60.4974 72.7112 61.8124L71.1128 63.1367C70.7739 62.6381 70.3098 62.237 69.7669 61.9736C69.2239 61.7101 68.6212 61.5934 68.0189 61.6352C66.8598 61.6352 66.1494 61.9989 66.1494 62.6331C66.1494 63.2672 66.542 63.5656 67.6543 63.7055L69.5799 64.004C71.6923 64.3211 72.6831 65.1231 72.6831 66.8017C72.6831 68.7415 71.0287 69.9725 68.1123 69.9725C65.7288 70.0005 63.9435 69.0959 63.1396 67.6784Z" fill="white"/>
<path d="M84.9101 62.0633H81.6105V69.7291H79.1429V62.0633H75.834V60.1328H84.9101V62.0633Z" fill="white"/>
<path d="M89.5833 69.7292H87.0596V67.5283H89.5833V69.7292Z" fill="white"/>
<path d="M102.875 63.35C102.348 63.7752 101.682 63.9911 101.006 63.9562H100.52V61.9325H100.8C101.332 61.9814 101.865 61.8533 102.317 61.5682C102.768 61.2831 103.112 60.8571 103.296 60.3564H105.259V69.7476H102.903L102.875 63.35Z" fill="white"/>
<path d="M118.466 64.8615C118.466 68.0976 116.961 69.9907 113.97 69.9907C111.783 69.9907 110.297 69.0581 109.932 67.3421L112.26 66.9691C112.354 67.357 112.586 67.6977 112.912 67.929C113.238 68.1602 113.637 68.2664 114.035 68.2281C115.447 68.2281 116.167 67.2023 116.195 65.4304C115.85 65.7925 115.429 66.0727 114.961 66.2502C114.493 66.4278 113.992 66.4982 113.493 66.4562C111.213 66.4562 109.811 65.3091 109.811 63.3693C109.811 61.4296 111.437 60.1705 113.979 60.1705C116.868 60.1332 118.466 61.7653 118.466 64.8615ZM116.139 63.5092C116.08 63.0044 115.826 62.5421 115.432 62.2202C115.038 61.8982 114.534 61.7418 114.026 61.7839C112.867 61.7839 112.157 62.3621 112.157 63.2947C112.157 64.2273 112.876 64.7869 113.979 64.7869C114.426 64.8117 114.869 64.7035 115.254 64.4759C115.638 64.2484 115.946 63.9119 116.139 63.5092Z" fill="white"/>
<path d="M123.355 69.543C123.405 68.1174 123.772 66.7208 124.428 65.4534C125.084 64.1861 126.014 63.0794 127.149 62.2128H121.588V60.3477H129.524V62.0916C128.421 62.9501 127.527 64.0461 126.909 65.2976C126.291 66.5491 125.964 67.9239 125.953 69.3192V69.7388H123.355V69.543Z" fill="white"/>
<path d="M132.776 66.8101L135.188 66.5956C135.191 66.8373 135.245 67.0757 135.348 67.2946C135.451 67.5136 135.599 67.7082 135.783 67.8653C135.967 68.0225 136.183 68.1386 136.415 68.2059C136.648 68.2732 136.892 68.2902 137.132 68.2556C138.301 68.2556 138.936 67.78 138.936 66.95C138.936 66.12 138.31 65.719 137.067 65.719H136.319V64.2176H137.067C138.188 64.2176 138.759 63.7979 138.759 63.0145C138.759 62.2311 138.179 61.8488 137.076 61.8488C136.844 61.8171 136.608 61.8367 136.384 61.9062C136.161 61.9756 135.955 62.0932 135.782 62.2507C135.609 62.4082 135.473 62.6017 135.383 62.8174C135.293 63.0332 135.252 63.266 135.263 63.4994L132.889 63.229C132.889 61.3638 134.478 60.1328 137.142 60.1328C139.805 60.1328 141.208 61.1214 141.208 62.7627C141.187 63.3114 140.962 63.8327 140.577 64.2244C140.191 64.6161 139.673 64.8498 139.123 64.8797C140.6 65.0662 141.451 65.8123 141.451 67.1179C141.451 68.8432 139.824 69.9903 137.142 69.9903C134.459 69.9903 132.851 68.7872 132.776 66.8101Z" fill="white"/>
</svg>
