<svg width="151" height="15" viewBox="0 0 151 15" fill="none" xmlns="http://www.w3.org/2000/svg">
<path d="M103.286 2.27198C103.908 2.27198 104.413 1.76338 104.413 1.13599C104.413 0.508597 103.908 0 103.286 0C102.663 0 102.158 0.508597 102.158 1.13599C102.158 1.76338 102.663 2.27198 103.286 2.27198Z" fill="black"/>
<path d="M106.707 2.27198C107.329 2.27198 107.834 1.76338 107.834 1.13599C107.834 0.508597 107.329 0 106.707 0C106.084 0 105.579 0.508597 105.579 1.13599C105.579 1.76338 106.084 2.27198 106.707 2.27198Z" fill="black"/>
<path d="M119.727 11.3398L119.241 10.3951C120.519 9.85704 121.417 8.58552 121.417 7.10275C121.417 5.12972 119.83 3.53136 117.872 3.53136H115.019H113.904H112.804H111.222L112.804 5.45656V14.2256H115.016V13.4284V10.6742H116.93L117.884 12.6033C118.378 13.5998 119.272 14.2296 120.38 14.2296H121.891V12.1808H121.148C120.348 12.1808 119.929 11.7344 119.727 11.3398ZM117.718 8.59349H115.012V5.61202H117.718C118.536 5.61202 119.197 6.27766 119.197 7.10275C119.201 7.92386 118.536 8.59349 117.718 8.59349Z" fill="black"/>
<path d="M29.5719 3.53136L31.1583 5.45656V14.2256H33.3421V3.53136H31.1583H29.5719Z" fill="black"/>
<path d="M0 3.53136L1.58245 5.45656V14.2256H3.77018V3.53136H1.58245H0Z" fill="black"/>
<path d="M14.2055 10.427L8.45729 3.53136H7.17551H5.59306L7.17551 5.45656V14.2256H9.36324V8.09525L14.4271 14.2256H16.417V3.53136H14.2055V10.427Z" fill="black"/>
<path d="M123.067 3.53136L124.653 5.45656V14.2256H126.837V3.53136H124.653H123.067Z" fill="black"/>
<path d="M78.6276 10.427L72.8794 3.53136H71.5976H70.0152L71.5976 5.45656V14.2256H73.7853V8.09525L78.8492 14.2256H80.8391V3.53136H78.6276V10.427Z" fill="black"/>
<path d="M54.9866 7.86805H49.9861V3.53136H47.7707V14.2256H49.9821V9.88892H50.4331H54.9866V14.2256H57.1981V3.53136H54.9866V7.86805Z" fill="black"/>
<path d="M136.218 11.8383C135.74 12.0854 135.205 12.2089 134.628 12.2089C134.161 12.2089 133.71 12.1252 133.295 11.9578C132.875 11.7904 132.496 11.5553 132.171 11.2603C131.851 10.9693 131.594 10.6146 131.408 10.212C131.222 9.80941 131.131 9.31515 131.131 8.84481C131.131 8.37447 131.222 7.88021 131.408 7.47763C131.594 7.07107 131.851 6.7203 132.171 6.42933C132.496 6.13437 132.875 5.8992 133.295 5.73179C133.714 5.56438 134.161 5.48068 134.628 5.48068C135.205 5.48068 135.74 5.60424 136.218 5.85137C136.669 6.08255 137.057 6.40541 137.377 6.79604L139.13 5.38502L138.928 5.15781C138.394 4.56391 137.749 4.08958 137.013 3.75078C136.274 3.40799 135.471 3.2366 134.616 3.2366C133.821 3.2366 133.069 3.38408 132.381 3.67903C131.696 3.97001 131.091 4.38056 130.585 4.89076C130.074 5.40494 129.671 6.0148 129.382 6.70835C129.105 7.37002 128.947 8.08748 128.947 8.84082C128.947 9.59417 129.105 10.3116 129.382 10.9733C129.671 11.6669 130.078 12.2807 130.585 12.7909C131.095 13.3051 131.7 13.7116 132.381 14.0026C133.069 14.2976 133.821 14.4451 134.616 14.4451C135.471 14.4451 136.274 14.2737 137.013 13.9309C137.749 13.5921 138.39 13.1177 138.928 12.5238L139.13 12.2966L137.377 10.8856C137.057 11.2842 136.673 11.6031 136.218 11.8383Z" fill="black"/>
<path d="M42.8814 11.8383C42.4027 12.0854 41.8686 12.2089 41.291 12.2089C40.8242 12.2089 40.3732 12.1252 39.9578 11.9578C39.5385 11.7904 39.1587 11.5553 38.8343 11.2603C38.5139 10.9693 38.2567 10.6146 38.0708 10.212C37.8848 9.80941 37.7938 9.31515 37.7938 8.84481C37.7938 8.37447 37.8848 7.88021 38.0708 7.47763C38.2567 7.07107 38.5139 6.7203 38.8343 6.42933C39.1587 6.13437 39.5385 5.8992 39.9578 5.73179C40.3772 5.56438 40.8242 5.48068 41.291 5.48068C41.8686 5.48068 42.4027 5.60424 42.8814 5.85137C43.3324 6.08255 43.7201 6.40541 44.0405 6.79604L45.7931 5.38502L45.5913 5.15781C45.0573 4.56391 44.4124 4.08958 43.6766 3.75078C42.9368 3.40799 42.1337 3.2366 41.2792 3.2366C40.484 3.2366 39.7323 3.38408 39.044 3.67903C38.3596 3.97001 37.7543 4.38056 37.2479 4.89076C36.7376 5.40494 36.334 6.0148 36.0452 6.70835C35.7683 7.37002 35.6101 8.08748 35.6101 8.84082C35.6101 9.59417 35.7683 10.3116 36.0452 10.9733C36.334 11.6669 36.7415 12.2807 37.2479 12.7909C37.7582 13.3051 38.3635 13.7116 39.044 14.0026C39.7323 14.2976 40.484 14.4451 41.2792 14.4451C42.1337 14.4451 42.9368 14.2737 43.6766 13.9309C44.4124 13.5921 45.0573 13.1177 45.5913 12.5238L45.7931 12.2966L44.0405 10.8856C43.7161 11.2842 43.3324 11.6031 42.8814 11.8383Z" fill="black"/>
<path d="M148.121 3.53136V7.86805H143.117L143.121 3.53136H140.905V14.2256H143.117V9.88892H143.568H148.121V14.2256H150.333V3.53136H148.121Z" fill="black"/>
<path d="M22.1229 11.9855V10.1082V9.88892H26.1503V7.86805H22.1229V7.79631V5.77544V5.55223H22.2021H27.6101V3.53136H21.0152H19.9115H18.329L19.9115 5.45656V14.2256H21.0152H22.3089H28.1916V12.2048H22.1229V11.9855Z" fill="black"/>
<path d="M62.824 11.9855V10.1082V9.88892H66.8513V7.86805H62.824V7.79631V5.77544V5.55223H62.9031H68.3111V3.53136H61.7163H60.6125H59.0261L60.6125 5.45656V14.2256H61.7163H63.006H68.8927V12.2048H62.824V11.9855Z" fill="black"/>
<path d="M107.617 9.86102C107.617 11.3119 106.351 12.2127 105.018 12.2127C103.685 12.2127 102.419 11.3119 102.419 9.86102V3.53136H100.208H98.6251L100.208 5.45656V9.9806C100.208 12.1729 102.067 14.4488 105.018 14.4488C107.969 14.4488 109.829 12.1689 109.829 9.9806V3.53136H107.617V9.86102Z" fill="black"/>
<path d="M95.8413 3.53136H88.3523V5.55223H94.1006L87.4741 12.5754L88.8152 14.1818L88.8548 14.2256H97.3367V12.2048H91.0108L97.4039 5.42866L95.8413 3.53136Z" fill="black"/>
</svg>
