<svg width="255" height="74" viewBox="0 0 255 74" fill="none" xmlns="http://www.w3.org/2000/svg">
<path d="M83.5767 34.2187C83.5767 34.512 83.2834 34.6097 82.7946 34.6097C82.5013 34.6097 82.2079 34.6097 81.9146 34.512L75.6575 34.3165L69.4004 34.512C69.2049 34.512 68.9116 34.6097 68.6183 34.6097C67.9339 34.6097 67.6406 34.4142 67.6406 34.1209C67.6406 33.7298 68.1294 33.5343 69.0093 33.5343C71.8446 33.5343 73.3111 33.241 73.3111 32.6544C73.3111 32.6544 73.3111 32.4589 73.2133 32.2633L72.8223 30.9924L72.529 30.308C72.2357 29.3303 71.5513 27.0816 70.3781 23.562H59.9169C57.9616 28.7437 56.9839 31.7745 56.9839 32.5566C56.9839 33.0455 57.1794 33.3388 57.5705 33.4366C57.6683 33.4366 58.4504 33.5343 60.0147 33.6321C60.9924 33.6321 61.3834 33.8276 61.3834 34.1209C61.3834 34.4142 60.9924 34.6097 60.1125 34.6097C58.646 34.6097 56.8861 34.512 54.833 34.4142C54.3442 34.4142 53.8553 34.4142 53.3665 34.4142C52.8777 34.4142 52.2911 34.512 51.8022 34.6097C51.5089 34.7075 51.3134 34.7075 51.2156 34.7075C50.7268 34.7075 50.5312 34.512 50.5312 34.2187C50.5312 33.9254 51.0201 33.7298 52.0955 33.7298C53.171 33.7298 53.8553 33.5343 54.3442 33.241C54.833 32.9477 55.1263 32.4589 55.4196 31.6767C59.6236 19.6513 63.0455 9.9723 65.6852 2.63972C65.783 2.24865 65.8808 1.85758 66.1741 1.36874L66.3696 0.488838C66.4674 0.0977677 66.5651 0 66.7607 0C66.8584 0 66.9562 0.0977706 67.054 0.293306C67.445 1.56429 68.4227 4.204 69.8892 8.21248C71.0624 11.341 73.9955 19.358 78.6883 32.0678C78.9816 32.8499 79.2749 33.241 79.666 33.4366C80.0571 33.6321 80.937 33.7299 82.208 33.8276C83.1856 33.8276 83.5767 33.9254 83.5767 34.2187ZM70.3781 22.4866C69.8892 21.02 69.0093 18.5759 67.7383 15.154L65.3919 8.40802C64.0232 12.0254 62.3611 16.7183 60.4058 22.4866H70.3781Z" fill="black"/>
<path d="M112.418 33.0478C112.418 34.4166 111.245 35.101 108.997 35.101C106.455 35.101 104.499 34.0255 103.033 31.8746C102.446 30.9947 102.055 30.1148 101.86 29.2349C101.664 28.355 101.371 26.2041 101.077 22.7822C100.882 20.7291 100.198 19.2626 99.1221 18.3827C97.9488 17.5028 96.0913 17.0139 93.5493 17.0139V32.4612C93.5493 33.1456 94.0381 33.5367 95.1136 33.7322C95.4069 33.7322 96.189 33.83 97.3623 33.83C97.7533 33.83 98.0466 33.9277 98.0466 34.2211C98.0466 34.5144 97.7533 34.6121 97.1667 34.6121H96.5801H92.2783H89.8341H87.5855H85.7279C85.0435 34.6121 84.6525 34.5144 84.6525 34.2211C84.6525 34.0255 85.1413 33.83 86.119 33.83C87.6833 33.83 88.4654 33.6344 88.5632 33.2434C88.6609 33.0478 88.7587 32.4612 88.7587 31.288V4.30414C88.7587 3.03316 88.6609 2.25103 88.3676 1.95773C88.0743 1.66442 87.2922 1.56666 85.8257 1.46889C85.0435 1.46889 84.5547 1.37113 84.5547 1.07782C84.5547 0.78452 84.848 0.588985 85.3368 0.588985C85.4346 0.588985 85.6301 0.588985 85.8257 0.588985L92.2783 0.686743C92.9627 0.686743 93.8426 0.686752 95.0158 0.588985C96.2868 0.491217 97.2645 0.491211 97.7533 0.491211C100.784 0.491211 103.228 1.17559 104.988 2.54434C106.748 3.91308 107.628 5.77068 107.628 8.01933C107.628 10.268 106.748 12.2233 104.89 13.6898C103.033 15.1564 100.589 16.0363 97.46 16.3296C97.1667 16.3296 96.9712 16.4273 96.9712 16.5251C96.9712 16.6229 97.1667 16.7206 97.46 16.7206C100.882 17.3073 103.228 18.4804 104.499 20.338C105.77 22.1956 106.65 25.422 107.041 30.2126C107.335 32.8523 108.214 34.2211 109.779 34.2211C110.268 34.2211 110.561 34.1233 110.561 33.9278V33.83C110.365 33.4389 110.268 33.1456 110.268 32.9501C110.268 32.2657 110.659 31.9724 111.343 31.9724C112.027 31.8746 112.418 32.2657 112.418 33.0478ZM102.251 8.60591C102.251 3.91307 100.198 1.66442 96.189 1.66442C95.1136 1.66442 94.3315 1.76219 93.9404 2.15326C93.5493 2.44656 93.3538 2.93539 93.3538 3.71753V16.134C96.4823 16.134 98.731 15.6452 100.1 14.3742C101.566 13.1033 102.251 11.2456 102.251 8.60591Z" fill="black"/>
<path d="M139.013 9.28725C139.013 9.67832 138.818 9.97164 138.427 9.97164C138.036 9.97164 137.742 9.58055 137.547 8.70064C137.449 8.11404 137.449 7.52744 137.351 6.94084C137.156 5.76762 136.765 4.78994 136.276 3.91003C135.591 2.83459 134.418 2.15021 132.952 1.85691C131.974 1.66137 131.094 1.56361 130.507 1.56361C128.943 1.56361 128.063 1.66137 127.672 1.66137V31.1872C127.672 32.3604 127.966 33.1426 128.552 33.4359C128.845 33.6314 129.823 33.7292 131.29 33.7292C131.681 33.7292 131.876 33.9247 131.876 34.1202C131.876 34.4135 131.583 34.5113 131.094 34.5113C130.801 34.5113 130.605 34.5113 130.41 34.5113C128.454 34.4135 127.086 34.4136 126.206 34.4136C125.13 34.4136 124.153 34.4135 123.175 34.5113C122.197 34.5113 121.024 34.6091 119.558 34.6091C118.775 34.6091 118.482 34.5113 118.482 34.218C118.482 33.9247 119.166 33.7292 120.535 33.7292C121.513 33.7292 122.197 33.5336 122.491 33.0448C122.686 32.7515 122.784 32.0671 122.784 30.9917V1.66137C119.558 1.66137 117.504 1.85691 116.82 2.15021C114.767 2.93235 113.594 4.8877 113.203 8.2118C113.105 9.18948 112.909 9.67832 112.518 9.67832C112.127 9.67832 111.932 9.28724 111.932 8.60287C111.932 8.2118 111.932 7.91852 111.932 7.52745L112.029 6.452C112.127 4.98548 112.323 3.03013 112.518 0.585938H114.767L124.739 0.683696C125.912 0.683696 127.77 0.683696 130.214 0.683696L138.329 0.585938C138.427 2.44352 138.622 5.08324 138.916 8.70064C138.916 8.79841 138.916 8.89617 138.916 9.09171C138.916 9.28724 139.013 9.28725 139.013 9.28725Z" fill="black"/>
<path d="M166.779 30.7014C166.779 31.5813 166.682 32.9501 166.584 34.9054H166.095C165.899 34.9054 165.411 34.9054 164.726 34.8077C163.944 34.7099 163.162 34.7099 162.184 34.7099L141.849 34.6121C141.262 34.6121 141.066 34.5144 141.066 34.1233C141.066 33.9277 141.458 33.7322 142.435 33.7322C143.706 33.6344 144.391 33.5367 144.684 33.3411C144.977 33.1456 145.075 32.559 145.075 31.4836V4.01085C145.075 2.83764 144.977 2.05549 144.684 1.85995C144.391 1.66442 143.608 1.56666 142.044 1.56666C141.457 1.56666 141.164 1.37113 141.164 1.07782C141.164 0.78452 141.36 0.588985 141.751 0.588985H142.142C143.217 0.686752 145.368 0.686743 148.595 0.686743C148.888 0.686743 149.474 0.686752 150.354 0.588985C151.234 0.491217 151.919 0.491211 152.407 0.491211H152.896C153.483 0.491211 153.776 0.686746 153.776 0.980049C153.776 1.17558 153.678 1.27335 153.483 1.37111C153.287 1.37111 152.701 1.46889 151.821 1.46889C150.843 1.46889 150.354 1.66442 150.159 1.95773C149.963 2.25103 149.865 3.13094 149.865 4.49969V33.3411C150.745 33.3411 152.016 33.3411 153.581 33.3411C157.394 33.3411 160.131 33.1456 161.695 32.7545C163.26 32.3635 164.335 31.6791 164.922 30.5059C165.508 29.4304 165.802 27.9639 165.899 26.2041C165.899 25.813 166.095 25.6175 166.486 25.6175C166.877 25.6175 167.073 25.9108 167.073 26.3996V27.6706V28.0617V28.7461V30.7014H166.779Z" fill="black"/>
<path d="M194.741 26.6929C194.741 26.7907 194.741 27.6706 194.643 29.1371C194.545 30.6036 194.545 31.9724 194.545 33.3412V35.0032C191.319 34.8077 185.062 34.7099 175.578 34.7099H172.157H169.908H169.419C168.832 34.7099 168.441 34.6121 168.441 34.3188C168.441 34.1233 168.539 34.0255 168.735 34.0255C168.832 34.0255 169.419 34.0255 170.592 33.9278C171.472 33.83 171.961 33.6345 172.157 33.3412C172.352 33.0479 172.45 32.2657 172.45 30.9947V3.42424C172.45 2.44656 172.352 1.95773 172.059 1.76219C171.766 1.56666 170.886 1.46889 169.419 1.46889C168.93 1.46889 168.637 1.37113 168.637 1.07782C168.637 0.78452 169.028 0.686743 169.712 0.686743H178.023H183.498H190.341C191.319 0.686743 192.199 0.588979 193.079 0.491211C193.177 1.85996 193.274 3.81531 193.568 6.35727L193.763 8.4104C193.763 8.60593 193.763 8.80147 193.763 8.99701C193.763 9.29031 193.665 9.48585 193.274 9.48585C192.883 9.48585 192.688 9.09476 192.492 8.21485C191.906 5.28182 190.83 3.42424 189.461 2.6421C188.386 2.05549 185.649 1.76219 181.249 1.76219H177.24V16.134H178.414C182.031 16.134 184.28 15.8407 185.062 15.2541C185.844 14.6675 186.431 13.1032 186.724 10.3658C186.822 9.68138 187.017 9.38807 187.213 9.38807C187.604 9.38807 187.799 9.68137 187.799 10.268C187.799 10.8546 187.799 11.7345 187.702 12.8099C187.604 13.9832 187.604 14.8631 187.604 15.3519C187.604 18.8715 187.702 21.218 187.799 22.5867C187.799 22.88 187.799 23.1733 187.799 23.4666C187.799 23.8577 187.604 24.0532 187.311 24.0532C187.115 24.0532 186.92 23.9555 186.822 23.6622C186.724 23.3689 186.626 22.4889 186.431 20.9246C186.137 18.9693 185.355 17.7961 184.084 17.3073C183.498 17.1117 181.933 17.0139 179.489 17.0139H177.338V33.4389C184.475 33.4389 188.679 33.3411 189.95 33.0478C192.101 32.559 193.372 30.5059 193.665 26.8885C193.763 26.1063 193.959 25.7153 194.35 25.7153C194.643 25.6175 194.741 26.0086 194.741 26.6929Z" fill="black"/>
<path d="M10.6264 58.6803C10.6264 58.849 10.6264 58.849 10.4577 58.849C10.2891 58.849 10.2891 58.6803 10.1204 58.343C10.1204 58.1743 10.1204 57.837 10.1204 57.6683C9.95176 57.1623 9.95173 56.8249 9.61438 56.4876C9.27703 56.1502 8.9397 55.8129 8.26501 55.6442C7.92766 55.6442 7.5903 55.4755 7.25295 55.4755C6.74693 55.4755 6.2409 55.4755 6.2409 55.4755V66.608C6.2409 67.114 6.4096 67.2827 6.57827 67.4514C6.74694 67.4514 7.0843 67.62 7.59032 67.62C7.759 67.62 7.75896 67.62 7.75896 67.7887C7.75896 67.9574 7.59031 67.9574 7.42164 67.9574C7.25296 67.9574 7.25294 67.9574 7.08427 67.9574C6.40957 67.9574 5.73489 67.9574 5.56622 67.9574C5.22887 67.9574 4.72283 67.9574 4.38548 67.9574C4.04813 67.9574 3.54213 67.9574 3.03611 67.9574C2.69876 67.9574 2.53011 67.9574 2.53011 67.7887C2.53011 67.62 2.86746 67.62 3.37348 67.62C3.71082 67.62 4.04816 67.62 4.04816 67.4514C4.04816 67.2827 4.21685 67.114 4.21685 66.608V55.4755C3.03613 55.4755 2.19272 55.4755 1.85537 55.6442C1.012 55.9815 0.674675 56.6562 0.506001 58.0056C0.506001 58.343 0.337306 58.5117 0.168633 58.5117C-4.11826e-05 58.5117 0 58.343 0 58.1743C0 58.0056 0 57.8369 0 57.8369V57.3309C0 56.8249 0.168633 55.9816 0.168633 55.1382H1.012H4.72285C5.22887 55.1382 5.90358 55.1382 6.74695 55.1382H9.78306C9.78306 55.8129 9.95175 56.8249 9.95175 58.1743C10.4578 58.5116 10.4578 58.5116 10.6264 58.6803Z" fill="black"/>
<path d="M17.3743 68.1234C17.3743 68.2921 17.2056 68.2921 17.037 68.2921C17.037 68.2921 16.8683 68.2921 16.531 68.2921C16.1936 68.2921 15.8563 68.2921 15.5189 68.2921H13.6635H13.4949C13.3262 68.2921 13.3262 68.2921 13.3262 68.1234C13.3262 67.9547 13.4948 67.9547 13.6635 67.9547C14.1695 67.9547 14.3382 67.9548 14.5069 67.7861C14.5069 67.7861 14.5069 67.4488 14.5069 66.9427V61.5452C14.5069 61.2078 14.5069 61.0392 14.5069 61.0392H14.3382H13.8322H13.6635C13.4948 61.0392 13.4949 61.0391 13.4949 60.8705C13.4949 60.8705 13.6635 60.7018 13.8322 60.7018C14.6755 60.7018 15.3503 60.5331 15.8563 60.1958L16.025 60.0271C16.1936 60.1958 16.1936 60.5331 16.1936 61.0392V61.2078V61.8825V66.9427C16.1936 67.4488 16.1936 67.7861 16.1936 67.7861C16.1936 67.9548 16.1936 67.9547 16.3623 67.9547C16.531 67.9547 16.8683 67.9547 17.2056 67.9547C17.3743 68.1234 17.3743 68.1234 17.3743 68.1234ZM16.025 56.6536C16.025 57.1596 15.6876 57.497 15.1816 57.497C15.0129 57.497 14.6755 57.497 14.5069 57.3283C14.3382 57.1596 14.3382 56.991 14.3382 56.8223C14.3382 56.3163 14.6756 55.9789 15.1816 55.9789C15.6876 55.8103 16.025 56.1476 16.025 56.6536Z" fill="black"/>
<path d="M32.5445 68.1215C32.5445 68.2901 32.3759 68.2901 32.2072 68.2901H31.8699H30.8578H28.8337C28.665 68.2901 28.6651 68.2901 28.6651 68.1215C28.6651 67.9528 28.665 67.9528 28.8337 67.9528H29.0024H29.5084C29.6771 67.9528 29.8458 67.9528 29.8458 67.7841C29.8458 67.7841 29.8458 67.4468 29.8458 66.9408V62.3866C29.8458 61.7119 29.6771 61.2058 29.5084 60.8685C29.3398 60.5312 29.0024 60.3624 28.4964 60.3624C28.159 60.3624 27.8217 60.5311 27.653 60.6998C27.3157 60.8685 27.147 61.2058 27.147 61.3745C27.147 61.5432 27.147 62.2179 27.147 63.3986V66.9408C27.147 67.2781 27.147 67.6155 27.147 67.6155C27.147 67.7841 27.3157 67.7841 27.4843 67.7841H27.9903C28.159 67.7841 28.159 67.7841 28.159 67.9528C28.159 67.9528 27.9904 68.1215 27.8217 68.1215H27.653H26.4723H25.4602H24.7855H24.6169C24.4482 68.1215 24.4482 68.1214 24.4482 67.9528C24.4482 67.9528 24.4482 67.7841 24.6169 67.7841C24.6169 67.7841 24.9542 67.7841 25.2916 67.7841C25.4603 67.7841 25.6289 67.7841 25.6289 67.6155V67.2781V62.0492C25.6289 61.3745 25.4603 60.8685 25.2916 60.5311C25.1229 60.1938 24.7856 60.1938 24.2795 60.1938C23.7735 60.1938 23.4361 60.3625 23.0988 60.6998C22.7615 61.0372 22.5928 61.3745 22.5928 61.7119V66.9408C22.5928 67.2781 22.5928 67.4468 22.5928 67.6155C22.5928 67.6155 22.7615 67.7841 23.0988 67.7841H23.2675H23.4362C23.6048 67.7841 23.6049 67.7841 23.6049 67.9528C23.6049 68.1214 23.6048 68.1215 23.4362 68.1215H23.2675C22.9301 68.1215 22.4241 68.1215 21.9181 68.1215H20.0627C19.894 68.1215 19.7253 68.1214 19.7253 67.9528C19.7253 67.7841 19.7253 67.7841 19.894 67.7841C20.4 67.7841 20.5687 67.7841 20.7374 67.7841L20.9061 67.6155V62.7239C20.9061 61.8806 20.9061 61.2059 20.9061 61.0372C20.9061 60.8685 20.7374 60.8685 20.4 60.8685H20.0627H19.7253C19.5567 60.8685 19.5566 60.8685 19.5566 60.6998C19.5566 60.6998 19.5567 60.5311 19.7253 60.5311C19.7253 60.5311 20.0627 60.5311 20.4 60.5311C20.7374 60.5311 21.0747 60.3624 21.4121 60.3624C21.9181 60.1938 22.0867 60.1938 22.0867 60.0251C22.2554 59.8565 22.2554 59.8564 22.4241 59.8564C22.5928 59.8564 22.5928 59.8565 22.5928 60.0251C22.5928 60.1938 22.5928 60.5312 22.5928 61.0372C23.0988 60.1938 23.7735 59.8564 24.9542 59.8564C26.1349 59.8564 26.8097 60.1938 26.9783 61.0372C27.4844 60.1938 28.159 59.8564 29.3398 59.8564C30.1831 59.8564 30.8578 60.1938 31.1952 60.8685C31.3638 61.2058 31.5325 61.7119 31.5325 62.5552V67.1094C31.5325 67.4467 31.5325 67.7841 31.5325 67.7841C31.5325 67.7841 31.7012 67.7841 32.0385 67.9528H32.3759C32.5445 68.1214 32.5445 68.1215 32.5445 68.1215Z" fill="black"/>
<path d="M42.1722 66.2758C42.1722 66.4445 42.0035 66.6132 41.8348 66.9506C41.6662 67.2879 41.4975 67.4566 41.3288 67.7939C40.8228 68.3 40.1481 68.6373 39.1361 68.6373C37.9553 68.6373 37.112 68.2999 36.2686 67.4566C35.5939 66.6132 35.0879 65.6012 35.0879 64.4205C35.0879 63.2397 35.4252 62.2277 36.0999 61.3843C36.7746 60.5409 37.618 60.2036 38.7987 60.2036C39.6421 60.2036 40.4855 60.541 40.9915 61.047C41.6662 61.553 41.8349 62.2277 42.0035 63.071C41.6662 63.071 41.1602 63.2397 40.4855 63.071H39.1361C38.9674 63.071 38.2927 63.071 36.9433 63.071C36.9433 63.4084 36.7746 63.9144 36.7746 64.2518C36.7746 65.4325 36.9433 66.4445 37.4493 67.1192C37.9553 67.7939 38.6301 68.1313 39.4734 68.1313C39.9794 68.1313 40.3168 67.9626 40.6541 67.7939C40.9915 67.6253 41.3288 67.1192 41.6662 66.4445C41.8348 66.2758 42.0035 66.1072 42.1722 66.2758C42.1722 66.1072 42.1722 66.2758 42.1722 66.2758ZM40.4855 62.565C40.4855 61.047 39.9794 60.3722 38.9674 60.3722C37.9553 60.3722 37.2807 61.047 37.112 62.565H40.4855Z" fill="black"/>
<path d="M53.1324 64.2466C53.1324 65.4273 52.795 66.4394 52.1203 67.2827C51.4456 68.1261 50.6023 68.4635 49.5902 68.4635C48.7469 68.4635 48.0722 68.1261 47.7348 67.6201V72.0056C47.7348 72.343 47.7348 72.5116 47.7348 72.5116C47.7348 72.5116 47.7348 72.6803 47.9035 72.6803C48.0722 72.6803 48.4095 72.6803 48.9155 72.6803C49.0842 72.6803 49.0842 72.6803 49.0842 72.849C49.0842 73.0177 49.0842 73.0176 48.9155 73.0176H48.5782H48.0722H47.5661H46.8914H46.0481H45.2047C44.8673 73.0176 44.6987 73.0177 44.6987 72.849C44.6987 72.6803 44.6987 72.6803 44.8673 72.6803H45.3734C45.7107 72.6803 45.8794 72.6803 45.8794 72.5116C45.8794 72.5116 45.8794 71.8369 45.8794 70.8249V61.5478C45.8794 61.2105 45.7107 61.0418 45.3734 61.0418H44.53C44.3613 61.0418 44.3613 61.0418 44.3613 60.8732C44.3613 60.7045 44.53 60.7045 44.6987 60.7045C45.3734 60.7045 46.048 60.5358 46.5541 60.1985C46.7227 60.0298 46.8914 60.0298 46.8914 60.0298C47.0601 60.0298 47.0601 60.0298 47.0601 60.1985C47.0601 60.3671 47.0601 60.5358 47.0601 61.0418C47.5661 60.3671 48.2408 60.0298 49.0842 60.0298C50.0962 60.0298 51.1083 60.3671 51.783 61.2105C52.795 61.8852 53.1324 62.8972 53.1324 64.2466ZM51.6143 64.2466C51.6143 63.2346 51.4456 62.3912 51.1083 61.7165C50.7709 60.7045 50.0962 60.3671 49.2529 60.3671C48.7468 60.3671 48.4095 60.5358 48.0722 60.8732C47.7348 61.2105 47.5661 61.5478 47.5661 62.0538C47.5661 62.5599 47.5661 63.7406 47.5661 65.4273C47.5661 66.2707 47.5661 66.7767 47.5661 66.9454C47.5661 67.1141 47.7348 67.2827 47.7348 67.4514C48.0722 67.9574 48.5782 68.2948 49.0842 68.2948C49.7589 68.2948 50.2649 67.9574 50.6023 67.4514C51.277 66.6081 51.6143 65.4273 51.6143 64.2466Z" fill="black"/>
<path d="M60.2142 68.1234C60.2142 68.2921 60.0455 68.2921 59.8769 68.2921C59.8769 68.2921 59.7082 68.2921 59.3708 68.2921C59.0335 68.2921 58.6961 68.2921 58.3588 68.2921H56.5034H56.3347C56.166 68.2921 56.166 68.2921 56.166 68.1234C56.166 67.9547 56.3347 67.9547 56.5034 67.9547C57.0094 67.9547 57.1781 67.9548 57.3468 67.7861C57.3468 67.7861 57.3468 67.4488 57.3468 66.9427V61.5452C57.3468 61.2078 57.3468 61.0392 57.3468 61.0392H57.1781H56.672H56.5034C56.3347 61.0392 56.3347 61.0391 56.3347 60.8705C56.3347 60.8705 56.5033 60.7018 56.672 60.7018C57.5154 60.7018 58.1901 60.5331 58.6961 60.1958L58.8648 60.0271C59.0335 60.1958 59.0335 60.5331 59.0335 61.0392V61.2078V61.8825V66.9427C59.0335 67.4488 59.0335 67.7861 59.0335 67.7861C59.0335 67.9548 59.0334 67.9547 59.2021 67.9547C59.3708 67.9547 59.7081 67.9547 60.0455 67.9547C60.2142 68.1234 60.2142 68.1234 60.2142 68.1234ZM58.8648 56.6536C58.8648 57.1596 58.5275 57.497 58.0214 57.497C57.8528 57.497 57.5154 57.497 57.3468 57.3283C57.1781 57.1596 57.1781 56.991 57.1781 56.8223C57.1781 56.3163 57.5154 55.9789 58.0214 55.9789C58.6961 55.8103 58.8648 56.1476 58.8648 56.6536Z" fill="black"/>
<path d="M69.9906 66.2758C69.9906 66.4445 69.8219 66.6132 69.6532 66.9506C69.4845 67.2879 69.3159 67.4566 69.1472 67.7939C68.6412 68.3 67.9665 68.6373 66.9544 68.6373C65.7737 68.6373 64.9304 68.2999 64.087 67.4566C63.4123 66.6132 62.9062 65.6012 62.9062 64.4205C62.9062 63.2397 63.2436 62.2277 63.9183 61.3843C64.593 60.5409 65.4364 60.2036 66.6171 60.2036C67.4605 60.2036 68.3038 60.541 68.8098 61.047C69.4845 61.553 69.6532 62.2277 69.8219 63.071C69.4845 63.071 68.9785 63.2397 68.3038 63.071H67.1231C66.9544 63.071 66.2797 63.071 64.9304 63.071C64.9304 63.4084 64.7617 63.9144 64.7617 64.2518C64.7617 65.4325 64.9303 66.4445 65.4364 67.1192C65.9424 67.7939 66.6171 68.1313 67.4605 68.1313C67.9665 68.1313 68.3038 67.9626 68.6411 67.7939C68.9785 67.6253 69.3159 67.1192 69.6532 66.4445C69.6532 66.2758 69.8219 66.1072 69.9906 66.2758C69.9906 66.1072 69.9906 66.2758 69.9906 66.2758ZM68.3038 62.565C68.3038 61.047 67.7978 60.3722 66.7857 60.3722C65.7737 60.3722 65.099 61.047 64.9304 62.565H68.3038Z" fill="black"/>
<path d="M79.7789 61.8857C79.7789 62.3917 79.4416 62.729 78.9355 62.729C78.4295 62.729 78.0922 62.3917 78.0922 61.8857C78.0922 61.717 78.0922 61.5483 78.2609 61.2109C78.2609 61.0423 78.2609 61.0423 78.2609 60.8736C78.2609 60.7049 78.0922 60.3676 77.9235 60.1989C77.7548 60.0302 77.4175 60.0302 76.9114 60.0302C76.2367 60.0302 75.5621 60.3676 75.2247 61.0423C74.8874 61.717 74.55 62.5603 74.55 63.741C74.55 65.0904 74.7187 66.1025 75.2247 66.7772C75.5621 67.4519 76.2368 67.7892 77.0801 67.7892C77.5861 67.7892 78.0922 67.6205 78.4295 67.2832C78.5982 67.1145 78.9356 66.7772 79.1042 66.4398L79.2729 66.2711C79.4416 66.2711 79.4415 66.2712 79.4415 66.4398C79.4415 66.6085 79.2729 66.9458 78.7669 67.2832C78.2608 67.7892 77.4175 68.1266 76.5741 68.1266C75.5621 68.1266 74.55 67.7892 73.8753 66.9459C73.2006 66.1025 72.8633 65.2591 72.8633 64.0784C72.8633 62.729 73.2006 61.717 74.044 60.8736C74.7187 60.0302 75.7307 59.6929 76.9114 59.6929C77.5861 59.6929 78.2609 59.8616 78.9355 60.1989C79.6102 60.8736 79.7789 61.3796 79.7789 61.8857Z" fill="black"/>
<path d="M89.5569 66.2758C89.5569 66.4445 89.3883 66.6132 89.2196 66.9506C89.0509 67.2879 88.8822 67.4566 88.7136 67.7939C88.2075 68.3 87.5329 68.6373 86.5208 68.6373C85.3401 68.6373 84.4967 68.2999 83.6533 67.4566C82.9786 66.6132 82.4727 65.6012 82.4727 64.4205C82.4727 63.2397 82.81 62.2277 83.4847 61.3843C84.1594 60.5409 85.0027 60.2036 86.1834 60.2036C87.0268 60.2036 87.8702 60.541 88.3762 61.047C89.0509 61.553 89.2196 62.2277 89.3883 63.071C89.0509 63.071 88.5449 63.2397 87.8702 63.071H86.5208C86.3521 63.071 85.6775 63.071 84.3281 63.071C84.3281 63.4084 84.1594 63.9144 84.1594 64.2518C84.1594 65.4325 84.3281 66.4445 84.8341 67.1192C85.3401 67.7939 86.0148 68.1313 86.8582 68.1313C87.3642 68.1313 87.7015 67.9626 88.0389 67.7939C88.3762 67.6253 88.7136 67.1192 89.0509 66.4445C89.3883 66.2758 89.3883 66.1072 89.5569 66.2758C89.5569 66.1072 89.5569 66.2758 89.5569 66.2758ZM88.0389 62.565C88.0389 61.047 87.5329 60.3722 86.5208 60.3722C85.5088 60.3722 84.8341 61.047 84.6654 62.565H88.0389Z" fill="black"/>
<path d="M98.337 65.9287C98.337 66.6034 97.9997 67.2781 97.4937 67.7841C96.9876 68.2902 96.3129 68.4588 95.6382 68.4588C95.3009 68.4588 94.7949 68.2901 94.1202 67.9528C93.9515 67.7841 93.7829 67.7841 93.6142 67.7841C93.4455 67.7841 93.2768 67.9528 93.2768 68.1215C93.2768 68.2901 93.1081 68.2901 93.1081 68.2901C93.1081 68.2901 92.9395 68.2901 92.9395 68.1215V67.9528V66.9408V66.6034V66.0974V65.9287C92.9395 65.76 92.9395 65.76 93.1081 65.76C93.2768 65.76 93.2768 65.76 93.2768 65.9287C93.2768 66.4347 93.4455 66.9407 93.7828 67.2781C94.2888 67.9528 94.9636 68.2901 95.8069 68.2901C96.313 68.2901 96.6503 68.1214 96.819 67.9528C97.1563 67.6154 97.1563 67.2781 97.1563 66.9408C97.1563 66.4347 96.9876 66.0974 96.6503 65.76C96.4816 65.5914 96.313 65.4227 96.1443 65.4227C95.9756 65.4227 95.6383 65.254 94.9636 64.9167C93.6142 64.4106 92.9395 63.5673 92.9395 62.5552C92.9395 61.8805 93.1082 61.2058 93.6142 60.8685C94.1202 60.3625 94.6262 60.1938 95.3009 60.1938C95.4696 60.1938 95.9756 60.1938 96.4816 60.3624C96.6503 60.3624 96.6503 60.3624 96.819 60.3624C97.1563 60.3624 97.1563 60.1938 97.325 60.0251C97.325 59.8565 97.4937 59.8564 97.4937 59.8564C97.6623 59.8564 97.6624 59.8565 97.6624 60.0251V60.1938V61.0372C97.6624 61.3745 97.6624 61.8805 97.831 62.3866C97.831 62.5552 97.831 62.5552 97.6624 62.5552C97.6624 62.5552 97.4937 62.3865 97.325 62.0492C97.1563 61.5432 96.9876 61.2059 96.6503 61.0372C96.313 60.6998 95.9756 60.6998 95.4696 60.6998C95.1322 60.6998 94.6262 60.8685 94.4576 61.0372C94.1202 61.3745 94.1202 61.5432 94.1202 62.0492C94.1202 62.7239 94.4576 63.0613 95.3009 63.3986C96.6503 63.9046 97.325 64.4106 97.831 64.748C98.1684 64.748 98.337 65.254 98.337 65.9287Z" fill="black"/>
<path d="M114.363 67.4519C114.363 67.6206 114.194 67.9579 113.688 68.1266C113.182 68.2952 112.845 68.4639 112.508 68.4639C111.664 68.4639 111.158 67.9579 111.158 67.1145C110.652 67.9579 109.978 68.4639 108.965 68.4639C108.459 68.4639 107.953 68.2952 107.616 67.9579C107.279 67.6205 107.11 67.2832 107.11 66.7772C107.11 65.7651 107.785 64.9218 108.965 64.4158C109.303 64.2471 110.146 64.0784 111.158 63.741V63.235C111.158 62.223 111.158 61.3796 110.99 61.0423C110.821 60.3676 110.315 60.0302 109.64 60.0302C109.134 60.0302 108.797 60.1989 108.628 60.3676C108.291 60.5362 108.122 60.8736 108.122 61.2109C108.122 61.3796 108.122 61.3796 108.291 61.3796C108.459 61.3796 108.628 61.3796 108.628 61.5483C108.797 61.717 108.797 61.8856 108.797 62.0543C108.797 62.5603 108.459 62.8977 107.953 62.8977C107.616 62.8977 107.447 62.729 107.279 62.5603C107.11 62.3917 106.941 62.0543 106.941 61.8857C106.941 61.3796 107.11 60.8736 107.616 60.3676C108.122 59.8615 108.797 59.6929 109.809 59.6929C111.158 59.6929 112.002 60.0302 112.339 60.8736C112.508 61.211 112.508 61.717 112.508 62.5603V66.1025C112.508 66.6085 112.508 66.9458 112.508 67.1145C112.508 67.6205 112.676 67.7892 113.014 67.7892C113.351 67.7892 113.688 67.6206 113.857 67.4519C114.194 67.4519 114.194 67.2832 114.363 67.4519C114.363 67.2832 114.363 67.4519 114.363 67.4519ZM111.158 65.4278V64.0784C110.315 64.2471 109.64 64.5844 109.134 64.9218C108.628 65.2591 108.459 65.7651 108.459 66.2711C108.459 66.6085 108.628 66.9458 108.797 67.2832C108.966 67.6205 109.303 67.6206 109.64 67.6206C110.146 67.6206 110.652 67.2832 110.821 66.7772C111.158 66.6085 111.158 66.2711 111.158 65.4278Z" fill="black"/>
<path d="M122.112 65.9287C122.112 66.6034 121.775 67.2781 121.269 67.7841C120.763 68.2902 120.088 68.4588 119.414 68.4588C119.076 68.4588 118.57 68.2901 117.896 67.9528C117.727 67.7841 117.558 67.7841 117.39 67.7841C117.221 67.7841 117.052 67.9528 117.052 68.1215C117.052 68.2901 116.884 68.2901 116.884 68.2901C116.884 68.2901 116.715 68.2901 116.715 68.1215V67.9528V66.9408V66.6034V66.0974V65.9287C116.715 65.76 116.715 65.76 116.884 65.76C117.052 65.76 117.052 65.76 117.052 65.9287C117.052 66.4347 117.221 66.9407 117.558 67.2781C118.064 67.9528 118.739 68.2901 119.582 68.2901C120.088 68.2901 120.426 68.1214 120.594 67.9528C120.932 67.6154 120.932 67.2781 120.932 66.9408C120.932 66.4347 120.763 66.0974 120.426 65.76C120.257 65.5914 120.088 65.4227 119.92 65.4227C119.751 65.4227 119.414 65.254 118.739 64.9167C117.39 64.4106 116.715 63.5673 116.715 62.5552C116.715 61.8805 116.884 61.2058 117.39 60.8685C117.896 60.3625 118.402 60.1938 119.076 60.1938C119.245 60.1938 119.751 60.1938 120.257 60.3624C120.426 60.3624 120.426 60.3624 120.594 60.3624C120.932 60.3624 120.932 60.1938 121.1 60.0251C121.1 59.8565 121.269 59.8564 121.269 59.8564C121.438 59.8564 121.438 59.8565 121.438 60.0251V60.1938V61.0372C121.438 61.3745 121.438 61.8805 121.606 62.3866C121.606 62.5552 121.606 62.5552 121.438 62.5552C121.438 62.5552 121.269 62.3865 121.1 62.0492C120.932 61.5432 120.763 61.2059 120.426 61.0372C120.088 60.6998 119.751 60.6998 119.245 60.6998C118.908 60.6998 118.402 60.8685 118.233 61.0372C117.896 61.3745 117.896 61.5432 117.896 62.0492C117.896 62.7239 118.233 63.0613 119.076 63.3986C120.426 63.9046 121.1 64.4106 121.606 64.748C121.775 64.748 122.112 65.254 122.112 65.9287Z" fill="black"/>
<path d="M142.696 61.8796C142.696 63.735 142.19 65.253 141.009 66.6024C139.828 67.9518 138.479 68.4579 136.961 68.4579C135.274 68.4579 133.756 67.7832 132.575 66.6024C131.395 65.253 130.889 63.735 130.889 61.8796C130.889 60.0242 131.395 58.3374 132.575 57.1567C133.756 55.976 135.106 55.3013 136.792 55.3013C138.479 55.3013 139.828 55.976 141.009 57.1567C142.021 58.5061 142.696 60.0242 142.696 61.8796ZM140.503 62.0482C140.503 59.8555 139.997 58.0001 139.154 56.8194C138.648 55.976 137.804 55.6386 136.792 55.6386C135.78 55.6386 135.106 55.976 134.431 56.482C133.419 57.6627 132.913 59.3495 132.913 61.8796C132.913 63.9037 133.25 65.4217 133.925 66.6024C134.6 67.7832 135.612 68.2892 136.792 68.2892C137.973 68.2892 138.816 67.7832 139.491 66.7711C140.166 65.4217 140.503 63.9036 140.503 62.0482Z" fill="black"/>
<path d="M153.822 63.9092C153.822 65.2586 153.485 66.2706 152.642 67.114C151.798 67.9574 150.955 68.4634 149.774 68.4634C149.437 68.4634 148.931 68.4634 148.593 68.2947C148.256 68.126 147.919 68.126 147.75 68.126C147.581 68.126 147.413 68.126 147.244 68.2947C147.075 68.4634 146.907 68.4634 146.907 68.4634C146.738 68.4634 146.738 68.2947 146.738 67.7887V58.1743C146.738 56.9936 146.738 56.3189 146.569 56.1502C146.569 56.1502 146.232 56.1502 145.895 56.1502C145.557 56.1502 145.389 56.1502 145.389 55.9816C145.389 55.8129 145.389 55.8129 145.557 55.8129H145.895C146.569 55.8129 147.244 55.6442 147.919 55.3068C148.087 55.1381 148.256 55.1382 148.256 55.1382V61.0418C148.762 60.3671 149.437 60.0297 150.449 60.0297C151.461 60.0297 152.304 60.3671 152.979 61.0418C153.485 61.7165 153.822 62.7285 153.822 63.9092ZM152.136 63.9092C152.136 62.7285 151.967 61.8851 151.63 61.2104C151.292 60.5357 150.786 60.1984 150.112 60.1984C149.774 60.1984 149.437 60.367 149.1 60.5357C148.762 60.7044 148.594 61.0417 148.425 61.3791C148.256 61.7164 148.256 62.7285 148.256 64.2466C148.256 65.9333 148.256 66.9453 148.425 67.2827C148.594 67.7887 149.1 68.126 149.774 68.126C150.449 68.126 151.124 67.7887 151.461 67.2827C151.967 66.608 152.136 65.4273 152.136 63.9092Z" fill="black"/>
<path d="M159.727 68.8004C159.727 70.1497 159.558 71.1618 159.052 72.0052C158.546 72.8486 158.04 73.1859 157.197 73.1859C156.86 73.1859 156.522 73.0172 156.185 72.8486C156.016 72.6799 155.848 72.3425 155.848 72.1738C155.848 71.6678 156.185 71.3305 156.86 71.3305C157.366 71.3305 157.703 71.4992 157.703 72.0052C157.703 72.1739 157.703 72.3425 157.534 72.6799C157.534 72.6799 157.534 72.6799 157.534 72.8486C157.534 73.0172 157.534 73.0172 157.703 73.0172C157.872 73.0172 158.04 72.8485 158.209 72.5112C158.378 72.1739 158.378 71.1618 158.378 69.6437V61.3787C158.378 61.21 158.209 61.21 158.04 61.21H157.872H157.028C156.86 61.21 156.86 61.2101 156.86 61.0414C156.86 61.0414 157.028 60.8727 157.366 60.8727C158.209 60.8727 158.884 60.704 159.39 60.3667C159.558 60.198 159.727 60.198 159.896 60.198C160.064 60.198 160.065 60.198 160.065 60.3667C160.065 60.5353 160.065 61.0414 160.065 61.7161V63.9088V64.7522V65.2582V68.8004H159.727ZM159.558 56.6559C159.558 57.1619 159.221 57.4992 158.715 57.4992C158.546 57.4992 158.209 57.4992 158.04 57.3306C157.872 57.1619 157.872 56.9932 157.872 56.6559C157.872 56.4872 157.872 56.1499 158.04 55.9812C158.209 55.8125 158.378 55.8125 158.546 55.8125C159.221 55.8125 159.558 56.1498 159.558 56.6559Z" fill="black"/>
<path d="M170.366 66.2758C170.366 66.4445 170.197 66.6132 170.028 66.9506C169.86 67.2879 169.691 67.4566 169.522 67.7939C169.016 68.3 168.341 68.6373 167.329 68.6373C166.149 68.6373 165.305 68.2999 164.462 67.4566C163.787 66.6132 163.281 65.6012 163.281 64.4205C163.281 63.2397 163.619 62.2277 164.293 61.3843C164.968 60.5409 165.811 60.2036 166.992 60.2036C167.835 60.2036 168.679 60.541 169.185 61.047C169.86 61.553 170.028 62.2277 170.197 63.071C169.86 63.071 169.354 63.2397 168.679 63.071H167.329C167.161 63.071 166.486 63.071 165.137 63.071C165.137 63.4084 164.968 63.9144 164.968 64.2518C164.968 65.4325 165.137 66.4445 165.643 67.1192C166.149 67.7939 166.823 68.1313 167.667 68.1313C168.173 68.1313 168.51 67.9626 168.847 67.7939C169.185 67.6253 169.522 67.1192 169.86 66.4445C170.028 66.2758 170.197 66.1072 170.366 66.2758C170.366 66.1072 170.366 66.2758 170.366 66.2758ZM168.679 62.565C168.679 61.047 168.173 60.3722 167.161 60.3722C166.149 60.3722 165.474 61.047 165.305 62.565H168.679Z" fill="black"/>
<path d="M180.144 61.8857C180.144 62.3917 179.807 62.729 179.301 62.729C178.795 62.729 178.457 62.3917 178.457 61.8857C178.457 61.717 178.457 61.5483 178.626 61.2109C178.626 61.0423 178.626 61.0423 178.626 60.8736C178.626 60.7049 178.457 60.3676 178.289 60.1989C178.12 60.0302 177.783 60.0302 177.277 60.0302C176.602 60.0302 175.927 60.3676 175.59 61.0423C175.253 61.717 174.915 62.5603 174.915 63.741C174.915 65.0904 175.084 66.1025 175.59 66.7772C175.927 67.4519 176.602 67.7892 177.445 67.7892C177.951 67.7892 178.457 67.6205 178.795 67.2832C178.963 67.1145 179.301 66.7772 179.469 66.4398L179.638 66.2711C179.807 66.2711 179.807 66.2712 179.807 66.4398C179.807 66.6085 179.638 66.9458 179.132 67.2832C178.626 67.7892 177.783 68.1266 176.939 68.1266C175.927 68.1266 174.915 67.7892 174.241 66.9459C173.566 66.1025 173.229 65.2591 173.229 64.0784C173.229 62.729 173.566 61.717 174.409 60.8736C175.084 60.0302 176.096 59.6929 177.277 59.6929C177.951 59.6929 178.626 59.8616 179.301 60.1989C179.975 60.8736 180.144 61.3796 180.144 61.8857Z" fill="black"/>
<path d="M188.071 67.2789C188.071 67.4476 187.903 67.6162 187.565 67.9536C187.059 68.4596 186.385 68.6283 185.71 68.6283C185.035 68.6283 184.529 68.4596 184.192 68.1223C184.023 67.9536 183.855 67.2789 183.855 66.4355V60.8693C183.855 60.7006 183.855 60.7006 183.686 60.7006H183.011C182.674 60.7006 182.674 60.7006 182.674 60.532C182.674 60.3633 182.674 60.3633 182.843 60.3633C183.855 60.1946 184.529 59.8573 185.035 59.0139C185.035 58.8452 185.204 58.8452 185.373 58.8452C185.373 58.8452 185.541 58.8452 185.541 59.0139V59.3513C185.541 59.8573 185.541 60.1946 185.541 60.3633C185.71 60.3633 185.879 60.3633 186.047 60.3633C186.722 60.3633 187.228 60.3633 187.397 60.1946H187.565C187.734 60.1946 187.734 60.1946 187.734 60.3633C187.734 60.5319 187.228 60.7006 186.216 60.7006H185.373V64.0741C185.373 65.7609 185.373 66.9416 185.541 67.2789C185.71 67.7849 185.879 67.9536 186.385 67.9536C186.722 67.9536 187.228 67.7849 187.734 67.2789C187.903 67.1102 187.903 67.1102 188.071 67.2789C188.071 67.1102 188.071 67.1102 188.071 67.2789Z" fill="black"/>
<path d="M195.997 65.9287C195.997 66.6034 195.66 67.2781 195.154 67.7841C194.648 68.2902 193.973 68.4588 193.298 68.4588C192.961 68.4588 192.455 68.2901 191.78 67.9528C191.612 67.7841 191.443 67.7841 191.274 67.7841C191.106 67.7841 190.937 67.9528 190.937 68.1215C190.937 68.2901 190.768 68.2901 190.768 68.2901C190.768 68.2901 190.6 68.2901 190.6 68.1215V67.9528V66.9408V66.6034V66.0974V65.9287C190.6 65.76 190.6 65.76 190.768 65.76C190.937 65.76 190.937 65.76 190.937 65.9287C190.937 66.4347 191.106 66.9407 191.443 67.2781C191.949 67.9528 192.624 68.2901 193.467 68.2901C193.973 68.2901 194.31 68.1214 194.479 67.9528C194.816 67.6154 194.816 67.2781 194.816 66.9408C194.816 66.4347 194.648 66.0974 194.31 65.76C194.142 65.5914 193.973 65.4227 193.804 65.4227C193.636 65.4227 193.298 65.254 192.624 64.9167C191.274 64.4106 190.6 63.5673 190.6 62.5552C190.6 61.8805 190.768 61.2058 191.274 60.8685C191.78 60.3625 192.286 60.1938 192.961 60.1938C193.13 60.1938 193.636 60.1938 194.142 60.3624C194.31 60.3624 194.31 60.3624 194.479 60.3624C194.816 60.3624 194.816 60.1938 194.985 60.0251C194.985 59.8565 195.154 59.8564 195.154 59.8564C195.322 59.8564 195.322 59.8565 195.322 60.0251V60.1938V61.0372C195.322 61.3745 195.322 61.8805 195.491 62.3866C195.491 62.5552 195.491 62.5552 195.322 62.5552C195.322 62.5552 195.154 62.3865 194.985 62.0492C194.816 61.5432 194.648 61.2059 194.31 61.0372C193.973 60.6998 193.636 60.6998 193.13 60.6998C192.792 60.6998 192.286 60.8685 192.118 61.0372C191.78 61.3745 191.78 61.5432 191.78 62.0492C191.78 62.7239 192.118 63.0613 192.961 63.3986C194.31 63.9046 194.985 64.4106 195.491 64.748C195.828 64.748 195.997 65.254 195.997 65.9287Z" fill="black"/>
<path d="M212.359 64.2466C212.359 65.4273 212.021 66.4394 211.347 67.2827C210.672 68.1261 209.66 68.4635 208.648 68.4635C207.467 68.4635 206.624 68.1261 205.78 67.2827C205.106 66.4394 204.6 65.4273 204.6 64.2466C204.6 63.0659 204.937 62.0538 205.78 61.2105C206.455 60.3671 207.467 60.0298 208.479 60.0298C209.66 60.0298 210.503 60.3671 211.347 61.2105C212.021 62.0538 212.359 63.0659 212.359 64.2466ZM210.672 64.2466C210.672 62.8972 210.503 61.8852 209.997 61.0418C209.66 60.5358 209.154 60.1985 208.479 60.1985C207.804 60.1985 207.298 60.5358 206.792 61.2105C206.286 61.8852 206.286 62.8972 206.286 64.2466C206.286 65.4273 206.455 66.4394 206.961 67.1141C207.298 67.7888 207.973 68.1261 208.648 68.1261C209.154 68.1261 209.66 67.9574 209.829 67.4514C210.503 66.7767 210.672 65.7647 210.672 64.2466Z" fill="black"/>
<path d="M221.804 56.6562C221.804 56.9936 221.804 57.1622 221.635 57.3309C221.466 57.4996 221.298 57.4996 220.96 57.4996C220.792 57.4996 220.454 57.4996 220.285 57.3309C220.117 57.1622 220.117 56.9936 220.117 56.8249C220.117 56.6562 220.117 56.4875 220.285 56.1502V55.9816C220.285 55.6442 220.117 55.4755 219.611 55.4755C218.936 55.4755 218.43 55.9816 218.261 56.8249C218.093 57.3309 218.093 58.1743 218.093 59.355V60.1984H219.273C219.442 60.1984 219.611 60.1984 219.611 60.367C219.611 60.5357 219.442 60.5357 219.105 60.5357H217.924V67.7887C217.924 67.9574 218.093 68.126 218.43 68.126C218.936 68.126 219.273 68.126 219.273 68.126C219.273 68.2947 219.273 68.2947 219.105 68.2947H218.936H217.418H215.394C215.225 68.2947 215.057 68.2947 215.057 68.126C215.057 67.9574 215.225 67.9574 215.394 67.9574C216.069 67.9574 216.406 67.9574 216.406 67.7887C216.406 67.7887 216.406 67.7887 216.406 67.62V67.4514V60.367C215.9 60.367 215.731 60.367 215.563 60.367C215.563 60.367 215.394 60.3671 215.394 60.1984C215.394 60.0297 215.563 60.0297 215.731 60.0297H216.406C216.406 58.5116 216.743 57.3309 217.081 56.6562C217.587 55.6442 218.43 55.1382 219.611 55.1382C220.117 55.1382 220.623 55.3068 220.96 55.4755C221.635 55.8128 221.804 56.1502 221.804 56.6562Z" fill="black"/>
<path d="M239.507 68.1209C239.507 68.2896 239.338 68.2896 239.169 68.2896C239.001 68.2896 239.001 68.2896 238.832 68.2896H236.471H234.109C233.94 68.2896 233.94 68.2896 233.772 68.2896C233.603 68.2896 233.434 68.2896 233.434 68.1209C233.434 67.9522 233.603 67.9522 233.94 67.9522C234.952 67.9522 235.627 67.7836 235.627 67.6149C235.627 67.6149 235.627 67.6149 235.627 67.4462L235.459 66.9402L235.29 66.6028C235.121 66.2655 234.953 65.4221 234.447 64.0727H230.398C229.724 66.0968 229.218 67.1089 229.218 67.4462C229.218 67.6149 229.218 67.7836 229.386 67.7836C229.386 67.7836 229.724 67.7836 230.23 67.7836C230.567 67.7836 230.736 67.7835 230.736 67.9522C230.736 68.1209 230.567 68.1209 230.23 68.1209C229.724 68.1209 229.049 68.1209 228.206 68.1209C228.037 68.1209 227.868 68.1209 227.7 68.1209C227.531 68.1209 227.362 68.1209 227.194 68.1209C227.025 68.1209 227.025 68.1209 227.025 68.1209C226.856 68.1209 226.688 68.1209 226.688 67.9522C226.688 67.7835 226.856 67.7836 227.194 67.7836C227.531 67.7836 227.868 67.7836 228.037 67.6149C228.206 67.4462 228.374 67.2776 228.374 66.9402C229.892 62.386 231.242 58.6752 232.254 55.9764C232.254 55.8077 232.422 55.639 232.422 55.4704V55.133C232.422 54.9644 232.591 54.9644 232.591 54.9644C232.591 54.9644 232.591 54.9644 232.76 55.133C232.928 55.6391 233.266 56.6511 233.772 58.1691C234.278 59.3499 235.29 62.386 237.145 67.2775C237.314 67.6149 237.314 67.7836 237.483 67.7836C237.651 67.7836 237.989 67.9522 238.495 67.9522C239.338 67.9522 239.507 68.1209 239.507 68.1209ZM234.447 63.7354C234.278 63.2293 233.94 62.2173 233.434 61.0366L232.591 58.5065C232.085 59.8559 231.41 61.7113 230.736 63.904H234.447V63.7354Z" fill="black"/>
<path d="M246.93 61.2058C246.93 61.5432 246.762 61.7119 246.593 61.8806C246.424 62.0492 246.256 62.2179 245.918 62.2179C245.75 62.2179 245.581 62.2179 245.412 62.0492C245.244 61.8805 245.244 61.7119 245.244 61.5432C245.244 61.3745 245.244 61.2059 245.412 61.0372C245.581 60.8685 245.581 60.8685 245.581 60.6998C245.581 60.5311 245.412 60.3624 245.244 60.3624C244.906 60.3624 244.569 60.5312 244.4 61.0372C244.063 61.5432 243.894 62.5552 243.894 63.9046V67.6155C243.894 67.7841 243.894 67.7841 244.063 67.9528C244.232 67.9528 244.569 67.9528 245.075 67.9528C245.244 67.9528 245.244 67.9528 245.244 68.1215C245.244 68.2901 245.244 68.2901 245.075 68.2901H244.232H242.882H242.039H241.364C241.195 68.2901 241.027 68.2901 241.027 68.1215C241.027 67.9528 241.027 67.9528 241.196 67.9528H241.533C241.87 67.9528 242.208 67.9528 242.208 67.7841C242.208 67.7841 242.208 67.4467 242.208 67.1094V62.0492C242.208 61.3745 242.039 61.0372 241.87 60.8685C241.702 60.6998 241.364 60.6998 240.858 60.6998C240.689 60.6998 240.689 60.6998 240.689 60.5311C240.689 60.3625 240.689 60.3624 240.858 60.3624H241.027C241.195 60.3624 241.364 60.3624 241.533 60.3624C241.701 60.3624 241.87 60.3624 241.702 60.3624C242.208 60.3624 242.714 60.1938 243.22 60.0251L243.388 59.8564H243.557C243.557 60.1938 243.557 60.5311 243.557 60.6998V61.0372C243.894 60.1938 244.569 59.8564 245.244 59.8564C245.581 59.8564 245.918 60.0251 246.256 60.1938C246.593 60.3625 246.93 60.8685 246.93 61.2058Z" fill="black"/>
<path d="M254.532 67.2789C254.532 67.4476 254.364 67.6162 254.026 67.9536C253.52 68.4596 252.846 68.6283 252.171 68.6283C251.496 68.6283 250.99 68.4596 250.653 68.1223C250.484 67.9536 250.316 67.2789 250.316 66.4355V60.8693C250.316 60.7006 250.315 60.7006 250.147 60.7006H249.472C249.135 60.7006 249.135 60.7006 249.135 60.532C249.135 60.3633 249.135 60.3633 249.303 60.3633C250.315 60.1946 250.99 59.8573 251.496 59.0139C251.496 58.8452 251.665 58.8452 251.834 58.8452C251.834 58.8452 252.002 58.8452 252.002 59.0139V59.3513C252.002 59.8573 252.002 60.1946 252.002 60.3633C252.171 60.3633 252.34 60.3633 252.508 60.3633C253.183 60.3633 253.689 60.3633 253.858 60.1946H254.026C254.195 60.1946 254.195 60.1946 254.195 60.3633C254.195 60.5319 253.689 60.7006 252.677 60.7006H251.834V64.0741C251.834 65.7609 251.834 66.9416 252.002 67.2789C252.171 67.7849 252.34 67.9536 252.846 67.9536C253.183 67.9536 253.689 67.7849 254.195 67.2789C254.364 67.1102 254.364 67.1102 254.532 67.2789C254.532 67.1102 254.532 67.1102 254.532 67.2789Z" fill="black"/>
</svg>
