<svg width="213" height="95" viewBox="0 0 213 95" fill="none" xmlns="http://www.w3.org/2000/svg">
<g clip-path="url(#clip0_33_805)">
<path d="M53.504 44.9744C53.504 45.3334 53.1824 45.5128 52.5394 45.5128C52.154 45.5406 51.7672 45.5406 51.3818 45.5128L43.2147 45.2564L35.0477 45.5128C34.7267 45.54 34.404 45.54 34.083 45.5128C33.2213 45.5128 32.7969 45.2949 32.7969 44.8462C32.7969 44.3975 33.3757 44.1026 34.5332 44.1026C38.3016 44.1026 40.1923 43.6923 40.1923 42.9743C40.1628 42.8045 40.1198 42.6373 40.0636 42.4744L39.5364 40.7821L39.2019 39.8846C38.8161 38.6026 37.9158 35.6282 36.3724 31.0897H22.6363C20.064 37.9274 18.7778 41.859 18.7778 42.8846C18.7464 43.1296 18.8082 43.3773 18.9511 43.5791C19.094 43.7808 19.3075 43.9219 19.5495 43.9744C19.6781 43.9744 20.7456 44.1026 22.7649 44.2308C24.0511 44.2308 24.6298 44.4872 24.6298 44.8718C24.6298 45.2564 24.0768 45.5128 22.9578 45.5128C20.99 45.5128 18.6878 45.4359 16.0769 45.2564C15.4338 45.2564 14.7907 45.1923 14.0834 45.1923C13.4129 45.193 12.7445 45.2661 12.0898 45.4103C11.8146 45.4686 11.5349 45.5029 11.2538 45.5128C10.6493 45.5128 10.3535 45.3205 10.3535 44.9359C10.3535 44.5513 11.0223 44.3334 12.3727 44.2949C13.3862 44.334 14.3936 44.1226 15.3052 43.6795C16.0089 43.1707 16.51 42.4307 16.72 41.5897C22.2418 25.812 26.7305 13.141 30.186 3.57693C30.317 2.98612 30.52 2.41348 30.7905 1.87178L31.0606 0.705152C31.1892 0.243613 31.3564 0 31.5751 0C31.7937 0 31.8066 0.128229 31.8966 0.384639C32.4496 2.05131 33.7229 5.51284 35.6907 10.8333C37.2341 14.9872 41.0712 25.3932 47.2018 42.0513C47.3817 42.8063 47.841 43.4657 48.488 43.8974C49.5565 44.2522 50.6811 44.4087 51.8062 44.359C52.9509 44.4359 53.504 44.6026 53.504 44.9744ZM36.0766 29.5898L32.5654 20.0769L29.4657 11.1923C27.6651 15.9274 25.4915 22.0727 22.9449 29.6282L36.0766 29.5898Z" fill="#fff"/>
<path d="M88.8094 43.4615C88.8094 45.2564 87.3046 46.1538 84.3079 46.1538C82.7502 46.1955 81.2084 45.8334 79.8332 45.1031C78.458 44.3727 77.2965 43.2991 76.4623 41.9872C75.7193 40.9439 75.1824 39.7692 74.8803 38.5257C74.6488 37.4231 74.2973 34.6026 73.8257 30.0641C73.5685 27.3376 72.6896 25.406 71.1891 24.2692C69.6843 23.1282 67.2406 22.5256 63.858 22.4359V42.6282C63.858 43.4872 64.5397 44.0256 65.9158 44.2308C66.3017 44.2308 67.292 44.3205 68.874 44.359C69.4271 44.359 69.71 44.5385 69.71 44.8718C69.71 45.2051 69.3499 45.4487 68.6168 45.4487H53.5045C52.5656 45.4487 52.0897 45.2564 52.0897 44.8718C52.0897 44.4872 52.7071 44.4103 53.9546 44.359C55.9782 44.359 57.0714 44.1026 57.2343 43.5897C57.4884 42.7823 57.576 41.9319 57.4915 41.0898V5.70514C57.4915 4.00001 57.3115 2.97438 56.9385 2.62822C55.9073 2.1477 54.7667 1.9486 53.6331 2.05128C52.5656 2.05128 52.0254 1.85896 52.0254 1.47434C52.0254 1.08973 52.3726 0.833319 53.0543 0.833319C53.2484 0.842354 53.4417 0.863789 53.6331 0.897445L62.186 1.08975C63.0477 1.08975 64.2438 1.08975 65.7872 1.01283C67.3306 0.935902 68.7068 0.833319 69.3885 0.833319C72.7574 0.649044 76.0922 1.58721 78.8674 3.50001C79.9967 4.3255 80.9068 5.41325 81.5187 6.66887C82.1306 7.92448 82.4258 9.31 82.3786 10.7051C82.4027 12.1352 82.0894 13.5508 81.4638 14.838C80.8383 16.1252 79.9181 17.2478 78.7774 18.1154C75.9414 20.2156 72.5332 21.4092 69.0026 21.5385C68.6168 21.5385 68.3981 21.6539 68.3595 21.7308C68.3209 21.8077 68.5782 21.9872 69.0026 21.9872C73.5041 22.7564 76.5995 24.3333 78.2886 26.7179C79.9778 29.1026 81.1053 33.3974 81.6712 39.6026C82.0142 43.1154 83.2146 44.8718 85.2725 44.8718C85.9156 44.8718 86.2371 44.7436 86.2371 44.4872C86.229 44.439 86.2066 44.3943 86.1728 44.359C85.984 44.0017 85.8743 43.6083 85.8512 43.2051C85.8512 42.3077 86.3271 41.859 87.266 41.859C88.2049 41.859 88.8094 42.3974 88.8094 43.4615ZM75.4977 11.3462C75.4977 5.24359 72.8396 2.18804 67.5235 2.1795C66.5231 2.08597 65.5171 2.28651 64.6297 2.7564C64.3485 3.01387 64.1321 3.33377 63.998 3.69016C63.8639 4.04654 63.816 4.42938 63.858 4.80769V21.0898C67.9737 21.0898 70.9447 20.3846 72.7582 18.8462C74.5717 17.3077 75.4977 14.8077 75.4977 11.3462Z" fill="#fff"/>
<path d="M125.169 12.3077C125.169 12.8718 124.912 13.141 124.397 13.141C123.883 13.141 123.523 12.5898 123.304 11.4744C123.214 10.7052 123.137 9.9359 123.047 9.16667C122.804 7.78233 122.302 6.45586 121.568 5.25643C121.061 4.52025 120.404 3.89958 119.639 3.43547C118.874 2.97136 118.019 2.67437 117.13 2.56411C116.074 2.33521 114.996 2.22767 113.915 2.2436L110.25 2.37181V41.0898C110.25 42.6282 110.661 43.5898 111.471 43.9744C112.644 44.2902 113.859 44.4199 115.073 44.359C115.587 44.359 115.844 44.5898 115.844 44.9103C115.844 45.2308 115.497 45.4487 114.815 45.4487C114.514 45.4563 114.212 45.4348 113.915 45.3846C111.343 45.3077 109.516 45.2564 108.449 45.2564C107.034 45.2564 105.709 45.2564 104.462 45.359C103.214 45.4616 101.632 45.4487 99.7031 45.4487C98.7128 45.4487 98.224 45.2821 98.224 44.9359C98.224 44.5898 99.1501 44.3334 100.989 44.2949C102.275 44.2949 103.176 44.0128 103.562 43.4615C103.855 42.6183 103.965 41.7222 103.883 40.8334V2.37181C101.23 2.26053 98.5734 2.47583 95.9732 3.01284C93.2723 3.99574 91.6861 6.62394 91.2145 10.8974C91.0859 12.1795 90.79 12.8205 90.3142 12.8205C89.8383 12.8205 89.5425 12.3718 89.5425 11.5385C89.5385 11.0676 89.56 10.5968 89.6068 10.1282L89.7354 8.65386C89.864 6.68804 90.0569 4.10259 90.3142 0.897461H93.208L106.327 1.08976C107.87 1.08976 110.275 1.08976 113.529 1.08976L124.204 0.897461C124.281 3.29917 124.56 6.84616 125.04 11.5385C125.047 11.7025 125.068 11.8656 125.105 12.0257C125.169 12.1539 125.169 12.2692 125.169 12.3077Z" fill="#fff"/>
<path d="M161.733 40.3201C161.733 41.4355 161.669 43.2688 161.541 45.8329H160.833C160.576 45.8329 159.959 45.8329 158.968 45.7047C157.978 45.5765 156.872 45.5765 155.637 45.5765L128.937 45.3842C128.203 45.3842 127.843 45.1919 127.843 44.8073C127.843 44.4226 128.422 44.3201 129.58 44.2303C130.582 44.2847 131.583 44.1001 132.499 43.6919C132.821 43.4098 132.988 42.6149 132.988 41.2816V5.25596C132.988 3.67904 132.821 2.75597 132.499 2.49956C131.383 2.12425 130.197 1.99733 129.027 2.12775C128.216 2.12775 127.805 1.897 127.805 1.42264C127.805 0.948283 128.062 0.845703 128.576 0.845703H129.155C130.57 0.973908 133.378 1.038 137.579 1.038C137.965 1.038 138.711 1.03799 139.83 0.94825C140.949 0.858506 141.862 0.845703 142.595 0.845703H143.303C144.075 0.845703 144.46 1.06365 144.46 1.48673C144.472 1.59808 144.442 1.70978 144.375 1.79993C144.308 1.89007 144.21 1.95214 144.1 1.97391C143.368 2.07941 142.628 2.13082 141.888 2.12775C140.602 2.12775 139.907 2.37136 139.663 2.74315C139.333 3.83045 139.215 4.97063 139.316 6.10212V43.9226C140.473 43.9226 142.081 43.9867 144.139 43.9867C147.695 44.0875 151.253 43.8081 154.75 43.1534C155.616 43.0065 156.439 42.6721 157.161 42.1737C157.883 41.6753 158.487 41.025 158.93 40.2688C159.746 38.4749 160.183 36.5331 160.216 34.5636C160.216 34.0124 160.499 33.7303 160.949 33.7303C161.399 33.7303 161.733 34.0508 161.695 34.6918V40.2688L161.733 40.3201Z" fill="#fff"/>
<path d="M198.48 35.0643C198.48 35.2438 198.48 36.2823 198.351 38.2054C198.222 40.1284 198.222 41.9746 198.222 43.7182V45.8335C194.021 45.5771 185.704 45.4489 173.271 45.4489H165.233C164.409 45.4489 164.011 45.2823 164.011 44.9361C164.011 44.59 164.139 44.5771 164.397 44.5387L166.84 44.3592C167.946 44.2823 168.628 44.0387 168.86 43.6541C169.19 42.6817 169.313 41.651 169.22 40.6284V4.50022C169.22 3.21817 169.04 2.51303 168.667 2.28226C167.535 1.93617 166.347 1.81422 165.168 1.92329C164.474 1.92329 164.139 1.74382 164.139 1.38485C164.139 1.02587 164.615 0.833535 165.554 0.833535H192.821C194.005 0.845044 195.188 0.759307 196.358 0.577148C196.448 2.4233 196.628 4.96174 196.936 8.20533L197.194 10.9618C197.239 11.2372 197.26 11.516 197.258 11.7951C197.258 12.231 197.065 12.4361 196.679 12.4361C196.293 12.4361 195.869 11.8976 195.65 10.8207C194.84 6.97457 193.502 4.5002 191.663 3.47456C190.283 2.68823 186.681 2.29938 180.859 2.30793H175.586V21.1541H177.129C181.927 21.1541 184.846 20.7951 185.901 20.0643C186.956 19.3335 187.676 17.231 188.062 13.7182C188.152 12.8207 188.383 12.372 188.769 12.372C189.155 12.372 189.477 12.7566 189.477 13.5259C189.477 14.2951 189.477 15.4361 189.348 16.9233C189.219 18.4105 189.219 19.4874 189.219 20.3207C189.219 24.8934 189.288 28.0344 189.425 29.7438C189.425 30.1797 189.425 30.5387 189.425 30.8336C189.425 31.3977 189.194 31.6669 188.718 31.6669C188.242 31.6669 188.216 31.4874 188.113 31.1284C188.01 30.7694 187.817 29.5771 187.573 27.5643C187.23 25.0515 186.184 23.4917 184.435 22.8848C182.45 22.5298 180.43 22.4007 178.416 22.5002H175.535V43.9746C184.966 43.9746 190.497 43.7866 192.126 43.4105C194.956 42.7695 196.563 40.0771 196.949 35.3079C197.039 34.2438 197.309 33.7182 197.785 33.7182C198.261 33.7182 198.48 34.1797 198.48 35.0643Z" fill="#fff"/>
<path d="M38.3404 71.5767C38.3404 71.6664 38.2504 71.7177 38.0832 71.7177H37.7102H36.9385H35.3308C35.2721 71.7355 35.2095 71.7355 35.1508 71.7177C35.035 71.7177 34.9836 71.7177 34.9836 71.6023C34.9836 71.4869 35.0865 71.4356 35.2922 71.4356C35.5053 71.4517 35.7195 71.4255 35.9224 71.3587C35.9842 71.151 36.0061 70.9335 35.9868 70.7177V66.051C35.9974 65.9016 35.9974 65.7517 35.9868 65.6023C35.9868 65.6023 35.8968 65.5254 35.7939 65.5254H35.1379C35.0222 65.5254 34.9707 65.5254 34.9707 65.4228C34.9707 65.3203 35.0479 65.3203 35.2279 65.3203C35.8424 65.3046 36.4434 65.1372 36.9771 64.8331L37.1314 64.7433C37.2273 65.0146 37.2667 65.3025 37.2472 65.5895V70.5382C37.2335 70.7773 37.2335 71.0171 37.2472 71.2562C37.2472 71.3203 37.3115 71.3715 37.4144 71.3972C37.6366 71.4222 37.861 71.4222 38.0832 71.3972C38.2761 71.4485 38.3404 71.4998 38.3404 71.5767ZM37.1829 61.9869C37.1956 62.0808 37.1864 62.1764 37.156 62.2662C37.1256 62.356 37.0749 62.4376 37.0076 62.5046C36.9404 62.5716 36.8586 62.6222 36.7685 62.6525C36.6785 62.6828 36.5826 62.692 36.4884 62.6793C36.3981 62.6817 36.3083 62.666 36.2243 62.6329C36.1403 62.5999 36.0639 62.5502 35.9997 62.4869C35.9332 62.43 35.8802 62.3591 35.8447 62.2792C35.8091 62.1994 35.7917 62.1127 35.7939 62.0254C35.7939 61.5382 36.0253 61.2946 36.4884 61.2946C36.5826 61.2819 36.6785 61.2911 36.7685 61.3214C36.8586 61.3517 36.9404 61.4023 37.0076 61.4693C37.0749 61.5363 37.1256 61.6179 37.156 61.7077C37.1864 61.7974 37.1956 61.893 37.1829 61.9869Z" fill="#fff"/>
<path d="M48.0638 71.5893C48.0638 71.6662 47.9867 71.7046 47.8323 71.7046H44.9899C44.8613 71.7046 44.797 71.6662 44.797 71.5893C44.7968 71.5675 44.8045 71.5465 44.8187 71.5299C44.8329 71.5134 44.8526 71.5026 44.8742 71.4995C45.0754 71.4854 45.2774 71.4854 45.4787 71.4995C45.6716 71.4995 45.7873 71.4995 45.8131 71.4098C45.8407 71.2443 45.8407 71.0753 45.8131 70.9098V67.9611C45.8469 67.296 45.8038 66.6291 45.6845 65.9739C45.6109 65.7581 45.4672 65.5728 45.2762 65.4475C45.0852 65.3221 44.8578 65.2638 44.6298 65.2816C44.3773 65.2803 44.1282 65.3404 43.9041 65.4565C43.68 65.5727 43.4877 65.7414 43.3437 65.9482C43.2323 66.1146 43.1781 66.3126 43.1893 66.5123V71.2944C43.1893 71.4226 43.2922 71.4867 43.5109 71.4995H43.9867C44.0896 71.4995 44.1411 71.4995 44.1411 71.6021C44.1411 71.7047 44.0768 71.7175 43.961 71.7175H41.1444C40.99 71.7175 40.9128 71.7175 40.9128 71.6149C40.9128 71.5124 41.0029 71.5123 41.1958 71.4995H41.5816C41.736 71.4995 41.826 71.4611 41.8517 71.3841V71.1534V67.82C41.8517 66.6534 41.8517 65.9995 41.8517 65.8842C41.8517 65.7688 41.6974 65.6918 41.4659 65.6918H41.0157C40.81 65.6918 40.707 65.6534 40.707 65.5764C40.707 65.4867 40.8099 65.4354 41.0286 65.4354C41.3684 65.4197 41.7052 65.3637 42.0318 65.2688C42.3286 65.2317 42.6115 65.1216 42.8549 64.9482C42.9137 64.8876 42.9903 64.8472 43.0736 64.8329C43.1379 64.8329 43.1765 64.9226 43.1765 65.1149V65.8585C43.413 65.5337 43.7248 65.2707 44.0854 65.0921C44.446 64.9135 44.8446 64.8246 45.2472 64.8329C45.5634 64.8096 45.8801 64.8724 46.1633 65.0147C46.4464 65.1569 46.6855 65.3733 46.8548 65.6406C47.0812 66.197 47.1737 66.7985 47.125 67.397V70.9098C47.0867 71.0872 47.0867 71.2708 47.125 71.4483C47.2624 71.523 47.4194 71.5543 47.5751 71.538H47.8452C47.9995 71.4867 48.0638 71.5123 48.0638 71.5893Z" fill="#fff"/>
<path d="M61.8123 70.9749C61.8123 71.1543 61.6323 71.3338 61.2721 71.5261C60.9493 71.7055 60.587 71.8024 60.2175 71.8082C60.0694 71.8241 59.9197 71.8069 59.7791 71.758C59.6386 71.709 59.5107 71.6295 59.4048 71.5251C59.2989 71.4208 59.2176 71.2943 59.1669 71.1547C59.1161 71.0152 59.0972 70.8662 59.1114 70.7184C58.9577 71.0672 58.7029 71.3622 58.3797 71.5655C58.0566 71.7688 57.6799 71.8712 57.2979 71.8595C56.9001 71.8696 56.5135 71.7273 56.2176 71.462C56.0737 71.3362 55.9597 71.1801 55.8841 71.0049C55.8084 70.8296 55.7729 70.6398 55.7802 70.4492C55.8047 70.0031 55.9622 69.5744 56.2326 69.2181C56.503 68.8618 56.8739 68.5941 57.2979 68.4492C57.8804 68.2277 58.4836 68.0645 59.0985 67.962V67.5774C59.1322 66.9797 59.0845 66.3803 58.957 65.7954C58.8991 65.5535 58.755 65.3408 58.5515 65.197C58.3481 65.0531 58.0991 64.9878 57.851 65.0133C57.5272 65.0008 57.209 65.1004 56.9506 65.2953C56.8368 65.3829 56.745 65.4957 56.6825 65.6248C56.62 65.7538 56.5885 65.8956 56.5905 66.0389C56.5905 66.1159 56.5905 66.1672 56.7706 66.1672C56.8387 66.1671 56.9057 66.1834 56.9662 66.2146C57.0266 66.2459 57.0786 66.2911 57.1178 66.3466C57.2079 66.4647 57.2575 66.6086 57.2593 66.7569C57.2745 66.8484 57.2677 66.9422 57.2397 67.0306C57.2116 67.119 57.163 67.1996 57.0979 67.2658C57.0327 67.332 56.9528 67.3819 56.8647 67.4116C56.7765 67.4412 56.6826 67.4497 56.5905 67.4364C56.4833 67.4394 56.3767 67.4204 56.2772 67.3807C56.1776 67.3411 56.0873 67.2815 56.0118 67.2056C55.857 67.0385 55.7739 66.8176 55.7802 66.5902C55.7745 66.347 55.8235 66.1056 55.9237 65.8837C56.0238 65.6619 56.1726 65.4652 56.359 65.3082C56.8475 64.9027 57.474 64.7007 58.1082 64.7441C59.24 64.7441 59.9345 65.0518 60.1918 65.6671C60.3182 66.1216 60.366 66.5941 60.3332 67.0646V69.9364C60.3332 70.4108 60.3332 70.6928 60.3332 70.7697C60.3332 71.1415 60.539 71.321 60.7834 71.321C60.9169 71.3261 61.0499 71.3011 61.1724 71.2478C61.2949 71.1945 61.4037 71.1144 61.4908 71.0133C61.5937 70.8979 61.6708 70.8466 61.7223 70.8466C61.7737 70.8466 61.8123 70.9107 61.8123 70.9749ZM59.0985 69.3466V68.2184C58.5088 68.3239 57.9505 68.5606 57.4651 68.9107C57.302 69.0486 57.1731 69.2221 57.0883 69.4178C57.0035 69.6135 56.9652 69.8261 56.9764 70.0389C56.9624 70.3323 57.0587 70.6203 57.2465 70.8466C57.3346 70.9473 57.4433 71.028 57.5653 71.0833C57.6873 71.1386 57.8198 71.1672 57.9538 71.1672C58.1826 71.1568 58.4036 71.0813 58.5905 70.9495C58.7775 70.8176 58.9225 70.6351 59.0085 70.4235C59.0968 70.0718 59.1273 69.7081 59.0985 69.3466Z" fill="#fff"/>
<path d="M68.5776 69.7052C68.581 69.9899 68.5257 70.2722 68.4151 70.5346C68.3045 70.7971 68.1409 71.0341 67.9345 71.2309C67.5195 71.6372 66.96 71.8631 66.3783 71.8591C65.9273 71.8313 65.4881 71.7043 65.0922 71.4873C64.9811 71.4131 64.8525 71.3689 64.7192 71.3591C64.5777 71.3591 64.4748 71.4617 64.3976 71.654C64.3204 71.8463 64.3076 71.8463 64.2304 71.8463C64.1532 71.8463 64.1275 71.8463 64.1275 71.7181V69.654C64.1275 69.5386 64.1275 69.4873 64.2304 69.4873C64.3333 69.4873 64.359 69.4873 64.3719 69.654C64.4064 70.0538 64.5437 70.4379 64.7706 70.7693C64.9606 71.0282 65.2109 71.237 65.5 71.3777C65.789 71.5184 66.1082 71.5869 66.4297 71.577C66.5917 71.5864 66.754 71.5628 66.9065 71.5077C67.0591 71.4526 67.1988 71.3672 67.3172 71.2565C67.4334 71.1465 67.5246 71.0129 67.5845 70.8647C67.6444 70.7165 67.6717 70.5572 67.6645 70.3975C67.6708 70.2193 67.6397 70.0418 67.5732 69.8762C67.5068 69.7106 67.4065 69.5607 67.2786 69.436C67.1605 69.3227 67.0261 69.2277 66.8799 69.154C66.7641 69.0898 66.4169 68.9616 65.8381 68.7437C64.6934 68.3078 64.1275 67.6668 64.1275 66.795C64.121 66.5271 64.1689 66.2606 64.2684 66.0117C64.3679 65.7627 64.5168 65.5364 64.7063 65.3463C64.8946 65.1577 65.1194 65.0094 65.3671 64.9102C65.6147 64.811 65.88 64.7631 66.1468 64.7693C66.4583 64.7841 66.7661 64.8446 67.06 64.9488C67.154 64.9592 67.2489 64.9592 67.3429 64.9488C67.436 64.9566 67.5285 64.9293 67.6023 64.8723C67.6761 64.8153 67.7259 64.7329 67.7416 64.6411C67.7416 64.5386 67.8188 64.4873 67.8831 64.4873C67.9474 64.4873 67.986 64.4873 67.986 64.6027V65.3463C67.9818 65.7408 68.0076 66.1351 68.0632 66.5258C68.0632 66.6027 68.0632 66.6411 67.9345 66.6411C67.8059 66.6411 67.8059 66.4873 67.703 66.1796C67.6047 65.8262 67.3978 65.5124 67.1114 65.2822C66.8376 65.054 66.4908 64.9311 66.1339 64.936C65.976 64.9286 65.8183 64.9532 65.6702 65.0083C65.5221 65.0634 65.3867 65.1478 65.2722 65.2565C65.159 65.3607 65.0694 65.4878 65.0095 65.6293C64.9496 65.7708 64.9208 65.9235 64.9249 66.077C64.9249 66.5899 65.2722 66.9873 65.9667 67.2437C66.6974 67.4805 67.384 67.8357 67.9988 68.295C68.1961 68.471 68.3507 68.6895 68.451 68.9338C68.5512 69.178 68.5945 69.4418 68.5776 69.7052Z" fill="#fff"/>
<path d="M76.2944 69.7052C76.2986 69.9911 76.2423 70.2747 76.1293 70.5376C76.0163 70.8004 75.849 71.0366 75.6385 71.2308C75.4338 71.4332 75.1909 71.5929 74.9237 71.7007C74.6565 71.8086 74.3705 71.8624 74.0822 71.859C73.6312 71.8313 73.192 71.7043 72.7961 71.4872C72.6904 71.4118 72.5657 71.3673 72.436 71.359C72.2945 71.359 72.1916 71.4616 72.1144 71.6539C72.0372 71.8462 72.0115 71.8462 71.9472 71.8462C71.8829 71.8462 71.8443 71.8462 71.8443 71.718V69.6539C71.8443 69.5385 71.8443 69.4872 71.9472 69.4872C72.0501 69.4872 72.0758 69.4873 72.0887 69.6539C72.1232 70.0537 72.2605 70.4379 72.4874 70.7693C72.6754 71.0271 72.9235 71.2354 73.2103 71.3761C73.4972 71.5168 73.8141 71.5858 74.1337 71.577C74.464 71.5894 74.7863 71.4747 75.034 71.2565C75.1479 71.1453 75.2366 71.0111 75.2943 70.863C75.352 70.7149 75.3772 70.5561 75.3684 70.3975C75.3747 70.2193 75.3436 70.0417 75.2772 69.8761C75.2108 69.7106 75.1104 69.5607 74.9826 69.436C74.8686 69.3234 74.7386 69.2284 74.5967 69.1539C74.4809 69.0898 74.1337 68.9616 73.5549 68.7436C72.4102 68.3077 71.8443 67.6667 71.8443 66.7949C71.8378 66.527 71.8857 66.2606 71.9852 66.0116C72.0847 65.7626 72.2336 65.5363 72.4231 65.3462C72.6109 65.1571 72.8357 65.0083 73.0834 64.9091C73.3312 64.8099 73.5967 64.7623 73.8636 64.7693C74.175 64.7852 74.4826 64.8456 74.7768 64.9488C74.8708 64.9599 74.9657 64.9599 75.0597 64.9488C75.1528 64.9565 75.2453 64.9292 75.3191 64.8722C75.3929 64.8153 75.4427 64.7328 75.4584 64.6411C75.4584 64.5385 75.5227 64.4873 75.587 64.4873C75.6027 64.4851 75.6187 64.4867 75.6337 64.4917C75.6487 64.4968 75.6624 64.5052 75.6736 64.5164C75.6848 64.5275 75.6933 64.5411 75.6983 64.5561C75.7034 64.571 75.7049 64.587 75.7028 64.6026V65.3462C75.6986 65.7407 75.7244 66.1351 75.78 66.5257C75.78 66.6026 75.78 66.6411 75.6513 66.6411C75.5227 66.6411 75.5099 66.4872 75.4198 66.1795C75.3215 65.8262 75.1145 65.5124 74.8282 65.2821C74.5533 65.0559 74.2072 64.9333 73.8507 64.9359C73.6909 64.929 73.5313 64.9538 73.3812 65.0088C73.2311 65.0638 73.0934 65.148 72.9762 65.2565C72.8672 65.3632 72.7812 65.4911 72.7237 65.6322C72.6662 65.7733 72.6383 65.9247 72.6417 66.077C72.6417 66.5898 72.989 66.9872 73.6707 67.2437C74.4049 67.4813 75.0956 67.8364 75.7156 68.2949C75.9129 68.471 76.0675 68.6894 76.1678 68.9337C76.268 69.178 76.3113 69.4418 76.2944 69.7052Z" fill="#fff"/>
<path d="M85.7354 68.3461C85.7838 69.2854 85.4606 70.2061 84.8351 70.9102C84.5519 71.2333 84.2016 71.4913 83.8086 71.6661C83.4155 71.841 82.989 71.9287 82.5586 71.923C82.1185 71.9303 81.682 71.8437 81.2783 71.669C80.8746 71.4944 80.513 71.2356 80.2178 70.9102C79.897 70.5673 79.6485 70.1636 79.4872 69.7231C79.326 69.2827 79.2551 68.8144 79.2789 68.3461C79.2394 67.4059 79.5667 66.487 80.1921 65.782C80.4761 65.4565 80.8284 65.1972 81.2239 65.0222C81.6195 64.8472 82.0487 64.7608 82.4814 64.7692C82.9198 64.7604 83.3549 64.8464 83.7568 65.0212C84.1586 65.1961 84.5177 65.4556 84.8094 65.782C85.4347 66.4877 85.766 67.405 85.7354 68.3461ZM84.3335 68.3461C84.3867 67.4395 84.2051 66.5344 83.8062 65.7179C83.6876 65.486 83.5011 65.2956 83.2713 65.1719C83.0416 65.0483 82.7795 64.9972 82.52 65.0256C82.2441 65.0387 81.9775 65.1285 81.7502 65.2848C81.5229 65.4411 81.344 65.6578 81.2338 65.9102C80.8658 66.6721 80.6977 67.5146 80.7451 68.3589C80.6977 69.1978 80.8752 70.0342 81.2596 70.782C81.3952 71.0459 81.6017 71.2672 81.856 71.4211C82.1104 71.575 82.4026 71.6556 82.7001 71.6538C82.9082 71.6671 83.1161 71.6241 83.3018 71.5293C83.4874 71.4345 83.6439 71.2915 83.7547 71.1153C84.2027 70.2594 84.4031 69.2962 84.3335 68.3333V68.3461Z" fill="#fff"/>
<path d="M94.4033 66.359C94.4183 66.4539 94.4108 66.5509 94.3814 66.6424C94.352 66.7338 94.3015 66.8171 94.234 66.8856C94.1665 66.9542 94.0839 67.006 93.9927 67.037C93.9015 67.068 93.8043 67.0773 93.7088 67.0641C93.2458 67.0641 93.0272 66.859 93.0272 66.4231C93.0456 66.2439 93.098 66.0699 93.1815 65.9103C93.1938 65.8424 93.1938 65.773 93.1815 65.7051C93.1806 65.6 93.1515 65.497 93.0972 65.4068C93.0429 65.3167 92.9655 65.2426 92.8729 65.1923C92.6308 65.0526 92.355 64.9816 92.0754 64.9872C91.7847 64.9806 91.4976 65.0521 91.2441 65.1942C90.9907 65.3363 90.7802 65.5438 90.6349 65.7949C90.2626 66.482 90.0889 67.2587 90.1333 68.0385C90.0736 68.9235 90.2512 69.8085 90.6478 70.6026C90.7903 70.873 91.0051 71.0988 91.2684 71.2549C91.5318 71.411 91.8334 71.4914 92.1397 71.4872C92.5598 71.4904 92.9683 71.3501 93.2973 71.0898C93.522 70.8791 93.7207 70.6424 93.8889 70.3846C93.9245 70.3419 93.9751 70.3144 94.0304 70.3077C94.1333 70.3077 94.1847 70.3461 94.1847 70.4231C94.1847 70.5641 94.0046 70.8077 93.6445 71.1795C93.4173 71.4194 93.1417 71.6087 92.8357 71.7347C92.5298 71.8606 92.2005 71.9205 91.8696 71.9102C91.4481 71.9185 91.0299 71.8357 90.6436 71.6675C90.2572 71.4993 89.9121 71.2497 89.6317 70.9359C89.031 70.2638 88.7132 69.3868 88.7443 68.4872C88.7224 67.5452 89.0576 66.6295 89.6832 65.9231C89.9758 65.5894 90.3381 65.3235 90.7447 65.1441C91.1513 64.9647 91.5923 64.8761 92.0368 64.8846C92.6134 64.8704 93.1801 65.0363 93.6574 65.359C93.8527 65.4543 94.0224 65.5947 94.1521 65.7687C94.2819 65.9427 94.368 66.1451 94.4033 66.359Z" fill="#fff"/>
<path d="M100.449 71.5767C100.449 71.6664 100.359 71.7177 100.192 71.7177H99.8188H99.0471H97.4394C97.3807 71.7355 97.318 71.7355 97.2593 71.7177C97.1436 71.7177 97.0793 71.7177 97.0793 71.6023C97.0793 71.4869 97.1822 71.4356 97.3879 71.4356C97.6053 71.4511 97.8235 71.425 98.031 71.3587C98.0677 71.1466 98.0677 70.9298 98.031 70.7177V66.051C98.0575 65.9026 98.0575 65.7507 98.031 65.6023C98.031 65.6023 97.9539 65.5254 97.8381 65.5254H97.2465C97.1307 65.5254 97.0664 65.5254 97.0664 65.4228C97.0664 65.3203 97.1565 65.3203 97.3237 65.3203C97.9422 65.3045 98.5474 65.1372 99.0857 64.8331L99.2271 64.7433C99.3354 65.0116 99.3795 65.3013 99.3558 65.5895V70.5382C99.3421 70.7773 99.3421 71.0171 99.3558 71.2562C99.3651 71.292 99.3847 71.3244 99.4121 71.3494C99.4395 71.3744 99.4735 71.391 99.5101 71.3972C99.7366 71.4221 99.9652 71.4221 100.192 71.3972C100.372 71.4485 100.449 71.4998 100.449 71.5767ZM99.2915 61.9869C99.3042 62.0808 99.295 62.1764 99.2646 62.2662C99.2342 62.356 99.1834 62.4376 99.1162 62.5046C99.049 62.5716 98.9672 62.6222 98.8771 62.6525C98.787 62.6828 98.6911 62.692 98.5969 62.6793C98.5067 62.6817 98.4168 62.666 98.3328 62.6329C98.2488 62.5999 98.1724 62.5502 98.1082 62.4869C98.0417 62.43 97.9888 62.3591 97.9532 62.2792C97.9176 62.1994 97.9003 62.1127 97.9024 62.0254C97.9024 61.5382 98.1339 61.2946 98.5969 61.2946C98.6911 61.2819 98.787 61.2911 98.8771 61.3214C98.9672 61.3517 99.049 61.4023 99.1162 61.4693C99.1834 61.5363 99.2342 61.6179 99.2646 61.7077C99.295 61.7974 99.3042 61.893 99.2915 61.9869Z" fill="#fff"/>
<path d="M109.31 70.9742C109.31 71.1537 109.13 71.3332 108.757 71.5255C108.439 71.7049 108.08 71.8018 107.715 71.8076C107.566 71.8259 107.416 71.8105 107.274 71.7624C107.132 71.7143 107.003 71.6349 106.897 71.53C106.79 71.4251 106.709 71.2976 106.659 71.1569C106.609 71.0162 106.592 70.8661 106.609 70.7178C106.452 71.0645 106.197 71.3575 105.874 71.5605C105.552 71.7634 105.177 71.8672 104.795 71.8589C104.393 71.871 104.002 71.7286 103.702 71.4614C103.561 71.3344 103.449 71.1777 103.376 71.0026C103.302 70.8274 103.269 70.6382 103.278 70.4486C103.303 70.0045 103.459 69.5777 103.727 69.2219C103.995 68.866 104.362 68.597 104.783 68.4486C105.369 68.2258 105.977 68.0626 106.596 67.9614V67.5768C106.623 66.9792 106.575 66.3807 106.455 65.7947C106.392 65.5532 106.244 65.3419 106.039 65.1986C105.834 65.0554 105.585 64.9894 105.336 65.0127C105.012 65.0002 104.694 65.0998 104.435 65.2947C104.321 65.3823 104.23 65.4951 104.167 65.6242C104.105 65.7532 104.073 65.895 104.075 66.0383C104.075 66.1153 104.075 66.1666 104.268 66.1666C104.334 66.1685 104.399 66.1858 104.457 66.2169C104.515 66.2481 104.565 66.2923 104.603 66.346C104.702 66.4599 104.756 66.6055 104.757 66.7563C104.77 66.8485 104.761 66.9424 104.731 67.0307C104.701 67.1189 104.652 67.1992 104.585 67.265C104.519 67.3308 104.439 67.3805 104.35 67.4101C104.262 67.4397 104.168 67.4485 104.075 67.4358C103.968 67.4388 103.861 67.4198 103.762 67.3801C103.662 67.3404 103.572 67.2809 103.496 67.205C103.345 67.0366 103.267 66.8154 103.278 66.5896C103.27 66.3473 103.316 66.1062 103.414 65.8843C103.512 65.6623 103.659 65.4652 103.844 65.3076C104.34 64.9081 104.968 64.7071 105.606 64.7435C106.738 64.7435 107.432 65.0512 107.689 65.6665C107.809 66.1222 107.857 66.5937 107.831 67.064V69.9358C107.831 70.4101 107.831 70.6922 107.831 70.7691C107.831 71.1409 108.024 71.3204 108.281 71.3204C108.414 71.3228 108.546 71.2966 108.668 71.2435C108.79 71.1904 108.9 71.1117 108.988 71.0127C109.091 70.8973 109.168 70.846 109.22 70.846C109.271 70.846 109.31 70.9101 109.31 70.9742ZM106.596 69.346V68.2178C106.002 68.321 105.439 68.5578 104.95 68.9101C104.789 69.0498 104.661 69.2237 104.577 69.4189C104.492 69.6142 104.453 69.8258 104.461 70.0383C104.445 70.3342 104.547 70.6243 104.744 70.846C104.831 70.948 104.94 71.0296 105.062 71.085C105.184 71.1404 105.317 71.1683 105.451 71.1665C105.678 71.1554 105.897 71.0793 106.082 70.9475C106.267 70.8156 106.409 70.6335 106.493 70.4229C106.589 70.0725 106.624 69.7082 106.596 69.346Z" fill="#fff"/>
<path d="M115.587 70.7566C115.587 70.8592 115.458 71.013 115.201 71.2566C114.775 71.6508 114.213 71.8666 113.632 71.8592C113.399 71.875 113.165 71.8446 112.945 71.7697C112.724 71.6949 112.52 71.5771 112.345 71.4232C112.178 71.2566 112.101 70.7823 112.101 69.9746V65.4104C112.101 65.3079 112.101 65.2438 111.934 65.2438H111.342C111.111 65.2438 111.008 65.2438 111.008 65.1284C111.008 65.013 111.008 65.013 111.175 65.013C111.56 64.9799 111.93 64.8541 112.255 64.6464C112.58 64.4387 112.849 64.1553 113.04 63.8207C113.064 63.7797 113.097 63.7454 113.138 63.7207C113.178 63.6961 113.224 63.682 113.271 63.6797C113.349 63.6797 113.374 63.6797 113.374 63.7951V64.1156C113.362 64.3949 113.384 64.6747 113.439 64.9489H113.902C114.281 64.9639 114.66 64.9381 115.033 64.872H115.136C115.226 64.872 115.265 64.872 115.265 65.0002C115.265 65.1284 114.841 65.231 113.979 65.231H113.336V68.0771C113.307 68.9762 113.345 69.8762 113.452 70.7694C113.461 70.8522 113.487 70.9322 113.528 71.0048C113.569 71.0775 113.624 71.1413 113.689 71.1926C113.755 71.2439 113.831 71.2817 113.911 71.3037C113.992 71.3257 114.076 71.3314 114.159 71.3207C114.598 71.2727 115.005 71.0677 115.304 70.7438C115.32 70.7209 115.341 70.702 115.365 70.6887C115.39 70.6753 115.417 70.6678 115.445 70.6668C115.445 70.6668 115.587 70.7053 115.587 70.7566Z" fill="#fff"/>
<path d="M121.13 71.5764C121.13 71.6661 121.04 71.7174 120.872 71.7174H120.499H119.728H118.12C118.061 71.7352 117.999 71.7352 117.94 71.7174C117.824 71.7174 117.76 71.7174 117.76 71.602C117.76 71.4866 117.863 71.4353 118.069 71.4353C118.286 71.4508 118.504 71.4246 118.712 71.3584C118.748 71.1463 118.748 70.9295 118.712 70.7174V66.0507C118.73 65.9017 118.73 65.7511 118.712 65.602C118.712 65.602 118.634 65.5251 118.519 65.5251H117.927C117.811 65.5251 117.747 65.5251 117.747 65.4225C117.747 65.32 117.837 65.32 118.004 65.32C118.623 65.3042 119.228 65.1369 119.766 64.8328L119.908 64.743C120.016 65.0113 120.06 65.301 120.036 65.5892V70.5379C120.016 70.7768 120.016 71.017 120.036 71.2559C120.046 71.2917 120.065 71.3241 120.093 71.3491C120.12 71.3741 120.154 71.3907 120.191 71.3969C120.417 71.4218 120.646 71.4218 120.872 71.3969C121.052 71.4482 121.13 71.4995 121.13 71.5764ZM119.972 61.9866C119.985 62.0805 119.976 62.1761 119.945 62.2659C119.915 62.3556 119.864 62.4372 119.797 62.5043C119.73 62.5713 119.648 62.6219 119.558 62.6522C119.468 62.6825 119.372 62.6916 119.278 62.6789C119.187 62.6814 119.097 62.6657 119.013 62.6326C118.929 62.5996 118.853 62.5499 118.789 62.4866C118.722 62.4297 118.669 62.3588 118.634 62.2789C118.598 62.1991 118.581 62.1124 118.583 62.0251C118.583 61.5379 118.815 61.2943 119.278 61.2943C119.376 61.2723 119.477 61.2745 119.574 61.3006C119.671 61.3268 119.76 61.3761 119.834 61.4443C119.907 61.5125 119.963 61.5976 119.996 61.6921C120.029 61.7866 120.039 61.8877 120.024 61.9866H119.972Z" fill="#fff"/>
<path d="M130.313 68.3462C130.358 69.2872 130.03 70.2081 129.4 70.9103C129.119 71.2331 128.771 71.491 128.38 71.6659C127.989 71.8408 127.564 71.9286 127.136 71.9231C126.694 71.9306 126.255 71.8441 125.85 71.6694C125.444 71.4948 125.08 71.236 124.782 70.9103C124.461 70.5673 124.213 70.1637 124.052 69.7232C123.89 69.2827 123.82 68.8145 123.843 68.3462C123.811 67.4069 124.137 66.4904 124.757 65.7821C125.049 65.4621 125.406 65.2066 125.803 65.0318C126.201 64.8569 126.631 64.7666 127.065 64.7666C127.5 64.7666 127.929 64.8569 128.327 65.0318C128.724 65.2066 129.081 65.4621 129.374 65.7821C130.008 66.4831 130.345 67.4024 130.313 68.3462ZM128.911 68.3462C128.957 67.44 128.776 66.5366 128.383 65.718C128.257 65.4928 128.069 65.3081 127.841 65.1855C127.614 65.0629 127.356 65.0074 127.097 65.0256C126.81 65.0266 126.53 65.1108 126.29 65.2679C126.05 65.4249 125.862 65.6481 125.747 65.9103C125.384 66.6739 125.216 67.5151 125.258 68.359C125.217 69.1974 125.394 70.0322 125.773 70.782C125.912 71.0461 126.121 71.267 126.377 71.4208C126.633 71.5745 126.927 71.6551 127.226 71.6539C127.432 71.6662 127.638 71.6226 127.821 71.5278C128.005 71.433 128.159 71.2905 128.268 71.1154C128.742 70.2674 128.965 69.3027 128.911 68.3334V68.3462Z" fill="#fff"/>
<path d="M140.358 71.5898C140.358 71.6667 140.281 71.7052 140.127 71.7052H137.284C137.156 71.7052 137.091 71.6667 137.091 71.5898C137.091 71.5681 137.099 71.547 137.113 71.5305C137.127 71.514 137.147 71.5032 137.169 71.5C137.366 71.4862 137.563 71.4862 137.76 71.5C137.966 71.5 138.069 71.5001 138.107 71.4103C138.132 71.2446 138.132 71.0761 138.107 70.9103V67.9616C138.142 67.297 138.104 66.6305 137.992 65.9744C137.918 65.7586 137.774 65.5734 137.583 65.448C137.393 65.3227 137.165 65.2643 136.937 65.2821C136.685 65.2841 136.437 65.3455 136.214 65.4614C135.99 65.5772 135.797 65.7443 135.651 65.9488C135.54 66.1152 135.485 66.3132 135.497 66.5129V71.295C135.497 71.4232 135.612 71.4872 135.831 71.5H136.307C136.41 71.5 136.461 71.5001 136.461 71.6026C136.461 71.7052 136.397 71.718 136.268 71.718H133.464C133.31 71.718 133.233 71.718 133.233 71.6155C133.233 71.5129 133.323 71.5129 133.516 71.5H133.902C134.056 71.5 134.146 71.4616 134.172 71.3847V71.1539V67.8206C134.172 66.6539 134.172 66.0001 134.172 65.8847C134.172 65.7693 134.03 65.6924 133.786 65.6924H133.349C133.143 65.6924 133.04 65.6539 133.04 65.577C133.04 65.4872 133.143 65.436 133.362 65.436C133.701 65.4202 134.038 65.3643 134.365 65.2693C134.642 65.2079 134.901 65.0852 135.124 64.9103C135.178 64.8507 135.25 64.8102 135.329 64.7949C135.407 64.7949 135.445 64.8847 135.445 65.077V65.8206C135.68 65.4941 135.992 65.23 136.353 65.0513C136.714 64.8725 137.113 64.7845 137.516 64.7949C137.83 64.7712 138.145 64.8339 138.427 64.9764C138.708 65.1188 138.944 65.3354 139.111 65.6026C139.348 66.1562 139.445 66.7593 139.394 67.359V70.8719C139.355 71.0493 139.355 71.2329 139.394 71.4103C139.526 71.4857 139.679 71.5171 139.831 71.5H140.114C140.307 71.4872 140.358 71.5129 140.358 71.5898Z" fill="#fff"/>
<path d="M157.232 65.0769C157.232 65.1666 157.155 65.2051 157.001 65.2051H156.589C156.383 65.2051 156.178 65.4999 155.985 66.1025C155.869 66.4871 155.753 66.8717 155.65 67.2563L155.174 68.7948C154.994 69.3204 154.75 70.1794 154.403 71.3589C154.313 71.7051 154.223 71.8845 154.145 71.8845C154.068 71.8845 153.978 71.7563 153.875 71.4999C153.772 71.2435 153.49 70.5128 153.039 69.2948C152.924 68.9743 152.756 68.5127 152.525 67.9102C152.383 67.5127 152.268 67.1794 152.191 66.9102C151.792 68.0384 151.264 69.641 150.634 71.6922C150.634 71.8205 150.531 71.8845 150.441 71.8845C150.351 71.8845 150.287 71.8076 150.223 71.6538C150.172 71.4754 150.112 71.2999 150.043 71.1281L149.67 70.1409C149.567 69.8717 149.361 69.282 149.065 68.3461C148.769 67.4102 148.589 66.8589 148.538 66.6794C148.405 66.1786 148.192 65.7024 147.908 65.2692C147.746 65.2179 147.576 65.1962 147.406 65.2051C147.162 65.2051 147.046 65.205 147.046 65.064C147.046 64.923 147.046 64.9615 147.213 64.9615H150.004C150.146 64.9615 150.223 64.9615 150.223 65.0769C150.223 65.1922 150.223 65.2179 150.068 65.2179H149.682C149.438 65.2179 149.31 65.2179 149.31 65.3717C149.381 65.6999 149.48 66.0215 149.605 66.3332C149.94 67.2948 150.351 68.5127 150.801 69.9615C151.252 68.5256 151.65 67.282 151.998 66.2435C152.062 66.0897 152.139 65.8461 152.255 65.5127C152.371 65.1794 152.473 64.9615 152.576 64.9615C152.679 64.9615 152.795 65.1281 152.911 65.4615C153.091 66.0768 153.49 67.2307 154.107 68.9486C154.197 69.1666 154.313 69.4999 154.467 69.9615L155.856 65.3076C155.856 65.3076 155.792 65.2179 155.676 65.2179H155.226C155.11 65.2179 155.046 65.2179 155.046 65.0896C155.046 64.9614 155.123 64.9615 155.264 64.9615H157.039C157.168 64.9487 157.232 64.9487 157.232 65.0769Z" fill="#fff"/>
<path d="M162.57 71.5767C162.57 71.6664 162.48 71.7177 162.313 71.7177H161.94H161.168H159.56C159.498 71.7374 159.43 71.7374 159.368 71.7177C159.265 71.7177 159.2 71.7177 159.2 71.6023C159.2 71.4869 159.303 71.4356 159.509 71.4356C159.726 71.4511 159.945 71.425 160.152 71.3587C160.189 71.1466 160.189 70.9298 160.152 70.7177V66.051C160.163 65.9016 160.163 65.7517 160.152 65.6023C160.152 65.6023 160.075 65.5254 159.959 65.5254H159.355C159.252 65.5254 159.188 65.5254 159.188 65.4228C159.188 65.3203 159.278 65.3203 159.445 65.3203C160.063 65.3045 160.668 65.1372 161.207 64.8331L161.348 64.7433C161.457 65.0116 161.501 65.3013 161.477 65.5895V70.5382C161.456 70.7771 161.456 71.0173 161.477 71.2562C161.486 71.292 161.506 71.3244 161.533 71.3494C161.561 71.3744 161.595 71.391 161.631 71.3972C161.858 71.4221 162.086 71.4221 162.313 71.3972C162.467 71.4485 162.57 71.4998 162.57 71.5767ZM161.413 61.9869C161.425 62.0808 161.416 62.1764 161.386 62.2662C161.355 62.356 161.304 62.4376 161.237 62.5046C161.17 62.5716 161.088 62.6222 160.998 62.6525C160.908 62.6828 160.812 62.692 160.718 62.6793C160.532 62.6821 160.352 62.6131 160.216 62.4869C160.154 62.4272 160.105 62.3555 160.072 62.2761C160.039 62.1967 160.022 62.1114 160.023 62.0254C160.023 61.5382 160.255 61.2946 160.718 61.2946C160.812 61.2819 160.908 61.2911 160.998 61.3214C161.088 61.3517 161.17 61.4023 161.237 61.4693C161.304 61.5363 161.355 61.6179 161.386 61.7077C161.416 61.7974 161.425 61.893 161.413 61.9869Z" fill="#fff"/>
<path d="M169.489 70.7566C169.489 70.8592 169.348 71.013 169.09 71.2566C168.664 71.6509 168.102 71.8666 167.521 71.8592C167.052 71.8882 166.59 71.7316 166.235 71.4233C166.014 70.9744 165.929 70.4709 165.991 69.9746V65.4104C165.991 65.3079 165.926 65.2438 165.823 65.2438H165.232C165.013 65.2438 164.897 65.2438 164.897 65.1284C164.897 65.013 164.897 65.013 165.065 65.013C165.451 64.9798 165.823 64.8541 166.15 64.6465C166.477 64.4389 166.749 64.1556 166.942 63.8207C166.964 63.778 166.997 63.7422 167.038 63.7173C167.079 63.6924 167.126 63.6794 167.174 63.6797C167.174 63.6797 167.277 63.6797 167.277 63.7951V64.1156C167.258 64.395 167.279 64.6757 167.341 64.9489H167.804C168.167 64.9883 168.534 64.9883 168.897 64.9489H169.013C169.09 64.9489 169.129 64.9489 169.129 65.0771C169.129 65.2053 168.717 65.3079 167.843 65.3079H167.213V68.154C167.189 69.0527 167.223 69.952 167.315 70.8464C167.338 71.0146 167.426 71.167 167.561 71.2704C167.696 71.3737 167.867 71.4195 168.036 71.3976C168.471 71.3489 168.873 71.1438 169.167 70.8207C169.183 70.7978 169.205 70.779 169.229 70.7656C169.254 70.7522 169.281 70.7448 169.309 70.7438C169.429 70.701 169.489 70.7053 169.489 70.7566Z" fill="#fff"/>
<path d="M178.621 71.5769C178.621 71.6538 178.531 71.7051 178.351 71.7051H175.548C175.419 71.7051 175.342 71.7051 175.342 71.5769C175.342 71.4487 175.547 71.4743 175.933 71.4743C176.319 71.4743 176.306 71.4743 176.345 71.3845C176.381 71.1939 176.381 70.9983 176.345 70.8076V67.6923C176.38 67.1122 176.337 66.53 176.216 65.9615C176.133 65.7298 175.973 65.5335 175.762 65.4052C175.552 65.277 175.303 65.2244 175.059 65.2563C174.82 65.2548 174.585 65.314 174.376 65.4284C174.166 65.5429 173.99 65.7087 173.863 65.9102C173.729 66.2077 173.676 66.5347 173.708 66.8589V70.782C173.697 70.9399 173.697 71.0984 173.708 71.2564C173.707 71.2963 173.718 71.3356 173.742 71.3681C173.765 71.4006 173.798 71.4245 173.837 71.4358H174.493C174.621 71.4358 174.686 71.4743 174.686 71.5512C174.686 71.6281 174.634 71.6666 174.531 71.6666H171.573C171.47 71.6666 171.406 71.6666 171.406 71.564C171.406 71.4615 171.47 71.4615 171.573 71.4615H172.049C172.281 71.4615 172.396 71.3974 172.409 71.2435V64.3205C172.441 63.4308 172.415 62.5401 172.332 61.6538C172.268 61.5512 172.023 61.4999 171.573 61.4871C171.329 61.4871 171.213 61.4871 171.213 61.3717C171.209 61.3464 171.215 61.3204 171.229 61.2991C171.243 61.2777 171.265 61.2625 171.29 61.2563H171.805C172.331 61.241 172.849 61.1143 173.322 60.8845L173.541 60.8076C173.636 61.1931 173.671 61.591 173.644 61.9871V65.7564C173.842 65.4482 174.116 65.1964 174.441 65.0256C174.766 64.8548 175.129 64.7709 175.496 64.782C175.822 64.7483 176.15 64.7911 176.456 64.9068C176.762 65.0226 177.037 65.2082 177.258 65.4487C177.454 65.7324 177.566 66.0658 177.58 66.4102C177.602 66.7517 177.602 67.0943 177.58 67.4358V71.282C177.58 71.3846 177.85 71.4358 178.377 71.4358C178.57 71.4871 178.621 71.5256 178.621 71.5769Z" fill="#fff"/>
<path d="M4.926 94.628C4.926 94.7178 4.86166 94.7562 4.73304 94.7562H4.52729H2.93243H0.900327H0.231502C0.077163 94.7562 3.15856e-06 94.7562 3.15856e-06 94.628C-0.0001944 94.6029 0.0088818 94.5786 0.0254766 94.5597C0.0420714 94.5408 0.0650402 94.5286 0.0900434 94.5255H0.681663C1.0032 94.4614 1.18329 94.3716 1.23474 94.2434C1.31281 93.8208 1.33872 93.3903 1.31191 92.9614V84.9999C1.31913 84.9103 1.31913 84.8202 1.31191 84.7306C1.31191 84.4742 1.05467 84.346 0.540205 84.346C0.257251 84.346 0.115752 84.346 0.115752 84.2434C0.115752 84.1408 0.115752 84.1281 0.115752 84.1152H4.57871C4.72019 84.1152 4.7845 84.1152 4.7845 84.2306C4.78631 84.2424 4.78576 84.2544 4.78285 84.266C4.77994 84.2776 4.77473 84.2885 4.76754 84.2981C4.76036 84.3076 4.75131 84.3156 4.74097 84.3217C4.73063 84.3277 4.71921 84.3316 4.70733 84.3332C4.55406 84.3587 4.39761 84.3587 4.24434 84.3332C3.9228 84.3332 3.72985 84.4229 3.65268 84.5383V84.8332V93.5127C3.65268 93.9486 3.6527 94.205 3.79417 94.2947C4.10852 94.4203 4.44623 94.4771 4.7845 94.4614C4.88739 94.5126 4.926 94.5511 4.926 94.628Z" fill="#fff"/>
<path d="M17.4785 84.2687C17.4785 84.2687 17.4785 84.3457 17.3627 84.3585H16.5525C16.2824 84.3585 16.128 84.4226 16.0895 84.5251C16.0421 84.8525 16.0421 85.185 16.0895 85.5123V94.5764C16.0895 94.7431 16.0894 94.8328 15.9865 94.8328C15.1541 94.0534 14.4003 93.1946 13.7358 92.2687C12.3596 90.5764 10.8291 88.6405 9.18282 86.4482V93.9098C9.18282 94.1277 9.24712 94.2559 9.37574 94.3072C9.62212 94.3997 9.88428 94.4432 10.1474 94.4354C10.3438 94.4107 10.5432 94.4372 10.7262 94.5123C10.7289 94.5336 10.7289 94.5551 10.7262 94.5764C10.7262 94.6533 10.649 94.6918 10.4947 94.6918H10.2632H9.10565H7.678H7.31788C7.16354 94.6918 7.08638 94.6533 7.08638 94.5764C7.08638 94.4995 7.30502 94.4482 7.75517 94.4226C8.20532 94.3969 8.5912 94.2944 8.66837 94.179C8.74635 93.8126 8.77232 93.4372 8.74553 93.0636V86.7559C8.74553 86.1149 8.74553 85.7175 8.74553 85.5893C8.73057 85.396 8.67466 85.2081 8.58155 85.0379C8.48844 84.8678 8.36022 84.7192 8.20533 84.6021C7.80604 84.4072 7.36292 84.3189 6.91918 84.3457C6.76484 84.3457 6.6748 84.2816 6.6748 84.1918C6.6748 84.1021 6.75199 84.0508 6.89347 84.0508H7.56225H8.38541C9.1571 84.0508 9.77446 84.0508 10.2375 84.0508L15.665 90.9995V84.8969C15.683 84.7284 15.6372 84.5592 15.5364 84.4226C15.3743 84.3374 15.1921 84.2976 15.0091 84.3072H14.3531C14.2245 84.3072 14.1602 84.3072 14.1602 84.2046C14.1602 84.1021 14.2503 84.0764 14.4432 84.0764H17.2599C17.3885 84.179 17.4785 84.179 17.4785 84.2687Z" fill="#fff"/>
<path d="M28.2824 92.0509C28.2824 92.0509 28.2824 92.5509 28.2824 93.4868C28.2824 93.974 28.2824 94.3329 28.2824 94.5509C28.2824 94.7688 28.2824 94.8586 28.2824 94.8586C25.5686 94.7304 23.1377 94.6919 21.1571 94.7432H19.8709C19.6908 94.7432 19.5879 94.7432 19.5879 94.6278C19.5872 94.6045 19.5944 94.5816 19.6085 94.563C19.6225 94.5444 19.6425 94.5311 19.6651 94.5252H20.1281C20.6168 94.5252 20.8741 94.3586 20.9256 94.1021C20.977 93.8457 20.9256 93.8201 20.9256 93.6663V85.8714C20.9256 85.256 20.9256 84.9227 20.9256 84.8586C20.9276 84.7949 20.9147 84.7316 20.8879 84.6737C20.8611 84.6159 20.8211 84.565 20.7712 84.5252C20.5893 84.4458 20.3899 84.4149 20.1924 84.4355C19.8838 84.4355 19.7166 84.4355 19.7166 84.2945C19.7166 84.1534 19.858 84.1406 20.141 84.1406H21.3243C23.2149 84.1406 24.7711 84.1406 25.9673 84.1406H27.0219H27.8579L27.9865 85.8073C27.9865 86.3457 28.0637 86.6791 28.0637 86.7945C28.0657 86.8152 28.0631 86.8361 28.056 86.8556C28.0489 86.8752 28.0377 86.893 28.0229 86.9077C28.0082 86.9224 27.9903 86.9336 27.9707 86.9407C27.9511 86.9477 27.9301 86.9503 27.9094 86.9483C27.8065 86.9483 27.7422 86.8201 27.7164 86.5509C27.6907 86.2464 27.6006 85.9507 27.4521 85.6833C27.3035 85.416 27.1 85.183 26.8547 84.9996C26.2038 84.6395 25.4624 84.4747 24.7197 84.5252H23.2406V89.0637C23.9649 89.1321 24.6955 89.0536 25.3885 88.8329C25.6843 88.6535 25.8772 88.2176 25.9801 87.5509C25.9801 87.1663 26.1087 86.9868 26.2116 86.9868C26.3145 86.9868 26.3531 87.0765 26.3531 87.256C26.3531 87.4355 26.3531 87.8201 26.3531 88.397C26.3531 88.5894 26.3531 88.8586 26.3531 89.1791C26.3531 90.0338 26.3531 90.7004 26.3531 91.1791C26.3601 91.2558 26.3601 91.3331 26.3531 91.4099C26.3531 91.5381 26.3531 91.6022 26.2116 91.6022C26.183 91.6052 26.1541 91.5995 26.1288 91.5857C26.1036 91.572 26.0831 91.5509 26.0702 91.5253C26.0286 91.3609 25.9985 91.1938 25.9801 91.0252C25.9635 90.5425 25.8169 90.0731 25.5557 89.6663C25.1722 89.4282 24.7167 89.3329 24.2695 89.397H23.2149V94.5252H24.2052C25.337 94.5252 26.0316 94.5253 26.2759 94.4483C26.5965 94.4027 26.9035 94.289 27.1762 94.115C27.4099 93.945 27.5922 93.7144 27.7036 93.4483C27.8525 93.0325 27.9602 92.6031 28.0251 92.1663C28.0251 92.0124 28.0766 91.9355 28.1794 91.9355C28.2438 91.8714 28.2824 91.8714 28.2824 92.0509Z" fill="#fff"/>
<path d="M35.7804 94.628C35.7804 94.7178 35.7161 94.7562 35.5747 94.7562H35.3817H33.7869H31.7548H31.086C30.9317 94.7562 30.8545 94.7562 30.8545 94.628C30.8543 94.6029 30.8633 94.5786 30.8799 94.5597C30.8965 94.5408 30.9195 94.5286 30.9445 94.5255H31.5362C31.8577 94.4614 32.0377 94.3716 32.0892 94.2434C32.1673 93.8208 32.1932 93.3903 32.1664 92.9614V84.9999C32.1664 84.8075 32.1664 84.7178 32.1664 84.7306C32.1664 84.4742 31.9091 84.346 31.3947 84.346C31.1117 84.346 30.9574 84.346 30.9574 84.2434C30.9574 84.1408 30.9574 84.1281 31.0217 84.1152H35.4846C35.6132 84.1152 35.6904 84.1152 35.6904 84.2306C35.6922 84.2424 35.6917 84.2544 35.6888 84.266C35.6858 84.2776 35.6806 84.2885 35.6735 84.2981C35.6663 84.3076 35.6573 84.3156 35.6469 84.3217C35.6366 84.3277 35.6251 84.3316 35.6132 84.3332C35.4599 84.3578 35.3036 84.3578 35.1502 84.3332C34.8287 84.3332 34.6358 84.4229 34.5586 84.5383V84.8332V93.5127C34.5586 93.9486 34.5586 94.205 34.713 94.2947C35.0269 94.4218 35.3649 94.4787 35.7033 94.4614C35.729 94.5126 35.7804 94.5511 35.7804 94.628Z" fill="#fff"/>
<path d="M47.3048 91.3717V91.641C47.3048 91.641 47.3048 92.0128 47.2276 92.6025C47.1504 93.1923 47.1633 93.4102 47.1633 93.6538C47.1633 93.8974 47.1633 94.2179 47.1633 94.423C47.1633 94.6281 47.1633 94.5769 47.1633 94.6794C47.1633 94.782 47.1633 94.8589 47.0861 94.8589C47.009 94.8589 46.9704 94.8589 46.9189 94.7051C46.7517 94.3951 46.4968 94.141 46.1858 93.9743C45.5072 94.5946 44.6242 94.9458 43.7035 94.9615C43.0379 94.9631 42.3788 94.8298 41.7664 94.5697C41.154 94.3097 40.601 93.9283 40.1409 93.4487C39.6038 92.927 39.1813 92.2998 38.9001 91.6068C38.619 90.9139 38.4852 90.1702 38.5075 89.423C38.4632 87.9708 38.9893 86.5586 39.9737 85.4871C40.4383 84.9777 41.0069 84.5734 41.6414 84.3013C42.2759 84.0293 42.9615 83.896 43.6521 83.9102C44.2912 83.8998 44.9215 84.0591 45.4784 84.3717C45.6823 84.5118 45.9153 84.6039 46.1601 84.641C46.2757 84.6355 46.3889 84.6065 46.4929 84.5558C46.5969 84.5051 46.6893 84.4337 46.7646 84.3461C46.8932 84.2051 46.9704 84.1281 47.009 84.1281C47.0476 84.1281 47.0733 84.1281 47.0733 84.2435C47.077 84.2862 47.077 84.3291 47.0733 84.3717C47.0125 84.7964 46.9825 85.2248 46.9832 85.6538C46.9832 85.6538 46.9832 85.923 46.9832 86.282V87.3461C46.9832 87.5256 46.9832 87.6282 46.8289 87.6282C46.6745 87.6282 46.6745 87.423 46.5845 87.0256C46.2072 85.1794 45.3498 84.2564 44.0122 84.2564C42.9704 84.2564 42.1987 84.9359 41.7357 86.282C41.3778 87.3562 41.2081 88.4837 41.2341 89.6153C41.1122 91.111 41.5269 92.6012 42.4045 93.8204C42.6032 94.0537 42.8521 94.2394 43.1326 94.3637C43.4132 94.4879 43.7182 94.5476 44.0251 94.5384C45.4784 94.5384 46.4302 93.5641 46.8803 91.641C46.9575 91.3205 47.0347 91.1666 47.1376 91.1666C47.2404 91.1666 47.3176 91.2435 47.3048 91.3717Z" fill="#fff"/>
<path d="M61.1565 94.744C61.1565 94.8081 61.1565 94.8338 61.015 94.8338H60.8607C60.5006 94.8338 59.4974 94.7697 57.8382 94.7697H56.655C56.3334 94.7697 56.1791 94.7697 56.1791 94.6415C56.1791 94.5133 56.3077 94.5132 56.5649 94.5004C56.7683 94.4939 56.9688 94.4505 57.1566 94.3722C57.3238 94.2953 57.4138 94.2056 57.4138 94.103C57.4138 94.0004 57.4138 93.8722 57.4138 93.5902V89.3081H53.7354V94.0645C53.7354 94.3209 53.954 94.4876 54.3527 94.5389L54.9187 94.6158C54.9187 94.6158 54.9958 94.6158 54.9958 94.7184C54.9958 94.821 54.9958 94.8081 54.8415 94.8081H53.774H53.0409H52.102C51.5232 94.8081 50.983 94.8081 50.4686 94.8081H50.3142C50.1341 94.8081 50.0312 94.8081 50.0312 94.6799C50.0312 94.5517 50.1084 94.5517 50.2499 94.5517C50.5942 94.579 50.9398 94.5172 51.2531 94.3722C51.3431 94.3722 51.3817 94.0389 51.3817 93.5517V85.0774C51.3817 84.744 51.2917 84.5517 51.1117 84.4876C50.8286 84.4015 50.5324 84.3667 50.237 84.3851C50.1084 84.3851 50.0312 84.385 50.0312 84.2568C50.0312 84.1286 50.0956 84.1799 50.2113 84.1671H54.7772C54.9186 84.1671 54.9958 84.1671 54.9958 84.3209C54.9971 84.3492 54.989 84.3771 54.9727 84.4003C54.9564 84.4235 54.9329 84.4407 54.9058 84.4491H54.3913C54.0955 84.4491 53.9155 84.5261 53.8383 84.6414C53.7569 84.8404 53.7217 85.0552 53.7354 85.2697V88.8851H54.1084C55.1244 88.8851 56.2305 88.8851 57.4138 88.8851V85.462C57.4138 84.7697 57.1566 84.4107 56.655 84.4107C56.1534 84.4107 56.1534 84.4107 56.1534 84.2825C56.1534 84.1543 56.2177 84.1543 56.3463 84.1543H61.0279C61.1308 84.1543 61.1822 84.1543 61.1822 84.244C61.1822 84.3338 60.9893 84.3722 60.6034 84.3979C60.2176 84.4235 59.9861 84.5132 59.8961 84.6414C59.7718 84.9459 59.7233 85.2758 59.7546 85.603V93.1543C59.7546 93.8209 59.8446 94.2184 60.0118 94.3594C60.2722 94.5262 60.577 94.6111 60.8864 94.603C61.0536 94.5774 61.1565 94.6286 61.1565 94.744Z" fill="#fff"/>
<path d="M72.0757 92.0509C72.0757 92.0509 72.0757 92.5509 72.0757 93.4868C72.0757 93.974 72.0757 94.3329 72.0757 94.5509V94.8586C69.3576 94.7304 66.9782 94.6919 64.9375 94.7432H63.6514C63.4585 94.7432 63.3684 94.7432 63.3684 94.6278C63.3669 94.6061 63.3722 94.5845 63.3838 94.5661C63.3953 94.5476 63.4125 94.5333 63.4327 94.5252H63.9086C64.3973 94.5252 64.6546 94.3586 64.6932 94.1021C64.707 93.9572 64.707 93.8112 64.6932 93.6663V85.8714C64.6932 85.256 64.6932 84.9227 64.6932 84.8586C64.6999 84.7943 64.6891 84.7294 64.662 84.6708C64.6348 84.6121 64.5922 84.5618 64.5388 84.5252C64.3612 84.4469 64.1662 84.416 63.9729 84.4355C63.6514 84.4355 63.497 84.4355 63.497 84.2945C63.497 84.1534 63.6385 84.1406 63.9215 84.1406H65.1047C66.9954 84.1406 68.5388 84.1406 69.7477 84.1406H70.7895H71.6255L71.767 85.8073C71.767 86.3457 71.8442 86.6791 71.8442 86.7945C71.8462 86.8152 71.8435 86.8361 71.8365 86.8556C71.8294 86.8752 71.8181 86.893 71.8034 86.9077C71.7886 86.9224 71.7708 86.9336 71.7512 86.9407C71.7315 86.9477 71.7106 86.9503 71.6899 86.9483C71.587 86.9483 71.5226 86.8201 71.4841 86.5509C71.4642 86.2449 71.3766 85.9472 71.2276 85.6789C71.0786 85.4107 70.8719 85.1788 70.6223 84.9996C69.9752 84.6419 69.2386 84.4772 68.5002 84.5252H67.0082V89.0637C67.7325 89.1332 68.4634 89.0546 69.1561 88.8329C69.3389 88.6713 69.4867 88.4743 69.5906 88.2538C69.6945 88.0334 69.7524 87.7943 69.7606 87.5509C69.7606 87.1663 69.8892 86.9868 69.9921 86.9868C70.095 86.9868 70.1336 87.0765 70.1336 87.256C70.1336 87.4355 70.1336 87.8201 70.1336 88.397C70.1336 88.5894 70.1336 88.8586 70.1336 89.1791C70.1336 90.0637 70.1336 90.7304 70.1336 91.1791C70.1413 91.2558 70.1413 91.3331 70.1336 91.4099C70.1336 91.5381 70.1336 91.6022 69.9921 91.6022C69.8506 91.6022 69.8635 91.6022 69.8506 91.5253C69.8019 91.3625 69.7718 91.1947 69.7606 91.0252C69.7414 90.5411 69.5902 90.0712 69.3233 89.6663C68.9402 89.4272 68.4843 89.3317 68.0371 89.397H66.9825V94.5252H67.9728C69.1175 94.5252 69.7992 94.5253 70.0564 94.4483C70.3734 94.4045 70.6767 94.2906 70.9439 94.115C71.1808 93.9453 71.3675 93.715 71.4841 93.4483C71.633 93.0325 71.7407 92.6031 71.8056 92.1663C71.8056 92.0124 71.857 91.9355 71.9599 91.9355C72.0628 91.9355 72.1014 91.974 72.0757 92.0509Z" fill="#fff"/>
<path d="M84.8473 84.2687C84.8473 84.2687 84.8473 84.3457 84.7316 84.3585H83.9213C83.6512 84.3585 83.4969 84.4226 83.4583 84.5251C83.4034 84.8519 83.4034 85.1856 83.4583 85.5123V94.5764C83.4583 94.7431 83.4583 94.8328 83.3554 94.8328C82.523 94.0534 81.7691 93.1946 81.1046 92.2687C79.7156 90.5593 78.1936 88.6192 76.5388 86.4482V93.9098C76.5388 94.1277 76.616 94.2559 76.7446 94.3072C76.991 94.3997 77.2531 94.4432 77.5163 94.4354C77.8507 94.4354 78.0436 94.4354 78.0822 94.5123C78.0868 94.5224 78.0892 94.5333 78.0892 94.5444C78.0892 94.5554 78.0868 94.5664 78.0822 94.5764C78.0822 94.6533 78.005 94.6918 77.8506 94.6918H77.5806H76.423H74.9954H74.6224C74.4681 94.6918 74.3909 94.6533 74.3909 94.5764C74.3909 94.4995 74.6224 94.4482 75.0726 94.4226C75.5227 94.3969 75.9086 94.2944 75.9857 94.179C76.0637 93.8126 76.0897 93.4372 76.0629 93.0636V86.7559C76.0629 86.1149 76.0629 85.7175 76.0629 85.5893C76.0479 85.396 75.9921 85.2081 75.899 85.0379C75.8059 84.8678 75.6776 84.7192 75.5227 84.6021C75.1234 84.4072 74.6803 84.3189 74.2366 84.3457C74.0694 84.3457 73.9922 84.2816 73.9922 84.1918C73.9922 84.1021 74.0694 84.0508 74.2109 84.0508H74.8796H75.7028C76.4616 84.0508 77.079 84.0508 77.5549 84.0508L82.9696 90.9995V84.8969C82.9913 84.73 82.95 84.561 82.8538 84.4226C82.6911 84.3392 82.5093 84.2994 82.3265 84.3072H81.6577C81.5419 84.3072 81.4776 84.3072 81.4776 84.2046C81.4776 84.1021 81.5676 84.0764 81.7606 84.0764H84.5773C84.7573 84.179 84.8473 84.179 84.8473 84.2687Z" fill="#fff"/>
<path d="M101.825 94.5894C101.829 94.6249 101.819 94.6605 101.797 94.689C101.776 94.7176 101.744 94.7369 101.709 94.7432H100.423H98.8539H97.9536C97.452 94.7432 97.0919 94.7432 96.9118 94.7432C96.7317 94.7432 96.4874 94.7432 96.4874 94.5894C96.4874 94.4355 96.7832 94.4355 97.3748 94.4227H97.6964C97.8636 94.4227 97.9407 94.333 97.9407 94.2304C97.8929 94.0135 97.8328 93.7995 97.7607 93.5894L97.4391 92.5894C97.3748 92.3586 97.2333 91.9484 97.0276 91.3073H95.5871C95.1626 91.3073 94.6996 91.3073 94.2237 91.3073C94.1209 91.5125 93.9536 91.974 93.6964 92.692L93.3492 93.692C93.3051 93.8114 93.2791 93.9367 93.272 94.0637C93.272 94.2304 93.3877 94.3458 93.6193 94.3971C93.8709 94.4315 94.1242 94.4529 94.3781 94.4612C94.5196 94.4612 94.5839 94.4612 94.5839 94.5894C94.5839 94.7176 94.4938 94.7176 94.3138 94.7176H91.5614C91.4199 94.7176 91.3428 94.7176 91.3428 94.5638C91.3428 94.4099 91.5099 94.4612 91.8315 94.4484C92.1112 94.4586 92.3867 94.3776 92.6161 94.2176C92.8451 93.8108 93.0304 93.3811 93.1691 92.9355L94.018 90.6535L95.8829 85.5253C95.9729 85.2945 96.1015 84.9484 96.2687 84.4612C96.4359 83.974 96.4745 83.9355 96.526 83.9355C96.5774 83.9355 96.706 84.1791 96.8732 84.6407C97.0404 85.1022 97.9793 87.6407 99.587 91.8202C99.7928 92.3458 99.9986 92.8971 100.204 93.4484C100.288 93.7817 100.472 94.0815 100.732 94.3073C101.038 94.4108 101.362 94.4458 101.683 94.4099C101.761 94.4356 101.825 94.4996 101.825 94.5894ZM96.8732 90.9868C96.8732 90.9868 96.8732 90.8586 96.7703 90.6919C96.3588 89.5125 96.0501 88.6791 95.87 88.192C95.87 88.0638 95.7543 87.8586 95.6642 87.6022L95.5614 87.333C95.3684 87.7689 95.1498 88.3843 94.8797 89.1663C94.6096 89.9484 94.3652 90.6407 94.2366 90.9868H96.8089H96.8732Z" fill="#fff"/>
<path d="M113.593 84.18C113.593 84.2569 113.413 84.2954 113.066 84.3082C112.718 84.321 112.371 84.3851 112.281 84.5261C112.236 84.604 112.214 84.6928 112.217 84.7825V91.321C112.217 93.7569 111.046 94.9749 108.731 94.9749C108.216 95.0045 107.7 94.9211 107.22 94.7306C106.74 94.5401 106.307 94.2471 105.953 93.8723C105.364 93.0317 105.099 92.0074 105.207 90.9877V85.0774C105.207 84.7441 105.207 84.5518 105.053 84.4749C104.739 84.3639 104.408 84.3075 104.075 84.3082C103.973 84.3082 103.908 84.3082 103.908 84.18C103.908 84.0518 103.998 84.0518 104.191 84.0518H108.448C108.616 84.0518 108.706 84.0518 108.706 84.2056C108.706 84.3594 108.551 84.3338 108.23 84.3338C107.908 84.3338 107.535 84.4236 107.509 84.5902C107.497 84.6967 107.497 84.8043 107.509 84.9107V90.6671C107.478 91.1966 107.478 91.7274 107.509 92.2569C107.52 92.7914 107.72 93.3048 108.075 93.7056C108.277 93.8926 108.514 94.0376 108.772 94.1323C109.03 94.227 109.305 94.2693 109.58 94.2569C109.873 94.2805 110.166 94.2321 110.435 94.1158C110.705 93.9995 110.941 93.819 111.124 93.5902C111.6 92.6935 111.806 91.678 111.715 90.6671V84.9748C111.715 84.7056 111.651 84.5261 111.497 84.4492C111.305 84.3713 111.098 84.3405 110.892 84.3595C110.532 84.3595 110.352 84.2953 110.352 84.1671C110.352 84.0902 110.416 84.0518 110.558 84.0518H111.239C111.535 84.0518 111.767 84.0518 111.921 84.0518H112.178H113.027C113.387 84.0902 113.593 84.18 113.593 84.18Z" fill="#fff"/>
<path d="M124.834 91.3721V91.6414C124.834 91.6414 124.834 92.0132 124.757 92.6029C124.716 92.9519 124.695 93.3029 124.693 93.6542C124.693 93.9619 124.693 94.2183 124.693 94.4234C124.7 94.5087 124.7 94.5945 124.693 94.6798C124.693 94.7952 124.693 94.8593 124.615 94.8593C124.538 94.8593 124.513 94.8593 124.448 94.7054C124.285 94.3968 124.035 94.1428 123.728 93.9747C123.042 94.5909 122.156 94.9411 121.233 94.9619C120.567 94.9627 119.908 94.8291 119.296 94.5691C118.684 94.309 118.131 93.9281 117.67 93.4491C117.133 92.9274 116.711 92.3002 116.429 91.6072C116.148 90.9142 116.015 90.1706 116.037 89.4234C115.992 87.9687 116.523 86.5548 117.516 85.4875C117.979 84.9761 118.547 84.5704 119.182 84.2982C119.817 84.026 120.503 83.8938 121.194 83.9106C121.829 83.8987 122.456 84.0581 123.008 84.3721C123.212 84.5122 123.445 84.6042 123.689 84.6413C123.805 84.6374 123.919 84.6091 124.023 84.5583C124.127 84.5075 124.22 84.4353 124.294 84.3465C124.423 84.2055 124.513 84.1285 124.538 84.1285C124.564 84.1285 124.603 84.1285 124.603 84.2439C124.608 84.2865 124.608 84.3295 124.603 84.3721C124.536 84.7961 124.506 85.225 124.513 85.6542C124.513 85.6542 124.513 85.9234 124.513 86.2824V87.3465C124.513 87.526 124.513 87.6285 124.358 87.6285C124.204 87.6285 124.191 87.4234 124.114 87.026C123.737 85.1798 122.879 84.2567 121.542 84.2567C120.487 84.2567 119.728 84.9362 119.252 86.2824C118.899 87.3574 118.734 88.4849 118.763 89.6157C118.636 91.1119 119.051 92.6041 119.934 93.8208C120.133 94.0541 120.381 94.2398 120.662 94.364C120.943 94.4883 121.248 94.548 121.554 94.5388C123.008 94.5388 123.96 93.5644 124.41 91.6414C124.474 91.3209 124.564 91.167 124.654 91.167C124.744 91.167 124.847 91.2439 124.834 91.3721Z" fill="#fff"/>
<path d="M136.589 86.9614C136.589 87.0383 136.589 87.0896 136.486 87.0896C136.383 87.0896 136.268 86.8844 136.178 86.487C136.08 85.8937 135.812 85.3415 135.406 84.8973C134.944 84.5771 134.385 84.4275 133.824 84.4742H133.104V93.8203C133.104 94.0767 133.181 94.2434 133.322 94.3203C133.677 94.4277 134.045 94.488 134.416 94.4998C134.531 94.4998 134.583 94.4998 134.583 94.6409C134.583 94.7819 134.506 94.7947 134.338 94.7947H134.171H133.785H132.191L129.618 94.8716C129.477 94.8716 129.412 94.8716 129.412 94.7434C129.412 94.6152 129.412 94.6409 129.412 94.6409H129.927C130.493 94.6409 130.802 94.487 130.84 94.2434C130.879 93.9998 130.84 93.0639 130.84 91.1152V84.5896H130.441C129.808 84.5331 129.173 84.6912 128.641 85.0383C128.207 85.4594 127.946 86.0259 127.908 86.628C127.843 87.0768 127.74 87.3075 127.638 87.3075C127.535 87.3075 127.496 87.2434 127.496 87.128C127.496 87.0126 127.496 86.7563 127.56 86.2819C127.638 85.2691 127.689 84.5896 127.715 84.2178H129.027H130.107H135.56H136.332C136.332 84.8844 136.409 85.7391 136.563 86.7819C136.576 86.8075 136.589 86.9229 136.589 86.9614Z" fill="#fff"/>
<path d="M143.651 94.628C143.651 94.7178 143.573 94.7562 143.445 94.7562H143.239H141.657H139.612H138.956C138.802 94.7562 138.725 94.7562 138.725 94.628C138.724 94.6047 138.731 94.5819 138.745 94.5632C138.759 94.5446 138.779 94.5313 138.802 94.5255H139.406C139.715 94.4614 139.908 94.3716 139.959 94.2434C140.037 93.8208 140.063 93.3903 140.037 92.9614V84.9999C140.037 84.8075 140.037 84.7178 140.037 84.7306C140.037 84.4742 139.779 84.346 139.265 84.346C138.969 84.346 138.828 84.346 138.828 84.2434C138.828 84.1408 138.828 84.1281 138.892 84.1152H143.355C143.483 84.1152 143.548 84.1537 143.548 84.2306C143.548 84.2306 143.548 84.3203 143.548 84.3332C143.39 84.3573 143.23 84.3573 143.072 84.3332C142.75 84.3332 142.557 84.4229 142.493 84.5383V84.8332V93.5127C142.456 93.7817 142.505 94.0556 142.635 94.2947C142.954 94.4194 143.295 94.4762 143.638 94.4614C143.599 94.5126 143.651 94.5511 143.651 94.628Z" fill="#fff"/>
<path d="M156.344 89.4354C156.374 90.8537 155.858 92.2295 154.904 93.2816C154.467 93.7884 153.925 94.1951 153.316 94.4739C152.707 94.7527 152.044 94.897 151.374 94.897C150.703 94.897 150.041 94.7527 149.431 94.4739C148.822 94.1951 148.28 93.7884 147.843 93.2816C146.902 92.1999 146.384 90.816 146.384 89.3841C146.384 87.9523 146.902 86.5684 147.843 85.4867C148.301 84.9835 148.861 84.5837 149.487 84.314C150.112 84.0442 150.789 83.9108 151.47 83.9226C152.132 83.9122 152.788 84.0483 153.39 84.3209C153.993 84.5936 154.528 84.9961 154.955 85.4995C155.904 86.5877 156.401 87.9951 156.344 89.4354ZM153.631 89.679C153.716 88.1366 153.471 86.5937 152.91 85.1534C152.782 84.862 152.568 84.6157 152.298 84.4466C152.027 84.2774 151.712 84.1931 151.393 84.2047C150.698 84.2047 150.107 84.6534 149.721 85.4867C149.259 86.6256 149.044 87.849 149.091 89.0765C148.972 90.7709 149.361 92.4622 150.21 93.9354C150.349 94.1479 150.54 94.3217 150.765 94.4405C150.99 94.5594 151.241 94.6194 151.496 94.6149C151.807 94.6281 152.115 94.542 152.374 94.3691C152.633 94.1962 152.83 93.9455 152.936 93.6534C153.421 92.3853 153.657 91.036 153.631 89.679Z" fill="#fff"/>
<path d="M169.258 84.2687C169.258 84.2687 169.258 84.3457 169.142 84.3585H168.332C168.062 84.3585 167.908 84.4226 167.856 84.5251C167.814 84.8528 167.814 85.1846 167.856 85.5123V94.5764C167.856 94.7431 167.856 94.8328 167.753 94.8328C166.921 94.0534 166.167 93.1946 165.503 92.2687C164.114 90.5593 162.592 88.6192 160.937 86.4482V93.9098C160.937 94.1277 161.014 94.2559 161.143 94.3072C161.385 94.3987 161.642 94.4422 161.901 94.4354C162.253 94.4354 162.446 94.461 162.48 94.5123C162.485 94.5224 162.487 94.5333 162.487 94.5444C162.487 94.5554 162.485 94.5664 162.48 94.5764C162.48 94.6533 162.39 94.6918 162.249 94.6918H162.004H160.86H159.432H159.059C158.905 94.6918 158.827 94.6533 158.827 94.5764C158.827 94.4995 159.059 94.4482 159.509 94.4226C159.959 94.3969 160.332 94.2944 160.422 94.179C160.5 93.8126 160.526 93.4372 160.499 93.0636V86.7559C160.523 86.3674 160.523 85.9778 160.499 85.5893C160.491 85.3946 160.437 85.2045 160.344 85.0335C160.25 84.8624 160.119 84.7149 159.959 84.6021C159.562 84.402 159.117 84.3134 158.673 84.3457C158.506 84.3457 158.429 84.2816 158.429 84.1918C158.429 84.1021 158.506 84.0508 158.647 84.0508H159.303H160.139C160.898 84.0508 161.516 84.0508 161.991 84.0508L167.406 90.9995V84.8969C167.428 84.73 167.387 84.561 167.29 84.4226C167.128 84.3392 166.946 84.2994 166.763 84.3072H166.094C165.978 84.3072 165.914 84.3072 165.914 84.2046C165.914 84.1021 166.004 84.0764 166.197 84.0764H169.014C169.168 84.179 169.258 84.179 169.258 84.2687Z" fill="#fff"/>
<path d="M180.048 92.0509C180.048 92.0509 180.048 92.5509 180.048 93.4868C180.048 93.974 180.048 94.3329 180.048 94.5509V94.8586C177.33 94.7304 174.951 94.6919 172.91 94.7432H171.624C171.431 94.7432 171.341 94.7432 171.341 94.6278C171.34 94.6061 171.345 94.5845 171.356 94.5661C171.368 94.5476 171.385 94.5333 171.405 94.5252H171.881C172.37 94.5252 172.627 94.3586 172.666 94.1021C172.68 93.9572 172.68 93.8112 172.666 93.6663V85.8714C172.666 85.256 172.666 84.9227 172.666 84.8586C172.669 84.7934 172.655 84.7287 172.625 84.6704C172.596 84.6121 172.553 84.5621 172.499 84.5252C172.321 84.4469 172.126 84.416 171.933 84.4355C171.611 84.4355 171.457 84.4355 171.457 84.2945C171.457 84.1534 171.598 84.1406 171.881 84.1406H173.065C174.955 84.1406 176.499 84.1406 177.708 84.1406H178.762H179.585L179.727 85.8073C179.727 86.3457 179.804 86.6791 179.804 86.7945C179.806 86.8152 179.803 86.8361 179.796 86.8556C179.789 86.8752 179.778 86.893 179.763 86.9077C179.748 86.9224 179.731 86.9336 179.711 86.9407C179.691 86.9477 179.67 86.9503 179.65 86.9483C179.547 86.9483 179.482 86.8201 179.444 86.5509C179.424 86.2464 179.337 85.9499 179.191 85.682C179.044 85.4142 178.841 85.1813 178.595 84.9996C177.944 84.6395 177.203 84.4747 176.46 84.5252H174.968V89.0637C175.692 89.1342 176.423 89.0557 177.116 88.8329C177.299 88.6713 177.446 88.4743 177.55 88.2538C177.654 88.0334 177.712 87.7943 177.72 87.5509C177.72 87.1663 177.849 86.9868 177.952 86.9868C178.055 86.9868 178.093 87.0765 178.093 87.256C178.093 87.4355 178.093 87.8201 178.093 88.397C178.093 88.5894 178.093 88.8586 178.093 89.1791C178.093 90.0338 178.093 90.7004 178.093 91.1791C178.093 91.2432 178.093 91.3201 178.093 91.4099C178.093 91.4996 178.093 91.6022 177.952 91.6022C177.923 91.6052 177.894 91.5995 177.869 91.5857C177.844 91.572 177.823 91.5509 177.81 91.5253C177.762 91.3625 177.732 91.1947 177.72 91.0252C177.704 90.5425 177.557 90.0731 177.296 89.6663C176.913 89.4282 176.457 89.3329 176.01 89.397H174.942V94.5252H175.946C177.077 94.5252 177.772 94.5253 178.016 94.4483C178.337 94.4027 178.644 94.289 178.917 94.115C179.147 93.9414 179.328 93.7119 179.444 93.4483C179.593 93.0325 179.701 92.6031 179.765 92.1663C179.765 92.0124 179.817 91.9355 179.92 91.9355C180.023 91.9355 180.066 91.974 180.048 92.0509Z" fill="#fff"/>
<path d="M191.341 92.0509C191.341 92.0509 191.341 92.5509 191.341 93.4868C191.341 93.974 191.341 94.3329 191.341 94.5509C191.341 94.7688 191.341 94.8586 191.341 94.8586C188.627 94.7304 186.196 94.6919 184.216 94.7432H182.929C182.737 94.7432 182.647 94.7432 182.647 94.6278C182.646 94.6045 182.653 94.5816 182.667 94.563C182.681 94.5444 182.701 94.5311 182.724 94.5252H183.187C183.675 94.5252 183.933 94.3586 183.971 94.1021C183.985 93.9572 183.985 93.8112 183.971 93.6663V85.8714C183.971 85.256 183.971 84.9227 183.971 84.8586C183.973 84.7949 183.96 84.7316 183.934 84.6737C183.907 84.6159 183.867 84.565 183.817 84.5252C183.635 84.4458 183.436 84.4149 183.238 84.4355C182.929 84.4355 182.762 84.4355 182.762 84.2945C182.762 84.1534 182.904 84.1406 183.187 84.1406H184.331C186.222 84.1406 187.765 84.1406 188.974 84.1406H190.029H190.865L190.994 85.8073C190.994 86.3457 191.071 86.6791 191.071 86.7945C191.073 86.8152 191.07 86.8361 191.063 86.8556C191.056 86.8752 191.045 86.893 191.03 86.9077C191.015 86.9224 190.997 86.9336 190.978 86.9407C190.958 86.9477 190.937 86.9503 190.916 86.9483C190.814 86.9483 190.749 86.8201 190.724 86.5509C190.698 86.2464 190.608 85.9507 190.459 85.6833C190.311 85.416 190.107 85.183 189.862 84.9996C189.211 84.6395 188.47 84.4747 187.727 84.5252H186.248V89.0637C186.972 89.1321 187.703 89.0536 188.396 88.8329C188.691 88.6535 188.884 88.2176 188.987 87.5509C188.987 87.1663 189.116 86.9868 189.219 86.9868C189.322 86.9868 189.36 87.0765 189.36 87.256C189.36 87.4355 189.36 87.8201 189.36 88.397C189.36 88.5894 189.36 88.8586 189.36 89.1791C189.36 90.0338 189.36 90.7004 189.36 91.1791C189.36 91.2432 189.36 91.3201 189.36 91.4099C189.36 91.4996 189.36 91.6022 189.219 91.6022C189.19 91.6052 189.161 91.5995 189.136 91.5857C189.111 91.572 189.09 91.5509 189.077 91.5253C189.036 91.3609 189.006 91.1938 188.987 91.0252C188.971 90.5425 188.824 90.0731 188.563 89.6663C188.179 89.4282 187.724 89.3329 187.277 89.397H186.222V94.5252H187.212C188.344 94.5252 189.039 94.5253 189.283 94.4483C189.604 94.4027 189.911 94.289 190.183 94.115C190.417 93.945 190.599 93.7144 190.711 93.4483C190.86 93.0325 190.967 92.6031 191.032 92.1663C191.032 92.0124 191.084 91.9355 191.187 91.9355C191.289 91.8714 191.341 91.8714 191.341 92.0509Z" fill="#fff"/>
<path d="M203.766 94.1412C203.766 94.7182 203.38 95.0131 202.634 95.0131C202.214 95.0306 201.796 94.9597 201.406 94.8051C201.016 94.6504 200.663 94.4155 200.37 94.1156C199.958 93.7181 199.691 93.1946 199.611 92.6284L199.457 91.3464C199.425 90.7417 199.229 90.157 198.891 89.6541C198.721 89.4912 198.519 89.3658 198.298 89.2863C198.076 89.2067 197.84 89.1748 197.605 89.1925V92.7054C197.605 93.513 197.605 93.9874 197.605 93.9874C197.596 94.0613 197.611 94.1362 197.648 94.2009C197.685 94.2655 197.742 94.3166 197.811 94.3464C198.077 94.4291 198.356 94.4639 198.634 94.449C198.878 94.449 199.007 94.4489 199.007 94.59C199.007 94.731 199.007 94.7053 198.814 94.7053H194.158C194.017 94.7053 193.939 94.7054 193.939 94.6028C193.939 94.5002 194.158 94.4618 194.57 94.449C194.981 94.4361 195.136 94.3464 195.187 94.2054C195.22 93.9887 195.22 93.7682 195.187 93.5515V85.6028C195.187 85.0771 195.187 84.7566 195.187 84.6541C195.171 84.6047 195.145 84.5595 195.109 84.5218C195.073 84.4841 195.03 84.4548 194.981 84.4361C194.758 84.3622 194.522 84.3317 194.287 84.3464C194.055 84.3464 193.952 84.3464 193.952 84.2053C193.952 84.0643 193.952 84.09 194.081 84.0772C194.329 84.0576 194.579 84.0576 194.827 84.0772H197.927C198.92 84.0197 199.916 84.1324 200.872 84.4105C201.273 84.5798 201.616 84.8601 201.862 85.2182C202.106 85.5634 202.236 85.9755 202.235 86.3977C202.238 86.876 202.091 87.3432 201.814 87.7339C201.537 88.1247 201.145 88.4195 200.692 88.5771C200.049 88.8288 199.373 88.9843 198.685 89.0387V89.1413C199.579 89.1182 200.448 89.4344 201.116 90.0259C201.715 90.7463 202.038 91.6546 202.029 92.59C202.037 93.1872 202.168 93.7765 202.415 94.3207C202.473 94.4155 202.552 94.496 202.645 94.5559C202.739 94.6159 202.845 94.6538 202.955 94.6669C203.11 94.6669 203.187 94.6669 203.187 94.5387C203.187 94.4105 203.187 94.449 203.007 94.372C202.954 94.3402 202.911 94.2949 202.881 94.2408C202.852 94.1867 202.838 94.1258 202.84 94.0643C202.84 93.7823 202.994 93.6541 203.303 93.6541C203.611 93.6541 203.766 93.7951 203.766 94.1412ZM199.907 86.372C199.907 85.09 199.38 84.3977 198.338 84.3977C197.991 84.3977 197.785 84.5002 197.695 84.731C197.617 85.2873 197.592 85.8495 197.618 86.4105V88.9746C197.936 89.0095 198.258 88.9736 198.56 88.8694C198.863 88.7652 199.138 88.5953 199.367 88.372C199.764 87.7846 199.937 87.0754 199.856 86.372H199.907Z" fill="#fff"/>
<path d="M213 91.7178C213.014 92.1513 212.933 92.5827 212.762 92.9814C212.591 93.3802 212.334 93.7366 212.009 94.0255C211.308 94.6607 210.383 94.9927 209.437 94.9486C208.551 94.8808 207.682 94.6686 206.865 94.3204C206.793 94.3039 206.718 94.3039 206.646 94.3204C206.479 94.3204 206.337 94.4999 206.247 94.8717C206.247 94.9871 206.17 95.0383 206.119 95.0383C206.067 95.0383 206.003 94.9742 206.003 94.8332C206.013 94.5925 206.039 94.3527 206.08 94.1153C206.141 93.7979 206.18 93.4766 206.196 93.1537C206.196 92.8589 206.196 92.6153 206.196 92.4486C206.196 92.0896 206.196 91.8845 206.196 91.8332C206.196 91.7819 206.196 91.5768 206.35 91.5768C206.505 91.5768 206.543 91.8076 206.633 92.2435C206.735 92.9281 207.077 93.5548 207.598 94.0127C208.086 94.4403 208.71 94.6811 209.36 94.6922C209.878 94.7053 210.381 94.5167 210.762 94.1666C210.947 94.0084 211.094 93.8115 211.195 93.5899C211.295 93.3683 211.344 93.1275 211.34 92.8845C211.356 92.507 211.222 92.1385 210.967 91.8588C210.406 91.4419 209.808 91.0771 209.18 90.7691C208.288 90.3605 207.504 89.7503 206.89 88.9871C206.511 88.409 206.318 87.729 206.337 87.0384C206.328 86.6273 206.407 86.2191 206.569 85.841C206.731 85.4629 206.972 85.1236 207.276 84.846C207.927 84.2624 208.781 83.9544 209.656 83.9871C210.223 83.9958 210.783 84.1179 211.302 84.346C211.433 84.4166 211.578 84.4602 211.726 84.4742C211.881 84.4742 211.984 84.346 212.035 84.0768C212.086 83.8076 212.035 83.9358 212.164 83.9358C212.292 83.9358 212.318 83.9999 212.318 84.1409C212.326 84.2818 212.326 84.4231 212.318 84.564C212.307 84.7604 212.307 84.9573 212.318 85.1537C212.297 85.5808 212.297 86.0087 212.318 86.4358C212.325 86.4782 212.325 86.5215 212.318 86.564C212.32 86.5818 212.318 86.5999 212.312 86.617C212.306 86.634 212.297 86.6497 212.285 86.663C212.273 86.6763 212.258 86.6869 212.242 86.6942C212.225 86.7014 212.207 86.7051 212.189 86.705C212.099 86.705 212.009 86.5383 211.906 86.205C211.806 85.8549 211.645 85.5251 211.431 85.2307C211.242 84.9563 211.002 84.7212 210.723 84.5383C210.397 84.3436 210.022 84.2458 209.643 84.2563C209.15 84.2326 208.665 84.3774 208.267 84.6665C208.102 84.8064 207.971 84.9818 207.884 85.1794C207.797 85.3771 207.756 85.5919 207.765 85.8076C207.764 86.016 207.805 86.2225 207.887 86.4144C207.969 86.6062 208.089 86.7793 208.241 86.923C208.796 87.428 209.414 87.8589 210.08 88.205C210.873 88.602 211.612 89.0974 212.279 89.6794C212.78 90.2373 213.039 90.9702 213 91.7178Z" fill="#fff"/>
</g>
<defs>
<clipPath id="clip0_33_805">
<rect width="213" height="95" fill="white"/>
</clipPath>
</defs>
</svg>
