<svg width="99" height="24" viewBox="0 0 99 24" fill="none" xmlns="http://www.w3.org/2000/svg">
<path d="M22.5764 23.378C22.5764 23.5783 22.376 23.6451 22.0421 23.6451C21.8417 23.6451 21.6413 23.6451 21.4409 23.5783L17.1661 23.4447L12.8913 23.5783C12.7577 23.5783 12.5573 23.6451 12.3569 23.6451C11.8894 23.6451 11.689 23.5115 11.689 23.3112C11.689 23.044 12.0229 22.9104 12.6241 22.9104C14.5611 22.9104 15.563 22.71 15.563 22.3092C15.563 22.3092 15.563 22.1757 15.4962 22.0421L15.2291 21.1738L15.0287 20.7062C14.8283 20.0382 14.3607 18.502 13.5592 16.0974H6.41222C5.07634 19.6375 4.4084 21.7081 4.4084 22.2424C4.4084 22.5764 4.54199 22.7768 4.80917 22.8436C4.87596 22.8436 5.41031 22.9104 6.47902 22.9772C7.14696 22.9772 7.41413 23.1108 7.41413 23.3112C7.41413 23.5115 7.14697 23.6451 6.54582 23.6451C5.54391 23.6451 4.34162 23.5783 2.93894 23.5115C2.60497 23.5115 2.271 23.5115 1.93703 23.5115C1.60306 23.5115 1.20229 23.5783 0.868316 23.6451C0.667933 23.7119 0.534341 23.7119 0.467547 23.7119C0.133576 23.7119 0 23.5783 0 23.378C0 23.1776 0.333954 23.044 1.06869 23.044C1.80343 23.044 2.271 22.9104 2.60497 22.71C2.93894 22.5096 3.13932 22.1757 3.33971 21.6413C6.21186 13.4256 8.54965 6.813 10.3531 1.80344C10.4199 1.53626 10.4867 1.26908 10.6871 0.935114L10.8206 0.333971C10.8874 0.0667941 10.9542 0 11.0878 0C11.1546 0 11.2214 0.0667962 11.2882 0.200384C11.5554 1.06871 12.2233 2.87214 13.2252 5.6107C14.0268 7.74812 16.0306 13.2252 19.2367 21.9085C19.4371 22.4428 19.6375 22.71 19.9046 22.8436C20.1718 22.9772 20.773 23.044 21.6413 23.1108C22.3092 23.1108 22.5764 23.1776 22.5764 23.378ZM13.5592 15.3627C13.2252 14.3607 12.6241 12.6909 11.7558 10.3531L10.1527 5.7443C9.21758 8.21568 8.08208 11.4218 6.74619 15.3627H13.5592Z" fill="black"/>
<path d="M42.2814 22.5779C42.2814 23.513 41.4799 23.9806 39.9437 23.9806C38.207 23.9806 36.8711 23.2458 35.8692 21.7764C35.4684 21.1752 35.2013 20.5741 35.0677 19.9729C34.9341 19.3718 34.7337 17.9023 34.5333 15.5645C34.3997 14.1618 33.9322 13.1599 33.1974 12.5588C32.3959 11.9576 31.1268 11.6237 29.3902 11.6237V22.1771C29.3902 22.6447 29.7241 22.9119 30.4589 23.0455C30.6593 23.0455 31.1936 23.1123 31.9952 23.1123C32.2623 23.1123 32.4627 23.179 32.4627 23.3794C32.4627 23.5798 32.2623 23.6466 31.8616 23.6466H31.4608H28.5219H26.852H25.3157H24.0467C23.5791 23.6466 23.3119 23.5798 23.3119 23.3794C23.3119 23.2458 23.6459 23.1123 24.3138 23.1123C25.3825 23.1123 25.9169 22.9787 25.9837 22.7115C26.0505 22.5779 26.1173 22.1771 26.1173 21.3756V2.94042C26.1173 2.07209 26.0505 1.53774 25.8501 1.33736C25.6497 1.13698 25.1153 1.07018 24.1134 1.00339C23.5791 1.00339 23.2451 0.936601 23.2451 0.736218C23.2451 0.535836 23.4455 0.402247 23.7795 0.402247C23.8463 0.402247 23.9798 0.402247 24.1134 0.402247L28.5219 0.469035C28.9894 0.469035 29.5906 0.469042 30.3921 0.402247C31.2604 0.335453 31.9284 0.335449 32.2623 0.335449C34.3329 0.335449 36.0028 0.803012 37.2051 1.73813C38.4074 2.67325 39.0085 3.94234 39.0085 5.47861C39.0085 7.01487 38.4074 8.35075 37.1383 9.35266C35.8692 10.3546 34.1994 10.9557 32.062 11.1561C31.8616 11.1561 31.728 11.2229 31.728 11.2897C31.728 11.3565 31.8616 11.4233 32.062 11.4233C34.3997 11.824 36.0028 12.6256 36.8711 13.8947C37.7394 15.1637 38.3406 17.368 38.6078 20.6409C38.8082 22.4443 39.4093 23.3794 40.478 23.3794C40.812 23.3794 41.0124 23.3126 41.0124 23.1791V23.1123C40.8788 22.8451 40.812 22.6447 40.812 22.5111C40.812 22.0436 41.0791 21.8432 41.5467 21.8432C42.0143 21.7764 42.2814 22.0435 42.2814 22.5779ZM35.3349 5.87935C35.3349 2.67324 33.9322 1.13698 31.1936 1.13698C30.4589 1.13698 29.9245 1.20377 29.6574 1.47095C29.3902 1.67133 29.2566 2.00529 29.2566 2.53965V11.0225C31.394 11.0225 32.9303 10.6885 33.8654 9.82023C34.8673 8.9519 35.3349 7.6828 35.3349 5.87935Z" fill="black"/>
<path d="M60.4502 6.34507C60.4502 6.61224 60.3166 6.81263 60.0495 6.81263C59.7823 6.81263 59.5819 6.54544 59.4483 5.9443C59.3815 5.54353 59.3815 5.14278 59.3147 4.74201C59.1811 3.94048 58.914 3.27254 58.58 2.67139C58.1124 1.93665 57.3109 1.46909 56.309 1.26871C55.641 1.13512 55.0399 1.06833 54.6391 1.06833C53.5704 1.06833 52.9693 1.13512 52.7021 1.13512V21.307C52.7021 22.1085 52.9025 22.6428 53.3032 22.8432C53.5036 22.9768 54.1716 23.0436 55.1735 23.0436C55.4407 23.0436 55.5742 23.1772 55.5742 23.3108C55.5742 23.5112 55.3739 23.5779 55.0399 23.5779C54.8395 23.5779 54.7059 23.5779 54.5723 23.5779C53.2364 23.5112 52.3013 23.5112 51.7002 23.5112C50.9655 23.5112 50.2975 23.5112 49.6296 23.5779C48.9616 23.5779 48.1601 23.6447 47.1582 23.6447C46.6238 23.6447 46.4235 23.578 46.4235 23.3776C46.4235 23.1772 46.891 23.0436 47.8261 23.0436C48.4941 23.0436 48.9616 22.91 49.162 22.576C49.2956 22.3757 49.3624 21.9081 49.3624 21.1734V1.13512C47.1582 1.13512 45.7555 1.26871 45.2879 1.46909C43.8853 2.00344 43.0837 3.33932 42.8166 5.61033C42.7498 6.27827 42.6162 6.61224 42.349 6.61224C42.0818 6.61224 41.9482 6.34506 41.9482 5.8775C41.9482 5.61032 41.9482 5.40996 41.9482 5.14278L42.015 4.40804C42.0818 3.40613 42.2154 2.07024 42.349 0.400391H43.8853L50.6983 0.467179C51.4998 0.467179 52.7689 0.467179 54.4388 0.467179L59.9827 0.400391C60.0495 1.66948 60.1831 3.47291 60.3834 5.9443C60.3834 6.01109 60.3834 6.07788 60.3834 6.21147C60.3834 6.34506 60.4502 6.34507 60.4502 6.34507Z" fill="black"/>
<path d="M79.4194 20.9748C79.4194 21.576 79.3526 22.5111 79.2858 23.847H78.9518C78.8183 23.847 78.4843 23.847 78.0167 23.7802C77.4824 23.7134 76.948 23.7134 76.2801 23.7134L62.3869 23.6466C61.9861 23.6466 61.8525 23.5798 61.8525 23.3126C61.8525 23.179 62.1197 23.0455 62.7877 23.0455C63.656 22.9787 64.1235 22.9119 64.3239 22.7783C64.5243 22.6447 64.5911 22.2439 64.5911 21.5092V2.74004C64.5911 1.93851 64.5243 1.40415 64.3239 1.27056C64.1235 1.13697 63.5892 1.07019 62.5205 1.07019C62.1197 1.07019 61.9193 0.936601 61.9193 0.736218C61.9193 0.535836 62.0529 0.402247 62.3201 0.402247H62.5873C63.322 0.469042 64.7915 0.469035 66.9957 0.469035C67.1961 0.469035 67.5968 0.469042 68.198 0.402247C68.7991 0.335453 69.2667 0.335449 69.6007 0.335449H69.9346C70.3354 0.335449 70.5358 0.469038 70.5358 0.66942C70.5358 0.803008 70.469 0.869798 70.3354 0.936592C70.2018 0.936592 69.801 1.00339 69.1999 1.00339C68.532 1.00339 68.198 1.13698 68.0644 1.33736C67.9308 1.53774 67.864 2.1389 67.864 3.07401V22.7783C68.4652 22.7783 69.3335 22.7783 70.4022 22.7783C73.0072 22.7783 74.8774 22.6447 75.9461 22.3775C77.0148 22.1103 77.7496 21.6428 78.1503 20.8413C78.5511 20.1065 78.7515 19.1046 78.8183 17.9023C78.8183 17.6351 78.9518 17.5016 79.219 17.5016C79.4862 17.5016 79.6198 17.7019 79.6198 18.0359V18.9042V19.1714V19.639V20.9748H79.4194Z" fill="black"/>
<path d="M98.5233 18.2363C98.5233 18.3031 98.5233 18.9042 98.4565 19.9061C98.3897 20.908 98.3897 21.8432 98.3897 22.7783V23.9138C96.1855 23.7802 91.9107 23.7134 85.4316 23.7134H83.0939H81.5576H81.2236C80.8228 23.7134 80.5557 23.6466 80.5557 23.4462C80.5557 23.3126 80.6225 23.2458 80.7561 23.2458C80.8229 23.2458 81.2236 23.2459 82.0251 23.1791C82.6263 23.1123 82.9603 22.9787 83.0939 22.7783C83.2274 22.5779 83.2942 22.0436 83.2942 21.1752V2.33927C83.2942 1.67133 83.2274 1.33736 83.0271 1.20378C82.8267 1.07019 82.2255 1.00339 81.2236 1.00339C80.8896 1.00339 80.6893 0.936601 80.6893 0.736218C80.6893 0.535836 80.9564 0.469035 81.424 0.469035H87.1015H90.842H95.5176C96.1855 0.469035 96.7866 0.402243 97.3878 0.335449C97.4546 1.27057 97.5214 2.60645 97.7218 4.3431L97.8554 5.74578C97.8554 5.87937 97.8554 6.01296 97.8554 6.14655C97.8554 6.34693 97.7886 6.48052 97.5214 6.48052C97.2542 6.48052 97.1206 6.21333 96.987 5.61218C96.5863 3.60836 95.8515 2.33927 94.9164 1.80492C94.1817 1.40415 92.3114 1.20378 89.3057 1.20378H86.5671V11.0225H87.3687C89.8401 11.0225 91.3763 10.8221 91.9107 10.4214C92.445 10.0206 92.8458 8.9519 93.0462 7.08166C93.113 6.6141 93.2466 6.41372 93.3801 6.41372C93.6473 6.41372 93.7809 6.6141 93.7809 7.01486C93.7809 7.41563 93.7809 8.01678 93.7141 8.75152C93.6473 9.55305 93.6473 10.1542 93.6473 10.4882C93.6473 12.8928 93.7141 14.4958 93.7809 15.4309C93.7809 15.6313 93.7809 15.8317 93.7809 16.0321C93.7809 16.2993 93.6473 16.4328 93.4469 16.4328C93.3134 16.4328 93.1798 16.3661 93.113 16.1657C93.0462 15.9653 92.9794 15.3641 92.8458 14.2954C92.6454 12.9595 92.1111 12.158 91.2427 11.8241C90.842 11.6905 89.7733 11.6237 88.1034 11.6237H86.6339V22.8451C91.5099 22.8451 94.3821 22.7783 95.2504 22.5779C96.7198 22.2439 97.5882 20.8413 97.7886 18.3699C97.8554 17.8355 97.9889 17.5683 98.2561 17.5683C98.4565 17.5015 98.5233 17.7687 98.5233 18.2363Z" fill="black"/>
</svg>
