<svg width="54" height="38" viewBox="0 0 54 38" fill="none" xmlns="http://www.w3.org/2000/svg">
<path d="M1.39914 0.439941C0.701093 0.439941 0.119141 1.02186 0.119141 1.71994V36.2799C0.119141 36.978 0.701093 37.5599 1.39914 37.5599H52.5991C53.2972 37.5599 53.8791 36.978 53.8791 36.2799V1.71994C53.8791 1.02186 53.2972 0.439941 52.5991 0.439941H1.39914ZM2.31914 1.71994H51.6791L26.9991 25.7999L2.31914 1.71994ZM1.39914 2.59994L17.6391 18.4399L1.39914 35.2799V2.59994ZM52.5991 2.59994V35.2799L36.3591 18.4399L52.5991 2.59994ZM18.5591 19.3399L26.5591 27.14C26.678 27.2525 26.8355 27.3152 26.9991 27.3152C27.1628 27.3152 27.3203 27.2525 27.4391 27.14L35.4391 19.3399L51.7991 36.2799H2.19914L18.5591 19.3399ZM1.39914 36.1999L1.47914 36.2799H1.39914V36.1999ZM52.5991 36.1999V36.2799H52.5191L52.5991 36.1999Z" fill="white"/>
</svg>
