<svg width="42" height="68" viewBox="0 0 42 68" fill="none" xmlns="http://www.w3.org/2000/svg">
<path d="M10.4696 66.7275C10.5671 67.0687 10.8921 67.3125 11.2496 67.3125H30.7496C31.1071 67.3125 31.4321 67.085 31.5296 66.7275L38.0621 44.985C40.1096 41.8162 41.3284 38.0462 41.3284 33.9837C41.3284 29.9375 40.1259 26.1512 38.0621 22.9825L31.5296 1.2725C31.4321 0.93125 31.1071 0.6875 30.7496 0.6875H11.2496C10.8921 0.6875 10.5671 0.93125 10.4696 1.2725L3.93715 23.015C1.88965 26.1838 0.670898 29.9538 0.670898 34.0163C0.670898 38.0625 1.8734 41.8325 3.93715 45.0175L10.4696 66.7275ZM30.1484 65.6875H11.8509L6.6509 48.365C10.3234 52.0375 15.3934 54.3125 20.9996 54.3125C26.5896 54.3125 31.6759 52.0375 35.3484 48.365L30.1484 65.6875ZM11.8509 2.3125H30.1484L35.3484 19.635C31.6759 15.9625 26.5896 13.6875 20.9996 13.6875C15.4096 13.6875 10.3396 15.9625 6.6509 19.635L11.8509 2.3125ZM20.9996 15.3125C31.3021 15.3125 39.6871 23.6975 39.6871 34C39.6871 44.3025 31.3021 52.6875 20.9996 52.6875C10.6971 52.6875 2.31215 44.3025 2.31215 34C2.31215 23.6975 10.6971 15.3125 20.9996 15.3125Z" fill="white"/>
</svg>
