<svg width="56" height="58" viewBox="0 0 56 58" fill="none" xmlns="http://www.w3.org/2000/svg">
<path d="M18.409 0.620135C15.9699 0.615515 13.5304 1.53435 11.6646 3.40451C7.93314 7.14487 7.93316 13.2148 11.6646 16.9551L26.7827 32.0939C26.9063 32.216 27.0731 32.2846 27.2468 32.2846C27.4206 32.2846 27.5873 32.216 27.7109 32.0939L42.829 16.9551C46.5589 13.2164 46.5811 7.16549 42.8496 3.42513C42.8181 3.39426 42.7835 3.36662 42.7465 3.34263C39.0081 -0.302559 33.0399 -0.28332 29.3402 3.42513L27.2571 5.52888L25.1534 3.42513C23.2884 1.55575 20.8481 0.624735 18.409 0.620135ZM18.409 1.91951C20.5056 1.92347 22.609 2.75382 24.2252 4.37388L26.7827 6.93139C26.9063 7.05354 27.0731 7.12205 27.2468 7.12205C27.4206 7.12205 27.5873 7.05354 27.7109 6.93139L30.289 4.37388C33.5199 1.13532 38.6906 1.13533 41.9215 4.37388C41.9346 4.38824 41.9484 4.402 41.9627 4.41513C45.1511 7.6563 45.1192 12.7805 41.9009 16.0064L27.2571 30.6914L12.5927 16.0064C9.36187 12.7678 9.36186 7.59183 12.5927 4.35326C14.2082 2.73398 16.3124 1.91531 18.409 1.91951ZM52.5434 27.2058C51.6947 27.2058 50.9173 27.5754 50.3571 28.1545C50.3505 28.1611 50.3431 28.1685 50.3365 28.1751C50.3167 28.1949 48.5102 29.9835 46.5621 31.9289C44.6034 33.8849 42.5474 35.9527 41.9834 36.5695C41.9149 36.6311 41.86 36.7063 41.8224 36.7904C41.7847 36.8744 41.765 36.9654 41.7646 37.0575C41.7642 37.1496 41.7831 37.2408 41.8201 37.3251C41.857 37.4095 41.9112 37.4852 41.9791 37.5474C42.0471 37.6095 42.1273 37.6568 42.2146 37.6861C42.3019 37.7154 42.3944 37.7261 42.4861 37.7176C42.5778 37.709 42.6667 37.6813 42.7471 37.6363C42.8274 37.5914 42.8975 37.5301 42.9527 37.4564C43.4193 36.9461 45.5335 34.8111 47.4902 32.857C49.447 30.9028 51.2852 29.0826 51.2852 29.0826C51.2921 29.0827 51.299 29.0827 51.3059 29.0826C51.6452 28.7256 52.0674 28.5258 52.5434 28.5258C53.5348 28.5258 54.3996 29.435 54.3996 30.6708C54.3996 31.2133 54.2216 31.7015 53.9459 32.0733C53.9231 32.1003 45.9897 41.6375 40.8696 47.6245C39.4024 49.3402 37.2913 51.1308 34.2902 51.1308H18.6359C17.0181 51.1308 15.5025 51.4027 14.284 52.5951L10.5509 56.2458C10.4787 56.3039 10.4197 56.3765 10.3775 56.459C10.3352 56.5415 10.3109 56.6319 10.3059 56.7244C10.301 56.8169 10.3155 56.9094 10.3487 56.9959C10.3818 57.0824 10.4328 57.161 10.4983 57.2265C10.5638 57.292 10.6424 57.3429 10.7289 57.3761C10.8154 57.4092 10.9079 57.4238 11.0004 57.4188C11.0929 57.4139 11.1833 57.3895 11.2658 57.3473C11.3482 57.3051 11.4209 57.246 11.479 57.1739L15.1915 53.5233C16.0997 52.6346 17.1506 52.4508 18.6359 52.4508H34.2902C37.8176 52.4508 40.2977 50.3206 41.8802 48.4701C47.0193 42.4609 54.9977 32.8983 54.9977 32.8983C55.0051 32.8848 55.012 32.871 55.0184 32.857C55.4655 32.2541 55.7196 31.4935 55.7196 30.6708C55.7196 28.7972 54.3324 27.2058 52.5434 27.2058ZM17.7284 37.0439C14.9884 37.0439 12.276 37.4177 10.1384 39.1683L0.527119 47.047C0.459406 47.1012 0.403026 47.1682 0.361197 47.2441C0.319369 47.3201 0.292912 47.4035 0.283336 47.4897C0.27376 47.5759 0.281252 47.6631 0.305386 47.7464C0.329521 47.8297 0.369824 47.9074 0.423994 47.9751C0.533396 48.1119 0.692642 48.1996 0.866699 48.2189C0.952883 48.2285 1.04011 48.221 1.1234 48.1969C1.20669 48.1727 1.28441 48.1324 1.35212 48.0783L10.984 40.1995C12.767 38.7394 15.1099 38.3639 17.7284 38.3639H37.6109C38.1603 39.2873 38.1039 40.497 37.5284 41.5608C36.9061 42.711 35.8218 43.4786 34.9915 43.3964C34.9712 43.3885 34.9506 43.3816 34.9296 43.3758H22.3277C22.2403 43.3745 22.1535 43.3907 22.0723 43.4233C21.9911 43.4559 21.9173 43.5043 21.855 43.5657C21.7927 43.6271 21.7432 43.7003 21.7095 43.781C21.6757 43.8617 21.6583 43.9483 21.6583 44.0358C21.6583 44.1232 21.6757 44.2098 21.7095 44.2905C21.7432 44.3712 21.7927 44.4444 21.855 44.5058C21.9173 44.5672 21.9911 44.6156 22.0723 44.6482C22.1535 44.6808 22.2403 44.697 22.3277 44.6958H34.8471H34.9296C36.509 44.8066 37.8988 43.6297 38.6834 42.1795C39.4819 40.7036 39.6996 38.777 38.5802 37.312C38.5205 37.2309 38.4429 37.1646 38.3535 37.1181C38.2642 37.0717 38.1653 37.0463 38.0646 37.0439H17.7284Z" fill="white"/>
</svg>
