<svg width="121" height="70" viewBox="0 0 121 70" fill="none" xmlns="http://www.w3.org/2000/svg">
<path d="M83.1341 49.7884C83.6353 49.7884 84.0416 49.379 84.0416 48.8741C84.0416 48.3691 83.6353 47.9597 83.1341 47.9597C82.6329 47.9597 82.2266 48.3691 82.2266 48.8741C82.2266 49.379 82.6329 49.7884 83.1341 49.7884Z" fill="white"/>
<path d="M85.886 49.7884C86.3872 49.7884 86.7935 49.379 86.7935 48.8741C86.7935 48.3691 86.3872 47.9597 85.886 47.9597C85.3848 47.9597 84.9785 48.3691 84.9785 48.8741C84.9785 49.379 85.3848 49.7884 85.886 49.7884Z" fill="white"/>
<path d="M96.3656 57.0869L95.9739 56.3265C97.0024 55.8934 97.7252 54.87 97.7252 53.6766C97.7252 52.0885 96.4484 50.802 94.8722 50.802H92.5764H91.6784H90.7932H89.5195L90.7932 52.3516V59.4096H92.5732V58.768V56.5511H94.1143L94.8817 58.1039C95.2798 58.9059 95.9994 59.4128 96.891 59.4128H98.1073V57.7638H97.5087C96.8655 57.7638 96.528 57.4045 96.3656 57.0869ZM94.748 54.8764H92.57V52.4767H94.748C95.4071 52.4767 95.9389 53.0125 95.9389 53.6766C95.9421 54.3374 95.4071 54.8764 94.748 54.8764Z" fill="white"/>
<path d="M23.8008 50.802L25.0777 52.3516V59.4096H26.8353V50.802H25.0777H23.8008Z" fill="white"/>
<path d="M0 50.802L1.27368 52.3516V59.4096H3.03455V50.802H1.27368H0Z" fill="white"/>
<path d="M11.434 56.3522L6.80732 50.802H5.77564H4.50195L5.77564 52.3516V59.4096H7.53651V54.4754L11.6123 59.4096H13.214V50.802H11.434V56.3522Z" fill="white"/>
<path d="M99.0547 50.802L100.332 52.3516V59.4096H102.089V50.802H100.332H99.0547Z" fill="white"/>
<path d="M63.2855 56.3522L58.6589 50.802H57.6272H56.3535L57.6272 52.3516V59.4096H59.3881V54.4754L63.4639 59.4096H65.0655V50.802H63.2855V56.3522Z" fill="white"/>
<path d="M44.2572 54.2925H40.2324V50.802H38.4492V59.4096H40.2292V55.9191H40.5922H44.2572V59.4096H46.0372V50.802H44.2572V54.2925Z" fill="white"/>
<path d="M109.64 57.4883C109.254 57.6872 108.825 57.7866 108.36 57.7866C107.984 57.7866 107.621 57.7193 107.287 57.5845C106.949 57.4498 106.643 57.2605 106.382 57.0231C106.124 56.7889 105.917 56.5033 105.768 56.1793C105.618 55.8553 105.545 55.4575 105.545 55.0789C105.545 54.7003 105.618 54.3025 105.768 53.9785C105.917 53.6512 106.124 53.3689 106.382 53.1347C106.643 52.8973 106.949 52.708 107.287 52.5733C107.624 52.4385 107.984 52.3712 108.36 52.3712C108.825 52.3712 109.254 52.4706 109.64 52.6695C110.003 52.8556 110.315 53.1155 110.573 53.4299L111.983 52.2942L111.821 52.1113C111.391 51.6333 110.872 51.2515 110.28 50.9788C109.684 50.7029 109.038 50.5649 108.35 50.5649C107.71 50.5649 107.105 50.6836 106.551 50.9211C106 51.1553 105.513 51.4857 105.105 51.8963C104.695 52.3102 104.37 52.8011 104.137 53.3593C103.914 53.8919 103.787 54.4693 103.787 55.0757C103.787 55.682 103.914 56.2595 104.137 56.7921C104.37 57.3503 104.698 57.8444 105.105 58.255C105.516 58.6689 106.003 58.9961 106.551 59.2303C107.105 59.4677 107.71 59.5864 108.35 59.5864C109.038 59.5864 109.684 59.4485 110.28 59.1726C110.872 58.8999 111.388 58.5181 111.821 58.0401L111.983 57.8572L110.573 56.7215C110.315 57.0423 110.006 57.299 109.64 57.4883Z" fill="white"/>
<path d="M34.5147 57.4883C34.1294 57.6872 33.6995 57.7866 33.2346 57.7866C32.8589 57.7866 32.4959 57.7193 32.1616 57.5845C31.824 57.4498 31.5183 57.2605 31.2572 57.0231C30.9993 56.7889 30.7923 56.5033 30.6427 56.1793C30.493 55.8553 30.4198 55.4575 30.4198 55.0789C30.4198 54.7003 30.493 54.3025 30.6427 53.9785C30.7923 53.6512 30.9993 53.3689 31.2572 53.1347C31.5183 52.8973 31.824 52.708 32.1616 52.5733C32.4991 52.4385 32.8589 52.3712 33.2346 52.3712C33.6995 52.3712 34.1294 52.4706 34.5147 52.6695C34.8777 52.8556 35.1897 53.1155 35.4477 53.4299L36.8583 52.2942L36.6959 52.1113C36.266 51.6333 35.747 51.2515 35.1547 50.9788C34.5593 50.7029 33.9129 50.5649 33.2251 50.5649C32.5851 50.5649 31.9801 50.6836 31.426 50.9211C30.8751 51.1553 30.388 51.4857 29.9804 51.8963C29.5696 52.3102 29.2448 52.8011 29.0124 53.3593C28.7895 53.8919 28.6621 54.4693 28.6621 55.0757C28.6621 55.682 28.7895 56.2595 29.0124 56.7921C29.2448 57.3503 29.5728 57.8444 29.9804 58.255C30.3911 58.6689 30.8783 58.9961 31.426 59.2303C31.9801 59.4677 32.5851 59.5864 33.2251 59.5864C33.9129 59.5864 34.5593 59.4485 35.1547 59.1726C35.747 58.8999 36.266 58.5181 36.6959 58.0401L36.8583 57.8572L35.4477 56.7215C35.1866 57.0423 34.8777 57.299 34.5147 57.4883Z" fill="white"/>
<path d="M119.22 50.802V54.2925H115.192L115.195 50.802H113.412V59.4096H115.192V55.9191H115.555H119.22V59.4096H121V50.802H119.22Z" fill="white"/>
<path d="M17.8056 57.6066V56.0955V55.9191H21.0471V54.2925H17.8056V54.2348V52.6082V52.4286H17.8693H22.2221V50.802H16.914H16.0256H14.752L16.0256 52.3516V59.4096H16.914H17.9553H22.6902V57.7831H17.8056V57.6066Z" fill="white"/>
<path d="M50.5666 57.6066V56.0955V55.9191H53.8081V54.2925H50.5666V54.2348V52.6082V52.4286H50.6303H54.9831V50.802H49.675H48.7866H47.5098L48.7866 52.3516V59.4096H49.675H50.7131H55.4512V57.7831H50.5666V57.6066Z" fill="white"/>
<path d="M86.6185 55.8966C86.6185 57.0644 85.5996 57.7895 84.5265 57.7895C83.4534 57.7895 82.4345 57.0644 82.4345 55.8966V50.802H80.6545H79.3809L80.6545 52.3516V55.9929C80.6545 57.7574 82.1511 59.5893 84.5265 59.5893C86.9019 59.5893 88.3985 57.7542 88.3985 55.9929V50.802H86.6185V55.8966Z" fill="white"/>
<path d="M77.1409 50.802H71.1131V52.4286H75.7398L70.4062 58.0814L71.4857 59.3743L71.5175 59.4096H78.3445V57.7831H73.2529L78.3986 52.3291L77.1409 50.802Z" fill="white"/>
<path d="M23.1247 67.2108H22.0898V66.5146H24.9079V67.2108H23.873V69.941H23.1247V67.2108Z" fill="white"/>
<path d="M26.2109 66.5164H26.9592V67.8702H28.338V66.5164H29.0863V69.9395H28.338V68.5664H26.9592V69.9395H26.2109V66.5164Z" fill="white"/>
<path d="M30.6328 66.5164H33.1961V67.1869H31.3747V67.8831H32.9764V68.5536H31.3747V69.2722H33.2184V69.9427H30.6328V66.5164Z" fill="white"/>
<path d="M36.5723 69.442L37.0149 68.9095C37.3206 69.1629 37.6422 69.3265 38.0306 69.3265C38.3363 69.3265 38.521 69.2046 38.521 68.9929C38.521 68.8004 38.4032 68.7041 37.8364 68.5566C37.1518 68.3801 36.7092 68.1908 36.7092 67.5011C36.7092 66.8787 37.2059 66.468 37.9001 66.468C38.3936 66.468 38.8171 66.6252 39.1642 66.9043L38.7757 67.4722C38.4764 67.2604 38.1771 67.1353 37.8905 67.1353C37.6039 67.1353 37.4543 67.2669 37.4543 67.4433C37.4543 67.6679 37.6008 67.7417 38.1867 67.8925C38.8776 68.0721 39.2629 68.3224 39.2629 68.9287C39.2629 69.6089 38.7471 69.9906 38.0147 69.9906C37.4989 69.9906 36.9798 69.811 36.5723 69.442Z" fill="white"/>
<path d="M40.3809 66.5165H41.1833L41.887 68.836L42.648 66.5068H43.288L44.0491 68.836L44.7528 66.5165H45.5329L44.3739 69.9653H43.7243L42.9569 67.726L42.1895 69.9653H41.5399L40.3809 66.5165Z" fill="white"/>
<path d="M46.8613 66.5164H47.6096V69.9395H46.8613V66.5164Z" fill="white"/>
<path d="M48.9531 69.442L49.3957 68.9095C49.7014 69.1629 50.023 69.3265 50.4115 69.3265C50.7172 69.3265 50.9019 69.2046 50.9019 68.9929C50.9019 68.8004 50.784 68.7041 50.2173 68.5566C49.5327 68.3801 49.09 68.1908 49.09 67.5011C49.09 66.8787 49.5868 66.468 50.2809 66.468C50.7745 66.468 51.198 66.6252 51.5451 66.9043L51.1566 67.4722C50.8573 67.2604 50.558 67.1353 50.2714 67.1353C49.9848 67.1353 49.8352 67.2669 49.8352 67.4433C49.8352 67.6679 49.9816 67.7417 50.5675 67.8925C51.2585 68.0721 51.6438 68.3224 51.6438 68.9287C51.6438 69.6089 51.1279 69.9906 50.3956 69.9906C49.8829 69.9906 49.3639 69.811 48.9531 69.442Z" fill="white"/>
<path d="M52.791 69.442L53.2336 68.9095C53.5393 69.1629 53.8609 69.3265 54.2494 69.3265C54.5551 69.3265 54.7398 69.2046 54.7398 68.9929C54.7398 68.8004 54.6219 68.7041 54.0551 68.5566C53.3705 68.3801 52.9279 68.1908 52.9279 67.5011C52.9279 66.8787 53.4247 66.468 54.1188 66.468C54.6124 66.468 55.0359 66.6252 55.383 66.9043L54.9945 67.4722C54.6952 67.2604 54.3959 67.1353 54.1093 67.1353C53.8227 67.1353 53.673 67.2669 53.673 67.4433C53.673 67.6679 53.8195 67.7417 54.4054 67.8925C55.0964 68.0721 55.4817 68.3224 55.4817 68.9287C55.4817 69.6089 54.9658 69.9906 54.2335 69.9906C53.7176 69.9906 53.1986 69.811 52.791 69.442Z" fill="white"/>
<path d="M60.2169 66.4937H60.9079L62.3663 69.9425H61.5861L61.2741 69.1757H59.838L59.5259 69.9425H58.7617L60.2169 66.4937ZM61.0034 68.5084L60.5513 67.3984L60.0991 68.5084H61.0034Z" fill="white"/>
<path d="M63.5684 68.4734V66.5164H64.3166V68.4541C64.3166 69.0123 64.5937 69.3011 65.049 69.3011C65.5044 69.3011 65.7814 69.022 65.7814 68.4798V66.5164H66.5297V68.4477C66.5297 69.484 65.9533 69.9941 65.0395 69.9941C64.1256 69.9941 63.5684 69.4807 63.5684 68.4734Z" fill="white"/>
<path d="M67.873 68.2294C67.873 67.2573 68.6022 66.4585 69.6467 66.4585C70.2867 66.4585 70.6465 66.7023 70.9617 67.0167L70.516 67.5365C70.2548 67.2958 70.0288 67.1547 69.6403 67.1547C69.0671 67.1547 68.6564 67.6359 68.6564 68.2294C68.6564 68.8165 69.0608 69.3074 69.6403 69.3074C70.0288 69.3074 70.2676 69.1502 70.5351 68.9064L71.0095 69.4197C70.6592 69.795 70.2708 70.0004 69.6148 70.0004C68.615 70.0004 67.873 69.224 67.873 68.2294Z" fill="white"/>
<path d="M73.1306 67.2125H72.0957V66.5164H74.9137V67.2125H73.8789V69.9427H73.1306V67.2125Z" fill="white"/>
<path d="M76.25 66.5164H76.9983V69.9395H76.25V66.5164Z" fill="white"/>
<path d="M78.4277 68.2294C78.4277 67.2573 79.1888 66.4585 80.2395 66.4585C81.2903 66.4585 82.0418 67.2445 82.0418 68.2294C82.0418 69.2047 81.2776 70.0004 80.23 70.0004C79.1824 70.0004 78.4277 69.2112 78.4277 68.2294ZM81.2585 68.2294C81.2585 67.6423 80.8318 67.1547 80.23 67.1547C79.6282 67.1547 79.211 67.6359 79.211 68.2294C79.211 68.8165 79.6377 69.3074 80.2395 69.3074C80.8414 69.3074 81.2585 68.8262 81.2585 68.2294Z" fill="white"/>
<path d="M83.4355 66.5164H84.1265L85.7186 68.6241V66.5164H86.4574V69.9395H85.8205L84.1743 67.7611V69.9395H83.4355V66.5164Z" fill="white"/>
<path d="M88.0051 66.5164H90.5684V67.1869H88.7471V67.8831H90.3487V68.5536H88.7471V69.2722H90.5907V69.9427H88.002V66.5164H88.0051Z" fill="white"/>
<path d="M91.9895 66.5164H94.5528V67.1869H92.7314V67.8831H94.3331V68.5536H92.7314V69.2722H94.5751V69.9427H91.9863V66.5164H91.9895Z" fill="white"/>
<path d="M95.9766 66.5164H97.5305C97.9635 66.5164 98.2979 66.6383 98.5208 66.8628C98.7086 67.0553 98.8105 67.3216 98.8105 67.6553C98.8105 68.2071 98.5144 68.5568 98.0813 68.7172L98.9124 69.9395H98.0399L97.3012 68.8423H96.7249V69.9395H95.9766V66.5164ZM97.4795 68.1814C97.8425 68.1814 98.0527 67.9857 98.0527 67.6874C98.0527 67.3633 97.8298 67.1965 97.4636 67.1965H96.7217V68.1814H97.4795Z" fill="white"/>
<path d="M77.7095 20.1136L77.1714 20.2484L77.0312 19.6869L77.9196 19.4207H78.3845V22.5615H77.7127V20.1136H77.7095Z" fill="white"/>
<path d="M79.1084 22.2428L79.465 21.723C79.6911 21.9059 79.8821 21.9893 80.1401 21.9893C80.519 21.9893 80.7228 21.7006 80.7673 21.2803C80.6177 21.4086 80.4107 21.4952 80.1401 21.4952C79.4682 21.4952 79.0352 21.1199 79.0352 20.4782C79.0352 19.8494 79.516 19.3875 80.2165 19.3875C80.6336 19.3875 80.8756 19.4901 81.1112 19.7275C81.3309 19.9489 81.4774 20.289 81.4774 20.9114C81.4774 21.9219 81.003 22.6117 80.1241 22.6117C79.6752 22.6149 79.3695 22.4641 79.1084 22.2428ZM80.7865 20.4526C80.7865 20.1767 80.5827 19.9746 80.242 19.9746C79.9044 19.9746 79.7166 20.1703 79.7166 20.4558C79.7166 20.7317 79.9204 20.9242 80.2547 20.9242C80.5922 20.9242 80.7865 20.7285 80.7865 20.4526Z" fill="white"/>
<path d="M83.4728 20.0357H82.0176V19.4421H84.2465V19.9587L82.8582 22.5605H82.0876L83.4728 20.0357Z" fill="white"/>
<path d="M84.625 22.0761L85.0931 21.6269C85.3064 21.8675 85.5261 22.0023 85.8414 22.0023C86.0993 22.0023 86.2776 21.8547 86.2776 21.6141C86.2776 21.3607 86.0515 21.2163 85.6726 21.2163H85.3892L85.2841 20.78L86.0229 20.0324H84.8065V19.4421H86.8985V19.9587L86.1152 20.7126C86.5355 20.7832 86.9463 21.0077 86.9463 21.5948C86.9463 22.182 86.5228 22.6151 85.8318 22.6151C85.2746 22.6151 84.8893 22.3905 84.625 22.0761Z" fill="white"/>
<path d="M34.6348 19.4407H36.9688V20.0502H35.3098V20.6823H36.7682V21.2918H35.3098V21.9463H36.9911V22.5558H34.6348V19.4407Z" fill="white"/>
<path d="M37.3848 22.1047L37.786 21.6203C38.063 21.8513 38.356 21.9988 38.7094 21.9988C38.9864 21.9988 39.1552 21.8865 39.1552 21.6973C39.1552 21.524 39.0501 21.4342 38.5311 21.2994C37.907 21.139 37.5058 20.9658 37.5058 20.337C37.5058 19.7723 37.9579 19.397 38.5884 19.397C39.0406 19.397 39.4227 19.5381 39.7379 19.7948L39.3845 20.3113C39.1106 20.1188 38.84 20.0033 38.5788 20.0033C38.3177 20.0033 38.1808 20.122 38.1808 20.2824C38.1808 20.4878 38.3146 20.5551 38.8495 20.6931C39.4768 20.8567 39.8302 21.0845 39.8302 21.6363C39.8302 22.2555 39.3622 22.602 38.6935 22.602C38.2318 22.6052 37.7573 22.4416 37.3848 22.1047Z" fill="white"/>
<path d="M41.1496 20.0739H40.207V19.4419H42.7703V20.0739H41.8278V22.5603H41.1464V20.0739H41.1496Z" fill="white"/>
<path d="M43.1992 21.8481H43.9157V22.5604H43.1992V21.8481Z" fill="white"/>
<path d="M69.4971 0H51.4395V2.37729H69.4971V0Z" fill="white"/>
<path d="M57.9127 6.30713H46.9272L39.6035 11.4627L47.7965 17.2279L55.55 11.7675V18.771L39.6035 30.0126L47.8251 35.797H57.9127V6.30713ZM55.5532 32.0723V33.4197H51.1431L55.5532 30.311V32.0723ZM55.5532 27.4043L47.7965 32.8743L43.7239 30.0094L55.55 21.6745V27.4043H55.5532ZM55.5532 8.86407L47.7965 14.3245L43.7271 11.4595L47.6723 8.68121H55.5532V8.86407Z" fill="white"/>
<path d="M69.4971 39.7241H51.4395V42.1014H69.4971V39.7241Z" fill="white"/>
<path d="M73.2002 24.8765L65.3829 30.3786V23.3751L81.3931 12.0854L73.1779 6.3042H63.0234V35.7941H74.0695L81.3931 30.6385L73.2002 24.8765ZM65.3829 11.7678V8.68469H69.8599L65.3829 11.8384V11.7678ZM65.3829 14.7418L73.2065 9.22688L77.2728 12.0886L65.3829 20.4717V14.7418ZM73.3275 33.4168H65.1919L73.2034 27.7768L77.2728 30.6417L73.3275 33.4168Z" fill="white"/>
</svg>
