<svg width="121" height="69" viewBox="0 0 121 69" fill="none" xmlns="http://www.w3.org/2000/svg">
<path d="M83.1331 49.077C83.6343 49.077 84.0406 48.6735 84.0406 48.1757C84.0406 47.6779 83.6343 47.2744 83.1331 47.2744C82.6319 47.2744 82.2256 47.6779 82.2256 48.1757C82.2256 48.6735 82.6319 49.077 83.1331 49.077Z" fill="black"/>
<path d="M85.8865 49.077C86.3877 49.077 86.794 48.6735 86.794 48.1757C86.794 47.6779 86.3877 47.2744 85.8865 47.2744C85.3853 47.2744 84.979 47.6779 84.979 48.1757C84.979 48.6735 85.3853 49.077 85.8865 49.077Z" fill="black"/>
<path d="M96.3666 56.2713L95.9749 55.5218C97.0034 55.0949 97.7262 54.0861 97.7262 52.9097C97.7262 51.3443 96.4494 50.0762 94.8732 50.0762H92.5773H91.6794H90.7942H89.5205L90.7942 51.6036V58.5608H92.5742V57.9284V55.7432H94.1153L94.8827 57.2737C95.2807 58.0643 96.0004 58.564 96.892 58.564H98.1083V56.9385H97.5097C96.8665 56.9385 96.529 56.5843 96.3666 56.2713ZM94.749 54.0924H92.571V51.7269H94.749C95.4081 51.7269 95.9399 52.255 95.9399 52.9097C95.9431 53.5611 95.4081 54.0924 94.749 54.0924Z" fill="black"/>
<path d="M23.8018 50.0762L25.0786 51.6036V58.5608H26.8363V50.0762H25.0786H23.8018Z" fill="black"/>
<path d="M0 50.0762L1.27368 51.6036V58.5608H3.03455V50.0762H1.27368H0Z" fill="black"/>
<path d="M11.4335 55.5471L6.80683 50.0762H5.77515H4.50146L5.77515 51.6036V58.5608H7.53602V53.6971L11.6118 58.5608H13.2135V50.0762H11.4335V55.5471Z" fill="black"/>
<path d="M99.0547 50.0762L100.332 51.6036V58.5608H102.089V50.0762H100.332H99.0547Z" fill="black"/>
<path d="M63.2858 55.5471L58.6591 50.0762H57.6274H56.3538L57.6274 51.6036V58.5608H59.3883V53.6971L63.4641 58.5608H65.0658V50.0762H63.2858V55.5471Z" fill="black"/>
<path d="M44.2575 53.5168H40.2326V50.0762H38.4495V58.5608H40.2294V55.1202H40.5924H44.2575V58.5608H46.0374V50.0762H44.2575V53.5168Z" fill="black"/>
<path d="M109.639 56.6667C109.254 56.8628 108.824 56.9608 108.359 56.9608C107.984 56.9608 107.621 56.8944 107.286 56.7616C106.949 56.6288 106.643 56.4422 106.382 56.2082C106.124 55.9773 105.917 55.6959 105.767 55.3765C105.618 55.0571 105.545 54.6649 105.545 54.2918C105.545 53.9186 105.618 53.5265 105.767 53.2071C105.917 52.8845 106.124 52.6062 106.382 52.3754C106.643 52.1413 106.949 51.9548 107.286 51.8219C107.624 51.6891 107.984 51.6227 108.359 51.6227C108.824 51.6227 109.254 51.7207 109.639 51.9168C110.002 52.1002 110.315 52.3564 110.572 52.6663L111.983 51.5468L111.821 51.3666C111.391 50.8954 110.872 50.519 110.279 50.2502C109.684 49.9783 109.038 49.8423 108.35 49.8423C107.71 49.8423 107.105 49.9593 106.551 50.1933C106 50.4242 105.513 50.7499 105.105 51.1547C104.694 51.5626 104.37 52.0465 104.137 52.5967C103.914 53.1217 103.787 53.6909 103.787 54.2886C103.787 54.8863 103.914 55.4555 104.137 55.9805C104.37 56.5307 104.698 57.0177 105.105 57.4225C105.516 57.8305 106.003 58.153 106.551 58.3839C107.105 58.6179 107.71 58.7349 108.35 58.7349C109.038 58.7349 109.684 58.5989 110.279 58.327C110.872 58.0582 111.388 57.6818 111.821 57.2106L111.983 57.0304L110.572 55.9109C110.315 56.2271 110.006 56.4801 109.639 56.6667Z" fill="black"/>
<path d="M34.514 56.6667C34.1287 56.8628 33.6988 56.9608 33.2339 56.9608C32.8582 56.9608 32.4952 56.8944 32.1608 56.7616C31.8233 56.6288 31.5176 56.4422 31.2565 56.2082C30.9986 55.9773 30.7916 55.6959 30.642 55.3765C30.4923 55.0571 30.4191 54.6649 30.4191 54.2918C30.4191 53.9186 30.4923 53.5265 30.642 53.2071C30.7916 52.8845 30.9986 52.6062 31.2565 52.3754C31.5176 52.1413 31.8233 51.9548 32.1608 51.8219C32.4983 51.6891 32.8582 51.6227 33.2339 51.6227C33.6988 51.6227 34.1287 51.7207 34.514 51.9168C34.877 52.1002 35.189 52.3564 35.4469 52.6663L36.8575 51.5468L36.6951 51.3666C36.2653 50.8954 35.7462 50.519 35.154 50.2502C34.5585 49.9783 33.9121 49.8423 33.2243 49.8423C32.5843 49.8423 31.9793 49.9593 31.4253 50.1933C30.8744 50.4242 30.3872 50.7499 29.9796 51.1547C29.5689 51.5626 29.2441 52.0465 29.0116 52.5967C28.7887 53.1217 28.6614 53.6909 28.6614 54.2886C28.6614 54.8863 28.7887 55.4555 29.0116 55.9805C29.2441 56.5307 29.5721 57.0177 29.9796 57.4225C30.3904 57.8305 30.8776 58.153 31.4253 58.3839C31.9793 58.6179 32.5843 58.7349 33.2243 58.7349C33.9121 58.7349 34.5585 58.5989 35.154 58.327C35.7462 58.0582 36.2653 57.6818 36.6951 57.2106L36.8575 57.0304L35.4469 55.9109C35.1858 56.2271 34.877 56.4801 34.514 56.6667Z" fill="black"/>
<path d="M119.22 50.0762V53.5168H115.192L115.195 50.0762H113.412V58.5608H115.192V55.1202H115.555H119.22V58.5608H121V50.0762H119.22Z" fill="black"/>
<path d="M17.8059 56.7836V55.2941V55.1202H21.0474V53.5168H17.8059V53.4599V51.8566V51.6795H17.8695H22.2224V50.0762H16.9143H16.0259H14.7522L16.0259 51.6036V58.5608H16.9143H17.9555H22.6904V56.9575H17.8059V56.7836Z" fill="black"/>
<path d="M50.5664 56.7836V55.2941V55.1202H53.8079V53.5168H50.5664V53.4599V51.8566V51.6795H50.63H54.9829V50.0762H49.6748H48.7864H47.5095L48.7864 51.6036V58.5608H49.6748H50.7128H55.4509V56.9575H50.5664V56.7836Z" fill="black"/>
<path d="M86.6195 55.098C86.6195 56.2491 85.6006 56.9638 84.5275 56.9638C83.4544 56.9638 82.4355 56.2491 82.4355 55.098V50.0762H80.6555H79.3818L80.6555 51.6036V55.1929C80.6555 56.9322 82.1521 58.7379 84.5275 58.7379C86.9029 58.7379 88.3995 56.929 88.3995 55.1929V50.0762H86.6195V55.098Z" fill="black"/>
<path d="M77.1413 50.0762H71.1136V51.6795H75.7403L70.4067 57.2516L71.4862 58.526L71.518 58.5608H78.345V56.9575H73.2534L78.3991 51.5815L77.1413 50.0762Z" fill="black"/>
<path d="M23.1245 66.2522H22.0896V65.5659H24.9076V66.2522H23.8728V68.9433H23.1245V66.2522Z" fill="black"/>
<path d="M26.2104 65.5679H26.9587V66.9024H28.3375V65.5679H29.0858V68.9421H28.3375V67.5886H26.9587V68.9421H26.2104V65.5679Z" fill="black"/>
<path d="M30.6326 65.5679H33.1958V66.2288H31.3745V66.915H32.9761V67.576H31.3745V68.2844H33.2181V68.9453H30.6326V65.5679Z" fill="black"/>
<path d="M36.571 68.4506L37.0136 67.9256C37.3193 68.1754 37.6409 68.3367 38.0294 68.3367C38.3351 68.3367 38.5198 68.2166 38.5198 68.0078C38.5198 67.8181 38.402 67.7232 37.8352 67.5778C37.1506 67.4038 36.708 67.2172 36.708 66.5373C36.708 65.9238 37.2047 65.519 37.8989 65.519C38.3924 65.519 38.8159 65.674 39.163 65.9491L38.7745 66.5089C38.4752 66.3002 38.1759 66.1768 37.8893 66.1768C37.6027 66.1768 37.4531 66.3065 37.4531 66.4804C37.4531 66.7018 37.5995 66.7745 38.1854 66.9231C38.8764 67.1002 39.2617 67.3469 39.2617 67.9446C39.2617 68.615 38.7459 68.9913 38.0135 68.9913C37.4976 68.9913 36.9786 68.8142 36.571 68.4506Z" fill="black"/>
<path d="M40.3804 65.5671H41.1828L41.8865 67.8535L42.6475 65.5576H43.2876L44.0486 67.8535L44.7523 65.5671H45.5324L44.3734 68.9667H43.7238L42.9564 66.7593L42.189 68.9667H41.5394L40.3804 65.5671Z" fill="black"/>
<path d="M46.8604 65.5679H47.6086V68.9421H46.8604V65.5679Z" fill="black"/>
<path d="M48.9521 68.4506L49.3948 67.9256C49.7004 68.1754 50.022 68.3367 50.4105 68.3367C50.7162 68.3367 50.9009 68.2166 50.9009 68.0078C50.9009 67.8181 50.7831 67.7232 50.2163 67.5778C49.5317 67.4038 49.0891 67.2172 49.0891 66.5373C49.0891 65.9238 49.5858 65.519 50.28 65.519C50.7735 65.519 51.197 65.674 51.5441 65.9491L51.1556 66.5089C50.8563 66.3002 50.557 66.1768 50.2704 66.1768C49.9838 66.1768 49.8342 66.3065 49.8342 66.4804C49.8342 66.7018 49.9807 66.7745 50.5665 66.9231C51.2575 67.1002 51.6428 67.3469 51.6428 67.9446C51.6428 68.615 51.127 68.9913 50.3946 68.9913C49.8819 68.9913 49.3629 68.8142 48.9521 68.4506Z" fill="black"/>
<path d="M52.7917 68.4506L53.2344 67.9256C53.54 68.1754 53.8616 68.3367 54.2501 68.3367C54.5558 68.3367 54.7405 68.2166 54.7405 68.0078C54.7405 67.8181 54.6227 67.7232 54.0559 67.5778C53.3713 67.4038 52.9287 67.2172 52.9287 66.5373C52.9287 65.9238 53.4254 65.519 54.1196 65.519C54.6131 65.519 55.0366 65.674 55.3837 65.9491L54.9952 66.5089C54.6959 66.3002 54.3966 66.1768 54.11 66.1768C53.8234 66.1768 53.6738 66.3065 53.6738 66.4804C53.6738 66.7018 53.8202 66.7745 54.4061 66.9231C55.0971 67.1002 55.4824 67.3469 55.4824 67.9446C55.4824 68.615 54.9666 68.9913 54.2342 68.9913C53.7184 68.9913 53.1993 68.8142 52.7917 68.4506Z" fill="black"/>
<path d="M60.2174 65.5444H60.9084L62.3667 68.944H61.5866L61.2746 68.1882H59.8385L59.5264 68.944H58.7622L60.2174 65.5444ZM61.0039 67.5304L60.5517 66.4362L60.0996 67.5304H61.0039Z" fill="black"/>
<path d="M63.5674 67.4969V65.5679H64.3157V67.4779C64.3157 68.0282 64.5927 68.3128 65.048 68.3128C65.5034 68.3128 65.7804 68.0377 65.7804 67.5032V65.5679H66.5287V67.4716C66.5287 68.4931 65.9524 68.9959 65.0385 68.9959C64.1246 68.9959 63.5674 68.4899 63.5674 67.4969Z" fill="black"/>
<path d="M67.8726 67.2544C67.8726 66.2962 68.6017 65.5088 69.6462 65.5088C70.2862 65.5088 70.646 65.7491 70.9613 66.059L70.5155 66.5714C70.2544 66.3342 70.0283 66.195 69.6398 66.195C69.0666 66.195 68.6559 66.6694 68.6559 67.2544C68.6559 67.8331 69.0603 68.317 69.6398 68.317C70.0283 68.317 70.2671 68.162 70.5346 67.9217L71.009 68.4277C70.6588 68.7977 70.2703 69.0001 69.6143 69.0001C68.6145 69.0001 67.8726 68.2348 67.8726 67.2544Z" fill="black"/>
<path d="M73.1306 66.2541H72.0957V65.5679H74.9137V66.2541H73.8789V68.9453H73.1306V66.2541Z" fill="black"/>
<path d="M76.25 65.5679H76.9983V68.9421H76.25V65.5679Z" fill="black"/>
<path d="M78.4282 67.2544C78.4282 66.2962 79.1892 65.5088 80.24 65.5088C81.2908 65.5088 82.0423 66.2836 82.0423 67.2544C82.0423 68.2158 81.2781 69.0001 80.2305 69.0001C79.1829 69.0001 78.4282 68.2221 78.4282 67.2544ZM81.259 67.2544C81.259 66.6757 80.8323 66.195 80.2305 66.195C79.6287 66.195 79.2115 66.6694 79.2115 67.2544C79.2115 67.8331 79.6382 68.317 80.24 68.317C80.8418 68.317 81.259 67.8426 81.259 67.2544Z" fill="black"/>
<path d="M83.436 65.5679H84.127L85.7191 67.6456V65.5679H86.4578V68.9421H85.821L84.1748 66.7949V68.9421H83.436V65.5679Z" fill="black"/>
<path d="M88.0056 65.5679H90.5689V66.2288H88.7475V66.915H90.3492V67.576H88.7475V68.2844H90.5912V68.9453H88.0024V65.5679H88.0056Z" fill="black"/>
<path d="M91.99 65.5679H94.5533V66.2288H92.7319V66.915H94.3336V67.576H92.7319V68.2844H94.5756V68.9453H91.9868V65.5679H91.99Z" fill="black"/>
<path d="M95.9768 65.5679H97.5307C97.9638 65.5679 98.2981 65.688 98.521 65.9094C98.7089 66.0992 98.8108 66.3616 98.8108 66.6905C98.8108 67.2344 98.5146 67.5791 98.0816 67.7373L98.9127 68.9421H98.0402L97.3014 67.8606H96.7251V68.9421H95.9768V65.5679ZM97.4798 67.2091C97.8428 67.2091 98.0529 67.0162 98.0529 66.7221C98.0529 66.4027 97.83 66.2383 97.4638 66.2383H96.7219V67.2091H97.4798Z" fill="black"/>
<path d="M77.7092 19.8271L77.1711 19.9599L77.031 19.4065L77.9194 19.144H78.3843V22.24H77.7124V19.8271H77.7092Z" fill="black"/>
<path d="M79.1081 21.9249L79.4648 21.4126C79.6909 21.5928 79.8819 21.675 80.1398 21.675C80.5187 21.675 80.7225 21.3904 80.7671 20.9762C80.6174 21.1027 80.4105 21.188 80.1398 21.188C79.468 21.188 79.0349 20.818 79.0349 20.1856C79.0349 19.5657 79.5157 19.1104 80.2162 19.1104C80.6334 19.1104 80.8754 19.2115 81.111 19.4456C81.3307 19.6638 81.4772 19.999 81.4772 20.6125C81.4772 21.6086 81.0027 22.2885 80.1239 22.2885C79.6749 22.2917 79.3692 22.1431 79.1081 21.9249ZM80.7862 20.1603C80.7862 19.8883 80.5824 19.6891 80.2417 19.6891C79.9042 19.6891 79.7163 19.882 79.7163 20.1634C79.7163 20.4354 79.9201 20.6251 80.2545 20.6251C80.592 20.6251 80.7862 20.4322 80.7862 20.1603Z" fill="black"/>
<path d="M83.4725 19.7511H82.0173V19.166H84.2463V19.6752L82.858 22.2398H82.0874L83.4725 19.7511Z" fill="black"/>
<path d="M84.6255 21.7623L85.0936 21.3196C85.3069 21.5568 85.5266 21.6896 85.8419 21.6896C86.0998 21.6896 86.2781 21.5441 86.2781 21.3069C86.2781 21.0571 86.052 20.9148 85.6731 20.9148H85.3897L85.2846 20.4847L86.0234 19.7479H84.807V19.166H86.899V19.6752L86.1157 20.4183C86.536 20.4879 86.9468 20.7093 86.9468 21.288C86.9468 21.8667 86.5233 22.2936 85.8323 22.2936C85.2751 22.2936 84.8898 22.0722 84.6255 21.7623Z" fill="black"/>
<path d="M34.6353 19.1636H36.9693V19.7644H35.3103V20.3874H36.7687V20.9883H35.3103V21.6334H36.9916V22.2342H34.6353V19.1636Z" fill="black"/>
<path d="M37.3855 21.7897L37.7867 21.3121C38.0637 21.5398 38.3567 21.6853 38.7101 21.6853C38.9872 21.6853 39.1559 21.5746 39.1559 21.388C39.1559 21.2173 39.0508 21.1287 38.5318 20.9959C37.9077 20.8378 37.5065 20.667 37.5065 20.0472C37.5065 19.4906 37.9587 19.1206 38.5891 19.1206C39.0413 19.1206 39.4234 19.2598 39.7386 19.5127L39.3852 20.0219C39.1113 19.8321 38.8407 19.7183 38.5796 19.7183C38.3185 19.7183 38.1816 19.8353 38.1816 19.9934C38.1816 20.1958 38.3153 20.2622 38.8502 20.3982C39.4775 20.5595 39.831 20.784 39.831 21.3279C39.831 21.9383 39.3629 22.2798 38.6942 22.2798C38.2325 22.283 37.7581 22.1217 37.3855 21.7897Z" fill="black"/>
<path d="M41.15 19.788H40.2075V19.165H42.7708V19.788H41.8283V22.2389H41.1469V19.788H41.15Z" fill="black"/>
<path d="M43.2004 21.5356H43.9169V22.2385H43.2004V21.5356Z" fill="black"/>
<path d="M69.4971 0H51.4395V2.34332H69.4971V0Z" fill="black"/>
<path d="M57.9132 6.21729H46.9277L39.604 11.2992L47.797 16.982L55.5505 11.5997V18.5031L39.604 29.5841L47.8256 35.2859H57.9132V6.21729ZM55.5537 31.6144V32.9426H51.1436L55.5537 29.8782V31.6144ZM55.5537 27.0131L47.797 32.405L43.7244 29.581L55.5505 21.3651V27.0131H55.5537ZM55.5537 8.7377L47.797 14.1201L43.7276 11.2961L47.6728 8.55745H55.5537V8.7377Z" fill="black"/>
<path d="M69.4971 39.1567H51.4395V41.5001H69.4971V39.1567Z" fill="black"/>
<path d="M73.1999 24.5214L65.3827 29.9449V23.0414L81.3929 11.913L73.1776 6.21436H63.0232V35.283H74.0692L81.3929 30.201L73.1999 24.5214ZM65.3827 11.5999V8.56084H69.8597L65.3827 11.6695V11.5999ZM65.3827 14.5314L73.2063 9.09528L77.2725 11.9161L65.3827 20.1794V14.5314ZM73.3273 32.9396H65.1916L73.2031 27.3802L77.2725 30.2042L73.3273 32.9396Z" fill="black"/>
</svg>
