<svg width="154" height="56" viewBox="0 0 154 56" fill="none" xmlns="http://www.w3.org/2000/svg">
<g clip-path="url(#clip0_4_10308)">
<path d="M56.335 0.549805L59.3571 4.1987V20.7771H63.5172V0.549805H59.3571H56.335Z" fill="#1C2473"/>
<path d="M0 0.549805L3.01458 4.1987V20.7771H7.18225V0.549805H3.01458H0Z" fill="#1C2473"/>
<path d="M27.0631 13.5923L16.1126 0.549805H13.6708H10.6562L13.6708 4.1987V20.7771H17.831V9.18954L27.4852 20.7771H31.276V0.549805H27.0631V13.5923Z" fill="#1C2473"/>
<path d="M149.787 13.5923L138.837 0.549805H136.395H133.38L136.395 4.1987V20.7771H140.562V9.18954L150.209 20.7771H154V0.549805H149.787V13.5923Z" fill="#1C2473"/>
<path d="M104.749 8.75228H95.2156L95.2231 0.549805H91.0027V20.7771H95.2156V12.5821H96.0747H104.749V20.7771H108.962V0.549805H104.749V8.75228Z" fill="#1C2473"/>
<path d="M81.6801 16.2621C80.7455 16.7328 79.7119 16.9732 78.6655 16.9632C77.7965 16.9675 76.9346 16.8063 76.1258 16.4883C75.3388 16.1843 74.6135 15.7398 73.9854 15.1765C73.342 14.6039 72.8313 13.8978 72.4889 13.1074C72.1466 12.317 71.9809 11.4614 72.0033 10.6003C71.9794 9.74005 72.1445 8.88507 72.487 8.09566C72.8294 7.30625 73.341 6.60166 73.9854 6.0316C74.6132 5.46597 75.3384 5.01896 76.1258 4.71227C76.9346 4.39423 77.7965 4.23304 78.6655 4.23731C79.7125 4.22995 80.746 4.47292 81.6801 4.94598C82.5325 5.38128 83.2846 5.98985 83.8883 6.73273L87.2269 4.06391L86.8351 3.63418C85.8163 2.50751 84.5774 1.60176 83.1949 0.972902C81.878 0.349816 80.4485 0.000469375 78.9927 -0.053996C77.5369 -0.108461 76.0853 0.133091 74.7255 0.656033C73.3658 1.17898 72.1262 1.97243 71.0819 2.98841C70.0375 4.00439 69.21 5.22177 68.6496 6.56687C68.1026 7.84116 67.8206 9.21347 67.8206 10.6003C67.8206 11.9871 68.1026 13.3593 68.6496 14.6336C69.1752 15.9166 69.9428 17.0863 70.9105 18.079C72.5025 19.6244 74.5217 20.6561 76.7065 21.0405C78.8913 21.4249 81.1412 21.1444 83.1648 20.2352C84.5473 19.6063 85.7861 18.7005 86.8049 17.5739L87.1968 17.1441L83.8581 14.4753C83.2612 15.213 82.5201 15.821 81.6801 16.2621Z" fill="#1C2473"/>
<path d="M42.144 16.5401V12.9892V12.5821H49.8161V8.75228H42.144V8.61658V4.79428V4.37964H42.2947H52.6046V0.549805H40.0338H37.9311H34.9165L37.9311 4.1987V20.7771H40.0338V20.7846H42.4982H53.7049V16.9548H42.144V16.5401Z" fill="#1C2473"/>
<path d="M119.679 16.5401V12.9892V12.5821H127.343V8.75228H119.679V8.61658V4.79428V4.37964H119.829H130.132V0.549805H117.568H115.466H112.451L115.466 4.1987V20.7771H117.568V20.7846H120.025H131.24V16.9548H119.679V16.5401Z" fill="#1C2473"/>
<path d="M8.72725 37.8154H3.91898L3.02969 40.1752H0.180908L4.70278 29.4697H7.93592L12.4578 40.1752H9.60901L8.72725 37.8154ZM8.01882 35.9608L6.99386 33.2619C6.70401 32.6457 6.48651 31.9981 6.34573 31.3319H6.30051C6.15972 31.9981 5.94223 32.6457 5.65237 33.2619L4.62741 35.9608H8.01882Z" fill="#1C2473"/>
<path d="M18.7657 29.4628V35.7956C18.7657 36.4654 19.0317 37.1078 19.5051 37.5814C19.9786 38.0551 20.6208 38.3211 21.2904 38.3211C21.96 38.3211 22.6021 38.0551 23.0756 37.5814C23.5491 37.1078 23.8151 36.4654 23.8151 35.7956V29.4628H26.5584V35.9916C26.5584 38.6906 24.6441 40.4698 21.2828 40.4698C17.9216 40.4698 16.0073 38.6906 16.0073 35.9463V29.4326L18.7657 29.4628Z" fill="#1C2473"/>
<path d="M31.0049 34.8456C31.0049 31.453 33.3864 29.1611 37.0341 29.1611C40.0486 29.1611 42.1287 30.6689 42.596 33.0814L39.7924 33.579C39.7073 32.9129 39.368 32.3055 38.8455 31.8839C38.3229 31.4624 37.6576 31.2593 36.9888 31.3173C35.0294 31.3173 33.8386 32.6592 33.8386 34.8154C33.8386 36.9716 35.0444 38.2984 37.0341 38.2984C37.6897 38.3492 38.3407 38.1531 38.8593 37.7487C39.3779 37.3442 39.7268 36.7606 39.8376 36.1121L42.611 36.7153C41.9478 39.0524 39.9733 40.4848 36.9738 40.4848C33.2206 40.4697 31.0049 38.2532 31.0049 34.8456Z" fill="#1C2473"/>
<path d="M56.0263 31.6191H52.3485V40.1759H49.6053V31.6191H45.9275V29.4629H56.0263V31.6191Z" fill="#1C2473"/>
<path d="M60.397 40.1752V29.4697H63.1252V40.1752H60.397Z" fill="#1C2473"/>
<path d="M67.7527 34.8154C67.7527 31.3625 70.1493 29.1611 73.8271 29.1611C77.5049 29.1611 79.9015 31.3625 79.9015 34.8154C79.9015 38.2683 77.5199 40.4697 73.8271 40.4697C70.1342 40.4697 67.7527 38.2532 67.7527 34.8154ZM77.0527 34.8154C77.0527 32.6291 75.8167 31.257 73.8271 31.257C71.8374 31.257 70.6166 32.6291 70.6166 34.8154C70.6166 37.0017 71.8525 38.3738 73.8271 38.3738C75.8016 38.3738 77.0527 37.0017 77.0527 34.8154Z" fill="#1C2473"/>
<path d="M84.5442 29.4629H87.5588L91.9148 35.5695C92.2058 35.9827 92.4581 36.4218 92.6685 36.8813H92.7137C92.7137 36.429 92.7137 35.9615 92.7137 35.4489V29.4629H95.2158V40.1759H92.3444L87.8225 34.0089C87.5353 33.604 87.2832 33.1752 87.0689 32.7273C87.0689 33.1947 87.0689 33.6621 87.0689 34.1748V40.206H84.5668L84.5442 29.4629Z" fill="#1C2473"/>
<path d="M109.505 38.1924V40.1752H100.635V29.4697H109.407V31.445H103.378V33.767H109.166V35.6517H103.378V38.1849L109.505 38.1924Z" fill="#1C2473"/>
<path d="M123.463 38.1924V40.1752H114.577V29.4697H123.357V31.445H117.328V33.767H123.116V35.6517H117.328V38.1849L123.463 38.1924Z" fill="#1C2473"/>
<path d="M133.471 36.187H131.27V40.1752H128.52V29.4697H134.308C137.322 29.4697 138.422 30.9775 138.422 32.802C138.437 33.4852 138.223 34.1537 137.813 34.7005C137.403 35.2472 136.821 35.6406 136.162 35.8176L138.724 40.1601H135.709L133.471 36.187ZM131.27 34.3776H133.742C135.069 34.3776 135.581 33.6991 135.581 32.8246C135.581 31.9501 135.084 31.3168 133.742 31.3168H131.27V34.3776Z" fill="#1C2473"/>
<path d="M141.957 37.9134L143.962 36.5111C144.343 37.1363 144.886 37.647 145.533 37.9893C146.181 38.3316 146.908 38.4929 147.64 38.4562C149.041 38.4562 149.9 38.0642 149.9 37.2198C149.9 36.3754 149.433 36.1945 148.258 35.9985L146.057 35.6818C143.871 35.3199 142.711 34.3248 142.711 32.4551C142.711 30.4346 144.519 29.1982 147.534 29.1982C149.795 29.1982 151.589 29.9069 152.599 31.3695L150.82 32.8773C150.45 32.3053 149.935 31.842 149.327 31.5346C148.719 31.2273 148.04 31.0871 147.361 31.1282C146.064 31.1282 145.311 31.5353 145.311 32.244C145.311 32.9527 145.748 33.2392 146.984 33.4352L149.124 33.7669C151.476 34.1288 152.576 35.0184 152.576 36.9182C152.576 39.0895 150.737 40.4616 147.496 40.4616C144.836 40.4691 142.839 39.4589 141.957 37.9134Z" fill="#1C2473"/>
<path d="M57.3521 54.8612V55.8413H52.9131V50.4961H57.2993V51.4837H54.2847V52.6447H57.1787V53.5946H54.2847V54.8612H57.3521Z" fill="#C6A55A"/>
<path d="M59.252 54.7029L60.2543 54.0018C60.445 54.3144 60.7165 54.5697 61.0401 54.7408C61.3638 54.912 61.7276 54.9927 62.0932 54.9743C62.7941 54.9743 63.2237 54.7783 63.2237 54.3561C63.2237 53.9339 62.99 53.8435 62.4022 53.7454L61.3019 53.5871C60.2091 53.4062 59.6288 52.9086 59.6288 51.9738C59.6288 51.0389 60.5332 50.3453 62.0405 50.3453C62.5194 50.3029 63.0013 50.3798 63.4432 50.5693C63.8851 50.7587 64.2732 51.0548 64.5727 51.431L63.6834 52.1849C63.4948 51.9076 63.237 51.6844 62.9356 51.5376C62.6342 51.3908 62.2996 51.3255 61.9651 51.348C61.317 51.348 60.9401 51.5516 60.9401 51.9059C60.9401 52.2603 61.1587 52.4035 61.7767 52.5015L62.8468 52.6674C64.0225 52.8483 64.5727 53.2931 64.5727 54.243C64.5727 55.3211 63.6533 56.0072 62.0329 56.0072C61.4951 56.059 60.9532 55.9653 60.4639 55.7359C59.9747 55.5064 59.5561 55.1497 59.252 54.7029Z" fill="#C6A55A"/>
<path d="M71.3473 51.5742H69.5084V55.8413H68.1367V51.5742H66.2979V50.4961H71.3473V51.5742Z" fill="#C6A55A"/>
<path d="M73.9555 55.8424H72.5537V54.6211H73.9555V55.8424Z" fill="#C6A55A"/>
<path d="M81.3332 52.2913C81.0354 52.5361 80.6551 52.6576 80.2706 52.6305H79.9993V51.4846H80.1651C80.4611 51.5109 80.7574 51.4387 81.0082 51.2792C81.2589 51.1197 81.45 50.8818 81.5518 50.6025H82.6446V55.8346H81.3332V52.2913Z" fill="#C6A55A"/>
<path d="M90.0005 53.1348C90.0005 54.9366 89.164 55.9845 87.4984 55.9845C86.285 55.9845 85.456 55.4568 85.2375 54.5144L86.5338 54.3108C86.587 54.5267 86.7159 54.7162 86.8971 54.8449C87.0784 54.9736 87.2998 55.0329 87.521 55.012C88.2747 55.012 88.7043 54.439 88.7193 53.4288C88.5281 53.6326 88.293 53.7901 88.0318 53.8893C87.7706 53.9886 87.4903 54.0271 87.212 54.0017C85.9459 54.0017 85.1621 53.3609 85.1621 52.2828C85.1621 51.2048 86.0665 50.4961 87.4833 50.4961C89.1112 50.4961 90.0005 51.4083 90.0005 53.1348ZM88.7043 52.3809C88.6719 52.0988 88.5312 51.8403 88.3118 51.6602C88.0923 51.4801 87.8114 51.3925 87.5285 51.4159C86.8879 51.4159 86.4885 51.74 86.4885 52.2602C86.4885 52.7804 86.888 53.0895 87.4984 53.0895C87.7471 53.105 87.9947 53.0457 88.2096 52.9195C88.4244 52.7932 88.5967 52.6057 88.7043 52.3809Z" fill="#C6A55A"/>
<path d="M92.7134 55.7435C92.741 54.9486 92.9447 54.1698 93.3096 53.4632C93.6745 52.7566 94.1916 52.1398 94.8236 51.6573H91.7336V50.6094H96.1123V51.5819C95.4995 52.0614 95.0029 52.6732 94.6597 53.3716C94.3164 54.07 94.1354 54.837 94.1302 55.6153V55.8415H92.6832L92.7134 55.7435Z" fill="#C6A55A"/>
<path d="M97.9512 54.2212L99.2927 54.1006C99.2927 54.6962 99.7147 55.0204 100.37 55.0204C101.026 55.0204 101.373 54.7641 101.373 54.2665C101.373 53.7689 101.026 53.5804 100.325 53.5804H99.8805V52.7436H100.295C100.921 52.7436 101.237 52.5099 101.237 52.0726C101.237 51.6354 100.913 51.4243 100.303 51.4243C100.173 51.4065 100.042 51.4173 99.9176 51.4559C99.7932 51.4945 99.6788 51.56 99.5824 51.6477C99.4861 51.7355 99.4102 51.8433 99.3601 51.9636C99.31 52.084 99.287 52.2138 99.2927 52.344L97.9738 52.1932C97.9738 51.1679 98.8555 50.4668 100.34 50.4668C101.825 50.4668 102.601 51.0172 102.601 51.9369C102.588 52.2422 102.463 52.5318 102.248 52.7493C102.033 52.9667 101.746 53.0964 101.441 53.113C102.262 53.2186 102.737 53.6332 102.737 54.3645C102.737 55.322 101.832 55.9552 100.34 55.9552C98.848 55.9552 97.9889 55.3219 97.9512 54.2212Z" fill="#C6A55A"/>
</g>
<defs>
<clipPath id="clip0_4_10308">
<rect width="154" height="56" fill="white"/>
</clipPath>
</defs>
</svg>
