<?xml version="1.0" encoding="utf-8"?>
<!-- Generator: Adobe Illustrator 26.0.2, SVG Export Plug-In . SVG Version: 6.00 Build 0)  -->
<svg version="1.1" id="Слой_1" xmlns="http://www.w3.org/2000/svg" xmlns:xlink="http://www.w3.org/1999/xlink" x="0px" y="0px"
	 viewBox="0 0 400 60" style="enable-background:new 0 0 400 60;" xml:space="preserve">
<style type="text/css">
	.st0{fill:#FFFFFF;}
</style>
<g>
	<polygon class="st0" points="264.53,19.42 274.71,19.42 274.71,14.35 264.53,14.35 264.53,8.54 278.4,8.54 278.4,3.47 254.94,3.47 
		258.94,8.3 258.94,30.3 279.87,30.3 279.87,25.23 264.53,25.23 	"/>
	<polygon class="st0" points="173.99,19.42 184.16,19.42 184.16,14.35 173.99,14.35 173.99,8.54 187.86,8.54 187.86,3.47 
		164.39,3.47 168.39,8.3 168.39,30.3 189.32,30.3 189.32,25.23 173.99,25.23 	"/>
	<polygon class="st0" points="117.42,19.42 127.59,19.42 127.59,14.35 117.42,14.35 117.42,8.54 131.29,8.54 131.29,3.47 
		107.82,3.47 111.82,8.3 111.82,30.3 132.75,30.3 132.75,25.23 117.42,25.23 	"/>
	<polygon class="st0" points="31.13,3.47 35.13,8.3 35.13,30.3 40.65,30.3 40.65,3.47 	"/>
	<polygon class="st0" points="67.32,20.77 52.79,3.47 45.55,3.47 49.55,8.3 49.55,30.3 55.07,30.3 55.07,14.92 67.88,30.3 
		72.91,30.3 72.91,3.47 67.32,3.47 	"/>
	<polygon class="st0" points="214.43,20.77 199.89,3.47 192.65,3.47 196.66,8.3 196.66,30.3 202.18,30.3 202.18,14.92 214.99,30.3 
		220.02,30.3 220.02,3.47 214.43,3.47 	"/>
	<polygon class="st0" points="304.98,20.77 290.44,3.47 283.2,3.47 287.21,8.3 287.21,30.3 292.73,30.3 292.73,14.92 305.54,30.3 
		310.57,30.3 310.57,3.47 304.98,3.47 	"/>
	<path class="st0" d="M349.95,10.8c0-1.73,1.45-3.14,5.23-3.14c2.44,0,5.07,0.71,7.62,2.16l1.96-4.83
		c-2.55-1.61-6.09-2.44-9.55-2.44c-7.82,0-11.59,3.89-11.59,8.57c0,10.22,15.99,6.68,15.99,11.83c0,1.69-1.53,2.95-5.3,2.95
		c-3.3,0-6.76-1.18-9.08-2.87l-2.16,4.79c2.44,1.89,6.84,3.18,11.2,3.18c7.86,0,11.67-3.93,11.67-8.53
		C365.94,12.37,349.95,15.87,349.95,10.8z"/>
	<path class="st0" d="M91.02,3.47H80.53V30.3h10.49c8.78,0,14.8-5.29,14.8-13.42C105.82,8.76,99.8,3.47,91.02,3.47z M91.48,25.2
		h-5.41V8.57h5.41c5.33,0,8.82,3.18,8.82,8.32S96.81,25.2,91.48,25.2z"/>
	<path class="st0" d="M238.13,3.47h-10.49V30.3h10.49c8.78,0,14.8-5.29,14.8-13.42C252.93,8.76,246.91,3.47,238.13,3.47z
		 M238.59,25.2h-5.41V8.57h5.41c5.33,0,8.82,3.18,8.82,8.32S243.92,25.2,238.59,25.2z"/>
	<polygon class="st0" points="315.98,8.54 324.98,8.54 324.98,30.3 330.51,30.3 330.51,8.54 339.5,8.54 339.5,3.47 315.98,3.47 	"/>
	<path class="st0" d="M370.5,27.76"/>
	<path class="st0" d="M149.97,3.47h-11V30.3h5.59v-7.4h5.4c7.17,0,11.65-3.72,11.65-9.7C161.62,7.19,157.14,3.47,149.97,3.47z
		 M150.32,17.84h-5.75V8.68V8.53h5.75c3.79,0,5.71,1.72,5.71,4.68C156.03,16.12,154.11,17.84,150.32,17.84z"/>
</g>
<g>
	<path class="st0" d="M34.82,53.07v-7.81h1.99v7.81H34.82z"/>
	<path class="st0" d="M39.47,45.26h2.18l3.18,4.46c0.21,0.32,0.41,0.66,0.53,0.96h0.03c0-0.33-0.01-0.67-0.01-1.04v-4.37h1.83v7.81
		h-2.07l-3.29-4.5c-0.2-0.31-0.42-0.66-0.53-0.93h-0.03c0,0.34,0.01,0.68,0.01,1.06v4.38h-1.83V45.26z"/>
	<path class="st0" d="M59.64,51.35h-3.51l-0.65,1.72H53.4l3.29-7.81h2.39l3.29,7.81h-2.08L59.64,51.35z M59.13,50l-0.75-1.97
		c-0.23-0.54-0.37-0.9-0.47-1.41h-0.03c-0.1,0.51-0.24,0.87-0.47,1.41L56.65,50H59.13z"/>
	<path class="st0" d="M63.34,51.4l1.46-1.02c0.51,0.85,1.41,1.42,2.68,1.42c1.02,0,1.65-0.29,1.65-0.9c0-0.54-0.34-0.75-1.2-0.89
		l-1.61-0.23c-1.6-0.26-2.44-0.99-2.44-2.35c0-1.47,1.32-2.38,3.52-2.38c1.65,0,2.96,0.52,3.7,1.58l-1.3,1.08
		c-0.47-0.77-1.36-1.22-2.51-1.22c-0.95,0-1.5,0.3-1.5,0.81c0,0.5,0.32,0.73,1.22,0.87l1.56,0.24c1.72,0.26,2.52,0.91,2.52,2.3
		c0,1.58-1.34,2.58-3.71,2.58C65.44,53.29,63.99,52.55,63.34,51.4z"/>
	<path class="st0" d="M72.36,51.4l1.46-1.02c0.51,0.85,1.41,1.42,2.68,1.42c1.02,0,1.65-0.29,1.65-0.9c0-0.54-0.34-0.75-1.2-0.89
		l-1.61-0.23c-1.6-0.26-2.44-0.99-2.44-2.35c0-1.47,1.32-2.38,3.52-2.38c1.65,0,2.96,0.52,3.7,1.58l-1.3,1.08
		c-0.47-0.77-1.36-1.22-2.51-1.22c-0.95,0-1.5,0.3-1.5,0.81c0,0.5,0.32,0.73,1.22,0.87l1.56,0.24c1.72,0.26,2.52,0.91,2.52,2.3
		c0,1.58-1.34,2.58-3.71,2.58C74.46,53.29,73.01,52.55,72.36,51.4z"/>
	<path class="st0" d="M81.59,49.16c0-2.52,1.75-4.12,4.43-4.12c2.7,0,4.43,1.61,4.43,4.12c0,2.52-1.74,4.13-4.43,4.13
		C83.34,53.29,81.59,51.67,81.59,49.16z M88.37,49.16c0-1.59-0.9-2.6-2.35-2.6c-1.44,0-2.34,1-2.34,2.6c0,1.58,0.9,2.6,2.34,2.6
		C87.47,51.76,88.37,50.76,88.37,49.16z"/>
	<path class="st0" d="M92.12,49.18c0-2.48,1.74-4.15,4.41-4.15c2.22,0,3.72,1.1,4.06,2.86l-2.05,0.36c-0.2-1.06-0.91-1.65-2.05-1.65
		c-1.43,0-2.3,0.98-2.3,2.55c0,1.54,0.88,2.54,2.33,2.54c1.1,0,1.82-0.57,2.05-1.6l2.02,0.44c-0.48,1.71-1.93,2.74-4.11,2.74
		C93.74,53.29,92.12,51.67,92.12,49.18z"/>
	<path class="st0" d="M102.64,53.07v-7.81h1.99v7.81H102.64z"/>
	<path class="st0" d="M112.76,51.35h-3.51l-0.65,1.72h-2.08l3.29-7.81h2.39l3.29,7.81h-2.08L112.76,51.35z M112.24,50l-0.75-1.97
		c-0.23-0.54-0.37-0.9-0.47-1.41h-0.03c-0.1,0.51-0.24,0.87-0.47,1.41L109.77,50H112.24z"/>
	<path class="st0" d="M122.72,46.83h-2.68v6.24h-2v-6.24h-2.68v-1.57h7.37V46.83z"/>
	<path class="st0" d="M124.56,53.07v-7.81h1.99v7.81H124.56z"/>
	<path class="st0" d="M128.59,49.16c0-2.52,1.75-4.12,4.43-4.12c2.7,0,4.43,1.61,4.43,4.12c0,2.52-1.74,4.13-4.43,4.13
		C130.34,53.29,128.59,51.67,128.59,49.16z M135.38,49.16c0-1.59-0.9-2.6-2.35-2.6c-1.44,0-2.34,1-2.34,2.6c0,1.58,0.9,2.6,2.34,2.6
		C134.47,51.76,135.38,50.76,135.38,49.16z"/>
	<path class="st0" d="M139.5,45.26h2.18l3.18,4.46c0.21,0.32,0.41,0.66,0.53,0.96h0.03c0-0.33-0.01-0.67-0.01-1.04v-4.37h1.83v7.81
		h-2.07l-3.29-4.5c-0.2-0.31-0.42-0.66-0.53-0.93h-0.03c0,0.34,0.01,0.68,0.01,1.06v4.38h-1.83V45.26z"/>
	<path class="st0" d="M153.51,45.26h2.02l1.23,5.07c0.06,0.24,0.1,0.46,0.11,0.68h0.03c0.02-0.22,0.08-0.44,0.14-0.68l1.43-5.07
		h2.05l1.42,5.07c0.07,0.24,0.12,0.46,0.14,0.68h0.03c0.01-0.22,0.06-0.44,0.11-0.68l1.24-5.07h2.02l-2.22,7.81h-2.26l-1.4-5.18
		c-0.05-0.2-0.09-0.41-0.1-0.62h-0.06c-0.01,0.21-0.04,0.42-0.1,0.62l-1.4,5.18h-2.26L153.51,45.26z"/>
	<path class="st0" d="M167.46,53.07v-7.81h1.99v7.81H167.46z"/>
	<path class="st0" d="M178.67,46.83h-2.68v6.24h-2v-6.24h-2.68v-1.57h7.37V46.83z"/>
	<path class="st0" d="M188.25,53.07h-2v-3.22h-3.74v3.22h-1.99v-7.81h1.99v3.11h3.74v-3.11h2V53.07z"/>
	<path class="st0" d="M195.22,53.07v-7.81h1.99v7.81H195.22z"/>
	<path class="st0" d="M199.87,45.26h2.18l3.18,4.46c0.21,0.32,0.41,0.66,0.53,0.96h0.03c0-0.33-0.01-0.67-0.01-1.04v-4.37h1.83v7.81
		h-2.07l-3.29-4.5c-0.2-0.31-0.42-0.66-0.53-0.93h-0.03c0,0.34,0.01,0.68,0.01,1.06v4.38h-1.83V45.26z"/>
	<path class="st0" d="M216.74,51.63v1.44h-6.48v-7.81h6.4v1.44h-4.41v1.69h4.22v1.39h-4.22v1.85H216.74z"/>
	<path class="st0" d="M219.11,53.07v-7.81h1.99v7.81H219.11z"/>
	<path class="st0" d="M223.13,49.18c0-2.48,1.74-4.15,4.41-4.15c2.22,0,3.72,1.1,4.06,2.86l-2.05,0.36
		c-0.2-1.06-0.91-1.65-2.05-1.65c-1.43,0-2.3,0.98-2.3,2.55c0,1.54,0.88,2.54,2.33,2.54c1.1,0,1.82-0.57,2.05-1.6l2.02,0.44
		c-0.48,1.71-1.92,2.74-4.11,2.74C224.75,53.29,223.13,51.67,223.13,49.18z"/>
	<path class="st0" d="M241.38,53.07h-2v-3.22h-3.74v3.22h-1.99v-7.81h1.99v3.11h3.74v-3.11h2V53.07z"/>
	<path class="st0" d="M250.51,51.63v1.44h-6.48v-7.81h6.4v1.44h-4.41v1.69h4.22v1.39h-4.22v1.85H250.51z"/>
	<path class="st0" d="M252.88,45.26h2.18l3.18,4.46c0.21,0.32,0.41,0.66,0.53,0.96h0.03c0-0.33-0.01-0.67-0.01-1.04v-4.37h1.83v7.81
		h-2.07l-3.29-4.5c-0.2-0.31-0.42-0.66-0.53-0.93h-0.03c0,0.34,0.01,0.68,0.01,1.06v4.38h-1.83V45.26z"/>
	<path class="st0" d="M273.05,51.35h-3.51l-0.65,1.72h-2.08l3.29-7.81h2.39l3.29,7.81h-2.08L273.05,51.35z M272.53,50l-0.75-1.97
		c-0.23-0.54-0.37-0.9-0.47-1.41h-0.03c-0.1,0.51-0.24,0.87-0.47,1.41L270.06,50H272.53z"/>
	<path class="st0" d="M279.04,45.26v4.62c0,1.08,0.66,1.82,1.85,1.82c1.16,0,1.84-0.74,1.84-1.82v-4.62h2v4.76
		c0,1.97-1.4,3.27-3.84,3.27c-2.45,0-3.85-1.3-3.85-3.28v-4.75H279.04z"/>
	<path class="st0" d="M286.62,49.18c0-2.48,1.74-4.15,4.41-4.15c2.22,0,3.72,1.1,4.06,2.86l-2.05,0.36
		c-0.2-1.06-0.91-1.65-2.05-1.65c-1.43,0-2.3,0.98-2.3,2.55c0,1.54,0.88,2.54,2.33,2.54c1.1,0,1.82-0.57,2.05-1.6l2.02,0.44
		c-0.48,1.71-1.92,2.74-4.11,2.74C288.24,53.29,286.62,51.67,286.62,49.18z"/>
	<path class="st0" d="M303.54,46.83h-2.68v6.24h-2v-6.24h-2.68v-1.57h7.37V46.83z"/>
	<path class="st0" d="M305.39,53.07v-7.81h1.99v7.81H305.39z"/>
	<path class="st0" d="M309.42,49.16c0-2.52,1.75-4.12,4.43-4.12c2.7,0,4.43,1.61,4.43,4.12c0,2.52-1.74,4.13-4.43,4.13
		C311.17,53.29,309.42,51.67,309.42,49.16z M316.21,49.16c0-1.59-0.9-2.6-2.35-2.6c-1.44,0-2.34,1-2.34,2.6c0,1.58,0.9,2.6,2.34,2.6
		C315.3,51.76,316.21,50.76,316.21,49.16z"/>
	<path class="st0" d="M320.33,45.26h2.18l3.18,4.46c0.21,0.32,0.41,0.66,0.53,0.96h0.03c0-0.33-0.01-0.67-0.01-1.04v-4.37h1.83v7.81
		H326l-3.29-4.5c-0.2-0.31-0.42-0.66-0.53-0.93h-0.03c0,0.34,0.01,0.68,0.01,1.06v4.38h-1.83V45.26z"/>
	<path class="st0" d="M337.2,51.63v1.44h-6.48v-7.81h6.4v1.44h-4.41v1.69h4.22v1.39h-4.22v1.85H337.2z"/>
	<path class="st0" d="M346.05,51.63v1.44h-6.48v-7.81h6.4v1.44h-4.41v1.69h4.22v1.39h-4.22v1.85H346.05z"/>
	<path class="st0" d="M352.01,50.16h-1.61v2.9h-1.99v-7.81h4.22c2.2,0,3,1.1,3,2.43c0,0.92-0.47,1.84-1.63,2.21l1.87,3.17h-2.21
		L352.01,50.16z M350.4,48.84h1.8c0.97,0,1.34-0.5,1.34-1.13c0-0.62-0.36-1.08-1.34-1.08h-1.8V48.84z"/>
	<path class="st0" d="M356.86,51.4l1.46-1.02c0.51,0.85,1.41,1.42,2.68,1.42c1.02,0,1.65-0.29,1.65-0.9c0-0.54-0.34-0.75-1.2-0.89
		l-1.61-0.23c-1.6-0.26-2.44-0.99-2.44-2.35c0-1.47,1.32-2.38,3.52-2.38c1.65,0,2.96,0.52,3.7,1.58l-1.3,1.08
		c-0.47-0.77-1.36-1.22-2.51-1.22c-0.95,0-1.5,0.3-1.5,0.81c0,0.5,0.32,0.73,1.22,0.87l1.56,0.24c1.72,0.26,2.52,0.91,2.52,2.3
		c0,1.58-1.34,2.58-3.71,2.58C358.96,53.29,357.51,52.55,356.86,51.4z"/>
</g>
</svg>
