<svg width="211" height="427" viewBox="0 0 211 427" fill="none" xmlns="http://www.w3.org/2000/svg">
<path d="M200.688 134.24C186.681 105.561 166.743 28.8034 159.621 12.3244C157.223 6.78505 153.584 0.959303 146.846 1.00021H62.8203C58.513 1.14749 55.2906 2.58758 53.2022 5.3859C51.6857 7.69712 50.3676 10.1333 49.262 12.6681C42.8907 27.5434 34.5779 69.0191 4.68762 140" stroke="#4A4A4A" stroke-linecap="round" stroke-linejoin="round"/>
<path d="M204.688 223C174.135 284.368 162.665 350.149 154.679 416.731L148.834 426H61.5411L55.696 416.731C47.71 350.149 36.2398 284.368 5.68762 223" stroke="#4A4A4A" stroke-linecap="round" stroke-linejoin="round"/>
<path d="M118.156 261.022C162.523 253.912 192.729 212.161 185.623 167.77C178.516 123.378 136.789 93.1558 92.4211 100.266C48.0537 107.377 17.8478 149.127 24.9543 193.519C32.0608 237.91 73.7887 268.132 118.156 261.022Z" stroke="#4A4A4A" stroke-linecap="round" stroke-linejoin="round"/>
<path fill-rule="evenodd" clip-rule="evenodd" d="M10.7395 220.24C5.24216 194.569 4.16557 168.441 10.5846 141.537C24.5401 118.76 43.6016 101.384 64.9549 86.4365C78.3639 82.7425 91.7729 81.4839 105.19 81.5329C118.607 81.582 132.008 82.7752 145.417 86.4365C166.771 101.384 185.832 118.76 199.787 141.537C206.207 168.441 205.13 194.569 199.633 220.24C184.951 243.548 166.599 260.727 146.192 274.563C134.072 278.396 120.181 279.377 105.19 279.467C90.1906 279.336 76.3003 278.356 64.1881 274.563C43.7973 260.727 25.3965 243.507 10.7395 220.24ZM105.19 76C91.0307 76 76.8795 77.3158 62.72 81.2142C40.184 96.9957 20.0622 115.335 5.33187 139.371C-1.4379 167.771 -0.304107 195.354 5.49506 222.446C20.9921 247.054 40.3716 265.181 61.9125 279.786C74.7016 283.831 89.3586 284.861 105.19 285C121.013 284.861 135.679 283.831 148.468 279.786C170.009 265.181 189.413 247.054 204.877 222.446C210.676 195.354 211.818 167.771 205.04 139.371C190.31 115.335 170.188 96.9957 147.652 81.2142C133.501 77.3158 119.341 75.9919 105.19 76Z" stroke="#4A4A4A" stroke-linecap="round" stroke-linejoin="round"/>
<path fill-rule="evenodd" clip-rule="evenodd" d="M105.2 99.5865C121.357 99.5865 137.152 104.365 150.586 113.318C164.021 122.27 174.491 134.995 180.674 149.883C186.857 164.77 188.475 181.152 185.323 196.957C182.171 212.762 174.391 227.279 162.966 238.674C151.541 250.068 136.984 257.828 121.137 260.972C105.291 264.116 88.8649 262.502 73.9374 256.336C59.01 250.169 46.2512 239.726 37.2747 226.327C28.2981 212.929 23.5069 197.176 23.5069 181.062C23.5069 159.453 32.1139 138.73 47.4343 123.45C62.7547 108.171 83.5336 99.5865 105.2 99.5865V99.5865ZM10.1127 142.025C3.66156 168.938 4.74354 195.075 10.2684 220.753C25.0233 244.069 43.4752 261.254 63.9845 275.095C76.1573 278.929 90.1171 279.91 105.192 280C120.258 279.869 134.218 278.888 146.399 275.095C166.892 261.254 185.385 244.028 200.107 220.753C205.632 195.075 206.714 168.938 200.263 142.025C186.237 119.24 167.08 101.859 145.62 86.9066C132.144 83.2113 118.668 81.9523 105.192 82.0014C91.7156 82.0504 78.2313 83.244 64.7551 86.9066C43.3031 101.818 24.1463 119.199 10.1127 142.025Z" stroke="#4A4A4A" stroke-linecap="round" stroke-linejoin="round"/>
<path fill-rule="evenodd" clip-rule="evenodd" d="M99.6876 176.607L98.7294 178C97.6102 177.316 96.6278 176.99 95.5086 176.306L92.6985 177.202L67.166 159.158C61.6102 155.232 66.4171 149.554 71.5784 153.138L96.9419 170.791C96.9983 172.127 97.0466 173.471 97.103 174.807C98.0129 175.442 98.7939 175.972 99.6876 176.607Z" stroke="#4A4A4A" stroke-linecap="round" stroke-linejoin="round"/>
<path fill-rule="evenodd" clip-rule="evenodd" d="M111.327 177.086L114.073 174.985L116.973 175.536C124.774 168.707 146.855 148.276 154.608 141.455C159.696 136.99 154.431 132.205 149.674 136.99C141.912 143.675 119.791 163.084 112.014 169.738L112.304 173.667L110.164 175.552C108.944 174.371 107.317 173.69 105.61 173.647C103.902 173.605 102.242 174.204 100.964 175.323C99.6851 176.443 98.883 178 98.7189 179.681C98.5548 181.362 99.041 183.042 100.079 184.383C101.118 185.724 102.631 186.626 104.315 186.907C105.999 187.188 107.728 186.828 109.154 185.899C110.58 184.969 111.597 183.54 112.001 181.899C112.404 180.258 112.163 178.527 111.327 177.054V177.086Z" stroke="#4A4A4A" stroke-linecap="round" stroke-linejoin="round"/>
<path d="M160.688 176H146.688V186H160.688V176Z" stroke="#4A4A4A" stroke-linecap="round" stroke-linejoin="round"/>
<path d="M141.688 117L133.688 133" stroke="#4A4A4A" stroke-linecap="round" stroke-linejoin="round"/>
<path d="M108.688 107V126" stroke="#4A4A4A" stroke-linecap="round" stroke-linejoin="round"/>
<path d="M101.688 107V126" stroke="#4A4A4A" stroke-linecap="round" stroke-linejoin="round"/>
<path d="M68.6876 117L77.6876 133" stroke="#4A4A4A" stroke-linecap="round" stroke-linejoin="round"/>
<path d="M41.6876 144L57.6876 153" stroke="#4A4A4A" stroke-linecap="round" stroke-linejoin="round"/>
<path d="M31.6876 181H49.6876" stroke="#4A4A4A" stroke-linecap="round" stroke-linejoin="round"/>
<path d="M57.6876 208L41.6876 218" stroke="#4A4A4A" stroke-linecap="round" stroke-linejoin="round"/>
<path d="M77.6876 228L68.6876 245" stroke="#4A4A4A" stroke-linecap="round" stroke-linejoin="round"/>
<path d="M105.688 236V254" stroke="#4A4A4A" stroke-linecap="round" stroke-linejoin="round"/>
<path d="M133.688 228L141.688 245" stroke="#4A4A4A" stroke-linecap="round" stroke-linejoin="round"/>
<path d="M152.688 208L169.688 218" stroke="#4A4A4A" stroke-linecap="round" stroke-linejoin="round"/>
<path d="M166.688 181H178.688" stroke="#4A4A4A" stroke-linecap="round" stroke-linejoin="round"/>
<path d="M152.688 153L169.688 144" stroke="#4A4A4A" stroke-linecap="round" stroke-linejoin="round"/>
<path d="M81.78 39H64.5953C63.5417 39 62.6876 39.8438 62.6876 40.8846V59.1154C62.6876 60.1562 63.5417 61 64.5953 61H81.78C82.8335 61 83.6876 60.1562 83.6876 59.1154V40.8846C83.6876 39.8438 82.8335 39 81.78 39Z" stroke="#4A4A4A" stroke-linecap="round" stroke-linejoin="round"/>
<path d="M146.689 39H128.686C127.582 39 126.688 39.8438 126.688 40.8846V59.1154C126.688 60.1562 127.582 61 128.686 61H146.689C147.793 61 148.688 60.1562 148.688 59.1154V40.8846C148.688 39.8438 147.793 39 146.689 39Z" stroke="#4A4A4A" stroke-linecap="round" stroke-linejoin="round"/>
<path d="M143.475 16H127.9C127.23 16 126.688 16.5307 126.688 17.1854V27.8146C126.688 28.4693 127.23 29 127.9 29H143.475C144.145 29 144.688 28.4693 144.688 27.8146V17.1854C144.688 16.5307 144.145 16 143.475 16Z" stroke="#4A4A4A" stroke-linecap="round" stroke-linejoin="round"/>
<path d="M82.4752 16H66.9001C66.2305 16 65.6876 16.5307 65.6876 17.1854V27.8146C65.6876 28.4693 66.2305 29 66.9001 29H82.4752C83.1448 29 83.6876 28.4693 83.6876 27.8146V17.1854C83.6876 16.5307 83.1448 16 82.4752 16Z" stroke="#4A4A4A" stroke-linecap="round" stroke-linejoin="round"/>
<path d="M141.176 5H127.199C126.917 5 126.688 5.24387 126.688 5.5447V10.4553C126.688 10.7561 126.917 11 127.199 11H141.176C141.459 11 141.688 10.7561 141.688 10.4553V5.5447C141.688 5.24387 141.459 5 141.176 5Z" stroke="#4A4A4A" stroke-linecap="round" stroke-linejoin="round"/>
<path d="M83.1762 5H69.199C68.9165 5 68.6876 5.24387 68.6876 5.5447V10.4553C68.6876 10.7561 68.9165 11 69.199 11H83.1762C83.4587 11 83.6876 10.7561 83.6876 10.4553V5.5447C83.6876 5.24387 83.4587 5 83.1762 5Z" stroke="#4A4A4A" stroke-linecap="round" stroke-linejoin="round"/>
<path d="M151.796 324H170.282V323.893V323.705C170.5 322.711 170.709 321.717 170.927 320.715V320.607L170.968 320.393V320.276L171.621 317.304L171.688 317H151.688" stroke="#4A4A4A" stroke-linecap="round" stroke-linejoin="round"/>
<path d="M83.6876 324H127.688" stroke="#4A4A4A" stroke-linecap="round" stroke-linejoin="round"/>
<path d="M59.6876 317H38.6876L38.7541 317.304C38.9782 318.298 39.1856 319.292 39.4014 320.276V320.393L39.4513 320.607V320.715C39.6588 321.717 39.8746 322.711 40.0821 323.705L40.1236 323.893V324H59.6213" stroke="#4A4A4A" stroke-linecap="round" stroke-linejoin="round"/>
<path d="M127.688 317H83.6876" stroke="#4A4A4A" stroke-linecap="round" stroke-linejoin="round"/>
<path d="M81.5094 302H61.8658C60.6628 302 59.6876 302.958 59.6876 304.139V324.861C59.6876 326.042 60.6628 327 61.8658 327H81.5094C82.7124 327 83.6876 326.042 83.6876 324.861V304.139C83.6876 302.958 82.7124 302 81.5094 302Z" stroke="#4A4A4A" stroke-linecap="round" stroke-linejoin="round"/>
<path d="M149.509 304H129.866C128.663 304 127.688 304.996 127.688 306.225V327.775C127.688 329.004 128.663 330 129.866 330H149.509C150.712 330 151.688 329.004 151.688 327.775V306.225C151.688 304.996 150.712 304 149.509 304Z" stroke="#4A4A4A" stroke-linecap="round" stroke-linejoin="round"/>
<path d="M146.923 341H129.452C128.478 341 127.688 341.774 127.688 342.729V358.271C127.688 359.226 128.478 360 129.452 360H146.923C147.898 360 148.688 359.226 148.688 358.271V342.729C148.688 341.774 147.898 341 146.923 341Z" stroke="#4A4A4A" stroke-linecap="round" stroke-linejoin="round"/>
<path fill-rule="evenodd" clip-rule="evenodd" d="M83.6876 344.813V342.727C83.6855 342.269 83.5078 341.831 83.1931 341.508C82.8784 341.185 82.4521 341.002 82.007 341H65.3682C64.9231 341.002 64.4968 341.185 64.1821 341.508C63.8674 341.831 63.6897 342.269 63.6876 342.727V358.273C63.6897 358.731 63.8674 359.169 64.1821 359.492C64.4968 359.815 64.9231 359.998 65.3682 360H82.007C82.4521 359.998 82.8784 359.815 83.1931 359.492C83.5078 359.169 83.6855 358.731 83.6876 358.273V344.813Z" stroke="#4A4A4A" stroke-linecap="round" stroke-linejoin="round"/>
<path d="M144.179 371H129.196C128.363 371 127.688 371.731 127.688 372.633V387.367C127.688 388.269 128.363 389 129.196 389H144.179C145.012 389 145.688 388.269 145.688 387.367V372.633C145.688 371.731 145.012 371 144.179 371Z" stroke="#4A4A4A" stroke-linecap="round" stroke-linejoin="round"/>
<path d="M82.1789 371H67.1964C66.3631 371 65.6876 371.731 65.6876 372.633V387.367C65.6876 388.269 66.3631 389 67.1964 389H82.1789C83.0121 389 83.6876 388.269 83.6876 387.367V372.633C83.6876 371.731 83.0121 371 82.1789 371Z" stroke="#4A4A4A" stroke-linecap="round" stroke-linejoin="round"/>
<path d="M140.414 401H128.961C128.258 401 127.688 401.594 127.688 402.326V415.674C127.688 416.406 128.258 417 128.961 417H140.414C141.118 417 141.688 416.406 141.688 415.674V402.326C141.688 401.594 141.118 401 140.414 401Z" stroke="#4A4A4A" stroke-linecap="round" stroke-linejoin="round"/>
<path d="M82.4142 401H70.961C70.2577 401 69.6876 401.594 69.6876 402.326V415.674C69.6876 416.406 70.2577 417 70.961 417H82.4142C83.1175 417 83.6876 416.406 83.6876 415.674V402.326C83.6876 401.594 83.1175 401 82.4142 401Z" stroke="#4A4A4A" stroke-linecap="round" stroke-linejoin="round"/>
<path fill-rule="evenodd" clip-rule="evenodd" d="M64.6876 86.2392L62.4621 81C40.0198 96.8324 19.9817 115.231 5.31256 139.345C-1.42906 167.837 -0.299983 195.508 5.47507 222.688L5.67 223L6.29544 222.688L10.6977 220.475C5.22322 194.721 4.1511 168.509 10.5435 141.517C11.0308 140.698 11.5181 139.927 12.0136 139.148C25.7648 117.453 44.1622 100.719 64.6876 86.2392Z" stroke="#4A4A4A" stroke-linecap="round" stroke-linejoin="round"/>
<path fill-rule="evenodd" clip-rule="evenodd" d="M62.6876 80.9961L64.9242 86C78.344 82.4605 91.7637 81.2545 105.192 81.3015C118.62 81.3485 132.031 82.4918 145.451 86L147.688 80.9961C133.525 77.2608 119.354 75.9922 105.192 76C91.0291 76.0079 76.8584 77.2608 62.6876 80.9961Z" stroke="#4A4A4A" stroke-linecap="round" stroke-linejoin="round"/>
<path fill-rule="evenodd" clip-rule="evenodd" d="M145.688 86.2397C164.681 99.6033 181.86 114.876 195.296 134.174C197.069 136.713 198.771 139.322 200.402 142L205.688 139.81C204.478 137.826 203.234 135.882 201.953 133.975C187.548 112.488 168.768 95.6612 147.937 81L145.688 86.2397Z" stroke="#4A4A4A" stroke-linecap="round" stroke-linejoin="round"/>
<path fill-rule="evenodd" clip-rule="evenodd" d="M199.842 142.143C206.252 168.761 205.177 194.611 199.688 220.008L203.1 222.191L204.371 223L204.884 222.191C206.971 212.653 208.4 202.984 209.16 193.253C209.82 184.717 209.861 176.146 209.282 167.605C208.648 158.302 207.232 149.068 205.047 140L199.842 142.143Z" stroke="#4A4A4A" stroke-linecap="round" stroke-linejoin="round"/>
<path fill-rule="evenodd" clip-rule="evenodd" d="M198.467 222.223C183.841 244.59 165.724 261.241 145.688 274.738L147.996 280C169.595 265.441 189.086 247.422 204.688 223.047L203.397 222.223L199.889 220C199.418 220.708 198.946 221.449 198.467 222.223Z" stroke="#4A4A4A" stroke-linecap="round" stroke-linejoin="round"/>
<path fill-rule="evenodd" clip-rule="evenodd" d="M105.342 279.447C90.3194 279.315 76.4074 278.331 64.2763 274.525C44.4826 261.08 26.5924 244.494 12.1576 222.215C11.6838 221.485 11.2099 220.746 10.7442 220L6.31666 222.215L5.68762 222.527C21.1517 247.061 40.5124 265.182 61.9971 279.767C74.8063 283.827 89.4862 284.861 105.342 285C121.19 284.861 135.878 283.827 148.688 279.767L146.408 274.525C134.269 278.331 120.357 279.315 105.342 279.447Z" stroke="#4A4A4A" stroke-linecap="round" stroke-linejoin="round"/>
<path d="M64.6876 275L61.6876 280" stroke="#4A4A4A" stroke-linecap="round" stroke-linejoin="round"/>
<path d="M4.68762 140L10.6876 142" stroke="#4A4A4A" stroke-linecap="round" stroke-linejoin="round"/>
<path d="M148.688 344H164.688" stroke="#4A4A4A" stroke-linecap="round" stroke-linejoin="round"/>
<path d="M84.6876 344H126.688" stroke="#4A4A4A" stroke-linecap="round" stroke-linejoin="round"/>
<path d="M45.6876 344H63.6876" stroke="#4A4A4A" stroke-linecap="round" stroke-linejoin="round"/>
<path d="M148.688 349H164.688" stroke="#4A4A4A" stroke-linecap="round" stroke-linejoin="round"/>
<path d="M84.6876 349H126.688" stroke="#4A4A4A" stroke-linecap="round" stroke-linejoin="round"/>
<path d="M145.688 377H159.688" stroke="#4A4A4A" stroke-linecap="round" stroke-linejoin="round"/>
<path d="M84.6876 377H126.688" stroke="#4A4A4A" stroke-linecap="round" stroke-linejoin="round"/>
<path d="M50.6876 377H65.6876" stroke="#4A4A4A" stroke-linecap="round" stroke-linejoin="round"/>
<path d="M145.688 381H159.688" stroke="#4A4A4A" stroke-linecap="round" stroke-linejoin="round"/>
<path d="M51.6876 381H65.6876" stroke="#4A4A4A" stroke-linecap="round" stroke-linejoin="round"/>
<path d="M84.6876 381H126.688" stroke="#4A4A4A" stroke-linecap="round" stroke-linejoin="round"/>
<path d="M143.688 411H155.688" stroke="#4A4A4A" stroke-linecap="round" stroke-linejoin="round"/>
<path d="M84.6876 411H126.688" stroke="#4A4A4A" stroke-linecap="round" stroke-linejoin="round"/>
<path d="M55.6876 411H69.6876" stroke="#4A4A4A" stroke-linecap="round" stroke-linejoin="round"/>
<path d="M143.688 414H155.688" stroke="#4A4A4A" stroke-linecap="round" stroke-linejoin="round"/>
<path d="M55.6876 414H69.6876" stroke="#4A4A4A" stroke-linecap="round" stroke-linejoin="round"/>
<path d="M84.6876 414H126.688" stroke="#4A4A4A" stroke-linecap="round" stroke-linejoin="round"/>
<path d="M46.6876 349H63.6876" stroke="#4A4A4A" stroke-linecap="round" stroke-linejoin="round"/>
<path d="M38.6876 48H62.6876" stroke="#4A4A4A" stroke-linecap="round" stroke-linejoin="round"/>
<path d="M40.6876 43H62.6876" stroke="#4A4A4A" stroke-linecap="round" stroke-linejoin="round"/>
<path d="M83.6876 49L126.688 48" stroke="#4A4A4A" stroke-linecap="round" stroke-linejoin="round"/>
<path d="M84.6876 43H125.688" stroke="#4A4A4A" stroke-linecap="round" stroke-linejoin="round"/>
<path d="M148.688 48H171.688" stroke="#4A4A4A" stroke-linecap="round" stroke-linejoin="round"/>
<path d="M149.688 43H170.688" stroke="#4A4A4A" stroke-linecap="round" stroke-linejoin="round"/>
<path d="M46.6876 23H65.6876" stroke="#4A4A4A" stroke-linecap="round" stroke-linejoin="round"/>
<path d="M46.6876 21H65.6876" stroke="#4A4A4A" stroke-linecap="round" stroke-linejoin="round"/>
<path d="M83.6876 24L126.688 23" stroke="#4A4A4A" stroke-linecap="round" stroke-linejoin="round"/>
<path d="M84.6876 21H125.688" stroke="#4A4A4A" stroke-linecap="round" stroke-linejoin="round"/>
<path d="M54.6876 5H155.688" stroke="#4A4A4A" stroke-linecap="round" stroke-linejoin="round"/>
<path d="M84.6876 7H126.688" stroke="#4A4A4A" stroke-linecap="round" stroke-linejoin="round"/>
<path d="M145.688 23H164.688" stroke="#4A4A4A" stroke-linecap="round" stroke-linejoin="round"/>
<path d="M145.688 21H164.688" stroke="#4A4A4A" stroke-linecap="round" stroke-linejoin="round"/>
<path d="M68.6876 7H53.6876" stroke="#4A4A4A" stroke-linecap="round" stroke-linejoin="round"/>
<path d="M158.688 7H141.688" stroke="#4A4A4A" stroke-linecap="round" stroke-linejoin="round"/>
</svg>
