<svg width="205" height="75" viewBox="0 0 205 75" fill="none" xmlns="http://www.w3.org/2000/svg">
<g clip-path="url(#clip0_121:7392)">
<path d="M74.75 0.72998L78.76 5.56998V27.56H84.28V0.72998H78.76H74.75Z" fill="white"/>
<path d="M0 0.72998L4 5.56998V27.56H9.53V0.72998H4H0Z" fill="white"/>
<path d="M35.91 18.03L21.38 0.72998H18.14H14.14L18.14 5.56998V27.56H23.66V12.19L36.47 27.56H41.5V0.72998H35.91V18.03Z" fill="white"/>
<path d="M198.75 18.03L184.22 0.72998H180.98H176.98L180.98 5.56998V27.56H186.51V12.19L199.31 27.56H204.34V0.72998H198.75V18.03Z" fill="white"/>
<path d="M138.99 11.61H126.34L126.35 0.72998H120.75V27.56H126.34V16.69H127.48H138.99V27.56H144.58V0.72998H138.99V11.61Z" fill="white"/>
<path d="M108.38 21.5701C107.14 22.1944 105.768 22.5133 104.38 22.5001C103.227 22.5057 102.083 22.2919 101.01 21.8701C99.9658 21.4669 99.0035 20.8773 98.17 20.1301C97.3163 19.3707 96.6386 18.434 96.1844 17.3856C95.7301 16.3372 95.5102 15.2023 95.54 14.0601C95.5083 12.9191 95.7273 11.785 96.1818 10.7379C96.6362 9.6908 97.3149 8.7562 98.17 8.00007C99.0031 7.2498 99.9653 6.65687 101.01 6.25007C102.083 5.82821 103.227 5.6144 104.38 5.62006C105.769 5.6103 107.141 5.93258 108.38 6.56006C109.511 7.13746 110.509 7.94469 111.31 8.93006L115.74 5.39007L115.22 4.82006C113.868 3.32561 112.224 2.1242 110.39 1.29006C108.643 0.463581 106.746 0.000197791 104.814 -0.0720467C102.882 -0.144291 100.956 0.176111 99.1521 0.869756C97.3478 1.5634 95.7031 2.61587 94.3174 3.96349C92.9316 5.31112 91.8337 6.92588 91.09 8.71006C90.3642 10.4003 89.99 12.2206 89.99 14.0601C89.99 15.8995 90.3642 17.7198 91.09 19.4101C91.7875 21.1118 92.806 22.6634 94.09 23.9801C96.2024 26.0299 98.8816 27.3984 101.781 27.9083C104.68 28.4182 107.665 28.0461 110.35 26.8401C112.184 26.0059 113.828 24.8045 115.18 23.3101L115.7 22.7401L111.27 19.2001C110.478 20.1785 109.495 20.9849 108.38 21.5701Z" fill="white"/>
<path d="M55.92 21.94V17.23V16.69H66.1V11.61H55.92V11.43V6.35998V5.80998H56.12H69.8V0.72998H53.12H50.33H46.33L50.33 5.56998V27.56H53.12V27.57H56.39H71.26V22.49H55.92V21.94Z" fill="white"/>
<path d="M158.8 21.94V17.23V16.69H168.97V11.61H158.8V11.43V6.35998V5.80998H159H172.67V0.72998H156H153.21H149.21L153.21 5.56998V27.56H156V27.57H159.26H174.14V22.49H158.8V21.94Z" fill="white"/>
<path d="M11.58 50.1601H5.2L4.02 53.2901H0.240005L6.24001 39.0901H10.53L16.53 53.2901H12.75L11.58 50.1601ZM10.64 47.7001L9.28 44.1201C8.8954 43.3028 8.6068 42.4438 8.42 41.5601H8.36C8.17319 42.4438 7.8846 43.3028 7.5 44.1201L6.14 47.7001H10.64Z" fill="white"/>
<path d="M24.9 39.08V47.48C24.9 48.3685 25.2529 49.2206 25.8812 49.8488C26.5094 50.4771 27.3615 50.83 28.25 50.83C29.1385 50.83 29.9906 50.4771 30.6188 49.8488C31.2471 49.2206 31.6 48.3685 31.6 47.48V39.08H35.24V47.74C35.24 51.32 32.7 53.68 28.24 53.68C23.78 53.68 21.24 51.32 21.24 47.68V39.04L24.9 39.08Z" fill="white"/>
<path d="M41.14 46.2199C41.14 41.7199 44.3 38.6799 49.14 38.6799C53.14 38.6799 55.9 40.6799 56.52 43.8799L52.8 44.5399C52.6871 43.6564 52.2369 42.8507 51.5435 42.2915C50.8502 41.7324 49.9674 41.463 49.08 41.5399C46.48 41.5399 44.9 43.3199 44.9 46.1799C44.9 49.0399 46.5 50.7999 49.14 50.7999C50.01 50.8672 50.8737 50.6072 51.5619 50.0707C52.2501 49.5342 52.713 48.76 52.86 47.8999L56.54 48.6999C55.66 51.7999 53.04 53.6999 49.06 53.6999C44.08 53.6799 41.14 50.7399 41.14 46.2199Z" fill="white"/>
<path d="M74.34 41.9401H69.46V53.2901H65.82V41.9401H60.94V39.0801H74.34V41.9401Z" fill="white"/>
<path d="M80.14 53.2901V39.0901H83.76V53.2901H80.14Z" fill="white"/>
<path d="M89.9 46.1799C89.9 41.5999 93.08 38.6799 97.96 38.6799C102.84 38.6799 106.02 41.5999 106.02 46.1799C106.02 50.7599 102.86 53.6799 97.96 53.6799C93.06 53.6799 89.9 50.7399 89.9 46.1799ZM102.24 46.1799C102.24 43.2799 100.6 41.4599 97.96 41.4599C95.32 41.4599 93.7 43.2799 93.7 46.1799C93.7 49.0799 95.34 50.8999 97.96 50.8999C100.58 50.8999 102.24 49.0799 102.24 46.1799Z" fill="white"/>
<path d="M112.18 39.0801H116.18L121.96 47.1801C122.346 47.7281 122.681 48.3106 122.96 48.9201H123.02C123.02 48.3201 123.02 47.7001 123.02 47.0201V39.0801H126.34V53.2901H122.53L116.53 45.1101C116.149 44.5729 115.814 44.0042 115.53 43.4101C115.53 44.0301 115.53 44.6501 115.53 45.3301V53.3301H112.21L112.18 39.0801Z" fill="white"/>
<path d="M145.3 50.6601V53.2901H133.53V39.0901H145.17V41.7101H137.17V44.7901H144.85V47.2901H137.17V50.6501L145.3 50.6601Z" fill="white"/>
<path d="M163.82 50.6601V53.2901H152.03V39.0901H163.68V41.7101H155.68V44.7901H163.36V47.2901H155.68V50.6501L163.82 50.6601Z" fill="white"/>
<path d="M177.1 48.0001H174.18V53.2901H170.53V39.0901H178.21C182.21 39.0901 183.67 41.0901 183.67 43.5101C183.69 44.4164 183.405 45.3031 182.861 46.0283C182.317 46.7535 181.546 47.2753 180.67 47.5101L184.07 53.2701H180.07L177.1 48.0001ZM174.18 45.6001H177.46C179.22 45.6001 179.9 44.7001 179.9 43.5401C179.9 42.3801 179.24 41.5401 177.46 41.5401H174.18V45.6001Z" fill="white"/>
<path d="M188.36 50.29L191.02 48.43C191.526 49.2592 192.247 49.9366 193.105 50.3907C193.964 50.8447 194.93 51.0587 195.9 51.01C197.76 51.01 198.9 50.49 198.9 49.37C198.9 48.25 198.28 48.01 196.72 47.75L193.8 47.33C190.9 46.85 189.36 45.53 189.36 43.05C189.36 40.37 191.76 38.73 195.76 38.73C198.76 38.73 201.14 39.67 202.48 41.61L200.12 43.61C199.629 42.8513 198.945 42.2367 198.139 41.829C197.332 41.4214 196.432 41.2354 195.53 41.29C193.81 41.29 192.81 41.83 192.81 42.77C192.81 43.71 193.39 44.09 195.03 44.35L197.87 44.79C200.99 45.27 202.45 46.45 202.45 48.97C202.45 51.85 200.01 53.67 195.71 53.67C192.18 53.68 189.53 52.34 188.36 50.29Z" fill="white"/>
<path d="M76.1 72.77V74.07H70.21V66.98H76.03V68.29H72.03V69.83H75.87V71.09H72.03V72.77H76.1Z" fill="#C6A55A"/>
<path d="M78.62 72.56L79.95 71.63C80.2031 72.0446 80.5633 72.3833 80.9927 72.6103C81.4221 72.8373 81.9048 72.9443 82.39 72.92C83.32 72.92 83.89 72.66 83.89 72.1C83.89 71.54 83.58 71.42 82.8 71.29L81.34 71.08C79.89 70.84 79.12 70.18 79.12 68.94C79.12 67.7 80.32 66.78 82.32 66.78C82.9554 66.7236 83.5949 66.8257 84.1813 67.077C84.7676 67.3283 85.2825 67.721 85.68 68.22L84.5 69.22C84.2498 68.8521 83.9077 68.5562 83.5078 68.3614C83.1078 68.1667 82.6638 68.08 82.22 68.11C81.36 68.11 80.86 68.38 80.86 68.85C80.86 69.32 81.15 69.51 81.97 69.64L83.39 69.86C84.95 70.1 85.68 70.69 85.68 71.95C85.68 73.38 84.46 74.29 82.31 74.29C81.5963 74.3588 80.8773 74.2345 80.2281 73.9301C79.579 73.6258 79.0236 73.1526 78.62 72.56Z" fill="#C6A55A"/>
<path d="M94.67 68.41H92.23V74.07H90.41V68.41H87.97V66.98H94.67V68.41Z" fill="#C6A55A"/>
<path d="M98.13 74.0699H96.27V72.45H98.13V74.0699Z" fill="#C6A55A"/>
<path d="M107.92 69.3601C107.525 69.6849 107.02 69.8459 106.51 69.8101H106.15V68.2901H106.37C106.763 68.325 107.156 68.2292 107.489 68.0176C107.821 67.806 108.075 67.4906 108.21 67.1201H109.66V74.0601H107.92V69.3601Z" fill="#C6A55A"/>
<path d="M119.42 70.48C119.42 72.87 118.31 74.26 116.1 74.26C114.49 74.26 113.39 73.56 113.1 72.31L114.82 72.04C114.891 72.3263 115.062 72.5777 115.302 72.7484C115.543 72.9191 115.836 72.9977 116.13 72.97C117.13 72.97 117.7 72.21 117.72 70.87C117.466 71.1403 117.154 71.3492 116.808 71.4809C116.461 71.6126 116.089 71.6636 115.72 71.63C114.04 71.63 113 70.78 113 69.35C113 67.92 114.2 66.98 116.08 66.98C118.24 66.98 119.42 68.19 119.42 70.48ZM117.7 69.48C117.657 69.1058 117.47 68.763 117.179 68.5241C116.888 68.2852 116.515 68.169 116.14 68.2C115.29 68.2 114.76 68.63 114.76 69.32C114.76 70.01 115.29 70.42 116.1 70.42C116.43 70.4404 116.759 70.3619 117.044 70.1944C117.329 70.027 117.557 69.7782 117.7 69.48Z" fill="#C6A55A"/>
<path d="M123.02 73.9399C123.057 72.8856 123.327 71.8526 123.811 70.9153C124.295 69.978 124.981 69.1599 125.82 68.5199H121.72V67.1299H127.53V68.4199C126.717 69.0558 126.058 69.8673 125.602 70.7938C125.147 71.7202 124.907 72.7376 124.9 73.7699V74.0699H122.98L123.02 73.9399Z" fill="#C6A55A"/>
<path d="M129.97 71.92L131.75 71.7599C131.75 72.5499 132.31 72.9799 133.18 72.9799C134.05 72.9799 134.51 72.6399 134.51 71.9799C134.51 71.32 134.05 71.0699 133.12 71.0699H132.53V69.9599H133.08C133.91 69.9599 134.33 69.6499 134.33 69.0699C134.33 68.4899 133.9 68.2099 133.09 68.2099C132.919 68.1863 132.744 68.2007 132.579 68.2519C132.414 68.3031 132.262 68.39 132.134 68.5064C132.007 68.6227 131.906 68.7658 131.84 68.9254C131.773 69.085 131.743 69.2572 131.75 69.4299L130 69.2299C130 67.8699 131.17 66.9399 133.14 66.9399C135.11 66.9399 136.14 67.67 136.14 68.89C136.123 69.2949 135.956 69.6791 135.671 69.9675C135.387 70.2559 135.005 70.4279 134.6 70.45C135.69 70.59 136.32 71.14 136.32 72.11C136.32 73.38 135.12 74.2199 133.14 74.2199C131.16 74.2199 130.02 73.38 129.97 71.92Z" fill="#C6A55A"/>
</g>
<defs>
<clipPath id="clip0_121:7392">
<rect width="204.34" height="74.28" fill="white"/>
</clipPath>
</defs>
</svg>
