<svg width="138" height="50" viewBox="0 0 138 50" fill="none" xmlns="http://www.w3.org/2000/svg">
<g clip-path="url(#clip0)">
<path d="M50.3164 0.492188L53.0157 3.75013V18.5522H56.7313V0.492188H53.0157H50.3164Z" fill="#1C2473"/>
<path d="M0 0.492188L2.69251 3.75013V18.5522H6.41492V0.492188H2.69251H0Z" fill="#1C2473"/>
<path d="M24.1716 12.1373L14.391 0.492188H12.2101H9.51758L12.2101 3.75013V18.5522H15.9258V8.20624L24.5485 18.5522H27.9344V0.492188H24.1716V12.1373Z" fill="#1C2473"/>
<path d="M133.785 12.1373L124.004 0.492188H121.823H119.131L121.823 3.75013V18.5522H125.546V8.20624L134.162 18.5522H137.548V0.492188H133.785V12.1373Z" fill="#1C2473"/>
<path d="M93.5591 7.81583H85.044L85.0508 0.492188H81.2812V18.5522H85.044V11.2353H85.8114H93.5591V18.5522H97.3219V0.492188H93.5591V7.81583Z" fill="#1C2473"/>
<path d="M72.9531 14.52C72.1183 14.9403 71.1951 15.1549 70.2606 15.146C69.4844 15.1498 68.7145 15.0059 67.9921 14.7219C67.2892 14.4505 66.6415 14.0536 66.0804 13.5506C65.5058 13.0395 65.0496 12.409 64.7438 11.7033C64.4381 10.9976 64.29 10.2336 64.3101 9.46476C64.2887 8.69672 64.4362 7.93334 64.7421 7.22851C65.048 6.52368 65.5048 5.89458 66.0804 5.3856C66.6412 4.88058 67.2889 4.48146 67.9921 4.20763C68.7145 3.92367 69.4844 3.77975 70.2606 3.78355C71.1956 3.77698 72.1188 3.99392 72.9531 4.4163C73.7144 4.80496 74.3861 5.34833 74.9253 6.01161L77.9073 3.62874L77.5573 3.24505C76.6474 2.23909 75.5408 1.43039 74.306 0.868906C73.1298 0.31258 71.853 0.000663228 70.5528 -0.0479666C69.2525 -0.0965964 67.956 0.119075 66.7415 0.585988C65.527 1.0529 64.4199 1.76134 63.4871 2.66847C62.5543 3.57559 61.8153 4.66254 61.3147 5.86352C60.8261 7.00128 60.5742 8.22655 60.5742 9.46476C60.5742 10.703 60.8261 11.9282 61.3147 13.066C61.7842 14.2115 62.4698 15.2559 63.3341 16.1422C64.756 17.522 66.5594 18.4432 68.5108 18.7864C70.4622 19.1297 72.4717 18.8792 74.2791 18.0673C75.5139 17.5059 76.6204 16.6972 77.5303 15.6912L77.8804 15.3075L74.8984 12.9246C74.3653 13.5832 73.7033 14.1261 72.9531 14.52Z" fill="#1C2473"/>
<path d="M37.6408 14.7692V11.5988V11.2353H44.4933V7.81583H37.6408V7.69467V4.2819V3.91168H37.7755H46.9839V0.492188H35.7561H33.8781H31.1855L33.8781 3.75013V18.5522H35.7561V18.559H37.9572H47.9666V15.1395H37.6408V14.7692Z" fill="#1C2473"/>
<path d="M106.893 14.7692V11.5988V11.2353H113.739V7.81583H106.893V7.69467V4.2819V3.91168H107.027H116.229V0.492188H105.008H103.13H100.438L103.13 3.75013V18.5522H105.008V18.559H107.202H117.219V15.1395H106.893V14.7692Z" fill="#1C2473"/>
<path d="M7.79539 33.764H3.50082L2.70653 35.8709H0.162109L4.20088 26.3125H7.0886L11.1274 35.8709H8.58294L7.79539 33.764ZM7.16264 32.1081L6.24719 29.6983C5.9883 29.1482 5.79404 28.57 5.6683 27.9751H5.62791C5.50217 28.57 5.30791 29.1482 5.04902 29.6983L4.13356 32.1081H7.16264Z" fill="#1C2473"/>
<path d="M16.7605 26.3062V31.9605C16.7605 32.5586 16.9981 33.1321 17.421 33.555C17.8439 33.9779 18.4174 34.2155 19.0155 34.2155C19.6136 34.2155 20.1871 33.9779 20.61 33.555C21.0329 33.1321 21.2705 32.5586 21.2705 31.9605V26.3062H23.7207V32.1355C23.7207 34.5453 22.0109 36.1339 19.0088 36.1339C16.0066 36.1339 14.2969 34.5453 14.2969 32.0951V26.2793L16.7605 26.3062Z" fill="#1C2473"/>
<path d="M27.6914 31.1125C27.6914 28.0834 29.8185 26.0371 33.0764 26.0371C35.769 26.0371 37.6268 27.3834 38.0441 29.5374L35.5401 29.9816C35.4641 29.3869 35.1611 28.8446 34.6943 28.4682C34.2276 28.0918 33.6334 27.9105 33.0361 27.9623C31.2859 27.9623 30.2224 29.1604 30.2224 31.0856C30.2224 33.0107 31.2994 34.1954 33.0764 34.1954C33.662 34.2407 34.2435 34.0657 34.7067 33.7046C35.1699 33.3434 35.4815 32.8223 35.5805 32.2434L38.0576 32.7819C37.4652 34.8686 35.7016 36.1475 33.0226 36.1475C29.6704 36.134 27.6914 34.155 27.6914 31.1125Z" fill="#1C2473"/>
<path d="M50.0414 28.2318H46.7565V35.8718H44.3064V28.2318H41.0215V26.3066H50.0414V28.2318Z" fill="#1C2473"/>
<path d="M53.9434 35.8709V26.3125H56.3801V35.8709H53.9434Z" fill="#1C2473"/>
<path d="M60.5137 31.0856C60.5137 28.0026 62.6542 26.0371 65.9391 26.0371C69.224 26.0371 71.3645 28.0026 71.3645 31.0856C71.3645 34.1685 69.2374 36.134 65.9391 36.134C62.6408 36.134 60.5137 34.155 60.5137 31.0856ZM68.8201 31.0856C68.8201 29.1335 67.7161 27.9084 65.9391 27.9084C64.162 27.9084 63.0716 29.1335 63.0716 31.0856C63.0716 33.0376 64.1755 34.2627 65.9391 34.2627C67.7027 34.2627 68.8201 33.0376 68.8201 31.0856Z" fill="#1C2473"/>
<path d="M75.5117 26.3066H78.2042L82.0949 31.759C82.3548 32.1279 82.5802 32.52 82.768 32.9302H82.8084C82.8084 32.5264 82.8084 32.109 82.8084 31.6513V26.3066H85.0432V35.8718H82.4786L78.4398 30.3656C78.1833 30.004 77.9581 29.6212 77.7667 29.2213C77.7667 29.6386 77.7667 30.056 77.7667 30.5137V35.8987H75.5319L75.5117 26.3066Z" fill="#1C2473"/>
<path d="M97.8055 34.1006V35.8709H89.8828V26.3125H97.718V28.0761H92.333V30.1493H97.5026V31.8322H92.333V34.0939L97.8055 34.1006Z" fill="#1C2473"/>
<path d="M110.272 34.1006V35.8709H102.336V26.3125H110.178V28.0761H104.793V30.1493H109.962V31.8322H104.793V34.0939L110.272 34.1006Z" fill="#1C2473"/>
<path d="M119.212 32.3101H117.246V35.8709H114.789V26.3125H119.959C122.651 26.3125 123.634 27.6588 123.634 29.2877C123.647 29.8978 123.456 30.4947 123.089 30.9828C122.723 31.471 122.204 31.8222 121.615 31.9802L123.903 35.8575H121.211L119.212 32.3101ZM117.246 30.6946H119.454C120.639 30.6946 121.096 30.0887 121.096 29.3079C121.096 28.5271 120.652 27.9617 119.454 27.9617H117.246V30.6946Z" fill="#1C2473"/>
<path d="M126.791 33.8517L128.582 32.5997C128.922 33.1579 129.407 33.6138 129.985 33.9194C130.563 34.2251 131.213 34.3691 131.866 34.3363C133.118 34.3363 133.886 33.9863 133.886 33.2324C133.886 32.4785 133.468 32.317 132.418 32.1419L130.453 31.8592C128.501 31.5361 127.464 30.6476 127.464 28.9782C127.464 27.1742 129.08 26.0703 131.772 26.0703C133.792 26.0703 135.394 26.7031 136.296 28.0089L134.707 29.3552C134.377 28.8445 133.916 28.4308 133.373 28.1564C132.831 27.882 132.225 27.7568 131.617 27.7935C130.46 27.7935 129.786 28.157 129.786 28.7897C129.786 29.4225 130.177 29.6783 131.281 29.8533L133.192 30.1495C135.293 30.4726 136.275 31.2669 136.275 32.9631C136.275 34.9018 134.633 36.1269 131.739 36.1269C129.362 36.1336 127.579 35.2316 126.791 33.8517Z" fill="#1C2473"/>
<path d="M51.2245 48.9834V49.8584H47.2598V45.0859H51.1774V45.9677H48.4849V47.0043H51.0697V47.8525H48.4849V48.9834H51.2245Z" fill="#C6A55A"/>
<path d="M52.9219 48.8422L53.8171 48.2162C53.9875 48.4953 54.23 48.7233 54.519 48.8761C54.8081 49.0289 55.133 49.1009 55.4596 49.0846C56.0856 49.0846 56.4693 48.9095 56.4693 48.5326C56.4693 48.1556 56.2606 48.0749 55.7355 47.9874L54.7528 47.846C53.7767 47.6844 53.2584 47.2402 53.2584 46.4055C53.2584 45.5708 54.0662 44.9516 55.4125 44.9516C55.8402 44.9136 56.2706 44.9823 56.6653 45.1515C57.06 45.3206 57.4066 45.585 57.6742 45.9208L56.8799 46.594C56.7115 46.3464 56.4812 46.1472 56.212 46.0161C55.9427 45.885 55.6439 45.8267 55.3451 45.8468C54.7663 45.8468 54.4297 46.0286 54.4297 46.3449C54.4297 46.6613 54.6249 46.7892 55.1769 46.8767L56.1327 47.0248C57.1828 47.1863 57.6742 47.5835 57.6742 48.4316C57.6742 49.3942 56.8529 50.0067 55.4057 50.0067C54.9253 50.0531 54.4413 49.9694 54.0044 49.7645C53.5674 49.5597 53.1935 49.2411 52.9219 48.8422Z" fill="#C6A55A"/>
<path d="M63.7248 46.0485H62.0824V49.8584H60.8573V46.0485H59.2148V45.0859H63.7248V46.0485Z" fill="#C6A55A"/>
<path d="M66.0548 49.858H64.8027V48.7676H66.0548V49.858Z" fill="#C6A55A"/>
<path d="M72.6446 46.6895C72.3786 46.9081 72.0389 47.0165 71.6955 46.9924H71.4531V45.9692H71.6012C71.8656 45.9927 72.1303 45.9282 72.3543 45.7858C72.5782 45.6434 72.7489 45.431 72.8398 45.1816H73.8158V49.8532H72.6446V46.6895Z" fill="#C6A55A"/>
<path d="M80.386 47.4419C80.386 49.0507 79.6388 49.9863 78.1512 49.9863C77.0674 49.9863 76.327 49.5151 76.1318 48.6737L77.2896 48.492C77.3371 48.6847 77.4523 48.8539 77.6141 48.9688C77.776 49.0837 77.9737 49.1367 78.1714 49.118C78.8445 49.118 79.2282 48.6064 79.2416 47.7044C79.0708 47.8864 78.8608 48.027 78.6276 48.1156C78.3943 48.2043 78.1439 48.2386 77.8954 48.216C76.7645 48.216 76.0645 47.6438 76.0645 46.6813C76.0645 45.7187 76.8722 45.0859 78.1377 45.0859C79.5916 45.0859 80.386 45.9004 80.386 47.4419ZM79.2282 46.7688C79.1993 46.5169 79.0736 46.2861 78.8776 46.1253C78.6816 45.9645 78.4307 45.8863 78.1781 45.9072C77.6059 45.9072 77.2492 46.1966 77.2492 46.6611C77.2492 47.1255 77.6059 47.4015 78.1512 47.4015C78.3733 47.4153 78.5944 47.3624 78.7863 47.2497C78.9782 47.1369 79.1321 46.9695 79.2282 46.7688Z" fill="#C6A55A"/>
<path d="M82.8087 49.7715C82.8333 49.0618 83.0152 48.3665 83.3411 47.7356C83.6671 47.1047 84.1289 46.554 84.6934 46.1231H81.9336V45.1875H85.8445V46.0558C85.2971 46.4839 84.8536 47.0302 84.547 47.6538C84.2404 48.2774 84.0788 48.9622 84.0741 49.6571V49.859H82.7817L82.8087 49.7715Z" fill="#C6A55A"/>
<path d="M87.4863 48.4108L88.6845 48.3031C88.6845 48.8349 89.0614 49.1243 89.6471 49.1243C90.2327 49.1243 90.5423 48.8954 90.5423 48.4512C90.5423 48.0069 90.2327 47.8386 89.6067 47.8386H89.2095V47.0914H89.5797C90.1384 47.0914 90.4212 46.8828 90.4212 46.4924C90.4212 46.1019 90.1317 45.9135 89.5865 45.9135C89.4712 45.8976 89.3539 45.9072 89.2427 45.9417C89.1316 45.9762 89.0294 46.0347 88.9433 46.113C88.8573 46.1913 88.7895 46.2876 88.7447 46.3951C88.7 46.5025 88.6795 46.6184 88.6845 46.7347L87.5065 46.6001C87.5065 45.6846 88.2941 45.0586 89.6201 45.0586C90.9462 45.0586 91.6395 45.55 91.6395 46.3712C91.6282 46.6438 91.5158 46.9024 91.3241 47.0965C91.1324 47.2907 90.8753 47.4065 90.6029 47.4213C91.3366 47.5155 91.7607 47.8857 91.7607 48.5387C91.7607 49.3936 90.9529 49.959 89.6201 49.959C88.2873 49.959 87.52 49.3935 87.4863 48.4108Z" fill="#C6A55A"/>
</g>
<defs>
<clipPath id="clip0">
<rect width="137.547" height="50" fill="white"/>
</clipPath>
</defs>
</svg>
