<svg width="192" height="192" viewBox="0 0 192 192" fill="none" xmlns="http://www.w3.org/2000/svg">
<path fill-rule="evenodd" clip-rule="evenodd" d="M0 48C0 41.3726 5.37258 36 12 36H71C77.6274 36 83 41.3726 83 48V72.1716L90.8787 64.2929C92.7686 62.403 96 63.7415 96 66.4142V73H123C124.657 73 126 74.3431 126 76V89.5C126 91.1569 124.657 92.5 123 92.5H113V100.5H122.586C125.258 100.5 126.597 103.731 124.707 105.621L113 117.328V144C113 148.418 116.582 152 121 152H180C184.418 152 188 148.418 188 144V48C188 43.5817 184.418 40 180 40H171.959C171.451 46.1595 166.291 51 160 51H141C134.709 51 129.549 46.1595 129.041 40H121C116.582 40 113 43.5817 113 48V70H109V48C109 41.3726 114.373 36 121 36H180C186.627 36 192 41.3726 192 48V144C192 150.627 186.627 156 180 156H121C114.373 156 109 150.627 109 144V121.328L101.621 128.707C99.7314 130.597 96.5 129.258 96.5 126.586V120H69.5C67.8431 120 66.5 118.657 66.5 117V103.5C66.5 101.843 67.8431 100.5 69.5 100.5H79V92.5H69.9142C67.2415 92.5 65.903 89.2686 67.7929 87.3787L79 76.1716V48C79 43.5817 75.4183 40 71 40H62.9589C62.4508 46.1595 57.2907 51 51 51H32C25.7093 51 20.5492 46.1595 20.0411 40H12C7.58172 40 4 43.5817 4 48V144C4 148.418 7.58172 152 12 152H71C75.4183 152 79 148.418 79 144V122.5H83V144C83 150.627 77.6274 156 71 156H12C5.37258 156 0 150.627 0 144V48ZM83 92.5V100.5H109V92.5H83ZM109.172 115.5H109V115.672L100.5 124.172V119C100.5 117.343 99.1569 116 97.5 116H70.5V104.5H120.172L109.172 115.5ZM24.0619 40C24.554 43.9463 27.9204 47 32 47H51C55.0796 47 58.446 43.9463 58.9381 40H24.0619ZM133.062 40C133.554 43.9463 136.92 47 141 47H160C164.08 47 167.446 43.9463 167.938 40H133.062ZM72.3284 88.5L92 68.8284V74C92 75.6569 93.3431 77 95 77H122V88.5H72.3284Z" fill="black"/>
<path fill-rule="evenodd" clip-rule="evenodd" d="M26.324 74.98V119H31.284V101.33H46.598C56.022 101.33 62.036 96.122 62.036 88C62.036 79.94 56.394 74.98 47.218 74.98H26.324ZM31.284 97.176V79.134H46.598C53.046 79.134 56.89 82.482 56.89 88C56.89 93.58 52.984 97.176 46.66 97.176H31.284Z" fill="black"/>
<path fill-rule="evenodd" clip-rule="evenodd" d="M135.324 119V74.98H156.218C165.394 74.98 171.036 79.94 171.036 88C171.036 96.122 165.022 101.33 155.598 101.33H140.284V119H135.324ZM140.284 79.134V97.176H155.66C161.984 97.176 165.89 93.58 165.89 88C165.89 82.482 162.046 79.134 155.598 79.134H140.284Z" fill="black"/>
<path fill-rule="evenodd" clip-rule="evenodd" d="M26.324 74.98V119H31.284V101.33H46.598C56.022 101.33 62.036 96.122 62.036 88C62.036 79.94 56.394 74.98 47.218 74.98H26.324ZM31.284 97.176V79.134H46.598C53.046 79.134 56.89 82.482 56.89 88C56.89 93.58 52.984 97.176 46.66 97.176H31.284Z" fill="#1B72F9"/>
<path fill-rule="evenodd" clip-rule="evenodd" d="M135.324 119V74.98H156.218C165.394 74.98 171.036 79.94 171.036 88C171.036 96.122 165.022 101.33 155.598 101.33H140.284V119H135.324ZM140.284 79.134V97.176H155.66C161.984 97.176 165.89 93.58 165.89 88C165.89 82.482 162.046 79.134 155.598 79.134H140.284Z" fill="#1B72F9"/>
</svg>
