<svg width="192" height="192" viewBox="0 0 192 192" fill="none" xmlns="http://www.w3.org/2000/svg">
<path d="M73.161 115.048C69.213 115.048 66.693 117.043 66.693 120.046C66.693 123.049 68.877 124.855 72.405 124.855C74.295 124.855 75.744 124.288 76.584 123.259C76.521 126.073 75.408 127.627 73.245 127.627C71.775 127.627 70.83 126.913 70.494 125.695L66.882 126.262C67.449 128.887 69.759 130.357 73.14 130.357C77.781 130.357 80.112 127.417 80.112 122.419C80.112 117.61 77.634 115.048 73.161 115.048ZM73.14 122.314C71.439 122.314 70.326 121.39 70.326 119.983C70.326 118.513 71.439 117.61 73.224 117.61C75.198 117.61 76.227 118.744 76.5 120.319C75.996 121.516 74.736 122.314 73.14 122.314Z" fill="black"/>
<path d="M88.8692 130.399C93.2582 130.399 96.1142 127.543 96.1142 122.692C96.1142 117.862 93.2582 115.006 88.8692 115.006C84.4592 115.006 81.6242 117.862 81.6242 122.692C81.6242 127.543 84.4592 130.399 88.8692 130.399ZM88.8692 127.648C86.7692 127.648 85.4252 125.989 85.4252 122.692C85.4252 119.416 86.7692 117.757 88.8692 117.757C90.9692 117.757 92.3132 119.416 92.3132 122.692C92.3132 125.989 90.9692 127.648 88.8692 127.648Z" fill="black"/>
<path d="M104.111 130.357C108.269 130.357 110.789 128.593 110.789 125.926C110.789 123.91 109.466 122.755 107.177 122.44C109.004 122.146 110.411 121.012 110.411 119.185C110.411 116.581 108.143 115.048 104.111 115.048C99.9737 115.048 97.5587 117.001 97.5167 119.878L101.192 120.319C101.234 118.639 102.242 117.715 104.006 117.715C105.707 117.715 106.61 118.408 106.61 119.563C106.61 120.781 105.728 121.432 103.985 121.432H102.83V123.763H104.006C105.959 123.763 106.925 124.33 106.925 125.653C106.925 126.934 105.938 127.669 104.132 127.669C102.305 127.669 101.213 126.766 101.129 125.128L97.3907 125.464C97.4957 128.488 99.9947 130.357 104.111 130.357Z" fill="black"/>
<path fill-rule="evenodd" clip-rule="evenodd" d="M134 153V90H138V153C138 163.493 129.493 172 119 172V168C127.284 168 134 161.284 134 153Z" fill="black"/>
<path fill-rule="evenodd" clip-rule="evenodd" d="M135 79H57C49.8203 79 44 84.8203 44 92V155C44 162.18 49.8203 168 57 168H135C142.18 168 148 162.18 148 155V92C148 84.8203 142.18 79 135 79ZM57 75C47.6112 75 40 82.6112 40 92V155C40 164.389 47.6112 172 57 172H135C144.389 172 152 164.389 152 155V92C152 82.6112 144.389 75 135 75H57Z" fill="black"/>
<path fill-rule="evenodd" clip-rule="evenodd" d="M110 107H68C66.3431 107 65 108.343 65 110V135C65 136.657 66.3431 138 68 138H110C111.657 138 113 136.657 113 135V110C113 108.343 111.657 107 110 107ZM68 103C64.134 103 61 106.134 61 110V135C61 138.866 64.134 142 68 142H110C113.866 142 117 138.866 117 135V110C117 106.134 113.866 103 110 103H68Z" fill="black"/>
<path fill-rule="evenodd" clip-rule="evenodd" d="M96.5 20C80.7599 20 68 32.7599 68 48.5V76.5H64V48.5C64 30.5507 78.5507 16 96.5 16C114.449 16 129 30.5507 129 48.5V76.5H125V48.5C125 32.7599 112.24 20 96.5 20Z" fill="black"/>
<path fill-rule="evenodd" clip-rule="evenodd" d="M96.5 31C87.3873 31 80 38.3873 80 47.5V76H76V47.5C76 36.1782 85.1782 27 96.5 27C107.822 27 117 36.1782 117 47.5V69H113V47.5C113 38.3873 105.613 31 96.5 31Z" fill="black"/>
<path fill-rule="evenodd" clip-rule="evenodd" d="M7.5 84C9.433 84 11 82.433 11 80.5C11 78.567 9.433 77 7.5 77C5.567 77 4 78.567 4 80.5C4 82.433 5.567 84 7.5 84ZM7.5 88C11.6421 88 15 84.6421 15 80.5C15 76.3579 11.6421 73 7.5 73C3.35786 73 0 76.3579 0 80.5C0 84.6421 3.35786 88 7.5 88Z" fill="black"/>
<path fill-rule="evenodd" clip-rule="evenodd" d="M18.2639 82H13.5V78H18.882C20.0183 78 21.0571 78.642 21.5652 79.6584L33.7361 104H41V108H33.118C31.9817 108 30.9429 107.358 30.4348 106.342L18.2639 82Z" fill="black"/>
<path fill-rule="evenodd" clip-rule="evenodd" d="M173.736 82H178.5V78H173.118C171.982 78 170.943 78.642 170.435 79.6584L158.264 104H151V108H158.882C160.018 108 161.057 107.358 161.565 106.342L173.736 82Z" fill="black"/>
<path fill-rule="evenodd" clip-rule="evenodd" d="M36.2361 143H41V139H35.618C34.4817 139 33.4429 139.642 32.9348 140.658L20.7639 165H13.5V169H21.382C22.5183 169 23.5571 168.358 24.0652 167.342L36.2361 143Z" fill="black"/>
<path fill-rule="evenodd" clip-rule="evenodd" d="M155.764 143H151V139H156.382C157.518 139 158.557 139.642 159.065 140.658L171.236 165H178.5V169H170.618C169.482 169 168.443 168.358 167.935 167.342L155.764 143Z" fill="black"/>
<path fill-rule="evenodd" clip-rule="evenodd" d="M7.5 127C9.433 127 11 125.433 11 123.5C11 121.567 9.433 120 7.5 120C5.567 120 4 121.567 4 123.5C4 125.433 5.567 127 7.5 127ZM7.5 131C11.6421 131 15 127.642 15 123.5C15 119.358 11.6421 116 7.5 116C3.35786 116 0 119.358 0 123.5C0 127.642 3.35786 131 7.5 131Z" fill="black"/>
<path fill-rule="evenodd" clip-rule="evenodd" d="M7.5 170C9.433 170 11 168.433 11 166.5C11 164.567 9.433 163 7.5 163C5.567 163 4 164.567 4 166.5C4 168.433 5.567 170 7.5 170ZM7.5 174C11.6421 174 15 170.642 15 166.5C15 162.358 11.6421 159 7.5 159C3.35786 159 0 162.358 0 166.5C0 170.642 3.35786 174 7.5 174Z" fill="black"/>
<path fill-rule="evenodd" clip-rule="evenodd" d="M184.5 84C186.433 84 188 82.433 188 80.5C188 78.567 186.433 77 184.5 77C182.567 77 181 78.567 181 80.5C181 82.433 182.567 84 184.5 84ZM184.5 88C188.642 88 192 84.6421 192 80.5C192 76.3579 188.642 73 184.5 73C180.358 73 177 76.3579 177 80.5C177 84.6421 180.358 88 184.5 88Z" fill="black"/>
<path fill-rule="evenodd" clip-rule="evenodd" d="M184.5 127C186.433 127 188 125.433 188 123.5C188 121.567 186.433 120 184.5 120C182.567 120 181 121.567 181 123.5C181 125.433 182.567 127 184.5 127ZM184.5 131C188.642 131 192 127.642 192 123.5C192 119.358 188.642 116 184.5 116C180.358 116 177 119.358 177 123.5C177 127.642 180.358 131 184.5 131Z" fill="black"/>
<path fill-rule="evenodd" clip-rule="evenodd" d="M184.5 170C186.433 170 188 168.433 188 166.5C188 164.567 186.433 163 184.5 163C182.567 163 181 164.567 181 166.5C181 168.433 182.567 170 184.5 170ZM184.5 174C188.642 174 192 170.642 192 166.5C192 162.358 188.642 159 184.5 159C180.358 159 177 162.358 177 166.5C177 170.642 180.358 174 184.5 174Z" fill="black"/>
<path fill-rule="evenodd" clip-rule="evenodd" d="M41 126H13V122H41V126Z" fill="black"/>
<path fill-rule="evenodd" clip-rule="evenodd" d="M151 126H179V122H151V126Z" fill="black"/>
<path d="M73.161 115.048C69.213 115.048 66.693 117.043 66.693 120.046C66.693 123.049 68.877 124.855 72.405 124.855C74.295 124.855 75.744 124.288 76.584 123.259C76.521 126.073 75.408 127.627 73.245 127.627C71.775 127.627 70.83 126.913 70.494 125.695L66.882 126.262C67.449 128.887 69.759 130.357 73.14 130.357C77.781 130.357 80.112 127.417 80.112 122.419C80.112 117.61 77.634 115.048 73.161 115.048ZM73.14 122.314C71.439 122.314 70.326 121.39 70.326 119.983C70.326 118.513 71.439 117.61 73.224 117.61C75.198 117.61 76.227 118.744 76.5 120.319C75.996 121.516 74.736 122.314 73.14 122.314Z" fill="#1B72F9"/>
<path d="M88.8692 130.399C93.2582 130.399 96.1142 127.543 96.1142 122.692C96.1142 117.862 93.2582 115.006 88.8692 115.006C84.4592 115.006 81.6242 117.862 81.6242 122.692C81.6242 127.543 84.4592 130.399 88.8692 130.399ZM88.8692 127.648C86.7692 127.648 85.4252 125.989 85.4252 122.692C85.4252 119.416 86.7692 117.757 88.8692 117.757C90.9692 117.757 92.3132 119.416 92.3132 122.692C92.3132 125.989 90.9692 127.648 88.8692 127.648Z" fill="#1B72F9"/>
<path d="M104.111 130.357C108.269 130.357 110.789 128.593 110.789 125.926C110.789 123.91 109.466 122.755 107.177 122.44C109.004 122.146 110.411 121.012 110.411 119.185C110.411 116.581 108.143 115.048 104.111 115.048C99.9737 115.048 97.5587 117.001 97.5167 119.878L101.192 120.319C101.234 118.639 102.242 117.715 104.006 117.715C105.707 117.715 106.61 118.408 106.61 119.563C106.61 120.781 105.728 121.432 103.985 121.432H102.83V123.763H104.006C105.959 123.763 106.925 124.33 106.925 125.653C106.925 126.934 105.938 127.669 104.132 127.669C102.305 127.669 101.213 126.766 101.129 125.128L97.3907 125.464C97.4957 128.488 99.9947 130.357 104.111 130.357Z" fill="#1B72F9"/>
</svg>
