<svg width="192" height="192" viewBox="0 0 192 192" fill="none" xmlns="http://www.w3.org/2000/svg">
<path fill-rule="evenodd" clip-rule="evenodd" d="M32 75C46.7183 75 60 59.9341 60 39.5C60 19.0659 46.7183 4 32 4C17.2817 4 4 19.0659 4 39.5C4 59.9341 17.2817 75 32 75ZM32 79C49.6731 79 64 61.3152 64 39.5C64 17.6848 49.6731 0 32 0C14.3269 0 0 17.6848 0 39.5C0 61.3152 14.3269 79 32 79Z" fill="black"/>
<path fill-rule="evenodd" clip-rule="evenodd" d="M59.3866 11.2647C52.6094 5.98063 43.1464 4 32 4V0C43.4973 0 54.0342 2.01937 61.8461 8.11026C69.7433 14.2676 74.4854 24.286 74.9989 39.4322L75 39.4661V39.5C75 53.7332 70.2241 63.7356 62.241 70.124C54.3356 76.4503 43.5734 79 32 79V75C43.0702 75 52.808 72.5497 59.7417 67.001C66.592 61.5191 70.9925 52.7817 71 39.5338C70.5076 25.2002 66.0732 16.4783 59.3866 11.2647Z" fill="black"/>
<path fill-rule="evenodd" clip-rule="evenodd" d="M31.5 66C42.0484 66 52 54.998 52 39.5C52 24.002 42.0484 13 31.5 13C20.9516 13 11 24.002 11 39.5C11 54.998 20.9516 66 31.5 66ZM31.5 70C45.031 70 56 56.3447 56 39.5C56 22.6553 45.031 9 31.5 9C17.969 9 7 22.6553 7 39.5C7 56.3447 17.969 70 31.5 70Z" fill="black"/>
<path fill-rule="evenodd" clip-rule="evenodd" d="M91 131C105.718 131 119 115.934 119 95.5C119 75.0659 105.718 60 91 60C76.2817 60 63 75.0659 63 95.5C63 115.934 76.2817 131 91 131ZM91 135C108.673 135 123 117.315 123 95.5C123 73.6848 108.673 56 91 56C73.3269 56 59 73.6848 59 95.5C59 117.315 73.3269 135 91 135Z" fill="black"/>
<path fill-rule="evenodd" clip-rule="evenodd" d="M118.387 67.2647C111.609 61.9806 102.146 60 91 60V56C102.497 56 113.034 58.0194 120.846 64.1103C128.743 70.2676 133.485 80.286 133.999 95.4322L134 95.4661V95.5C134 109.733 129.224 119.736 121.241 126.124C113.336 132.45 102.573 135 91 135V131C102.07 131 111.808 128.55 118.742 123.001C125.592 117.519 129.993 108.782 130 95.5338C129.508 81.2002 125.073 72.4783 118.387 67.2647Z" fill="black"/>
<path fill-rule="evenodd" clip-rule="evenodd" d="M90.5 122C101.048 122 111 110.998 111 95.5C111 80.002 101.048 69 90.5 69C79.9516 69 70 80.002 70 95.5C70 110.998 79.9516 122 90.5 122ZM90.5 126C104.031 126 115 112.345 115 95.5C115 78.6553 104.031 65 90.5 65C76.969 65 66 78.6553 66 95.5C66 112.345 76.969 126 90.5 126Z" fill="black"/>
<path fill-rule="evenodd" clip-rule="evenodd" d="M32 188C46.7183 188 60 172.934 60 152.5C60 132.066 46.7183 117 32 117C17.2817 117 4 132.066 4 152.5C4 172.934 17.2817 188 32 188ZM32 192C49.6731 192 64 174.315 64 152.5C64 130.685 49.6731 113 32 113C14.3269 113 0 130.685 0 152.5C0 174.315 14.3269 192 32 192Z" fill="black"/>
<path fill-rule="evenodd" clip-rule="evenodd" d="M59.3866 124.265C52.6094 118.981 43.1464 117 32 117V113C43.4973 113 54.0342 115.019 61.8461 121.11C69.7433 127.268 74.4854 137.286 74.9989 152.432L75 152.466V152.5C75 166.733 70.2241 176.736 62.241 183.124C54.3356 189.45 43.5734 192 32 192V188C43.0702 188 52.808 185.55 59.7417 180.001C66.592 174.519 70.9925 165.782 71 152.534C70.5076 138.2 66.0732 129.478 59.3866 124.265Z" fill="black"/>
<path fill-rule="evenodd" clip-rule="evenodd" d="M31.5 179C42.0484 179 52 167.998 52 152.5C52 137.002 42.0484 126 31.5 126C20.9516 126 11 137.002 11 152.5C11 167.998 20.9516 179 31.5 179ZM31.5 183C45.031 183 56 169.345 56 152.5C56 135.655 45.031 122 31.5 122C17.969 122 7 135.655 7 152.5C7 169.345 17.969 183 31.5 183Z" fill="black"/>
<path fill-rule="evenodd" clip-rule="evenodd" d="M148 75C162.718 75 176 59.9341 176 39.5C176 19.0659 162.718 4 148 4C133.282 4 120 19.0659 120 39.5C120 59.9341 133.282 75 148 75ZM148 79C165.673 79 180 61.3152 180 39.5C180 17.6848 165.673 0 148 0C130.327 0 116 17.6848 116 39.5C116 61.3152 130.327 79 148 79Z" fill="black"/>
<path fill-rule="evenodd" clip-rule="evenodd" d="M175.387 11.2647C168.609 5.98063 159.146 4 148 4V0C159.497 0 170.034 2.01937 177.846 8.11026C185.743 14.2676 190.485 24.286 190.999 39.4322L191 39.4661V39.5C191 53.7332 186.224 63.7356 178.241 70.124C170.336 76.4503 159.573 79 148 79V75C159.07 75 168.808 72.5497 175.742 67.001C182.592 61.5191 186.993 52.7817 187 39.5338C186.508 25.2002 182.073 16.4783 175.387 11.2647Z" fill="black"/>
<path fill-rule="evenodd" clip-rule="evenodd" d="M147.5 66C158.048 66 168 54.998 168 39.5C168 24.002 158.048 13 147.5 13C136.952 13 127 24.002 127 39.5C127 54.998 136.952 66 147.5 66ZM147.5 70C161.031 70 172 56.3447 172 39.5C172 22.6553 161.031 9 147.5 9C133.969 9 123 22.6553 123 39.5C123 56.3447 133.969 70 147.5 70Z" fill="black"/>
<path fill-rule="evenodd" clip-rule="evenodd" d="M148 188C162.718 188 176 172.934 176 152.5C176 132.066 162.718 117 148 117C133.282 117 120 132.066 120 152.5C120 172.934 133.282 188 148 188ZM148 192C165.673 192 180 174.315 180 152.5C180 130.685 165.673 113 148 113C130.327 113 116 130.685 116 152.5C116 174.315 130.327 192 148 192Z" fill="black"/>
<path fill-rule="evenodd" clip-rule="evenodd" d="M175.387 124.265C168.609 118.981 159.146 117 148 117V113C159.497 113 170.034 115.019 177.846 121.11C185.743 127.268 190.485 137.286 190.999 152.432L191 152.466V152.5C191 166.733 186.224 176.736 178.241 183.124C170.336 189.45 159.573 192 148 192V188C159.07 188 168.808 185.55 175.742 180.001C182.592 174.519 186.993 165.782 187 152.534C186.508 138.2 182.073 129.478 175.387 124.265Z" fill="black"/>
<path fill-rule="evenodd" clip-rule="evenodd" d="M147.5 179C158.048 179 168 167.998 168 152.5C168 137.002 158.048 126 147.5 126C136.952 126 127 137.002 127 152.5C127 167.998 136.952 179 147.5 179ZM147.5 183C161.031 183 172 169.345 172 152.5C172 135.655 161.031 122 147.5 122C133.969 122 123 135.655 123 152.5C123 169.345 133.969 183 147.5 183Z" fill="black"/>
<path d="M35.2 26.08C36.5333 26.08 37.7867 26.2267 38.96 26.52C40.1333 26.8133 41.2667 27.28 42.36 27.92L40.88 30.8C40.1333 30.4 39.2533 30.0267 38.24 29.68C37.2533 29.3333 36.24 29.16 35.2 29.16C34.2133 29.16 33.3067 29.32 32.48 29.64C31.6533 29.9333 30.92 30.4 30.28 31.04C29.6667 31.68 29.1333 32.48 28.68 33.44C28.2267 34.4 27.88 35.52 27.64 36.8H37.4V39.4H27.36C27.3333 39.6667 27.32 39.92 27.32 40.16C27.32 40.4 27.32 40.6533 27.32 40.92C27.32 41.16 27.32 41.4267 27.32 41.72C27.32 41.9867 27.3333 42.2667 27.36 42.56H36.2V45.16H27.68C28 46.6533 28.4933 47.9333 29.16 49C29.8267 50.0667 30.6933 50.88 31.76 51.44C32.8267 52 34.08 52.28 35.52 52.28C36.56 52.28 37.6 52.16 38.64 51.92C39.7067 51.6533 40.6533 51.3467 41.48 51V54.12C40.6533 54.4667 39.7333 54.76 38.72 55C37.7333 55.2667 36.6 55.4 35.32 55.4C33.16 55.4 31.32 54.9867 29.8 54.16C28.28 53.3333 27.0533 52.16 26.12 50.64C25.1867 49.0933 24.52 47.2667 24.12 45.16H20.92V42.56H23.8C23.7733 42.24 23.76 41.9733 23.76 41.76C23.76 41.5467 23.76 41.2667 23.76 40.92C23.76 40.6267 23.76 40.3467 23.76 40.08C23.7867 39.7867 23.8 39.56 23.8 39.4H20.92V36.8H24.08C24.4267 34.6133 25.0667 32.72 26 31.12C26.9333 29.52 28.1733 28.28 29.72 27.4C31.2667 26.52 33.0933 26.08 35.2 26.08Z" fill="black"/>
<path d="M89.12 109.04C87.6533 109.013 86.2267 108.893 84.84 108.68C83.4533 108.44 82.3333 108.12 81.48 107.72V104.32C82.3867 104.747 83.5467 105.12 84.96 105.44C86.3733 105.76 87.76 105.933 89.12 105.96V97.88C87.8133 97.5067 86.6667 97.1067 85.68 96.68C84.72 96.2267 83.9333 95.72 83.32 95.16C82.7067 94.6 82.24 93.96 81.92 93.24C81.6267 92.4933 81.48 91.64 81.48 90.68C81.48 89.3733 81.7867 88.2533 82.4 87.32C83.04 86.3867 83.9333 85.6533 85.08 85.12C86.2267 84.56 87.5733 84.24 89.12 84.16V80.64H91.68V84.12C93.0933 84.1467 94.3733 84.3067 95.52 84.6C96.6933 84.8667 97.76 85.2 98.72 85.6L97.64 88.56C96.7867 88.2133 95.84 87.92 94.8 87.68C93.7867 87.4133 92.7467 87.24 91.68 87.16V95.2C93.44 95.7067 94.9067 96.2533 96.08 96.84C97.2533 97.4 98.1333 98.1067 98.72 98.96C99.3333 99.7867 99.64 100.867 99.64 102.2C99.64 104.067 98.9467 105.587 97.56 106.76C96.1733 107.907 94.2133 108.613 91.68 108.88V113.32H89.12V109.04ZM91.68 105.76C93.2533 105.6 94.4 105.24 95.12 104.68C95.84 104.093 96.2 103.347 96.2 102.44C96.2 101.773 96.0667 101.227 95.8 100.8C95.5333 100.347 95.0667 99.96 94.4 99.64C93.76 99.32 92.8533 99.0133 91.68 98.72V105.76ZM89.12 87.24C88.16 87.2933 87.3733 87.4667 86.76 87.76C86.1467 88.0267 85.68 88.3867 85.36 88.84C85.0667 89.2933 84.92 89.8133 84.92 90.4C84.92 91.0933 85.04 91.6933 85.28 92.2C85.5467 92.68 85.9867 93.0933 86.6 93.44C87.2133 93.76 88.0533 94.0533 89.12 94.32V87.24Z" fill="black"/>
<path d="M25.2 168V162.8H21.8V160.2H25.2V139.44H40.68V142.6H28.68V152.64H39.92V155.8H28.68V160.2H34.72V162.8H28.68V168H25.2Z" fill="black"/>
<path d="M149.36 26.08C150.827 26.08 152.147 26.24 153.32 26.56C154.493 26.88 155.533 27.2667 156.44 27.72L155.2 30.52C154.4 30.1467 153.507 29.8 152.52 29.48C151.56 29.16 150.533 29 149.44 29C147.92 29 146.76 29.4 145.96 30.2C145.16 30.9733 144.76 32.24 144.76 34V39.56H152.92V42.2H144.76V46.36C144.76 47.4267 144.627 48.32 144.36 49.04C144.12 49.7333 143.787 50.2933 143.36 50.72C142.96 51.1467 142.52 51.5067 142.04 51.8H157.4V55H137.28V52.04C138.053 51.8533 138.733 51.5467 139.32 51.12C139.907 50.6667 140.373 50.0667 140.72 49.32C141.067 48.5467 141.24 47.5733 141.24 46.4V42.2H137.4V39.56H141.24V33.64C141.24 32.04 141.573 30.68 142.24 29.56C142.907 28.44 143.853 27.5867 145.08 27C146.307 26.3867 147.733 26.08 149.36 26.08Z" fill="black"/>
<path d="M144.4 168.2C143.707 168.2 143.08 168.173 142.52 168.12C141.96 168.093 141.48 168.053 141.08 168V154.96L136.8 156.44V153.84L141.08 152.4V149.24L136.8 150.68V148.08L141.08 146.64V139.44H144.52V145.44L152.76 142.6V145.2L144.52 148.04V151.2L152.76 148.36V150.92L144.52 153.8V165.16C146.947 165.16 148.867 164.667 150.28 163.68C151.693 162.667 152.707 161.32 153.32 159.64C153.933 157.96 154.24 156.08 154.24 154H157.68C157.68 155.84 157.44 157.613 156.96 159.32C156.507 161.027 155.747 162.547 154.68 163.88C153.64 165.213 152.28 166.267 150.6 167.04C148.92 167.813 146.853 168.2 144.4 168.2Z" fill="black"/>
<path d="M35.2 26.08C36.5333 26.08 37.7866 26.2267 38.96 26.52C40.1333 26.8134 41.2667 27.28 42.36 27.92L40.88 30.8C40.1333 30.4 39.2533 30.0267 38.24 29.68C37.2533 29.3334 36.24 29.16 35.2 29.16C34.2133 29.16 33.3067 29.32 32.48 29.64C31.6533 29.9334 30.92 30.4 30.28 31.04C29.6667 31.68 29.1333 32.48 28.68 33.44C28.2266 34.4 27.88 35.52 27.64 36.8H37.4V39.4H27.36C27.3333 39.6667 27.32 39.92 27.32 40.16C27.32 40.4 27.32 40.6534 27.32 40.92C27.32 41.16 27.32 41.4267 27.32 41.72C27.32 41.9867 27.3333 42.2667 27.36 42.56H36.2V45.16H27.68C28 46.6534 28.4933 47.9334 29.16 49C29.8267 50.0667 30.6933 50.88 31.76 51.44C32.8267 52 34.08 52.28 35.52 52.28C36.56 52.28 37.6 52.16 38.64 51.92C39.7067 51.6534 40.6533 51.3467 41.48 51V54.12C40.6533 54.4667 39.7333 54.76 38.72 55C37.7333 55.2667 36.6 55.4 35.32 55.4C33.16 55.4 31.32 54.9867 29.8 54.16C28.28 53.3334 27.0533 52.16 26.12 50.64C25.1867 49.0934 24.52 47.2667 24.12 45.16H20.92V42.56H23.8C23.7733 42.24 23.76 41.9734 23.76 41.76C23.76 41.5467 23.76 41.2667 23.76 40.92C23.76 40.6267 23.76 40.3467 23.76 40.08C23.7866 39.7867 23.8 39.56 23.8 39.4H20.92V36.8H24.08C24.4266 34.6134 25.0666 32.72 26 31.12C26.9333 29.52 28.1733 28.28 29.72 27.4C31.2666 26.52 33.0933 26.08 35.2 26.08Z" fill="#1B72F9"/>
<path d="M89.12 109.04C87.6533 109.013 86.2266 108.893 84.84 108.68C83.4533 108.44 82.3333 108.12 81.48 107.72V104.32C82.3866 104.747 83.5467 105.12 84.96 105.44C86.3733 105.76 87.76 105.933 89.12 105.96V97.88C87.8133 97.5067 86.6667 97.1067 85.68 96.68C84.72 96.2267 83.9333 95.72 83.32 95.16C82.7067 94.6 82.24 93.96 81.92 93.24C81.6266 92.4934 81.48 91.64 81.48 90.68C81.48 89.3733 81.7866 88.2534 82.4 87.32C83.04 86.3867 83.9333 85.6534 85.08 85.12C86.2267 84.56 87.5733 84.24 89.12 84.16V80.64H91.68V84.12C93.0933 84.1467 94.3733 84.3067 95.52 84.6C96.6933 84.8667 97.76 85.2 98.72 85.6L97.64 88.56C96.7867 88.2133 95.84 87.92 94.8 87.68C93.7866 87.4134 92.7467 87.24 91.68 87.16V95.2C93.44 95.7067 94.9067 96.2534 96.08 96.84C97.2533 97.4 98.1333 98.1067 98.72 98.96C99.3333 99.7867 99.64 100.867 99.64 102.2C99.64 104.067 98.9466 105.587 97.56 106.76C96.1733 107.907 94.2133 108.613 91.68 108.88V113.32H89.12V109.04ZM91.68 105.76C93.2533 105.6 94.4 105.24 95.12 104.68C95.84 104.093 96.2 103.347 96.2 102.44C96.2 101.773 96.0666 101.227 95.8 100.8C95.5333 100.347 95.0667 99.96 94.4 99.64C93.76 99.32 92.8533 99.0134 91.68 98.72V105.76ZM89.12 87.24C88.16 87.2934 87.3733 87.4667 86.76 87.76C86.1466 88.0267 85.68 88.3867 85.36 88.84C85.0667 89.2934 84.92 89.8134 84.92 90.4C84.92 91.0934 85.04 91.6934 85.28 92.2C85.5467 92.68 85.9866 93.0934 86.6 93.44C87.2133 93.76 88.0533 94.0533 89.12 94.32V87.24Z" fill="#1B72F9"/>
<path d="M25.2 168V162.8H21.8V160.2H25.2V139.44H40.68V142.6H28.68V152.64H39.92V155.8H28.68V160.2H34.72V162.8H28.68V168H25.2Z" fill="#1B72F9"/>
<path d="M149.36 26.08C150.827 26.08 152.147 26.24 153.32 26.56C154.493 26.88 155.533 27.2667 156.44 27.72L155.2 30.52C154.4 30.1467 153.507 29.8 152.52 29.48C151.56 29.16 150.533 29 149.44 29C147.92 29 146.76 29.4 145.96 30.2C145.16 30.9734 144.76 32.24 144.76 34V39.56H152.92V42.2H144.76V46.36C144.76 47.4267 144.627 48.32 144.36 49.04C144.12 49.7333 143.787 50.2933 143.36 50.72C142.96 51.1467 142.52 51.5067 142.04 51.8H157.4V55H137.28V52.04C138.053 51.8534 138.733 51.5467 139.32 51.12C139.907 50.6667 140.373 50.0667 140.72 49.32C141.067 48.5467 141.24 47.5734 141.24 46.4V42.2H137.4V39.56H141.24V33.64C141.24 32.04 141.573 30.68 142.24 29.56C142.907 28.44 143.853 27.5867 145.08 27C146.307 26.3867 147.733 26.08 149.36 26.08Z" fill="#1B72F9"/>
<path d="M144.4 168.2C143.707 168.2 143.08 168.173 142.52 168.12C141.96 168.093 141.48 168.053 141.08 168V154.96L136.8 156.44V153.84L141.08 152.4V149.24L136.8 150.68V148.08L141.08 146.64V139.44H144.52V145.44L152.76 142.6V145.2L144.52 148.04V151.2L152.76 148.36V150.92L144.52 153.8V165.16C146.947 165.16 148.867 164.667 150.28 163.68C151.693 162.667 152.707 161.32 153.32 159.64C153.933 157.96 154.24 156.08 154.24 154H157.68C157.68 155.84 157.44 157.613 156.96 159.32C156.507 161.027 155.747 162.547 154.68 163.88C153.64 165.213 152.28 166.267 150.6 167.04C148.92 167.813 146.853 168.2 144.4 168.2Z" fill="#1B72F9"/>
</svg>
