<?xml version="1.0" encoding="utf-8"?>
<!-- Generator: Adobe Illustrator 26.3.1, SVG Export Plug-In . SVG Version: 6.00 Build 0)  -->
<svg version="1.1" id="Слой_1" xmlns="http://www.w3.org/2000/svg" xmlns:xlink="http://www.w3.org/1999/xlink" x="0px" y="0px"
	 viewBox="0 0 641.33 262" style="enable-background:new 0 0 641.33 262;" xml:space="preserve">
<style type="text/css">
	.st0{fill:#fff;}
</style>
<g>
	<path class="st0" d="M437.06,112.94c-7.79,4.91-14.89,9.47-22.09,13.87c-2.1,1.28-4.39,2.54-6.76,3.03
		c-6.3,1.31-12.03-2.98-12.15-9.94c-0.32-17.81-0.21-35.64,0.12-53.46c0.11-5.88,2.95-8.99,8.58-9.1
		c17.61-0.34,35.23-0.12,53.02-0.12c0,3.19,0,6.09,0,9.29c-2.89,0.21-5.5,0.39-8.72,0.63c0,1.87,0,3.65,0,5.43
		c-0.01,24.32,0.02,48.64-0.03,72.96c-0.02,11.41-3.12,14.54-14.51,14.62c-10.95,0.08-21.91,0.02-33.14,0.02c0-6.62,0-12.7,0-19.06
		c3.05,0,5.83,0,9.15,0c0.18,2.78,0.37,5.65,0.58,8.77c8.73,0,17.16,0,25.96,0C437.06,137.87,437.06,125.95,437.06,112.94z
		 M407.45,119.69c5.89-3.62,10.89-7.55,16.55-9.97c10.29-5.86,13.91-11.02,13.54-24.4c-0.45-6.29-0.16-12.11-0.16-18.3
		c-10.41,0-20.01,0-29.93,0C407.45,84.41,407.45,101.58,407.45,119.69z"/>
	<path class="st0" d="M3.98,4.34c3.76,0,7.03,0,10.73,0c0,84.87,0,169.38,0,254.21c-3.67,0-6.94,0-10.73,0
		C3.98,173.96,3.98,89.32,3.98,4.34z"/>
	<path class="st0" d="M155.11,118.72c2.44,0.17,4.41,0.31,6.74,0.47c0,3.06,0,6.1,0,9.39c-9,0-17.76,0-26.92,0c0-2.97,0-5.89,0-9.39
		c2.54,0,5.26,0,8.3,0c0-17.66,0-34.74,0-52.37c-2.67-0.21-5.41-0.42-8.42-0.65c0-2.89,0-5.67,0-8.82c6.5,0,13.05,0,20.15,0
		c0,4.47,0,8.87,0,14.17c2.01-1,3.3-1.52,4.46-2.25c6.07-3.78,12.08-7.67,18.18-11.42c9.26-5.7,17.67-1.2,17.79,9.67
		c0.16,15.15,0.04,30.31,0.04,45.46c0,1.8,0,3.6,0,5.8c3.13,0.14,5.88,0.26,8.9,0.4c0,3.12,0,6.03,0,9.3c-9.01,0-17.91,0-27.2,0
		c0-2.91,0-5.81,0-9.14c1.92-0.19,3.98-0.39,6.29-0.62c0-17.49,0-34.87,0-53.02c-9.27,5.85-18.1,11.36-26.84,17.01
		c-0.79,0.51-1.39,1.93-1.4,2.94C155.08,96.6,155.11,107.56,155.11,118.72z"/>
	<path class="st0" d="M468.14,57.02c12.42,0,24.42-0.13,36.42,0.04c8.59,0.12,12.15,3.76,12.21,12.3c0.11,14.5,0.04,29,0.04,43.5
		c0,1.81,0,3.61,0,6c3.05,0,5.77,0,8.77,0c0,3.49,0,6.4,0,9.53c-1.1,0.16-2.05,0.42-3.01,0.42c-15,0.03-30,0.12-45.01-0.01
		c-11.25-0.1-13.3-2.82-13.99-13.99c-0.51-8.2,2.32-13.56,9.37-17.58c8.67-4.94,17-10.5,25.46-15.81c7.62-4.78,7.61-4.8,6.11-14.28
		c-9,0-18.05,0-27.41,0c-0.14,2.55-0.27,4.84-0.42,7.49c-2.81,0-5.54,0-8.54,0C468.14,68.82,468.14,62.98,468.14,57.02z
		 M504.75,89.01c-8.07,5.05-15.37,9.58-22.64,14.15c-7.82,4.91-8.06,5.53-6.23,15.56c9.49,0,19.02,0,28.87,0
		C504.75,108.98,504.75,99.45,504.75,89.01z"/>
	<path class="st0" d="M303.71,118.67c0.2-2.54,0.39-4.96,0.6-7.57c3.75,0,7.17,0,10.94,0c0,2.87,0.3,5.51-0.06,8.06
		c-0.94,6.67-4.34,9.59-11.11,9.65c-9.65,0.09-19.31,0.05-28.96,0.02c-8.04-0.03-11.72-3.29-12.11-11.28
		c-0.31-6.31-0.13-12.65-0.13-18.97c-0.01-8.99-0.07-17.98,0.04-26.96c0.12-10,4.39-14.49,14.2-14.69
		c8.82-0.18,17.65-0.2,26.46,0.04c8.16,0.22,10.94,3.06,11.76,11.14c1.42,14.06,1.42,14.06-10.33,21.46
		c-7.74,4.87-15.24,10.22-23.32,14.45c-6.36,3.32-8.6,7.63-6.61,14.67C284.39,118.67,293.94,118.67,303.71,118.67z M274.8,67
		c0,10.07,0,19.62,0,30c7.81-4.89,15.1-9.42,22.35-14.01c7.61-4.82,8.19-6.45,5.89-15.99C293.82,67,284.55,67,274.8,67z"/>
	<path class="st0" d="M596.39,118.79c9.6,0,19.04,0,28.87,0c0.19-2.58,0.36-4.99,0.56-7.67c3.59,0,6.99,0,10.76,0
		c0,3.12,0.33,6.11-0.07,9c-0.74,5.32-4.51,8.57-9.98,8.64c-10.49,0.14-20.98,0.16-31.47,0.02c-6.49-0.09-10.32-3.66-10.41-10.24
		c-0.22-16.48-0.24-32.96-0.01-49.44c0.1-7.36,4.44-11.76,11.96-12.05c9.97-0.37,19.98-0.34,29.96,0.04
		c6.78,0.26,9.65,3.68,10.14,10.56c1.06,14.81,1.06,14.81-11.62,22.75c-7.47,4.68-14.7,9.83-22.49,13.91
		C596.34,107.57,594.47,111.89,596.39,118.79z M624.73,67.17c-9.49,0-19.01,0-28.48,0c0,9.97,0,19.58,0,29.79
		c7.77-4.87,14.96-9.34,22.11-13.86C626.31,78.08,626.74,76.96,624.73,67.17z"/>
	<path class="st0" d="M328.72,128.38c0-2.99,0-5.89,0-9.18c2.73-0.13,5.33-0.25,8.34-0.39c0-17.27,0-34.46,0-52.06
		c-2.68-0.18-5.29-0.36-8.28-0.56c0-2.96,0-5.84,0-9.05c6.52,0,12.92,0,19.9,0c0,3.75,0,7.47,0,12.49
		c6.24-3.88,11.32-7.57,16.88-10.27c3.03-1.47,6.91-1.81,10.34-1.61c4.16,0.24,6.48,3.45,6.75,7.46c0.33,4.95,0.08,9.93,0.08,15.27
		c-3.58,0-6.98,0-10.98,0c0-4.2,0-8.42,0-13.92c-7.92,5.04-14.87,9.42-21.75,13.9c-0.56,0.37-0.98,1.39-0.98,2.12
		c-0.06,11.95-0.04,23.9-0.04,36.1c2.35,0.2,4.28,0.36,6.59,0.56c0,2.91,0,5.8,0,9.15C346.75,128.38,337.9,128.38,328.72,128.38z"/>
	<path class="st0" d="M547.95,67.2c-3.74,0-6.69,0-10.04,0c0-3.41,0-6.47,0-10c3.05,0,6.14,0,9.85,0c0-8.83,0-17.21,0-25.99
		c4.01,0,7.4,0,11.4,0c0,8.39,0,16.81,0,25.62c4.02,0,7.46,0,11.27,0c0,3.46,0,6.51,0,10.13c-3.36,0-6.77,0-10.66,0
		c0,17.54,0,34.54,0,51.97c4.18,0,8.28,0,12.71,0c0,3.33,0,6.25,0,10.16c-5.58-0.39-11.18-0.45-16.67-1.27
		c-3.99-0.59-6.36-3.72-7-7.59c-0.63-3.75-0.8-7.61-0.83-11.43C547.9,95.17,547.95,81.53,547.95,67.2z"/>
	<path class="st0" d="M216.36,56.93c3.46,0,6.59,0,10.24,0c0-8.72,0-17.13,0-25.82c3.79,0,7.07,0,10.92,0c0,8.3,0,16.71,0,25.59
		c4.13,0,7.71,0,11.68,0c0,3.53,0,6.59,0,10.24c-3.53,0-7.09,0-11.04,0c0,17.48,0,34.38,0,51.82c4.16,0,8.4,0,13.04,0
		c0,3.43,0,6.34,0,9.7c-4.8,0-9.79,0.53-14.61-0.13c-6.81-0.93-9.77-5.02-9.85-12.84c-0.15-14-0.06-28-0.06-42c0-1.83,0-3.65,0-6.04
		c-3.43-0.17-6.67-0.34-10.31-0.52C216.36,63.76,216.36,60.71,216.36,56.93z"/>
	<path class="st0" d="M101.39,67.03c-1.59-0.08-2.9-0.13-4.21-0.2c-1.29-0.07-2.59-0.16-4.15-0.26c0-3.18,0-6.08,0-9.29
		c6.71,0,13.31,0,20.45,0c0,20.33,0,40.71,0,61.44c3.26,0.17,6,0.32,9.06,0.48c0,3.11,0,6.02,0,9.27c-9.83,0-19.55,0-29.55,0
		c0-3.15,0-6.05,0-9.26c2.81-0.14,5.42-0.26,8.4-0.4C101.39,101.69,101.39,84.63,101.39,67.03z"/>
	<path class="st0" d="M114.71,38.09c-0.04,4.33-2.91,7.06-7.3,6.95c-4.01-0.1-6.82-2.97-6.81-6.97c0.01-4.16,3.14-7.41,7.1-7.37
		C111.83,30.74,114.75,33.81,114.71,38.09z"/>
</g>
<g>
	<path class="st0" d="M96.76,207.87v-14.59h2.89v4.51h5.96v2.71h-5.96v7.08c0,2.7,0.96,4.04,2.89,4.04c0.94,0,1.79-0.3,2.56-0.9
		l0.9,2.24c-1.13,0.92-2.52,1.37-4.15,1.37c-1.76,0-3.05-0.53-3.86-1.59C97.17,211.68,96.76,210.06,96.76,207.87z"/>
	<path class="st0" d="M111.06,212.02c-1.59-1.64-2.38-3.67-2.38-6.1c0-2.46,0.79-4.48,2.38-6.07c1.61-1.61,3.71-2.42,6.28-2.42
		c2.58,0,4.66,0.81,6.25,2.42c1.61,1.59,2.42,3.61,2.42,6.07s-0.81,4.49-2.42,6.1c-1.59,1.59-3.67,2.38-6.25,2.38
		C114.79,214.4,112.7,213.61,111.06,212.02z M111.75,205.92c0,1.71,0.52,3.09,1.55,4.15c1.06,1.08,2.41,1.62,4.04,1.62
		c1.64,0,2.98-0.54,4.03-1.61s1.57-2.46,1.57-4.17c0-1.66-0.53-3.04-1.59-4.15c-1.04-1.08-2.37-1.62-4.01-1.62
		c-1.64,0-2.97,0.54-4.01,1.62C112.28,202.83,111.75,204.21,111.75,205.92z"/>
	<path class="st0" d="M151.86,209.6l1.37,2.09c-1.4,1.8-3.48,2.71-6.25,2.71c-2.6,0-4.71-0.77-6.32-2.31
		c-1.59-1.54-2.38-3.6-2.38-6.17c0-2.38,0.78-4.39,2.35-6.03c1.56-1.64,3.53-2.46,5.88-2.46c2.84,0,4.97,0.71,6.39,2.13l-1.34,2.27
		c-1.25-1.13-2.8-1.7-4.66-1.7c-1.52,0-2.83,0.55-3.94,1.66c-1.08,1.08-1.62,2.46-1.62,4.12c0,1.76,0.55,3.15,1.66,4.19
		c1.13,1.06,2.53,1.59,4.19,1.59C149.08,211.7,150.63,211,151.86,209.6z"/>
	<path class="st0" d="M160.41,214.04h-2.89V197.8h2.89v1.91c0.96-1.47,2.32-2.2,4.08-2.2c1.13,0,1.97,0.21,2.53,0.61l-1.01,2.71
		c-0.7-0.41-1.43-0.61-2.2-0.61c-1.47,0-2.6,0.77-3.39,2.31V214.04z"/>
	<path class="st0" d="M181.82,197.8h3.29l-6.5,16.25c-1.18,2.86-2.2,4.77-3.07,5.7c-0.92,1.01-1.96,1.52-3.14,1.52
		c-1.06,0-2.08-0.34-3.07-1.01l0.94-2.2c0.77,0.36,1.37,0.54,1.81,0.54c0.67,0,1.28-0.29,1.82-0.87c0.54-0.58,1.09-1.52,1.64-2.82
		l0.36-0.87l-7.8-16.25h3.47l4.77,10.33c0.1,0.17,0.42,0.99,0.97,2.46c0.22-0.79,0.47-1.62,0.76-2.49L181.82,197.8z"/>
	<path class="st0" d="M191.5,221.26h-2.89V197.8h2.89v1.91c0.58-0.67,1.37-1.22,2.38-1.64c1.01-0.42,2.06-0.63,3.14-0.63
		c2.31,0,4.13,0.77,5.45,2.31c1.37,1.52,2.06,3.49,2.06,5.92c0,2.48-0.78,4.56-2.35,6.25c-1.54,1.66-3.57,2.49-6.1,2.49
		c-1.95,0-3.48-0.37-4.58-1.12V221.26z M196.19,200.14c-1.93,0-3.49,0.75-4.69,2.24v8.05c1.28,0.84,2.72,1.26,4.33,1.26
		c1.71,0,3.07-0.55,4.1-1.64c1.02-1.09,1.53-2.52,1.53-4.28c0-1.71-0.47-3.07-1.41-4.1C199.12,200.65,197.83,200.14,196.19,200.14z"
		/>
	<path class="st0" d="M208.86,207.87v-14.59h2.89v4.51h5.96v2.71h-5.96v7.08c0,2.7,0.96,4.04,2.89,4.04c0.94,0,1.79-0.3,2.56-0.9
		l0.9,2.24c-1.13,0.92-2.52,1.37-4.15,1.37c-1.76,0-3.05-0.53-3.86-1.59C209.27,211.68,208.86,210.06,208.86,207.87z"/>
	<path class="st0" d="M223.16,212.02c-1.59-1.64-2.38-3.67-2.38-6.1c0-2.46,0.79-4.48,2.38-6.07c1.61-1.61,3.71-2.42,6.28-2.42
		c2.58,0,4.66,0.81,6.25,2.42c1.61,1.59,2.42,3.61,2.42,6.07s-0.81,4.49-2.42,6.1c-1.59,1.59-3.67,2.38-6.25,2.38
		C226.89,214.4,224.8,213.61,223.16,212.02z M223.85,205.92c0,1.71,0.52,3.09,1.55,4.15c1.06,1.08,2.41,1.62,4.04,1.62
		c1.64,0,2.98-0.54,4.03-1.61s1.57-2.46,1.57-4.17c0-1.66-0.53-3.04-1.59-4.15c-1.04-1.08-2.37-1.62-4.01-1.62
		c-1.64,0-2.97,0.54-4.01,1.62C224.38,202.83,223.85,204.21,223.85,205.92z"/>
	<path class="st0" d="M262.19,197.8h2.92l-5.2,16.39h-2.53l-4.04-10.58c-0.19-0.51-0.4-1.17-0.61-1.99
		c-0.22,0.79-0.45,1.49-0.69,2.09l-3.94,10.47h-2.38l-5.38-16.39h3.1l3.18,10.25c0.05,0.17,0.11,0.41,0.2,0.72
		c0.08,0.31,0.17,0.63,0.25,0.96c0.08,0.33,0.14,0.52,0.16,0.6c0.43-1.49,0.66-2.25,0.69-2.27l3.68-10.25h2.49l3.72,10.22l0.76,2.35
		c0.17-0.82,0.38-1.65,0.65-2.49L262.19,197.8z"/>
	<path class="st0" d="M269.7,212.02c-1.59-1.64-2.38-3.67-2.38-6.1c0-2.46,0.79-4.48,2.38-6.07c1.61-1.61,3.71-2.42,6.28-2.42
		c2.58,0,4.66,0.81,6.25,2.42c1.61,1.59,2.42,3.61,2.42,6.07s-0.81,4.49-2.42,6.1c-1.59,1.59-3.67,2.38-6.25,2.38
		C273.43,214.4,271.33,213.61,269.7,212.02z M270.38,205.92c0,1.71,0.52,3.09,1.55,4.15c1.06,1.08,2.41,1.62,4.04,1.62
		c1.64,0,2.98-0.54,4.03-1.61s1.57-2.46,1.57-4.17c0-1.66-0.53-3.04-1.59-4.15c-1.04-1.08-2.37-1.62-4.01-1.62
		c-1.64,0-2.97,0.54-4.01,1.62C270.91,202.83,270.38,204.21,270.38,205.92z"/>
	<path class="st0" d="M292.23,214.04h-2.89V197.8h2.89v1.91c0.96-1.47,2.32-2.2,4.08-2.2c1.13,0,1.97,0.21,2.53,0.61l-1.01,2.71
		c-0.7-0.41-1.43-0.61-2.2-0.61c-1.47,0-2.6,0.77-3.39,2.31V214.04z"/>
	<path class="st0" d="M302.15,209.71v-20.94h2.89v19.64c0,2.14,0.64,3.21,1.91,3.21c0.63,0,1.31-0.24,2.06-0.72l0.65,2.2
		c-1.04,0.82-2.31,1.23-3.83,1.23C303.38,214.33,302.15,212.79,302.15,209.71z"/>
	<path class="st0" d="M327.97,214.04h-2.89v-2.06c-1.44,1.56-3.17,2.35-5.16,2.35c-2.38,0-4.28-0.76-5.7-2.27
		c-1.42-1.54-2.13-3.55-2.13-6.03c0-2.53,0.83-4.58,2.49-6.17c1.68-1.61,3.81-2.42,6.39-2.42c1.64,0,3.01,0.38,4.12,1.16v-9.82h2.89
		V214.04z M320.46,211.62c1.78,0,3.32-0.72,4.62-2.17v-8.05c-1.35-0.84-2.68-1.26-4.01-1.26c-1.66,0-3.07,0.54-4.22,1.62
		c-1.13,1.06-1.7,2.46-1.7,4.19c0,1.73,0.49,3.11,1.46,4.13C317.59,211.11,318.87,211.62,320.46,211.62z"/>
</g>
</svg>
