<svg xmlns="http://www.w3.org/2000/svg" version="1.1" xmlns:xlink="http://www.w3.org/1999/xlink" xmlns:svgjs="http://svgjs.com/svgjs" height="67.00129709082964" width="220.22999572753906">
    <defs id="SvgjsDefs1085"></defs>
    <g id="SvgjsG1086" rel="mainfill" name="main_text" xmlns:name="main_text" transform="translate(0,-193.31935114940939)" fill="#825534">
        <path d="M3.99 240L8.20 240L8.20 226.49L19.27 226.49L19.27 240L23.48 240L23.48 208.99L19.27 208.99L19.27 222.28L8.20 222.28L8.20 208.99L0.44 208.99L0.44 213.20L3.99 213.20L3.99 240ZM46.08 226.04C46.08 221.17 42.75 217.85 37.88 217.85C33.01 217.85 29.68 221.17 29.68 226.04L29.68 232.25C29.68 237.12 33.01 240.44 37.88 240.44C42.75 240.44 46.08 237.12 46.08 232.25ZM33.67 226.04C33.67 223.61 35.44 221.84 37.88 221.84C40.32 221.84 42.09 223.61 42.09 226.04L42.09 232.25C42.09 234.68 40.32 236.46 37.88 236.46C35.44 236.46 33.67 234.68 33.67 232.25ZM66.90 233.35C66.90 229.81 63.35 228.48 63.35 228.48C63.35 228.48 66.01 227.59 66.01 224.49C66.01 220.73 63.58 218.29 59.81 218.29L49.18 218.29L49.18 222.28L51.84 222.28L51.84 236.01L49.18 236.01L49.18 240L60.25 240C64.24 240 66.90 237.34 66.90 233.35ZM55.82 222.28L59.81 222.28C61.14 222.28 62.03 223.16 62.03 224.49C62.03 225.82 61.14 226.71 59.81 226.71L55.82 226.71ZM60.25 236.01L55.82 236.01L55.82 230.70L60.25 230.70C61.80 230.70 62.91 231.80 62.91 233.35C62.91 234.91 61.80 236.01 60.25 236.01ZM89.05 240L93.04 240L93.04 218.25L89.05 218.25ZM71.77 218.29L71.77 240L79.53 240C83.51 240 86.39 237.12 86.39 233.13C86.39 229.15 83.51 226.27 79.53 226.27L75.76 226.27L75.76 218.29ZM79.53 230.25C81.08 230.25 82.41 231.58 82.41 233.13C82.41 234.68 81.08 236.01 79.53 236.01L75.76 236.01L75.76 230.25ZM115.63 240L115.63 218.29L111.65 218.29L103.67 232.69L103.67 218.29L96.58 218.29L96.58 222.28L99.68 222.28L99.68 240L103.67 240L111.65 225.60L111.65 240ZM107.66 211.65C106.33 211.65 105.44 210.76 105.00 209.43L101.68 209.87C102.34 212.53 104.56 214.75 107.66 214.75C110.76 214.75 112.97 212.53 113.64 209.87L110.32 209.43C109.87 210.76 108.99 211.65 107.66 211.65ZM144.21 218.29L133.13 218.29L127.82 236.01L125.38 236.01L125.38 244.65L129.37 244.65L129.37 240L143.10 240L143.10 244.65L147.09 244.65L147.09 236.01L144.21 236.01ZM140.22 236.01L131.80 236.01L136.01 222.28L140.22 222.28ZM150.19 232.47C150.19 236.90 153.29 240 157.72 240L164.81 240L164.81 236.01L157.72 236.01C155.73 236.01 154.18 234.46 154.18 232.47L154.18 231.36L166.14 231.36L166.14 225.82C166.14 221.17 162.82 217.85 158.16 217.85C153.51 217.85 150.19 221.17 150.19 225.82ZM158.16 221.84C160.38 221.84 162.15 223.61 162.15 225.82L162.15 227.59L154.18 227.59L154.18 225.82C154.18 223.61 155.95 221.84 158.16 221.84ZM187.41 240L187.41 218.29L183.42 218.29L183.42 227.15L175.44 227.15L175.44 218.29L168.35 218.29L168.35 222.28L171.46 222.28L171.46 240L175.44 240L175.44 231.14L183.42 231.14L183.42 240ZM193.61 218.29L193.61 240L201.80 240C205.79 240 208.67 237.12 208.67 233.13C208.67 229.15 205.79 226.27 201.80 226.27L197.59 226.27L197.59 218.29ZM201.80 230.25C203.35 230.25 204.68 231.58 204.68 233.13C204.68 234.68 203.35 236.01 201.80 236.01L197.59 236.01L197.59 230.25Z" fill="#825534" style="fill: #fff;"></path>
    </g>
</svg>
