<svg xmlns="http://www.w3.org/2000/svg" version="1.1" xmlns:xlink="http://www.w3.org/1999/xlink" xmlns:svgjs="http://svgjs.com/svgjs" height="67.00129709082964" width="290.22999572753906">
    <defs id="SvgjsDefs1085"></defs>
    <g id="SvgjsG1086" rel="mainfill" name="main_text" xmlns:name="main_text" transform="translate(81.56000000238419,-193.31935114940939)" fill="#825534">
        <path d="M3.99 240L8.20 240L8.20 226.49L19.27 226.49L19.27 240L23.48 240L23.48 208.99L19.27 208.99L19.27 222.28L8.20 222.28L8.20 208.99L0.44 208.99L0.44 213.20L3.99 213.20L3.99 240ZM46.08 226.04C46.08 221.17 42.75 217.85 37.88 217.85C33.01 217.85 29.68 221.17 29.68 226.04L29.68 232.25C29.68 237.12 33.01 240.44 37.88 240.44C42.75 240.44 46.08 237.12 46.08 232.25ZM33.67 226.04C33.67 223.61 35.44 221.84 37.88 221.84C40.32 221.84 42.09 223.61 42.09 226.04L42.09 232.25C42.09 234.68 40.32 236.46 37.88 236.46C35.44 236.46 33.67 234.68 33.67 232.25ZM66.90 233.35C66.90 229.81 63.35 228.48 63.35 228.48C63.35 228.48 66.01 227.59 66.01 224.49C66.01 220.73 63.58 218.29 59.81 218.29L49.18 218.29L49.18 222.28L51.84 222.28L51.84 236.01L49.18 236.01L49.18 240L60.25 240C64.24 240 66.90 237.34 66.90 233.35ZM55.82 222.28L59.81 222.28C61.14 222.28 62.03 223.16 62.03 224.49C62.03 225.82 61.14 226.71 59.81 226.71L55.82 226.71ZM60.25 236.01L55.82 236.01L55.82 230.70L60.25 230.70C61.80 230.70 62.91 231.80 62.91 233.35C62.91 234.91 61.80 236.01 60.25 236.01ZM89.05 240L93.04 240L93.04 218.25L89.05 218.25ZM71.77 218.29L71.77 240L79.53 240C83.51 240 86.39 237.12 86.39 233.13C86.39 229.15 83.51 226.27 79.53 226.27L75.76 226.27L75.76 218.29ZM79.53 230.25C81.08 230.25 82.41 231.58 82.41 233.13C82.41 234.68 81.08 236.01 79.53 236.01L75.76 236.01L75.76 230.25ZM115.63 240L115.63 218.29L111.65 218.29L103.67 232.69L103.67 218.29L96.58 218.29L96.58 222.28L99.68 222.28L99.68 240L103.67 240L111.65 225.60L111.65 240ZM107.66 211.65C106.33 211.65 105.44 210.76 105.00 209.43L101.68 209.87C102.34 212.53 104.56 214.75 107.66 214.75C110.76 214.75 112.97 212.53 113.64 209.87L110.32 209.43C109.87 210.76 108.99 211.65 107.66 211.65ZM144.21 218.29L133.13 218.29L127.82 236.01L125.38 236.01L125.38 244.65L129.37 244.65L129.37 240L143.10 240L143.10 244.65L147.09 244.65L147.09 236.01L144.21 236.01ZM140.22 236.01L131.80 236.01L136.01 222.28L140.22 222.28ZM150.19 232.47C150.19 236.90 153.29 240 157.72 240L164.81 240L164.81 236.01L157.72 236.01C155.73 236.01 154.18 234.46 154.18 232.47L154.18 231.36L166.14 231.36L166.14 225.82C166.14 221.17 162.82 217.85 158.16 217.85C153.51 217.85 150.19 221.17 150.19 225.82ZM158.16 221.84C160.38 221.84 162.15 223.61 162.15 225.82L162.15 227.59L154.18 227.59L154.18 225.82C154.18 223.61 155.95 221.84 158.16 221.84ZM187.41 240L187.41 218.29L183.42 218.29L183.42 227.15L175.44 227.15L175.44 218.29L168.35 218.29L168.35 222.28L171.46 222.28L171.46 240L175.44 240L175.44 231.14L183.42 231.14L183.42 240ZM193.61 218.29L193.61 240L201.80 240C205.79 240 208.67 237.12 208.67 233.13C208.67 229.15 205.79 226.27 201.80 226.27L197.59 226.27L197.59 218.29ZM201.80 230.25C203.35 230.25 204.68 231.58 204.68 233.13C204.68 234.68 203.35 236.01 201.80 236.01L197.59 236.01L197.59 230.25Z" fill="#825534" style="fill: #fff;"></path>
    </g>
    <g id="SvgjsG1087" rel="mainfill" name="symbol" xmlns:name="symbol_mainfill" transform="translate(-8.375159740249956,-8.373923350715296) scale(0.8374989616883752)" fill="#825534">
        <path d="M87.732,12.266c-5.778-5.782-21.23-0.137-37.731,12.747C33.495,12.129,18.043,6.487,12.268,12.266  C6.485,18.048,12.131,33.497,25.01,50C12.134,66.504,6.485,81.956,12.268,87.734c5.778,5.781,21.234,0.134,37.734-12.747  c16.5,12.881,31.953,18.528,37.731,12.747C93.516,81.952,87.867,66.5,74.986,50C87.87,33.497,93.516,18.045,87.732,12.266z   M81.215,16.662c1.222,0,1.739,0.254,1.804,0.319c0.336,0.335,1.205,4.118-2.973,12.821c-2.266,4.721-5.473,9.784-9.379,14.912  c-2.303-2.664-4.776-5.327-7.414-7.964c-2.634-2.63-5.298-5.104-7.957-7.406C66.277,20.992,75.927,16.662,81.215,16.662z   M66.404,49.998c-2.442,2.867-5.06,5.733-7.869,8.542c-2.865,2.869-5.724,5.479-8.531,7.863c-2.868-2.438-5.733-5.056-8.54-7.863  c-2.869-2.867-5.482-5.727-7.866-8.532c2.438-2.872,5.053-5.733,7.859-8.541c2.872-2.868,5.73-5.485,8.537-7.869  c2.872,2.442,5.738,5.06,8.543,7.866C61.407,44.333,64.021,47.188,66.404,49.998z M16.663,18.784c0-1.217,0.254-1.738,0.318-1.803  c0.332-0.332,4.116-1.205,12.821,2.976c4.721,2.266,9.78,5.473,14.912,9.376c-2.664,2.305-5.333,4.779-7.97,7.416  c-2.631,2.634-5.105,5.298-7.403,7.958C20.993,33.721,16.663,24.071,16.663,18.784z M18.785,83.339  c-1.221,0-1.741-0.257-1.804-0.318c-0.335-0.336-1.205-4.119,2.976-12.822c2.266-4.72,5.47-9.783,9.376-14.911  c2.305,2.663,4.779,5.33,7.416,7.967c2.631,2.635,5.294,5.105,7.958,7.407C33.722,79.009,24.072,83.339,18.785,83.339z   M83.338,81.216c0,1.219-0.257,1.739-0.319,1.801c-0.335,0.336-4.118,1.208-12.821-2.973c-4.717-2.266-9.78-5.473-14.908-9.379  c2.66-2.303,5.327-4.776,7.96-7.411c2.635-2.634,5.108-5.297,7.411-7.96C79.008,66.279,83.338,75.925,83.338,81.216z" fill="#fff" style="fill: #fff"></path>
    </g>
</svg>
