<svg width="115" height="115" viewBox="0 0 115 115" fill="none" xmlns="http://www.w3.org/2000/svg">
<path d="M53.3454 80.1867C50.3668 80.1867 47.4174 79.6 44.6656 78.4602C41.9137 77.3203 39.4133 75.6496 37.3071 73.5434C35.2009 71.4372 33.5302 68.9368 32.3904 66.185C31.2505 63.4331 30.6638 60.4837 30.6638 57.5051C30.6638 54.5265 31.2505 51.5771 32.3904 48.8252C33.5302 46.0734 35.2009 43.573 37.3071 41.4668C39.4133 39.3606 41.9137 37.6899 44.6656 36.55C47.4174 35.4102 50.3668 34.8235 53.3454 34.8235" stroke="#F1E8DD" stroke-linecap="round" stroke-linejoin="round"/>
<path d="M53.3454 85.4949C45.922 85.4949 38.8026 82.546 33.5535 77.2969C28.3044 72.0478 25.3555 64.9284 25.3555 57.5051C25.3555 50.0817 28.3044 42.9623 33.5535 37.7132C38.8026 32.4641 45.922 29.5151 53.3454 29.5151" stroke="#F1E8DD" stroke-linecap="round" stroke-linejoin="round"/>
<path d="M53.3454 45.0217V57.7329L41.8994 64.8214" stroke="#F1E8DD" stroke-linecap="round" stroke-linejoin="round"/>
<path d="M30.6638 57.5051H35.1947" stroke="#F1E8DD" stroke-linecap="round" stroke-linejoin="round"/>
<path d="M53.3455 34.8235V39.3544" stroke="#F1E8DD" stroke-linecap="round" stroke-linejoin="round"/>
<path d="M53.3455 75.6558V80.1842" stroke="#F1E8DD" stroke-linecap="round" stroke-linejoin="round"/>
<path d="M32.5332 38.7874L36.9452 23.3726H53.3455" stroke="#F1E8DD" stroke-linecap="round" stroke-linejoin="round"/>
<path d="M39.6859 23.3724V11.9512H53.3454" stroke="#F1E8DD" stroke-linecap="round" stroke-linejoin="round"/>
<path d="M32.5332 76.2129L36.9452 91.6278H53.3455" stroke="#F1E8DD" stroke-linecap="round" stroke-linejoin="round"/>
<path d="M39.6859 91.6274V103.049H53.3454" stroke="#F1E8DD" stroke-linecap="round" stroke-linejoin="round"/>
<path d="M114.376 57.5C114.376 88.9118 88.9118 114.376 57.5 114.376C26.0881 114.376 0.623779 88.9118 0.623779 57.5C0.623779 26.0881 26.0881 0.623779 57.5 0.623779C88.9118 0.623779 114.376 26.0881 114.376 57.5Z" stroke="#F1E8DD" stroke-linecap="round" stroke-linejoin="round"/>
<path d="M77.1239 33.2683H93.4053C94.215 33.2683 94.8711 32.3968 94.8711 31.3247C94.8711 30.2502 94.215 29.3787 93.4053 29.3787H77.1239" stroke="#F1E8DD" stroke-linecap="round" stroke-linejoin="round"/>
<path d="M77.1239 85.6484H93.4053C94.215 85.6484 94.8711 84.7769 94.8711 83.7048C94.8711 82.6303 94.215 81.7588 93.4053 81.7588H77.1239" stroke="#F1E8DD" stroke-linecap="round" stroke-linejoin="round"/>
<path d="M89.501 33.2683C89.501 33.2683 90.2933 50.6862 76.6932 57.99" stroke="#F1E8DD" stroke-linecap="round" stroke-linejoin="round"/>
<path d="M89.4936 81.7585C89.4936 81.7585 90.2933 65.2963 76.6932 57.99" stroke="#F1E8DD" stroke-linecap="round" stroke-linejoin="round"/>
<path d="M76.2003 46.1057H83.0981C83.0981 46.1057 80.8327 51.5527 76.693 53.5061" stroke="#F1E8DD" stroke-linecap="round" stroke-linejoin="round"/>
<path d="M76.2003 78.1465H83.0981C83.0981 78.1465 80.8327 73.0016 76.693 71.0481" stroke="#F1E8DD" stroke-linecap="round" stroke-linejoin="round"/>
<path d="M76.6932 60.3125V69.8744" stroke="#F1E8DD" stroke-linecap="round" stroke-linejoin="round"/>
<path d="M77.124 33.2683H59.981C59.1714 33.2683 58.5153 32.3968 58.5153 31.3247C58.5153 30.2502 59.1714 29.3787 59.981 29.3787H77.124" stroke="#F1E8DD" stroke-linecap="round" stroke-linejoin="round"/>
<path d="M77.795 85.6484H59.981C59.1714 85.6484 58.5153 84.7769 58.5153 83.7048C58.5153 82.6303 59.1714 81.7588 59.981 81.7588H77.124" stroke="#F1E8DD" stroke-linecap="round" stroke-linejoin="round"/>
<path d="M63.8853 33.2683C63.8853 33.2683 63.0931 50.6862 76.6931 57.99" stroke="#F1E8DD" stroke-linecap="round" stroke-linejoin="round"/>
<path d="M63.895 81.7585C63.895 81.7585 63.0929 65.2963 76.6929 57.99" stroke="#F1E8DD" stroke-linecap="round" stroke-linejoin="round"/>
<path d="M76.2003 46.1057H70.283C70.283 46.1057 72.5484 51.5527 76.6856 53.5061" stroke="#F1E8DD" stroke-linecap="round" stroke-linejoin="round"/>
<path d="M76.2003 78.1465H70.283C70.283 78.1465 72.5484 73.0016 76.6856 71.0481" stroke="#F1E8DD" stroke-linecap="round" stroke-linejoin="round"/>
<path d="M76.6932 60.3125V69.8744" stroke="#F1E8DD" stroke-linecap="round" stroke-linejoin="round"/>
</svg>
