<?xml version="1.0" encoding="utf-8"?>
<!-- Generator: Adobe Illustrator 26.0.2, SVG Export Plug-In . SVG Version: 6.00 Build 0)  -->
<svg version="1.1" id="Слой_1" xmlns="http://www.w3.org/2000/svg" xmlns:xlink="http://www.w3.org/1999/xlink" x="0px" y="0px"
	 viewBox="0 0 261.8 110.1" style="enable-background:new 0 0 261.8 110.1;" xml:space="preserve">
<style type="text/css">
	.st0{fill:#141719;}
</style>
<g>
	<path class="st0" d="M130.9,19.2l39.9,18.6v5.9h-11.2l-28.7-13.4L101,44.3v18.4l29.9,13.9l28.7-13.4h11.2v5.8l-39.9,18.6L90.9,69.1
		V37.9L130.9,19.2z M133.4,40.4h-5.3v14.4l15.9,7.4l5.9-2.8l-16.3-7.6V40.4H133.4z M232.5,53.8l29.3-13.6v-5.9h-11.2l-58.7,27.4
		V34.2h-10v38.4h10l0,0l30.1-14l30.1,14h9.7v-5.3L232.5,53.8z M39.9,48.2L10.1,34.2H0v38.4h10V45.3l29.9,13.9l29.9-13.9v27.4h10
		V34.2h-10L39.9,48.2z"/>
</g>
</svg>
