<?xml version="1.0" encoding="utf-8"?>
<!-- Generator: Adobe Illustrator 26.0.2, SVG Export Plug-In . SVG Version: 6.00 Build 0)  -->
<svg version="1.1" id="Слой_1" xmlns="http://www.w3.org/2000/svg" xmlns:xlink="http://www.w3.org/1999/xlink" x="0px" y="0px"
	 viewBox="0 0 297.2 107.6" style="enable-background:new 0 0 297.2 107.6;" xml:space="preserve">
<style type="text/css">
	.st0{fill:#141719;}
</style>
<g>
	<path class="st0" d="M82.1,41.7c-3.5,0-5.6,2.2-5.6,6.1v11.9c0,3.9,2,6.1,5.6,6.1c3.6,0,5.6-2.2,5.6-6.1V47.8
		C87.8,44,85.7,41.7,82.1,41.7z M84.5,59.8c0,2-0.8,3-2.4,3c-1.6,0-2.4-1-2.4-3V47.7c0-2,0.8-3,2.4-3c1.6,0,2.4,1,2.4,3V59.8z
		 M51.5,41.7c-3.5,0-5.6,2.2-5.6,6.1v11.9c0,3.9,2,6.1,5.6,6.1c3.6,0,5.6-2.2,5.6-6.1V47.8C57.1,44,55.1,41.7,51.5,41.7z M53.9,59.8
		c0,2-0.8,3-2.4,3c-1.6,0-2.4-1-2.4-3V47.7c0-2,0.8-3,2.4-3s2.4,1,2.4,3V59.8z M41.8,47.8v2.9h-3.1v-3c0-2-0.8-3-2.4-3
		c-1.6,0-2.4,1-2.4,3v12.1c0,2,0.8,3,2.4,3c1.6,0,2.4-1,2.4-3V57h3.1v2.7c0,3.9-2,6.1-5.5,6.1c-3.5,0-5.5-2.2-5.5-6.1V47.8
		c0-3.9,2-6.1,5.5-6.1C39.8,41.7,41.8,44,41.8,47.8z M103.4,42v23.6h-2.9V49l-1.8,5.5l-3.6,11.1h-3.2V42h2.9v15.4l1.5-4.8L99.9,42
		L103.4,42L103.4,42z M69.9,53c1.5-0.8,2.1-2.2,2.1-4.5v-1.1c0-3.7-1.7-5.4-5.3-5.4h-5.5v23.6h5.6c3.7,0,5.6-2,5.6-5.7v-1.9
		C72.4,55.4,71.6,53.8,69.9,53z M64.4,44.9h2.2c1.6,0,2.2,0.8,2.2,2.7V49c0,2-0.7,2.7-2.8,2.7h-1.6C64.4,51.7,64.4,44.9,64.4,44.9z
		 M69.2,59.8c0,2-0.7,2.8-2.4,2.8h-2.4v-7.9h1.9c2.1,0,2.9,0.8,2.9,3.1V59.8z M8.1,42h3.2v23.6H8.1V56c-0.8,0.8-2,1.3-3.2,1.3
		c-3,0-4.9-2.2-4.9-5.8v-9.5h3.2v9.3c0,1.8,1,3,2.5,3c1.4,0,2.2-0.8,2.4-2.4L8.1,42z M100.4,40.2h-5.6v-2.4h5.7L100.4,40.2
		L100.4,40.2z M22.1,42L22.1,42h-1.2l0,0h-2l-3.8,23.6h3l0.7-4.6h5.3l0.7,4.6h3L24.1,42H22.1z M19.3,58.1l2-13.2h0.5l2,13.2H19.3z
		 M212.1,41.7c-3.5,0-5.6,2.2-5.6,6.1v11.9c0,3.9,2,6.1,5.6,6.1c3.6,0,5.6-2.2,5.6-6.1V47.8C217.8,44,215.7,41.7,212.1,41.7z
		 M214.5,59.8c0,2-0.8,3-2.4,3c-1.6,0-2.4-1-2.4-3V47.7c0-2,0.8-3,2.4-3s2.4,1,2.4,3V59.8z M191.8,42h10.6v23.6h-3.2V44.9h-4.3v14.9
		c0,3-1,5.8-4.9,5.8l0,0h-0.8v-3h0.3c1.8,0,2.2-0.7,2.2-3L191.8,42L191.8,42z M276.4,42h-5.4v23.6h3.2v-8.1h1.9c3.8,0,5.7-2,5.7-5.9
		v-3.7C281.9,44,280,42,276.4,42z M278.7,51.8c0,2-0.7,2.8-2.5,2.8h-1.9v-9.6h2.1c1.6,0,2.3,0.8,2.3,2.8L278.7,51.8L278.7,51.8z
		 M246.9,50.5h-2.4v-5.5h7.1v-3h-10.2v23.6h5.7c3.7,0,5.5-2,5.5-5.9v-3.5C252.5,52.4,250.7,50.5,246.9,50.5z M249.3,59.8
		c0,1.9-0.6,2.8-2.3,2.8h-2.5v-9.2h2.4c1.8,0,2.4,0.7,2.4,2.6L249.3,59.8L249.3,59.8z M262,42L262,42h-1.2l0,0h-2L255,65.6h3
		l0.7-4.6h5.3l0.7,4.6h3L263.9,42H262z M259.1,58.1l2-13.2h0.5l2,13.2H259.1z M233.1,42h4.2v23.6h-2.9V48.1l-3.6,17.4h-1.2h-1.2
		l-3.6-17.4v17.5h-2.9V42h4.2l3.5,17.5L233.1,42z M295.6,62.7V42H285v17.7c0,2.2-0.4,3-2.2,3h-0.3h-0.2v6h3.1v-3.1h7.1h1.6v3.1h3.1
		v-6C297.2,62.7,295.6,62.7,295.6,62.7z M292.2,62.7h-4.9c0.6-1,0.9-2.4,0.9-3.7v-14h4.3v17.7H292.2z"/>
	<path class="st0" d="M147.6,79.7l-30.2-14.1V42l30.2-14.1L177.8,42v4.4h-8.5l-21.8-10.1l-22.6,10.5v14l22.6,10.5l21.8-10.1h8.5v4.4
		L147.6,79.7z M149.5,43.9h-4v10.9l12,5.6l4.5-2.1l-12.3-5.8v-8.7H149.5z M177.8,82.9v-4.4h-8.5l-44.4,20.7V78.4h-7.6v29.1h7.6l0,0
		L147.7,97l22.8,10.6h7.3v-4l-22.2-10.3L177.8,82.9z M170.2,0l-22.6,10.6L124.9,0h-7.6v29.1h7.6V8.4L147.6,19l22.6-10.6v20.7h7.6V0
		H170.2z"/>
</g>
</svg>
