<svg width="139" height="26" viewBox="0 0 139 26" fill="none" xmlns="http://www.w3.org/2000/svg">
<path d="M5.192 26C4.976 26 4.796 25.928 4.652 25.784C4.508 25.616 4.436 25.424 4.436 25.208C4.436 25.04 4.484 24.884 4.58 24.74L9.62 17.864C9.308 17.936 8.984 17.96 8.648 17.936C7.184 17.84 5.792 17.444 4.472 16.748C3.152 16.028 2.072 15.044 1.232 13.796C0.416 12.524 0.00800003 11.084 0.00800003 9.476C0.00800003 7.892 0.404 6.416 1.196 5.048C2.012 3.656 3.2 2.54 4.76 1.7C6.344 0.859999 8.24 0.439999 10.448 0.439999C12.68 0.439999 14.6 0.823999 16.208 1.592C17.816 2.36 19.028 3.416 19.844 4.76C20.684 6.08 21.104 7.568 21.104 9.224C21.104 10.544 20.828 11.756 20.276 12.86C19.748 13.94 18.944 15.212 17.864 16.676L17.216 17.576L11.564 25.28C11.228 25.76 10.796 26 10.268 26H5.192ZM10.52 13.04C11.576 13.04 12.44 12.716 13.112 12.068C13.808 11.42 14.156 10.544 14.156 9.44C14.156 8.336 13.808 7.46 13.112 6.812C12.416 6.164 11.552 5.84 10.52 5.84C9.464 5.84 8.588 6.164 7.892 6.812C7.22 7.46 6.884 8.336 6.884 9.44C6.884 10.544 7.22 11.42 7.892 12.068C8.564 12.716 9.44 13.04 10.52 13.04ZM36.0305 26C35.7905 26 35.5745 25.916 35.3825 25.748C35.2145 25.556 35.1305 25.34 35.1305 25.1V21.14H23.9705C23.7305 21.14 23.5145 21.056 23.3225 20.888C23.1545 20.696 23.0705 20.48 23.0705 20.24V16.604C23.0705 16.244 23.2025 15.884 23.4665 15.524L33.9065 1.412C34.2425 1.004 34.6865 0.799998 35.2385 0.799998H40.7105C40.9745 0.799998 41.1905 0.883999 41.3585 1.052C41.5505 1.22 41.6465 1.436 41.6465 1.7V15.56H44.8145C45.1025 15.56 45.3305 15.656 45.4985 15.848C45.6665 16.016 45.7505 16.22 45.7505 16.46V20.24C45.7505 20.48 45.6665 20.696 45.4985 20.888C45.3305 21.056 45.1145 21.14 44.8505 21.14H41.6465V25.1C41.6465 25.364 41.5505 25.58 41.3585 25.748C41.1905 25.916 40.9745 26 40.7105 26H36.0305ZM29.4785 15.812H35.2745V7.712L29.4785 15.812ZM49.4447 26C49.1807 26 48.9527 25.916 48.7607 25.748C48.5927 25.58 48.5087 25.364 48.5087 25.1V20.348C48.5087 20.084 48.5927 19.868 48.7607 19.7C48.9527 19.508 49.1807 19.412 49.4447 19.412H54.1967C54.4607 19.412 54.6767 19.508 54.8447 19.7C55.0127 19.868 55.0967 20.084 55.0967 20.348V25.1C55.0967 25.34 55.0127 25.556 54.8447 25.748C54.6767 25.916 54.4607 26 54.1967 26H49.4447ZM70.7297 26C70.4897 26 70.2737 25.916 70.0817 25.748C69.9137 25.556 69.8297 25.34 69.8297 25.1V21.14H58.6697C58.4297 21.14 58.2137 21.056 58.0217 20.888C57.8537 20.696 57.7697 20.48 57.7697 20.24V16.604C57.7697 16.244 57.9017 15.884 58.1657 15.524L68.6057 1.412C68.9417 1.004 69.3857 0.799998 69.9377 0.799998H75.4097C75.6737 0.799998 75.8897 0.883999 76.0577 1.052C76.2497 1.22 76.3457 1.436 76.3457 1.7V15.56H79.5137C79.8017 15.56 80.0297 15.656 80.1977 15.848C80.3657 16.016 80.4497 16.22 80.4497 16.46V20.24C80.4497 20.48 80.3657 20.696 80.1977 20.888C80.0297 21.056 79.8137 21.14 79.5497 21.14H76.3457V25.1C76.3457 25.364 76.2497 25.58 76.0577 25.748C75.8897 25.916 75.6737 26 75.4097 26H70.7297ZM64.1777 15.812H69.9737V7.712L64.1777 15.812ZM92.4535 26C92.2135 26 91.9975 25.916 91.8055 25.748C91.6375 25.556 91.5535 25.34 91.5535 25.1V1.736C91.5535 1.472 91.6375 1.256 91.8055 1.088C91.9735 0.895998 92.1895 0.799998 92.4535 0.799998H109.193C109.457 0.799998 109.673 0.895998 109.841 1.088C110.033 1.256 110.129 1.472 110.129 1.736V5.552C110.129 5.816 110.033 6.032 109.841 6.2C109.673 6.368 109.457 6.452 109.193 6.452H98.1775V11.456H108.473C108.737 11.456 108.953 11.552 109.121 11.744C109.313 11.912 109.409 12.128 109.409 12.392V16.208C109.409 16.472 109.313 16.688 109.121 16.856C108.953 17.024 108.737 17.108 108.473 17.108H98.1775V25.1C98.1775 25.34 98.0935 25.556 97.9255 25.748C97.7575 25.916 97.5415 26 97.2775 26H92.4535ZM114.849 26C114.585 26 114.357 25.916 114.165 25.748C113.997 25.58 113.913 25.364 113.913 25.1V1.736C113.913 1.472 113.997 1.256 114.165 1.088C114.357 0.895998 114.585 0.799998 114.849 0.799998H118.917C119.517 0.799998 119.949 1.064 120.213 1.592L126.405 12.68L132.633 1.592C132.897 1.064 133.329 0.799998 133.929 0.799998H137.997C138.261 0.799998 138.477 0.895998 138.645 1.088C138.837 1.256 138.933 1.472 138.933 1.736V25.1C138.933 25.364 138.837 25.58 138.645 25.748C138.477 25.916 138.261 26 137.997 26H133.425C133.185 26 132.969 25.916 132.777 25.748C132.609 25.556 132.525 25.34 132.525 25.1V11.996L128.637 19.124C128.325 19.676 127.905 19.952 127.377 19.952H125.433C124.953 19.952 124.533 19.676 124.173 19.124L120.321 11.996V25.1C120.321 25.364 120.225 25.58 120.033 25.748C119.865 25.916 119.649 26 119.385 26H114.849Z" fill="#E42538"/>
</svg>
