<svg width="144" height="48" viewBox="0 0 144 48" fill="none" xmlns="http://www.w3.org/2000/svg">
<path d="M29.8725 23.8672C29.8859 22.8257 30.1614 21.8044 30.6735 20.8985C31.1856 19.9926 31.9176 19.2315 32.8014 18.686C32.2399 17.8809 31.4993 17.2183 30.6382 16.7509C29.7771 16.2835 28.8193 16.0242 27.8409 15.9934C25.7538 15.7735 23.7305 17.2474 22.667 17.2474C21.5829 17.2474 19.9454 16.0153 18.1821 16.0517C17.0415 16.0887 15.93 16.4217 14.9557 17.0183C13.9815 17.6148 13.1778 18.4546 12.6229 19.4558C10.2192 23.6342 12.0121 29.775 14.3146 33.1526C15.4667 34.8064 16.813 36.6538 18.5747 36.5883C20.2987 36.5165 20.9425 35.4846 23.0234 35.4846C25.0851 35.4846 25.6891 36.5883 27.4866 36.5467C29.3364 36.5165 30.5019 34.8855 31.6135 33.2159C32.4413 32.0375 33.0782 30.735 33.5007 29.3569C32.426 28.9005 31.5089 28.1365 30.8637 27.1603C30.2185 26.1841 29.8738 25.0388 29.8725 23.8672Z" fill="#0B243C"/>
<path d="M26.4774 13.7722C27.486 12.5565 27.9829 10.9939 27.8626 9.41629C26.3217 9.57879 24.8983 10.3182 23.876 11.4873C23.3762 12.0584 22.9934 12.7228 22.7495 13.4425C22.5056 14.1623 22.4054 14.9232 22.4545 15.6819C23.2253 15.6898 23.9878 15.5221 24.6846 15.1913C25.3814 14.8605 25.9944 14.3753 26.4774 13.7722Z" fill="#0B243C"/>
<path d="M50.5576 32.5676H44.9003L43.5417 36.5953H41.1455L46.504 21.6937H48.9936L54.352 36.5953H51.915L50.5576 32.5676ZM45.4862 30.709H49.9705L47.7599 24.1723H47.698L45.4862 30.709Z" fill="#0B243C"/>
<path d="M65.9224 31.1637C65.9224 34.5398 64.1226 36.709 61.4066 36.709C60.7186 36.7451 60.0344 36.586 59.4323 36.2498C58.8301 35.9137 58.3345 35.414 58.002 34.8082H57.9506V40.1894H55.7295V25.7309H57.8794V27.5379H57.9203C58.268 26.9349 58.7721 26.4379 59.3788 26.0997C59.9855 25.7615 60.6722 25.5947 61.3658 25.6172C64.1121 25.6172 65.9224 27.7969 65.9224 31.1637ZM63.6394 31.1637C63.6394 28.9641 62.5073 27.518 60.7799 27.518C59.0828 27.518 57.9413 28.9945 57.9413 31.1637C57.9413 33.3527 59.0828 34.8188 60.7799 34.8188C62.5073 34.8188 63.6394 33.3832 63.6394 31.1637H63.6394Z" fill="#0B243C"/>
<path d="M77.8371 31.1637C77.8371 34.5398 76.0367 36.709 73.3207 36.709C72.6327 36.7451 71.9485 36.586 71.3463 36.2498C70.7442 35.9137 70.2485 35.414 69.9161 34.8082H69.8647V40.1894H67.6436V25.7309H69.7935V27.5379H69.8343C70.1821 26.9349 70.6861 26.4379 71.2928 26.0997C71.8995 25.7615 72.5862 25.5947 73.2798 25.6172C76.0262 25.6172 77.8371 27.7969 77.8371 31.1637ZM75.5535 31.1637C75.5535 28.9641 74.4213 27.518 72.6939 27.518C70.9969 27.518 69.8554 28.9945 69.8554 31.1637C69.8554 33.3527 70.9969 34.8188 72.6939 34.8188C74.4213 34.8188 75.5535 33.3832 75.5535 31.1637Z" fill="#0B243C"/>
<path d="M85.7063 32.4434C85.8709 33.9211 87.3007 34.8914 89.2545 34.8914C91.1267 34.8914 92.4736 33.9211 92.4736 32.5886C92.4736 31.432 91.6612 30.7394 89.7377 30.2648L87.8142 29.7996C85.0889 29.1386 83.8237 27.8589 83.8237 25.7824C83.8237 23.2113 86.0553 21.4453 89.223 21.4453C92.3604 21.4453 94.5103 23.2113 94.5827 25.7824H92.3405C92.2063 24.2953 90.9819 23.3976 89.1927 23.3976C87.4034 23.3976 86.179 24.3058 86.179 25.6277C86.179 26.6812 86.961 27.3011 88.874 27.7757L90.5092 28.1788C93.5544 28.9019 94.8184 30.13 94.8184 32.3097C94.8184 35.0976 92.6078 36.8436 89.0899 36.8436C85.7985 36.8436 83.5762 35.1386 83.4326 32.4432L85.7063 32.4434Z" fill="#0B243C"/>
<path d="M99.6126 23.1598V25.7309H101.67V27.4969H99.6126V33.4863C99.6126 34.4168 100.025 34.8504 100.929 34.8504C101.173 34.8461 101.417 34.8289 101.66 34.7988V36.5543C101.253 36.6306 100.84 36.6651 100.426 36.6574C98.2353 36.6574 97.381 35.8312 97.381 33.7242V27.4969H95.8076V25.7309H97.3809V23.1598H99.6126Z" fill="#0B243C"/>
<path d="M102.861 31.1637C102.861 27.7453 104.867 25.5973 107.993 25.5973C111.131 25.5973 113.127 27.7453 113.127 31.1637C113.127 34.5914 111.141 36.7301 107.993 36.7301C104.847 36.7301 102.861 34.5914 102.861 31.1637ZM110.863 31.1637C110.863 28.8187 109.793 27.4348 107.993 27.4348C106.194 27.4348 105.123 28.8293 105.123 31.1637C105.123 33.518 106.194 34.8914 107.993 34.8914C109.793 34.8914 110.863 33.518 110.863 31.1637H110.863Z" fill="#0B243C"/>
<path d="M114.959 25.7309H117.077V27.5801H117.129C117.272 27.0025 117.609 26.4921 118.083 26.1347C118.557 25.7772 119.139 25.5945 119.732 25.6172C119.988 25.6163 120.243 25.6442 120.493 25.7004V27.7863C120.169 27.6872 119.832 27.6417 119.495 27.6516C119.172 27.6384 118.85 27.6955 118.552 27.819C118.253 27.9425 117.985 28.1294 117.765 28.3668C117.545 28.6043 117.379 28.8867 117.278 29.1947C117.177 29.5027 117.144 29.829 117.18 30.1512V36.5953H114.959L114.959 25.7309Z" fill="#0B243C"/>
<path d="M130.734 33.4043C130.435 35.3766 128.522 36.7301 126.074 36.7301C122.926 36.7301 120.973 34.6125 120.973 31.2152C120.973 27.8074 122.937 25.5973 125.981 25.5973C128.975 25.5973 130.857 27.6621 130.857 30.9562V31.7203H123.215V31.8551C123.18 32.2549 123.229 32.6577 123.361 33.0367C123.493 33.4157 123.703 33.7623 123.979 34.0533C124.254 34.3444 124.588 34.5733 124.958 34.7249C125.328 34.8764 125.726 34.9472 126.126 34.9324C126.651 34.9818 127.177 34.8597 127.628 34.5844C128.078 34.3091 128.427 33.8952 128.625 33.4043L130.734 33.4043ZM123.225 30.1617H128.635C128.655 29.8022 128.601 29.4424 128.476 29.105C128.351 28.7675 128.157 28.4597 127.908 28.2008C127.659 27.9418 127.359 27.7374 127.027 27.6004C126.696 27.4633 126.34 27.3966 125.981 27.4043C125.619 27.4021 125.261 27.4719 124.926 27.6096C124.591 27.7473 124.287 27.9502 124.031 28.2065C123.775 28.4629 123.572 28.7676 123.433 29.1032C123.295 29.4388 123.224 29.7986 123.225 30.1617V30.1617Z" fill="#0B243C"/>
<path d="M43.9099 13.5041H44.8635C45.0276 13.5246 45.1942 13.5108 45.3528 13.4635C45.5114 13.4161 45.6584 13.3363 45.7848 13.2291C45.9111 13.1219 46.0139 12.9895 46.0868 12.8404C46.1596 12.6913 46.2009 12.5286 46.2081 12.3627C46.2081 11.7024 45.7132 11.2758 44.874 11.2758C44.7058 11.2522 44.5346 11.2627 44.3705 11.3066C44.2065 11.3505 44.0528 11.427 43.9187 11.5316C43.7845 11.6361 43.6726 11.7666 43.5895 11.9153C43.5064 12.064 43.4538 12.2279 43.4349 12.3973H42.3879C42.4059 12.0897 42.4868 11.7892 42.6255 11.5144C42.7642 11.2396 42.9578 10.9964 43.1942 10.7999C43.4306 10.6035 43.7047 10.458 43.9995 10.3725C44.2943 10.2871 44.6035 10.2634 44.9078 10.3031C46.3119 10.3031 47.3006 11.0924 47.3006 12.2285C47.3039 12.6091 47.177 12.9794 46.9412 13.2774C46.7055 13.5755 46.375 13.7833 46.005 13.8662V13.9506C46.4436 13.9701 46.8567 14.1632 47.1539 14.4877C47.4512 14.8121 47.6084 15.2416 47.5912 15.682C47.5587 15.9987 47.4636 16.3057 47.3115 16.585C47.1593 16.8643 46.9532 17.1103 46.7051 17.3085C46.457 17.5068 46.172 17.6533 45.8668 17.7396C45.5616 17.8258 45.2423 17.85 44.9277 17.8108C44.6124 17.8539 44.2916 17.8329 43.9846 17.7489C43.6776 17.665 43.3905 17.5198 43.1405 17.3221C42.8906 17.1244 42.6828 16.8782 42.5296 16.5981C42.3765 16.3181 42.281 16.0099 42.249 15.692H43.3123C43.3765 16.377 44.0033 16.8188 44.9277 16.8188C45.8521 16.8188 46.4555 16.3225 46.4555 15.6229C46.4555 14.9133 45.8871 14.4762 44.8938 14.4762H43.9099V13.5041Z" fill="#0B243C"/>
<path d="M48.7998 16.1092C48.7998 15.1365 49.5223 14.5758 50.8015 14.4961L52.2593 14.4117V13.9453C52.2593 13.3746 51.8846 13.0524 51.1575 13.0524C50.5646 13.0524 50.1549 13.2709 50.0358 13.653H49.0076C49.1161 12.7248 49.9868 12.1295 51.2077 12.1295C52.5569 12.1295 53.3179 12.8039 53.3179 13.9453V17.6373H52.2943V16.878H52.2103C52.0397 17.1503 51.8002 17.3724 51.5162 17.5215C51.2322 17.6705 50.9139 17.7412 50.5937 17.7264C50.3678 17.7499 50.1395 17.7257 49.9234 17.6553C49.7074 17.5849 49.5084 17.4698 49.3394 17.3174C49.1704 17.165 49.0351 16.9788 48.9421 16.7707C48.8492 16.5626 48.8007 16.3373 48.7998 16.1092ZM52.2593 15.6475V15.1957L50.945 15.2801C50.2039 15.3299 49.8677 15.583 49.8677 16.0594C49.8677 16.5457 50.2879 16.8287 50.8657 16.8287C51.035 16.8459 51.206 16.8288 51.3686 16.7783C51.5311 16.7278 51.6819 16.6449 51.8119 16.5347C51.9419 16.4245 52.0485 16.2892 52.1254 16.1367C52.2023 15.9843 52.2478 15.8179 52.2593 15.6475Z" fill="#0B243C"/>
<path d="M56.1363 13.1315V17.6373H55.0742V12.2338H58.6178V13.1314L56.1363 13.1315Z" fill="#0B243C"/>
<path d="M65.0522 14.9332C65.0522 16.65 64.1873 17.7264 62.8287 17.7264C62.4952 17.7493 62.1622 17.676 61.8688 17.5152C61.5753 17.3544 61.3338 17.1128 61.1725 16.8188H61.0885V19.4338H60.0264V12.2338H61.0488V13.1268H61.1282C61.2923 12.8225 61.537 12.5697 61.8353 12.3963C62.1335 12.2229 62.4737 12.1357 62.8182 12.1442C64.1873 12.1441 65.0522 13.2158 65.0522 14.9332ZM63.9597 14.9332C63.9597 13.7918 63.4217 13.1022 62.5218 13.1022C61.6278 13.1022 61.0687 13.8064 61.0687 14.9379C61.0687 16.0641 61.6277 16.769 62.5171 16.769C63.4217 16.7689 63.9597 16.0793 63.9597 14.9332Z" fill="#0B243C"/>
<path d="M66.4676 19.5727V18.6545C66.5825 18.6692 66.6983 18.6758 66.8142 18.6744C67.0405 18.6913 67.265 18.6236 67.4446 18.4844C67.6243 18.3452 67.7464 18.1444 67.7876 17.9203L67.8669 17.6572L65.9189 12.2338H67.0756L68.4249 16.5258H68.5089L69.8535 12.2338H70.9798L68.9735 17.8606C68.5136 19.1754 68.0047 19.5973 66.9076 19.5973C66.8189 19.5973 66.5668 19.5873 66.4676 19.5727Z" fill="#0B243C"/>
<path d="M71.8076 16.1039H72.8651C72.969 16.5803 73.4137 16.8287 74.0358 16.8287C74.7431 16.8287 75.1772 16.5158 75.1772 16.0295C75.1772 15.5086 74.7874 15.2602 74.0358 15.2602H73.2304V14.4317H74.0217C74.6637 14.4317 74.9905 14.1838 74.9905 13.7321C74.9905 13.3354 74.6742 13.0325 74.0217 13.0325C73.4277 13.0325 72.9935 13.2856 72.9246 13.7122H71.901C71.9775 13.222 72.2426 12.7816 72.6392 12.4856C73.0358 12.1897 73.5322 12.0618 74.0217 12.1296C75.301 12.1296 76.0328 12.7102 76.0328 13.6231C76.0388 13.8773 75.9576 14.1259 75.803 14.3273C75.6483 14.5286 75.4295 14.6706 75.1831 14.7294V14.8137C75.4764 14.8517 75.7457 14.9965 75.9397 15.2206C76.1338 15.4448 76.2392 15.7326 76.2359 16.0296C76.2359 17.0568 75.3652 17.7364 74.0358 17.7364C72.8604 17.7364 71.9057 17.1955 71.8076 16.1039Z" fill="#0B243C"/>
<path d="M77.7686 17.6373V12.2338H78.8213V15.9504H78.9054L81.3856 12.2338H82.4384V17.6373H81.3856V13.9008H81.3063L78.8213 17.6373L77.7686 17.6373Z" fill="#0B243C"/>
<path d="M88.238 13.1315H86.5432V17.6373H85.4799V13.1315H83.7852V12.2339H88.238V13.1315Z" fill="#0B243C"/>
<path d="M93.9574 16.1784C93.8127 16.6722 93.4998 17.0993 93.0733 17.385C92.6469 17.6707 92.134 17.797 91.6243 17.7416C91.2697 17.751 90.9173 17.6828 90.5916 17.5418C90.266 17.4008 89.9747 17.1903 89.7382 16.9249C89.5017 16.6595 89.3255 16.3457 89.2219 16.0051C89.1182 15.6645 89.0897 15.3053 89.1382 14.9526C89.091 14.5987 89.12 14.2388 89.2234 13.8972C89.3268 13.5556 89.502 13.2402 89.7373 12.9726C89.9726 12.7049 90.2624 12.4911 90.5872 12.3456C90.9119 12.2002 91.264 12.1265 91.6196 12.1295C93.1171 12.1295 94.0216 13.1567 94.0216 14.8535V15.2256H90.2213V15.2854C90.2045 15.4837 90.2292 15.6834 90.2938 15.8716C90.3584 16.0598 90.4615 16.2323 90.5965 16.3781C90.7315 16.5239 90.8954 16.6397 91.0776 16.7181C91.2598 16.7965 91.4564 16.8358 91.6546 16.8334C91.9085 16.8639 92.1657 16.8179 92.3935 16.7012C92.6212 16.5846 92.8093 16.4026 92.9338 16.1783L93.9574 16.1784ZM90.2213 14.4369H92.9385C92.9519 14.2557 92.9274 14.0736 92.8666 13.9024C92.8058 13.7312 92.71 13.5747 92.5853 13.4429C92.4607 13.311 92.31 13.2069 92.1428 13.137C91.9757 13.0671 91.7959 13.0331 91.6149 13.0371C91.4312 13.0346 91.2488 13.0691 91.0785 13.1386C90.9083 13.2081 90.7536 13.3111 90.6237 13.4416C90.4938 13.5721 90.3913 13.7274 90.3221 13.8984C90.253 14.0693 90.2187 14.2525 90.2213 14.4369H90.2213Z" fill="#0B243C"/>
<path d="M98.4619 12.2338H100.888C101.941 12.2338 102.559 12.7693 102.559 13.6078C102.56 13.8738 102.471 14.1324 102.305 14.3402C102.14 14.5479 101.908 14.6923 101.649 14.7492V14.8336C101.964 14.8535 102.258 14.9939 102.473 15.2257C102.687 15.4575 102.804 15.7631 102.8 16.0793C102.8 17.022 102.094 17.6373 100.913 17.6373H98.4619V12.2338ZM99.5147 13.0524V14.4516H100.567C101.209 14.4516 101.516 14.2037 101.516 13.7467C101.516 13.3254 101.249 13.0523 100.685 13.0523L99.5147 13.0524ZM99.5147 15.2356V16.8188H100.774C101.402 16.8188 101.738 16.5405 101.738 16.0295C101.738 15.4887 101.358 15.2356 100.641 15.2356L99.5147 15.2356Z" fill="#0B243C"/>
</svg>
