<svg width="161" height="48" viewBox="0 0 161 48" fill="none" xmlns="http://www.w3.org/2000/svg">
<path d="M81.0881 26.1C80.0854 26.1024 79.106 26.4045 78.2736 26.9682C77.4412 27.5319 76.7933 28.3318 76.4118 29.2668C76.0303 30.2018 75.9323 31.2299 76.1302 32.2211C76.3281 33.2122 76.8131 34.122 77.5237 34.8352C78.2344 35.5485 79.1388 36.0332 80.1226 36.2281C81.1065 36.423 82.1255 36.3194 83.051 35.9303C83.9764 35.5412 84.7666 34.8841 85.3217 34.0421C85.8768 33.2001 86.1718 32.2111 86.1695 31.2C86.1792 30.5255 86.0542 29.856 85.8019 29.2312C85.5497 28.6065 85.1754 28.0393 84.7013 27.5634C84.2271 27.0876 83.6629 26.7128 83.0422 26.4614C82.4214 26.21 81.7569 26.0871 81.0881 26.1V26.1ZM81.0881 34.296C80.4735 34.3394 79.8602 34.1953 79.328 33.8825C78.7957 33.5697 78.3691 33.1027 78.1035 32.5421C77.8379 31.9816 77.7457 31.3535 77.8389 30.7394C77.9321 30.1253 78.2063 29.5537 78.6259 29.0989C79.0455 28.644 79.591 28.327 80.1917 28.1889C80.7923 28.0509 81.4203 28.0983 81.9939 28.3249C82.5675 28.5515 83.0602 28.9469 83.408 29.4597C83.7558 29.9724 83.9426 30.5788 83.9441 31.2C83.9633 31.5936 83.9041 31.9871 83.77 32.3573C83.636 32.7275 83.4298 33.0669 83.1636 33.3554C82.8974 33.644 82.5766 33.8759 82.2202 34.0374C81.8637 34.1989 81.4788 34.2869 81.0881 34.296ZM69.997 26.1C68.9944 26.1024 68.015 26.4045 67.1826 26.9682C66.3502 27.5319 65.7023 28.3318 65.3208 29.2668C64.9393 30.2018 64.8413 31.2299 65.0392 32.2211C65.2371 33.2122 65.7221 34.122 66.4327 34.8352C67.1433 35.5485 68.0478 36.0332 69.0316 36.2281C70.0155 36.423 71.0345 36.3194 71.96 35.9303C72.8854 35.5412 73.6756 34.8841 74.2307 34.0421C74.7858 33.2001 75.0808 32.2111 75.0784 31.2C75.0881 30.5255 74.9632 29.856 74.7109 29.2312C74.4587 28.6065 74.0844 28.0393 73.6103 27.5634C73.1361 27.0876 72.5719 26.7128 71.9512 26.4614C71.3304 26.21 70.6659 26.0871 69.997 26.1V26.1ZM69.997 34.296C69.3825 34.3394 68.7692 34.1953 68.237 33.8825C67.7047 33.5697 67.2781 33.1027 67.0125 32.5421C66.7469 31.9816 66.6547 31.3535 66.7479 30.7394C66.8411 30.1253 67.1153 29.5537 67.5349 29.0989C67.9544 28.644 68.5 28.327 69.1007 28.1889C69.7013 28.0509 70.3293 28.0983 70.9029 28.3249C71.4765 28.5515 71.9692 28.9469 72.317 29.4597C72.6648 29.9724 72.8516 30.5788 72.8531 31.2C72.8723 31.5936 72.8131 31.9871 72.679 32.3573C72.545 32.7275 72.3388 33.0669 72.0726 33.3554C71.8064 33.644 71.4856 33.8759 71.1292 34.0374C70.7727 34.1989 70.3878 34.2869 69.997 34.296ZM56.8116 27.672V29.832H61.9525C61.8719 30.8494 61.4525 31.8094 60.7625 32.556C60.2468 33.0858 59.6265 33.5006 58.9419 33.7734C58.2572 34.0463 57.5233 34.1712 56.7878 34.14C55.2729 34.14 53.82 33.5332 52.7487 32.4529C51.6775 31.3727 51.0757 29.9077 51.0757 28.38C51.0757 26.8524 51.6775 25.3873 52.7487 24.3071C53.82 23.2269 55.2729 22.62 56.7878 22.62C58.2402 22.5982 59.6425 23.1544 60.6911 24.168L62.2024 22.644C61.4931 21.9366 60.651 21.3791 59.7253 21.0041C58.7996 20.629 57.8091 20.4441 56.8116 20.46C55.7537 20.4185 54.6983 20.5928 53.7088 20.9724C52.7192 21.352 51.8158 21.9291 51.0528 22.6692C50.2897 23.4093 49.6827 24.2971 49.268 25.2794C48.8534 26.2618 48.6396 27.3184 48.6396 28.386C48.6396 29.4536 48.8534 30.5102 49.268 31.4926C49.6827 32.4749 50.2897 33.3627 51.0528 34.1028C51.8158 34.8429 52.7192 35.42 53.7088 35.7997C54.6983 36.1793 55.7537 36.3535 56.8116 36.312C57.8296 36.353 58.8446 36.1764 59.7901 35.7938C60.7356 35.4112 61.5901 34.8312 62.2976 34.092C63.5473 32.7077 64.2131 30.887 64.154 29.016C64.1583 28.5657 64.1224 28.1159 64.0469 27.672H56.8116ZM110.732 29.352C110.421 28.4313 109.841 27.6274 109.067 27.0466C108.294 26.4659 107.364 26.1358 106.4 26.1C105.749 26.0987 105.105 26.2321 104.507 26.4919C103.909 26.7516 103.37 27.1323 102.924 27.6103C102.478 28.0882 102.134 28.6534 101.913 29.2709C101.692 29.8883 101.599 30.5449 101.64 31.2C101.63 32.2954 101.971 33.3648 102.613 34.2483C103.256 35.1319 104.164 35.7822 105.203 36.1022C106.242 36.4222 107.356 36.3946 108.378 36.0237C109.4 35.6527 110.276 34.9582 110.874 34.044L109.149 32.844C108.892 33.2763 108.527 33.6334 108.09 33.8796C107.654 34.1259 107.162 34.2529 106.662 34.248C106.146 34.2695 105.636 34.1331 105.198 33.8569C104.761 33.5806 104.416 33.1773 104.21 32.7L110.981 29.88L110.732 29.352ZM103.829 31.056C103.805 30.6833 103.855 30.3094 103.976 29.9564C104.097 29.6033 104.287 29.2781 104.534 28.9998C104.781 28.7216 105.081 28.4958 105.415 28.3358C105.75 28.1758 106.113 28.0848 106.483 28.068C106.867 28.0444 107.248 28.1354 107.581 28.3297C107.913 28.5239 108.181 28.8128 108.351 29.16L103.829 31.056ZM98.3315 36H100.557V21H98.3315V36ZM94.69 27.24H94.6067C94.2743 26.8582 93.864 26.5534 93.4039 26.3463C92.9439 26.1392 92.4449 26.0347 91.9411 26.04C90.6406 26.1036 89.4142 26.6693 88.5161 27.6199C87.6181 28.5705 87.1171 29.8331 87.1171 31.146C87.1171 32.4589 87.6181 33.7215 88.5161 34.6721C89.4142 35.6227 90.6406 36.1884 91.9411 36.252C92.4456 36.2622 92.9461 36.1599 93.4069 35.9525C93.8677 35.7451 94.2774 35.4376 94.6067 35.052H94.69V35.784C94.69 37.74 93.6547 38.784 91.9887 38.784C91.4321 38.7717 90.8918 38.5929 90.4362 38.2702C89.9807 37.9476 89.6305 37.4957 89.4301 36.972L87.5023 37.776C87.8587 38.6787 88.4784 39.4511 89.2795 39.991C90.0805 40.531 91.0252 40.8131 91.9887 40.8C94.5948 40.8 96.7488 39.252 96.7488 35.484V26.4H94.69V27.24ZM92.1315 34.296C91.3518 34.247 90.6199 33.9001 90.085 33.326C89.55 32.7519 89.2523 31.9938 89.2523 31.206C89.2523 30.4183 89.55 29.6601 90.085 29.086C90.6199 28.5119 91.3518 28.165 92.1315 28.116C92.5125 28.1326 92.8864 28.2263 93.2309 28.3916C93.5753 28.5568 93.8833 28.7903 94.1364 29.078C94.3896 29.3658 94.5827 29.7019 94.7044 30.0664C94.8261 30.431 94.8738 30.8165 94.8447 31.2C94.8772 31.5848 94.8319 31.9723 94.7116 32.339C94.5914 32.7057 94.3986 33.044 94.1449 33.3334C93.8913 33.6228 93.5821 33.8573 93.236 34.0228C92.8899 34.1882 92.5142 34.2812 92.1315 34.296V34.296ZM121.156 21H115.825V36H118.05V30.312H121.156C121.79 30.358 122.427 30.2717 123.027 30.0585C123.627 29.8453 124.176 29.5098 124.642 29.073C125.107 28.6362 125.478 28.1073 125.732 27.5194C125.986 26.9315 126.117 26.2972 126.117 25.656C126.117 25.0148 125.986 24.3805 125.732 23.7926C125.478 23.2047 125.107 22.6759 124.642 22.239C124.176 21.8022 123.627 21.4667 123.027 21.2535C122.427 21.0404 121.79 20.9541 121.156 21V21ZM121.156 28.2H118.05V23.088H121.204C121.538 23.088 121.869 23.1544 122.178 23.2835C122.487 23.4125 122.768 23.6017 123.004 23.8402C123.241 24.0786 123.429 24.3617 123.557 24.6733C123.684 24.9848 123.75 25.3188 123.75 25.656C123.75 25.9932 123.684 26.3272 123.557 26.6387C123.429 26.9503 123.241 27.2334 123.004 27.4719C122.768 27.7103 122.487 27.8995 122.178 28.0285C121.869 28.1576 121.538 28.224 121.204 28.224L121.156 28.2ZM134.889 26.052C134.079 26.0016 133.271 26.1919 132.567 26.5992C131.863 27.0066 131.292 27.6132 130.926 28.344L132.89 29.172C133.088 28.8113 133.386 28.5162 133.747 28.3224C134.108 28.1287 134.517 28.0445 134.925 28.08C135.207 28.0467 135.493 28.0705 135.767 28.15C136.04 28.2295 136.295 28.363 136.516 28.5429C136.738 28.7227 136.922 28.9452 137.057 29.1975C137.192 29.4497 137.277 29.7266 137.305 30.012V30.156C136.589 29.7767 135.793 29.579 134.984 29.58C132.866 29.58 130.7 30.78 130.7 32.964C130.721 33.4282 130.834 33.8835 131.033 34.3027C131.232 34.7219 131.512 35.0965 131.858 35.4043C132.203 35.7122 132.606 35.9469 133.043 36.0946C133.48 36.2422 133.942 36.2999 134.401 36.264C134.959 36.2952 135.516 36.176 136.014 35.9187C136.511 35.6615 136.932 35.2754 137.233 34.8H137.305V36H139.447V30.228C139.447 27.6 137.471 26.076 134.937 26.076L134.889 26.052ZM134.615 34.272C133.889 34.272 132.878 33.9 132.878 33C132.878 31.8 134.139 31.392 135.258 31.392C135.965 31.3744 136.663 31.5485 137.281 31.896C137.206 32.5477 136.9 33.15 136.418 33.5913C135.937 34.0326 135.313 34.2829 134.663 34.296L134.615 34.272ZM147.253 26.4L144.707 32.904H144.635L141.993 26.4H139.613L143.576 35.496L141.315 40.548H143.636L149.729 26.4H147.253ZM127.261 36H129.474V21H127.261V36Z" fill="#0B243C"/>
<path d="M12.4238 9.04802C12.0317 9.51557 11.8316 10.1166 11.8645 10.728V37.272C11.824 37.8845 12.025 38.4883 12.4238 38.952L12.5071 39.048L27.2515 24.18V23.82L12.5071 8.96402L12.4238 9.04802Z" fill="url(#paint0_linear_101_387)"/>
<path d="M32.1301 29.136L27.251 24.18V23.82L32.1301 18.864L32.2372 18.936L38.0802 22.272C39.7462 23.22 39.7462 24.78 38.0802 25.74L32.261 29.076L32.1301 29.136Z" fill="url(#paint1_linear_101_387)"/>
<path d="M32.2734 29.064L27.2515 24L12.4238 38.952C12.7601 39.2538 13.1905 39.4275 13.6405 39.4428C14.0904 39.4582 14.5315 39.3142 14.8872 39.036L32.2734 29.064" fill="url(#paint2_linear_101_387)"/>
<path d="M32.2734 18.936L14.8872 8.97601C14.5338 8.69391 14.093 8.54648 13.6425 8.55965C13.192 8.57282 12.7604 8.74574 12.4238 9.04801L27.2515 24L32.2734 18.936Z" fill="url(#paint3_linear_101_387)"/>
<path opacity="0.2" d="M32.1306 28.956L14.8872 38.856C14.5444 39.1169 14.1266 39.258 13.6972 39.258C13.2677 39.258 12.8499 39.1169 12.5071 38.856V38.856L12.4238 38.94L12.5071 39.036C12.8499 39.2969 13.2677 39.438 13.6972 39.438C14.1266 39.438 14.5444 39.2969 14.8872 39.036L32.2734 29.064L32.1306 28.956Z" fill="#0B243C"/>
<path opacity="0.12" d="M12.424 38.784C12.0418 38.308 11.8544 37.7027 11.9004 37.092V37.272C11.8599 37.8845 12.0609 38.4883 12.4597 38.952L12.543 38.868L12.424 38.784Z" fill="#0B243C"/>
<path opacity="0.12" d="M38.081 25.56L32.1309 28.956L32.238 29.064L38.081 25.728C38.4259 25.5809 38.7251 25.3428 38.9471 25.0387C39.1691 24.7346 39.3056 24.3758 39.3424 24C39.268 24.3415 39.1151 24.6606 38.896 24.9315C38.6769 25.2025 38.3977 25.4178 38.081 25.56Z" fill="#0B243C"/>
<path opacity="0.25" d="M14.8879 9.14402L38.0814 22.44C38.3982 22.5823 38.6773 22.7975 38.8964 23.0685C39.1155 23.3395 39.2685 23.6585 39.3429 24C39.3061 23.6242 39.1695 23.2654 38.9475 22.9613C38.7255 22.6572 38.4263 22.4191 38.0814 22.272L14.8879 8.97602C13.2338 8.01602 11.8652 8.80802 11.8652 10.728V10.908C11.9009 8.98802 13.2338 8.19602 14.8879 9.14402Z" fill="white"/>
<path d="M50.1109 17.124H49.2422V14.724H49.98C50.312 14.3606 50.5616 13.9287 50.7116 13.4584C50.8616 12.988 50.9084 12.4904 50.8487 12V8.39999H55.6088V14.712H56.4061V17.112H55.5255V15.6H50.1109V17.124ZM51.765 12C51.8181 12.9639 51.5817 13.9216 51.0867 14.748H54.6568V9.28799H51.765V12Z" fill="#0B243C" stroke="#0B243C" stroke-width="0.411304" stroke-miterlimit="10"/>
<path d="M63.5585 14.664C63.2158 15.0105 62.8087 15.2854 62.3604 15.473C61.9122 15.6605 61.4317 15.7571 60.9464 15.7571C60.4611 15.7571 59.9806 15.6605 59.5323 15.473C59.0841 15.2854 58.677 15.0105 58.3343 14.664C57.6535 13.947 57.2734 12.9926 57.2734 12C57.2734 11.0073 57.6535 10.053 58.3343 9.33596C58.677 8.98946 59.0841 8.71454 59.5323 8.52696C59.9806 8.33938 60.4611 8.24283 60.9464 8.24283C61.4317 8.24283 61.9122 8.33938 62.3604 8.52696C62.8087 8.71454 63.2158 8.98946 63.5585 9.33596C63.9023 9.68636 64.1731 10.1026 64.355 10.5601C64.5368 11.0176 64.6261 11.5071 64.6176 12C64.6317 12.4935 64.5449 12.9847 64.3627 13.443C64.1805 13.9013 63.9067 14.3169 63.5585 14.664V14.664ZM59.0007 14.064C59.2514 14.3266 59.553 14.5345 59.8866 14.6748C60.2203 14.8152 60.5789 14.885 60.9404 14.88C61.3022 14.8872 61.6615 14.8184 61.9955 14.6779C62.3294 14.5374 62.6307 14.3283 62.8802 14.064C63.3936 13.5013 63.6787 12.7646 63.6787 12C63.6787 11.2353 63.3936 10.4986 62.8802 9.93596C62.6307 9.6716 62.3294 9.46252 61.9955 9.32204C61.6615 9.18155 61.3022 9.11273 60.9404 9.11996C60.5789 9.1149 60.2203 9.18471 59.8866 9.32507C59.553 9.46543 59.2514 9.67335 59.0007 9.93596C58.4948 10.5024 58.2148 11.2377 58.2148 12C58.2148 12.7623 58.4948 13.4975 59.0007 14.064Z" fill="#0B243C" stroke="#0B243C" stroke-width="0.411304" stroke-miterlimit="10"/>
<path d="M69.2364 15.756C68.7549 15.7636 68.2769 15.6729 67.831 15.4894C67.3852 15.3059 66.9808 15.0333 66.6422 14.688C65.9555 13.9644 65.5723 13.0015 65.5723 12C65.5723 10.9985 65.9555 10.0356 66.6422 9.31201C66.9864 8.96082 67.3985 8.68478 67.853 8.50105C68.3075 8.31732 68.7946 8.22982 69.284 8.24401C69.7822 8.2298 70.277 8.33051 70.7308 8.53848C71.1845 8.74645 71.5851 9.05617 71.9021 9.44401L71.2714 10.068C71.0376 9.76491 70.7351 9.5228 70.3893 9.36202C70.0434 9.20124 69.6644 9.12648 69.284 9.14401C68.9177 9.13459 68.5534 9.20108 68.2136 9.33938C67.8738 9.47767 67.5658 9.68482 67.3086 9.94801C66.796 10.5159 66.5119 11.2561 66.5119 12.024C66.5119 12.7919 66.796 13.5322 67.3086 14.1C67.5658 14.3632 67.8738 14.5703 68.2136 14.7086C68.5534 14.8469 68.9177 14.9134 69.284 14.904C69.6929 14.8923 70.0944 14.7906 70.4602 14.6062C70.8261 14.4217 71.1476 14.1588 71.4023 13.836L72.0449 14.472C71.7189 14.866 71.3131 15.1851 70.8548 15.408C70.3486 15.6465 69.7951 15.7655 69.2364 15.756Z" fill="#0B243C" stroke="#0B243C" stroke-width="0.411304" stroke-miterlimit="10"/>
<path d="M75.7798 15.6H74.8635V9.28799H72.8643V8.39999H77.7671V9.28799H75.7798V15.6Z" fill="#0B243C" stroke="#0B243C" stroke-width="0.411304" stroke-miterlimit="10"/>
<path d="M84.0756 8.39999L81.3743 14.472C81.3088 14.7154 81.1915 14.9416 81.0307 15.1348C80.8699 15.3281 80.6694 15.4837 80.443 15.591C80.2166 15.6983 79.9697 15.7547 79.7196 15.7562C79.4694 15.7578 79.2219 15.7045 78.9942 15.6L79.2323 14.748C79.3779 14.8305 79.5413 14.8758 79.7083 14.88C79.8844 14.8889 80.0589 14.8428 80.2081 14.748C80.3526 14.6267 80.4633 14.4695 80.5294 14.292L80.7912 13.716L78.4111 8.39999H79.4941L81.2553 12.528L82.9927 8.39999H84.0756Z" fill="#0B243C" stroke="#0B243C" stroke-width="0.411304" stroke-miterlimit="10"/>
<path d="M85.1104 15.6V8.39999H90.2751V15.6H89.3587V9.28799H86.0267V15.6H85.1104Z" fill="#0B243C" stroke="#0B243C" stroke-width="0.411304" stroke-miterlimit="10"/>
<path d="M91.9053 15.6V8.39999H92.8216V11.484H96.3917V8.39999H97.3199V15.6H96.3917V12.348H92.8216V15.6H91.9053Z" fill="#0B243C" stroke="#0B243C" stroke-width="0.411304" stroke-miterlimit="10"/>
<path d="M104.793 14.664C104.449 15.0108 104.041 15.286 103.592 15.4737C103.143 15.6615 102.661 15.7581 102.175 15.7581C101.689 15.7581 101.207 15.6615 100.758 15.4737C100.309 15.286 99.9006 15.0108 99.5569 14.664C98.8761 13.947 98.4961 12.9926 98.4961 12C98.4961 11.0073 98.8761 10.053 99.5569 9.33596C99.8996 8.98946 100.307 8.71454 100.755 8.52696C101.203 8.33938 101.684 8.24283 102.169 8.24283C102.654 8.24283 103.135 8.33938 103.583 8.52696C104.031 8.71454 104.438 8.98946 104.781 9.33596C105.457 10.0557 105.833 11.009 105.833 12C105.833 12.9909 105.457 13.9442 104.781 14.664H104.793ZM100.235 14.064C100.485 14.3283 100.786 14.5374 101.12 14.6779C101.454 14.8184 101.813 14.8872 102.175 14.88C102.536 14.885 102.895 14.8152 103.229 14.6748C103.562 14.5345 103.864 14.3266 104.115 14.064C104.621 13.4975 104.901 12.7623 104.901 12C104.901 11.2377 104.621 10.5024 104.115 9.93596C103.864 9.67335 103.562 9.46543 103.229 9.32507C102.895 9.18471 102.536 9.1149 102.175 9.11996C101.813 9.11273 101.454 9.18155 101.12 9.32204C100.786 9.46253 100.485 9.67161 100.235 9.93596C99.7218 10.4986 99.4368 11.2353 99.4368 12C99.4368 12.7646 99.7218 13.5013 100.235 14.064V14.064Z" fill="#0B243C" stroke="#0B243C" stroke-width="0.411304" stroke-miterlimit="10"/>
<path d="M109.588 15.6V8.39998H112.17C112.706 8.39456 113.224 8.59149 113.622 8.95198C113.821 9.126 113.979 9.34195 114.086 9.58457C114.193 9.82719 114.246 10.0905 114.241 10.356C114.244 10.6792 114.153 10.9963 113.979 11.268C113.803 11.5256 113.56 11.7292 113.277 11.856V11.856C113.621 11.9744 113.922 12.1913 114.146 12.48C114.364 12.7741 114.481 13.1324 114.479 13.5C114.485 13.7766 114.431 14.0512 114.319 14.3042C114.208 14.5573 114.043 14.7825 113.836 14.964C113.423 15.3515 112.877 15.5623 112.313 15.552L109.588 15.6ZM110.504 11.484H112.17C112.326 11.4931 112.482 11.4665 112.626 11.4062C112.771 11.346 112.899 11.2536 113.003 11.136C113.205 10.9366 113.321 10.6649 113.325 10.38C113.336 10.0942 113.238 9.81501 113.051 9.59998C112.951 9.48807 112.827 9.3999 112.69 9.3418C112.552 9.28371 112.403 9.25713 112.254 9.26398H110.54L110.504 11.484ZM110.504 14.712H112.361C112.522 14.7174 112.682 14.6869 112.83 14.6226C112.978 14.5583 113.111 14.4618 113.217 14.34C113.423 14.1187 113.538 13.8271 113.539 13.524C113.532 13.2233 113.413 12.9364 113.206 12.72C113.091 12.5985 112.952 12.5027 112.798 12.4386C112.645 12.3745 112.479 12.3436 112.313 12.348H110.504V14.712Z" fill="#0B243C" stroke="#0B243C" stroke-width="0.411304" stroke-miterlimit="10"/>
<defs>
<linearGradient id="paint0_linear_101_387" x1="25.9425" y1="10.452" x2="5.80716" y2="30.4199" gradientUnits="userSpaceOnUse">
<stop stop-color="#00A0FF"/>
<stop offset="0.01" stop-color="#00A1FF"/>
<stop offset="0.26" stop-color="#00BEFF"/>
<stop offset="0.51" stop-color="#00D2FF"/>
<stop offset="0.76" stop-color="#00DFFF"/>
<stop offset="1" stop-color="#00E3FF"/>
</linearGradient>
<linearGradient id="paint1_linear_101_387" x1="40.2579" y1="24" x2="11.4713" y2="24" gradientUnits="userSpaceOnUse">
<stop stop-color="#FFE000"/>
<stop offset="0.41" stop-color="#FFBD00"/>
<stop offset="0.78" stop-color="#FFA500"/>
<stop offset="1" stop-color="#FF9C00"/>
</linearGradient>
<linearGradient id="paint2_linear_101_387" x1="29.5483" y1="26.76" x2="2.2373" y2="53.832" gradientUnits="userSpaceOnUse">
<stop stop-color="#FF3A44"/>
<stop offset="1" stop-color="#C31162"/>
</linearGradient>
<linearGradient id="paint3_linear_101_387" x1="8.68716" y1="0.216012" x2="20.8787" y2="12.3062" gradientUnits="userSpaceOnUse">
<stop stop-color="#32A071"/>
<stop offset="0.07" stop-color="#2DA771"/>
<stop offset="0.48" stop-color="#15CF74"/>
<stop offset="0.8" stop-color="#06E775"/>
<stop offset="1" stop-color="#00F076"/>
</linearGradient>
</defs>
</svg>
