<svg width="156" height="27" viewBox="0 0 156 27" fill="none" xmlns="http://www.w3.org/2000/svg">
<path d="M1.384 26C1.12 26 0.892 25.916 0.7 25.748C0.532 25.58 0.448 25.364 0.448 25.1V1.736C0.448 1.472 0.532 1.256 0.7 1.088C0.892 0.895998 1.12 0.799998 1.384 0.799998H5.452C6.052 0.799998 6.484 1.064 6.748 1.592L12.94 12.68L19.168 1.592C19.432 1.064 19.864 0.799998 20.464 0.799998H24.532C24.796 0.799998 25.012 0.895998 25.18 1.088C25.372 1.256 25.468 1.472 25.468 1.736V25.1C25.468 25.364 25.372 25.58 25.18 25.748C25.012 25.916 24.796 26 24.532 26H19.96C19.72 26 19.504 25.916 19.312 25.748C19.144 25.556 19.06 25.34 19.06 25.1V11.996L15.172 19.124C14.86 19.676 14.44 19.952 13.912 19.952H11.968C11.488 19.952 11.068 19.676 10.708 19.124L6.856 11.996V25.1C6.856 25.364 6.76 25.58 6.568 25.748C6.4 25.916 6.184 26 5.92 26H1.384ZM40.806 26.36C37.398 26.36 34.71 25.532 32.742 23.876C30.774 22.22 29.73 19.784 29.61 16.568C29.586 15.896 29.574 14.864 29.574 13.472C29.574 12.08 29.586 11.036 29.61 10.34C29.706 7.172 30.75 4.736 32.742 3.032C34.758 1.304 37.446 0.439999 40.806 0.439999C44.142 0.439999 46.806 1.304 48.798 3.032C50.814 4.736 51.87 7.172 51.966 10.34C52.014 11.732 52.038 12.776 52.038 13.472C52.038 14.192 52.014 15.224 51.966 16.568C51.846 19.784 50.802 22.22 48.834 23.876C46.89 25.532 44.214 26.36 40.806 26.36ZM40.806 20.96C42.054 20.96 43.05 20.588 43.794 19.844C44.538 19.076 44.934 17.912 44.982 16.352C45.03 14.96 45.054 13.964 45.054 13.364C45.054 12.764 45.03 11.792 44.982 10.448C44.934 8.888 44.538 7.736 43.794 6.992C43.05 6.224 42.054 5.84 40.806 5.84C39.534 5.84 38.526 6.224 37.782 6.992C37.038 7.736 36.642 8.888 36.594 10.448C36.57 11.12 36.558 12.092 36.558 13.364C36.558 14.66 36.57 15.656 36.594 16.352C36.642 17.912 37.038 19.076 37.782 19.844C38.526 20.588 39.534 20.96 40.806 20.96ZM66.5403 26.36C63.1083 26.36 60.4083 25.532 58.4403 23.876C56.4963 22.22 55.4643 19.796 55.3443 16.604C55.3203 15.956 55.3083 14.9 55.3083 13.436C55.3083 11.948 55.3203 10.868 55.3443 10.196C55.4643 7.076 56.5083 4.676 58.4763 2.996C60.4683 1.292 63.1563 0.439999 66.5403 0.439999C68.6763 0.439999 70.5843 0.787998 72.2643 1.484C73.9683 2.18 75.3123 3.188 76.2963 4.508C77.2803 5.828 77.7963 7.388 77.8443 9.188C77.8443 9.404 77.7603 9.584 77.5923 9.728C77.4483 9.872 77.2683 9.944 77.0523 9.944H71.9403C71.6043 9.944 71.3523 9.884 71.1843 9.764C71.0403 9.62 70.9083 9.368 70.7883 9.008C70.4523 7.832 69.9363 7.016 69.2403 6.56C68.5683 6.08 67.6683 5.84 66.5403 5.84C63.8283 5.84 62.4243 7.352 62.3283 10.376C62.3043 11.024 62.2923 12.02 62.2923 13.364C62.2923 14.708 62.3043 15.728 62.3283 16.424C62.4243 19.448 63.8283 20.96 66.5403 20.96C67.6443 20.96 68.5443 20.72 69.2403 20.24C69.9603 19.76 70.4763 18.944 70.7883 17.792C70.8843 17.432 71.0163 17.192 71.1843 17.072C71.3523 16.928 71.6043 16.856 71.9403 16.856H77.0523C77.2683 16.856 77.4483 16.928 77.5923 17.072C77.7603 17.216 77.8443 17.396 77.8443 17.612C77.7963 19.412 77.2803 20.972 76.2963 22.292C75.3123 23.612 73.9683 24.62 72.2643 25.316C70.5843 26.012 68.6763 26.36 66.5403 26.36ZM103.622 24.776C103.694 24.872 103.73 25.004 103.73 25.172C103.73 25.412 103.646 25.616 103.478 25.784C103.334 25.928 103.154 26 102.938 26H97.2503C96.6743 26 96.2543 25.76 95.9903 25.28L90.6263 16.28H88.2863V25.1C88.2863 25.364 88.1903 25.58 87.9983 25.748C87.8303 25.916 87.6143 26 87.3503 26H82.4183C82.1543 26 81.9383 25.916 81.7703 25.748C81.6023 25.58 81.5183 25.364 81.5183 25.1V1.736C81.5183 1.472 81.6023 1.256 81.7703 1.088C81.9383 0.895998 82.1543 0.799998 82.4183 0.799998H87.3503C87.6143 0.799998 87.8303 0.895998 87.9983 1.088C88.1903 1.256 88.2863 1.472 88.2863 1.736V10.268H90.3023L95.4863 1.52C95.7983 1.04 96.2543 0.799998 96.8543 0.799998H102.362C102.578 0.799998 102.758 0.871999 102.902 1.016C103.046 1.16 103.118 1.34 103.118 1.556C103.118 1.724 103.07 1.868 102.974 1.988L96.3143 12.932L103.622 24.776ZM107.871 26C107.631 26 107.415 25.916 107.223 25.748C107.055 25.556 106.971 25.34 106.971 25.1V1.736C106.971 1.472 107.055 1.256 107.223 1.088C107.391 0.895998 107.607 0.799998 107.871 0.799998H118.995C122.043 0.799998 124.311 1.424 125.799 2.672C127.287 3.92 128.031 5.696 128.031 8C128.031 9.152 127.719 10.148 127.095 10.988C126.495 11.828 125.823 12.44 125.079 12.824C126.063 13.256 126.891 13.976 127.563 14.984C128.235 15.968 128.571 17.084 128.571 18.332C128.571 20.756 127.767 22.64 126.159 23.984C124.575 25.328 122.295 26 119.319 26H107.871ZM118.239 10.772C119.127 10.772 119.811 10.532 120.291 10.052C120.771 9.572 121.011 8.948 121.011 8.18C121.011 7.436 120.771 6.836 120.291 6.38C119.835 5.9 119.151 5.66 118.239 5.66H113.739V10.772H118.239ZM118.563 21.14C119.499 21.14 120.219 20.876 120.723 20.348C121.251 19.796 121.515 19.124 121.515 18.332C121.515 17.516 121.251 16.844 120.723 16.316C120.195 15.764 119.475 15.488 118.563 15.488H113.739V21.14H118.563ZM131.021 26C130.829 26 130.649 25.928 130.481 25.784C130.337 25.616 130.265 25.436 130.265 25.244C130.265 25.1 130.277 24.992 130.301 24.92L138.689 1.844C138.929 1.148 139.409 0.799998 140.129 0.799998H145.745C146.465 0.799998 146.945 1.148 147.185 1.844L155.573 24.92C155.597 24.992 155.609 25.1 155.609 25.244C155.609 25.436 155.525 25.616 155.357 25.784C155.213 25.928 155.045 26 154.853 26H150.173C149.597 26 149.189 25.736 148.949 25.208L147.653 21.716H138.221L136.925 25.208C136.685 25.736 136.277 26 135.701 26H131.021ZM139.733 16.316H146.141L142.937 7.136L139.733 16.316Z" fill="#E42538"/>
</svg>
