<svg width="130" height="40" viewBox="0 0 130 40" fill="none" xmlns="http://www.w3.org/2000/svg">
<path d="M46.508 18C46.4213 18 46.352 17.974 46.3 17.922C46.248 17.87 46.222 17.8007 46.222 17.714V9.199C46.222 9.11233 46.248 9.043 46.3 8.991C46.352 8.93033 46.4213 8.9 46.508 8.9H46.742C46.8373 8.9 46.911 8.926 46.963 8.978C47.015 9.03 47.041 9.10367 47.041 9.199V12.995H52.059V9.199C52.059 9.11233 52.085 9.043 52.137 8.991C52.189 8.93033 52.2583 8.9 52.345 8.9H52.579C52.6743 8.9 52.748 8.926 52.8 8.978C52.852 9.03 52.878 9.10367 52.878 9.199V17.714C52.878 17.8007 52.8477 17.87 52.787 17.922C52.735 17.974 52.6657 18 52.579 18H52.345C52.2583 18 52.189 17.974 52.137 17.922C52.085 17.87 52.059 17.8007 52.059 17.714V13.775H47.041V17.714C47.041 17.8007 47.0107 17.87 46.95 17.922C46.898 17.974 46.8287 18 46.742 18H46.508ZM56.9755 18.13C56.5595 18.13 56.1739 18.0433 55.8185 17.87C55.4632 17.6967 55.1772 17.4627 54.9605 17.168C54.7525 16.8733 54.6485 16.5483 54.6485 16.193C54.6485 15.621 54.8782 15.153 55.3375 14.789C55.8055 14.425 56.4339 14.191 57.2225 14.087L59.2765 13.801V13.346C59.2765 12.8693 59.1292 12.5053 58.8345 12.254C58.5485 11.994 58.1065 11.864 57.5085 11.864C57.0665 11.864 56.7025 11.9507 56.4165 12.124C56.1392 12.2973 55.9615 12.5053 55.8835 12.748C55.8489 12.852 55.8055 12.9257 55.7535 12.969C55.7102 13.0037 55.6495 13.021 55.5715 13.021H55.3895C55.3115 13.021 55.2422 12.995 55.1815 12.943C55.1295 12.8823 55.1035 12.813 55.1035 12.735C55.1035 12.5443 55.1902 12.3233 55.3635 12.072C55.5369 11.812 55.8055 11.5867 56.1695 11.396C56.5335 11.2053 56.9799 11.11 57.5085 11.11C58.4359 11.11 59.0945 11.331 59.4845 11.773C59.8745 12.215 60.0695 12.7523 60.0695 13.385V17.714C60.0695 17.8007 60.0435 17.87 59.9915 17.922C59.9395 17.974 59.8702 18 59.7835 18H59.5625C59.4759 18 59.4065 17.974 59.3545 17.922C59.3025 17.87 59.2765 17.8007 59.2765 17.714V17.103C59.0859 17.389 58.8042 17.6317 58.4315 17.831C58.0675 18.0303 57.5822 18.13 56.9755 18.13ZM57.1055 17.376C57.7382 17.376 58.2582 17.168 58.6655 16.752C59.0729 16.336 59.2765 15.738 59.2765 14.958V14.516L57.5995 14.75C56.8889 14.8453 56.3515 15.01 55.9875 15.244C55.6235 15.478 55.4415 15.7727 55.4415 16.128C55.4415 16.5267 55.6062 16.8343 55.9355 17.051C56.2735 17.2677 56.6635 17.376 57.1055 17.376ZM62.4113 18C62.3246 18 62.2553 17.974 62.2033 17.922C62.1513 17.87 62.1253 17.8007 62.1253 17.714V11.526C62.1253 11.4393 62.1513 11.37 62.2033 11.318C62.2553 11.266 62.3246 11.24 62.4113 11.24H67.2213C67.3079 11.24 67.3773 11.266 67.4293 11.318C67.4813 11.37 67.5073 11.4393 67.5073 11.526V17.714C67.5073 17.8007 67.4813 17.87 67.4293 17.922C67.3773 17.974 67.3079 18 67.2213 18H67.0003C66.9136 18 66.8443 17.974 66.7923 17.922C66.7403 17.87 66.7143 17.8007 66.7143 17.714V11.994H62.9183V17.714C62.9183 17.8007 62.8923 17.87 62.8403 17.922C62.7883 17.974 62.7189 18 62.6323 18H62.4113ZM74.9975 11.24C75.0668 11.24 75.1275 11.266 75.1795 11.318C75.2315 11.37 75.2575 11.4263 75.2575 11.487V17.714C75.2575 17.8007 75.2315 17.87 75.1795 17.922C75.1275 17.974 75.0582 18 74.9715 18H74.7505C74.6638 18 74.5945 17.974 74.5425 17.922C74.4905 17.87 74.4645 17.8007 74.4645 17.714V12.566L70.4605 17.805C70.3652 17.935 70.2525 18 70.1225 18H69.8755C69.8062 18 69.7455 17.974 69.6935 17.922C69.6415 17.87 69.6155 17.8093 69.6155 17.74V11.526C69.6155 11.4393 69.6415 11.37 69.6935 11.318C69.7455 11.266 69.8148 11.24 69.9015 11.24H70.1225C70.2092 11.24 70.2785 11.266 70.3305 11.318C70.3825 11.37 70.4085 11.4393 70.4085 11.526V16.674L74.4125 11.435C74.5078 11.305 74.6205 11.24 74.7505 11.24H74.9975ZM79.9206 18.13C79.0193 18.13 78.3216 17.87 77.8276 17.35C77.3336 16.8213 77.0736 16.0847 77.0476 15.14L77.0346 14.62L77.0476 14.1C77.0736 13.1553 77.3336 12.423 77.8276 11.903C78.3216 11.3743 79.0193 11.11 79.9206 11.11C80.4926 11.11 80.978 11.214 81.3766 11.422C81.784 11.6213 82.0873 11.8813 82.2866 12.202C82.486 12.514 82.5943 12.839 82.6116 13.177C82.6203 13.255 82.5943 13.3243 82.5336 13.385C82.473 13.437 82.4036 13.463 82.3256 13.463H82.1436C82.057 13.463 81.992 13.4457 81.9486 13.411C81.914 13.3677 81.875 13.294 81.8316 13.19C81.6583 12.7133 81.4156 12.3753 81.1036 12.176C80.7916 11.968 80.3973 11.864 79.9206 11.864C79.2966 11.864 78.7983 12.0547 78.4256 12.436C78.0616 12.8087 77.8666 13.385 77.8406 14.165L77.8276 14.62L77.8406 15.075C77.8666 15.855 78.0616 16.4357 78.4256 16.817C78.7983 17.1897 79.2966 17.376 79.9206 17.376C80.3973 17.376 80.7916 17.2763 81.1036 17.077C81.4156 16.869 81.6583 16.5267 81.8316 16.05C81.875 15.946 81.914 15.8767 81.9486 15.842C81.992 15.7987 82.057 15.777 82.1436 15.777H82.3256C82.4036 15.777 82.473 15.8073 82.5336 15.868C82.5943 15.92 82.6203 15.985 82.6116 16.063C82.5943 16.401 82.486 16.7303 82.2866 17.051C82.0873 17.363 81.784 17.623 81.3766 17.831C80.978 18.0303 80.4926 18.13 79.9206 18.13ZM86.1494 18.13C85.7334 18.13 85.3477 18.0433 84.9924 17.87C84.637 17.6967 84.351 17.4627 84.1344 17.168C83.9264 16.8733 83.8224 16.5483 83.8224 16.193C83.8224 15.621 84.052 15.153 84.5114 14.789C84.9794 14.425 85.6077 14.191 86.3964 14.087L88.4504 13.801V13.346C88.4504 12.8693 88.303 12.5053 88.0084 12.254C87.7224 11.994 87.2804 11.864 86.6824 11.864C86.2404 11.864 85.8764 11.9507 85.5904 12.124C85.313 12.2973 85.1354 12.5053 85.0574 12.748C85.0227 12.852 84.9794 12.9257 84.9274 12.969C84.884 13.0037 84.8234 13.021 84.7454 13.021H84.5634C84.4854 13.021 84.416 12.995 84.3554 12.943C84.3034 12.8823 84.2774 12.813 84.2774 12.735C84.2774 12.5443 84.364 12.3233 84.5374 12.072C84.7107 11.812 84.9794 11.5867 85.3434 11.396C85.7074 11.2053 86.1537 11.11 86.6824 11.11C87.6097 11.11 88.2684 11.331 88.6584 11.773C89.0484 12.215 89.2434 12.7523 89.2434 13.385V17.714C89.2434 17.8007 89.2174 17.87 89.1654 17.922C89.1134 17.974 89.044 18 88.9574 18H88.7364C88.6497 18 88.5804 17.974 88.5284 17.922C88.4764 17.87 88.4504 17.8007 88.4504 17.714V17.103C88.2597 17.389 87.978 17.6317 87.6054 17.831C87.2414 18.0303 86.756 18.13 86.1494 18.13ZM86.2794 17.376C86.912 17.376 87.432 17.168 87.8394 16.752C88.2467 16.336 88.4504 15.738 88.4504 14.958V14.516L86.7734 14.75C86.0627 14.8453 85.5254 15.01 85.1614 15.244C84.7974 15.478 84.6154 15.7727 84.6154 16.128C84.6154 16.5267 84.78 16.8343 85.1094 17.051C85.4474 17.2677 85.8374 17.376 86.2794 17.376ZM93.3661 18C93.2794 18 93.2101 17.974 93.1581 17.922C93.1061 17.87 93.0801 17.8007 93.0801 17.714V11.994H90.7011C90.6144 11.994 90.5451 11.968 90.4931 11.916C90.4411 11.864 90.4151 11.7947 90.4151 11.708V11.526C90.4151 11.4393 90.4411 11.37 90.4931 11.318C90.5451 11.266 90.6144 11.24 90.7011 11.24H96.2521C96.3388 11.24 96.4081 11.266 96.4601 11.318C96.5121 11.37 96.5381 11.4393 96.5381 11.526V11.708C96.5381 11.7947 96.5121 11.864 96.4601 11.916C96.4081 11.968 96.3388 11.994 96.2521 11.994H93.8731V17.714C93.8731 17.8007 93.8471 17.87 93.7951 17.922C93.7431 17.974 93.6738 18 93.5871 18H93.3661ZM98.047 18C97.9603 18 97.891 17.974 97.839 17.922C97.787 17.87 97.761 17.8007 97.761 17.714V11.526C97.761 11.4393 97.787 11.37 97.839 11.318C97.891 11.266 97.9603 11.24 98.047 11.24H98.268C98.3547 11.24 98.424 11.266 98.476 11.318C98.528 11.37 98.554 11.4393 98.554 11.526V13.502H100.114C101.752 13.502 102.571 14.269 102.571 15.803C102.571 16.5657 102.354 17.1247 101.921 17.48C101.496 17.8267 100.829 18 99.919 18H98.047ZM100.036 17.246C100.651 17.246 101.093 17.1377 101.362 16.921C101.639 16.7043 101.778 16.3317 101.778 15.803C101.778 15.2743 101.639 14.8843 101.362 14.633C101.093 14.3817 100.651 14.256 100.036 14.256H98.554V17.246H100.036ZM107.581 18C107.495 18 107.425 17.974 107.373 17.922C107.321 17.87 107.295 17.8007 107.295 17.714V11.526C107.295 11.4393 107.321 11.37 107.373 11.318C107.425 11.266 107.495 11.24 107.581 11.24H107.802C107.889 11.24 107.958 11.266 108.01 11.318C108.062 11.37 108.088 11.4393 108.088 11.526V14.165H112.144V11.526C112.144 11.4393 112.17 11.37 112.222 11.318C112.274 11.266 112.344 11.24 112.43 11.24H112.651C112.738 11.24 112.807 11.266 112.859 11.318C112.911 11.37 112.937 11.4393 112.937 11.526V17.714C112.937 17.8007 112.911 17.87 112.859 17.922C112.807 17.974 112.738 18 112.651 18H112.43C112.344 18 112.274 17.974 112.222 17.922C112.17 17.87 112.144 17.8007 112.144 17.714V14.919H108.088V17.714C108.088 17.8007 108.062 17.87 108.01 17.922C107.958 17.974 107.889 18 107.802 18H107.581ZM116.859 18.13C116.443 18.13 116.058 18.0433 115.702 17.87C115.347 17.6967 115.061 17.4627 114.844 17.168C114.636 16.8733 114.532 16.5483 114.532 16.193C114.532 15.621 114.762 15.153 115.221 14.789C115.689 14.425 116.318 14.191 117.106 14.087L119.16 13.801V13.346C119.16 12.8693 119.013 12.5053 118.718 12.254C118.432 11.994 117.99 11.864 117.392 11.864C116.95 11.864 116.586 11.9507 116.3 12.124C116.023 12.2973 115.845 12.5053 115.767 12.748C115.733 12.852 115.689 12.9257 115.637 12.969C115.594 13.0037 115.533 13.021 115.455 13.021H115.273C115.195 13.021 115.126 12.995 115.065 12.943C115.013 12.8823 114.987 12.813 114.987 12.735C114.987 12.5443 115.074 12.3233 115.247 12.072C115.421 11.812 115.689 11.5867 116.053 11.396C116.417 11.2053 116.864 11.11 117.392 11.11C118.32 11.11 118.978 11.331 119.368 11.773C119.758 12.215 119.953 12.7523 119.953 13.385V17.714C119.953 17.8007 119.927 17.87 119.875 17.922C119.823 17.974 119.754 18 119.667 18H119.446C119.36 18 119.29 17.974 119.238 17.922C119.186 17.87 119.16 17.8007 119.16 17.714V17.103C118.97 17.389 118.688 17.6317 118.315 17.831C117.951 18.0303 117.466 18.13 116.859 18.13ZM116.989 17.376C117.622 17.376 118.142 17.168 118.549 16.752C118.957 16.336 119.16 15.738 119.16 14.958V14.516L117.483 14.75C116.773 14.8453 116.235 15.01 115.871 15.244C115.507 15.478 115.325 15.7727 115.325 16.128C115.325 16.5267 115.49 16.8343 115.819 17.051C116.157 17.2677 116.547 17.376 116.989 17.376ZM128.275 11.24C128.344 11.24 128.405 11.266 128.457 11.318C128.509 11.37 128.535 11.4263 128.535 11.487V17.714C128.535 17.8007 128.509 17.87 128.457 17.922C128.405 17.974 128.336 18 128.249 18H128.028C127.941 18 127.872 17.974 127.82 17.922C127.768 17.87 127.742 17.8007 127.742 17.714V12.852L125.844 16.531C125.775 16.6523 125.71 16.7433 125.649 16.804C125.597 16.8647 125.515 16.895 125.402 16.895H125.142C125.029 16.895 124.943 16.8647 124.882 16.804C124.83 16.7433 124.769 16.6523 124.7 16.531L122.802 12.956V17.714C122.802 17.8007 122.776 17.87 122.724 17.922C122.672 17.974 122.603 18 122.516 18H122.295C122.208 18 122.139 17.974 122.087 17.922C122.035 17.87 122.009 17.8007 122.009 17.714V11.487C122.009 11.4263 122.035 11.37 122.087 11.318C122.139 11.266 122.2 11.24 122.269 11.24H122.568C122.698 11.24 122.798 11.305 122.867 11.435L125.272 15.985L127.677 11.435C127.746 11.305 127.846 11.24 127.976 11.24H128.275ZM46.339 34C46.2523 34 46.183 33.974 46.131 33.922C46.079 33.87 46.053 33.8007 46.053 33.714V27.526C46.053 27.4393 46.079 27.37 46.131 27.318C46.183 27.266 46.2523 27.24 46.339 27.24H48.9C49.602 27.24 50.148 27.4003 50.538 27.721C50.9367 28.0417 51.136 28.4707 51.136 29.008C51.136 29.398 51.0623 29.697 50.915 29.905C50.7763 30.113 50.5467 30.2907 50.226 30.438C50.5553 30.5593 50.811 30.7803 50.993 31.101C51.175 31.4217 51.266 31.7597 51.266 32.115C51.266 32.7217 51.058 33.1897 50.642 33.519C50.2347 33.8397 49.6757 34 48.965 34H46.339ZM48.77 30.217C49.2467 30.217 49.628 30.1087 49.914 29.892C50.2 29.6753 50.343 29.3807 50.343 29.008C50.343 28.644 50.2043 28.384 49.927 28.228C49.6583 28.072 49.2727 27.994 48.77 27.994H46.846V30.217H48.77ZM48.861 33.246C49.355 33.246 49.745 33.1507 50.031 32.96C50.3257 32.7607 50.473 32.479 50.473 32.115C50.473 31.725 50.3387 31.439 50.07 31.257C49.81 31.0663 49.407 30.971 48.861 30.971H46.846V33.246H48.861ZM57.9386 34C57.8346 34 57.7522 33.9783 57.6916 33.935C57.6396 33.883 57.6006 33.8007 57.5746 33.688L55.7936 25.316L55.7676 25.16C55.7676 25.0907 55.7936 25.03 55.8456 24.978C55.8976 24.926 55.9582 24.9 56.0276 24.9H56.3006C56.4652 24.9 56.5606 24.965 56.5866 25.095L58.1076 32.505L59.7196 27.214C59.7889 27.0147 59.9232 26.915 60.1226 26.915H60.4086C60.6079 26.915 60.7422 27.0147 60.8116 27.214L62.4236 32.505L63.9446 25.095C63.9706 24.965 64.0659 24.9 64.2306 24.9H64.5036C64.5729 24.9 64.6336 24.926 64.6856 24.978C64.7376 25.03 64.7636 25.0907 64.7636 25.16L64.7376 25.316L62.9566 33.688C62.9306 33.8007 62.8872 33.883 62.8266 33.935C62.7746 33.9783 62.6966 34 62.5926 34H62.3976C62.1982 34 62.0639 33.896 61.9946 33.688L60.2656 28.202L58.5366 33.688C58.4759 33.896 58.3416 34 58.1336 34H57.9386ZM66.7407 34C66.654 34 66.5847 33.974 66.5327 33.922C66.4807 33.87 66.4547 33.8007 66.4547 33.714V25.056C66.4547 24.9693 66.4807 24.9 66.5327 24.848C66.5847 24.796 66.654 24.77 66.7407 24.77H66.9617C67.0483 24.77 67.1177 24.796 67.1697 24.848C67.2217 24.9 67.2477 24.9693 67.2477 25.056V28.137C67.5077 27.799 67.8023 27.5433 68.1317 27.37C68.4697 27.1967 68.903 27.11 69.4317 27.11C70.281 27.11 70.9353 27.383 71.3947 27.929C71.854 28.4663 72.0837 29.164 72.0837 30.022V33.714C72.0837 33.8007 72.0577 33.87 72.0057 33.922C71.9537 33.974 71.8843 34 71.7977 34H71.5767C71.49 34 71.4207 33.974 71.3687 33.922C71.3167 33.87 71.2907 33.8007 71.2907 33.714V30.087C71.2907 29.385 71.1173 28.839 70.7707 28.449C70.4327 28.059 69.943 27.864 69.3017 27.864C68.6777 27.864 68.1793 28.0633 67.8067 28.462C67.434 28.852 67.2477 29.3937 67.2477 30.087V33.714C67.2477 33.8007 67.2217 33.87 67.1697 33.922C67.1177 33.974 67.0483 34 66.9617 34H66.7407ZM75.9423 34.13C75.5263 34.13 75.1407 34.0433 74.7853 33.87C74.43 33.6967 74.144 33.4627 73.9273 33.168C73.7193 32.8733 73.6153 32.5483 73.6153 32.193C73.6153 31.621 73.845 31.153 74.3043 30.789C74.7723 30.425 75.4007 30.191 76.1893 30.087L78.2433 29.801V29.346C78.2433 28.8693 78.096 28.5053 77.8013 28.254C77.5153 27.994 77.0733 27.864 76.4753 27.864C76.0333 27.864 75.6693 27.9507 75.3833 28.124C75.106 28.2973 74.9283 28.5053 74.8503 28.748C74.8157 28.852 74.7723 28.9257 74.7203 28.969C74.677 29.0037 74.6163 29.021 74.5383 29.021H74.3563C74.2783 29.021 74.209 28.995 74.1483 28.943C74.0963 28.8823 74.0703 28.813 74.0703 28.735C74.0703 28.5443 74.157 28.3233 74.3303 28.072C74.5037 27.812 74.7723 27.5867 75.1363 27.396C75.5003 27.2053 75.9467 27.11 76.4753 27.11C77.4027 27.11 78.0613 27.331 78.4513 27.773C78.8413 28.215 79.0363 28.7523 79.0363 29.385V33.714C79.0363 33.8007 79.0103 33.87 78.9583 33.922C78.9063 33.974 78.837 34 78.7503 34H78.5293C78.4427 34 78.3733 33.974 78.3213 33.922C78.2693 33.87 78.2433 33.8007 78.2433 33.714V33.103C78.0527 33.389 77.771 33.6317 77.3983 33.831C77.0343 34.0303 76.549 34.13 75.9423 34.13ZM76.0723 33.376C76.705 33.376 77.225 33.168 77.6323 32.752C78.0397 32.336 78.2433 31.738 78.2433 30.958V30.516L76.5663 30.75C75.8557 30.8453 75.3183 31.01 74.9543 31.244C74.5903 31.478 74.4083 31.7727 74.4083 32.128C74.4083 32.5267 74.573 32.8343 74.9023 33.051C75.2403 33.2677 75.6303 33.376 76.0723 33.376ZM83.3036 34C82.6623 34 82.2073 33.8093 81.9386 33.428C81.6699 33.038 81.5356 32.505 81.5356 31.829V27.994H80.5216C80.4349 27.994 80.3656 27.968 80.3136 27.916C80.2616 27.864 80.2356 27.7947 80.2356 27.708V27.526C80.2356 27.4393 80.2616 27.37 80.3136 27.318C80.3656 27.266 80.4349 27.24 80.5216 27.24H81.5356V25.056C81.5356 24.9693 81.5616 24.9 81.6136 24.848C81.6656 24.796 81.7349 24.77 81.8216 24.77H82.0426C82.1293 24.77 82.1986 24.796 82.2506 24.848C82.3026 24.9 82.3286 24.9693 82.3286 25.056V27.24H83.9406C84.0273 27.24 84.0966 27.266 84.1486 27.318C84.2006 27.37 84.2266 27.4393 84.2266 27.526V27.708C84.2266 27.7947 84.2006 27.864 84.1486 27.916C84.0966 27.968 84.0273 27.994 83.9406 27.994H82.3286V31.777C82.3286 32.2623 82.4066 32.6307 82.5626 32.882C82.7273 33.1247 82.9959 33.246 83.3686 33.246H84.0706C84.1573 33.246 84.2266 33.272 84.2786 33.324C84.3306 33.376 84.3566 33.4453 84.3566 33.532V33.714C84.3566 33.8007 84.3306 33.87 84.2786 33.922C84.2266 33.974 84.1573 34 84.0706 34H83.3036ZM87.8455 34.13C87.2821 34.13 86.8055 34.0347 86.4155 33.844C86.0341 33.6533 85.7438 33.4367 85.5445 33.194C85.3538 32.9513 85.2585 32.7563 85.2585 32.609C85.2585 32.531 85.2888 32.4703 85.3495 32.427C85.4101 32.375 85.4751 32.349 85.5445 32.349H85.7395C85.8001 32.349 85.8478 32.362 85.8825 32.388C85.9258 32.4053 85.9735 32.4487 86.0255 32.518C86.2161 32.7867 86.4458 32.999 86.7145 33.155C86.9918 33.3023 87.3688 33.376 87.8455 33.376C88.3828 33.376 88.8161 33.2763 89.1455 33.077C89.4748 32.869 89.6395 32.5743 89.6395 32.193C89.6395 31.959 89.5701 31.7683 89.4315 31.621C89.3015 31.4737 89.0848 31.348 88.7815 31.244C88.4868 31.1313 88.0448 31.0057 87.4555 30.867C86.6841 30.6937 86.1555 30.4553 85.8695 30.152C85.5921 29.8487 85.4535 29.463 85.4535 28.995C85.4535 28.6743 85.5401 28.371 85.7135 28.085C85.8955 27.799 86.1598 27.565 86.5065 27.383C86.8618 27.201 87.2865 27.11 87.7805 27.11C88.3005 27.11 88.7381 27.201 89.0935 27.383C89.4575 27.5563 89.7261 27.76 89.8995 27.994C90.0815 28.228 90.1725 28.4187 90.1725 28.566C90.1725 28.644 90.1421 28.709 90.0815 28.761C90.0295 28.8043 89.9645 28.826 89.8865 28.826H89.6915C89.5701 28.826 89.4748 28.7697 89.4055 28.657C89.2321 28.397 89.0328 28.202 88.8075 28.072C88.5908 27.9333 88.2485 27.864 87.7805 27.864C87.2778 27.864 86.8965 27.968 86.6365 28.176C86.3765 28.384 86.2465 28.657 86.2465 28.995C86.2465 29.203 86.2985 29.3763 86.4025 29.515C86.5065 29.6537 86.7015 29.7837 86.9875 29.905C87.2735 30.0177 87.6895 30.1347 88.2355 30.256C89.0415 30.438 89.6091 30.6807 89.9385 30.984C90.2678 31.2873 90.4325 31.6903 90.4325 32.193C90.4325 32.5483 90.3328 32.8733 90.1335 33.168C89.9341 33.4627 89.6395 33.6967 89.2495 33.87C88.8595 34.0433 88.3915 34.13 87.8455 34.13ZM91.6179 34C91.5486 34 91.4879 33.974 91.4359 33.922C91.3839 33.87 91.3579 33.8093 91.3579 33.74L91.3839 33.597L94.6729 25.16C94.7422 24.9867 94.8679 24.9 95.0499 24.9H95.4919C95.6739 24.9 95.7996 24.9867 95.8689 25.16L99.1579 33.597L99.1839 33.74C99.1839 33.8093 99.1579 33.87 99.1059 33.922C99.0539 33.974 98.9932 34 98.9239 34H98.6639C98.5859 34 98.5209 33.9783 98.4689 33.935C98.4256 33.8917 98.3952 33.8483 98.3779 33.805L97.5719 31.725H92.9699L92.1639 33.805C92.1466 33.8483 92.1119 33.8917 92.0599 33.935C92.0166 33.9783 91.9559 34 91.8779 34H91.6179ZM93.2819 30.945H97.2599L95.2709 25.823L93.2819 30.945ZM100.853 36.47C100.766 36.47 100.697 36.444 100.645 36.392C100.593 36.34 100.567 36.2707 100.567 36.184V27.526C100.567 27.4393 100.593 27.37 100.645 27.318C100.697 27.266 100.766 27.24 100.853 27.24H101.074C101.161 27.24 101.23 27.266 101.282 27.318C101.334 27.37 101.36 27.4393 101.36 27.526V28.137C101.863 27.4523 102.591 27.11 103.544 27.11C104.48 27.11 105.169 27.409 105.611 28.007C106.062 28.5963 106.3 29.3243 106.326 30.191C106.335 30.2777 106.339 30.4207 106.339 30.62C106.339 30.8193 106.335 30.9623 106.326 31.049C106.3 31.9157 106.062 32.648 105.611 33.246C105.169 33.8353 104.48 34.13 103.544 34.13C102.599 34.13 101.871 33.7877 101.36 33.103V36.184C101.36 36.2707 101.334 36.34 101.282 36.392C101.23 36.444 101.161 36.47 101.074 36.47H100.853ZM103.466 33.376C104.168 33.376 104.679 33.155 105 32.713C105.329 32.2623 105.507 31.686 105.533 30.984C105.542 30.8973 105.546 30.776 105.546 30.62C105.546 29.814 105.39 29.1553 105.078 28.644C104.766 28.124 104.229 27.864 103.466 27.864C102.781 27.864 102.266 28.0937 101.919 28.553C101.572 29.0037 101.386 29.5367 101.36 30.152L101.347 30.659L101.36 31.166C101.369 31.5387 101.451 31.894 101.607 32.232C101.763 32.5613 101.997 32.8343 102.309 33.051C102.621 33.2677 103.007 33.376 103.466 33.376ZM108.407 36.47C108.32 36.47 108.251 36.444 108.199 36.392C108.147 36.34 108.121 36.2707 108.121 36.184V27.526C108.121 27.4393 108.147 27.37 108.199 27.318C108.251 27.266 108.32 27.24 108.407 27.24H108.628C108.714 27.24 108.784 27.266 108.836 27.318C108.888 27.37 108.914 27.4393 108.914 27.526V28.137C109.416 27.4523 110.144 27.11 111.098 27.11C112.034 27.11 112.723 27.409 113.165 28.007C113.615 28.5963 113.854 29.3243 113.88 30.191C113.888 30.2777 113.893 30.4207 113.893 30.62C113.893 30.8193 113.888 30.9623 113.88 31.049C113.854 31.9157 113.615 32.648 113.165 33.246C112.723 33.8353 112.034 34.13 111.098 34.13C110.153 34.13 109.425 33.7877 108.914 33.103V36.184C108.914 36.2707 108.888 36.34 108.836 36.392C108.784 36.444 108.714 36.47 108.628 36.47H108.407ZM111.02 33.376C111.722 33.376 112.233 33.155 112.554 32.713C112.883 32.2623 113.061 31.686 113.087 30.984C113.095 30.8973 113.1 30.776 113.1 30.62C113.1 29.814 112.944 29.1553 112.632 28.644C112.32 28.124 111.782 27.864 111.02 27.864C110.335 27.864 109.819 28.0937 109.473 28.553C109.126 29.0037 108.94 29.5367 108.914 30.152L108.901 30.659L108.914 31.166C108.922 31.5387 109.005 31.894 109.161 32.232C109.317 32.5613 109.551 32.8343 109.863 33.051C110.175 33.2677 110.56 33.376 111.02 33.376Z" fill="#0B243C"/>
<path d="M9.90848 34.3258L10.5319 34.6442C13.1298 36.2359 16.0393 36.9787 18.9489 36.9787C28.0931 36.9787 35.5747 29.3383 35.5747 20C35.5747 15.5432 33.8081 11.1923 30.6909 8.00878C27.5735 4.82522 23.4169 3.0213 18.9489 3.0213C9.80465 3.0213 2.32287 10.6617 2.42685 20.1062C2.42685 23.2896 3.36206 26.3671 4.92068 29.0199L5.33629 29.6567L3.67384 35.9177L9.90848 34.3258Z" fill="#00E676"/>
<path d="M32.5122 6.2597C28.9918 2.5887 24.1253 0.595764 19.1553 0.595764C8.5941 0.595764 0.103608 9.30142 0.207067 19.8951C0.207067 23.2515 1.13894 26.5031 2.69217 29.4399L0 39.4043L10.0436 36.7821C12.8392 38.3555 15.9454 39.0897 19.0518 39.0897C29.5095 39.0897 38 30.3839 38 19.7904C38 14.6508 36.0326 9.8259 32.5123 6.2597H32.5122ZM19.1553 35.8382C16.3596 35.8382 13.564 35.1041 11.1825 33.6357L10.5613 33.321L4.55592 34.8942L6.109 28.9157L5.69486 28.2863C1.13894 20.8394 3.31337 10.9796 10.7684 6.3645C18.2234 1.74951 27.8528 3.9522 32.4087 11.5041C36.9645 19.056 34.7901 28.8106 27.3352 33.4258C24.9536 34.999 22.0545 35.8381 19.1553 35.8381V35.8382ZM28.267 24.1958L27.128 23.6713C27.128 23.6713 25.4715 22.9371 24.436 22.4126C24.3324 22.4126 24.2289 22.3077 24.1253 22.3077C23.8146 22.3077 23.6076 22.4126 23.4005 22.5176C23.4005 22.5176 23.297 22.6224 21.8474 24.3006C21.7438 24.5104 21.5368 24.6153 21.3297 24.6153H21.2261C21.1226 24.6153 20.9156 24.5104 20.8119 24.4056L20.2942 24.1958C19.1553 23.6713 18.1199 23.0419 17.2915 22.2029C17.0844 21.9931 16.7738 21.7833 16.5667 21.5736C15.8419 20.8394 15.1171 20.0002 14.5995 19.0562L14.4959 18.8464C14.3924 18.7415 14.3924 18.6367 14.2888 18.4269C14.2888 18.2171 14.2888 18.0074 14.3924 17.9024C14.3924 17.9024 14.8066 17.378 15.1171 17.0634C15.3243 16.8535 15.4278 16.5389 15.6348 16.3292C15.8419 16.0145 15.9455 15.5949 15.8419 15.2802C15.7384 14.7558 14.4959 11.9238 14.1854 11.2945C13.9781 10.9798 13.7712 10.875 13.4605 10.77H12.3216C12.1144 10.77 11.9075 10.875 11.7003 10.875L11.5966 10.9798C11.3896 11.0847 11.1825 11.2945 10.9754 11.3993C10.7684 11.6092 10.6648 11.8188 10.4577 12.0287C9.73289 12.9727 9.31876 14.1265 9.31876 15.2802C9.31876 16.1193 9.52583 16.9584 9.8365 17.6927L9.94011 18.0074C10.872 20.0002 12.1144 21.7833 13.7712 23.3566L14.1854 23.7761C14.4959 24.0908 14.8066 24.3006 15.0136 24.6152C17.1881 26.5033 19.673 27.8668 22.4686 28.601C22.7793 28.7058 23.1934 28.7058 23.5041 28.8108H24.5395C25.0572 28.8108 25.6784 28.601 26.0927 28.3913C26.4032 28.1815 26.6103 28.1815 26.8173 27.9717L27.0246 27.7618C27.2316 27.5521 27.4387 27.4473 27.6458 27.2375C27.8528 27.0278 28.0599 26.818 28.1635 26.6081C28.3706 26.1886 28.474 25.6641 28.5776 25.1398V24.4056C28.5776 24.4056 28.474 24.3006 28.267 24.1958Z" fill="white"/>
</svg>
