<svg width="24" height="16" viewBox="0 0 24 16" fill="none" xmlns="http://www.w3.org/2000/svg">
<g clip-path="url(#clip0)">
<path fill-rule="evenodd" clip-rule="evenodd" d="M4.858 5.14601C4.663 4.95101 4.346 4.95101 4.151 5.14601L0.151005 9.14601L0.139005 9.15901L0.106005 9.19801L0.151005 9.14601C0.124005 9.17301 0.101005 9.20201 0.0810049 9.23301L0.0610049 9.26801L0.0420049 9.30901L0.0360049 9.32601L0.0290049 9.34401L0.0210049 9.37401L0.0160049 9.39501C0.0130049 9.40501 0.0110049 9.41701 0.0100049 9.42801C0.00700494 9.44501 0.00600488 9.46301 0.00500488 9.48001V9.52001C0.00500488 9.53801 0.00700494 9.55501 0.0100049 9.57201L0.00500488 9.50001C0.00500488 9.53601 0.00800493 9.57101 0.0150049 9.60501L0.0210049 9.62701L0.0290049 9.65601L0.0420049 9.69101C0.0480049 9.70501 0.0540049 9.71801 0.0620049 9.73101C0.0680049 9.74401 0.0750049 9.75601 0.0820049 9.76701L0.0930049 9.78401L0.106005 9.80201C0.116005 9.81601 0.128005 9.82901 0.139005 9.84201L0.151005 9.85401L4.151 13.854C4.346 14.049 4.663 14.049 4.858 13.854C5.032 13.68 5.05101 13.411 4.91601 13.216L4.858 13.146L1.713 10H23.505C23.781 10 24.005 9.77601 24.005 9.50001C24.005 9.25501 23.828 9.05001 23.595 9.00801L23.505 9.00001H1.712L4.858 5.85401L4.91601 5.78401C5.05101 5.58901 5.032 5.32001 4.858 5.14601Z" fill="white"/>
</g>
<defs>
<clipPath id="clip0">
<rect width="24" height="16" fill="white"/>
</clipPath>
</defs>
</svg>
