<svg width="48" height="48" viewBox="0 0 48 48" fill="none" xmlns="http://www.w3.org/2000/svg">
<path fill-rule="evenodd" clip-rule="evenodd" d="M0 48H47.9975V0H0V48ZM1.14339 46.8576H46.8541V1.14244H1.14339V46.8526V46.8576Z" fill="white"/>
<path fill-rule="evenodd" clip-rule="evenodd" d="M27.6301 41.8581C27.906 40.2364 27.9781 38.6195 27.8538 37.035L27.8762 37.0301C32.1764 35.7684 33.5111 34.9389 33.5111 34.9389L33.0886 33.0092L32.6611 31.0844C32.6611 31.0844 31.105 30.8956 26.6707 31.5488L26.6508 31.5588C26.0791 30.0189 25.326 28.5834 24.4286 27.2696L24.4485 27.2522C27.5382 24.0062 28.2839 22.6278 28.2839 22.6278L26.9491 21.165L25.6193 19.7096C25.6193 19.7096 24.1776 20.3231 20.6604 23.1121L20.648 23.132C19.3803 22.0839 18.0132 21.2122 16.579 20.5267L16.584 20.5044C17.6429 16.1457 17.5981 14.5761 17.5981 14.5761L15.7165 13.98L13.8349 13.384C13.8349 13.384 12.8928 14.6357 11.2399 18.8081V18.8329C9.61928 18.5573 8.00113 18.4852 6.41282 18.6069L6.40536 18.5895C5.14266 14.2855 4.31743 12.9518 4.31743 12.9518L2.39107 13.374L1.14328 13.6472L0.462222 13.7962C0.462222 13.7962 0.273314 15.3559 0.932005 19.7941L0.936977 19.8139C0.618816 19.9307 0.308113 20.0623 0.00238037 20.1964V27.143C0.370253 26.8847 0.750555 26.6512 1.14577 26.4277C3.32567 25.2033 5.86349 24.5526 8.55294 24.6768C16.2087 25.0245 22.1394 31.514 21.7889 39.1709C21.6572 42.0618 20.6505 44.7093 19.0398 46.8576C18.7415 47.2599 18.4184 47.6399 18.0804 48H31.9526L32.3155 46.8576L32.4846 46.336L33.0811 44.4584C33.0811 44.4584 31.8234 43.5122 27.6575 41.8606H27.6301V41.8581ZM46.854 18.0804C46.6477 18.1301 46.4414 18.1773 46.2326 18.2195C39.6258 19.5184 33.2153 15.2144 31.9154 8.60558C31.3959 5.98293 31.7662 3.39753 32.8102 1.14244C32.9916 0.752522 33.193 0.372536 33.4142 0H27.4835C27.3368 0.377503 27.2101 0.759973 27.0883 1.14244C26.9416 1.63419 26.8074 2.12594 26.7005 2.62265L26.6856 2.62017C22.7484 2.62762 21.421 2.9927 21.421 2.9927L21.2992 4.72375L21.1824 6.45232C21.1824 6.45232 22.4501 6.99871 26.3525 7.53516H26.3724C26.4743 8.97066 26.7527 10.3664 27.1852 11.6951L27.1678 11.7051C23.7625 13.682 22.7981 14.6655 22.7981 14.6655L23.5612 16.2202L24.3267 17.7749C24.3267 17.7749 25.6938 17.6135 29.3403 16.1308L29.3502 16.1159C30.163 17.3105 31.1026 18.3809 32.144 19.3147L32.1341 19.3296C30.1705 22.747 29.8225 24.0758 29.8225 24.0758L31.2641 25.0443L32.7008 26.0129C32.7008 26.0129 33.8069 25.1884 36.2254 22.0765L36.2329 22.0566C37.5304 22.6874 38.8801 23.1444 40.2422 23.4325V23.4524C40.2497 27.3888 40.6175 28.7175 40.6175 28.7175L42.3525 28.8368L44.08 28.9535C44.08 28.9535 44.6219 27.6869 45.1613 23.7827V23.7653C45.733 23.7231 46.2972 23.6461 46.8565 23.5517C47.2417 23.4871 47.6245 23.4102 47.9999 23.3183V17.7327C47.627 17.8643 47.2467 17.9811 46.8565 18.0804" fill="white"/>
</svg>
