<svg width="48" height="48" viewBox="0 0 48 48" fill="none" xmlns="http://www.w3.org/2000/svg">
<g clip-path="url(#clip0)">
<path fill-rule="evenodd" clip-rule="evenodd" d="M0 48H48V0H0V48ZM1.14345 46.8576H46.8566V1.14244H1.14345V46.8526V46.8576Z" fill="white"/>
<path fill-rule="evenodd" clip-rule="evenodd" d="M34.8337 39.9711C37.9064 41.9645 40.2973 44.7564 41.7321 48H6.26953C7.60998 44.9698 9.78841 42.326 12.5909 40.3605C15.7968 38.1121 19.6592 36.8641 23.6467 36.7941C27.6342 36.7242 31.5426 37.836 34.8337 39.9711ZM9.66314 44.6345C11.7132 42.0651 14.4697 40.106 17.6112 38.9677V38.9493L18.3081 38.7277C21.9871 37.5574 25.9622 37.5522 29.6446 38.7126C33.3274 39.8731 36.5279 42.1402 38.7644 45.1856L38.7685 45.1911L40.0382 46.9455H7.89821L9.65649 44.6428L9.66314 44.6345Z" fill="white"/>
<path fill-rule="evenodd" clip-rule="evenodd" d="M24 16.4C25.2167 16.4 26.5544 16.7832 27.5783 17.733C28.5825 18.6644 29.4 20.2477 29.4 22.8837C29.4 25.8922 28.7139 27.9328 27.7351 29.1979C26.777 30.4362 25.4762 31.0168 24 31.0168C22.5238 31.0168 21.223 30.4362 20.2649 29.1979C19.2861 27.9328 18.6 25.8922 18.6 22.8837C18.6 20.2477 19.4175 18.6644 20.4217 17.733C21.4456 16.7832 22.7833 16.4 24 16.4ZM20.902 18.8335C21.699 17.8346 22.8231 17.4546 24 17.4546C25.1769 17.4546 26.301 17.8346 27.0981 18.8335C27.8608 19.7894 28.2 21.1614 28.2 22.8837C28.2 25.1291 27.8572 26.8549 27.1605 28.0532C26.4257 29.3172 25.3078 29.9622 24 29.9622C22.6922 29.9622 21.5743 29.3172 20.8395 28.0532C20.1429 26.8549 19.8 25.1291 19.8 22.8837C19.8 21.1614 20.1392 19.7894 20.902 18.8335Z" fill="white"/>
</g>
<defs>
<clipPath id="clip0">
<rect width="48" height="48" fill="white"/>
</clipPath>
</defs>
</svg>
