<svg width="24" height="24" viewBox="0 0 24 24" fill="none" xmlns="http://www.w3.org/2000/svg">
<path d="M3.91926 8.99621C4.17263 9.17475 4.93535 9.7051 6.20742 10.586C7.4808 11.4681 8.45487 12.1482 9.13095 12.6234L9.60617 12.9647C9.84772 13.138 10.0486 13.2798 10.2087 13.3874C10.3689 13.4951 10.5619 13.6171 10.789 13.751C11.0161 13.8836 11.2301 13.9847 11.4309 14.0517C11.6318 14.1186 11.8169 14.1514 11.9888 14.1514H12.0112C12.1818 14.1514 12.3682 14.1186 12.5691 14.0517C12.7699 13.986 12.9839 13.8836 13.211 13.7497C13.4381 13.6158 13.6311 13.4951 13.7913 13.3874C13.9944 13.2493 14.1952 13.1079 14.3938 12.9634L14.8677 12.6221L20.0912 8.99621C20.6347 8.61551 21.0889 8.15866 21.4526 7.62305C21.8175 7.08745 22 6.52558 22 5.93878C22 5.4478 21.8228 5.0264 21.4696 4.67721C21.1152 4.32801 20.6977 4.1521 20.2133 4.1521H3.78536C3.213 4.1521 2.77191 4.34639 2.46341 4.73234C2.15491 5.11961 2 5.60402 2 6.18426C2 6.65292 2.20479 7.16096 2.61437 7.70707C3.02265 8.2545 3.45848 8.68377 3.91926 8.99621Z" fill="white"/>
<path d="M20.8828 10.1908C19.0119 11.4472 17.1594 12.7308 15.3259 14.0412C14.9874 14.2927 14.6429 14.5361 14.2927 14.7711C14.0302 14.947 13.6771 15.1255 13.2386 15.3067C12.8515 15.4781 12.4344 15.5714 12.0112 15.581H11.9888C11.6081 15.581 11.1999 15.4891 10.7614 15.3067C10.3937 15.1612 10.0404 14.9819 9.70594 14.7711C9.35623 14.536 9.01218 14.2926 8.67411 14.0412C7.66984 13.3047 5.82015 12.0195 3.12767 10.1908C2.71235 9.9158 2.33346 9.58939 2 9.21936L2 18.0805C2 18.5715 2.1746 18.9916 2.52511 19.3408C2.8743 19.6913 3.29439 19.8659 3.78536 19.8659H20.2133C20.7043 19.8659 21.1257 19.6913 21.4749 19.3408C21.8241 18.9916 22 18.5715 22 18.0805V9.21936C21.6685 9.58687 21.2938 9.91304 20.8841 10.1908H20.8828Z" fill="white"/>
</svg>
