<svg width="48" height="48" viewBox="0 0 48 48" fill="none" xmlns="http://www.w3.org/2000/svg">
<g clip-path="url(#clip0)">
<path fill-rule="evenodd" clip-rule="evenodd" d="M47.88 0V48H-0.0839844V0H47.88ZM46.7352 1.1448H1.06322V46.8576H46.7352V1.1448Z" fill="white"/>
<path fill-rule="evenodd" clip-rule="evenodd" d="M29.028 26.1408C29.028 25.2574 29.7129 24.4441 30.5526 23.4471C31.8823 21.8682 33.6 19.8285 33.6 16.32C33.6 10.6272 29.2176 7.20001 23.8752 7.20001C18.9336 7.20001 14.1696 10.6272 14.1696 16.3344C14.1696 19.8331 15.8872 21.8701 17.2175 23.4476C18.0581 24.4445 18.744 25.2579 18.744 26.1408L18.744 32.3208L19.884 32.3208L19.884 39.1704L21.0264 39.1704L21.0264 40.3128L22.164 40.3128L22.164 41.4576L25.596 41.4576L25.596 40.3128L26.7432 40.3128L26.7432 39.1704L27.8832 39.1704L27.8832 32.3208L29.028 32.3208L29.028 26.1408ZM32.4576 16.32C32.4576 11.6208 28.9272 8.34241 23.8752 8.34241C19.7232 8.34241 15.312 11.1432 15.312 16.3344C15.312 19.416 16.7856 21.1656 18.0888 22.7088C19.0152 23.8056 19.8864 24.84 19.8864 26.1408L19.8864 27.7512L27.8856 27.7512L27.8856 26.1432C27.8856 24.8448 28.7504 23.8156 29.6682 22.7233L29.6784 22.7112L29.6812 22.7079C30.9813 21.1631 32.4576 19.409 32.4576 16.32ZM27.8856 28.896L27.8856 31.1784L19.8864 31.1784L19.8864 28.896L27.8856 28.896ZM23.3112 32.3208L21.0264 32.3208L21.0264 33.4488L23.3112 32.3208ZM23.3112 32.3208L23.3112 33.4632L21.0264 34.5816L21.0264 35.7456L23.3112 34.6176L23.3112 35.7576L21.0264 36.8784L21.0264 38.0304L21.0408 38.0304L23.3112 36.9072L23.3112 38.0304L24.4752 38.0304L26.7408 36.9072L26.7432 35.76L24.4512 36.8784L24.4512 35.7504L26.7408 34.6176L26.7432 34.6176L26.7432 33.4704L24.4512 34.584L24.4512 33.456L26.7408 32.3208L23.3112 32.3208Z" fill="white"/>
</g>
<defs>
<clipPath id="clip0">
<rect width="48" height="48" fill="white"/>
</clipPath>
</defs>
</svg>
