<svg width="48" height="48" viewBox="0 0 48 48" fill="none" xmlns="http://www.w3.org/2000/svg">
<path fill-rule="evenodd" clip-rule="evenodd" d="M0 48H48V0H0V48ZM1.14345 46.8576H46.8566V1.14244H1.14345V46.8551V46.8576Z" fill="white"/>
<path fill-rule="evenodd" clip-rule="evenodd" d="M19.4312 4.56989V14.1565C19.4312 14.8494 17.8925 15.4082 16.0009 15.4082C14.1092 15.4082 12.573 14.8494 12.573 14.1565V4.56989C9.22219 5.9284 6.86072 9.21168 6.86072 13.0463C6.86072 16.881 9.22467 20.1642 12.578 21.5228V47.9976H19.4337V21.5228C22.7795 20.1642 25.146 16.881 25.146 13.0463C25.146 9.21168 22.7795 5.9284 19.4337 4.57237L19.4312 4.56989ZM11.4345 6.47975V14.154C11.4345 15.2567 12.6277 16.5482 16.0009 16.5482C19.379 16.5482 20.5746 15.2567 20.5746 14.154V6.47975C22.6975 7.95003 24 10.3765 24 13.0463C24 16.3221 22.0388 19.2304 19.0036 20.4623L18.2902 20.7504V46.8577H13.7164V20.7504L13.0005 20.4647C9.96294 19.2329 8.00168 16.3246 8.00168 13.0488C8.00168 10.379 9.30422 7.95251 11.432 6.48224L11.4345 6.47975ZM36.5755 37.7132H35.432V15.9993L34.2861 14.8568V6.85477H37.7164V14.8519L36.573 15.9968V37.7107L36.5755 37.7132ZM37.7189 37.7132V16.4712L38.8599 15.3287V5.71481H33.1426V15.3287L33.4807 15.664L34.2861 16.4712V37.7132H30.8607V40.0005H32.0042V47.9976H40.0033V40.0005H41.1393V37.7156H37.7164L37.7189 37.7132Z" fill="white"/>
</svg>
