<svg width="156" height="120" viewBox="0 0 156 120" fill="none" xmlns="http://www.w3.org/2000/svg">
<g clip-path="url(#clip0_339_86)">
<path d="M120.983 88.4573C131.096 88.4573 139.295 80.2586 139.295 70.1451C139.295 60.0316 131.096 51.833 120.983 51.833C110.869 51.833 102.67 60.0316 102.67 70.1451C102.67 80.2586 110.869 88.4573 120.983 88.4573Z" stroke="white" stroke-linecap="round" stroke-linejoin="round"/>
<path d="M120.983 92.7441C133.464 92.7441 143.582 82.6261 143.582 70.145C143.582 57.6639 133.464 47.5459 120.983 47.5459C108.502 47.5459 98.3835 57.6639 98.3835 70.145C98.3835 82.6261 108.502 92.7441 120.983 92.7441Z" stroke="white" stroke-linecap="round" stroke-linejoin="round"/>
<path d="M143.063 65.3132H147.214V75.3465H142.888" stroke="white" stroke-linecap="round" stroke-linejoin="round"/>
<path d="M120.983 60.0698V70.3301L130.024 76.0568" stroke="white" stroke-linecap="round" stroke-linejoin="round"/>
<path d="M102.67 70.145H106.328" stroke="white" stroke-linecap="round" stroke-linejoin="round"/>
<path d="M135.637 70.145H139.295" stroke="white" stroke-linecap="round" stroke-linejoin="round"/>
<path d="M120.983 51.833V55.4909" stroke="white" stroke-linecap="round" stroke-linejoin="round"/>
<path d="M120.983 84.8025V88.4604" stroke="white" stroke-linecap="round" stroke-linejoin="round"/>
<path d="M129.823 61.1367C131.776 63.134 133.168 65.6118 133.857 68.3195" stroke="white" stroke-linecap="round" stroke-linejoin="round"/>
<path d="M124.65 57.5793C125.789 58.0483 126.862 58.6642 127.841 59.4115" stroke="white" stroke-linecap="round" stroke-linejoin="round"/>
<path d="M104.178 55.0368L107.742 42.5876H134.246L137.784 55.0368" stroke="white" stroke-linecap="round" stroke-linejoin="round"/>
<path d="M109.954 42.5877V33.3684H131.557V42.5877" stroke="white" stroke-linecap="round" stroke-linejoin="round"/>
<path d="M104.178 85.25L107.742 97.6991H134.246L137.787 85.25" stroke="white" stroke-linecap="round" stroke-linejoin="round"/>
<path d="M109.954 97.6992V106.919H131.557V97.6992" stroke="white" stroke-linecap="round" stroke-linejoin="round"/>
<path d="M93.0166 64.8625H6.771V108.731" stroke="white" stroke-linecap="round" stroke-linejoin="round"/>
<path d="M58.6525 33.0052C67.7219 33.0052 75.0741 25.6531 75.0741 16.5837C75.0741 7.5143 67.7219 0.162109 58.6525 0.162109C49.5831 0.162109 42.231 7.5143 42.231 16.5837C42.231 25.6531 49.5831 33.0052 58.6525 33.0052Z" stroke="white" stroke-linecap="round" stroke-linejoin="round"/>
<path d="M30.7743 60.167C30.7743 60.167 28.1801 39.2736 48.1882 37.7041L57.9393 47.8054" stroke="white" stroke-linecap="round" stroke-linejoin="round"/>
<path d="M85.1009 60.167C85.1009 60.167 87.7146 39.2736 67.6903 37.7041L57.9392 47.8054" stroke="white" stroke-linecap="round" stroke-linejoin="round"/>
<path d="M155.574 112.156H0.162109V119.838H155.574V112.156Z" stroke="white" stroke-linecap="round" stroke-linejoin="round"/>
</g>
<defs>
<clipPath id="clip0_339_86">
<rect width="155.736" height="120" fill="white"/>
</clipPath>
</defs>
</svg>
