<svg width="121" height="120" viewBox="0 0 121 120" fill="none" xmlns="http://www.w3.org/2000/svg">
<g clip-path="url(#clip0_339_116)">
<path d="M60.4083 51.2494C66.8581 51.2494 72.0868 46.0207 72.0868 39.5709C72.0868 33.121 66.8581 27.8923 60.4083 27.8923C53.9584 27.8923 48.7297 33.121 48.7297 39.5709C48.7297 46.0207 53.9584 51.2494 60.4083 51.2494Z" stroke="white" stroke-linecap="round" stroke-linejoin="round"/>
<path fill-rule="evenodd" clip-rule="evenodd" d="M97.6267 49.7194L66.2006 59.4429C62.4339 60.6056 58.4042 60.6056 54.6375 59.4429L23.2023 49.7285C20.8435 48.9999 19.2558 52.0964 21.1987 53.5991L40.3573 68.3133C41.4047 69.267 42.2233 70.4447 42.7521 71.7588C43.2809 73.0729 43.5062 74.4894 43.4113 75.9027L39.7896 116.797C39.5316 119.73 43.3931 121.023 44.9504 118.525L56.3253 95.4134C56.6982 94.6436 57.2804 93.9943 58.0052 93.54C58.73 93.0857 59.5681 92.8447 60.4236 92.8447C61.279 92.8447 62.1171 93.0857 62.8419 93.54C63.5668 93.9943 64.149 94.6436 64.5218 95.4134L75.8968 118.525C77.4541 121.023 81.3156 119.739 81.0575 116.797L77.4329 75.8997C77.3379 74.4864 77.5633 73.0699 78.092 71.7558C78.6208 70.4417 79.4395 69.2639 80.4868 68.3103L99.6454 53.596C101.588 52.0964 99.9854 48.9908 97.6267 49.7194Z" stroke="white" stroke-linecap="round" stroke-linejoin="round"/>
<path d="M116.94 11.392C117.918 6.05389 115.112 1.0664 110.671 0.252118C106.23 -0.562164 101.836 3.10512 100.857 8.44327C99.8784 13.7814 102.685 18.769 107.126 19.5833C111.567 20.3976 115.961 16.7302 116.94 11.392Z" stroke="white" stroke-linecap="round" stroke-linejoin="round"/>
<path d="M91.6734 51.2494L92.5447 37.625C92.5941 36.2727 92.3661 34.9246 91.8748 33.6638C91.3835 32.403 90.6394 31.256 89.6881 30.2936L70.9484 11.3384C69.3698 9.38645 71.5252 6.64821 73.7929 7.71983L115.131 27.2852C116.368 27.8708 117.436 28.763 118.231 29.8773C119.027 30.9915 119.524 32.2907 119.676 33.6514C119.829 35.012 119.63 36.389 119.1 37.6514C118.57 38.9138 117.726 40.0197 116.649 40.8641L109.399 46.547C106.591 48.7479 108.592 53.2257 112.101 52.6185L119.948 51.2463L120.556 89.4057C120.595 91.9041 117.128 92.575 116.233 90.2435L105.732 62.8975L93.4039 86.8799C92.3687 88.8957 89.3147 88.0517 89.4574 85.7901L91.4974 59.8193" stroke="white" stroke-linecap="round" stroke-linejoin="round"/>
<path d="M13.5524 19.6341C17.9935 18.8198 20.8002 13.8323 19.8214 8.49415C18.8427 3.156 14.449 -0.511323 10.008 0.302959C5.56695 1.11724 2.76025 6.10477 3.73902 11.4429C4.71779 16.7811 9.11139 20.4484 13.5524 19.6341Z" stroke="white" stroke-linecap="round" stroke-linejoin="round"/>
<path d="M29.0459 51.2494L28.1777 37.625C28.1284 36.2727 28.3564 34.9246 28.8476 33.6638C29.3389 32.403 30.0831 31.256 31.0344 30.2936L49.774 11.3384C51.3526 9.38645 49.1972 6.64821 46.9295 7.71983L5.58873 27.2852C4.35112 27.8708 3.28383 28.763 2.48821 29.8773C1.69258 30.9915 1.19506 32.2907 1.04297 33.6514C0.890869 35.012 1.08922 36.389 1.61917 37.6514C2.14913 38.9138 2.99309 40.0197 4.07086 40.8641L11.3233 46.547C14.1283 48.7479 12.1308 53.2257 8.6184 52.6185L0.77404 51.2463L0.166891 89.4057C0.124391 91.9041 3.59121 92.575 4.48979 90.2435L14.9874 62.8975L27.3156 86.8799C28.3538 88.8957 31.4078 88.0517 31.2621 85.7901L29.6197 60.047" stroke="white" stroke-linecap="round" stroke-linejoin="round"/>
</g>
<defs>
<clipPath id="clip0_339_116">
<rect width="120.719" height="120" fill="white"/>
</clipPath>
</defs>
</svg>
