<svg width="101" height="120" viewBox="0 0 101 120" fill="none" xmlns="http://www.w3.org/2000/svg">
<g clip-path="url(#clip0_339_106)">
<path d="M17.0159 41.0281V9.29839C17.0193 6.87741 17.9834 4.55676 19.6965 2.84608C21.4096 1.1354 23.7317 0.174558 26.1526 0.174561H74.9337C77.357 0.174561 79.6809 1.13718 81.3944 2.85066C83.1079 4.56413 84.0705 6.8881 84.0705 9.31132V41.5228" stroke="white" stroke-linecap="round" stroke-linejoin="round"/>
<path d="M84.0705 76.4468V110.718C84.0705 113.141 83.1079 115.465 81.3944 117.178C79.6809 118.892 77.357 119.854 74.9337 119.854H26.1526C23.7294 119.854 21.4054 118.892 19.6919 117.178C17.9785 115.465 17.0159 113.141 17.0159 110.718V79.0333" stroke="white" stroke-linecap="round" stroke-linejoin="round"/>
<path d="M16.6958 14.0542H83.7472" stroke="white" stroke-linecap="round" stroke-linejoin="round"/>
<path d="M16.6958 104.53H83.7472" stroke="white" stroke-linecap="round" stroke-linejoin="round"/>
<path d="M42.04 112.04H61.1121" stroke="white" stroke-linecap="round" stroke-linejoin="round"/>
<path d="M51.5778 9.77695C53.142 9.77695 54.41 8.50893 54.41 6.94475C54.41 5.38057 53.142 4.11255 51.5778 4.11255C50.0136 4.11255 48.7456 5.38057 48.7456 6.94475C48.7456 8.50893 50.0136 9.77695 51.5778 9.77695Z" stroke="white" stroke-linecap="round" stroke-linejoin="round"/>
<path fill-rule="evenodd" clip-rule="evenodd" d="M50.3976 27.9502L55.965 45.0857H73.9863L59.4083 55.6773L64.9757 72.816L50.3976 62.2244L35.8195 72.816L41.3869 55.6773L26.8088 45.0857H44.8302L50.3976 27.9502Z" stroke="white" stroke-linecap="round" stroke-linejoin="round"/>
<path fill-rule="evenodd" clip-rule="evenodd" d="M18.9718 43.8765L23.4141 57.5428H37.7853L26.159 65.9909L30.5981 79.6573L18.9718 71.2124L7.34558 79.6573L11.7879 65.9909L0.161621 57.5428H14.5328L18.9718 43.8765Z" stroke="white" stroke-linecap="round" stroke-linejoin="round"/>
<path fill-rule="evenodd" clip-rule="evenodd" d="M81.9624 43.8765L86.4014 57.5428H100.773L89.1463 65.9909L93.5886 79.6573L81.9624 71.2124L70.3361 79.6573L74.7752 65.9909L63.1489 57.5428H77.5201L81.9624 43.8765Z" stroke="white" stroke-linecap="round" stroke-linejoin="round"/>
</g>
<defs>
<clipPath id="clip0_339_106">
<rect width="100.934" height="120" fill="white"/>
</clipPath>
</defs>
</svg>
