<svg width="103" height="120" viewBox="0 0 103 120" fill="none" xmlns="http://www.w3.org/2000/svg">
<g clip-path="url(#clip0_339_123)">
<path d="M73.3365 99.2222C84.6371 99.2222 93.7981 90.0612 93.7981 78.7605C93.7981 67.4598 84.6371 58.2988 73.3365 58.2988C62.0358 58.2988 52.8748 67.4598 52.8748 78.7605C52.8748 90.0612 62.0358 99.2222 73.3365 99.2222Z" stroke="white" stroke-linecap="round" stroke-linejoin="round"/>
<path d="M73.3365 104.014C87.2836 104.014 98.5901 92.7076 98.5901 78.7604C98.5901 64.8133 87.2836 53.5068 73.3365 53.5068C59.3893 53.5068 48.0829 64.8133 48.0829 78.7604C48.0829 92.7076 59.3893 104.014 73.3365 104.014Z" stroke="white" stroke-linecap="round" stroke-linejoin="round"/>
<path d="M98.0086 73.3604H102.651V84.5752H97.8177" stroke="white" stroke-linecap="round" stroke-linejoin="round"/>
<path d="M73.3364 67.501V78.9663L83.442 85.3655" stroke="white" stroke-linecap="round" stroke-linejoin="round"/>
<path d="M52.8748 78.7605H56.9629" stroke="white" stroke-linecap="round" stroke-linejoin="round"/>
<path d="M89.713 78.7605H93.8012" stroke="white" stroke-linecap="round" stroke-linejoin="round"/>
<path d="M73.3364 58.2988V62.387" stroke="white" stroke-linecap="round" stroke-linejoin="round"/>
<path d="M73.3364 95.137V99.2251" stroke="white" stroke-linecap="round" stroke-linejoin="round"/>
<path d="M83.2185 68.6936C85.4047 70.9239 86.963 73.692 87.736 76.7179" stroke="white" stroke-linecap="round" stroke-linejoin="round"/>
<path d="M77.4396 64.7188C78.7167 65.2412 79.9197 65.9289 81.0178 66.7643" stroke="white" stroke-linecap="round" stroke-linejoin="round"/>
<path d="M54.5596 61.877L58.5404 47.9666H88.1565L92.1134 61.877" stroke="white" stroke-linecap="round" stroke-linejoin="round"/>
<path d="M61.0154 47.9667V37.6643H85.1537V47.9667" stroke="white" stroke-linecap="round" stroke-linejoin="round"/>
<path d="M54.5596 95.6409L58.5434 109.548H88.1565L92.1134 95.6409" stroke="white" stroke-linecap="round" stroke-linejoin="round"/>
<path d="M61.0154 109.549V119.851H85.1537V109.549" stroke="white" stroke-linecap="round" stroke-linejoin="round"/>
<path d="M75.3672 29.5297L74.7231 17.8616H57.9768" stroke="white" stroke-linecap="round" stroke-linejoin="round"/>
<path d="M16.6329 19.1943H3.81378L0.149048 98.2173H43.8873" stroke="white" stroke-linecap="round" stroke-linejoin="round"/>
<path d="M21.0819 28.8765H28.6708" stroke="white" stroke-linecap="round" stroke-linejoin="round"/>
<path d="M51.9564 28.8765H59.5453" stroke="white" stroke-linecap="round" stroke-linejoin="round"/>
<path d="M24.8749 18.9351H47.248" stroke="white" stroke-linecap="round" stroke-linejoin="round"/>
<path d="M24.5409 28.8767V15.2614C24.5409 11.2534 26.133 7.40952 28.9671 4.57543C31.8012 1.74134 35.6451 0.149171 39.6531 0.149171V0.149171C41.6381 0.148388 43.6039 0.538696 45.4381 1.2978C47.2723 2.05691 48.9389 3.16994 50.3429 4.57332C51.7468 5.97669 52.8605 7.64291 53.6203 9.4768C54.3801 11.3107 54.7712 13.2763 54.7712 15.2614V28.8767" stroke="white" stroke-linecap="round" stroke-linejoin="round"/>
</g>
<defs>
<clipPath id="clip0_339_123">
<rect width="102.8" height="120" fill="white"/>
</clipPath>
</defs>
</svg>
