<svg width="285" height="212" viewBox="0 0 285 212" fill="none" xmlns="http://www.w3.org/2000/svg">
<g clip-path="url(#clip0)">
<path d="M218.932 150.908H206.483V198.61H218.932" stroke="#1D2474" stroke-linecap="round" stroke-linejoin="round"/>
<path d="M258.87 148.059H218.933V211.87L258.87 211.222" stroke="#1D2474" stroke-linecap="round" stroke-linejoin="round"/>
<path d="M227.501 207.504C229.02 207.504 230.251 206.272 230.251 204.754C230.251 203.235 229.02 202.003 227.501 202.003C225.983 202.003 224.751 203.235 224.751 204.754C224.751 206.272 225.983 207.504 227.501 207.504Z" stroke="#1D2474" stroke-linecap="round" stroke-linejoin="round"/>
<path d="M139.568 128.416C139.568 128.416 145.081 125.669 149.893 127.135C157.247 129.376 185.304 150.905 194.682 153.655C204.06 156.406 206.483 154.641 206.483 154.641" stroke="#1D2474" stroke-linecap="round" stroke-linejoin="round"/>
<path d="M154.744 148.056C154.744 148.056 148.116 155.272 128.875 152.524C109.633 149.777 100.717 148.243 97.2254 153.111C94.0864 157.498 97.5004 162.874 100.248 164.975C102.995 167.077 112.536 171.443 127.251 170.473C141.965 169.502 145.843 178.404 148.264 180.905C150.684 183.406 164.918 195.375 178.014 193.758C191.11 192.142 206.47 188.421 206.47 188.421" stroke="#1D2474" stroke-linecap="round" stroke-linejoin="round"/>
<path fill-rule="evenodd" clip-rule="evenodd" d="M108.609 158.764C107.8 161.911 106.209 164.212 102.969 163.385C99.729 162.557 96.6471 158.875 97.4565 155.728C98.2659 152.581 102.461 151.577 105.701 152.418C108.941 153.258 109.418 155.619 108.609 158.764Z" stroke="#1D2474" stroke-linecap="round" stroke-linejoin="round"/>
<path d="M180.549 193.426C180.549 193.426 191.86 198.789 205.848 192.619" stroke="#1D2474" stroke-linecap="round" stroke-linejoin="round"/>
<path d="M119.024 191.553C119.024 191.553 129.451 203.897 135.887 201.703C142.323 199.508 138.725 191.553 138.725 191.553" stroke="#1D2474" stroke-linecap="round" stroke-linejoin="round"/>
<path d="M126.179 198.197C126.973 190.756 135.536 196.9 134.974 201.845" stroke="#1D2474" stroke-linecap="round" stroke-linejoin="round"/>
<path d="M138.494 200.576C138.494 200.576 150.082 206.858 153.844 205.221C157.606 203.583 158.049 198.439 155.528 196.757C153.006 195.076 146.5 192.995 144.775 192.959C144.775 192.959 144.191 189.965 141.143 188.992" stroke="#1D2474" stroke-linecap="round" stroke-linejoin="round"/>
<path d="M145.288 203.586C145.807 196.599 153.769 198.114 155.527 203.521" stroke="#1D2474" stroke-linecap="round" stroke-linejoin="round"/>
<path d="M145.081 182.319C146.406 183.126 148.16 183.025 149.667 182.978L149.553 182.926" stroke="#1D2474" stroke-linecap="round" stroke-linejoin="round"/>
<path d="M146.531 183.022C146.738 184.467 145.82 186.294 145.288 187.173" stroke="#1D2474" stroke-linecap="round" stroke-linejoin="round"/>
<path d="M145.288 187.186C147.862 186.387 152.334 185.601 154.627 186.195" stroke="#1D2474" stroke-linecap="round" stroke-linejoin="round"/>
<path d="M154.991 196.428C158.104 196.643 162.581 194.633 162.711 190.72" stroke="#1D2474" stroke-linecap="round" stroke-linejoin="round"/>
<path d="M142.495 152.527L143.185 134.036L2.1378 129.35L0.129883 189.389L141.042 191.553L141.701 173.89" stroke="#1D2474" stroke-linecap="round" stroke-linejoin="round"/>
<path d="M6.42041 144.409C7.72708 145.068 9.21539 145.276 10.6527 144.999C12.0899 144.723 13.3951 143.978 14.3642 142.881C15.3332 141.784 15.9115 140.397 16.0086 138.937C16.1057 137.476 15.7162 136.025 14.9009 134.809L126.148 137.922" stroke="#1D2474" stroke-linecap="round" stroke-linejoin="round"/>
<path d="M6.42043 144.409L6.17139 174.235" stroke="#1D2474" stroke-linecap="round" stroke-linejoin="round"/>
<path d="M134.344 148.059C133 148.645 131.5 148.769 130.079 148.412C128.658 148.054 127.395 147.234 126.49 146.082C125.584 144.929 125.086 143.509 125.075 142.043C125.063 140.577 125.539 139.149 126.426 137.982" stroke="#1D2474" stroke-linecap="round" stroke-linejoin="round"/>
<path d="M134.341 148.059L134.343 153.072" stroke="#1D2474" stroke-linecap="round" stroke-linejoin="round"/>
<path d="M133.42 170.981L133.332 178.619C132.642 178.321 131.298 177.755 130.501 177.711C129.316 177.645 128.134 177.898 127.08 178.445C126.026 178.993 125.138 179.813 124.51 180.821C123.883 181.83 123.537 182.988 123.511 184.175C123.485 185.363 123.778 186.535 124.361 187.57L14.1255 184.434C14.8749 183.268 15.2397 181.896 15.1683 180.512C15.097 179.128 14.5932 177.801 13.728 176.719C12.8627 175.636 11.6796 174.853 10.3454 174.478C9.01118 174.104 7.5931 174.157 6.29102 174.632" stroke="#1D2474" stroke-linecap="round" stroke-linejoin="round"/>
<path d="M11.2095 129.35L15.381 106.13L139.568 128.416V133.917" stroke="#1D2474" stroke-linecap="round" stroke-linejoin="round"/>
<path d="M17.4541 121.65C18.6538 122.498 20.1014 122.923 21.5691 122.858C23.0367 122.792 24.441 122.241 25.5607 121.29C26.6805 120.339 27.4521 119.042 27.7542 117.604C28.0562 116.166 27.8715 114.669 27.2291 113.348L124.434 130.256" stroke="#1D2474" stroke-linecap="round" stroke-linejoin="round"/>
<path d="M17.4541 121.647L16.2686 129.35" stroke="#1D2474" stroke-linecap="round" stroke-linejoin="round"/>
<path d="M123.32 133.374C123.32 132.023 123.717 131.299 124.433 130.261" stroke="#1D2474" stroke-linecap="round" stroke-linejoin="round"/>
<path d="M69.8566 180.892C80.2783 180.892 88.7268 172.443 88.7268 162.02C88.7268 151.597 80.2783 143.148 69.8566 143.148C59.4348 143.148 50.9863 151.597 50.9863 162.02C50.9863 172.443 59.4348 180.892 69.8566 180.892Z" stroke="#1D2474" stroke-linecap="round" stroke-linejoin="round"/>
</g>
<g clip-path="url(#clip1)">
<path d="M75.1431 0.241486H116.851V91.2503H75.1431" stroke="#1D2474" stroke-linecap="round" stroke-linejoin="round"/>
<path d="M123.286 2.6506H124.596L128.034 84.5778H116.852" stroke="#1D2474" stroke-linecap="round" stroke-linejoin="round"/>
<path d="M116.852 2.6506H123.286" stroke="#1D2474" stroke-linecap="round" stroke-linejoin="round"/>
<path d="M167.142 7.01749C173.368 6.97149 175.53 6.73001 176.997 6.17229C181.976 4.31802 200.231 -0.609461 225.317 0.235742C248.768 1.03207 249.626 0.850958 253.307 2.3315C256.988 3.81204 262.396 7.82244 262.173 14.0752C262.012 18.583 260.9 19.1407 260.9 19.1407C260.9 19.1407 273.438 18.215 273.875 28.7685C274.161 35.625 271.587 38.6033 271.41 39.3451C271.233 40.0868 282.872 43.3698 282.686 50.9565C282.501 58.5432 281.365 59.9174 276.017 63.2551C276.017 63.2551 285.114 67.9583 280.593 78.1784C277.104 86.0727 258.498 91.2445 226.233 91.2445" stroke="#1D2474" stroke-linecap="round" stroke-linejoin="round"/>
<path d="M124.596 6.11766C124.596 6.11766 134.188 6.2614 140.94 6.46552" stroke="#1D2474" stroke-linecap="round" stroke-linejoin="round"/>
<path d="M140.871 70.5946C134.468 70.5946 127.456 70.7671 127.456 70.7671" stroke="#1D2474" stroke-linecap="round" stroke-linejoin="round"/>
<path d="M268.67 86.3861C268.67 86.3861 285.544 88.5192 284.837 95.9334C284.265 101.887 281.022 101.194 278.917 101.427C277.487 101.585 264.129 103.911 255.389 108.83C253.607 109.825 251.519 110.11 249.538 109.629C245.883 108.767 238.61 106.91 224.7 103.066C213.278 99.9036 208.259 100.292 202.359 94.9933C196.459 89.695 187.55 76.5742 175.001 73.1675C172.213 72.4086 171.086 72.1412 166.708 71.7617" stroke="#1D2474" stroke-linecap="round" stroke-linejoin="round"/>
<path d="M269.313 103.388C270.68 99.8834 273.512 97.1006 276.749 95.2262C278.056 94.473 279.477 93.8405 280.982 93.7341C282.486 93.6278 283.862 94.7662 284.825 95.9334" stroke="#1D2474" stroke-linecap="round" stroke-linejoin="round"/>
<path d="M276.011 63.2609H259.032" stroke="#1D2474" stroke-linecap="round" stroke-linejoin="round"/>
<path d="M271.47 39.4601H256.653" stroke="#1D2474" stroke-linecap="round" stroke-linejoin="round"/>
<path d="M260.657 19.1321H248.11" stroke="#1D2474" stroke-linecap="round" stroke-linejoin="round"/>
<path d="M153.675 59.1383C165.02 59.1383 174.217 49.893 174.217 38.4883C174.217 27.0837 165.02 17.8384 153.675 17.8384C142.329 17.8384 133.132 27.0837 133.132 38.4883C133.132 49.893 142.329 59.1383 153.675 59.1383Z" stroke="#1D2474" stroke-linecap="round" stroke-linejoin="round"/>
<path d="M153.675 62.6744C166.963 62.6744 177.735 51.8459 177.735 38.4884C177.735 25.1308 166.963 14.3023 153.675 14.3023C140.387 14.3023 129.615 25.1308 129.615 38.4884C129.615 51.8459 140.387 62.6744 153.675 62.6744Z" stroke="#1D2474" stroke-linecap="round" stroke-linejoin="round"/>
<path d="M146.03 28.1619C148.229 26.4853 150.918 25.5895 153.678 25.6148C156.691 25.6143 159.607 26.6814 161.915 28.6285C164.223 30.5756 165.774 33.2782 166.296 36.2611C166.818 39.2441 166.277 42.3164 164.768 44.9382C163.26 47.5599 160.88 49.5632 158.048 50.596C155.215 51.6287 152.111 51.6247 149.282 50.5848C146.452 49.5449 144.077 47.5355 142.576 44.9099C141.074 42.2843 140.541 39.2106 141.07 36.229C141.599 33.2474 143.157 30.5488 145.47 28.6075" stroke="#1D2474" stroke-linecap="round" stroke-linejoin="round"/>
<path d="M154.07 19.1062V23.0447" stroke="#1D2474" stroke-linecap="round" stroke-linejoin="round"/>
<path d="M154.07 53.9349V57.8734" stroke="#1D2474" stroke-linecap="round" stroke-linejoin="round"/>
<path d="M173.351 38.4884H169.433" stroke="#1D2474" stroke-linecap="round" stroke-linejoin="round"/>
<path d="M138.707 38.4884H134.789" stroke="#1D2474" stroke-linecap="round" stroke-linejoin="round"/>
<path d="M163.719 55.2717L162.235 52.6872" stroke="#1D2474" stroke-linecap="round" stroke-linejoin="round"/>
<path d="M145.767 24.0509L144.42 21.7079" stroke="#1D2474" stroke-linecap="round" stroke-linejoin="round"/>
<path d="M170.857 28.9554L168.271 30.4216" stroke="#1D2474" stroke-linecap="round" stroke-linejoin="round"/>
<path d="M139.624 46.6931L137.282 48.0242" stroke="#1D2474" stroke-linecap="round" stroke-linejoin="round"/>
<path d="M144.06 55.0561L145.602 52.5061" stroke="#1D2474" stroke-linecap="round" stroke-linejoin="round"/>
<path d="M162.681 24.2349L164.079 21.9207" stroke="#1D2474" stroke-linecap="round" stroke-linejoin="round"/>
<path d="M170.78 48.3232L168.214 46.8053" stroke="#1D2474" stroke-linecap="round" stroke-linejoin="round"/>
<path d="M139.779 29.9788L137.454 28.6018" stroke="#1D2474" stroke-linecap="round" stroke-linejoin="round"/>
<path d="M153.875 39.8338L142.556 47.5441C142.544 47.5534 142.53 47.5601 142.516 47.5641C142.501 47.568 142.486 47.569 142.471 47.567C142.456 47.565 142.441 47.56 142.428 47.5524C142.415 47.5448 142.404 47.5346 142.394 47.5226C142.385 47.5105 142.378 47.4967 142.374 47.482C142.371 47.4673 142.37 47.452 142.372 47.4369C142.374 47.4218 142.379 47.4073 142.386 47.3941C142.394 47.3809 142.404 47.3694 142.416 47.3601L152.809 38.4079" stroke="#1D2474" stroke-linecap="round" stroke-linejoin="round"/>
<path d="M154.212 37.2004L156.763 35.0012L158.311 36.8123L155.559 38.6867" stroke="#1D2474" stroke-linecap="round" stroke-linejoin="round"/>
<path fill-rule="evenodd" clip-rule="evenodd" d="M142.467 24.2291L157.993 41.3718L156.191 42.9242L142.295 24.3844C142.275 24.3615 142.264 24.3314 142.266 24.3007C142.267 24.2699 142.281 24.2411 142.304 24.2205C142.327 24.1999 142.357 24.1893 142.387 24.1909C142.418 24.1925 142.446 24.2063 142.467 24.2291Z" stroke="#1D2474" stroke-linecap="round" stroke-linejoin="round"/>
<path d="M177.426 34.5757H180.532C180.608 34.5757 180.68 34.606 180.734 34.6599C180.788 34.7138 180.818 34.7869 180.818 34.8632V42.5275C180.818 42.6038 180.788 42.6769 180.734 42.7308C180.68 42.7847 180.608 42.815 180.532 42.815H177.352" stroke="#1D2474" stroke-linecap="round" stroke-linejoin="round"/>
<path d="M177.618 35.5043H180.826" stroke="#1D2474" stroke-linecap="round" stroke-linejoin="round"/>
<path d="M177.738 36.4185H180.826" stroke="#1D2474" stroke-linecap="round" stroke-linejoin="round"/>
<path d="M177.738 37.3327H180.826" stroke="#1D2474" stroke-linecap="round" stroke-linejoin="round"/>
<path d="M177.738 38.2469H180.826" stroke="#1D2474" stroke-linecap="round" stroke-linejoin="round"/>
<path d="M177.738 39.1611H180.826" stroke="#1D2474" stroke-linecap="round" stroke-linejoin="round"/>
<path d="M177.738 40.0753H180.826" stroke="#1D2474" stroke-linecap="round" stroke-linejoin="round"/>
<path d="M177.618 40.9895H180.826" stroke="#1D2474" stroke-linecap="round" stroke-linejoin="round"/>
<path d="M177.618 41.9066H180.826" stroke="#1D2474" stroke-linecap="round" stroke-linejoin="round"/>
<path d="M166.69 17.9649C166.69 17.9649 166.807 10.9675 166.69 10.2028C166.573 9.4381 167.888 9.13912 168.374 9.50997C168.861 9.88082 169.596 11.2349 169.733 14.3972C169.87 17.5595 169.787 20.535 169.787 20.535" stroke="#1D2474" stroke-linecap="round" stroke-linejoin="round"/>
<path d="M141.346 17.6256C141.346 17.6256 141.223 10.9675 141.346 10.2028C141.469 9.4381 140.148 9.13912 139.664 9.50997C139.181 9.88083 138.443 11.2349 138.306 14.3972C138.169 17.5595 138.237 19.9456 138.237 19.9456" stroke="#1D2474" stroke-linecap="round" stroke-linejoin="round"/>
<path d="M166.69 12.9799C166.525 13.3333 166.26 13.6295 165.927 13.8312C165.595 14.0328 165.21 14.1307 164.822 14.1126H143.185C142.828 14.1122 142.477 14.0289 142.158 13.8693C141.839 13.7097 141.561 13.4781 141.346 13.1926" stroke="#1D2474" stroke-linecap="round" stroke-linejoin="round"/>
<path d="M140.871 9.35186V7.01749C140.873 6.40113 141.117 5.81045 141.55 5.37461C141.984 4.93878 142.572 4.69326 143.185 4.69174H164.828C165.441 4.69326 166.029 4.93878 166.463 5.37461C166.896 5.81045 167.14 6.40113 167.142 7.01749V9.35186" stroke="#1D2474" stroke-linecap="round" stroke-linejoin="round"/>
<path d="M144.646 5.55707V7.37397" stroke="#1D2474" stroke-linecap="round" stroke-linejoin="round"/>
<path d="M163.467 5.55707V7.37397" stroke="#1D2474" stroke-linecap="round" stroke-linejoin="round"/>
<path d="M163.845 8.33415C163.845 8.33415 163.876 9.42947 162.037 10.3897" stroke="#1D2474" stroke-linecap="round" stroke-linejoin="round"/>
<path d="M144.42 8.33415C144.42 8.33415 144.383 9.43522 146.228 10.3897" stroke="#1D2474" stroke-linecap="round" stroke-linejoin="round"/>
<path d="M158.763 10.3983C158.866 10.3638 160.57 10.3983 160.57 10.3983" stroke="#1D2474" stroke-linecap="round" stroke-linejoin="round"/>
<path d="M155.113 10.3983C155.216 10.3638 156.921 10.3983 156.921 10.3983" stroke="#1D2474" stroke-linecap="round" stroke-linejoin="round"/>
<path d="M151.261 10.3983C151.364 10.3638 153.069 10.3983 153.069 10.3983" stroke="#1D2474" stroke-linecap="round" stroke-linejoin="round"/>
<path d="M147.475 10.3983C147.578 10.3638 149.283 10.3983 149.283 10.3983" stroke="#1D2474" stroke-linecap="round" stroke-linejoin="round"/>
<path d="M166.69 58.8336C166.69 58.8336 166.813 66.1587 166.69 66.9234C166.567 67.6881 167.888 67.99 168.375 67.6191C168.861 67.2482 169.596 65.8942 169.733 62.7319C169.87 59.5696 169.813 56.4216 169.813 56.4216" stroke="#1D2474" stroke-linecap="round" stroke-linejoin="round"/>
<path d="M141.346 59.5034C141.346 59.5034 141.223 66.1587 141.346 66.9234C141.469 67.6881 140.148 67.99 139.664 67.6191C139.181 67.2483 138.443 65.8942 138.306 62.7319C138.169 59.5696 138.237 57.1834 138.237 57.1834" stroke="#1D2474" stroke-linecap="round" stroke-linejoin="round"/>
<path d="M166.69 64.1492C166.525 63.7958 166.26 63.4995 165.927 63.2979C165.595 63.0963 165.21 62.9983 164.822 63.0165H143.185C142.828 63.0169 142.477 63.1002 142.158 63.2598C141.839 63.4194 141.561 63.6509 141.346 63.9364" stroke="#1D2474" stroke-linecap="round" stroke-linejoin="round"/>
<path d="M140.871 67.7772V70.1116C140.873 70.728 141.117 71.3186 141.55 71.7545C141.984 72.1903 142.572 72.4358 143.185 72.4373H164.828C165.441 72.4358 166.029 72.1903 166.463 71.7545C166.896 71.3186 167.14 70.728 167.142 70.1116V67.7772" stroke="#1D2474" stroke-linecap="round" stroke-linejoin="round"/>
<path d="M144.646 71.572V69.7551" stroke="#1D2474" stroke-linecap="round" stroke-linejoin="round"/>
<path d="M163.467 71.572V69.7551" stroke="#1D2474" stroke-linecap="round" stroke-linejoin="round"/>
<path d="M163.513 69.1255C163.513 69.1255 163.547 68.0302 161.708 67.07" stroke="#1D2474" stroke-linecap="round" stroke-linejoin="round"/>
<path d="M144.704 69.0795C144.704 69.0795 144.669 67.9842 146.511 67.024" stroke="#1D2474" stroke-linecap="round" stroke-linejoin="round"/>
<path d="M158.763 67.0815C158.866 67.116 160.57 67.0815 160.57 67.0815" stroke="#1D2474" stroke-linecap="round" stroke-linejoin="round"/>
<path d="M155.113 67.0815C155.216 67.116 156.921 67.0815 156.921 67.0815" stroke="#1D2474" stroke-linecap="round" stroke-linejoin="round"/>
<path d="M151.261 67.0815C151.364 67.116 153.069 67.0815 153.069 67.0815" stroke="#1D2474" stroke-linecap="round" stroke-linejoin="round"/>
<path d="M147.475 67.0815C147.578 67.116 149.283 67.0815 149.283 67.0815" stroke="#1D2474" stroke-linecap="round" stroke-linejoin="round"/>
<path d="M104.957 85.2764C107.544 85.2764 109.641 83.1681 109.641 80.5674C109.641 77.9667 107.544 75.8584 104.957 75.8584C102.37 75.8584 100.272 77.9667 100.272 80.5674C100.272 83.1681 102.37 85.2764 104.957 85.2764Z" stroke="#1D2474" stroke-linecap="round" stroke-linejoin="round"/>
</g>
<defs>
<clipPath id="clip0">
<rect width="259" height="106" fill="white" transform="translate(0 106)"/>
</clipPath>
<clipPath id="clip1">
<rect width="210" height="110" fill="white" transform="translate(75)"/>
</clipPath>
</defs>
</svg>
