<svg width="354" height="238" viewBox="0 0 354 238" fill="none" xmlns="http://www.w3.org/2000/svg">
<g clip-path="url(#clip20)">
<path d="M146.564 13.4983L133.201 22.7233L156.212 56.1773L169.576 46.9523L146.564 13.4983Z" stroke="#1D2474" stroke-linecap="round" stroke-linejoin="round"/>
<path d="M133.346 22.9377C132.625 21.8891 131.192 21.6245 130.146 22.3465C129.1 23.0686 128.837 24.504 129.558 25.5526L152.471 58.8629C153.192 59.9114 154.625 60.1761 155.671 59.454C156.717 58.7319 156.98 57.2966 156.259 56.248L133.346 22.9377Z" stroke="#1D2474" stroke-linecap="round" stroke-linejoin="round"/>
<path fill-rule="evenodd" clip-rule="evenodd" d="M129.485 31.7533C127.856 32.8765 125.717 32.5957 124.705 31.1266L146.685 63.0751C145.673 61.5971 146.172 59.5013 147.8 58.378C149.429 57.2547 151.566 57.5356 152.578 59.0047L130.598 27.0562C131.61 28.5282 131.12 30.63 129.485 31.7533Z" stroke="#1D2474" stroke-linecap="round" stroke-linejoin="round"/>
<path d="M125.213 31.8674C123.958 30.0432 121.465 29.5834 119.644 30.8404C117.823 32.0975 117.364 34.5953 118.619 36.4195L139.986 67.4832C141.241 69.3074 143.734 69.7672 145.555 68.5102C147.376 67.2532 147.835 64.7553 146.581 62.9311L125.213 31.8674Z" stroke="#1D2474" stroke-linecap="round" stroke-linejoin="round"/>
<path d="M118.955 36.9124L139.935 67.4138C138.521 68.3897 136.779 68.7631 135.09 68.4517C133.401 68.1403 131.905 67.1697 130.931 65.7533L117.299 45.9351C116.816 45.2338 116.476 44.4441 116.298 43.611C116.12 42.778 116.107 41.918 116.261 41.0801C116.415 40.2422 116.732 39.4428 117.194 38.7277C117.656 38.0126 118.254 37.3957 118.955 36.9124V36.9124Z" stroke="#1D2474" stroke-linecap="round" stroke-linejoin="round"/>
<path d="M169.428 46.4144C170.149 47.463 171.582 47.7277 172.628 47.0056C173.674 46.2835 173.937 44.8481 173.216 43.7996L150.303 10.4892C149.582 9.44069 148.149 9.17602 147.103 9.8981C146.057 10.6202 145.794 12.0556 146.515 13.1041L169.428 46.4144Z" stroke="#1D2474" stroke-linecap="round" stroke-linejoin="round"/>
<path fill-rule="evenodd" clip-rule="evenodd" d="M173.289 37.5947C174.918 36.4714 177.057 36.7523 178.069 38.2214L156.089 6.27286C157.101 7.75086 156.602 9.84667 154.974 10.97C153.345 12.0932 151.208 11.8124 150.196 10.3433L172.177 42.2918C171.164 40.8197 171.663 38.718 173.289 37.5947Z" stroke="#1D2474" stroke-linecap="round" stroke-linejoin="round"/>
<path d="M177.563 37.4811C178.818 39.3054 181.312 39.7652 183.133 38.5081C184.953 37.2511 185.412 34.7533 184.158 32.929L162.79 1.86536C161.535 0.0411386 159.042 -0.418665 157.221 0.83837C155.4 2.09541 154.941 4.59325 156.196 6.41747L177.563 37.4811Z" stroke="#1D2474" stroke-linecap="round" stroke-linejoin="round"/>
<path d="M183.819 32.4337L162.838 1.9323C163.538 1.44904 164.327 1.10866 165.158 0.930567C165.989 0.752474 166.848 0.740161 167.684 0.894345C168.52 1.04853 169.318 1.36618 170.031 1.82917C170.745 2.29216 171.36 2.89142 171.843 3.59273L185.476 23.4134C185.959 24.1147 186.299 24.9043 186.476 25.7372C186.654 26.57 186.667 27.4298 186.513 28.2674C186.359 29.105 186.042 29.9041 185.579 30.6189C185.117 31.3338 184.519 31.9504 183.819 32.4337V32.4337Z" stroke="#1D2474" stroke-linecap="round" stroke-linejoin="round"/>
<path d="M167.376 48.3849L158.48 54.5254C157.623 55.1173 157.406 56.293 157.997 57.1514C158.587 58.0097 159.761 58.2257 160.618 57.6337L169.514 51.4932C170.371 50.9013 170.588 49.7256 169.997 48.8673C169.407 48.009 168.233 47.793 167.376 48.3849Z" stroke="#1D2474" stroke-linecap="round" stroke-linejoin="round"/>
<path d="M173.69 74.5922C173.69 74.5922 165.567 62.1622 159.872 61.7454C154.177 61.3286 167.907 52.635 167.907 52.635" stroke="#1D2474" stroke-linecap="round" stroke-linejoin="round"/>
<path d="M181.82 68.9787C181.82 68.9787 173.118 56.9507 174.756 51.4703C176.393 45.9899 163.395 55.7476 163.395 55.7476" stroke="#1D2474" stroke-linecap="round" stroke-linejoin="round"/>
<path d="M182.483 68.5498L173.216 74.9469C172.591 75.3786 172.433 76.2363 172.864 76.8628L172.866 76.8652C173.297 77.4917 174.153 77.6496 174.778 77.2179L184.045 70.8208C184.671 70.3891 184.828 69.5313 184.397 68.9049L184.396 68.9025C183.965 68.276 183.108 68.1181 182.483 68.5498Z" stroke="#1D2474" stroke-linecap="round" stroke-linejoin="round"/>
<path d="M187.839 95.0651L175.295 76.8325L183.561 71.1274L200.935 96.3776" stroke="#1D2474" stroke-linecap="round" stroke-linejoin="round"/>
<path d="M187.311 94.2998C179.229 101.347 168.972 118.879 168.972 118.879C168.972 118.879 177.104 127.469 188.919 111.037" stroke="#1D2474" stroke-linecap="round" stroke-linejoin="round"/>
<path d="M194.924 87.6454C194.924 87.6454 199.076 85.0264 203.024 86.0905C210.64 88.142 243.886 90.6043 246.268 91.8399C248.649 93.0756 275.023 137.25 280.913 145.22C286.802 153.189 289.47 152.905 289.47 152.905" stroke="#1D2474" stroke-linecap="round" stroke-linejoin="round"/>
<path d="M170.448 119.975C170.448 119.975 176.234 116.724 177.234 112.83C178.235 108.937 175.915 108.036 175.915 108.036" stroke="#1D2474" stroke-linecap="round" stroke-linejoin="round"/>
<path d="M208.982 102.645C209.046 102.228 228.855 109.665 232.369 109.009C232.369 109.009 233.93 120.457 235.32 122.048C233.775 122.603 232.11 122.736 230.496 122.435C228.882 122.134 227.377 121.408 226.134 120.333C221.646 116.606 208.908 101.906 205.449 99.3456C201.991 96.7857 193.015 90.6786 187.588 95.7038C182.212 100.688 187.916 108.462 189.229 110.1C190.542 111.737 202.971 123.13 207.984 128.338C212.998 133.547 215.426 135.459 219.321 143.789C223.216 152.119 234.261 165.415 248.256 170.34C262.252 175.265 267.224 180.875 267.224 180.875" stroke="#1D2474" stroke-linecap="round" stroke-linejoin="round"/>
<path fill-rule="evenodd" clip-rule="evenodd" d="M199.1 98.2132C202.142 102.154 203.546 107.114 200.348 109.594C197.149 112.074 191.611 110.649 188.565 106.709C185.52 102.768 184.685 98.5147 187.589 95.6917C190.23 93.1259 196.054 94.2728 199.1 98.2132Z" stroke="#1D2474" stroke-linecap="round" stroke-linejoin="round"/>
<path d="M191.174 112.881C191.174 112.881 184.363 125.03 183.75 131.001C183.136 136.972 187.229 147.313 187.553 150.186C187.878 153.059 189.94 152.134 190.997 151.708C192.053 151.282 196.677 147.191 194.508 139.654C194.508 139.654 194.977 134.469 194.358 132.559C194.358 132.559 199.28 126.437 200.69 121.187" stroke="#1D2474" stroke-linecap="round" stroke-linejoin="round"/>
<path d="M194.538 146.952C194.812 147.224 200.238 162.66 200.675 165.116C201.127 167.665 206.895 165.864 207.488 161.732C207.76 159.831 207.568 154.111 205.01 150.076C205.01 150.076 205.355 137.85 203.363 135.471C203.363 135.471 207.359 128.873 207.32 127.646" stroke="#1D2474" stroke-linecap="round" stroke-linejoin="round"/>
<path d="M185.216 140.496C187.471 141.525 188.645 144.014 189.4 146.376C189.991 148.217 190.433 150.147 190.239 152.069" stroke="#1D2474" stroke-linecap="round" stroke-linejoin="round"/>
<path d="M197.512 155.146C198.453 155.695 199.272 156.431 199.917 157.31C201.913 159.838 203.197 162.855 203.635 166.048" stroke="#1D2474" stroke-linecap="round" stroke-linejoin="round"/>
<path d="M207.663 158.306C207.958 158.306 213.219 166.533 213.812 168.428C214.405 170.323 219.177 167.497 219.418 164.484C219.66 161.472 219.548 154.73 216.013 151.182C216.013 151.182 216.577 142.019 214.585 139.604L215.47 136.796" stroke="#1D2474" stroke-linecap="round" stroke-linejoin="round"/>
<path d="M209.02 160.177C209.129 160.012 209.38 160.053 209.569 160.121C212.986 161.365 215.954 164.617 217.111 168.073" stroke="#1D2474" stroke-linecap="round" stroke-linejoin="round"/>
<path d="M216.052 143.851C216.052 143.851 232.361 165.466 236.332 171.124C240.304 176.781 250.18 189.058 254.438 189.075C258.696 189.093 256.046 183.997 255.383 181.96C254.497 179.256 248.256 170.328 248.256 170.328" stroke="#1D2474" stroke-linecap="round" stroke-linejoin="round"/>
<path d="M306.502 157.305L302.123 152.491C292.418 157.121 263.659 197.931 262.396 198.7C262.396 198.7 289.137 223.699 306.502 230.85" stroke="#1D2474" stroke-linecap="round" stroke-linejoin="round"/>
<path d="M300.91 153.189C300.91 153.189 293.736 149.58 292.468 149.178C292.468 149.178 263.329 185.294 260.871 190.461L264.961 195.519" stroke="#1D2474" stroke-linecap="round" stroke-linejoin="round"/>
</g>
<g clip-path="url(#clip21)">
<path d="M124.907 181.523C124.907 186.159 96.9661 189.905 62.5028 189.905C28.0395 189.905 0.0981445 186.152 0.0981445 181.523" stroke="#1D2474" stroke-linecap="round" stroke-linejoin="round"/>
<path d="M116.258 174.302C121.754 175.553 124.907 177.008 124.907 178.568C124.907 183.205 96.9661 186.951 62.5028 186.951C28.0395 186.951 0.0981445 183.197 0.0981445 178.568C0.0981445 177.014 3.24616 175.558 8.74776 174.302" stroke="#1D2474" stroke-linecap="round" stroke-linejoin="round"/>
<path d="M124.907 178.563V181.526" stroke="#1D2474" stroke-linecap="round" stroke-linejoin="round"/>
<path d="M0.0925293 178.563V181.526" stroke="#1D2474" stroke-linecap="round" stroke-linejoin="round"/>
<path d="M81.7981 148.451C101.718 149.603 115.839 152.489 115.839 155.869C115.839 160.261 91.9513 163.822 62.4989 163.822C33.0465 163.822 9.16797 160.261 9.16797 155.869C9.16797 152.425 23.8599 149.491 44.4127 148.386" stroke="#1D2474" stroke-linecap="round" stroke-linejoin="round"/>
<path d="M115.848 175.206C115.848 179.597 91.9606 183.158 62.5082 183.158C33.0558 183.158 9.17725 179.597 9.17725 175.206" stroke="#1D2474" stroke-linecap="round" stroke-linejoin="round"/>
<path d="M115.839 155.866V175.204" stroke="#1D2474" stroke-linecap="round" stroke-linejoin="round"/>
<path d="M9.16064 155.866V175.204" stroke="#1D2474" stroke-linecap="round" stroke-linejoin="round"/>
<path d="M35.1262 111.603C36.3595 114.634 37.7798 119.867 38.5427 124.916C39.2649 129.708 39.176 133.282 41.8037 137.655C41.8904 140.353 42.6794 142.981 44.0925 145.279C43.998 147.633 44.7425 150.161 45.9202 152.698C46.0665 156.148 48.1016 156.14 50.1904 156.135C59.8825 156.109 66.8563 156.081 76.5503 156.055C78.7317 156.055 80.6649 155.183 80.439 152.104C81.4335 150.073 82.082 147.89 82.3575 145.645C83.4685 142.731 84.024 139.946 83.9592 137.299C85.1349 135.212 85.9353 132.935 86.3239 130.57C86.3869 127.623 87.0776 126.581 87.1628 125.007C87.4276 120.034 89.6608 115.095 91.1459 110.726" stroke="#1D2474" stroke-linecap="round" stroke-linejoin="round"/>
<path d="M102.516 82.2777L103.751 82.185V83.5982C104.323 83.9172 104.758 85.5919 104.758 87.6098C104.758 89.6276 104.323 91.3042 103.751 91.6232V93.0271L102.299 92.8788" stroke="#1D2474" stroke-linecap="round" stroke-linejoin="round"/>
<path d="M89.5387 60.3283C88.1065 56.7398 87.2569 52.9449 87.0221 49.0874C86.9758 48.3456 86.711 47.8411 86.3037 47.5036L86.2314 44.6215C85.8543 42.6907 85.0991 40.8539 84.0093 39.2171C84.0686 37.0936 83.5427 34.8569 82.4983 32.5182C82.2353 30.7693 81.8279 29.0297 80.8446 27.3253C81.0613 24.8512 79.5484 24.1557 77.4892 24.152L50.0627 24.0889C48.0942 24.0889 46.174 24.0778 46.0369 26.8468C44.9259 28.8869 44.4296 30.9103 44.5166 32.8001C43.2078 34.581 42.457 36.7113 42.3593 38.9204C40.2057 41.9731 39.4298 44.946 39.7668 47.8541C39.3206 47.9338 39.3687 48.6479 39.2798 49.1523C38.5576 53.214 37.9484 57.0771 36.7781 59.5067" stroke="#1D2474" stroke-linecap="round" stroke-linejoin="round"/>
<path d="M32.2171 108.016C30.2986 105.919 28.6987 103.936 26.3544 102.304C25.2433 101.529 24.3656 101.611 24.1563 99.9285C23.5119 91.4807 23.2582 83.6857 24.1211 75.1822C24.2359 73.2238 25.097 73.5279 26.3173 72.7174C29.1394 70.8443 30.419 68.8895 31.5708 66.243" stroke="#1D2474" stroke-linecap="round" stroke-linejoin="round"/>
<path fill-rule="evenodd" clip-rule="evenodd" d="M44.7129 112.213C41.8452 110.051 39.3146 107.473 37.204 104.565C32.1431 93.1699 32.2375 81.6935 37.0799 69.5401C39.1622 66.0101 41.9182 62.9252 45.1907 60.4618C56.1624 56.7952 69.3452 56.823 80.315 60.4896C83.6223 62.9711 86.6703 65.6825 88.8036 69.249C93.6478 81.4042 93.3867 93.1736 88.3258 104.565C86.2152 107.473 83.6846 110.051 80.8169 112.213C70.3822 117.098 55.1476 117.098 44.7129 112.213Z" stroke="#1D2474" stroke-linecap="round" stroke-linejoin="round"/>
<path d="M61.1123 85.6664C60.7512 85.4605 60.3197 85.2157 60.066 85.0674L59.1623 85.366L50.8294 79.7168C49.0146 78.4853 50.5405 76.6455 52.2275 77.7694L60.5086 83.2943L60.5808 84.5796C60.7789 84.715 61.1363 84.9505 61.4326 85.1508" stroke="#1D2474" stroke-linecap="round" stroke-linejoin="round"/>
<path d="M63.0325 88.7152H63.1343C63.5141 88.7104 63.886 88.606 64.213 88.4124C64.54 88.2188 64.8106 87.9428 64.9979 87.6119C65.1852 87.2809 65.2827 86.9066 65.2806 86.5262C65.2785 86.1458 65.177 85.7725 64.9861 85.4437L65.862 84.7445L66.799 84.9114C69.2766 82.6469 77.2522 74.9892 79.7317 72.7247C81.3502 71.241 79.628 69.7072 78.1188 71.291C75.6504 73.5166 67.6378 80.8331 65.1713 83.0531C65.2083 83.4815 65.2472 83.908 65.2842 84.3365L64.6046 84.9596C64.4226 84.7878 64.2128 84.6479 63.9843 84.546" stroke="#1D2474" stroke-linecap="round" stroke-linejoin="round"/>
<path d="M62.9434 84.3699C62.4443 84.4062 61.973 84.6138 61.609 84.9577C61.245 85.3015 61.0106 85.7606 60.9453 86.2575C60.8801 86.7544 60.9879 87.2586 61.2507 87.685C61.5135 88.1115 61.9151 88.4341 62.3878 88.5985" stroke="#1D2474" stroke-linecap="round" stroke-linejoin="round"/>
<path d="M63.5843 86.2617L65.412 78.2775L64.8139 77.5468L63.901 78.0346L62.7029 86.0094" stroke="#1D2474" stroke-linecap="round" stroke-linejoin="round"/>
<path d="M62.5843 87.0054C62.5612 87.4579 62.5117 87.9087 62.4362 88.3555L58.7048 109.63L58.9826 109.673L63.0065 88.4946C63.1917 87.5265 63.0861 88.0922 63.3065 87.1296" stroke="#1D2474" stroke-linecap="round" stroke-linejoin="round"/>
<path d="M63.3638 87.0981C63.4996 87.0132 63.5978 86.8793 63.6381 86.7241C63.6784 86.5688 63.6578 86.404 63.5804 86.2635" stroke="#1D2474" stroke-linecap="round" stroke-linejoin="round"/>
<path d="M63.5806 86.2632C63.5279 86.1655 63.4504 86.0836 63.3559 86.0256C63.2614 85.9677 63.1532 85.9358 63.0424 85.9333C62.9316 85.9307 62.8221 85.9576 62.7251 86.0112C62.628 86.0648 62.5469 86.1432 62.4899 86.2384C62.4328 86.3335 62.402 86.4421 62.4005 86.5531C62.3989 86.6641 62.4268 86.7735 62.4811 86.8702C62.5355 86.967 62.6144 87.0475 62.71 87.1038C62.8055 87.1601 62.9142 87.19 63.025 87.1905C63.1425 87.1907 63.2575 87.1573 63.3565 87.0941" stroke="#1D2474" stroke-linecap="round" stroke-linejoin="round"/>
<path d="M93.2754 108.016C95.1938 105.919 97.2215 103.936 99.5603 102.304C100.671 101.529 101.549 101.611 101.756 99.9285L102.295 92.8698C101.877 92.2071 101.457 91.5462 101.036 90.8872C99.8751 89.2829 99.3196 87.5489 99.8862 85.557C100.282 84.0881 101.012 82.8808 102.512 82.278C102.271 79.914 102.031 77.5487 101.792 75.1822C101.677 73.2237 100.818 73.5279 99.5955 72.7174C97.0429 71.0457 95.0447 68.6512 93.855 65.8386" stroke="#1D2474" stroke-linecap="round" stroke-linejoin="round"/>
<path d="M73.9355 43.6295H52.2494C51.5837 43.6295 51.0439 44.17 51.0439 44.8368V47.411C51.0439 48.0778 51.5837 48.6184 52.2494 48.6184H73.9355C74.6013 48.6184 75.141 48.0778 75.141 47.411V44.8368C75.141 44.17 74.6013 43.6295 73.9355 43.6295Z" stroke="#1D2474" stroke-linecap="round" stroke-linejoin="round"/>
<path d="M72.7855 36.9473H53.4012C52.9635 36.9473 52.6086 37.3027 52.6086 37.7411V39.4307C52.6086 39.8691 52.9635 40.2245 53.4012 40.2245H72.7855C73.2232 40.2245 73.5781 39.8691 73.5781 39.4307V37.7411C73.5781 37.3027 73.2232 36.9473 72.7855 36.9473Z" stroke="#1D2474" stroke-linecap="round" stroke-linejoin="round"/>
<path d="M72.0672 30.9307H54.1217C53.6839 30.9307 53.3291 31.2861 53.3291 31.7245V33.414C53.3291 33.8524 53.6839 34.2078 54.1217 34.2078H72.0672C72.5049 34.2078 72.8597 33.8524 72.8597 33.414V31.7245C72.8597 31.2861 72.5049 30.9307 72.0672 30.9307Z" stroke="#1D2474" stroke-linecap="round" stroke-linejoin="round"/>
<path d="M71.5043 26.0326H54.6829C54.4118 26.0326 54.1921 26.2527 54.1921 26.5241V27.5757C54.1921 27.8471 54.4118 28.0671 54.6829 28.0671H71.5043C71.7754 28.0671 71.9951 27.8471 71.9951 27.5757V26.5241C71.9951 26.2527 71.7754 26.0326 71.5043 26.0326Z" stroke="#1D2474" stroke-linecap="round" stroke-linejoin="round"/>
<path d="M52.6643 127.275H73.5152C73.913 127.275 74.2945 127.433 74.5758 127.715C74.8571 127.997 75.0151 128.379 75.0151 128.777V131.984C75.0151 132.382 74.8571 132.764 74.5758 133.046C74.2945 133.328 73.913 133.486 73.5152 133.486H52.6643C52.2665 133.486 51.8849 133.328 51.6036 133.046C51.3224 132.764 51.1643 132.382 51.1643 131.984V128.786C51.1633 128.588 51.2014 128.392 51.2763 128.209C51.3513 128.026 51.4616 127.859 51.6009 127.719C51.7403 127.578 51.9059 127.467 52.0884 127.391C52.2709 127.314 52.4666 127.275 52.6643 127.275V127.275Z" stroke="#1D2474" stroke-linecap="round" stroke-linejoin="round"/>
<path d="M53.4626 135.824H72.721C72.9823 135.824 73.2328 135.928 73.4176 136.113C73.6023 136.298 73.7061 136.549 73.7061 136.811V138.918C73.7061 139.18 73.6021 139.432 73.417 139.617C73.2319 139.802 72.9809 139.906 72.7191 139.906H53.4607C53.1995 139.906 52.9489 139.803 52.7641 139.618C52.5794 139.432 52.4756 139.182 52.4756 138.92V136.811C52.4761 136.549 52.5803 136.298 52.7653 136.113C52.9504 135.928 53.2011 135.824 53.4626 135.824Z" stroke="#1D2474" stroke-linecap="round" stroke-linejoin="round"/>
<path d="M54.3068 143.056H71.8708C72.1326 143.056 72.3837 143.16 72.5688 143.345C72.7539 143.53 72.8578 143.782 72.8578 144.044V146.151C72.8578 146.28 72.8324 146.409 72.7828 146.528C72.7333 146.648 72.6608 146.757 72.5693 146.849C72.4778 146.94 72.3692 147.013 72.2497 147.062C72.1302 147.112 72.0021 147.138 71.8727 147.138H54.3068C54.1772 147.138 54.0489 147.112 53.9291 147.062C53.8094 147.013 53.7006 146.94 53.6089 146.848C53.5173 146.756 53.4446 146.647 53.395 146.527C53.3454 146.407 53.3198 146.279 53.3198 146.149V144.044C53.3196 143.914 53.3449 143.785 53.3945 143.665C53.444 143.545 53.5167 143.436 53.6084 143.344C53.7001 143.253 53.809 143.18 53.9288 143.13C54.0487 143.081 54.1771 143.055 54.3068 143.056Z" stroke="#1D2474" stroke-linecap="round" stroke-linejoin="round"/>
<path d="M71.3451 149.66H54.8329C54.4944 149.66 54.22 149.935 54.22 150.274V151.58C54.22 151.919 54.4944 152.194 54.8329 152.194H71.3451C71.6836 152.194 71.9581 151.919 71.9581 151.58V150.274C71.9581 149.935 71.6836 149.66 71.3451 149.66Z" stroke="#1D2474" stroke-linecap="round" stroke-linejoin="round"/>
<path d="M86.1647 84.6946H81.6001C81.46 84.6946 81.3464 84.8084 81.3464 84.9487V88.7266C81.3464 88.8669 81.46 88.9806 81.6001 88.9806H86.1647C86.3048 88.9806 86.4184 88.8669 86.4184 88.7266V84.9487C86.4184 84.8084 86.3048 84.6946 86.1647 84.6946Z" stroke="#1D2474" stroke-linecap="round" stroke-linejoin="round"/>
<path d="M74.2371 65.401L71.2317 70.6146L72.5563 71.3806L75.5617 66.167L74.2371 65.401Z" stroke="#1D2474" stroke-linecap="round" stroke-linejoin="round"/>
<path d="M64.8081 62.6077H63.2786V68.6018H64.8081V62.6077Z" stroke="#1D2474" stroke-linecap="round" stroke-linejoin="round"/>
<path d="M62.5398 62.6097H61.0103V68.6001H62.5398V62.6097Z" stroke="#1D2474" stroke-linecap="round" stroke-linejoin="round"/>
<path d="M51.6652 65.4026L50.3406 66.1685L53.346 71.3821L54.6706 70.6161L51.6652 65.4026Z" stroke="#1D2474" stroke-linecap="round" stroke-linejoin="round"/>
<path d="M42.6373 73.88L41.8726 75.2067L47.0781 78.2168L47.8429 76.8901L42.6373 73.88Z" stroke="#1D2474" stroke-linecap="round" stroke-linejoin="round"/>
<path d="M45.0685 85.746H39.0576V87.2779H45.0685V85.746Z" stroke="#1D2474" stroke-linecap="round" stroke-linejoin="round"/>
<path d="M47.6555 95.2132L42.426 98.2233L43.1908 99.5561L48.4203 96.546L47.6555 95.2132Z" stroke="#1D2474" stroke-width="1.00344" stroke-linecap="round" stroke-linejoin="round"/>
<path d="M53.3458 101.64L50.3403 106.853L51.665 107.619L54.6704 102.406L53.3458 101.64Z" stroke="#1D2474" stroke-linecap="round" stroke-linejoin="round"/>
<path d="M63.7158 104.422H62.1863V110.442H63.7158V104.422Z" stroke="#1D2474" stroke-linecap="round" stroke-linejoin="round"/>
<path d="M72.5561 101.642L71.2314 102.408L74.2369 107.622L75.5615 106.856L72.5561 101.642Z" stroke="#1D2474" stroke-linecap="round" stroke-linejoin="round"/>
<path d="M78.8219 94.8053L78.0571 96.132L83.2627 99.142L84.0275 97.8153L78.8219 94.8053Z" stroke="#1D2474" stroke-linecap="round" stroke-linejoin="round"/>
<path d="M83.2634 73.8842L78.0579 76.8942L78.8226 78.2209L84.0282 75.2108L83.2634 73.8842Z" stroke="#1D2474" stroke-linecap="round" stroke-linejoin="round"/>
<path fill-rule="evenodd" clip-rule="evenodd" d="M40.0018 102.3C35.4964 92.148 35.265 81.6656 39.574 70.8383C40.8703 68.674 42.5369 66.8509 44.3886 65.2095C45.259 64.4417 46.1719 63.7129 47.1089 63.01C56.8714 59.744 68.6228 59.744 78.3834 63.01C81.3259 65.2188 84.0184 67.6614 85.9183 70.8383C90.2273 81.6656 89.9922 92.148 85.4924 102.3C83.6156 104.891 81.3645 107.187 78.813 109.114C69.5283 113.465 55.9715 113.465 46.6867 109.114C45.8732 108.503 45.1084 107.87 44.3924 107.213C42.7693 105.727 41.2996 104.081 40.0055 102.3H40.0018ZM44.3886 57.2625C41.5406 58.1898 36.0964 64.5511 34.5428 67.2014C29.2967 80.6344 29.58 93.6372 35.0613 106.23C37.3382 109.437 40.0792 112.286 43.1943 114.683C43.5868 114.869 43.985 115.054 44.3886 115.227C55.6363 120.075 71.3893 119.895 82.2981 114.683C85.4131 112.286 88.1542 109.437 90.431 106.23C95.9141 93.6372 96.1974 80.6363 90.9514 67.2014C88.6385 63.264 85.3627 60.2299 81.7759 57.4924C70.1227 53.518 56.1344 53.442 44.3886 57.2625Z" stroke="#1D2474" stroke-linecap="round" stroke-linejoin="round"/>
<path d="M81.7761 57.4926C85.3593 60.2338 88.6277 63.2642 90.9479 67.2053C96.194 80.6384 95.9107 93.6411 90.4276 106.234" stroke="#1D2474" stroke-linecap="round" stroke-linejoin="round"/>
<path d="M93.2755 108.016C99.3197 94.407 99.6327 80.3545 93.8477 65.8384C92.6338 63.8376 91.1874 61.988 89.5387 60.3283C88.6498 59.4195 84.4945 55.5935 83.5408 55.2763C83.2019 55.165 82.8982 55.0686 82.5557 54.961" stroke="#1D2474" stroke-linecap="round" stroke-linejoin="round"/>
<path d="M82.5557 54.9611C70.5785 51.2519 56.5217 51.0979 44.3889 54.5309C43.5013 54.7781 42.6241 55.0483 41.7575 55.3413C40.0158 56.6285 38.353 58.0195 36.7781 59.5068C33.8597 62.3073 32.019 64.5866 30.6876 68.3793C26.0156 81.6955 26.4952 94.6186 31.8431 107.167C31.9666 107.45 32.09 107.733 32.2135 108.016" stroke="#1D2474" stroke-linecap="round" stroke-linejoin="round"/>
<path d="M35.0613 106.234C29.58 93.6411 29.2967 80.6402 34.5428 67.2053C36.0964 64.555 41.5406 58.19 44.3886 57.2626C56.1344 53.4384 70.1282 53.5144 81.7796 57.4889" stroke="#1D2474" stroke-linecap="round" stroke-linejoin="round"/>
<path d="M90.4313 106.234C88.1544 109.441 85.4134 112.29 82.2983 114.687C71.3896 119.899 55.6328 120.079 44.3889 115.231C43.9852 115.055 43.5871 114.875 43.1945 114.687C40.0795 112.29 37.3384 109.441 35.0615 106.234" stroke="#1D2474" stroke-linecap="round" stroke-linejoin="round"/>
<path d="M32.217 108.016C34.7368 111.491 37.7593 114.57 41.1852 117.152C42.2172 117.635 43.2851 118.077 44.3887 118.48C56.6104 122.946 72.8745 122.503 84.3073 117.152C87.7336 114.571 90.7562 111.491 93.2754 108.016" stroke="#1D2474" stroke-linecap="round" stroke-linejoin="round"/>
</g>
<defs>
<clipPath id="clip20">
<rect width="238" height="238" fill="#1D2474" transform="translate(116)"/>
</clipPath>
<clipPath id="clip21">
<rect width="125" height="166" fill="#1D2474" transform="translate(0 24)"/>
</clipPath>
</defs>
</svg>
