<svg width="233" height="172" viewBox="0 0 233 172" fill="none" xmlns="http://www.w3.org/2000/svg">
<g clip-path="url(#clip30)">
<path d="M16.6227 28.293H0.105469V171.906H116.501V26.3247C116.501 26.3247 82.2908 -7.11605 33.9231 1.53876V144.749C33.9231 144.749 99.5932 140.808 116.501 171.896" stroke="#1D2474" stroke-linecap="round" stroke-linejoin="round"/>
<path d="M24.4603 17.6792H16.6228V156.562C16.6228 156.562 88.5832 154.595 116.501 171.905" stroke="#1D2474" stroke-linecap="round" stroke-linejoin="round"/>
<path d="M216.381 28.2918H232.896V171.905H116.501V26.3235C116.501 26.3235 150.711 -7.11728 199.079 1.53752V144.747C199.079 144.747 133.411 140.806 116.501 171.894" stroke="#1D2474" stroke-linecap="round" stroke-linejoin="round"/>
<path d="M116.501 171.894C144.421 154.576 216.381 156.551 216.381 156.551V17.6792H199.072" stroke="#1D2474" stroke-linecap="round" stroke-linejoin="round"/>
<path d="M186.433 67.42L186.771 67.0272H189.557L189.926 67.8382C189.975 67.8382 190.023 67.8382 190.074 67.8382C190.392 67.8393 190.696 67.966 190.921 68.1907C191.145 68.4155 191.272 68.7199 191.273 69.0377V72.9913C191.272 73.3091 191.145 73.6136 190.921 73.8383C190.696 74.0631 190.392 74.1898 190.074 74.1909C190.026 74.1941 189.978 74.1941 189.93 74.1909L189.46 75.2469H186.644L186.433 74.7612" stroke="#1D2474" stroke-linecap="round" stroke-linejoin="round"/>
<path d="M184.388 58.9133C180.763 51.5109 175.604 31.6986 173.762 27.4451C173.141 26.0153 172.2 24.5116 170.456 24.5222H148.714C147.6 24.5602 146.766 24.9319 146.226 25.6542C145.833 26.2507 145.492 26.8795 145.206 27.5338C143.558 31.3733 141.407 42.0789 133.673 60.4001" stroke="#1D2474" stroke-linecap="round" stroke-linejoin="round"/>
<path d="M185.306 81.8828C177.384 97.7668 174.409 114.793 172.339 132.027L170.823 134.426H148.189L146.673 132.027C144.602 114.793 141.628 97.7668 133.706 81.8828" stroke="#1D2474" stroke-linecap="round" stroke-linejoin="round"/>
<path d="M162.836 91.8284C174.308 89.9899 182.118 79.1947 180.28 67.7166C178.443 56.2386 167.653 48.4242 156.181 50.2626C144.71 52.1011 136.899 62.8963 138.737 74.3744C140.574 85.8525 151.364 93.6669 162.836 91.8284Z" stroke="#1D2474" stroke-linecap="round" stroke-linejoin="round"/>
<path fill-rule="evenodd" clip-rule="evenodd" d="M135.064 81.3021C133.641 74.6684 133.362 67.9165 135.023 60.9639C138.635 55.0779 143.568 50.5879 149.094 46.7251C152.564 45.7705 156.035 45.4453 159.507 45.4579C162.979 45.4706 166.447 45.779 169.918 46.7251C175.444 50.5879 180.377 55.0779 183.988 60.9639C185.65 67.9165 185.371 74.6684 183.948 81.3021C180.149 87.3254 175.399 91.7647 170.118 95.3403C166.981 96.3308 163.387 96.5842 159.507 96.6075C155.625 96.5737 152.03 96.3202 148.896 95.3403C143.619 91.7647 138.857 87.3148 135.064 81.3021ZM159.507 44.0281C155.843 44.0281 152.18 44.3682 148.516 45.3756C142.684 49.4538 137.476 54.193 133.664 60.4043C131.912 67.7433 132.206 74.8712 133.706 81.8723C137.717 88.2314 142.732 92.9158 148.307 96.6898C151.617 97.7352 155.41 98.0014 159.507 98.0373C163.602 98.0014 167.397 97.7352 170.707 96.6898C176.282 92.9158 181.303 88.2314 185.306 81.8723C186.806 74.8712 187.102 67.7433 185.348 60.4043C181.536 54.193 176.328 49.4538 170.496 45.3756C166.834 44.3682 163.169 44.026 159.507 44.0281Z" stroke="#1D2474" stroke-linecap="round" stroke-linejoin="round"/>
<path fill-rule="evenodd" clip-rule="evenodd" d="M159.507 50.0113C163.668 50.0113 167.735 51.2458 171.194 53.5585C174.654 55.8713 177.35 59.1585 178.942 63.0045C180.534 66.8504 180.951 71.0824 180.139 75.1653C179.328 79.2482 177.324 82.9985 174.382 85.9421C171.44 88.8857 167.692 90.8903 163.611 91.7024C159.53 92.5146 155.301 92.0978 151.457 90.5047C147.613 88.9117 144.327 86.2139 142.016 82.7526C139.704 79.2913 138.47 75.222 138.47 71.0591C138.47 65.4769 140.687 60.1233 144.632 56.1761C148.577 52.2288 153.928 50.0113 159.507 50.0113V50.0113ZM135.021 60.9745C133.36 67.9271 133.639 74.679 135.061 81.3127C138.861 87.336 143.612 91.7753 148.894 95.3508C152.028 96.3414 155.623 96.5948 159.505 96.618C163.385 96.5842 166.979 96.3308 170.116 95.3508C175.393 91.7753 180.155 87.3254 183.946 81.3127C185.369 74.679 185.648 67.9271 183.986 60.9745C180.375 55.0885 175.442 50.5984 169.916 46.7357C166.445 45.7811 162.975 45.4558 159.505 45.4685C156.035 45.4812 152.562 45.7895 149.092 46.7357C143.568 50.5879 138.635 55.0779 135.021 60.9745Z" stroke="#1D2474" stroke-linecap="round" stroke-linejoin="round"/>
<path fill-rule="evenodd" clip-rule="evenodd" d="M158.112 69.9057L157.861 70.2668C157.567 70.0894 157.31 70.0049 157.016 69.8275L156.28 70.0599L149.586 65.3819C148.13 64.3639 149.39 62.8919 150.743 63.8211L157.392 68.3977C157.407 68.7441 157.42 69.0926 157.434 69.4389C157.673 69.6037 157.878 69.7409 158.112 69.9057Z" stroke="#1D2474" stroke-linecap="round" stroke-linejoin="round"/>
<path fill-rule="evenodd" clip-rule="evenodd" d="M160.997 70.1951L161.715 69.6397L162.473 69.7854C164.512 67.9797 170.283 62.5773 172.309 60.7737C173.639 59.5931 172.263 58.328 171.02 59.5931C168.991 61.3608 163.209 66.4929 161.177 68.2521L161.253 69.2912L160.693 69.7896C160.374 69.4772 159.949 69.2972 159.503 69.2859C159.057 69.2747 158.623 69.433 158.289 69.7291C157.955 70.0251 157.745 70.4368 157.702 70.8813C157.659 71.3258 157.786 71.7701 158.058 72.1246C158.329 72.4791 158.725 72.7176 159.165 72.7919C159.605 72.8663 160.057 72.771 160.429 72.5253C160.802 72.2796 161.068 71.9018 161.173 71.4678C161.279 71.0339 161.216 70.5761 160.997 70.1867V70.1951Z" stroke="#1D2474" stroke-linecap="round" stroke-linejoin="round"/>
<path d="M173.793 69.5784H170.293V72.3978H173.793V69.5784Z" stroke="#1D2474" stroke-linecap="round" stroke-linejoin="round"/>
<path d="M169.006 54.5919L166.616 58.7334" stroke="#1D2474" stroke-linecap="round" stroke-linejoin="round"/>
<path d="M160.375 52.0682V56.8307" stroke="#1D2474" stroke-linecap="round" stroke-linejoin="round"/>
<path d="M158.57 52.0704V56.8308" stroke="#1D2474" stroke-linecap="round" stroke-linejoin="round"/>
<path d="M150.004 54.5919L152.394 58.7334" stroke="#1D2474" stroke-linecap="round" stroke-linejoin="round"/>
<path d="M143.049 61.5507L147.188 63.9414" stroke="#1D2474" stroke-linecap="round" stroke-linejoin="round"/>
<path d="M140.505 71.0567H145.286" stroke="#1D2474" stroke-linecap="round" stroke-linejoin="round"/>
<path d="M147.188 78.1722L143.049 80.563" stroke="#1D2474" stroke-linecap="round" stroke-linejoin="round"/>
<path d="M152.394 83.3802L150.004 87.5218" stroke="#1D2474" stroke-linecap="round" stroke-linejoin="round"/>
<path d="M159.505 85.2849V90.0664" stroke="#1D2474" stroke-linecap="round" stroke-linejoin="round"/>
<path d="M166.616 83.3802L169.006 87.5218" stroke="#1D2474" stroke-linecap="round" stroke-linejoin="round"/>
<path d="M171.822 78.1722L175.961 80.563" stroke="#1D2474" stroke-linecap="round" stroke-linejoin="round"/>
<path d="M175.623 71.0567H178.505" stroke="#1D2474" stroke-linecap="round" stroke-linejoin="round"/>
<path d="M171.822 63.9414L175.961 61.5507" stroke="#1D2474" stroke-linecap="round" stroke-linejoin="round"/>
<path d="M153.495 34.2452H148.951C148.672 34.2452 148.446 34.4712 148.446 34.7499V39.6328C148.446 39.9116 148.672 40.1375 148.951 40.1375H153.495C153.774 40.1375 154 39.9116 154 39.6328V34.7499C154 34.4712 153.774 34.2452 153.495 34.2452Z" stroke="#1D2474" stroke-linecap="round" stroke-linejoin="round"/>
<path d="M170.156 34.2452H165.612C165.333 34.2452 165.107 34.4712 165.107 34.7499V39.6328C165.107 39.9116 165.333 40.1375 165.612 40.1375H170.156C170.435 40.1375 170.661 39.9116 170.661 39.6328V34.7499C170.661 34.4712 170.435 34.2452 170.156 34.2452Z" stroke="#1D2474" stroke-linecap="round" stroke-linejoin="round"/>
<path d="M169.462 28.4356H165.422C165.248 28.4356 165.107 28.5765 165.107 28.7503V31.5719C165.107 31.7457 165.248 31.8865 165.422 31.8865H169.462C169.636 31.8865 169.776 31.7457 169.776 31.5719V28.7503C169.776 28.5765 169.636 28.4356 169.462 28.4356Z" stroke="#1D2474" stroke-linecap="round" stroke-linejoin="round"/>
<path d="M153.685 28.4356H149.645C149.472 28.4356 149.331 28.5765 149.331 28.7503V31.5719C149.331 31.7457 149.472 31.8865 149.645 31.8865H153.685C153.859 31.8865 154 31.7457 154 31.5719V28.7503C154 28.5765 153.859 28.4356 153.685 28.4356Z" stroke="#1D2474" stroke-linecap="round" stroke-linejoin="round"/>
<path d="M169.054 25.6159H165.246C165.17 25.6159 165.107 25.6783 165.107 25.7553V27.0119C165.107 27.0889 165.17 27.1513 165.246 27.1513H169.054C169.131 27.1513 169.194 27.0889 169.194 27.0119V25.7553C169.194 25.6783 169.131 25.6159 169.054 25.6159Z" stroke="#1D2474" stroke-linecap="round" stroke-linejoin="round"/>
<path d="M153.861 25.6159H150.053C149.976 25.6159 149.914 25.6783 149.914 25.7553V27.0119C149.914 27.0889 149.976 27.1513 150.053 27.1513H153.861C153.938 27.1513 154 27.0889 154 27.0119V25.7553C154 25.6783 153.938 25.6159 153.861 25.6159Z" stroke="#1D2474" stroke-linecap="round" stroke-linejoin="round"/>
<path d="M171.59 108.054H176.255V108.029V107.985C176.31 107.75 176.362 107.516 176.417 107.279V107.254L176.428 107.203V107.176L176.592 106.475L176.609 106.403H171.562" stroke="#1D2474" stroke-linecap="round" stroke-linejoin="round"/>
<path d="M154.017 108.052H165.287" stroke="#1D2474" stroke-linecap="round" stroke-linejoin="round"/>
<path d="M147.716 106.403H142.375L142.392 106.475C142.449 106.709 142.502 106.943 142.557 107.176V107.203L142.57 107.254V107.279C142.622 107.516 142.677 107.75 142.73 107.985L142.741 108.029V108.054H147.699" stroke="#1D2474" stroke-linecap="round" stroke-linejoin="round"/>
<path d="M165.287 106.403H154.017" stroke="#1D2474" stroke-linecap="round" stroke-linejoin="round"/>
<path d="M153.445 102.337H148.286C147.97 102.337 147.714 102.594 147.714 102.91V108.454C147.714 108.77 147.97 109.026 148.286 109.026H153.445C153.761 109.026 154.017 108.77 154.017 108.454V102.91C154.017 102.594 153.761 102.337 153.445 102.337Z" stroke="#1D2474" stroke-linecap="round" stroke-linejoin="round"/>
<path d="M171.018 103H165.859C165.543 103 165.287 103.256 165.287 103.572V109.116C165.287 109.432 165.543 109.689 165.859 109.689H171.018C171.333 109.689 171.59 109.432 171.59 109.116V103.572C171.59 103.256 171.333 103 171.018 103Z" stroke="#1D2474" stroke-linecap="round" stroke-linejoin="round"/>
<path d="M170.142 112.362H165.732C165.486 112.362 165.287 112.562 165.287 112.808V116.814C165.287 117.061 165.486 117.26 165.732 117.26H170.142C170.388 117.26 170.587 117.061 170.587 116.814V112.808C170.587 112.562 170.388 112.362 170.142 112.362Z" stroke="#1D2474" stroke-linecap="round" stroke-linejoin="round"/>
<path fill-rule="evenodd" clip-rule="evenodd" d="M154.019 113.351V112.813C154.019 112.695 153.971 112.582 153.888 112.498C153.805 112.415 153.692 112.367 153.574 112.367H149.164C149.046 112.367 148.933 112.415 148.85 112.498C148.766 112.582 148.719 112.695 148.719 112.813V116.825C148.719 116.943 148.766 117.056 148.85 117.14C148.933 117.223 149.046 117.27 149.164 117.271H153.574C153.692 117.27 153.805 117.223 153.888 117.14C153.971 117.056 154.019 116.943 154.019 116.825V113.351Z" stroke="#1D2474" stroke-linecap="round" stroke-linejoin="round"/>
<path d="M169.601 120.466H165.681C165.463 120.466 165.287 120.643 165.287 120.861V124.424C165.287 124.642 165.463 124.819 165.681 124.819H169.601C169.819 124.819 169.996 124.642 169.996 124.424V120.861C169.996 120.643 169.819 120.466 169.601 120.466Z" stroke="#1D2474" stroke-linecap="round" stroke-linejoin="round"/>
<path d="M153.622 120.466H149.702C149.484 120.466 149.308 120.643 149.308 120.861V124.424C149.308 124.642 149.484 124.819 149.702 124.819H153.622C153.84 124.819 154.017 124.642 154.017 124.424V120.861C154.017 120.643 153.84 120.466 153.622 120.466Z" stroke="#1D2474" stroke-linecap="round" stroke-linejoin="round"/>
<path d="M168.788 128.035H165.637C165.444 128.035 165.287 128.192 165.287 128.386V131.915C165.287 132.109 165.444 132.266 165.637 132.266H168.788C168.982 132.266 169.139 132.109 169.139 131.915V128.386C169.139 128.192 168.982 128.035 168.788 128.035Z" stroke="#1D2474" stroke-linecap="round" stroke-linejoin="round"/>
<path d="M153.666 128.035H150.515C150.321 128.035 150.165 128.192 150.165 128.386V131.915C150.165 132.109 150.321 132.266 150.515 132.266H153.666C153.86 132.266 154.017 132.109 154.017 131.915V128.386C154.017 128.192 153.86 128.035 153.666 128.035Z" stroke="#1D2474" stroke-linecap="round" stroke-linejoin="round"/>
<path fill-rule="evenodd" clip-rule="evenodd" d="M149.094 46.7252L148.516 45.3757C142.684 49.4539 137.476 54.1931 133.664 60.4044C131.912 67.7434 132.206 74.8713 133.706 81.8724L133.757 81.9527L133.919 81.8724L135.064 81.3022C133.641 74.6685 133.362 67.9166 135.023 60.964C135.15 60.7528 135.277 60.5543 135.406 60.3537C138.979 54.7654 143.76 50.4549 149.094 46.7252Z" stroke="#1D2474" stroke-linecap="round" stroke-linejoin="round"/>
<path fill-rule="evenodd" clip-rule="evenodd" d="M148.516 45.3756L149.094 46.7251C152.565 45.7705 156.035 45.4453 159.507 45.4579C162.98 45.4706 166.448 45.779 169.918 46.7251L170.496 45.3756C166.834 44.3682 163.169 44.026 159.507 44.0281C155.845 44.0303 152.181 44.3682 148.516 45.3756Z" stroke="#1D2474" stroke-linecap="round" stroke-linejoin="round"/>
<path fill-rule="evenodd" clip-rule="evenodd" d="M169.918 46.7247C174.802 50.1398 179.22 54.0427 182.676 58.9741C183.131 59.6232 183.569 60.2898 183.988 60.9741L185.348 60.4144C185.037 59.9076 184.717 59.4106 184.387 58.9234C180.683 53.4323 175.853 49.1324 170.496 45.3857L169.918 46.7247Z" stroke="#1D2474" stroke-linecap="round" stroke-linejoin="round"/>
<path fill-rule="evenodd" clip-rule="evenodd" d="M183.993 60.9746C185.654 67.9272 185.375 74.6791 183.953 81.3127L184.837 81.883L185.166 82.0942L185.299 81.883C185.84 79.3916 186.211 76.8662 186.407 74.3243C186.579 72.0949 186.589 69.8561 186.439 67.6251C186.275 65.1953 185.908 62.7835 185.342 60.4149L183.993 60.9746Z" stroke="#1D2474" stroke-linecap="round" stroke-linejoin="round"/>
<path fill-rule="evenodd" clip-rule="evenodd" d="M183.585 81.8829C179.853 87.6189 175.231 91.8893 170.118 95.3508L170.707 96.7003C176.218 92.9664 181.192 88.3454 185.173 82.094L184.843 81.8829L183.948 81.3126C183.828 81.4943 183.708 81.6843 183.585 81.8829Z" stroke="#1D2474" stroke-linecap="round" stroke-linejoin="round"/>
<path fill-rule="evenodd" clip-rule="evenodd" d="M159.507 96.618C155.625 96.5842 152.031 96.3308 148.896 95.3508C143.781 91.8893 139.159 87.6189 135.429 81.8829C135.306 81.6949 135.184 81.5048 135.064 81.3126L133.92 81.8829L133.757 81.9631C137.753 88.28 142.756 92.9453 148.307 96.7003C151.617 97.7458 155.41 98.0119 159.507 98.0478C163.602 98.0119 167.397 97.7458 170.707 96.7003L170.118 95.3508C166.982 96.3308 163.387 96.5842 159.507 96.618Z" stroke="#1D2474" stroke-linecap="round" stroke-linejoin="round"/>
<path d="M148.894 95.3403L148.305 96.6899" stroke="#1D2474" stroke-linecap="round" stroke-linejoin="round"/>
<path d="M133.664 60.402L135.024 60.9617" stroke="#1D2474" stroke-linecap="round" stroke-linejoin="round"/>
<path d="M170.75 113.349H175.009" stroke="#1D2474" stroke-linecap="round" stroke-linejoin="round"/>
<path d="M154.194 113.349H165.08" stroke="#1D2474" stroke-linecap="round" stroke-linejoin="round"/>
<path d="M144.011 113.349H148.717" stroke="#1D2474" stroke-linecap="round" stroke-linejoin="round"/>
<path d="M170.75 114.694H174.868" stroke="#1D2474" stroke-linecap="round" stroke-linejoin="round"/>
<path d="M154.194 114.694H165.08" stroke="#1D2474" stroke-linecap="round" stroke-linejoin="round"/>
<path d="M169.996 121.97L173.681 121.968" stroke="#1D2474" stroke-linecap="round" stroke-linejoin="round"/>
<path d="M154.194 121.97H165.08" stroke="#1D2474" stroke-linecap="round" stroke-linejoin="round"/>
<path d="M145.329 121.968L149.308 121.97" stroke="#1D2474" stroke-linecap="round" stroke-linejoin="round"/>
<path d="M169.996 122.859L173.551 122.857" stroke="#1D2474" stroke-linecap="round" stroke-linejoin="round"/>
<path d="M145.58 122.857L149.308 122.859" stroke="#1D2474" stroke-linecap="round" stroke-linejoin="round"/>
<path d="M154.194 122.859H165.08" stroke="#1D2474" stroke-linecap="round" stroke-linejoin="round"/>
<path d="M169.31 130.673L172.501 130.669" stroke="#1D2474" stroke-linecap="round" stroke-linejoin="round"/>
<path d="M154.194 130.673H165.08" stroke="#1D2474" stroke-linecap="round" stroke-linejoin="round"/>
<path d="M146.599 130.669L150.07 130.673" stroke="#1D2474" stroke-linecap="round" stroke-linejoin="round"/>
<path d="M169.229 131.467L172.404 131.463" stroke="#1D2474" stroke-linecap="round" stroke-linejoin="round"/>
<path d="M146.751 131.463L150.165 131.465" stroke="#1D2474" stroke-linecap="round" stroke-linejoin="round"/>
<path d="M154.194 131.465H165.08" stroke="#1D2474" stroke-linecap="round" stroke-linejoin="round"/>
<path d="M144.265 114.694H148.716" stroke="#1D2474" stroke-linecap="round" stroke-linejoin="round"/>
<path d="M142.232 36.8767H148.446" stroke="#1D2474" stroke-linecap="round" stroke-linejoin="round"/>
<path d="M142.675 35.4219H148.446" stroke="#1D2474" stroke-linecap="round" stroke-linejoin="round"/>
<path d="M154 37.0457L165.107 36.8767" stroke="#1D2474" stroke-linecap="round" stroke-linejoin="round"/>
<path d="M154.078 35.4219H164.907" stroke="#1D2474" stroke-linecap="round" stroke-linejoin="round"/>
<path d="M170.661 36.8767H176.71" stroke="#1D2474" stroke-linecap="round" stroke-linejoin="round"/>
<path d="M170.939 35.4219H176.398" stroke="#1D2474" stroke-linecap="round" stroke-linejoin="round"/>
<path d="M144.294 30.4352H149.331" stroke="#1D2474" stroke-linecap="round" stroke-linejoin="round"/>
<path d="M144.436 29.7067H149.331" stroke="#1D2474" stroke-linecap="round" stroke-linejoin="round"/>
<path d="M154 30.6042L165.107 30.4352" stroke="#1D2474" stroke-linecap="round" stroke-linejoin="round"/>
<path d="M154.078 29.7067H164.907" stroke="#1D2474" stroke-linecap="round" stroke-linejoin="round"/>
<path d="M146.371 25.6159H172.683" stroke="#1D2474" stroke-linecap="round" stroke-linejoin="round"/>
<path d="M154.078 26.1669H165.029" stroke="#1D2474" stroke-linecap="round" stroke-linejoin="round"/>
<path d="M169.941 30.4352H174.836" stroke="#1D2474" stroke-linecap="round" stroke-linejoin="round"/>
<path d="M169.941 29.7067H174.596" stroke="#1D2474" stroke-linecap="round" stroke-linejoin="round"/>
<path d="M149.914 26.1125H146.08" stroke="#1D2474" stroke-linecap="round" stroke-linejoin="round"/>
<path d="M173.029 26.1125H169.194" stroke="#1D2474" stroke-linecap="round" stroke-linejoin="round"/>
<path d="M111.576 169.237H3.02051V31.2463H16.6206" stroke="#1D2474" stroke-linecap="round" stroke-linejoin="round"/>
<path d="M121.248 169.237H229.802V31.2463H216.202" stroke="#1D2474" stroke-linecap="round" stroke-linejoin="round"/>
<path d="M33.9231 10.452H24.4602V149.453C24.4602 149.453 97.59 153.759 116.493 171.894" stroke="#1D2474" stroke-linecap="round" stroke-linejoin="round"/>
<path fill-rule="evenodd" clip-rule="evenodd" d="M73.554 48.1572L82.4448 66.1785L102.323 69.0698L87.9393 83.0974L91.3336 102.905L73.554 93.5537L55.7766 102.905L59.1708 83.0974L44.7876 69.0698L64.6653 66.1785L73.554 48.1572Z" stroke="#342885" stroke-miterlimit="10"/>
</g>
<defs>
<clipPath id="clip30">
<rect width="233" height="172" fill="white"/>
</clipPath>
</defs>
</svg>
