<svg width="126" height="126" viewBox="0 0 126 126" fill="none" xmlns="http://www.w3.org/2000/svg">
<g opacity="0.25">
<path d="M99.75 15.75H26.25C20.451 15.75 15.75 20.451 15.75 26.25V99.75C15.75 105.549 20.451 110.25 26.25 110.25H99.75C105.549 110.25 110.25 105.549 110.25 99.75V26.25C110.25 20.451 105.549 15.75 99.75 15.75Z" stroke="#374151" stroke-linecap="round" stroke-linejoin="round"/>
<path d="M44.6251 52.5001C48.9744 52.5001 52.5001 48.9743 52.5001 44.6251C52.5001 40.2758 48.9744 36.7501 44.6251 36.7501C40.2759 36.7501 36.7501 40.2758 36.7501 44.6251C36.7501 48.9743 40.2759 52.5001 44.6251 52.5001Z" stroke="#374151" stroke-linecap="round" stroke-linejoin="round"/>
<path d="M110.25 78.7501L83.9999 52.5001L26.2499 110.25" stroke="#374151" stroke-linecap="round" stroke-linejoin="round"/>
</g>
</svg>
