<svg width="100" height="100" viewBox="0 0 100 100" fill="none" xmlns="http://www.w3.org/2000/svg">
<circle cx="50" cy="50" r="49.5" stroke="#C28D3F"/>
<path d="M59.3709 37.4672C58.0192 34.2718 55.5322 31.621 52.337 29.9701C49.1419 28.3193 45.4381 27.7716 41.8621 28.4211C38.286 29.0706 35.061 30.8767 32.741 33.5292C30.4209 36.1816 29.1508 39.5148 29.1488 42.9561V62.3738L35.3194 54.729C37.4462 56.266 39.9556 57.2601 42.6064 57.6157" stroke="#C28D3F" stroke-miterlimit="10"/>
<path d="M57.1738 37.3235C61.3283 37.3235 65.3126 38.8831 68.2502 41.6593C71.1878 44.4354 72.8382 48.2007 72.8382 52.1268V71.5444L66.6708 63.8997C64.6928 65.3246 62.3841 66.2839 59.9359 66.6982C57.4877 67.1125 54.9702 66.97 52.5919 66.2823C50.2135 65.5947 48.0426 64.3817 46.2588 62.7438C44.475 61.1058 43.1295 59.09 42.3337 56.8631C41.5379 54.6362 41.3147 52.2623 41.6825 49.9376C42.0503 47.613 42.9985 45.4046 44.4488 43.4951C45.8991 41.5856 47.8097 40.0298 50.0225 38.9566C52.2352 37.8835 54.6866 37.3236 57.1738 37.3235Z" stroke="#C28D3F" stroke-miterlimit="10"/>
<path d="M51.1392 48.2738C51.1392 47.1459 51.4931 46.0433 52.1562 45.1054C52.8193 44.1676 53.7618 43.4366 54.8645 43.005C55.9672 42.5733 57.1805 42.4604 58.3512 42.6804C59.5218 42.9005 60.5971 43.4436 61.4411 44.2412C62.285 45.0388 62.8597 46.0549 63.0926 47.1612C63.3254 48.2675 63.2059 49.4142 62.7492 50.4562C62.2924 51.4983 61.519 52.389 60.5266 53.0156C59.5342 53.6423 58.3674 53.9768 57.1738 53.9768V58.2364" stroke="#C28D3F" stroke-miterlimit="10"/>
<path d="M57.1739 62.2117C57.8762 62.2117 58.4455 61.6737 58.4455 61.0099C58.4455 60.3462 57.8762 59.8082 57.1739 59.8082C56.4716 59.8082 55.9022 60.3462 55.9022 61.0099C55.9022 61.6737 56.4716 62.2117 57.1739 62.2117Z" stroke="#C28D3F" stroke-miterlimit="10"/>
</svg>
