<svg width="50" height="50" viewBox="0 0 50 50" fill="none" xmlns="http://www.w3.org/2000/svg">
<circle cx="25" cy="25" r="24.5" transform="matrix(-1 0 0 1 50 7.62939e-06)" stroke="#8A8A8A"/>
<path d="M37.5856 21.5857C36.8054 18.6739 35.0397 16.1228 32.5894 14.3669C30.1391 12.611 27.1557 11.7591 24.1477 11.9563C21.1397 12.1534 18.2931 13.3875 16.0929 15.4481C13.8928 17.5088 12.4752 20.2686 12.0817 23.2573" stroke="#8A8A8A" stroke-linejoin="round"/>
<path d="M39.7156 15.4078L38.0295 21.7006L31.7366 20.0144" stroke="#8A8A8A" stroke-linejoin="round"/>
<path d="M12.4144 28.3303C13.1946 31.2421 14.9603 33.7932 17.4106 35.5491C19.8609 37.305 22.8442 38.1569 25.8522 37.9597C28.8603 37.7626 31.7069 36.5285 33.907 34.4679C36.1072 32.4072 37.5248 29.6474 37.9182 26.6587" stroke="#8A8A8A" stroke-linejoin="round"/>
<path d="M10.2843 34.5082L11.9705 28.2154L18.2633 29.9016" stroke="#8A8A8A" stroke-linejoin="round"/>
</svg>
