<svg width="30" height="28" viewBox="0 0 30 28" fill="none" xmlns="http://www.w3.org/2000/svg">
<path fill-rule="evenodd" clip-rule="evenodd" d="M2.06234 12.1465C10.1154 8.38323 15.4854 5.90225 18.1722 4.70356C25.8438 1.28105 27.4379 0.686528 28.4769 0.666896C28.7054 0.662579 29.2163 0.723323 29.5473 1.01138C29.8268 1.25461 29.9037 1.58318 29.9405 1.81379C29.9773 2.0444 30.0231 2.56973 29.9867 2.98021C29.5709 7.66535 27.7721 19.035 26.857 24.2824C26.4697 26.5028 25.7073 27.2473 24.9691 27.3201C23.3649 27.4785 22.1467 26.183 20.593 25.0906C18.1617 23.3811 16.7882 22.317 14.4282 20.6489C11.7008 18.7211 13.4688 17.6616 15.0232 15.93C15.4299 15.4768 22.4981 8.58115 22.6349 7.9556C22.652 7.87736 22.6679 7.58574 22.5063 7.43175C22.3448 7.27776 22.1064 7.33042 21.9344 7.3723C21.6905 7.43166 17.8065 10.1852 10.2823 15.633C9.17983 16.445 8.18124 16.8406 7.28655 16.8199C6.30022 16.797 4.40291 16.2217 2.99246 15.7299C1.26249 15.1268 -0.112459 14.8079 0.00726778 13.7835C0.0696291 13.25 0.754654 12.7043 2.06234 12.1465Z" fill="#1491D8"/>
</svg>
