<svg width="100" height="100" viewBox="0 0 100 100" fill="none" xmlns="http://www.w3.org/2000/svg">
<circle cx="50" cy="50" r="49.5" stroke="#C28D3F"/>
<path d="M46.9604 68.4475C57.3138 68.4475 65.7069 59.9644 65.7069 49.5C65.7069 39.0356 57.3138 30.5525 46.9604 30.5525C36.6071 30.5525 28.214 39.0356 28.214 49.5C28.214 59.9644 36.6071 68.4475 46.9604 68.4475Z" stroke="#C28D3F" stroke-miterlimit="10"/>
<path d="M30.6958 36.5771L34.41 26.9757H59.5065L63.2207 36.5771" stroke="#C28D3F" stroke-miterlimit="10"/>
<path d="M63.2207 62.4229L59.5065 72.0243H34.41L30.6958 62.4229" stroke="#C28D3F" stroke-miterlimit="10"/>
<path d="M64.7013 58.9932L68.5353 54.6337V52.5967H70.7861V46.4034H68.5353V44.362L64.7013 40.0068" stroke="#C28D3F" stroke-miterlimit="10"/>
<path d="M56.8235 73.6634L55.2745 83.7837H38.6419L37.0972 73.6634" stroke="#C28D3F" stroke-miterlimit="10"/>
<path d="M37.0972 25.3323L38.6419 15.2162H55.2745L56.8235 25.3323" stroke="#C28D3F" stroke-miterlimit="10"/>
<path d="M46.9604 64.6632C55.246 64.6632 61.9627 57.8744 61.9627 49.5C61.9627 41.1256 55.246 34.3368 46.9604 34.3368C38.6749 34.3368 31.9581 41.1256 31.9581 49.5C31.9581 57.8744 38.6749 64.6632 46.9604 64.6632Z" stroke="#C28D3F" stroke-miterlimit="10"/>
<path d="M56.1431 40.2144L46.9603 49.5L41.3077 43.7868" stroke="#C28D3F" stroke-miterlimit="10"/>
</svg>
