<svg width="30" height="32" viewBox="0 0 30 32" fill="none" xmlns="http://www.w3.org/2000/svg">
<path d="M0 31.0121L2.15417 23.0095C0.416886 19.8921 -0.135067 16.2543 0.599597 12.7637C1.33426 9.27314 3.30626 6.16389 6.15373 4.00652C9.0012 1.84915 12.5331 0.788374 16.1014 1.01885C19.6697 1.24932 23.035 2.75558 25.5798 5.26122C28.1245 7.76687 29.678 11.1038 29.9553 14.6598C30.2325 18.2157 29.2148 21.7521 27.0889 24.62C24.9631 27.4879 21.8717 29.4949 18.382 30.2728C14.8923 31.0507 11.2384 30.5473 8.09086 28.8549L0 31.0121ZM8.48098 25.8603L8.98136 26.1564C11.2612 27.5043 13.9241 28.0621 16.5549 27.7428C19.1858 27.4236 21.6369 26.2452 23.5262 24.3914C25.4156 22.5376 26.6371 20.1124 27.0003 17.4938C27.3636 14.8753 26.8483 12.2104 25.5346 9.91447C24.2209 7.61855 22.1827 5.82058 19.7376 4.80073C17.2925 3.78089 14.5779 3.59645 12.0167 4.27618C9.45559 4.9559 7.1918 6.4616 5.57815 8.55863C3.9645 10.6557 3.09162 13.2262 3.09556 15.8697C3.09342 18.0616 3.70115 20.2111 4.85112 22.0789L5.16492 22.595L3.96062 27.0615L8.48098 25.8603Z" fill="#03A400"/>
<path fill-rule="evenodd" clip-rule="evenodd" d="M20.6255 17.9246C20.3322 17.6886 19.9887 17.5225 19.6213 17.439C19.2539 17.3554 18.8722 17.3566 18.5053 17.4424C17.954 17.6708 17.5978 18.5337 17.2416 18.9651C17.1665 19.0685 17.0561 19.1411 16.9312 19.1691C16.8063 19.1971 16.6754 19.1787 16.5631 19.1174C14.5449 18.3289 12.8533 16.883 11.7629 15.0146C11.6699 14.898 11.6259 14.7499 11.6401 14.6016C11.6543 14.4533 11.7257 14.3163 11.8392 14.2194C12.2365 13.8271 12.5282 13.3412 12.6873 12.8067C12.7226 12.217 12.5872 11.6297 12.2972 11.1148C12.073 10.3928 11.6462 9.74996 11.0674 9.26217C10.7689 9.12824 10.4379 9.08334 10.1144 9.13287C9.79082 9.18241 9.48856 9.32426 9.24404 9.54133C8.81954 9.90664 8.4826 10.3623 8.25803 10.8747C8.03346 11.3871 7.92699 11.9432 7.94644 12.5021C7.94776 12.816 7.98763 13.1285 8.06518 13.4327C8.26211 14.1635 8.56497 14.8617 8.96416 15.5052C9.25217 15.9982 9.56642 16.4754 9.90555 16.9349C11.0077 18.444 12.3931 19.7253 13.9849 20.7078C14.7837 21.207 15.6374 21.6129 16.5292 21.9174C17.4556 22.3363 18.4784 22.4971 19.4891 22.3827C20.0649 22.2958 20.6105 22.069 21.0778 21.7224C21.5451 21.3757 21.9199 20.9198 22.1691 20.3948C22.3155 20.0776 22.3599 19.723 22.2963 19.3796C22.1436 18.6775 21.2022 18.263 20.6255 17.9246Z" fill="#03A400"/>
</svg>
