<svg width="90" height="90" viewBox="0 0 90 90" fill="none" xmlns="http://www.w3.org/2000/svg">
<path d="M45 90C68.3026 90 87.4684 72.2878 89.7686 49.5918H0.231386C2.53161 72.2878 21.6973 90 45 90Z" fill="#1C2473"/>
<path d="M13.3271 46.8367L14.8433 41.2136C14.903 40.9987 14.9388 40.7718 14.9507 40.545H15.0104C15.0224 40.7718 15.0582 40.9987 15.1179 41.2136L16.6341 46.8367H19.0816L21.4932 38.3602H19.2845L17.9474 43.864C17.8877 44.1266 17.8399 44.3654 17.828 44.6042H17.7922C17.7683 44.3654 17.7086 44.1266 17.637 43.864L16.0849 38.3602H13.8763L12.3242 43.864C12.2526 44.1266 12.1929 44.3654 12.169 44.6042H12.1332C12.1213 44.3654 12.0735 44.1266 12.0138 43.864L10.6767 38.3602H8.46799L10.8796 46.8367H13.3271Z" fill="#1C2473"/>
<path d="M31.9026 46.8367L28.3329 38.3602H25.7422L22.1725 46.8367H24.4289L25.1452 44.9743H28.9298L29.6462 46.8367H31.9026ZM26.6137 41.1419C26.7331 40.8077 26.9241 40.2824 27.0196 39.8406H27.0555C27.151 40.2824 27.33 40.8077 27.4614 41.1419L28.3687 43.5058H25.7064L26.6137 41.1419Z" fill="#1C2473"/>
<path d="M32.0781 38.3602V40.0675H34.9912V46.8367H37.1641V40.0675H40.0771V38.3602H32.0781Z" fill="#1C2473"/>
<path d="M46.1578 47.0755C48.5336 47.0755 50.0976 45.9533 50.6229 44.1028L48.4261 43.6252C48.1754 44.7355 47.3994 45.3563 46.2055 45.3563C44.6296 45.3563 43.6745 44.2699 43.6745 42.5985C43.6745 40.8912 44.6177 39.8287 46.1697 39.8287C47.3994 39.8287 48.1754 40.4734 48.3903 41.6195L50.6109 41.2255C50.2408 39.3153 48.6172 38.1214 46.2055 38.1214C43.3044 38.1214 41.4181 39.9361 41.4181 42.6224C41.4181 45.3205 43.1731 47.0755 46.1578 47.0755Z" fill="#1C2473"/>
<path d="M59.3891 38.3602V41.7389H55.3299V38.3602H53.1571V46.8367H55.3299V43.3387H59.3891V46.8367H61.55V38.3602H59.3891Z" fill="#1C2473"/>
<path d="M66.9147 43.267H71.4992V41.7628H66.9147V39.9242H71.7022V38.3602H64.7419V46.8367H71.7858V45.2728H66.9147V43.267Z" fill="#1C2473"/>
<path d="M78.1586 47.0755C80.7374 47.0755 82.1939 45.9891 82.1939 44.2699C82.1939 42.7656 81.3105 42.0612 79.46 41.7747L77.7647 41.5121C76.7857 41.3568 76.4395 41.1061 76.4395 40.5689C76.4395 40.0078 77.0364 39.6854 78.0512 39.6854C79.3048 39.6854 80.2718 40.1749 80.7852 41.0106L82.182 39.8406C81.3941 38.6826 79.9614 38.1214 78.1825 38.1214C75.7828 38.1214 74.3621 39.1004 74.3621 40.7002C74.3621 42.1806 75.2814 42.9686 77.0125 43.2551L78.7556 43.5058C79.6868 43.661 80.0569 43.8879 80.0569 44.4729C80.0569 45.1414 79.3764 45.4518 78.2542 45.4518C76.8693 45.4518 75.8903 44.831 75.353 43.9117L73.7652 45.022C74.4576 46.2756 76.0455 47.0755 78.1586 47.0755Z" fill="#1C2473"/>
<path fill-rule="evenodd" clip-rule="evenodd" d="M45 89.0816C69.3456 89.0816 89.0816 69.3456 89.0816 45C89.0816 20.6544 69.3456 0.918367 45 0.918367C20.6544 0.918367 0.918367 20.6544 0.918367 45C0.918367 69.3456 20.6544 89.0816 45 89.0816ZM45 90C69.8528 90 90 69.8528 90 45C90 20.1472 69.8528 0 45 0C20.1472 0 0 20.1472 0 45C0 69.8528 20.1472 90 45 90Z" fill="#1C2473"/>
<path d="M24.6613 62.4489L22.6317 59.0106C23.8853 58.6047 24.3987 57.6137 24.3987 56.6109C24.3987 55.1663 23.5152 53.9724 21.1394 53.9724H16.543V62.4489H18.7158V59.2971H20.4589L22.2616 62.4489H24.6613ZM20.6738 55.4648C21.7363 55.4648 22.1184 55.9662 22.1184 56.6348C22.1184 57.3272 21.7244 57.8645 20.6738 57.8645H18.7158V55.4648H20.6738Z" fill="white"/>
<path d="M29.1175 58.8793H33.702V57.375H29.1175V55.5364H33.9049V53.9724H26.9446V62.4489H33.9885V60.885H29.1175V58.8793Z" fill="white"/>
<path d="M36.6001 53.9724V62.4489H38.773V59.5359H41.1488C43.1784 59.5359 44.4558 58.4375 44.4558 56.6945C44.4558 55.023 43.2023 53.9724 41.1965 53.9724H36.6001ZM38.773 58.0316V55.4886H40.6712C41.6263 55.4886 42.1755 55.9543 42.1755 56.7542C42.1755 57.566 41.6144 58.0316 40.6712 58.0316H38.773Z" fill="white"/>
<path d="M51.0293 62.6877C53.9543 62.6877 55.8407 60.9447 55.8407 58.2107C55.8407 55.4767 53.9543 53.7336 51.0293 53.7336C48.1163 53.7336 46.218 55.4767 46.218 58.2107C46.218 60.9327 48.1163 62.6877 51.0293 62.6877ZM51.0293 61.0282C49.4654 61.0282 48.4864 59.9299 48.4864 58.2107C48.4864 56.4796 49.4654 55.3931 51.0293 55.3931C52.6053 55.3931 53.5842 56.4796 53.5842 58.2107C53.5842 59.9418 52.6053 61.0282 51.0293 61.0282Z" fill="white"/>
<path d="M66.3029 62.4489L64.2734 59.0106C65.5269 58.6047 66.0403 57.6137 66.0403 56.6109C66.0403 55.1663 65.1568 53.9724 62.781 53.9724H58.1846V62.4489H60.3574V59.2971H62.1005L63.9033 62.4489H66.3029ZM62.3154 55.4648C63.3779 55.4648 63.76 55.9662 63.76 56.6348C63.76 57.3272 63.366 57.8645 62.3154 57.8645H60.3574V55.4648H62.3154Z" fill="white"/>
<path d="M67.529 53.9724V55.6797H70.4421V62.4489H72.6149V55.6797H75.528V53.9724H67.529Z" fill="white"/>
</svg>
