<svg width="100" height="167" viewBox="0 0 100 167" fill="none" xmlns="http://www.w3.org/2000/svg">
<path d="M92.4585 76.7686H95.19C96.8468 76.7686 98.19 78.1117 98.19 79.7686V87.2315C98.19 88.8884 96.8468 90.2315 95.19 90.2315H92.4585V76.7686Z" stroke="#A8A8B5" stroke-width="2"/>
<path d="M26.5407 129.569C26.5407 128.907 27.078 128.369 27.7407 128.369H67.037C67.6998 128.369 68.237 128.907 68.237 129.569V163C68.237 164.767 66.8043 166.2 65.037 166.2H29.7407C27.9734 166.2 26.5407 164.767 26.5407 163V129.569Z" fill="white" stroke="#A8A8B5" stroke-width="1.6"/>
<path d="M26.5407 4C26.5407 2.23269 27.9734 0.8 29.7407 0.8H65.037C66.8043 0.8 68.237 2.23269 68.237 4V37.4306C68.237 38.0933 67.6998 38.6306 67.037 38.6306H27.7407C27.078 38.6306 26.5407 38.0933 26.5407 37.4306V4Z" fill="white" stroke="#A8A8B5" stroke-width="1.6"/>
<path d="M15.5374 45.5935C17.1119 41.521 18.847 34.5924 19.7437 30.6595C19.9141 29.9118 20.5776 29.3799 21.3462 29.3799H25.0112C25.9133 29.3799 26.6446 30.1094 26.6446 31.0094V42.4011C32.8868 39.2825 39.9324 37.5274 47.3889 37.5274C54.8454 37.5274 61.891 39.2825 68.1332 42.4011V31.0094C68.1332 30.1094 68.8645 29.3799 69.7666 29.3799H73.4316C74.2002 29.3799 74.8636 29.9118 75.0341 30.6595C75.9308 34.5924 77.6658 41.521 79.2404 45.5935C81.0045 50.1561 82.3453 52.8448 83.7337 55.0446C90.0217 62.9421 93.7778 72.9361 93.7778 83.8054C93.7778 93.1593 90.996 101.865 86.2126 109.144L85.3239 110.448C83.9355 112.648 81.0045 117.618 79.2404 122.18C77.6658 126.253 75.9308 133.181 75.0341 137.114C74.8636 137.862 74.2002 138.394 73.4316 138.394H69.7666C68.8645 138.394 68.1332 137.664 68.1332 136.764V125.21L67.3165 125.608C61.279 128.477 54.522 130.083 47.3889 130.083C39.9324 130.083 32.8868 128.328 26.6446 125.21L26.6446 126.661V136.764C26.6446 137.664 25.9133 138.394 25.0112 138.394H21.3462C20.5776 138.394 19.9141 137.862 19.7437 137.114C18.847 133.181 17.1119 126.253 15.5374 122.18C14.0229 118.263 11.6284 113.86 10.0654 111.292L9.24873 110.155C4.04787 102.677 1 93.5964 1 83.8054C1 73.1961 4.57856 63.4207 10.5972 55.6149C11.9856 53.4151 13.7733 50.1561 15.5374 45.5935Z" fill="white" stroke="#A8A8B5" stroke-width="1.6"/>
<path d="M81.2 83.5C81.2 102.675 65.8775 118.2 47 118.2C28.1225 118.2 12.8 102.675 12.8 83.5C12.8 64.325 28.1225 48.8 47 48.8C65.8775 48.8 81.2 64.325 81.2 83.5Z" fill="white" stroke="#A8A8B5" stroke-width="1.6"/>
<circle cx="47.0024" cy="10.1181" r="1.90602" fill="white" stroke="#A8A8B5" stroke-width="1.6"/>
<circle cx="47.0024" cy="22.4882" r="1.90602" fill="white" stroke="#A8A8B5" stroke-width="1.6"/>
<circle cx="47.0024" cy="142.738" r="1.90602" fill="white" stroke="#A8A8B5" stroke-width="1.6"/>
<circle cx="47.0024" cy="155.108" r="1.90602" fill="white" stroke="#A8A8B5" stroke-width="1.6"/>
<path d="M30.3794 74.2267L47.1874 85.9676L65.9442 62" stroke="#BD9E5E" stroke-width="1.6"/>
<circle cx="47.3891" cy="85.1943" r="4.61204" fill="white" stroke="#BD9E5E" stroke-width="1.6"/>
</svg>
