<svg width="93" height="163" viewBox="0 0 93 163" fill="none" xmlns="http://www.w3.org/2000/svg">
<path d="M29.8 122C29.8 121.337 30.3373 120.8 31 120.8H63C63.6627 120.8 64.2 121.337 64.2 122V159C64.2 160.767 62.7673 162.2 61 162.2H33C31.2327 162.2 29.8 160.767 29.8 159V122Z" fill="white" stroke="#D6D6E0" stroke-width="1.6"/>
<path d="M67.2 128C67.2 129.767 65.7673 131.2 64 131.2L30 131.2C28.2327 131.2 26.8 129.767 26.8 128L26.8 119C26.8 117.233 28.2327 115.8 30 115.8L64 115.8C65.7673 115.8 67.2 117.233 67.2 119L67.2 128Z" fill="white" stroke="#D6D6E0" stroke-width="1.6"/>
<path d="M64.2 48C64.2 48.6627 63.6627 49.2 63 49.2L31 49.2C30.3373 49.2 29.8 48.6627 29.8 48L29.8 4C29.8 2.23269 31.2327 0.8 33 0.8L61 0.800003C62.7673 0.800003 64.2 2.23269 64.2 4L64.2 48Z" fill="white" stroke="#D6D6E0" stroke-width="1.6"/>
<path d="M67.2 44C67.2 45.7673 65.7673 47.2 64 47.2L30 47.2C28.2327 47.2 26.8 45.7673 26.8 44L26.8 35C26.8 33.2327 28.2327 31.8 30 31.8L64 31.8C65.7673 31.8 67.2 33.2327 67.2 35L67.2 44Z" fill="white" stroke="#D6D6E0" stroke-width="1.6"/>
<circle cx="46.5" cy="81.5" r="45.7" fill="white" stroke="#D6D6E0" stroke-width="1.6"/>
<path d="M80.2 81C80.2 99.899 65.1012 115.2 46.5 115.2C27.8988 115.2 12.8 99.899 12.8 81C12.8 62.101 27.8988 46.8 46.5 46.8C65.1012 46.8 80.2 62.101 80.2 81Z" fill="white" stroke="#D6D6E0" stroke-width="1.6"/>
<path d="M30 71.2267L47.1206 81.9214L65.5648 59" stroke="#D6D6E0" stroke-width="1.6"/>
<circle cx="47.0097" cy="82.1952" r="4.61204" fill="white" stroke="#D6D6E0" stroke-width="1.6"/>
</svg>
