<svg width="83" height="169" viewBox="0 0 83 169" fill="none" xmlns="http://www.w3.org/2000/svg">
<path d="M75.0163 80.2453H76.5854C79.1665 80.2453 81.2588 82.3377 81.2588 84.9187C81.2588 87.4998 79.1665 89.5922 76.5854 89.5922H75.0163V80.2453Z" stroke="#A8A8B5" stroke-width="1.6"/>
<path d="M57.2 134C57.2 135.767 55.7673 137.2 54 137.2L25 137.2C23.2327 137.2 21.8 135.767 21.8 134L21.8 125C21.8 123.233 23.2327 121.8 25 121.8L54 121.8C55.7673 121.8 57.2 123.233 57.2 125L57.2 134Z" fill="white" stroke="#A8A8B5" stroke-width="1.6"/>
<path d="M55.2 148C55.2 149.767 53.7673 151.2 52 151.2L27 151.2C25.2327 151.2 23.8 149.767 23.8 148L23.8 140C23.8 138.233 25.2327 136.8 27 136.8L52 136.8C53.7673 136.8 55.2 138.233 55.2 140L55.2 148Z" fill="white" stroke="#A8A8B5" stroke-width="1.6"/>
<path d="M54.2 157C54.2 158.767 52.7673 160.2 51 160.2L28 160.2C26.2327 160.2 24.8 158.767 24.8 157L24.8 154C24.8 152.233 26.2327 150.8 28 150.8L51 150.8C52.7673 150.8 54.2 152.233 54.2 154L54.2 157Z" fill="white" stroke="#A8A8B5" stroke-width="1.6"/>
<path d="M53.2 165C53.2 166.767 51.7673 168.2 50 168.2L29 168.2C27.2327 168.2 25.8 166.767 25.8 165L25.8 163C25.8 161.233 27.2327 159.8 29 159.8L50 159.8C51.7673 159.8 53.2 161.233 53.2 163L53.2 165Z" fill="white" stroke="#A8A8B5" stroke-width="1.6"/>
<path d="M21.8 35C21.8 33.2327 23.2327 31.8 25 31.8L54 31.8C55.7673 31.8 57.2 33.2327 57.2 35L57.2 44C57.2 45.7673 55.7673 47.2 54 47.2L25 47.2C23.2327 47.2 21.8 45.7673 21.8 44L21.8 35Z" fill="white" stroke="#A8A8B5" stroke-width="1.6"/>
<path d="M23.8 21C23.8 19.2327 25.2327 17.8 27 17.8L52 17.8C53.7673 17.8 55.2 19.2327 55.2 21L55.2 29C55.2 30.7673 53.7673 32.2 52 32.2L27 32.2C25.2327 32.2 23.8 30.7673 23.8 29L23.8 21Z" fill="white" stroke="#A8A8B5" stroke-width="1.6"/>
<path d="M24.8 12C24.8 10.2327 26.2327 8.8 28 8.8L51 8.8C52.7673 8.8 54.2 10.2327 54.2 12L54.2 15C54.2 16.7673 52.7673 18.2 51 18.2L28 18.2C26.2327 18.2 24.8 16.7673 24.8 15L24.8 12Z" fill="white" stroke="#A8A8B5" stroke-width="1.6"/>
<path d="M25.8 4C25.8 2.23269 27.2327 0.8 29 0.8L50 0.8C51.7673 0.8 53.2 2.23269 53.2 4L53.2 6C53.2 7.76731 51.7673 9.2 50 9.2L29 9.2C27.2327 9.2 25.8 7.76731 25.8 6L25.8 4Z" fill="white" stroke="#A8A8B5" stroke-width="1.6"/>
<path d="M13.0068 53.1559C14.3073 49.7867 15.7404 44.0546 16.481 40.8008C16.6217 40.1823 17.1697 39.7422 17.8045 39.7422H20.6509C21.396 39.7422 22 40.3458 22 41.0903V50.5148C27.1557 47.9347 33.1554 46.4828 39.3139 46.4828C45.4725 46.4828 51.8443 47.9347 57 50.5148V41.0903C57 40.3458 57.604 39.7422 58.3491 39.7422H60.8234C61.4582 39.7422 62.0062 40.1823 62.1469 40.8008C62.8875 44.0546 64.3206 49.7867 65.6211 53.1559C67.0781 56.9307 68.1855 59.155 69.3322 60.975C74.5256 67.5087 77.6279 75.777 77.6279 84.7692C77.6279 92.5079 75.3303 99.7103 71.3796 105.732L70.6455 106.811C69.4988 108.631 67.0781 112.743 65.6211 116.517C64.3206 119.887 62.8875 125.619 62.1469 128.872C62.0062 129.491 61.4582 129.931 60.8234 129.931L58.3491 129.848C57.604 129.848 57 129.245 57 128.5V118.941L56.3255 119.27C51.3389 121.644 45.2054 123.056 39.3139 123.056C33.1554 123.056 27.1557 121.521 22 118.941L22 120.142V128.5C22 129.245 21.396 129.848 20.6509 129.848H17.6239C16.9891 129.848 16.6217 129.491 16.481 128.872C15.7404 125.619 14.3073 119.887 13.0068 116.517C11.756 113.277 9.7783 109.634 8.48741 107.51L7.81287 106.569C3.51732 100.382 1 92.8695 1 84.7692C1 75.9921 3.95564 67.9047 8.92661 61.4468C10.0733 59.6269 11.5498 56.9307 13.0068 53.1559Z" fill="white" stroke="#A8A8B5" stroke-width="1.6"/>
<path d="M66.0976 84.7756C66.0976 99.6827 54.1576 111.751 39.4488 111.751C24.74 111.751 12.8 99.6827 12.8 84.7756C12.8 69.8684 24.74 57.8 39.4488 57.8C54.1576 57.8 66.0976 69.8684 66.0976 84.7756Z" fill="white" stroke="#A8A8B5" stroke-width="1.6"/>
<path d="M27.4878 77.0459L39.6108 85.5298L53.1393 68.2109" stroke="#BD9E5E" stroke-width="1.6"/>
<circle cx="40" cy="85" r="4.2" fill="white" stroke="#BD9E5E" stroke-width="1.6"/>
</svg>
