<svg width="93" height="163" viewBox="0 0 93 163" fill="none" xmlns="http://www.w3.org/2000/svg">
<path d="M29.8 132C29.8 131.337 30.3373 130.8 31 130.8H63C63.6627 130.8 64.2 131.337 64.2 132V159C64.2 160.767 62.7673 162.2 61 162.2H33C31.2327 162.2 29.8 160.767 29.8 159V132Z" fill="white" stroke="#A8A8B5" stroke-width="1.6"/>
<path d="M64.2 31C64.2 31.6627 63.6627 32.2 63 32.2L31 32.2C30.3373 32.2 29.8 31.6627 29.8 31L29.8 4C29.8 2.23269 31.2327 0.8 33 0.8L61 0.800003C62.7673 0.800003 64.2 2.23269 64.2 4L64.2 31Z" fill="white" stroke="#A8A8B5" stroke-width="1.6"/>
<path d="M74.2 48C74.2 48.6627 73.6627 49.2 73 49.2L67 49.2C66.3373 49.2 65.8 48.6627 65.8 48L65.8 29C65.8 28.3373 66.3373 27.8 67 27.8L73 27.8C73.6627 27.8 74.2 28.3373 74.2 29L74.2 48ZM28.2 48C28.2 48.6627 27.6627 49.2 27 49.2L21 49.2C20.3373 49.2 19.8 48.6627 19.8 48L19.8 29C19.8 28.3373 20.3373 27.8 21 27.8L27 27.8C27.6627 27.8 28.2 28.3373 28.2 29L28.2 48Z" fill="white" stroke="#A8A8B5" stroke-width="1.6"/>
<path d="M19.8 115C19.8 114.337 20.3373 113.8 21 113.8H27C27.6627 113.8 28.2 114.337 28.2 115V134C28.2 134.663 27.6627 135.2 27 135.2H21C20.3373 135.2 19.8 134.663 19.8 134V115ZM65.8 115C65.8 114.337 66.3373 113.8 67 113.8H73C73.6627 113.8 74.2 114.337 74.2 115V134C74.2 134.663 73.6627 135.2 73 135.2H67C66.3373 135.2 65.8 134.663 65.8 134V115Z" fill="white" stroke="#A8A8B5" stroke-width="1.6"/>
<circle cx="46.5" cy="81.5" r="45.7" fill="white" stroke="#A8A8B5" stroke-width="1.6"/>
<path d="M84.2 81C84.2 102.107 67.3114 119.2 46.5 119.2C25.6886 119.2 8.8 102.107 8.8 81C8.8 59.893 25.6886 42.8 46.5 42.8C67.3114 42.8 84.2 59.893 84.2 81Z" fill="white" stroke="#A8A8B5" stroke-width="1.6"/>
<path d="M29.3794 71.3048L46.5 81.9995L64.9442 59.0781" stroke="#BD9E5E" stroke-width="1.6"/>
<circle cx="46.3891" cy="82.2734" r="4.61204" fill="white" stroke="#BD9E5E" stroke-width="1.6"/>
</svg>
