<svg width="186" height="107" viewBox="0 0 186 107" fill="none" xmlns="http://www.w3.org/2000/svg">
<path d="M127.792 76.1048C128.562 76.1048 129.187 75.4791 129.187 74.7072C129.187 73.9353 128.562 73.3096 127.792 73.3096C127.021 73.3096 126.397 73.9353 126.397 74.7072C126.397 75.4791 127.021 76.1048 127.792 76.1048Z" fill="#BD9E5E"/>
<path d="M132.026 76.1048C132.796 76.1048 133.421 75.4791 133.421 74.7072C133.421 73.9353 132.796 73.3096 132.026 73.3096C131.255 73.3096 130.631 73.9353 130.631 74.7072C130.631 75.4791 131.255 76.1048 132.026 76.1048Z" fill="#BD9E5E"/>
<path d="M148.134 87.2617L147.532 86.0994C149.113 85.4374 150.224 83.873 150.224 82.0487C150.224 79.6213 148.262 77.6548 145.839 77.6548H142.31H140.929H139.568H137.611L139.568 80.0234V90.8122H142.305V89.8314V86.4427H144.674L145.853 88.8162C146.465 90.0422 147.571 90.8171 148.942 90.8171H150.812V88.2964H149.892C148.903 88.2964 148.384 87.7472 148.134 87.2617ZM145.648 83.8828H142.3V80.2147H145.648C146.661 80.2147 147.478 81.0336 147.478 82.0487C147.483 83.059 146.661 83.8828 145.648 83.8828Z" fill="#BD9E5E"/>
<path d="M36.5881 77.6548L38.5509 80.0234V90.8122H41.2528V77.6548H38.5509H36.5881Z" fill="#BD9E5E"/>
<path d="M0 77.6548L1.95789 80.0234V90.8122H4.66468V77.6548H1.95789H0Z" fill="#BD9E5E"/>
<path d="M17.577 86.1387L10.4649 77.6548H8.87904H6.92114L8.87904 80.0234V90.8122H11.5858V83.2698L17.8511 90.8122H20.3131V77.6548H17.577V86.1387Z" fill="#BD9E5E"/>
<path d="M152.265 77.6548L154.228 80.0234V90.8122H156.93V77.6548H154.228H152.265Z" fill="#BD9E5E"/>
<path d="M97.2828 86.1387L90.1707 77.6548H88.5848H86.627L88.5848 80.0234V90.8122H91.2916V83.2698L97.5569 90.8122H100.019V77.6548H97.2828V86.1387Z" fill="#BD9E5E"/>
<path d="M68.032 82.9903H61.8451V77.6548H59.104V90.8122H61.8402V85.4766H62.3982H68.032V90.8122H70.7682V77.6548H68.032V82.9903Z" fill="#BD9E5E"/>
<path d="M168.536 87.8743C167.943 88.1783 167.283 88.3304 166.568 88.3304C165.99 88.3304 165.432 88.2274 164.918 88.0214C164.4 87.8155 163.93 87.5261 163.528 87.1632C163.132 86.8052 162.814 86.3688 162.584 85.8735C162.354 85.3782 162.241 84.7701 162.241 84.1914C162.241 83.6127 162.354 83.0046 162.584 82.5093C162.814 82.0091 163.132 81.5776 163.528 81.2196C163.93 80.8567 164.4 80.5674 164.918 80.3614C165.437 80.1554 165.99 80.0524 166.568 80.0524C167.283 80.0524 167.943 80.2045 168.536 80.5085C169.094 80.7929 169.573 81.1902 169.97 81.6708L172.138 79.9347L171.889 79.6552C171.228 78.9245 170.43 78.341 169.519 77.9241C168.604 77.5024 167.61 77.2915 166.553 77.2915C165.569 77.2915 164.639 77.473 163.788 77.8358C162.941 78.1938 162.192 78.6989 161.565 79.3267C160.934 79.9593 160.435 80.7096 160.077 81.5629C159.735 82.3769 159.539 83.2596 159.539 84.1865C159.539 85.1134 159.735 85.9961 160.077 86.8101C160.435 87.6634 160.939 88.4186 161.565 89.0463C162.197 89.679 162.946 90.1792 163.788 90.5372C164.639 90.9 165.569 91.0815 166.553 91.0815C167.61 91.0815 168.604 90.8706 169.519 90.4489C170.43 90.032 171.223 89.4485 171.889 88.7178L172.138 88.4383L169.97 86.7022C169.573 87.1926 169.098 87.585 168.536 87.8743Z" fill="#BD9E5E"/>
<path d="M53.0541 87.8743C52.4619 88.1783 51.8011 88.3304 51.0865 88.3304C50.5089 88.3304 49.9509 88.2274 49.4369 88.0214C48.9181 87.8155 48.4482 87.5261 48.0468 87.1632C47.6504 86.8052 47.3322 86.3688 47.1021 85.8735C46.8721 85.3782 46.7595 84.7701 46.7595 84.1914C46.7595 83.6127 46.8721 83.0046 47.1021 82.5093C47.3322 82.0091 47.6504 81.5776 48.0468 81.2196C48.4482 80.8567 48.9181 80.5674 49.4369 80.3614C49.9558 80.1554 50.5089 80.0524 51.0865 80.0524C51.8011 80.0524 52.4619 80.2045 53.0541 80.5085C53.6121 80.7929 54.0918 81.1902 54.4883 81.6708L56.6567 79.9347L56.407 79.6552C55.7462 78.9245 54.9484 78.341 54.038 77.9241C53.1227 77.5024 52.129 77.2915 51.0718 77.2915C50.0879 77.2915 49.1579 77.473 48.3062 77.8358C47.4595 78.1938 46.7106 78.6989 46.084 79.3267C45.4526 79.9593 44.9534 80.7096 44.596 81.5629C44.2534 82.3769 44.0576 83.2596 44.0576 84.1865C44.0576 85.1134 44.2534 85.9961 44.596 86.8101C44.9534 87.6634 45.4575 88.4186 46.084 89.0463C46.7155 89.679 47.4644 90.1792 48.3062 90.5372C49.1579 90.9 50.0879 91.0815 51.0718 91.0815C52.129 91.0815 53.1227 90.8706 54.038 90.4489C54.9484 90.032 55.7462 89.4485 56.407 88.7178L56.6567 88.4383L54.4883 86.7022C54.0869 87.1926 53.6121 87.585 53.0541 87.8743Z" fill="#BD9E5E"/>
<path d="M183.264 77.6548V82.9903H177.072L177.077 77.6548H174.336V90.8122H177.072V85.4766H177.63H183.264V90.8122H186V77.6548H183.264Z" fill="#BD9E5E"/>
<path d="M27.3713 88.0561V85.7464V85.4766H32.3541V82.9903H27.3713V82.902V80.4157V80.1411H27.4692H34.1603V77.6548H26.0008H24.6351H22.6772L24.6351 80.0234V90.8122H26.0008H27.6013H34.8798V88.3258H27.3713V88.0561Z" fill="#BD9E5E"/>
<path d="M77.7285 88.0561V85.7464V85.4766H82.7113V82.9903H77.7285V82.902V80.4157V80.1411H77.8264H84.5175V77.6548H76.358H74.9923H73.0295L74.9923 80.0234V90.8122H76.358H77.9536H85.237V88.3258H77.7285V88.0561Z" fill="#BD9E5E"/>
<path d="M133.152 85.4423C133.152 87.2274 131.585 88.3357 129.936 88.3357C128.286 88.3357 126.72 87.2274 126.72 85.4423V77.6548H123.984H122.026L123.984 80.0234V85.5894C123.984 88.2866 126.284 91.0868 129.936 91.0868C133.587 91.0868 135.888 88.2817 135.888 85.5894V77.6548H133.152V85.4423Z" fill="#BD9E5E"/>
<path d="M118.58 77.6548H109.314V80.1411H116.426L108.228 88.7819L109.887 90.7582L109.936 90.8122H120.43V88.3258H112.603L120.513 79.9891L118.58 77.6548Z" fill="#BD9E5E"/>
<path d="M35.5456 102.738H33.9548V101.674H38.2867V102.738H36.6959V106.912H35.5456V102.738Z" fill="white"/>
<path d="M40.2886 101.674H41.4388V103.744H43.5583V101.674H44.7085V106.907H43.5583V104.808H41.4388V106.907H40.2886V101.674Z" fill="white"/>
<path d="M47.0874 101.674H51.0277V102.699H48.2279V103.763H50.6899V104.788H48.2279V105.887H51.0619V106.912H47.0874V101.674Z" fill="white"/>
<path d="M56.2161 106.147L56.8964 105.333C57.3663 105.72 57.8607 105.97 58.4579 105.97C58.9277 105.97 59.2116 105.784 59.2116 105.46C59.2116 105.166 59.0305 105.019 58.1593 104.793C57.1069 104.523 56.4265 104.234 56.4265 103.18C56.4265 102.228 57.1901 101.601 58.2572 101.601C59.0159 101.601 59.6669 101.841 60.2004 102.268L59.6032 103.136C59.1431 102.812 58.683 102.621 58.2425 102.621C57.802 102.621 57.5719 102.822 57.5719 103.091C57.5719 103.435 57.7971 103.547 58.6977 103.778C59.7599 104.053 60.3521 104.435 60.3521 105.362C60.3521 106.402 59.5592 106.985 58.4334 106.985C57.6404 106.985 56.8426 106.711 56.2161 106.147Z" fill="white"/>
<path d="M62.0703 101.674H63.3038L64.3855 105.22L65.5554 101.66H66.5392L67.7091 105.22L68.7908 101.674H69.99L68.2083 106.946H67.2098L66.0302 103.523L64.8505 106.946H63.852L62.0703 101.674Z" fill="white"/>
<path d="M72.031 101.674H73.1813V106.907H72.031V101.674Z" fill="white"/>
<path d="M75.2468 106.147L75.9272 105.333C76.3971 105.72 76.8915 105.97 77.4886 105.97C77.9585 105.97 78.2424 105.784 78.2424 105.46C78.2424 105.166 78.0613 105.019 77.19 104.793C76.1377 104.523 75.4573 104.234 75.4573 103.18C75.4573 102.228 76.2209 101.601 77.2879 101.601C78.0466 101.601 78.6976 101.841 79.2311 102.268L78.634 103.136C78.1739 102.812 77.7138 102.621 77.2732 102.621C76.8327 102.621 76.6027 102.822 76.6027 103.091C76.6027 103.435 76.8278 103.547 77.7285 103.778C78.7906 104.053 79.3829 104.435 79.3829 105.362C79.3829 106.402 78.5899 106.985 77.4641 106.985C76.6761 106.985 75.8782 106.711 75.2468 106.147Z" fill="white"/>
<path d="M81.1499 106.147L81.8303 105.333C82.3002 105.72 82.7945 105.97 83.3917 105.97C83.8616 105.97 84.1455 105.784 84.1455 105.46C84.1455 105.166 83.9644 105.019 83.0931 104.793C82.0407 104.523 81.3604 104.234 81.3604 103.18C81.3604 102.228 82.124 101.601 83.191 101.601C83.9497 101.601 84.6007 101.841 85.1342 102.268L84.5371 103.136C84.077 102.812 83.6168 102.621 83.1763 102.621C82.7358 102.621 82.5057 102.822 82.5057 103.091C82.5057 103.435 82.7309 103.547 83.6315 103.778C84.6937 104.053 85.286 104.435 85.286 105.362C85.286 106.402 84.493 106.985 83.3672 106.985C82.5743 106.985 81.7764 106.711 81.1499 106.147Z" fill="white"/>
<path d="M92.5645 101.64H93.6267L95.8685 106.912H94.6693L94.1896 105.74H91.9821L91.5024 106.912H90.3276L92.5645 101.64ZM93.7735 104.72L93.0785 103.023L92.3834 104.72H93.7735Z" fill="white"/>
<path d="M97.7136 104.666V101.674H98.8639V104.636C98.8639 105.49 99.2897 105.931 99.9897 105.931C100.69 105.931 101.115 105.504 101.115 104.676V101.674H102.266V104.627C102.266 106.21 101.38 106.99 99.975 106.99C98.5702 106.99 97.7136 106.206 97.7136 104.666Z" fill="white"/>
<path d="M104.331 104.293C104.331 102.807 105.452 101.586 107.058 101.586C108.042 101.586 108.595 101.959 109.079 102.439L108.394 103.234C107.993 102.866 107.645 102.65 107.048 102.65C106.167 102.65 105.535 103.386 105.535 104.293C105.535 105.19 106.157 105.941 107.048 105.941C107.645 105.941 108.012 105.7 108.423 105.328L109.153 106.112C108.614 106.686 108.017 107 107.009 107C105.472 107 104.331 105.813 104.331 104.293Z" fill="white"/>
<path d="M112.413 102.738H110.822V101.674H115.154V102.738H113.563V106.912H112.413V102.738Z" fill="white"/>
<path d="M117.209 101.674H118.36V106.907H117.209V101.674Z" fill="white"/>
<path d="M120.557 104.293C120.557 102.807 121.727 101.586 123.342 101.586C124.958 101.586 126.113 102.787 126.113 104.293C126.113 105.784 124.938 107 123.328 107C121.717 107 120.557 105.794 120.557 104.293ZM124.909 104.293C124.909 103.396 124.253 102.65 123.328 102.65C122.403 102.65 121.761 103.386 121.761 104.293C121.761 105.19 122.417 105.941 123.342 105.941C124.268 105.941 124.909 105.205 124.909 104.293Z" fill="white"/>
<path d="M128.257 101.674H129.319L131.766 104.896V101.674H132.902V106.907H131.923L129.392 103.577V106.907H128.257V101.674Z" fill="white"/>
<path d="M135.281 101.674H139.221V102.699H136.421V103.763H138.883V104.788H136.421V105.887H139.255V106.912H135.276V101.674H135.281Z" fill="white"/>
<path d="M141.404 101.674H145.344V102.699H142.545V103.763H145.007V104.788H142.545V105.887H145.379V106.912H141.399V101.674H141.404Z" fill="white"/>
<path d="M147.532 101.674H149.921C150.587 101.674 151.1 101.861 151.443 102.204C151.732 102.498 151.889 102.905 151.889 103.415C151.889 104.259 151.433 104.793 150.768 105.038L152.045 106.907H150.704L149.568 105.23H148.682V106.907H147.532V101.674ZM149.843 104.219C150.401 104.219 150.724 103.92 150.724 103.464C150.724 102.969 150.381 102.714 149.818 102.714H148.678V104.219H149.843Z" fill="white"/>
<path d="M119.451 30.7482L118.624 30.9542L118.409 30.096L119.774 29.689H120.489V34.49H119.456V30.7482H119.451Z" fill="white"/>
<path d="M121.6 33.9993L122.148 33.2049C122.496 33.4844 122.79 33.6119 123.186 33.6119C123.769 33.6119 124.082 33.1705 124.15 32.5281C123.92 32.7243 123.602 32.8567 123.186 32.8567C122.153 32.8567 121.488 32.2829 121.488 31.3021C121.488 30.3409 122.227 29.6348 123.304 29.6348C123.945 29.6348 124.317 29.7917 124.679 30.1546C125.017 30.493 125.242 31.0128 125.242 31.9642C125.242 33.5089 124.513 34.5633 123.162 34.5633C122.471 34.5682 122.001 34.3377 121.6 33.9993ZM124.18 31.2629C124.18 30.8411 123.866 30.5322 123.343 30.5322C122.824 30.5322 122.535 30.8313 122.535 31.2678C122.535 31.6895 122.848 31.9838 123.362 31.9838C123.881 31.9838 124.18 31.6846 124.18 31.2629Z" fill="white"/>
<path d="M128.311 30.6255H126.074V29.7183H129.5V30.5078L127.366 34.4849H126.181L128.311 30.6255Z" fill="white"/>
<path d="M130.083 33.7444L130.802 33.0579C131.13 33.4257 131.468 33.6316 131.952 33.6316C132.349 33.6316 132.623 33.4061 132.623 33.0383C132.623 32.6508 132.275 32.4302 131.693 32.4302H131.257L131.096 31.7632L132.231 30.6206H130.362V29.7183H133.577V30.5078L132.373 31.6602C133.019 31.7681 133.651 32.1114 133.651 33.0088C133.651 33.9063 133 34.5683 131.938 34.5683C131.081 34.5683 130.489 34.225 130.083 33.7444Z" fill="white"/>
<path d="M53.24 29.7178H56.8278V30.6495H54.2777V31.6156H56.5195V32.5474H54.2777V33.5478H56.8621V34.4795H53.24V29.7178Z" fill="white"/>
<path d="M57.469 33.7884L58.0857 33.0479C58.5116 33.401 58.9619 33.6265 59.5052 33.6265C59.931 33.6265 60.1905 33.4549 60.1905 33.1656C60.1905 32.9008 60.0289 32.7634 59.2311 32.5575C58.2717 32.3123 57.655 32.0475 57.655 31.0863C57.655 30.2232 58.35 29.6494 59.3192 29.6494C60.0143 29.6494 60.6016 29.8652 61.0862 30.2575L60.5429 31.0471C60.1219 30.7528 59.7059 30.5763 59.3045 30.5763C58.9032 30.5763 58.6927 30.7577 58.6927 31.0029C58.6927 31.3168 58.8983 31.4198 59.7206 31.6306C60.6848 31.8807 61.2281 32.2289 61.2281 33.0724C61.2281 34.0189 60.5086 34.5485 59.4807 34.5485C58.771 34.5534 58.0417 34.3033 57.469 33.7884Z" fill="white"/>
<path d="M63.2545 30.6839H61.8057V29.7178H65.7459V30.6839H64.2971V34.4844H63.2496V30.6839H63.2545Z" fill="white"/>
<path d="M66.4067 33.396H67.508V34.4847H66.4067V33.396Z" fill="white"/>
<path d="M106.833 0H79.0745V3.63385H106.833V0Z" fill="#BD9E5E"/>
<path d="M89.0253 9.64111H72.1385L60.8806 17.5218L73.4748 26.3343L85.3935 17.9877V28.6931L60.8806 45.8766L73.5188 54.7185H89.0253V9.64111ZM85.3983 49.025V51.0847H78.6191L85.3983 46.3327V49.025ZM85.3983 41.8897L73.4748 50.251L67.2144 45.8717L85.3935 33.1312V41.8897H85.3983ZM85.3983 13.5496L73.4748 21.8962L67.2193 17.5169L73.2839 13.2701H85.3983V13.5496Z" fill="#BD9E5E"/>
<path d="M106.833 60.7212H79.0745V64.355H106.833V60.7212Z" fill="#BD9E5E"/>
<path d="M112.525 38.0254L100.508 46.4357V35.7303L125.119 18.4732L112.491 9.63623H96.8813V54.7136H113.861L125.119 46.8329L112.525 38.0254ZM100.508 17.9877V13.275H107.39L100.508 18.0956V17.9877ZM100.508 22.5337L112.535 14.1038L118.785 18.4781L100.508 31.2922V22.5337ZM112.721 51.0798H100.215L112.53 42.4586L118.785 46.8378L112.721 51.0798Z" fill="#BD9E5E"/>
</svg>
