<svg width="51" height="40" viewBox="0 0 51 40" fill="none" xmlns="http://www.w3.org/2000/svg">
<g clip-path="url(#clip0)">
<path d="M41.3354 18.9743L40.82 19.0954L40.6987 18.5809L41.5477 18.3388H42.0025V21.3045H41.3354V18.9743Z" fill="#fff"/>
<path d="M42.6696 20.9716L43.0031 20.4874C43.2153 20.669 43.3972 20.7295 43.6398 20.7295C44.0036 20.7295 44.1856 20.4571 44.2462 20.0637C44.0946 20.1848 43.9127 20.2756 43.6398 20.2756C43.0031 20.2756 42.5786 19.9124 42.5786 19.3072C42.5786 18.7019 43.0334 18.2783 43.7004 18.2783C44.0946 18.2783 44.3371 18.369 44.5494 18.6111C44.7616 18.823 44.9132 19.1256 44.9132 19.7308C44.9132 20.6992 44.4584 21.3347 43.6398 21.3347C43.2153 21.3347 42.9424 21.1834 42.6696 20.9716ZM44.2765 19.3072C44.2765 19.0348 44.0946 18.8532 43.7611 18.8532C43.4276 18.8532 43.2456 19.0348 43.2456 19.3072C43.2456 19.5795 43.4276 19.7611 43.7611 19.7611C44.0946 19.7308 44.2765 19.5493 44.2765 19.3072Z" fill="#fff"/>
<path d="M46.8234 18.8835H45.4287V18.3388H47.5511V18.823L46.217 21.2742H45.4894L46.8234 18.8835Z" fill="#fff"/>
<path d="M47.9453 20.8202L48.4001 20.3966C48.6123 20.6084 48.8246 20.7597 49.0975 20.7597C49.34 20.7597 49.5219 20.6084 49.5219 20.3966C49.5219 20.1545 49.3097 20.0334 48.9459 20.0334H48.673L48.582 19.6098L49.2794 18.9137H48.1272V18.369H50.1283V18.8532L49.3703 19.5492C49.7645 19.6098 50.1586 19.8216 50.1586 20.3663C50.1586 20.911 49.7645 21.3347 49.0975 21.3347C48.5517 21.3347 48.1879 21.1229 47.9453 20.8202Z" fill="#fff"/>
<path d="M0.34375 18.3388H2.55707V18.9138H0.980457V19.519H2.37515V20.094H0.980457V20.6992H2.58738V21.2742H0.34375V18.3388Z" fill="#fff"/>
<path d="M2.95117 20.8506L3.34532 20.3966C3.6182 20.6085 3.89108 20.7598 4.22459 20.7598C4.49746 20.7598 4.64906 20.669 4.64906 20.4874C4.64906 20.3361 4.5581 20.2453 4.04267 20.1243C3.43628 19.973 3.07245 19.8216 3.07245 19.2164C3.07245 18.6717 3.49692 18.3388 4.10331 18.3388C4.52778 18.3388 4.89162 18.4599 5.19481 18.702L4.8613 19.1861C4.58842 19.0046 4.34587 18.8835 4.10331 18.8835C3.86076 18.8835 3.73948 19.0046 3.73948 19.1559C3.73948 19.3375 3.86076 19.398 4.37619 19.5493C4.98258 19.7006 5.31609 19.9124 5.31609 20.4269C5.31609 21.0019 4.8613 21.3347 4.22459 21.3347C3.7698 21.3347 3.31501 21.1532 2.95117 20.8506Z" fill="#fff"/>
<path d="M6.52872 18.944H5.61914V18.3388H8.07502V18.944H7.16544V21.2742H6.52872V18.944Z" fill="#fff"/>
<path d="M8.49951 20.6085H9.16654V21.2742H8.49951V20.6085Z" fill="#fff"/>
<path d="M33.5134 0H16.3223V2.23939H33.5134V0Z" fill="#fff"/>
<path d="M22.5074 5.96167H12.0472L5.07373 10.8339L12.8658 16.281L20.2638 11.1365V17.7336L5.07373 28.3253L12.8961 33.7725H22.5074V5.96167ZM20.2638 30.2621V31.5331H16.0797L20.2638 28.5977V30.2621ZM20.2638 25.8438L12.8658 30.9884L8.98494 28.2951L20.2334 20.4269V25.8438H20.2638ZM20.2638 8.35237L12.8658 13.4969L8.98494 10.8036L12.7445 8.1708H20.2638V8.35237Z" fill="#fff"/>
<path d="M33.5134 37.4644H16.3223V39.7037H33.5134V37.4644Z" fill="#fff"/>
<path d="M37.0606 23.4531L29.6323 28.6582V22.0611L44.883 11.4088L37.0606 5.96167H27.3887V33.7725H37.9095L44.883 28.9003L37.0606 23.4531ZM29.602 11.1062V8.20106H33.877L29.602 11.1667V11.1062ZM29.602 13.9206L37.0606 8.71551L40.9415 11.4088L29.6323 19.3072V13.9206H29.602ZM37.1818 31.5331H29.4201L37.0606 26.207L40.9415 28.9003L37.1818 31.5331Z" fill="#fff"/>
</g>
<defs>
<clipPath id="clip0">
<rect width="50.566" height="40" fill="white"/>
</clipPath>
</defs>
</svg>
