<svg width="292" height="168" viewBox="0 0 292 168" fill="none" xmlns="http://www.w3.org/2000/svg">
<path d="M200.619 119.491C201.829 119.491 202.809 118.509 202.809 117.297C202.809 116.085 201.829 115.103 200.619 115.103C199.41 115.103 198.429 116.085 198.429 117.297C198.429 118.509 199.41 119.491 200.619 119.491Z" fill="#1C2473"/>
<path d="M207.266 119.491C208.476 119.491 209.456 118.509 209.456 117.297C209.456 116.085 208.476 115.103 207.266 115.103C206.057 115.103 205.076 116.085 205.076 117.297C205.076 118.509 206.057 119.491 207.266 119.491Z" fill="#1C2473"/>
<path d="M232.555 137.009L231.61 135.184C234.092 134.144 235.836 131.688 235.836 128.824C235.836 125.012 232.755 121.925 228.951 121.925H223.411H221.244H219.108H216.034L219.108 125.644V142.583H223.403V141.043V135.723H227.122L228.974 139.449C229.935 141.374 231.671 142.591 233.823 142.591H236.758V138.633H235.314C233.761 138.633 232.947 137.771 232.555 137.009ZM228.651 131.703H223.395V125.944H228.651C230.242 125.944 231.525 127.23 231.525 128.824C231.533 130.41 230.242 131.703 228.651 131.703Z" fill="#1C2473"/>
<path d="M57.4395 121.925L60.5208 125.644V142.583H64.7625V121.925H60.5208H57.4395Z" fill="#1C2473"/>
<path d="M0 121.925L3.07368 125.644V142.583H7.32305V121.925H3.07368H0Z" fill="#1C2473"/>
<path d="M27.594 135.245L16.4288 121.925H13.9392H10.8655L13.9392 125.644V142.583H18.1885V130.741L28.0243 142.583H31.8895V121.925H27.594V135.245Z" fill="#1C2473"/>
<path d="M239.041 121.925L242.122 125.644V142.583H246.364V121.925H242.122H239.041Z" fill="#1C2473"/>
<path d="M152.724 135.245L141.558 121.925H139.069H135.995L139.069 125.644V142.583H143.318V130.741L153.154 142.583H157.019V121.925H152.724V135.245Z" fill="#1C2473"/>
<path d="M106.803 130.302H97.09V121.925H92.7869V142.583H97.0823V134.206H97.9583H106.803V142.583H111.098V121.925H106.803V130.302Z" fill="#1C2473"/>
<path d="M264.583 137.97C263.653 138.448 262.616 138.687 261.494 138.687C260.587 138.687 259.711 138.525 258.904 138.201C258.09 137.878 257.352 137.424 256.722 136.854C256.099 136.292 255.6 135.607 255.239 134.829C254.878 134.051 254.701 133.097 254.701 132.188C254.701 131.279 254.878 130.325 255.239 129.547C255.6 128.762 256.099 128.084 256.722 127.522C257.352 126.952 258.09 126.498 258.904 126.175C259.719 125.851 260.587 125.689 261.494 125.689C262.616 125.689 263.653 125.928 264.583 126.405C265.459 126.852 266.212 127.476 266.834 128.23L270.238 125.505L269.847 125.066C268.809 123.918 267.557 123.002 266.127 122.348C264.69 121.686 263.13 121.354 261.471 121.354C259.926 121.354 258.466 121.639 257.129 122.209C255.8 122.771 254.624 123.564 253.64 124.55C252.649 125.543 251.865 126.721 251.304 128.061C250.767 129.339 250.459 130.725 250.459 132.18C250.459 133.636 250.767 135.021 251.304 136.3C251.865 137.639 252.657 138.825 253.64 139.811C254.632 140.804 255.807 141.589 257.129 142.151C258.466 142.721 259.926 143.006 261.471 143.006C263.13 143.006 264.69 142.675 266.127 142.013C267.557 141.358 268.801 140.442 269.847 139.295L270.238 138.856L266.834 136.13C266.212 136.9 265.467 137.516 264.583 137.97Z" fill="#1C2473"/>
<path d="M83.2891 137.97C82.3593 138.448 81.322 138.687 80.2001 138.687C79.2933 138.687 78.4173 138.525 77.6105 138.201C76.7959 137.878 76.0583 137.424 75.4282 136.854C74.8057 136.292 74.3063 135.607 73.9451 134.829C73.584 134.051 73.4072 133.097 73.4072 132.188C73.4072 131.279 73.584 130.325 73.9451 129.547C74.3063 128.762 74.8057 128.084 75.4282 127.522C76.0583 126.952 76.7959 126.498 77.6105 126.175C78.425 125.851 79.2933 125.689 80.2001 125.689C81.322 125.689 82.3593 125.928 83.2891 126.405C84.1651 126.852 84.9182 127.476 85.5406 128.23L88.9447 125.505L88.5528 125.066C87.5154 123.918 86.2629 123.002 84.8336 122.348C83.3967 121.686 81.8368 121.354 80.177 121.354C78.6325 121.354 77.1725 121.639 75.8354 122.209C74.5061 122.771 73.3304 123.564 72.3468 124.55C71.3555 125.543 70.5717 126.721 70.0108 128.061C69.4729 129.339 69.1655 130.725 69.1655 132.18C69.1655 133.636 69.4729 135.021 70.0108 136.3C70.5717 137.639 71.3632 138.825 72.3468 139.811C73.3381 140.804 74.5137 141.589 75.8354 142.151C77.1725 142.721 78.6325 143.006 80.177 143.006C81.8368 143.006 83.3967 142.675 84.8336 142.013C86.2629 141.358 87.5154 140.442 88.5528 139.295L88.9447 138.856L85.5406 136.13C84.9105 136.9 84.1651 137.516 83.2891 137.97Z" fill="#1C2473"/>
<path d="M287.704 121.925V130.302H277.984L277.992 121.925H273.688V142.583H277.984V134.206H278.86H287.704V142.583H292V121.925H287.704Z" fill="#1C2473"/>
<path d="M42.97 138.256V134.629V134.206H50.7925V130.302H42.97V130.163V126.26V125.829H43.1237H53.628V121.925H40.8184H38.6745H35.6008L38.6745 125.644V142.583H40.8184H43.3311H54.7576V138.679H42.97V138.256Z" fill="#1C2473"/>
<path d="M122.025 138.256V134.629V134.206H129.848V130.302H122.025V130.163V126.26V125.829H122.179H132.683V121.925H119.874H117.73H114.648L117.73 125.644V142.583H119.874H122.379H133.813V138.679H122.025V138.256Z" fill="#1C2473"/>
<path d="M209.034 134.152C209.034 136.955 206.575 138.695 203.985 138.695C201.395 138.695 198.937 136.955 198.937 134.152V121.925H194.641H191.567L194.641 125.644V134.383C194.641 138.618 198.253 143.014 203.985 143.014C209.717 143.014 213.329 138.61 213.329 134.383V121.925H209.034V134.152Z" fill="#1C2473"/>
<path d="M186.158 121.925H171.611V125.829H182.777L169.906 139.395L172.51 142.498L172.587 142.583H189.062V138.679H176.775L189.193 125.59L186.158 121.925Z" fill="#1C2473"/>
<path d="M55.8028 161.309H53.3054V159.638H60.1059V161.309H57.6086V167.861H55.8028V161.309Z" fill="#BD9E5E"/>
<path d="M63.2488 159.638H65.0546V162.887H68.3818V159.638H70.1876V167.853H68.3818V164.558H65.0546V167.853H63.2488V159.638Z" fill="#BD9E5E"/>
<path d="M73.9221 159.638H80.1079V161.247H75.7125V162.918H79.5777V164.527H75.7125V166.252H80.1617V167.861H73.9221V159.638Z" fill="#BD9E5E"/>
<path d="M88.2532 166.66L89.3213 165.382C90.059 165.99 90.8351 166.383 91.7725 166.383C92.5102 166.383 92.9559 166.09 92.9559 165.582C92.9559 165.12 92.6716 164.889 91.3038 164.535C89.6517 164.111 88.5836 163.657 88.5836 162.002C88.5836 160.508 89.7823 159.522 91.4575 159.522C92.6485 159.522 93.6705 159.9 94.5081 160.57L93.5706 161.932C92.8483 161.424 92.126 161.124 91.4344 161.124C90.7429 161.124 90.3817 161.44 90.3817 161.863C90.3817 162.402 90.7352 162.579 92.1491 162.941C93.8165 163.372 94.7463 163.973 94.7463 165.428C94.7463 167.06 93.5015 167.977 91.7341 167.977C90.4893 167.977 89.2368 167.546 88.2532 166.66Z" fill="#BD9E5E"/>
<path d="M97.4436 159.637H99.38L101.078 165.204L102.915 159.614H104.459L106.296 165.204L107.994 159.637H109.877L107.08 167.915H105.512L103.66 162.54L101.808 167.915H100.241L97.4436 159.637Z" fill="#BD9E5E"/>
<path d="M113.081 159.638H114.887V167.853H113.081V159.638Z" fill="#BD9E5E"/>
<path d="M118.129 166.66L119.197 165.382C119.935 165.99 120.711 166.383 121.649 166.383C122.386 166.383 122.832 166.09 122.832 165.582C122.832 165.12 122.548 164.889 121.18 164.535C119.528 164.111 118.46 163.657 118.46 162.002C118.46 160.508 119.659 159.522 121.334 159.522C122.525 159.522 123.547 159.9 124.384 160.57L123.447 161.932C122.725 161.424 122.002 161.124 121.311 161.124C120.619 161.124 120.258 161.44 120.258 161.863C120.258 162.402 120.611 162.579 122.025 162.941C123.693 163.372 124.623 163.973 124.623 165.428C124.623 167.06 123.378 167.977 121.61 167.977C120.373 167.977 119.121 167.546 118.129 166.66Z" fill="#BD9E5E"/>
<path d="M127.396 166.66L128.465 165.382C129.202 165.99 129.978 166.383 130.916 166.383C131.654 166.383 132.099 166.09 132.099 165.582C132.099 165.12 131.815 164.889 130.447 164.535C128.795 164.111 127.727 163.657 127.727 162.002C127.727 160.508 128.926 159.522 130.601 159.522C131.792 159.522 132.814 159.9 133.651 160.57L132.714 161.932C131.992 161.424 131.269 161.124 130.578 161.124C129.886 161.124 129.525 161.44 129.525 161.863C129.525 162.402 129.878 162.579 131.292 162.941C132.96 163.372 133.89 163.973 133.89 165.428C133.89 167.06 132.645 167.977 130.877 167.977C129.633 167.977 128.38 167.546 127.396 166.66Z" fill="#BD9E5E"/>
<path d="M145.316 159.584H146.984L150.503 167.861H148.62L147.867 166.021H144.402L143.649 167.861H141.804L145.316 159.584ZM147.214 164.419L146.123 161.755L145.032 164.419H147.214Z" fill="#BD9E5E"/>
<path d="M153.4 164.335V159.638H155.206V164.288C155.206 165.628 155.874 166.321 156.973 166.321C158.072 166.321 158.74 165.651 158.74 164.35V159.638H160.546V164.273C160.546 166.76 159.155 167.984 156.95 167.984C154.745 167.984 153.4 166.752 153.4 164.335Z" fill="#BD9E5E"/>
<path d="M163.789 163.749C163.789 161.416 165.549 159.499 168.069 159.499C169.614 159.499 170.482 160.084 171.243 160.839L170.167 162.086C169.537 161.509 168.991 161.17 168.054 161.17C166.671 161.17 165.679 162.325 165.679 163.749C165.679 165.158 166.655 166.336 168.054 166.336C168.991 166.336 169.568 165.959 170.213 165.374L171.358 166.606C170.513 167.507 169.575 168 167.992 168C165.579 168 163.789 166.136 163.789 163.749Z" fill="#BD9E5E"/>
<path d="M176.476 161.309H173.978V159.638H180.779V161.309H178.281V167.861H176.476V161.309Z" fill="#BD9E5E"/>
<path d="M184.006 159.638H185.812V167.853H184.006V159.638Z" fill="#BD9E5E"/>
<path d="M189.262 163.749C189.262 161.416 191.099 159.499 193.635 159.499C196.17 159.499 197.984 161.385 197.984 163.749C197.984 166.09 196.14 168 193.611 168C191.083 168 189.262 166.105 189.262 163.749ZM196.093 163.749C196.093 162.34 195.064 161.17 193.611 161.17C192.159 161.17 191.153 162.325 191.153 163.749C191.153 165.158 192.182 166.336 193.635 166.336C195.087 166.336 196.093 165.181 196.093 163.749Z" fill="#BD9E5E"/>
<path d="M201.349 159.638H203.017L206.859 164.696V159.638H208.642V167.853H207.105L203.132 162.625V167.853H201.349V159.638Z" fill="#BD9E5E"/>
<path d="M212.376 159.638H218.562V161.247H214.167V162.918H218.032V164.527H214.167V166.252H218.616V167.861H212.369V159.638H212.376Z" fill="#BD9E5E"/>
<path d="M221.989 159.638H228.175V161.247H223.78V162.918H227.645V164.527H223.78V166.252H228.229V167.861H221.981V159.638H221.989Z" fill="#BD9E5E"/>
<path d="M231.61 159.638H235.36C236.405 159.638 237.212 159.93 237.75 160.469C238.203 160.931 238.449 161.57 238.449 162.371C238.449 163.695 237.734 164.535 236.689 164.92L238.695 167.853H236.589L234.807 165.22H233.416V167.853H231.61V159.638ZM235.237 163.634C236.113 163.634 236.62 163.164 236.62 162.448C236.62 161.67 236.082 161.27 235.198 161.27H233.408V163.634H235.237Z" fill="#BD9E5E"/>
<path d="M187.525 48.2774L186.227 48.6008L185.889 47.2533L188.033 46.6143H189.154V54.1523H187.533V48.2774H187.525Z" fill="#BD9E5E"/>
<path d="M190.899 53.382L191.759 52.1347C192.305 52.5736 192.766 52.7738 193.388 52.7738C194.303 52.7738 194.795 52.0808 194.902 51.0721C194.541 51.3801 194.042 51.588 193.388 51.588C191.767 51.588 190.722 50.6871 190.722 49.1472C190.722 47.6381 191.882 46.5293 193.573 46.5293C194.579 46.5293 195.163 46.7757 195.732 47.3455C196.262 47.8767 196.616 48.6929 196.616 50.1867C196.616 52.6121 195.471 54.2675 193.35 54.2675C192.266 54.2752 191.529 53.9133 190.899 53.382ZM194.948 49.0856C194.948 48.4234 194.456 47.9383 193.634 47.9383C192.82 47.9383 192.366 48.408 192.366 49.0933C192.366 49.7555 192.858 50.2175 193.665 50.2175C194.48 50.2175 194.948 49.7478 194.948 49.0856Z" fill="#BD9E5E"/>
<path d="M201.434 48.0846H197.922V46.6602H203.301V47.8998L199.951 54.1443H198.091L201.434 48.0846Z" fill="#BD9E5E"/>
<path d="M204.216 52.9816L205.345 51.9037C205.86 52.4811 206.39 52.8045 207.151 52.8045C207.773 52.8045 208.204 52.4503 208.204 51.8729C208.204 51.2646 207.658 50.9181 206.744 50.9181H206.06L205.806 49.8709L207.589 48.0769H204.654V46.6602H209.702V47.8998L207.812 49.7092C208.826 49.8786 209.817 50.4176 209.817 51.8267C209.817 53.2357 208.795 54.2752 207.128 54.2752C205.783 54.2752 204.853 53.7362 204.216 52.9816Z" fill="#BD9E5E"/>
<path d="M83.5813 46.6602H89.2138V48.1231H85.2104V49.6399H88.7297V51.1029H85.2104V52.6736H89.2676V54.1366H83.5813V46.6602Z" fill="#BD9E5E"/>
<path d="M90.2205 53.0513L91.1887 51.8886C91.8572 52.443 92.5641 52.7972 93.4171 52.7972C94.0856 52.7972 94.4929 52.5277 94.4929 52.0734C94.4929 51.6576 94.2393 51.4421 92.9868 51.1187C91.4807 50.7337 90.5125 50.3179 90.5125 48.8088C90.5125 47.4536 91.6036 46.5527 93.1251 46.5527C94.2162 46.5527 95.1383 46.8915 95.8991 47.5075L95.0461 48.7472C94.3853 48.2852 93.7321 48.008 93.102 48.008C92.4719 48.008 92.1415 48.2929 92.1415 48.6779C92.1415 49.1706 92.4642 49.3323 93.7552 49.6634C95.269 50.0561 96.1219 50.6028 96.1219 51.9271C96.1219 53.4132 94.9923 54.2447 93.3787 54.2447C92.2645 54.2524 91.1195 53.8598 90.2205 53.0513Z" fill="#BD9E5E"/>
<path d="M99.3031 48.177H97.0286V46.6602H103.214V48.177H100.94V54.1443H99.2954V48.177H99.3031Z" fill="#BD9E5E"/>
<path d="M104.252 52.4355H105.981V54.1449H104.252V52.4355Z" fill="#BD9E5E"/>
<path d="M167.716 0H124.138V5.70549H167.716V0Z" fill="#1C2473"/>
<path d="M139.76 15.1377H113.25L95.5762 27.5111L115.348 41.3475L134.059 28.2426V45.0511L95.5762 72.0309L115.417 85.9134H139.76V15.1377ZM134.066 76.9741V80.2079H123.424L134.066 72.7469V76.9741ZM134.066 65.771L115.348 78.899L105.52 72.0232L134.059 52.0193V65.771H134.066ZM134.066 21.2744L115.348 34.3793L105.527 27.5034L115.048 20.8355H134.066V21.2744Z" fill="#1C2473"/>
<path d="M167.716 95.3379H124.138V101.043H167.716V95.3379Z" fill="#1C2473"/>
<path d="M176.652 59.7035L157.788 72.9085V56.1L196.424 29.0048L176.598 15.1299H152.094V85.9056H178.75L196.424 73.5322L176.652 59.7035ZM157.788 28.2425V20.8431H168.592L157.788 28.4119V28.2425ZM157.788 35.3801L176.668 22.1443L186.48 29.0125L157.788 49.1318V35.3801ZM176.96 80.2001H157.326L176.66 66.664L186.48 73.5399L176.96 80.2001Z" fill="#1C2473"/>
</svg>
