<svg width="340" height="74" viewBox="0 0 340 74" fill="none" xmlns="http://www.w3.org/2000/svg">
<path d="M75.5098 34.6615L74.5682 34.8826L74.3467 33.9429L75.8975 33.5006H76.7283V38.9182H75.5098V34.6615Z" fill="#BD9E5E"/>
<path d="M77.9469 38.31L78.5562 37.4255C78.9439 37.7572 79.2762 37.8678 79.7193 37.8678C80.3839 37.8678 80.7162 37.3702 80.827 36.6516C80.5501 36.8727 80.2178 37.0386 79.7193 37.0386C78.5562 37.0386 77.7808 36.3752 77.7808 35.2696C77.7808 34.1639 78.6116 33.39 79.8301 33.39C80.5501 33.39 80.9932 33.5558 81.3809 33.9981C81.7686 34.385 82.0455 34.9379 82.0455 36.0435C82.0455 37.8125 81.2147 38.9734 79.7193 38.9734C78.9439 38.9734 78.4454 38.697 77.9469 38.31ZM80.8824 35.2696C80.8824 34.772 80.5501 34.4403 79.9408 34.4403C79.3316 34.4403 78.9993 34.772 78.9993 35.2696C78.9993 35.7671 79.3316 36.0988 79.9408 36.0988C80.5501 36.0435 80.8824 35.7118 80.8824 35.2696Z" fill="#BD9E5E"/>
<path d="M85.5346 34.4957H82.9868V33.5006H86.8638V34.3851L84.4269 38.8629H83.0976L85.5346 34.4957Z" fill="#BD9E5E"/>
<path d="M87.584 38.0336L88.4148 37.2596C88.8025 37.6466 89.1902 37.923 89.6887 37.923C90.1318 37.923 90.4641 37.6466 90.4641 37.2596C90.4641 36.8174 90.0764 36.5963 89.4117 36.5963H88.9133L88.7471 35.8223L90.021 34.5509H87.9163V33.5558H91.5718V34.4403L90.1872 35.7118C90.9072 35.8223 91.6272 36.2093 91.6272 37.2044C91.6272 38.1994 90.9072 38.9734 89.6887 38.9734C88.6917 38.9734 88.0271 38.5864 87.584 38.0336Z" fill="#BD9E5E"/>
<path d="M0.627441 33.5006H4.67064V34.551H1.79055V35.6566H4.33832V36.7069H1.79055V37.8126H4.72602V38.8629H0.627441V33.5006Z" fill="#BD9E5E"/>
<path d="M5.39062 38.089L6.11065 37.2597C6.60912 37.6467 7.1076 37.9231 7.71685 37.9231C8.21533 37.9231 8.49226 37.7573 8.49226 37.4256C8.49226 37.1492 8.3261 36.9833 7.38453 36.7622C6.27681 36.4858 5.61217 36.2094 5.61217 35.1038C5.61217 34.1087 6.38758 33.5006 7.49531 33.5006C8.27072 33.5006 8.93536 33.7217 9.48922 34.164L8.87997 35.0485C8.38149 34.7168 7.9384 34.4957 7.49531 34.4957C7.05221 34.4957 6.83067 34.7168 6.83067 34.9932C6.83067 35.3249 7.05222 35.4355 7.99378 35.7119C9.10151 35.9883 9.71076 36.3752 9.71076 37.315C9.71076 38.3654 8.87997 38.9735 7.71685 38.9735C6.88606 38.9735 6.05526 38.6418 5.39062 38.089Z" fill="#BD9E5E"/>
<path d="M11.9262 34.6062H10.2646V33.5006H14.7509V34.6062H13.0894V38.8629H11.9262V34.6062Z" fill="#BD9E5E"/>
<path d="M15.5264 37.6467H16.7449V38.8629H15.5264V37.6467Z" fill="#BD9E5E"/>
<path d="M61.2199 0H29.8159V4.09083H61.2199V0Z" fill="#1C2473"/>
<path d="M41.1147 10.8905H22.0064L9.26758 19.7908L23.5019 29.7415L37.0161 20.3436V32.395L9.26758 51.7435L23.5572 61.6942H41.1147V10.8905ZM37.0161 55.2815V57.6033H29.3728L37.0161 52.241V55.2815ZM37.0161 47.2104L23.5019 56.6083L16.4124 51.6882L36.9607 37.315V47.2104H37.0161ZM37.0161 15.2577L23.5019 24.6556L16.4124 19.7355L23.2803 14.926H37.0161V15.2577Z" fill="#1C2473"/>
<path d="M61.2199 68.4384H29.8159V72.5292H61.2199V68.4384Z" fill="#1C2473"/>
<path d="M67.7 42.8432L54.1303 52.3516V40.3002L81.9896 20.8412L67.7 10.8905H50.0317V61.6942H69.2508L81.9896 52.7939L67.7 42.8432ZM54.0749 20.2884V14.9813H61.8844L54.0749 20.3989V20.2884ZM54.0749 25.4295L67.7 15.9211L74.7894 20.8412L54.1303 35.2696V25.4295H54.0749ZM67.9215 57.6033H53.7426L67.7 47.8738L74.7894 52.7939L67.9215 57.6033Z" fill="#1C2473"/>
<path d="M271.43 16.9837C272.32 16.9837 273.041 16.2578 273.041 15.3623C273.041 14.4668 272.32 13.7409 271.43 13.7409C270.54 13.7409 269.818 14.4668 269.818 15.3623C269.818 16.2578 270.54 16.9837 271.43 16.9837Z" fill="#1C2473"/>
<path d="M276.379 16.9837C277.269 16.9837 277.99 16.2578 277.99 15.3623C277.99 14.4668 277.269 13.7409 276.379 13.7409C275.489 13.7409 274.768 14.4668 274.768 15.3623C274.768 16.2578 275.489 16.9837 276.379 16.9837Z" fill="#1C2473"/>
<path d="M295.313 30.1864L294.623 28.7967C296.464 27.986 297.788 26.1909 297.788 23.9904C297.788 21.153 295.486 18.7788 292.609 18.7788H288.465H286.854H285.242H282.94L285.242 21.5583V34.2978H288.465V33.1397V29.1441H291.227L292.609 31.9236C293.299 33.3713 294.623 34.2978 296.234 34.2978H298.421V31.4025H297.328C296.234 31.4025 295.601 30.7655 295.313 30.1864ZM292.436 26.1909H288.523V21.8479H292.436C293.645 21.8479 294.565 22.8323 294.565 23.9904C294.565 25.2644 293.587 26.1909 292.436 26.1909Z" fill="#1C2473"/>
<path d="M164.216 18.8946L166.518 21.6741V34.4136H169.683V18.8946H166.518H164.216Z" fill="#1C2473"/>
<path d="M121.169 18.8946L123.471 21.6741V34.4136H126.636V18.8946H123.471H121.169Z" fill="#1C2473"/>
<path d="M141.829 28.8546L133.485 18.8946H131.586H129.284L131.586 21.6741V34.4136H134.808V25.496L142.175 34.4136H145.052V18.8946H141.829V28.8546Z" fill="#1C2473"/>
<path d="M300.204 18.8946L302.506 21.6741V34.4136H305.671V18.8946H302.506H300.204Z" fill="#1C2473"/>
<path d="M235.577 28.8546L227.175 18.8946H225.333H223.031L225.333 21.6741V34.4136H228.498V25.496L235.865 34.4136H238.742V18.8946H235.577V28.8546Z" fill="#1C2473"/>
<path d="M201.162 25.1485H193.854V18.8946H190.688V34.4136H193.854V28.1018H194.544H201.162V34.4136H204.385V18.8946H201.162V25.1485Z" fill="#1C2473"/>
<path d="M319.311 30.9392C318.62 31.2866 317.814 31.4603 317.009 31.4603C316.318 31.4603 315.685 31.3445 315.052 31.1129C314.419 30.8813 313.901 30.5338 313.441 30.1285C312.98 29.7231 312.577 29.202 312.347 28.6229C312.06 28.0438 311.944 27.349 311.944 26.6541C311.944 25.9592 312.06 25.2643 312.347 24.6852C312.635 24.1062 312.98 23.585 313.441 23.1797C313.901 22.7743 314.477 22.4269 315.052 22.1953C315.685 21.9636 316.318 21.8478 317.009 21.8478C317.872 21.8478 318.62 22.0215 319.311 22.369C319.944 22.7164 320.519 23.1797 320.98 23.7587L323.512 21.732L323.224 21.3846C322.418 20.516 321.498 19.8211 320.462 19.3578C319.368 18.8367 318.217 18.605 316.951 18.605C315.8 18.605 314.707 18.8367 313.671 19.242C312.693 19.6474 311.772 20.2843 311.081 20.9792C310.333 21.732 309.758 22.6006 309.355 23.6429C308.952 24.6273 308.722 25.6697 308.722 26.712C308.722 27.8122 308.952 28.8545 309.355 29.781C309.758 30.7655 310.391 31.692 311.081 32.4447C311.829 33.1975 312.693 33.7766 313.671 34.182C314.649 34.5873 315.743 34.8189 316.951 34.8189C318.217 34.8189 319.368 34.5873 320.462 34.0661C321.555 33.545 322.476 32.908 323.224 32.0394L323.512 31.692L320.98 29.6652C320.519 30.1285 320.001 30.5917 319.311 30.9392Z" fill="#1C2473"/>
<path d="M183.552 30.9392C182.862 31.2866 182.056 31.4603 181.25 31.4603C180.56 31.4603 179.927 31.3445 179.294 31.1129C178.661 30.8813 178.143 30.5338 177.682 30.1285C177.222 29.7231 176.819 29.202 176.589 28.6229C176.301 28.0438 176.186 27.349 176.186 26.6541C176.186 25.9592 176.301 25.2643 176.589 24.6852C176.877 24.1062 177.222 23.585 177.682 23.1797C178.143 22.7743 178.718 22.4269 179.294 22.1953C179.927 21.9636 180.56 21.8478 181.25 21.8478C182.114 21.8478 182.862 22.0215 183.552 22.369C184.185 22.7164 184.761 23.1797 185.221 23.7587L187.754 21.732L187.466 21.3846C186.66 20.516 185.739 19.8211 184.703 19.3578C183.61 18.8367 182.459 18.605 181.193 18.605C180.042 18.605 178.948 18.8367 177.913 19.242C176.934 19.6474 176.013 20.2843 175.323 20.9792C174.575 21.732 173.999 22.6006 173.596 23.6429C173.194 24.6273 172.963 25.6697 172.963 26.712C172.963 27.8122 173.194 28.8545 173.596 29.781C173.999 30.7655 174.632 31.692 175.323 32.4447C176.071 33.1975 176.934 33.7766 177.913 34.182C178.891 34.5873 179.984 34.8189 181.193 34.8189C182.459 34.8189 183.61 34.5873 184.703 34.0661C185.797 33.545 186.718 32.908 187.466 32.0394L187.754 31.692L185.221 29.6652C184.761 30.1285 184.185 30.5917 183.552 30.9392Z" fill="#1C2473"/>
<path d="M336.633 18.8946V25.1485H329.382V18.8946H326.159V34.4136H329.382V28.1018H330.015H336.633V34.4136H339.856V18.8946H336.633Z" fill="#1C2473"/>
<path d="M153.339 31.1708V28.3913V28.1018H159.209V25.1485H153.339V25.0327V22.1374V21.7899H153.454H161.338V18.8946H151.727H150.116H147.814L150.116 21.6741V34.4136H151.727H153.626H162.201V31.4604H153.339V31.1708Z" fill="#1C2473"/>
<path d="M212.557 31.1708V28.3913V28.1018H218.427V25.1485H212.557V25.0327V22.1374V21.7899H212.673H220.557V18.8946H210.946H209.335H207.033L209.335 21.6741V34.4136H210.946H212.845H221.362V31.4604H212.557V31.1708Z" fill="#1C2473"/>
<path d="M277.703 28.0438C277.703 30.1285 275.862 31.4603 273.905 31.4603C271.948 31.4603 270.107 30.1285 270.107 28.0438V18.8366H266.884H264.582L266.884 21.6162V28.2175C266.884 31.4024 269.589 34.7031 273.905 34.7031C278.221 34.7031 280.926 31.4024 280.926 28.2175V18.8366H277.703V28.0438Z" fill="#1C2473"/>
<path d="M260.611 18.8946H249.676V21.7899H258.078L248.41 31.9815L250.367 34.3557L250.424 34.4136H262.74V31.4604H253.59L262.855 21.6162L260.611 18.8946Z" fill="#1C2473"/>
<path d="M123.607 50.6951H121.169V49.0089H127.872V50.6951H125.435V57.2101H123.683V50.6951H123.607Z" fill="#BD9E5E"/>
<path d="M130.996 49.0103H132.748V52.2295H136.099V49.0103H137.851V57.2116H136.099V53.9157H132.824V57.2116H131.072V49.0103H130.996Z" fill="#BD9E5E"/>
<path d="M141.584 49.0103H147.754V50.6199H143.412V52.3061H147.221V53.9157H143.412V55.602H147.83V57.2116H141.66V49.0103H141.584Z" fill="#BD9E5E"/>
<path d="M155.752 56.0619L156.818 54.7589C157.58 55.372 158.342 55.7553 159.256 55.7553C160.018 55.7553 160.399 55.4487 160.399 54.9888C160.399 54.5289 160.094 54.299 158.723 53.9157C157.047 53.5325 156.057 53.0726 156.057 51.3864C156.057 49.9301 157.275 48.9337 158.875 48.9337C160.094 48.9337 161.084 49.3169 161.922 50.0067L161.008 51.3864C160.322 50.8498 159.561 50.5433 158.875 50.5433C158.19 50.5433 157.809 50.8498 157.809 51.3097C157.809 51.8463 158.19 51.9995 159.561 52.3828C161.236 52.8427 162.151 53.3792 162.151 54.8355C162.151 56.4451 160.932 57.3649 159.18 57.3649C158.037 57.3649 156.742 56.905 155.752 56.0619Z" fill="#BD9E5E"/>
<path d="M164.893 49.0103H166.797L168.473 54.5289L170.301 48.9337H171.825L173.653 54.5289L175.329 49.0103H177.233L174.491 57.2882H172.968L171.139 51.9229L169.311 57.2882H167.788L164.893 49.0103Z" fill="#BD9E5E"/>
<path d="M180.433 49.0103H182.185V57.2116H180.433V49.0103Z" fill="#BD9E5E"/>
<path d="M185.384 56.0619L186.45 54.7589C187.212 55.372 187.974 55.7553 188.888 55.7553C189.65 55.7553 190.03 55.4487 190.03 54.9888C190.03 54.5289 189.726 54.299 188.355 53.9157C186.679 53.5325 185.688 53.0726 185.688 51.3864C185.688 49.9301 186.907 48.9337 188.507 48.9337C189.726 48.9337 190.716 49.3169 191.554 50.0067L190.64 51.3864C189.954 50.8498 189.192 50.5433 188.507 50.5433C187.821 50.5433 187.44 50.8498 187.44 51.3097C187.44 51.8463 187.821 51.9995 189.192 52.3828C190.868 52.8427 191.782 53.3792 191.782 54.8355C191.782 56.4451 190.564 57.3649 188.812 57.3649C187.593 57.3649 186.374 56.905 185.384 56.0619Z" fill="#BD9E5E"/>
<path d="M194.601 56.0619L195.667 54.7589C196.429 55.372 197.19 55.7553 198.105 55.7553C198.866 55.7553 199.247 55.4487 199.247 54.9888C199.247 54.5289 198.943 54.299 197.571 53.9157C195.896 53.5325 194.905 53.0726 194.905 51.3864C194.905 49.9301 196.124 48.9337 197.724 48.9337C198.943 48.9337 199.933 49.3169 200.771 50.0067L199.857 51.3864C199.171 50.8498 198.409 50.5433 197.724 50.5433C197.038 50.5433 196.657 50.8498 196.657 51.3097C196.657 51.8463 197.038 51.9995 198.409 52.3828C200.085 52.8427 200.999 53.3792 200.999 54.8355C200.999 56.4451 199.78 57.3649 198.028 57.3649C196.81 57.3649 195.591 56.905 194.601 56.0619Z" fill="#BD9E5E"/>
<path d="M212.35 49.0103H214.026L217.53 57.2882H215.625L214.863 55.4487H211.436L210.674 57.2882H208.846L212.35 49.0103ZM214.254 53.7624L213.188 51.0798L212.121 53.7624H214.254Z" fill="#BD9E5E"/>
<path d="M220.348 53.6858V49.0103H222.1V53.6091C222.1 54.9121 222.785 55.602 223.852 55.602C224.918 55.602 225.604 54.9121 225.604 53.6091V48.9337H227.356V53.5325C227.356 55.9852 225.985 57.2116 223.775 57.2116C221.719 57.3649 220.348 56.1385 220.348 53.6858Z" fill="#BD9E5E"/>
<path d="M230.631 53.1493C230.631 50.8498 232.383 48.9337 234.897 48.9337C236.42 48.9337 237.258 49.5468 238.02 50.2367L236.953 51.463C236.344 50.9265 235.811 50.5433 234.897 50.5433C233.525 50.5433 232.535 51.693 232.535 53.1493C232.535 54.5289 233.525 55.7553 234.897 55.7553C235.811 55.7553 236.42 55.372 237.029 54.7589L238.172 55.9852C237.334 56.905 236.42 57.3649 234.82 57.3649C232.459 57.3649 230.631 55.5253 230.631 53.1493Z" fill="#BD9E5E"/>
<path d="M243.276 50.6965H240.838V49.0103H247.542V50.6965H245.028V57.2116H243.276V50.6965Z" fill="#BD9E5E"/>
<path d="M250.741 49.0103H252.493V57.2116H250.741V49.0103Z" fill="#BD9E5E"/>
<path d="M255.921 53.1493C255.921 50.8498 257.749 48.9337 260.263 48.9337C262.777 48.9337 264.605 50.8498 264.605 53.1493C264.605 55.4487 262.777 57.3649 260.263 57.3649C257.749 57.3649 255.921 55.4487 255.921 53.1493ZM262.7 53.1493C262.7 51.7696 261.71 50.5433 260.263 50.5433C258.816 50.5433 257.825 51.693 257.825 53.1493C257.825 54.5289 258.816 55.7553 260.263 55.7553C261.71 55.6786 262.7 54.5289 262.7 53.1493Z" fill="#BD9E5E"/>
<path d="M267.88 49.0103H269.556L273.365 54.069V49.0103H275.117V57.2116H273.593L269.632 51.9995V57.2116H267.88V49.0103Z" fill="#BD9E5E"/>
<path d="M278.85 49.0103H285.02V50.6199H280.678V52.3061H284.486V53.9157H280.678V55.602H285.096V57.2116H278.926V49.0103H278.85Z" fill="#BD9E5E"/>
<path d="M288.371 49.0103H294.541V50.6199H290.199V52.3061H294.008V53.9157H290.199V55.602H294.617V57.2116H288.447V49.0103H288.371Z" fill="#BD9E5E"/>
<path d="M297.893 49.0103H301.626C302.692 49.0103 303.454 49.3169 303.987 49.8534C304.444 50.3133 304.673 50.9265 304.673 51.7696C304.673 53.0726 303.987 53.9157 302.921 54.299L304.901 57.2116H302.844L301.092 54.6056H299.721V57.2116H297.969V49.0103H297.893ZM301.473 52.996C302.311 52.996 302.844 52.5361 302.844 51.8462C302.844 51.0798 302.311 50.6965 301.473 50.6965H299.721V53.0726H301.473V52.996Z" fill="#BD9E5E"/>
</svg>
