<?xml version="1.0" encoding="utf-8"?>
<!-- Generator: Adobe Illustrator 21.1.0, SVG Export Plug-In . SVG Version: 6.00 Build 0)  -->
<svg version="1.1" id="Layer_1" xmlns="http://www.w3.org/2000/svg" xmlns:xlink="http://www.w3.org/1999/xlink" x="0px" y="0px"
	 viewBox="0 0 89.3 70.9" style="enable-background:new 0 0 89.3 70.9;" xml:space="preserve">
<style type="text/css">
	.st0{fill:url(#SVGID_1_);}
</style>
<linearGradient id="SVGID_1_" gradientUnits="userSpaceOnUse" x1="1449.6769" y1="480" x2="1449.6769" y2="550.9011" gradientTransform="matrix(-1 0 0 -1 1494.3309 550.9011)">
	<stop  offset="0" style="stop-color:#19FDC0"/>
	<stop  offset="1" style="stop-color:#077BFE"/>
</linearGradient>
<path class="st0" d="M89.3,35.5c0,0-19.1-0.7-21.8-3.4c-2.7-2.7-2.7-10.9-4.8-10.9S61.4,28,59.3,28s-2-15.7-4.8-15.7
	c-2.7,0-1.4,11.6-4.1,11.6C47.7,23.9,48.4,0,45,0c-3.4,0-2,32.7-5.5,32.7s-2-10.2-4.8-10.2c-2.7,0-1.4,8.9-4.1,8.9
	S29.3,8.9,27.3,8.9s-0.7,11.6-2.7,11.6s-1.4-6.1-2.7-6.1c-1.4,0,0.7,15.7-3.4,15.7c-2.7,0-1.4-7.5-3.4-7.5c-2.7,0,2.7,13-15,13
	c17.7,0,12.3,13,15,13c2,0,0.7-7.5,3.4-7.5c4.1,0,2,15.7,3.4,15.7c1.4,0,0.7-6.1,2.7-6.1S25.2,62,27.3,62s0.7-22.5,3.4-22.5
	s1.4,8.9,4.1,8.9c2.7,0,1.4-10.2,4.8-10.2s2,32.7,5.5,32.7c3.4,0,2.7-23.9,5.5-23.9c2.7,0,1.4,11.6,4.1,11.6
	c2.7,0,2.7-15.7,4.8-15.7s1.4,6.8,3.4,6.8s2-8.2,4.8-10.9C70.2,36.1,89.3,35.5,89.3,35.5z"/>
</svg>
